<?xml version="1.0" encoding="UTF-8" standalone="no"?>
<!-- Created with Inkscape (http://www.inkscape.org/) -->

<svg
   version="1.1"
   id="svg1"
   width="39.171844"
   height="41.209095"
   viewBox="0 0 39.171844 41.209095"
   sodipodi:docname="UnderDogsLogo_Head.svg"
   inkscape:version="1.4 (e7c3feb100, 2024-10-09)"
   xmlns:inkscape="http://www.inkscape.org/namespaces/inkscape"
   xmlns:sodipodi="http://sodipodi.sourceforge.net/DTD/sodipodi-0.dtd"
   xmlns="http://www.w3.org/2000/svg"
   xmlns:svg="http://www.w3.org/2000/svg">
  <defs
     id="defs1" />
  <sodipodi:namedview
     id="namedview1"
     pagecolor="#ffffff"
     bordercolor="#999999"
     borderopacity="1"
     inkscape:showpageshadow="2"
     inkscape:pageopacity="0"
     inkscape:pagecheckerboard="0"
     inkscape:deskcolor="#d1d1d1"
     inkscape:zoom="31.504521"
     inkscape:cx="17.092785"
     inkscape:cy="23.187149"
     inkscape:window-width="3840"
     inkscape:window-height="2082"
     inkscape:window-x="0"
     inkscape:window-y="0"
     inkscape:window-maximized="1"
     inkscape:current-layer="g1" />
  <g
     inkscape:groupmode="layer"
     inkscape:label="Image"
     id="g1"
     transform="translate(-60.172103,-46.573217)">
    <path
       style="fill:none;stroke:#ff2a2a;stroke-width:0.0755906;stroke-linecap:square;stroke-dasharray:none"
       d="m 60.275228,54.931239 8.854866,0.621394 c 1.32869,-1.472689 6.114364,-8.259054 11.557931,-8.792727 2.8179,-0.276259 4.260101,-0.312917 7.549938,1.180649 1.708834,-0.921734 2.464863,-0.559254 2.268088,1.08744 6.607248,2.701698 8.111889,6.848502 8.699518,11.185094 0.433933,3.202345 -0.640928,5.571892 -1.242788,8.38882 0.09733,1.83378 -0.977369,4.338909 -1.398137,5.654687 -1.160721,3.629679 1.493364,8.443558 1.677764,7.767426 -5.457052,8.738701 -16.206415,4.895127 -17.367965,4.784734 0.06214,-0.932091 -1.364141,-1.845862 -2.050601,-1.180648 -2.476261,2.399621 -7.085429,0.649333 -7.643147,0.434976 -1.16528,-0.447871 -1.943273,-1.525024 -1.398137,-3.510877 0.479898,-1.748201 0.766387,-2.982692 0.09321,-3.976922 -0.642107,-0.766386 -0.579968,-1.367067 0.186418,-1.802043 l 2.237019,-0.621394 -3.417667,-0.652464 0.155348,-2.671995 -1.957391,0.124279 c -0.91031,0.0578 -1.570814,-1.071377 -0.932092,-2.205949 l 2.361298,-4.19441 c 0.438994,-0.779792 0.42407,-1.419332 0.09321,-1.708834 -1.079787,-0.944814 -1.097796,-1.739904 0.03107,-2.485577 l -0.03107,-1.05637 c -6.089663,-0.921734 -8.865224,-3.044831 -8.326683,-6.369289 z"
       id="path30"
       sodipodi:nodetypes="ccsccscsccssscccccssssccc" />
  </g>
</svg>
