solid OpenSCAD_Model
  facet normal 0.9995065603657314 0.031410759078129194 0
    outer loop
      vertex 11.6 0 1.87
      vertex 11.577110049767949 0.7283700265400351 0.48
      vertex 11.577110049767949 0.7283700265400351 1.87
    endloop
  endfacet
  facet normal 0.9995065603657314 0.031410759078129194 0
    outer loop
      vertex 11.577110049767949 0.7283700265400351 0.48
      vertex 11.6 0 1.87
      vertex 11.6 0 0.48
    endloop
  endfacet
  facet normal 0.99556196460308 0.0941083133185136 0
    outer loop
      vertex 11.577110049767949 0.7283700265400351 1.87
      vertex 11.508530535247942 1.4538655093459294 0.48
      vertex 11.508530535247942 1.4538655093459294 1.87
    endloop
  endfacet
  facet normal 0.99556196460308 0.0941083133185136 0
    outer loop
      vertex 11.508530535247942 1.4538655093459294 0.48
      vertex 11.577110049767949 0.7283700265400351 1.87
      vertex 11.577110049767949 0.7283700265400351 0.48
    endloop
  endfacet
  facet normal 0.9876883405951375 0.15643446504023123 0
    outer loop
      vertex 11.508530535247942 1.4538655093459294 1.87
      vertex 11.394532108452788 2.1736232491944056 0.48
      vertex 11.394532108452788 2.1736232491944056 1.87
    endloop
  endfacet
  facet normal 0.9876883405951375 0.15643446504023123 0
    outer loop
      vertex 11.394532108452788 2.1736232491944056 0.48
      vertex 11.508530535247942 1.4538655093459294 1.87
      vertex 11.508530535247942 1.4538655093459294 0.48
    endloop
  endfacet
  facet normal 0.9759167619387473 0.21814324139654223 0
    outer loop
      vertex 11.394532108452788 2.1736232491944056 1.87
      vertex 11.23556466909212 2.8848026911123155 0.48
      vertex 11.23556466909212 2.8848026911123155 1.87
    endloop
  endfacet
  facet normal 0.9759167619387473 0.21814324139654223 0
    outer loop
      vertex 11.23556466909212 2.8848026911123155 0.48
      vertex 11.394532108452788 2.1736232491944056 1.87
      vertex 11.394532108452788 2.1736232491944056 0.48
    endloop
  endfacet
  facet normal 0.9602936856769427 0.2789911060392303 0
    outer loop
      vertex 11.23556466909212 2.8848026911123155 1.87
      vertex 11.03225558902378 3.58459713474939 0.48
      vertex 11.03225558902378 3.58459713474939 1.87
    endloop
  endfacet
  facet normal 0.9602936856769427 0.2789911060392303 0
    outer loop
      vertex 11.03225558902378 3.58459713474939 0.48
      vertex 11.23556466909212 2.8848026911123155 1.87
      vertex 11.23556466909212 2.8848026911123155 0.48
    endloop
  endfacet
  facet normal 0.9408807689542257 0.33873792024529065 0
    outer loop
      vertex 11.03225558902378 3.58459713474939 1.87
      vertex 10.785407236303715 4.270244811142264 0.48
      vertex 10.785407236303715 4.270244811142264 1.87
    endloop
  endfacet
  facet normal 0.9408807689542257 0.33873792024529065 0
    outer loop
      vertex 10.785407236303715 4.270244811142264 0.48
      vertex 11.03225558902378 3.58459713474939 1.87
      vertex 11.03225558902378 3.58459713474939 0.48
    endloop
  endfacet
  facet normal 0.9177546256839813 0.3971478906347802 0
    outer loop
      vertex 10.785407236303715 4.270244811142264 1.87
      vertex 10.495993808605826 4.939039782154842 0.48
      vertex 10.495993808605826 4.939039782154842 1.87
    endloop
  endfacet
  facet normal 0.9177546256839813 0.3971478906347802 0
    outer loop
      vertex 10.495993808605826 4.939039782154842 0.48
      vertex 10.785407236303715 4.270244811142264 1.87
      vertex 10.785407236303715 4.270244811142264 0.48
    endloop
  endfacet
  facet normal 0.8910065241883683 0.4539904997395455 0
    outer loop
      vertex 10.495993808605826 4.939039782154842 1.87
      vertex 10.165157488508818 5.5883426195798975 0.48
      vertex 10.165157488508818 5.5883426195798975 1.87
    endloop
  endfacet
  facet normal 0.8910065241883683 0.4539904997395455 0
    outer loop
      vertex 10.165157488508818 5.5883426195798975 0.48
      vertex 10.495993808605826 4.939039782154842 1.87
      vertex 10.495993808605826 4.939039782154842 0.48
    endloop
  endfacet
  facet normal 0.8607420270039429 0.5090414157503726 0
    outer loop
      vertex 10.165157488508818 5.5883426195798975 1.87
      vertex 9.794203935823374 6.215590821756361 0.48
      vertex 9.794203935823374 6.215590821756361 1.87
    endloop
  endfacet
  facet normal 0.8607420270039429 0.5090414157503726 0
    outer loop
      vertex 9.794203935823374 6.215590821756361 0.48
      vertex 10.165157488508818 5.5883426195798975 1.87
      vertex 10.165157488508818 5.5883426195798975 0.48
    endloop
  endfacet
  facet normal 0.8270805742745618 0.5620833778521306 0
    outer loop
      vertex 9.794203935823374 6.215590821756361 1.87
      vertex 9.38459713474939 6.818308926592688 0.48
      vertex 9.38459713474939 6.818308926592688 1.87
    endloop
  endfacet
  facet normal 0.8270805742745618 0.5620833778521306 0
    outer loop
      vertex 9.38459713474939 6.818308926592688 0.48
      vertex 9.794203935823374 6.215590821756361 1.87
      vertex 9.794203935823374 6.215590821756361 0.48
    endloop
  endfacet
  facet normal 0.7901550123756901 0.6129070536529768 0
    outer loop
      vertex 9.38459713474939 6.818308926592688 1.87
      vertex 8.937953616199154 7.3941182810848005 0.48
      vertex 8.937953616199154 7.3941182810848005 1.87
    endloop
  endfacet
  facet normal 0.7901550123756901 0.6129070536529768 0
    outer loop
      vertex 8.937953616199154 7.3941182810848005 0.48
      vertex 9.38459713474939 6.818308926592688 1.87
      vertex 9.38459713474939 6.818308926592688 0.48
    endloop
  endfacet
  facet normal 0.7501110696304606 0.6613118653236508 0
    outer loop
      vertex 8.937953616199154 7.3941182810848005 1.87
      vertex 8.456036078088374 7.940746428772789 0.48
      vertex 8.456036078088374 7.940746428772789 1.87
    endloop
  endfacet
  facet normal 0.7501110696304606 0.6613118653236508 0
    outer loop
      vertex 8.456036078088374 7.940746428772789 0.48
      vertex 8.937953616199154 7.3941182810848005 1.87
      vertex 8.937953616199154 7.3941182810848005 0.48
    endloop
  endfacet
  facet normal 0.7071067811865476 0.7071067811865476 0
    outer loop
      vertex 8.456036078088374 7.940746428772789 1.87
      vertex 7.940746428772789 8.456036078088374 0.48
      vertex 7.940746428772789 8.456036078088374 1.87
    endloop
  endfacet
  facet normal 0.7071067811865476 0.7071067811865476 0
    outer loop
      vertex 7.940746428772789 8.456036078088374 0.48
      vertex 8.456036078088374 7.940746428772789 1.87
      vertex 8.456036078088374 7.940746428772789 0.48
    endloop
  endfacet
  facet normal 0.6613118653236508 0.7501110696304606 0
    outer loop
      vertex 7.940746428772789 8.456036078088374 0.48
      vertex 7.3941182810848005 8.937953616199154 1.87
      vertex 7.940746428772789 8.456036078088374 1.87
    endloop
  endfacet
  facet normal 0.6613118653236508 0.7501110696304606 0
    outer loop
      vertex 7.3941182810848005 8.937953616199154 1.87
      vertex 7.940746428772789 8.456036078088374 0.48
      vertex 7.3941182810848005 8.937953616199154 0.48
    endloop
  endfacet
  facet normal 0.6129070536529768 0.7901550123756901 0
    outer loop
      vertex 7.3941182810848005 8.937953616199154 0.48
      vertex 6.818308926592688 9.38459713474939 1.87
      vertex 7.3941182810848005 8.937953616199154 1.87
    endloop
  endfacet
  facet normal 0.6129070536529768 0.7901550123756901 0
    outer loop
      vertex 6.818308926592688 9.38459713474939 1.87
      vertex 7.3941182810848005 8.937953616199154 0.48
      vertex 6.818308926592688 9.38459713474939 0.48
    endloop
  endfacet
  facet normal 0.5620833778521306 0.8270805742745618 0
    outer loop
      vertex 6.818308926592688 9.38459713474939 0.48
      vertex 6.215590821756361 9.794203935823374 1.87
      vertex 6.818308926592688 9.38459713474939 1.87
    endloop
  endfacet
  facet normal 0.5620833778521306 0.8270805742745618 0
    outer loop
      vertex 6.215590821756361 9.794203935823374 1.87
      vertex 6.818308926592688 9.38459713474939 0.48
      vertex 6.215590821756361 9.794203935823374 0.48
    endloop
  endfacet
  facet normal 0.5090414157503721 0.8607420270039431 0
    outer loop
      vertex 6.215590821756361 9.794203935823374 0.48
      vertex 5.588342619579897 10.165157488508818 1.87
      vertex 6.215590821756361 9.794203935823374 1.87
    endloop
  endfacet
  facet normal 0.5090414157503721 0.8607420270039431 0
    outer loop
      vertex 5.588342619579897 10.165157488508818 1.87
      vertex 6.215590821756361 9.794203935823374 0.48
      vertex 5.588342619579897 10.165157488508818 0.48
    endloop
  endfacet
  facet normal 0.4539904997395465 0.8910065241883679 0
    outer loop
      vertex 5.588342619579897 10.165157488508818 0.48
      vertex 4.939039782154843 10.495993808605826 1.87
      vertex 5.588342619579897 10.165157488508818 1.87
    endloop
  endfacet
  facet normal 0.4539904997395465 0.8910065241883679 0
    outer loop
      vertex 4.939039782154843 10.495993808605826 1.87
      vertex 5.588342619579897 10.165157488508818 0.48
      vertex 4.939039782154843 10.495993808605826 0.48
    endloop
  endfacet
  facet normal 0.3971478906347814 0.9177546256839808 0
    outer loop
      vertex 4.939039782154843 10.495993808605826 0.48
      vertex 4.2702448111422635 10.785407236303717 1.87
      vertex 4.939039782154843 10.495993808605826 1.87
    endloop
  endfacet
  facet normal 0.3971478906347814 0.9177546256839808 0
    outer loop
      vertex 4.2702448111422635 10.785407236303717 1.87
      vertex 4.939039782154843 10.495993808605826 0.48
      vertex 4.2702448111422635 10.785407236303717 0.48
    endloop
  endfacet
  facet normal 0.33873792024528887 0.9408807689542263 0
    outer loop
      vertex 4.2702448111422635 10.785407236303717 0.48
      vertex 3.58459713474939 11.03225558902378 1.87
      vertex 4.2702448111422635 10.785407236303717 1.87
    endloop
  endfacet
  facet normal 0.33873792024528887 0.9408807689542263 0
    outer loop
      vertex 3.58459713474939 11.03225558902378 1.87
      vertex 4.2702448111422635 10.785407236303717 0.48
      vertex 3.58459713474939 11.03225558902378 0.48
    endloop
  endfacet
  facet normal 0.27899110603923066 0.9602936856769427 0
    outer loop
      vertex 3.58459713474939 11.03225558902378 0.48
      vertex 2.8848026911123164 11.23556466909212 1.87
      vertex 3.58459713474939 11.03225558902378 1.87
    endloop
  endfacet
  facet normal 0.27899110603923066 0.9602936856769427 0
    outer loop
      vertex 2.8848026911123164 11.23556466909212 1.87
      vertex 3.58459713474939 11.03225558902378 0.48
      vertex 2.8848026911123164 11.23556466909212 0.48
    endloop
  endfacet
  facet normal 0.21814324139654187 0.9759167619387475 0
    outer loop
      vertex 2.8848026911123164 11.23556466909212 0.48
      vertex 2.173623249194405 11.394532108452788 1.87
      vertex 2.8848026911123164 11.23556466909212 1.87
    endloop
  endfacet
  facet normal 0.21814324139654187 0.9759167619387475 0
    outer loop
      vertex 2.173623249194405 11.394532108452788 1.87
      vertex 2.8848026911123164 11.23556466909212 0.48
      vertex 2.173623249194405 11.394532108452788 0.48
    endloop
  endfacet
  facet normal 0.15643446504023137 0.9876883405951375 0
    outer loop
      vertex 2.173623249194405 11.394532108452788 0.48
      vertex 1.4538655093459296 11.508530535247942 1.87
      vertex 2.173623249194405 11.394532108452788 1.87
    endloop
  endfacet
  facet normal 0.15643446504023137 0.9876883405951375 0
    outer loop
      vertex 1.4538655093459296 11.508530535247942 1.87
      vertex 2.173623249194405 11.394532108452788 0.48
      vertex 1.4538655093459296 11.508530535247942 0.48
    endloop
  endfacet
  facet normal 0.09410831331851341 0.99556196460308 0
    outer loop
      vertex 1.4538655093459296 11.508530535247942 0.48
      vertex 0.728370026540034 11.577110049767949 1.87
      vertex 1.4538655093459296 11.508530535247942 1.87
    endloop
  endfacet
  facet normal 0.09410831331851341 0.99556196460308 0
    outer loop
      vertex 0.728370026540034 11.577110049767949 1.87
      vertex 1.4538655093459296 11.508530535247942 0.48
      vertex 0.728370026540034 11.577110049767949 0.48
    endloop
  endfacet
  facet normal 0.03141075907812925 0.9995065603657316 0
    outer loop
      vertex 0.728370026540034 11.577110049767949 0.48
      vertex 0 11.6 1.87
      vertex 0.728370026540034 11.577110049767949 1.87
    endloop
  endfacet
  facet normal 0.03141075907812925 0.9995065603657316 0
    outer loop
      vertex 0 11.6 1.87
      vertex 0.728370026540034 11.577110049767949 0.48
      vertex 0 11.6 0.48
    endloop
  endfacet
  facet normal -0.03141075907812925 0.9995065603657316 0
    outer loop
      vertex 0 11.6 0.48
      vertex -0.728370026540034 11.577110049767949 1.87
      vertex 0 11.6 1.87
    endloop
  endfacet
  facet normal -0.03141075907812925 0.9995065603657316 0
    outer loop
      vertex -0.728370026540034 11.577110049767949 1.87
      vertex 0 11.6 0.48
      vertex -0.728370026540034 11.577110049767949 0.48
    endloop
  endfacet
  facet normal -0.09410831331851341 0.99556196460308 0
    outer loop
      vertex -0.728370026540034 11.577110049767949 0.48
      vertex -1.4538655093459296 11.508530535247942 1.87
      vertex -0.728370026540034 11.577110049767949 1.87
    endloop
  endfacet
  facet normal -0.09410831331851341 0.99556196460308 0
    outer loop
      vertex -1.4538655093459296 11.508530535247942 1.87
      vertex -0.728370026540034 11.577110049767949 0.48
      vertex -1.4538655093459296 11.508530535247942 0.48
    endloop
  endfacet
  facet normal -0.15643446504023137 0.9876883405951375 0
    outer loop
      vertex -1.4538655093459296 11.508530535247942 0.48
      vertex -2.173623249194405 11.394532108452788 1.87
      vertex -1.4538655093459296 11.508530535247942 1.87
    endloop
  endfacet
  facet normal -0.15643446504023137 0.9876883405951375 0
    outer loop
      vertex -2.173623249194405 11.394532108452788 1.87
      vertex -1.4538655093459296 11.508530535247942 0.48
      vertex -2.173623249194405 11.394532108452788 0.48
    endloop
  endfacet
  facet normal -0.21814324139654187 0.9759167619387475 0
    outer loop
      vertex -2.173623249194405 11.394532108452788 0.48
      vertex -2.8848026911123164 11.23556466909212 1.87
      vertex -2.173623249194405 11.394532108452788 1.87
    endloop
  endfacet
  facet normal -0.21814324139654187 0.9759167619387475 0
    outer loop
      vertex -2.8848026911123164 11.23556466909212 1.87
      vertex -2.173623249194405 11.394532108452788 0.48
      vertex -2.8848026911123164 11.23556466909212 0.48
    endloop
  endfacet
  facet normal -0.27899110603923066 0.9602936856769427 0
    outer loop
      vertex -2.8848026911123164 11.23556466909212 0.48
      vertex -3.58459713474939 11.03225558902378 1.87
      vertex -2.8848026911123164 11.23556466909212 1.87
    endloop
  endfacet
  facet normal -0.27899110603923066 0.9602936856769427 0
    outer loop
      vertex -3.58459713474939 11.03225558902378 1.87
      vertex -2.8848026911123164 11.23556466909212 0.48
      vertex -3.58459713474939 11.03225558902378 0.48
    endloop
  endfacet
  facet normal -0.33873792024528887 0.9408807689542263 0
    outer loop
      vertex -3.58459713474939 11.03225558902378 0.48
      vertex -4.2702448111422635 10.785407236303717 1.87
      vertex -3.58459713474939 11.03225558902378 1.87
    endloop
  endfacet
  facet normal -0.33873792024528887 0.9408807689542263 0
    outer loop
      vertex -4.2702448111422635 10.785407236303717 1.87
      vertex -3.58459713474939 11.03225558902378 0.48
      vertex -4.2702448111422635 10.785407236303717 0.48
    endloop
  endfacet
  facet normal -0.3971478906347814 0.9177546256839808 0
    outer loop
      vertex -4.2702448111422635 10.785407236303717 0.48
      vertex -4.939039782154843 10.495993808605826 1.87
      vertex -4.2702448111422635 10.785407236303717 1.87
    endloop
  endfacet
  facet normal -0.3971478906347814 0.9177546256839808 0
    outer loop
      vertex -4.939039782154843 10.495993808605826 1.87
      vertex -4.2702448111422635 10.785407236303717 0.48
      vertex -4.939039782154843 10.495993808605826 0.48
    endloop
  endfacet
  facet normal -0.4539904997395465 0.8910065241883679 0
    outer loop
      vertex -4.939039782154843 10.495993808605826 0.48
      vertex -5.588342619579897 10.165157488508818 1.87
      vertex -4.939039782154843 10.495993808605826 1.87
    endloop
  endfacet
  facet normal -0.4539904997395465 0.8910065241883679 0
    outer loop
      vertex -5.588342619579897 10.165157488508818 1.87
      vertex -4.939039782154843 10.495993808605826 0.48
      vertex -5.588342619579897 10.165157488508818 0.48
    endloop
  endfacet
  facet normal -0.5090414157503717 0.8607420270039435 0
    outer loop
      vertex -5.588342619579897 10.165157488508818 0.48
      vertex -6.215590821756362 9.794203935823374 1.87
      vertex -5.588342619579897 10.165157488508818 1.87
    endloop
  endfacet
  facet normal -0.5090414157503717 0.8607420270039435 0
    outer loop
      vertex -6.215590821756362 9.794203935823374 1.87
      vertex -5.588342619579897 10.165157488508818 0.48
      vertex -6.215590821756362 9.794203935823374 0.48
    endloop
  endfacet
  facet normal -0.5620833778521311 0.8270805742745614 0
    outer loop
      vertex -6.215590821756362 9.794203935823374 0.48
      vertex -6.818308926592688 9.38459713474939 1.87
      vertex -6.215590821756362 9.794203935823374 1.87
    endloop
  endfacet
  facet normal -0.5620833778521311 0.8270805742745614 0
    outer loop
      vertex -6.818308926592688 9.38459713474939 1.87
      vertex -6.215590821756362 9.794203935823374 0.48
      vertex -6.818308926592688 9.38459713474939 0.48
    endloop
  endfacet
  facet normal -0.6129070536529758 0.7901550123756909 0
    outer loop
      vertex -6.818308926592688 9.38459713474939 0.48
      vertex -7.3941182810848 8.937953616199156 1.87
      vertex -6.818308926592688 9.38459713474939 1.87
    endloop
  endfacet
  facet normal -0.6129070536529758 0.7901550123756909 0
    outer loop
      vertex -7.3941182810848 8.937953616199156 1.87
      vertex -6.818308926592688 9.38459713474939 0.48
      vertex -7.3941182810848 8.937953616199156 0.48
    endloop
  endfacet
  facet normal -0.6613118653236519 0.7501110696304596 0
    outer loop
      vertex -7.3941182810848 8.937953616199156 0.48
      vertex -7.940746428772786 8.456036078088376 1.87
      vertex -7.3941182810848 8.937953616199156 1.87
    endloop
  endfacet
  facet normal -0.6613118653236519 0.7501110696304596 0
    outer loop
      vertex -7.940746428772786 8.456036078088376 1.87
      vertex -7.3941182810848 8.937953616199156 0.48
      vertex -7.940746428772786 8.456036078088376 0.48
    endloop
  endfacet
  facet normal -0.7071067811865476 0.7071067811865476 0
    outer loop
      vertex -8.456036078088376 7.940746428772786 0.48
      vertex -7.940746428772786 8.456036078088376 1.87
      vertex -7.940746428772786 8.456036078088376 0.48
    endloop
  endfacet
  facet normal -0.7071067811865476 0.7071067811865476 0
    outer loop
      vertex -7.940746428772786 8.456036078088376 1.87
      vertex -8.456036078088376 7.940746428772786 0.48
      vertex -8.456036078088376 7.940746428772786 1.87
    endloop
  endfacet
  facet normal -0.7501110696304596 0.6613118653236519 0
    outer loop
      vertex -8.937953616199156 7.3941182810848 0.48
      vertex -8.456036078088376 7.940746428772786 1.87
      vertex -8.456036078088376 7.940746428772786 0.48
    endloop
  endfacet
  facet normal -0.7501110696304596 0.6613118653236519 0
    outer loop
      vertex -8.456036078088376 7.940746428772786 1.87
      vertex -8.937953616199156 7.3941182810848 0.48
      vertex -8.937953616199156 7.3941182810848 1.87
    endloop
  endfacet
  facet normal -0.7901550123756909 0.6129070536529758 0
    outer loop
      vertex -9.38459713474939 6.818308926592688 0.48
      vertex -8.937953616199156 7.3941182810848 1.87
      vertex -8.937953616199156 7.3941182810848 0.48
    endloop
  endfacet
  facet normal -0.7901550123756909 0.6129070536529758 0
    outer loop
      vertex -8.937953616199156 7.3941182810848 1.87
      vertex -9.38459713474939 6.818308926592688 0.48
      vertex -9.38459713474939 6.818308926592688 1.87
    endloop
  endfacet
  facet normal -0.8270805742745614 0.5620833778521311 0
    outer loop
      vertex -9.794203935823374 6.215590821756362 0.48
      vertex -9.38459713474939 6.818308926592688 1.87
      vertex -9.38459713474939 6.818308926592688 0.48
    endloop
  endfacet
  facet normal -0.8270805742745614 0.5620833778521311 0
    outer loop
      vertex -9.38459713474939 6.818308926592688 1.87
      vertex -9.794203935823374 6.215590821756362 0.48
      vertex -9.794203935823374 6.215590821756362 1.87
    endloop
  endfacet
  facet normal -0.860742027003944 0.5090414157503709 0
    outer loop
      vertex -10.165157488508816 5.588342619579898 0.48
      vertex -9.794203935823374 6.215590821756362 1.87
      vertex -9.794203935823374 6.215590821756362 0.48
    endloop
  endfacet
  facet normal -0.860742027003944 0.5090414157503709 0
    outer loop
      vertex -9.794203935823374 6.215590821756362 1.87
      vertex -10.165157488508816 5.588342619579898 0.48
      vertex -10.165157488508816 5.588342619579898 1.87
    endloop
  endfacet
  facet normal -0.8910065241883686 0.4539904997395456 0
    outer loop
      vertex -10.495993808605826 4.93903978215484 0.48
      vertex -10.165157488508816 5.588342619579898 1.87
      vertex -10.165157488508816 5.588342619579898 0.48
    endloop
  endfacet
  facet normal -0.8910065241883686 0.4539904997395456 0
    outer loop
      vertex -10.165157488508816 5.588342619579898 1.87
      vertex -10.495993808605826 4.93903978215484 0.48
      vertex -10.495993808605826 4.93903978215484 1.87
    endloop
  endfacet
  facet normal -0.91775462568398 0.3971478906347831 0
    outer loop
      vertex -10.785407236303717 4.2702448111422635 0.48
      vertex -10.495993808605826 4.93903978215484 1.87
      vertex -10.495993808605826 4.93903978215484 0.48
    endloop
  endfacet
  facet normal -0.91775462568398 0.3971478906347831 0
    outer loop
      vertex -10.495993808605826 4.93903978215484 1.87
      vertex -10.785407236303717 4.2702448111422635 0.48
      vertex -10.785407236303717 4.2702448111422635 1.87
    endloop
  endfacet
  facet normal -0.9408807689542263 0.33873792024528887 0
    outer loop
      vertex -11.03225558902378 3.58459713474939 0.48
      vertex -10.785407236303717 4.2702448111422635 1.87
      vertex -10.785407236303717 4.2702448111422635 0.48
    endloop
  endfacet
  facet normal -0.9408807689542263 0.33873792024528887 0
    outer loop
      vertex -10.785407236303717 4.2702448111422635 1.87
      vertex -11.03225558902378 3.58459713474939 0.48
      vertex -11.03225558902378 3.58459713474939 1.87
    endloop
  endfacet
  facet normal -0.9602936856769427 0.27899110603923066 0
    outer loop
      vertex -11.23556466909212 2.8848026911123164 0.48
      vertex -11.03225558902378 3.58459713474939 1.87
      vertex -11.03225558902378 3.58459713474939 0.48
    endloop
  endfacet
  facet normal -0.9602936856769427 0.27899110603923066 0
    outer loop
      vertex -11.03225558902378 3.58459713474939 1.87
      vertex -11.23556466909212 2.8848026911123164 0.48
      vertex -11.23556466909212 2.8848026911123164 1.87
    endloop
  endfacet
  facet normal -0.9759167619387473 0.21814324139654262 0
    outer loop
      vertex -11.394532108452788 2.173623249194408 0.48
      vertex -11.23556466909212 2.8848026911123164 1.87
      vertex -11.23556466909212 2.8848026911123164 0.48
    endloop
  endfacet
  facet normal -0.9759167619387473 0.21814324139654262 0
    outer loop
      vertex -11.23556466909212 2.8848026911123164 1.87
      vertex -11.394532108452788 2.173623249194408 0.48
      vertex -11.394532108452788 2.173623249194408 1.87
    endloop
  endfacet
  facet normal -0.9876883405951379 0.15643446504023029 0
    outer loop
      vertex -11.508530535247942 1.4538655093459272 0.48
      vertex -11.394532108452788 2.173623249194408 1.87
      vertex -11.394532108452788 2.173623249194408 0.48
    endloop
  endfacet
  facet normal -0.9876883405951379 0.15643446504023029 0
    outer loop
      vertex -11.394532108452788 2.173623249194408 1.87
      vertex -11.508530535247942 1.4538655093459272 0.48
      vertex -11.508530535247942 1.4538655093459272 1.87
    endloop
  endfacet
  facet normal -0.99556196460308 0.09410831331851374 0
    outer loop
      vertex -11.577110049767949 0.728370026540034 0.48
      vertex -11.508530535247942 1.4538655093459272 1.87
      vertex -11.508530535247942 1.4538655093459272 0.48
    endloop
  endfacet
  facet normal -0.99556196460308 0.09410831331851374 0
    outer loop
      vertex -11.508530535247942 1.4538655093459272 1.87
      vertex -11.577110049767949 0.728370026540034 0.48
      vertex -11.577110049767949 0.728370026540034 1.87
    endloop
  endfacet
  facet normal -0.9995065603657316 0.03141075907812925 0
    outer loop
      vertex -11.6 0 0.48
      vertex -11.577110049767949 0.728370026540034 1.87
      vertex -11.577110049767949 0.728370026540034 0.48
    endloop
  endfacet
  facet normal -0.9995065603657316 0.03141075907812925 0
    outer loop
      vertex -11.577110049767949 0.728370026540034 1.87
      vertex -11.6 0 0.48
      vertex -11.6 0 1.87
    endloop
  endfacet
  facet normal -0.9995065603657316 -0.03141075907812925 0
    outer loop
      vertex -11.577110049767949 -0.728370026540034 0.48
      vertex -11.6 0 1.87
      vertex -11.6 0 0.48
    endloop
  endfacet
  facet normal -0.9995065603657316 -0.03141075907812925 0
    outer loop
      vertex -11.6 0 1.87
      vertex -11.577110049767949 -0.728370026540034 0.48
      vertex -11.577110049767949 -0.728370026540034 1.87
    endloop
  endfacet
  facet normal -0.99556196460308 -0.09410831331851374 0
    outer loop
      vertex -11.508530535247942 -1.4538655093459272 0.48
      vertex -11.577110049767949 -0.728370026540034 1.87
      vertex -11.577110049767949 -0.728370026540034 0.48
    endloop
  endfacet
  facet normal -0.99556196460308 -0.09410831331851374 0
    outer loop
      vertex -11.577110049767949 -0.728370026540034 1.87
      vertex -11.508530535247942 -1.4538655093459272 0.48
      vertex -11.508530535247942 -1.4538655093459272 1.87
    endloop
  endfacet
  facet normal -0.9876883405951379 -0.15643446504023029 0
    outer loop
      vertex -11.394532108452788 -2.173623249194408 0.48
      vertex -11.508530535247942 -1.4538655093459272 1.87
      vertex -11.508530535247942 -1.4538655093459272 0.48
    endloop
  endfacet
  facet normal -0.9876883405951379 -0.15643446504023029 0
    outer loop
      vertex -11.508530535247942 -1.4538655093459272 1.87
      vertex -11.394532108452788 -2.173623249194408 0.48
      vertex -11.394532108452788 -2.173623249194408 1.87
    endloop
  endfacet
  facet normal -0.9759167619387473 -0.21814324139654262 0
    outer loop
      vertex -11.23556466909212 -2.8848026911123164 0.48
      vertex -11.394532108452788 -2.173623249194408 1.87
      vertex -11.394532108452788 -2.173623249194408 0.48
    endloop
  endfacet
  facet normal -0.9759167619387473 -0.21814324139654262 0
    outer loop
      vertex -11.394532108452788 -2.173623249194408 1.87
      vertex -11.23556466909212 -2.8848026911123164 0.48
      vertex -11.23556466909212 -2.8848026911123164 1.87
    endloop
  endfacet
  facet normal -0.9602936856769427 -0.27899110603923066 0
    outer loop
      vertex -11.03225558902378 -3.58459713474939 0.48
      vertex -11.23556466909212 -2.8848026911123164 1.87
      vertex -11.23556466909212 -2.8848026911123164 0.48
    endloop
  endfacet
  facet normal -0.9602936856769427 -0.27899110603923066 0
    outer loop
      vertex -11.23556466909212 -2.8848026911123164 1.87
      vertex -11.03225558902378 -3.58459713474939 0.48
      vertex -11.03225558902378 -3.58459713474939 1.87
    endloop
  endfacet
  facet normal -0.9408807689542263 -0.33873792024528887 0
    outer loop
      vertex -10.785407236303717 -4.2702448111422635 0.48
      vertex -11.03225558902378 -3.58459713474939 1.87
      vertex -11.03225558902378 -3.58459713474939 0.48
    endloop
  endfacet
  facet normal -0.9408807689542263 -0.33873792024528887 0
    outer loop
      vertex -11.03225558902378 -3.58459713474939 1.87
      vertex -10.785407236303717 -4.2702448111422635 0.48
      vertex -10.785407236303717 -4.2702448111422635 1.87
    endloop
  endfacet
  facet normal -0.91775462568398 -0.3971478906347831 0
    outer loop
      vertex -10.495993808605826 -4.93903978215484 0.48
      vertex -10.785407236303717 -4.2702448111422635 1.87
      vertex -10.785407236303717 -4.2702448111422635 0.48
    endloop
  endfacet
  facet normal -0.91775462568398 -0.3971478906347831 0
    outer loop
      vertex -10.785407236303717 -4.2702448111422635 1.87
      vertex -10.495993808605826 -4.93903978215484 0.48
      vertex -10.495993808605826 -4.93903978215484 1.87
    endloop
  endfacet
  facet normal -0.8910065241883686 -0.4539904997395456 0
    outer loop
      vertex -10.165157488508816 -5.588342619579898 0.48
      vertex -10.495993808605826 -4.93903978215484 1.87
      vertex -10.495993808605826 -4.93903978215484 0.48
    endloop
  endfacet
  facet normal -0.8910065241883686 -0.4539904997395456 0
    outer loop
      vertex -10.495993808605826 -4.93903978215484 1.87
      vertex -10.165157488508816 -5.588342619579898 0.48
      vertex -10.165157488508816 -5.588342619579898 1.87
    endloop
  endfacet
  facet normal -0.860742027003944 -0.5090414157503709 0
    outer loop
      vertex -9.794203935823374 -6.215590821756362 0.48
      vertex -10.165157488508816 -5.588342619579898 1.87
      vertex -10.165157488508816 -5.588342619579898 0.48
    endloop
  endfacet
  facet normal -0.860742027003944 -0.5090414157503709 0
    outer loop
      vertex -10.165157488508816 -5.588342619579898 1.87
      vertex -9.794203935823374 -6.215590821756362 0.48
      vertex -9.794203935823374 -6.215590821756362 1.87
    endloop
  endfacet
  facet normal -0.8270805742745614 -0.5620833778521311 0
    outer loop
      vertex -9.38459713474939 -6.818308926592688 0.48
      vertex -9.794203935823374 -6.215590821756362 1.87
      vertex -9.794203935823374 -6.215590821756362 0.48
    endloop
  endfacet
  facet normal -0.8270805742745614 -0.5620833778521311 0
    outer loop
      vertex -9.794203935823374 -6.215590821756362 1.87
      vertex -9.38459713474939 -6.818308926592688 0.48
      vertex -9.38459713474939 -6.818308926592688 1.87
    endloop
  endfacet
  facet normal -0.7901550123756909 -0.6129070536529758 0
    outer loop
      vertex -8.937953616199156 -7.3941182810848 0.48
      vertex -9.38459713474939 -6.818308926592688 1.87
      vertex -9.38459713474939 -6.818308926592688 0.48
    endloop
  endfacet
  facet normal -0.7901550123756909 -0.6129070536529758 0
    outer loop
      vertex -9.38459713474939 -6.818308926592688 1.87
      vertex -8.937953616199156 -7.3941182810848 0.48
      vertex -8.937953616199156 -7.3941182810848 1.87
    endloop
  endfacet
  facet normal -0.7501110696304596 -0.6613118653236519 0
    outer loop
      vertex -8.456036078088376 -7.940746428772786 0.48
      vertex -8.937953616199156 -7.3941182810848 1.87
      vertex -8.937953616199156 -7.3941182810848 0.48
    endloop
  endfacet
  facet normal -0.7501110696304596 -0.6613118653236519 0
    outer loop
      vertex -8.937953616199156 -7.3941182810848 1.87
      vertex -8.456036078088376 -7.940746428772786 0.48
      vertex -8.456036078088376 -7.940746428772786 1.87
    endloop
  endfacet
  facet normal -0.7071067811865476 -0.7071067811865476 0
    outer loop
      vertex -7.940746428772786 -8.456036078088376 0.48
      vertex -8.456036078088376 -7.940746428772786 1.87
      vertex -8.456036078088376 -7.940746428772786 0.48
    endloop
  endfacet
  facet normal -0.7071067811865476 -0.7071067811865476 0
    outer loop
      vertex -8.456036078088376 -7.940746428772786 1.87
      vertex -7.940746428772786 -8.456036078088376 0.48
      vertex -7.940746428772786 -8.456036078088376 1.87
    endloop
  endfacet
  facet normal -0.6613118653236519 -0.7501110696304596 0
    outer loop
      vertex -7.940746428772786 -8.456036078088376 0.48
      vertex -7.3941182810848 -8.937953616199156 1.87
      vertex -7.940746428772786 -8.456036078088376 1.87
    endloop
  endfacet
  facet normal -0.6613118653236519 -0.7501110696304596 0
    outer loop
      vertex -7.3941182810848 -8.937953616199156 1.87
      vertex -7.940746428772786 -8.456036078088376 0.48
      vertex -7.3941182810848 -8.937953616199156 0.48
    endloop
  endfacet
  facet normal -0.6129070536529758 -0.7901550123756909 0
    outer loop
      vertex -7.3941182810848 -8.937953616199156 0.48
      vertex -6.818308926592688 -9.38459713474939 1.87
      vertex -7.3941182810848 -8.937953616199156 1.87
    endloop
  endfacet
  facet normal -0.6129070536529758 -0.7901550123756909 0
    outer loop
      vertex -6.818308926592688 -9.38459713474939 1.87
      vertex -7.3941182810848 -8.937953616199156 0.48
      vertex -6.818308926592688 -9.38459713474939 0.48
    endloop
  endfacet
  facet normal -0.5620833778521311 -0.8270805742745614 0
    outer loop
      vertex -6.818308926592688 -9.38459713474939 0.48
      vertex -6.215590821756362 -9.794203935823374 1.87
      vertex -6.818308926592688 -9.38459713474939 1.87
    endloop
  endfacet
  facet normal -0.5620833778521311 -0.8270805742745614 0
    outer loop
      vertex -6.215590821756362 -9.794203935823374 1.87
      vertex -6.818308926592688 -9.38459713474939 0.48
      vertex -6.215590821756362 -9.794203935823374 0.48
    endloop
  endfacet
  facet normal -0.5090414157503709 -0.860742027003944 0
    outer loop
      vertex -6.215590821756362 -9.794203935823374 0.48
      vertex -5.588342619579898 -10.165157488508816 1.87
      vertex -6.215590821756362 -9.794203935823374 1.87
    endloop
  endfacet
  facet normal -0.5090414157503709 -0.860742027003944 0
    outer loop
      vertex -5.588342619579898 -10.165157488508816 1.87
      vertex -6.215590821756362 -9.794203935823374 0.48
      vertex -5.588342619579898 -10.165157488508816 0.48
    endloop
  endfacet
  facet normal -0.4539904997395456 -0.8910065241883686 0
    outer loop
      vertex -5.588342619579898 -10.165157488508816 0.48
      vertex -4.93903978215484 -10.495993808605826 1.87
      vertex -5.588342619579898 -10.165157488508816 1.87
    endloop
  endfacet
  facet normal -0.4539904997395456 -0.8910065241883686 0
    outer loop
      vertex -4.93903978215484 -10.495993808605826 1.87
      vertex -5.588342619579898 -10.165157488508816 0.48
      vertex -4.93903978215484 -10.495993808605826 0.48
    endloop
  endfacet
  facet normal -0.3971478906347831 -0.91775462568398 0
    outer loop
      vertex -4.93903978215484 -10.495993808605826 0.48
      vertex -4.2702448111422635 -10.785407236303717 1.87
      vertex -4.93903978215484 -10.495993808605826 1.87
    endloop
  endfacet
  facet normal -0.3971478906347831 -0.91775462568398 0
    outer loop
      vertex -4.2702448111422635 -10.785407236303717 1.87
      vertex -4.93903978215484 -10.495993808605826 0.48
      vertex -4.2702448111422635 -10.785407236303717 0.48
    endloop
  endfacet
  facet normal -0.33873792024528887 -0.9408807689542263 0
    outer loop
      vertex -4.2702448111422635 -10.785407236303717 0.48
      vertex -3.58459713474939 -11.03225558902378 1.87
      vertex -4.2702448111422635 -10.785407236303717 1.87
    endloop
  endfacet
  facet normal -0.33873792024528887 -0.9408807689542263 0
    outer loop
      vertex -3.58459713474939 -11.03225558902378 1.87
      vertex -4.2702448111422635 -10.785407236303717 0.48
      vertex -3.58459713474939 -11.03225558902378 0.48
    endloop
  endfacet
  facet normal -0.27899110603923066 -0.9602936856769427 0
    outer loop
      vertex -3.58459713474939 -11.03225558902378 0.48
      vertex -2.8848026911123164 -11.23556466909212 1.87
      vertex -3.58459713474939 -11.03225558902378 1.87
    endloop
  endfacet
  facet normal -0.27899110603923066 -0.9602936856769427 0
    outer loop
      vertex -2.8848026911123164 -11.23556466909212 1.87
      vertex -3.58459713474939 -11.03225558902378 0.48
      vertex -2.8848026911123164 -11.23556466909212 0.48
    endloop
  endfacet
  facet normal -0.21814324139654262 -0.9759167619387473 0
    outer loop
      vertex -2.8848026911123164 -11.23556466909212 0.48
      vertex -2.173623249194408 -11.394532108452788 1.87
      vertex -2.8848026911123164 -11.23556466909212 1.87
    endloop
  endfacet
  facet normal -0.21814324139654262 -0.9759167619387473 0
    outer loop
      vertex -2.173623249194408 -11.394532108452788 1.87
      vertex -2.8848026911123164 -11.23556466909212 0.48
      vertex -2.173623249194408 -11.394532108452788 0.48
    endloop
  endfacet
  facet normal -0.15643446504023029 -0.9876883405951379 0
    outer loop
      vertex -2.173623249194408 -11.394532108452788 0.48
      vertex -1.4538655093459272 -11.508530535247942 1.87
      vertex -2.173623249194408 -11.394532108452788 1.87
    endloop
  endfacet
  facet normal -0.15643446504023029 -0.9876883405951379 0
    outer loop
      vertex -1.4538655093459272 -11.508530535247942 1.87
      vertex -2.173623249194408 -11.394532108452788 0.48
      vertex -1.4538655093459272 -11.508530535247942 0.48
    endloop
  endfacet
  facet normal -0.09410831331851445 -0.99556196460308 0
    outer loop
      vertex -1.4538655093459272 -11.508530535247942 0.48
      vertex -0.7283700265400396 -11.577110049767949 1.87
      vertex -1.4538655093459272 -11.508530535247942 1.87
    endloop
  endfacet
  facet normal -0.09410831331851445 -0.99556196460308 0
    outer loop
      vertex -0.7283700265400396 -11.577110049767949 1.87
      vertex -1.4538655093459272 -11.508530535247942 0.48
      vertex -0.7283700265400396 -11.577110049767949 0.48
    endloop
  endfacet
  facet normal -0.03141075907812901 -0.9995065603657316 0
    outer loop
      vertex -0.7283700265400396 -11.577110049767949 0.48
      vertex 0 -11.6 1.87
      vertex -0.7283700265400396 -11.577110049767949 1.87
    endloop
  endfacet
  facet normal -0.03141075907812901 -0.9995065603657316 0
    outer loop
      vertex 0 -11.6 1.87
      vertex -0.7283700265400396 -11.577110049767949 0.48
      vertex 0 -11.6 0.48
    endloop
  endfacet
  facet normal 0.03141075907812901 -0.9995065603657316 0
    outer loop
      vertex 0 -11.6 0.48
      vertex 0.7283700265400396 -11.577110049767949 1.87
      vertex 0 -11.6 1.87
    endloop
  endfacet
  facet normal 0.03141075907812901 -0.9995065603657316 0
    outer loop
      vertex 0.7283700265400396 -11.577110049767949 1.87
      vertex 0 -11.6 0.48
      vertex 0.7283700265400396 -11.577110049767949 0.48
    endloop
  endfacet
  facet normal 0.09410831331851445 -0.99556196460308 0
    outer loop
      vertex 0.7283700265400396 -11.577110049767949 0.48
      vertex 1.4538655093459272 -11.508530535247942 1.87
      vertex 0.7283700265400396 -11.577110049767949 1.87
    endloop
  endfacet
  facet normal 0.09410831331851445 -0.99556196460308 0
    outer loop
      vertex 1.4538655093459272 -11.508530535247942 1.87
      vertex 0.7283700265400396 -11.577110049767949 0.48
      vertex 1.4538655093459272 -11.508530535247942 0.48
    endloop
  endfacet
  facet normal 0.15643446504023029 -0.9876883405951379 0
    outer loop
      vertex 1.4538655093459272 -11.508530535247942 0.48
      vertex 2.173623249194408 -11.394532108452788 1.87
      vertex 1.4538655093459272 -11.508530535247942 1.87
    endloop
  endfacet
  facet normal 0.15643446504023029 -0.9876883405951379 0
    outer loop
      vertex 2.173623249194408 -11.394532108452788 1.87
      vertex 1.4538655093459272 -11.508530535247942 0.48
      vertex 2.173623249194408 -11.394532108452788 0.48
    endloop
  endfacet
  facet normal 0.2181432413965417 -0.9759167619387474 0
    outer loop
      vertex 2.173623249194408 -11.394532108452788 0.48
      vertex 2.8848026911123115 -11.235564669092122 1.87
      vertex 2.173623249194408 -11.394532108452788 1.87
    endloop
  endfacet
  facet normal 0.2181432413965417 -0.9759167619387474 0
    outer loop
      vertex 2.8848026911123115 -11.235564669092122 1.87
      vertex 2.173623249194408 -11.394532108452788 0.48
      vertex 2.8848026911123115 -11.235564669092122 0.48
    endloop
  endfacet
  facet normal 0.2789911060392311 -0.9602936856769425 0
    outer loop
      vertex 2.8848026911123115 -11.235564669092122 0.48
      vertex 3.58459713474939 -11.03225558902378 1.87
      vertex 2.8848026911123115 -11.235564669092122 1.87
    endloop
  endfacet
  facet normal 0.2789911060392311 -0.9602936856769425 0
    outer loop
      vertex 3.58459713474939 -11.03225558902378 1.87
      vertex 2.8848026911123115 -11.235564669092122 0.48
      vertex 3.58459713474939 -11.03225558902378 0.48
    endloop
  endfacet
  facet normal 0.3387379202452909 -0.9408807689542258 0
    outer loop
      vertex 3.58459713474939 -11.03225558902378 0.48
      vertex 4.270244811142269 -10.785407236303714 1.87
      vertex 3.58459713474939 -11.03225558902378 1.87
    endloop
  endfacet
  facet normal 0.3387379202452909 -0.9408807689542258 0
    outer loop
      vertex 4.270244811142269 -10.785407236303714 1.87
      vertex 3.58459713474939 -11.03225558902378 0.48
      vertex 4.270244811142269 -10.785407236303714 0.48
    endloop
  endfacet
  facet normal 0.39714789063478173 -0.9177546256839807 0
    outer loop
      vertex 4.270244811142269 -10.785407236303714 0.48
      vertex 4.93903978215484 -10.495993808605826 1.87
      vertex 4.270244811142269 -10.785407236303714 1.87
    endloop
  endfacet
  facet normal 0.39714789063478173 -0.9177546256839807 0
    outer loop
      vertex 4.93903978215484 -10.495993808605826 1.87
      vertex 4.270244811142269 -10.785407236303714 0.48
      vertex 4.93903978215484 -10.495993808605826 0.48
    endloop
  endfacet
  facet normal 0.4539904997395456 -0.8910065241883686 0
    outer loop
      vertex 4.93903978215484 -10.495993808605826 0.48
      vertex 5.588342619579898 -10.165157488508816 1.87
      vertex 4.93903978215484 -10.495993808605826 1.87
    endloop
  endfacet
  facet normal 0.4539904997395456 -0.8910065241883686 0
    outer loop
      vertex 5.588342619579898 -10.165157488508816 1.87
      vertex 4.93903978215484 -10.495993808605826 0.48
      vertex 5.588342619579898 -10.165157488508816 0.48
    endloop
  endfacet
  facet normal 0.509041415750371 -0.8607420270039438 0
    outer loop
      vertex 5.588342619579898 -10.165157488508816 0.48
      vertex 6.215590821756356 -9.794203935823377 1.87
      vertex 5.588342619579898 -10.165157488508816 1.87
    endloop
  endfacet
  facet normal 0.509041415750371 -0.8607420270039438 0
    outer loop
      vertex 6.215590821756356 -9.794203935823377 1.87
      vertex 5.588342619579898 -10.165157488508816 0.48
      vertex 6.215590821756356 -9.794203935823377 0.48
    endloop
  endfacet
  facet normal 0.5620833778521305 -0.8270805742745618 0
    outer loop
      vertex 6.215590821756356 -9.794203935823377 0.48
      vertex 6.818308926592688 -9.38459713474939 1.87
      vertex 6.215590821756356 -9.794203935823377 1.87
    endloop
  endfacet
  facet normal 0.5620833778521305 -0.8270805742745618 0
    outer loop
      vertex 6.818308926592688 -9.38459713474939 1.87
      vertex 6.215590821756356 -9.794203935823377 0.48
      vertex 6.818308926592688 -9.38459713474939 0.48
    endloop
  endfacet
  facet normal 0.6129070536529765 -0.7901550123756904 0
    outer loop
      vertex 6.818308926592688 -9.38459713474939 0.48
      vertex 7.394118281084803 -8.937953616199152 1.87
      vertex 6.818308926592688 -9.38459713474939 1.87
    endloop
  endfacet
  facet normal 0.6129070536529765 -0.7901550123756904 0
    outer loop
      vertex 7.394118281084803 -8.937953616199152 1.87
      vertex 6.818308926592688 -9.38459713474939 0.48
      vertex 7.394118281084803 -8.937953616199152 0.48
    endloop
  endfacet
  facet normal 0.6613118653236516 -0.7501110696304597 0
    outer loop
      vertex 7.394118281084803 -8.937953616199152 0.48
      vertex 7.940746428772786 -8.456036078088376 1.87
      vertex 7.394118281084803 -8.937953616199152 1.87
    endloop
  endfacet
  facet normal 0.6613118653236516 -0.7501110696304597 0
    outer loop
      vertex 7.940746428772786 -8.456036078088376 1.87
      vertex 7.394118281084803 -8.937953616199152 0.48
      vertex 7.940746428772786 -8.456036078088376 0.48
    endloop
  endfacet
  facet normal 0.7071067811865476 -0.7071067811865476 0
    outer loop
      vertex 7.940746428772786 -8.456036078088376 1.87
      vertex 8.456036078088376 -7.940746428772786 0.48
      vertex 8.456036078088376 -7.940746428772786 1.87
    endloop
  endfacet
  facet normal 0.7071067811865476 -0.7071067811865476 0
    outer loop
      vertex 8.456036078088376 -7.940746428772786 0.48
      vertex 7.940746428772786 -8.456036078088376 1.87
      vertex 7.940746428772786 -8.456036078088376 0.48
    endloop
  endfacet
  facet normal 0.7501110696304597 -0.6613118653236516 0
    outer loop
      vertex 8.456036078088376 -7.940746428772786 1.87
      vertex 8.937953616199152 -7.394118281084803 0.48
      vertex 8.937953616199152 -7.394118281084803 1.87
    endloop
  endfacet
  facet normal 0.7501110696304597 -0.6613118653236516 0
    outer loop
      vertex 8.937953616199152 -7.394118281084803 0.48
      vertex 8.456036078088376 -7.940746428772786 1.87
      vertex 8.456036078088376 -7.940746428772786 0.48
    endloop
  endfacet
  facet normal 0.7901550123756904 -0.6129070536529765 0
    outer loop
      vertex 8.937953616199152 -7.394118281084803 1.87
      vertex 9.38459713474939 -6.818308926592688 0.48
      vertex 9.38459713474939 -6.818308926592688 1.87
    endloop
  endfacet
  facet normal 0.7901550123756904 -0.6129070536529765 0
    outer loop
      vertex 9.38459713474939 -6.818308926592688 0.48
      vertex 8.937953616199152 -7.394118281084803 1.87
      vertex 8.937953616199152 -7.394118281084803 0.48
    endloop
  endfacet
  facet normal 0.8270805742745618 -0.5620833778521305 0
    outer loop
      vertex 9.38459713474939 -6.818308926592688 1.87
      vertex 9.794203935823377 -6.215590821756356 0.48
      vertex 9.794203935823377 -6.215590821756356 1.87
    endloop
  endfacet
  facet normal 0.8270805742745618 -0.5620833778521305 0
    outer loop
      vertex 9.794203935823377 -6.215590821756356 0.48
      vertex 9.38459713474939 -6.818308926592688 1.87
      vertex 9.38459713474939 -6.818308926592688 0.48
    endloop
  endfacet
  facet normal 0.8607420270039438 -0.509041415750371 0
    outer loop
      vertex 9.794203935823377 -6.215590821756356 1.87
      vertex 10.165157488508816 -5.588342619579898 0.48
      vertex 10.165157488508816 -5.588342619579898 1.87
    endloop
  endfacet
  facet normal 0.8607420270039438 -0.509041415750371 0
    outer loop
      vertex 10.165157488508816 -5.588342619579898 0.48
      vertex 9.794203935823377 -6.215590821756356 1.87
      vertex 9.794203935823377 -6.215590821756356 0.48
    endloop
  endfacet
  facet normal 0.8910065241883686 -0.4539904997395456 0
    outer loop
      vertex 10.165157488508816 -5.588342619579898 1.87
      vertex 10.495993808605826 -4.93903978215484 0.48
      vertex 10.495993808605826 -4.93903978215484 1.87
    endloop
  endfacet
  facet normal 0.8910065241883686 -0.4539904997395456 0
    outer loop
      vertex 10.495993808605826 -4.93903978215484 0.48
      vertex 10.165157488508816 -5.588342619579898 1.87
      vertex 10.165157488508816 -5.588342619579898 0.48
    endloop
  endfacet
  facet normal 0.9177546256839807 -0.39714789063478173 0
    outer loop
      vertex 10.495993808605826 -4.93903978215484 1.87
      vertex 10.785407236303714 -4.270244811142269 0.48
      vertex 10.785407236303714 -4.270244811142269 1.87
    endloop
  endfacet
  facet normal 0.9177546256839807 -0.39714789063478173 0
    outer loop
      vertex 10.785407236303714 -4.270244811142269 0.48
      vertex 10.495993808605826 -4.93903978215484 1.87
      vertex 10.495993808605826 -4.93903978215484 0.48
    endloop
  endfacet
  facet normal 0.9408807689542258 -0.3387379202452909 0
    outer loop
      vertex 10.785407236303714 -4.270244811142269 1.87
      vertex 11.03225558902378 -3.58459713474939 0.48
      vertex 11.03225558902378 -3.58459713474939 1.87
    endloop
  endfacet
  facet normal 0.9408807689542258 -0.3387379202452909 0
    outer loop
      vertex 11.03225558902378 -3.58459713474939 0.48
      vertex 10.785407236303714 -4.270244811142269 1.87
      vertex 10.785407236303714 -4.270244811142269 0.48
    endloop
  endfacet
  facet normal 0.9602936856769425 -0.2789911060392311 0
    outer loop
      vertex 11.03225558902378 -3.58459713474939 1.87
      vertex 11.235564669092122 -2.8848026911123115 0.48
      vertex 11.235564669092122 -2.8848026911123115 1.87
    endloop
  endfacet
  facet normal 0.9602936856769425 -0.2789911060392311 0
    outer loop
      vertex 11.235564669092122 -2.8848026911123115 0.48
      vertex 11.03225558902378 -3.58459713474939 1.87
      vertex 11.03225558902378 -3.58459713474939 0.48
    endloop
  endfacet
  facet normal 0.9759167619387474 -0.2181432413965417 0
    outer loop
      vertex 11.235564669092122 -2.8848026911123115 1.87
      vertex 11.394532108452788 -2.173623249194408 0.48
      vertex 11.394532108452788 -2.173623249194408 1.87
    endloop
  endfacet
  facet normal 0.9759167619387474 -0.2181432413965417 0
    outer loop
      vertex 11.394532108452788 -2.173623249194408 0.48
      vertex 11.235564669092122 -2.8848026911123115 1.87
      vertex 11.235564669092122 -2.8848026911123115 0.48
    endloop
  endfacet
  facet normal 0.9876883405951379 -0.15643446504023029 0
    outer loop
      vertex 11.394532108452788 -2.173623249194408 1.87
      vertex 11.508530535247942 -1.4538655093459272 0.48
      vertex 11.508530535247942 -1.4538655093459272 1.87
    endloop
  endfacet
  facet normal 0.9876883405951379 -0.15643446504023029 0
    outer loop
      vertex 11.508530535247942 -1.4538655093459272 0.48
      vertex 11.394532108452788 -2.173623249194408 1.87
      vertex 11.394532108452788 -2.173623249194408 0.48
    endloop
  endfacet
  facet normal 0.99556196460308 -0.09410831331851445 0
    outer loop
      vertex 11.508530535247942 -1.4538655093459272 1.87
      vertex 11.577110049767949 -0.7283700265400396 0.48
      vertex 11.577110049767949 -0.7283700265400396 1.87
    endloop
  endfacet
  facet normal 0.99556196460308 -0.09410831331851445 0
    outer loop
      vertex 11.577110049767949 -0.7283700265400396 0.48
      vertex 11.508530535247942 -1.4538655093459272 1.87
      vertex 11.508530535247942 -1.4538655093459272 0.48
    endloop
  endfacet
  facet normal 0.9995065603657316 -0.03141075907812901 0
    outer loop
      vertex 11.577110049767949 -0.7283700265400396 1.87
      vertex 11.6 0 0.48
      vertex 11.6 0 1.87
    endloop
  endfacet
  facet normal 0.9995065603657316 -0.03141075907812901 0
    outer loop
      vertex 11.6 0 0.48
      vertex 11.577110049767949 -0.7283700265400396 1.87
      vertex 11.577110049767949 -0.7283700265400396 0.48
    endloop
  endfacet
  facet normal 0 0 -1
    outer loop
      vertex 11.577110049767949 -0.7283700265400396 0.48
      vertex 11.577110049767949 0.7283700265400351 0.48
      vertex 11.6 0 0.48
    endloop
  endfacet
  facet normal 0 0 -1
    outer loop
      vertex 11.508530535247942 -1.4538655093459272 0.48
      vertex 11.577110049767949 0.7283700265400351 0.48
      vertex 11.577110049767949 -0.7283700265400396 0.48
    endloop
  endfacet
  facet normal 0 0 -1
    outer loop
      vertex 11.508530535247942 -1.4538655093459272 0.48
      vertex 11.508530535247942 1.4538655093459294 0.48
      vertex 11.577110049767949 0.7283700265400351 0.48
    endloop
  endfacet
  facet normal 0 0 -1
    outer loop
      vertex 11.394532108452788 -2.173623249194408 0.48
      vertex 11.508530535247942 1.4538655093459294 0.48
      vertex 11.508530535247942 -1.4538655093459272 0.48
    endloop
  endfacet
  facet normal 0 0 -1
    outer loop
      vertex 11.394532108452788 -2.173623249194408 0.48
      vertex 11.394532108452788 2.1736232491944056 0.48
      vertex 11.508530535247942 1.4538655093459294 0.48
    endloop
  endfacet
  facet normal 0 0 -1
    outer loop
      vertex 11.235564669092122 -2.8848026911123115 0.48
      vertex 11.394532108452788 2.1736232491944056 0.48
      vertex 11.394532108452788 -2.173623249194408 0.48
    endloop
  endfacet
  facet normal 0 0 -1
    outer loop
      vertex 11.235564669092122 -2.8848026911123115 0.48
      vertex 11.23556466909212 2.8848026911123155 0.48
      vertex 11.394532108452788 2.1736232491944056 0.48
    endloop
  endfacet
  facet normal 0 0 -1
    outer loop
      vertex 11.03225558902378 -3.58459713474939 0.48
      vertex 11.23556466909212 2.8848026911123155 0.48
      vertex 11.235564669092122 -2.8848026911123115 0.48
    endloop
  endfacet
  facet normal 0 0 -1
    outer loop
      vertex 11.03225558902378 -3.58459713474939 0.48
      vertex 11.03225558902378 3.58459713474939 0.48
      vertex 11.23556466909212 2.8848026911123155 0.48
    endloop
  endfacet
  facet normal 0 0 -1
    outer loop
      vertex 10.785407236303714 -4.270244811142269 0.48
      vertex 11.03225558902378 3.58459713474939 0.48
      vertex 11.03225558902378 -3.58459713474939 0.48
    endloop
  endfacet
  facet normal 0 0 -1
    outer loop
      vertex 10.785407236303714 -4.270244811142269 0.48
      vertex 10.785407236303715 4.270244811142264 0.48
      vertex 11.03225558902378 3.58459713474939 0.48
    endloop
  endfacet
  facet normal 0 0 -1
    outer loop
      vertex 10.495993808605826 -4.93903978215484 0.48
      vertex 10.785407236303715 4.270244811142264 0.48
      vertex 10.785407236303714 -4.270244811142269 0.48
    endloop
  endfacet
  facet normal 0 0 -1
    outer loop
      vertex 10.495993808605826 -4.93903978215484 0.48
      vertex 10.495993808605826 4.939039782154842 0.48
      vertex 10.785407236303715 4.270244811142264 0.48
    endloop
  endfacet
  facet normal 0 0 -1
    outer loop
      vertex 10.165157488508816 -5.588342619579898 0.48
      vertex 10.495993808605826 4.939039782154842 0.48
      vertex 10.495993808605826 -4.93903978215484 0.48
    endloop
  endfacet
  facet normal 0 0 -1
    outer loop
      vertex 10.165157488508816 -5.588342619579898 0.48
      vertex 10.165157488508818 5.5883426195798975 0.48
      vertex 10.495993808605826 4.939039782154842 0.48
    endloop
  endfacet
  facet normal 0 0 -1
    outer loop
      vertex 9.794203935823377 -6.215590821756356 0.48
      vertex 10.165157488508818 5.5883426195798975 0.48
      vertex 10.165157488508816 -5.588342619579898 0.48
    endloop
  endfacet
  facet normal 0 0 -1
    outer loop
      vertex 9.794203935823377 -6.215590821756356 0.48
      vertex 9.794203935823374 6.215590821756361 0.48
      vertex 10.165157488508818 5.5883426195798975 0.48
    endloop
  endfacet
  facet normal 0 0 -1
    outer loop
      vertex 9.38459713474939 -6.818308926592688 0.48
      vertex 9.794203935823374 6.215590821756361 0.48
      vertex 9.794203935823377 -6.215590821756356 0.48
    endloop
  endfacet
  facet normal 0 0 -1
    outer loop
      vertex 9.38459713474939 -6.818308926592688 0.48
      vertex 9.38459713474939 6.818308926592688 0.48
      vertex 9.794203935823374 6.215590821756361 0.48
    endloop
  endfacet
  facet normal 0 0 -1
    outer loop
      vertex 8.937953616199152 -7.394118281084803 0.48
      vertex 9.38459713474939 6.818308926592688 0.48
      vertex 9.38459713474939 -6.818308926592688 0.48
    endloop
  endfacet
  facet normal 0 0 -1
    outer loop
      vertex 8.937953616199152 -7.394118281084803 0.48
      vertex 8.937953616199154 7.3941182810848005 0.48
      vertex 9.38459713474939 6.818308926592688 0.48
    endloop
  endfacet
  facet normal 0 0 -1
    outer loop
      vertex 8.456036078088376 -7.940746428772786 0.48
      vertex 8.937953616199154 7.3941182810848005 0.48
      vertex 8.937953616199152 -7.394118281084803 0.48
    endloop
  endfacet
  facet normal 0 0 -1
    outer loop
      vertex 8.456036078088376 -7.940746428772786 0.48
      vertex 8.456036078088374 7.940746428772789 0.48
      vertex 8.937953616199154 7.3941182810848005 0.48
    endloop
  endfacet
  facet normal 0 0 -1
    outer loop
      vertex 7.940746428772786 -8.456036078088376 0.48
      vertex 8.456036078088374 7.940746428772789 0.48
      vertex 8.456036078088376 -7.940746428772786 0.48
    endloop
  endfacet
  facet normal 0 0 -1
    outer loop
      vertex 7.940746428772786 -8.456036078088376 0.48
      vertex 7.940746428772789 8.456036078088374 0.48
      vertex 8.456036078088374 7.940746428772789 0.48
    endloop
  endfacet
  facet normal 0 0 -1
    outer loop
      vertex 7.394118281084803 -8.937953616199152 0.48
      vertex 7.940746428772789 8.456036078088374 0.48
      vertex 7.940746428772786 -8.456036078088376 0.48
    endloop
  endfacet
  facet normal 0 0 -1
    outer loop
      vertex 7.394118281084803 -8.937953616199152 0.48
      vertex 7.3941182810848005 8.937953616199154 0.48
      vertex 7.940746428772789 8.456036078088374 0.48
    endloop
  endfacet
  facet normal 0 0 -1
    outer loop
      vertex 6.818308926592688 -9.38459713474939 0.48
      vertex 7.3941182810848005 8.937953616199154 0.48
      vertex 7.394118281084803 -8.937953616199152 0.48
    endloop
  endfacet
  facet normal 0 0 -1
    outer loop
      vertex 6.818308926592688 -9.38459713474939 0.48
      vertex 6.818308926592688 9.38459713474939 0.48
      vertex 7.3941182810848005 8.937953616199154 0.48
    endloop
  endfacet
  facet normal 0 0 -1
    outer loop
      vertex 6.215590821756356 -9.794203935823377 0.48
      vertex 6.818308926592688 9.38459713474939 0.48
      vertex 6.818308926592688 -9.38459713474939 0.48
    endloop
  endfacet
  facet normal 0 0 -1
    outer loop
      vertex 6.215590821756356 -9.794203935823377 0.48
      vertex 6.215590821756361 9.794203935823374 0.48
      vertex 6.818308926592688 9.38459713474939 0.48
    endloop
  endfacet
  facet normal 0 0 -1
    outer loop
      vertex 5.588342619579898 -10.165157488508816 0.48
      vertex 6.215590821756361 9.794203935823374 0.48
      vertex 6.215590821756356 -9.794203935823377 0.48
    endloop
  endfacet
  facet normal 0 0 -1
    outer loop
      vertex 5.588342619579898 -10.165157488508816 0.48
      vertex 5.588342619579897 10.165157488508818 0.48
      vertex 6.215590821756361 9.794203935823374 0.48
    endloop
  endfacet
  facet normal 0 0 -1
    outer loop
      vertex 4.93903978215484 -10.495993808605826 0.48
      vertex 5.588342619579897 10.165157488508818 0.48
      vertex 5.588342619579898 -10.165157488508816 0.48
    endloop
  endfacet
  facet normal 0 0 -1
    outer loop
      vertex 4.93903978215484 -10.495993808605826 0.48
      vertex 4.939039782154843 10.495993808605826 0.48
      vertex 5.588342619579897 10.165157488508818 0.48
    endloop
  endfacet
  facet normal 0 0 -1
    outer loop
      vertex 4.270244811142269 -10.785407236303714 0.48
      vertex 4.939039782154843 10.495993808605826 0.48
      vertex 4.93903978215484 -10.495993808605826 0.48
    endloop
  endfacet
  facet normal 0 0 -1
    outer loop
      vertex 4.270244811142269 -10.785407236303714 0.48
      vertex 4.2702448111422635 10.785407236303717 0.48
      vertex 4.939039782154843 10.495993808605826 0.48
    endloop
  endfacet
  facet normal 0 0 -1
    outer loop
      vertex 3.58459713474939 -11.03225558902378 0.48
      vertex 4.2702448111422635 10.785407236303717 0.48
      vertex 4.270244811142269 -10.785407236303714 0.48
    endloop
  endfacet
  facet normal 0 0 -1
    outer loop
      vertex 3.58459713474939 -11.03225558902378 0.48
      vertex 3.58459713474939 11.03225558902378 0.48
      vertex 4.2702448111422635 10.785407236303717 0.48
    endloop
  endfacet
  facet normal 0 0 -1
    outer loop
      vertex 2.8848026911123115 -11.235564669092122 0.48
      vertex 3.58459713474939 11.03225558902378 0.48
      vertex 3.58459713474939 -11.03225558902378 0.48
    endloop
  endfacet
  facet normal 0 0 -1
    outer loop
      vertex 2.8848026911123115 -11.235564669092122 0.48
      vertex 2.8848026911123164 11.23556466909212 0.48
      vertex 3.58459713474939 11.03225558902378 0.48
    endloop
  endfacet
  facet normal 0 0 -1
    outer loop
      vertex 2.173623249194408 -11.394532108452788 0.48
      vertex 2.8848026911123164 11.23556466909212 0.48
      vertex 2.8848026911123115 -11.235564669092122 0.48
    endloop
  endfacet
  facet normal 0 0 -1
    outer loop
      vertex 2.173623249194408 -11.394532108452788 0.48
      vertex 2.173623249194405 11.394532108452788 0.48
      vertex 2.8848026911123164 11.23556466909212 0.48
    endloop
  endfacet
  facet normal 0 0 -1
    outer loop
      vertex 1.4538655093459272 -11.508530535247942 0.48
      vertex 2.173623249194405 11.394532108452788 0.48
      vertex 2.173623249194408 -11.394532108452788 0.48
    endloop
  endfacet
  facet normal 0 0 -1
    outer loop
      vertex 1.4538655093459272 -11.508530535247942 0.48
      vertex 1.4538655093459296 11.508530535247942 0.48
      vertex 2.173623249194405 11.394532108452788 0.48
    endloop
  endfacet
  facet normal 0 0 -1
    outer loop
      vertex 0.7283700265400396 -11.577110049767949 0.48
      vertex 1.4538655093459296 11.508530535247942 0.48
      vertex 1.4538655093459272 -11.508530535247942 0.48
    endloop
  endfacet
  facet normal 0 0 -1
    outer loop
      vertex 0.7283700265400396 -11.577110049767949 0.48
      vertex 0.728370026540034 11.577110049767949 0.48
      vertex 1.4538655093459296 11.508530535247942 0.48
    endloop
  endfacet
  facet normal 0 0 -1
    outer loop
      vertex 0 -11.6 0.48
      vertex 0.728370026540034 11.577110049767949 0.48
      vertex 0.7283700265400396 -11.577110049767949 0.48
    endloop
  endfacet
  facet normal 0 0 -1
    outer loop
      vertex 0 -11.6 0.48
      vertex 0 11.6 0.48
      vertex 0.728370026540034 11.577110049767949 0.48
    endloop
  endfacet
  facet normal 0 0 -1
    outer loop
      vertex -0.7283700265400396 -11.577110049767949 0.48
      vertex 0 11.6 0.48
      vertex 0 -11.6 0.48
    endloop
  endfacet
  facet normal 0 0 -1
    outer loop
      vertex -0.7283700265400396 -11.577110049767949 0.48
      vertex -0.728370026540034 11.577110049767949 0.48
      vertex 0 11.6 0.48
    endloop
  endfacet
  facet normal 0 0 -1
    outer loop
      vertex -1.4538655093459272 -11.508530535247942 0.48
      vertex -0.728370026540034 11.577110049767949 0.48
      vertex -0.7283700265400396 -11.577110049767949 0.48
    endloop
  endfacet
  facet normal 0 0 -1
    outer loop
      vertex -1.4538655093459272 -11.508530535247942 0.48
      vertex -1.4538655093459296 11.508530535247942 0.48
      vertex -0.728370026540034 11.577110049767949 0.48
    endloop
  endfacet
  facet normal 0 0 -1
    outer loop
      vertex -2.173623249194408 -11.394532108452788 0.48
      vertex -1.4538655093459296 11.508530535247942 0.48
      vertex -1.4538655093459272 -11.508530535247942 0.48
    endloop
  endfacet
  facet normal 0 0 -1
    outer loop
      vertex -2.173623249194408 -11.394532108452788 0.48
      vertex -2.173623249194405 11.394532108452788 0.48
      vertex -1.4538655093459296 11.508530535247942 0.48
    endloop
  endfacet
  facet normal 0 0 -1
    outer loop
      vertex -2.8848026911123164 -11.23556466909212 0.48
      vertex -2.173623249194405 11.394532108452788 0.48
      vertex -2.173623249194408 -11.394532108452788 0.48
    endloop
  endfacet
  facet normal 0 0 -1
    outer loop
      vertex -2.8848026911123164 -11.23556466909212 0.48
      vertex -2.8848026911123164 11.23556466909212 0.48
      vertex -2.173623249194405 11.394532108452788 0.48
    endloop
  endfacet
  facet normal 0 0 -1
    outer loop
      vertex -3.58459713474939 -11.03225558902378 0.48
      vertex -2.8848026911123164 11.23556466909212 0.48
      vertex -2.8848026911123164 -11.23556466909212 0.48
    endloop
  endfacet
  facet normal 0 0 -1
    outer loop
      vertex -3.58459713474939 -11.03225558902378 0.48
      vertex -3.58459713474939 11.03225558902378 0.48
      vertex -2.8848026911123164 11.23556466909212 0.48
    endloop
  endfacet
  facet normal 0 0 -1
    outer loop
      vertex -4.2702448111422635 -10.785407236303717 0.48
      vertex -3.58459713474939 11.03225558902378 0.48
      vertex -3.58459713474939 -11.03225558902378 0.48
    endloop
  endfacet
  facet normal 0 0 -1
    outer loop
      vertex -4.2702448111422635 -10.785407236303717 0.48
      vertex -4.2702448111422635 10.785407236303717 0.48
      vertex -3.58459713474939 11.03225558902378 0.48
    endloop
  endfacet
  facet normal 0 0 -1
    outer loop
      vertex -4.93903978215484 -10.495993808605826 0.48
      vertex -4.2702448111422635 10.785407236303717 0.48
      vertex -4.2702448111422635 -10.785407236303717 0.48
    endloop
  endfacet
  facet normal 0 0 -1
    outer loop
      vertex -4.93903978215484 -10.495993808605826 0.48
      vertex -4.939039782154843 10.495993808605826 0.48
      vertex -4.2702448111422635 10.785407236303717 0.48
    endloop
  endfacet
  facet normal 0 0 -1
    outer loop
      vertex -5.588342619579898 -10.165157488508816 0.48
      vertex -4.939039782154843 10.495993808605826 0.48
      vertex -4.93903978215484 -10.495993808605826 0.48
    endloop
  endfacet
  facet normal 0 0 -1
    outer loop
      vertex -5.588342619579898 -10.165157488508816 0.48
      vertex -5.588342619579897 10.165157488508818 0.48
      vertex -4.939039782154843 10.495993808605826 0.48
    endloop
  endfacet
  facet normal 0 0 -1
    outer loop
      vertex -6.215590821756362 -9.794203935823374 0.48
      vertex -5.588342619579897 10.165157488508818 0.48
      vertex -5.588342619579898 -10.165157488508816 0.48
    endloop
  endfacet
  facet normal 0 0 -1
    outer loop
      vertex -6.215590821756362 -9.794203935823374 0.48
      vertex -6.215590821756362 9.794203935823374 0.48
      vertex -5.588342619579897 10.165157488508818 0.48
    endloop
  endfacet
  facet normal 0 0 -1
    outer loop
      vertex -6.818308926592688 -9.38459713474939 0.48
      vertex -6.215590821756362 9.794203935823374 0.48
      vertex -6.215590821756362 -9.794203935823374 0.48
    endloop
  endfacet
  facet normal 0 0 -1
    outer loop
      vertex -6.818308926592688 -9.38459713474939 0.48
      vertex -6.818308926592688 9.38459713474939 0.48
      vertex -6.215590821756362 9.794203935823374 0.48
    endloop
  endfacet
  facet normal 0 0 -1
    outer loop
      vertex -7.3941182810848 -8.937953616199156 0.48
      vertex -6.818308926592688 9.38459713474939 0.48
      vertex -6.818308926592688 -9.38459713474939 0.48
    endloop
  endfacet
  facet normal 0 0 -1
    outer loop
      vertex -7.3941182810848 -8.937953616199156 0.48
      vertex -7.3941182810848 8.937953616199156 0.48
      vertex -6.818308926592688 9.38459713474939 0.48
    endloop
  endfacet
  facet normal 0 0 -1
    outer loop
      vertex -7.940746428772786 -8.456036078088376 0.48
      vertex -7.3941182810848 8.937953616199156 0.48
      vertex -7.3941182810848 -8.937953616199156 0.48
    endloop
  endfacet
  facet normal 0 0 -1
    outer loop
      vertex -7.940746428772786 -8.456036078088376 0.48
      vertex -7.940746428772786 8.456036078088376 0.48
      vertex -7.3941182810848 8.937953616199156 0.48
    endloop
  endfacet
  facet normal 0 0 -1
    outer loop
      vertex -8.456036078088376 -7.940746428772786 0.48
      vertex -7.940746428772786 8.456036078088376 0.48
      vertex -7.940746428772786 -8.456036078088376 0.48
    endloop
  endfacet
  facet normal 0 0 -1
    outer loop
      vertex -8.456036078088376 -7.940746428772786 0.48
      vertex -8.456036078088376 7.940746428772786 0.48
      vertex -7.940746428772786 8.456036078088376 0.48
    endloop
  endfacet
  facet normal 0 0 -1
    outer loop
      vertex -8.937953616199156 -7.3941182810848 0.48
      vertex -8.456036078088376 7.940746428772786 0.48
      vertex -8.456036078088376 -7.940746428772786 0.48
    endloop
  endfacet
  facet normal 0 0 -1
    outer loop
      vertex -8.937953616199156 -7.3941182810848 0.48
      vertex -8.937953616199156 7.3941182810848 0.48
      vertex -8.456036078088376 7.940746428772786 0.48
    endloop
  endfacet
  facet normal 0 0 -1
    outer loop
      vertex -9.38459713474939 -6.818308926592688 0.48
      vertex -8.937953616199156 7.3941182810848 0.48
      vertex -8.937953616199156 -7.3941182810848 0.48
    endloop
  endfacet
  facet normal 0 0 -1
    outer loop
      vertex -9.38459713474939 -6.818308926592688 0.48
      vertex -9.38459713474939 6.818308926592688 0.48
      vertex -8.937953616199156 7.3941182810848 0.48
    endloop
  endfacet
  facet normal 0 0 -1
    outer loop
      vertex -9.794203935823374 -6.215590821756362 0.48
      vertex -9.38459713474939 6.818308926592688 0.48
      vertex -9.38459713474939 -6.818308926592688 0.48
    endloop
  endfacet
  facet normal 0 0 -1
    outer loop
      vertex -9.794203935823374 -6.215590821756362 0.48
      vertex -9.794203935823374 6.215590821756362 0.48
      vertex -9.38459713474939 6.818308926592688 0.48
    endloop
  endfacet
  facet normal 0 0 -1
    outer loop
      vertex -10.165157488508816 -5.588342619579898 0.48
      vertex -9.794203935823374 6.215590821756362 0.48
      vertex -9.794203935823374 -6.215590821756362 0.48
    endloop
  endfacet
  facet normal 0 0 -1
    outer loop
      vertex -10.165157488508816 -5.588342619579898 0.48
      vertex -10.165157488508816 5.588342619579898 0.48
      vertex -9.794203935823374 6.215590821756362 0.48
    endloop
  endfacet
  facet normal 0 0 -1
    outer loop
      vertex -10.495993808605826 -4.93903978215484 0.48
      vertex -10.165157488508816 5.588342619579898 0.48
      vertex -10.165157488508816 -5.588342619579898 0.48
    endloop
  endfacet
  facet normal 0 0 -1
    outer loop
      vertex -10.495993808605826 -4.93903978215484 0.48
      vertex -10.495993808605826 4.93903978215484 0.48
      vertex -10.165157488508816 5.588342619579898 0.48
    endloop
  endfacet
  facet normal 0 0 -1
    outer loop
      vertex -10.785407236303717 -4.2702448111422635 0.48
      vertex -10.495993808605826 4.93903978215484 0.48
      vertex -10.495993808605826 -4.93903978215484 0.48
    endloop
  endfacet
  facet normal 0 0 -1
    outer loop
      vertex -10.785407236303717 -4.2702448111422635 0.48
      vertex -10.785407236303717 4.2702448111422635 0.48
      vertex -10.495993808605826 4.93903978215484 0.48
    endloop
  endfacet
  facet normal 0 0 -1
    outer loop
      vertex -11.03225558902378 -3.58459713474939 0.48
      vertex -10.785407236303717 4.2702448111422635 0.48
      vertex -10.785407236303717 -4.2702448111422635 0.48
    endloop
  endfacet
  facet normal 0 0 -1
    outer loop
      vertex -11.03225558902378 -3.58459713474939 0.48
      vertex -11.03225558902378 3.58459713474939 0.48
      vertex -10.785407236303717 4.2702448111422635 0.48
    endloop
  endfacet
  facet normal 0 0 -1
    outer loop
      vertex -11.23556466909212 -2.8848026911123164 0.48
      vertex -11.03225558902378 3.58459713474939 0.48
      vertex -11.03225558902378 -3.58459713474939 0.48
    endloop
  endfacet
  facet normal 0 0 -1
    outer loop
      vertex -11.23556466909212 -2.8848026911123164 0.48
      vertex -11.23556466909212 2.8848026911123164 0.48
      vertex -11.03225558902378 3.58459713474939 0.48
    endloop
  endfacet
  facet normal 0 0 -1
    outer loop
      vertex -11.394532108452788 -2.173623249194408 0.48
      vertex -11.23556466909212 2.8848026911123164 0.48
      vertex -11.23556466909212 -2.8848026911123164 0.48
    endloop
  endfacet
  facet normal 0 0 -1
    outer loop
      vertex -11.394532108452788 -2.173623249194408 0.48
      vertex -11.394532108452788 2.173623249194408 0.48
      vertex -11.23556466909212 2.8848026911123164 0.48
    endloop
  endfacet
  facet normal 0 0 -1
    outer loop
      vertex -11.508530535247942 -1.4538655093459272 0.48
      vertex -11.394532108452788 2.173623249194408 0.48
      vertex -11.394532108452788 -2.173623249194408 0.48
    endloop
  endfacet
  facet normal 0 0 -1
    outer loop
      vertex -11.508530535247942 -1.4538655093459272 0.48
      vertex -11.508530535247942 1.4538655093459272 0.48
      vertex -11.394532108452788 2.173623249194408 0.48
    endloop
  endfacet
  facet normal 0 0 -1
    outer loop
      vertex -11.577110049767949 -0.728370026540034 0.48
      vertex -11.508530535247942 1.4538655093459272 0.48
      vertex -11.508530535247942 -1.4538655093459272 0.48
    endloop
  endfacet
  facet normal 0 0 -1
    outer loop
      vertex -11.577110049767949 -0.728370026540034 0.48
      vertex -11.577110049767949 0.728370026540034 0.48
      vertex -11.508530535247942 1.4538655093459272 0.48
    endloop
  endfacet
  facet normal 0 0 -1
    outer loop
      vertex -11.577110049767949 0.728370026540034 0.48
      vertex -11.577110049767949 -0.728370026540034 0.48
      vertex -11.6 0 0.48
    endloop
  endfacet
  facet normal 0 0 1
    outer loop
      vertex 11.577110049767949 0.7283700265400351 1.87
      vertex 11.577110049767949 -0.7283700265400396 1.87
      vertex 11.6 0 1.87
    endloop
  endfacet
  facet normal 0 0 1
    outer loop
      vertex 11.508530535247942 1.4538655093459294 1.87
      vertex 11.577110049767949 -0.7283700265400396 1.87
      vertex 11.577110049767949 0.7283700265400351 1.87
    endloop
  endfacet
  facet normal 0 0 1
    outer loop
      vertex 11.508530535247942 1.4538655093459294 1.87
      vertex 11.508530535247942 -1.4538655093459272 1.87
      vertex 11.577110049767949 -0.7283700265400396 1.87
    endloop
  endfacet
  facet normal 0 0 1
    outer loop
      vertex 11.394532108452788 2.1736232491944056 1.87
      vertex 11.508530535247942 -1.4538655093459272 1.87
      vertex 11.508530535247942 1.4538655093459294 1.87
    endloop
  endfacet
  facet normal 0 0 1
    outer loop
      vertex 11.394532108452788 2.1736232491944056 1.87
      vertex 11.394532108452788 -2.173623249194408 1.87
      vertex 11.508530535247942 -1.4538655093459272 1.87
    endloop
  endfacet
  facet normal 0 0 1
    outer loop
      vertex 11.23556466909212 2.8848026911123155 1.87
      vertex 11.394532108452788 -2.173623249194408 1.87
      vertex 11.394532108452788 2.1736232491944056 1.87
    endloop
  endfacet
  facet normal 0 0 1
    outer loop
      vertex 11.23556466909212 2.8848026911123155 1.87
      vertex 11.235564669092122 -2.8848026911123115 1.87
      vertex 11.394532108452788 -2.173623249194408 1.87
    endloop
  endfacet
  facet normal 0 0 1
    outer loop
      vertex 11.03225558902378 3.58459713474939 1.87
      vertex 11.235564669092122 -2.8848026911123115 1.87
      vertex 11.23556466909212 2.8848026911123155 1.87
    endloop
  endfacet
  facet normal 0 0 1
    outer loop
      vertex 11.03225558902378 3.58459713474939 1.87
      vertex 11.03225558902378 -3.58459713474939 1.87
      vertex 11.235564669092122 -2.8848026911123115 1.87
    endloop
  endfacet
  facet normal 0 0 1
    outer loop
      vertex 10.785407236303715 4.270244811142264 1.87
      vertex 11.03225558902378 -3.58459713474939 1.87
      vertex 11.03225558902378 3.58459713474939 1.87
    endloop
  endfacet
  facet normal 0 0 1
    outer loop
      vertex 10.785407236303715 4.270244811142264 1.87
      vertex 10.785407236303714 -4.270244811142269 1.87
      vertex 11.03225558902378 -3.58459713474939 1.87
    endloop
  endfacet
  facet normal 0 0 1
    outer loop
      vertex 10.495993808605826 4.939039782154842 1.87
      vertex 10.785407236303714 -4.270244811142269 1.87
      vertex 10.785407236303715 4.270244811142264 1.87
    endloop
  endfacet
  facet normal 0 0 1
    outer loop
      vertex 10.495993808605826 4.939039782154842 1.87
      vertex 10.495993808605826 -4.93903978215484 1.87
      vertex 10.785407236303714 -4.270244811142269 1.87
    endloop
  endfacet
  facet normal 0 0 1
    outer loop
      vertex 10.165157488508818 5.5883426195798975 1.87
      vertex 10.495993808605826 -4.93903978215484 1.87
      vertex 10.495993808605826 4.939039782154842 1.87
    endloop
  endfacet
  facet normal 0 0 1
    outer loop
      vertex 10.165157488508818 5.5883426195798975 1.87
      vertex 10.165157488508816 -5.588342619579898 1.87
      vertex 10.495993808605826 -4.93903978215484 1.87
    endloop
  endfacet
  facet normal 0 0 1
    outer loop
      vertex 9.794203935823374 6.215590821756361 1.87
      vertex 10.165157488508816 -5.588342619579898 1.87
      vertex 10.165157488508818 5.5883426195798975 1.87
    endloop
  endfacet
  facet normal 0 0 1
    outer loop
      vertex 9.794203935823374 6.215590821756361 1.87
      vertex 9.794203935823377 -6.215590821756356 1.87
      vertex 10.165157488508816 -5.588342619579898 1.87
    endloop
  endfacet
  facet normal 0 0 1
    outer loop
      vertex 9.38459713474939 6.818308926592688 1.87
      vertex 9.794203935823377 -6.215590821756356 1.87
      vertex 9.794203935823374 6.215590821756361 1.87
    endloop
  endfacet
  facet normal 0 0 1
    outer loop
      vertex 9.38459713474939 6.818308926592688 1.87
      vertex 9.38459713474939 -6.818308926592688 1.87
      vertex 9.794203935823377 -6.215590821756356 1.87
    endloop
  endfacet
  facet normal 0 0 1
    outer loop
      vertex 8.937953616199154 7.3941182810848005 1.87
      vertex 9.38459713474939 -6.818308926592688 1.87
      vertex 9.38459713474939 6.818308926592688 1.87
    endloop
  endfacet
  facet normal 0 0 1
    outer loop
      vertex 8.937953616199154 7.3941182810848005 1.87
      vertex 8.937953616199152 -7.394118281084803 1.87
      vertex 9.38459713474939 -6.818308926592688 1.87
    endloop
  endfacet
  facet normal 0 0 1
    outer loop
      vertex 8.456036078088374 7.940746428772789 1.87
      vertex 8.937953616199152 -7.394118281084803 1.87
      vertex 8.937953616199154 7.3941182810848005 1.87
    endloop
  endfacet
  facet normal 0 0 1
    outer loop
      vertex 8.456036078088374 7.940746428772789 1.87
      vertex 8.456036078088376 -7.940746428772786 1.87
      vertex 8.937953616199152 -7.394118281084803 1.87
    endloop
  endfacet
  facet normal 0 0 1
    outer loop
      vertex 7.940746428772789 8.456036078088374 1.87
      vertex 8.456036078088376 -7.940746428772786 1.87
      vertex 8.456036078088374 7.940746428772789 1.87
    endloop
  endfacet
  facet normal 0 0 1
    outer loop
      vertex 7.940746428772789 8.456036078088374 1.87
      vertex 7.940746428772786 -8.456036078088376 1.87
      vertex 8.456036078088376 -7.940746428772786 1.87
    endloop
  endfacet
  facet normal 0 0 1
    outer loop
      vertex 7.3941182810848005 8.937953616199154 1.87
      vertex 7.940746428772786 -8.456036078088376 1.87
      vertex 7.940746428772789 8.456036078088374 1.87
    endloop
  endfacet
  facet normal 0 0 1
    outer loop
      vertex 7.3941182810848005 8.937953616199154 1.87
      vertex 7.394118281084803 -8.937953616199152 1.87
      vertex 7.940746428772786 -8.456036078088376 1.87
    endloop
  endfacet
  facet normal 0 0 1
    outer loop
      vertex 6.818308926592688 9.38459713474939 1.87
      vertex 7.394118281084803 -8.937953616199152 1.87
      vertex 7.3941182810848005 8.937953616199154 1.87
    endloop
  endfacet
  facet normal 0 0 1
    outer loop
      vertex 6.818308926592688 9.38459713474939 1.87
      vertex 6.818308926592688 -9.38459713474939 1.87
      vertex 7.394118281084803 -8.937953616199152 1.87
    endloop
  endfacet
  facet normal 0 0 1
    outer loop
      vertex 6.215590821756361 9.794203935823374 1.87
      vertex 6.818308926592688 -9.38459713474939 1.87
      vertex 6.818308926592688 9.38459713474939 1.87
    endloop
  endfacet
  facet normal 0 0 1
    outer loop
      vertex 6.215590821756361 9.794203935823374 1.87
      vertex 6.215590821756356 -9.794203935823377 1.87
      vertex 6.818308926592688 -9.38459713474939 1.87
    endloop
  endfacet
  facet normal 0 0 1
    outer loop
      vertex 5.588342619579897 10.165157488508818 1.87
      vertex 6.215590821756356 -9.794203935823377 1.87
      vertex 6.215590821756361 9.794203935823374 1.87
    endloop
  endfacet
  facet normal 0 0 1
    outer loop
      vertex 5.588342619579897 10.165157488508818 1.87
      vertex 5.588342619579898 -10.165157488508816 1.87
      vertex 6.215590821756356 -9.794203935823377 1.87
    endloop
  endfacet
  facet normal 0 0 1
    outer loop
      vertex 4.939039782154843 10.495993808605826 1.87
      vertex 5.588342619579898 -10.165157488508816 1.87
      vertex 5.588342619579897 10.165157488508818 1.87
    endloop
  endfacet
  facet normal 0 0 1
    outer loop
      vertex 4.939039782154843 10.495993808605826 1.87
      vertex 4.93903978215484 -10.495993808605826 1.87
      vertex 5.588342619579898 -10.165157488508816 1.87
    endloop
  endfacet
  facet normal 0 0 1
    outer loop
      vertex 4.2702448111422635 10.785407236303717 1.87
      vertex 4.93903978215484 -10.495993808605826 1.87
      vertex 4.939039782154843 10.495993808605826 1.87
    endloop
  endfacet
  facet normal 0 0 1
    outer loop
      vertex 4.2702448111422635 10.785407236303717 1.87
      vertex 4.270244811142269 -10.785407236303714 1.87
      vertex 4.93903978215484 -10.495993808605826 1.87
    endloop
  endfacet
  facet normal 0 0 1
    outer loop
      vertex 3.58459713474939 11.03225558902378 1.87
      vertex 4.270244811142269 -10.785407236303714 1.87
      vertex 4.2702448111422635 10.785407236303717 1.87
    endloop
  endfacet
  facet normal 0 0 1
    outer loop
      vertex 3.58459713474939 11.03225558902378 1.87
      vertex 3.58459713474939 -11.03225558902378 1.87
      vertex 4.270244811142269 -10.785407236303714 1.87
    endloop
  endfacet
  facet normal 0 0 1
    outer loop
      vertex 2.8848026911123164 11.23556466909212 1.87
      vertex 3.58459713474939 -11.03225558902378 1.87
      vertex 3.58459713474939 11.03225558902378 1.87
    endloop
  endfacet
  facet normal 0 0 1
    outer loop
      vertex 2.8848026911123164 11.23556466909212 1.87
      vertex 2.8848026911123115 -11.235564669092122 1.87
      vertex 3.58459713474939 -11.03225558902378 1.87
    endloop
  endfacet
  facet normal 0 0 1
    outer loop
      vertex 2.173623249194405 11.394532108452788 1.87
      vertex 2.8848026911123115 -11.235564669092122 1.87
      vertex 2.8848026911123164 11.23556466909212 1.87
    endloop
  endfacet
  facet normal 0 0 1
    outer loop
      vertex 2.173623249194405 11.394532108452788 1.87
      vertex 2.173623249194408 -11.394532108452788 1.87
      vertex 2.8848026911123115 -11.235564669092122 1.87
    endloop
  endfacet
  facet normal 0 0 1
    outer loop
      vertex 1.4538655093459296 11.508530535247942 1.87
      vertex 2.173623249194408 -11.394532108452788 1.87
      vertex 2.173623249194405 11.394532108452788 1.87
    endloop
  endfacet
  facet normal 0 0 1
    outer loop
      vertex 1.4538655093459296 11.508530535247942 1.87
      vertex 1.4538655093459272 -11.508530535247942 1.87
      vertex 2.173623249194408 -11.394532108452788 1.87
    endloop
  endfacet
  facet normal 0 0 1
    outer loop
      vertex 0.728370026540034 11.577110049767949 1.87
      vertex 1.4538655093459272 -11.508530535247942 1.87
      vertex 1.4538655093459296 11.508530535247942 1.87
    endloop
  endfacet
  facet normal 0 0 1
    outer loop
      vertex 0.728370026540034 11.577110049767949 1.87
      vertex 0.7283700265400396 -11.577110049767949 1.87
      vertex 1.4538655093459272 -11.508530535247942 1.87
    endloop
  endfacet
  facet normal 0 0 1
    outer loop
      vertex 0 11.6 1.87
      vertex 0.7283700265400396 -11.577110049767949 1.87
      vertex 0.728370026540034 11.577110049767949 1.87
    endloop
  endfacet
  facet normal 0 0 1
    outer loop
      vertex 0 11.6 1.87
      vertex 0 -11.6 1.87
      vertex 0.7283700265400396 -11.577110049767949 1.87
    endloop
  endfacet
  facet normal 0 0 1
    outer loop
      vertex -0.728370026540034 11.577110049767949 1.87
      vertex 0 -11.6 1.87
      vertex 0 11.6 1.87
    endloop
  endfacet
  facet normal 0 0 1
    outer loop
      vertex -0.728370026540034 11.577110049767949 1.87
      vertex -0.7283700265400396 -11.577110049767949 1.87
      vertex 0 -11.6 1.87
    endloop
  endfacet
  facet normal 0 0 1
    outer loop
      vertex -1.4538655093459296 11.508530535247942 1.87
      vertex -0.7283700265400396 -11.577110049767949 1.87
      vertex -0.728370026540034 11.577110049767949 1.87
    endloop
  endfacet
  facet normal 0 0 1
    outer loop
      vertex -1.4538655093459296 11.508530535247942 1.87
      vertex -1.4538655093459272 -11.508530535247942 1.87
      vertex -0.7283700265400396 -11.577110049767949 1.87
    endloop
  endfacet
  facet normal 0 0 1
    outer loop
      vertex -2.173623249194405 11.394532108452788 1.87
      vertex -1.4538655093459272 -11.508530535247942 1.87
      vertex -1.4538655093459296 11.508530535247942 1.87
    endloop
  endfacet
  facet normal 0 0 1
    outer loop
      vertex -2.173623249194405 11.394532108452788 1.87
      vertex -2.173623249194408 -11.394532108452788 1.87
      vertex -1.4538655093459272 -11.508530535247942 1.87
    endloop
  endfacet
  facet normal 0 0 1
    outer loop
      vertex -2.8848026911123164 11.23556466909212 1.87
      vertex -2.173623249194408 -11.394532108452788 1.87
      vertex -2.173623249194405 11.394532108452788 1.87
    endloop
  endfacet
  facet normal 0 0 1
    outer loop
      vertex -2.8848026911123164 11.23556466909212 1.87
      vertex -2.8848026911123164 -11.23556466909212 1.87
      vertex -2.173623249194408 -11.394532108452788 1.87
    endloop
  endfacet
  facet normal 0 0 1
    outer loop
      vertex -3.58459713474939 11.03225558902378 1.87
      vertex -2.8848026911123164 -11.23556466909212 1.87
      vertex -2.8848026911123164 11.23556466909212 1.87
    endloop
  endfacet
  facet normal 0 0 1
    outer loop
      vertex -3.58459713474939 11.03225558902378 1.87
      vertex -3.58459713474939 -11.03225558902378 1.87
      vertex -2.8848026911123164 -11.23556466909212 1.87
    endloop
  endfacet
  facet normal 0 0 1
    outer loop
      vertex -4.2702448111422635 10.785407236303717 1.87
      vertex -3.58459713474939 -11.03225558902378 1.87
      vertex -3.58459713474939 11.03225558902378 1.87
    endloop
  endfacet
  facet normal 0 0 1
    outer loop
      vertex -4.2702448111422635 10.785407236303717 1.87
      vertex -4.2702448111422635 -10.785407236303717 1.87
      vertex -3.58459713474939 -11.03225558902378 1.87
    endloop
  endfacet
  facet normal 0 0 1
    outer loop
      vertex -4.939039782154843 10.495993808605826 1.87
      vertex -4.2702448111422635 -10.785407236303717 1.87
      vertex -4.2702448111422635 10.785407236303717 1.87
    endloop
  endfacet
  facet normal 0 0 1
    outer loop
      vertex -4.939039782154843 10.495993808605826 1.87
      vertex -4.93903978215484 -10.495993808605826 1.87
      vertex -4.2702448111422635 -10.785407236303717 1.87
    endloop
  endfacet
  facet normal 0 0 1
    outer loop
      vertex -5.588342619579897 10.165157488508818 1.87
      vertex -4.93903978215484 -10.495993808605826 1.87
      vertex -4.939039782154843 10.495993808605826 1.87
    endloop
  endfacet
  facet normal 0 0 1
    outer loop
      vertex -5.588342619579897 10.165157488508818 1.87
      vertex -5.588342619579898 -10.165157488508816 1.87
      vertex -4.93903978215484 -10.495993808605826 1.87
    endloop
  endfacet
  facet normal 0 0 1
    outer loop
      vertex -6.215590821756362 9.794203935823374 1.87
      vertex -5.588342619579898 -10.165157488508816 1.87
      vertex -5.588342619579897 10.165157488508818 1.87
    endloop
  endfacet
  facet normal 0 0 1
    outer loop
      vertex -6.215590821756362 9.794203935823374 1.87
      vertex -6.215590821756362 -9.794203935823374 1.87
      vertex -5.588342619579898 -10.165157488508816 1.87
    endloop
  endfacet
  facet normal 0 0 1
    outer loop
      vertex -6.818308926592688 9.38459713474939 1.87
      vertex -6.215590821756362 -9.794203935823374 1.87
      vertex -6.215590821756362 9.794203935823374 1.87
    endloop
  endfacet
  facet normal 0 0 1
    outer loop
      vertex -6.818308926592688 9.38459713474939 1.87
      vertex -6.818308926592688 -9.38459713474939 1.87
      vertex -6.215590821756362 -9.794203935823374 1.87
    endloop
  endfacet
  facet normal 0 0 1
    outer loop
      vertex -7.3941182810848 8.937953616199156 1.87
      vertex -6.818308926592688 -9.38459713474939 1.87
      vertex -6.818308926592688 9.38459713474939 1.87
    endloop
  endfacet
  facet normal 0 0 1
    outer loop
      vertex -7.3941182810848 8.937953616199156 1.87
      vertex -7.3941182810848 -8.937953616199156 1.87
      vertex -6.818308926592688 -9.38459713474939 1.87
    endloop
  endfacet
  facet normal 0 0 1
    outer loop
      vertex -7.940746428772786 8.456036078088376 1.87
      vertex -7.3941182810848 -8.937953616199156 1.87
      vertex -7.3941182810848 8.937953616199156 1.87
    endloop
  endfacet
  facet normal 0 0 1
    outer loop
      vertex -7.940746428772786 8.456036078088376 1.87
      vertex -7.940746428772786 -8.456036078088376 1.87
      vertex -7.3941182810848 -8.937953616199156 1.87
    endloop
  endfacet
  facet normal 0 0 1
    outer loop
      vertex -8.456036078088376 7.940746428772786 1.87
      vertex -7.940746428772786 -8.456036078088376 1.87
      vertex -7.940746428772786 8.456036078088376 1.87
    endloop
  endfacet
  facet normal 0 0 1
    outer loop
      vertex -8.456036078088376 7.940746428772786 1.87
      vertex -8.456036078088376 -7.940746428772786 1.87
      vertex -7.940746428772786 -8.456036078088376 1.87
    endloop
  endfacet
  facet normal 0 0 1
    outer loop
      vertex -8.937953616199156 7.3941182810848 1.87
      vertex -8.456036078088376 -7.940746428772786 1.87
      vertex -8.456036078088376 7.940746428772786 1.87
    endloop
  endfacet
  facet normal 0 0 1
    outer loop
      vertex -8.937953616199156 7.3941182810848 1.87
      vertex -8.937953616199156 -7.3941182810848 1.87
      vertex -8.456036078088376 -7.940746428772786 1.87
    endloop
  endfacet
  facet normal 0 0 1
    outer loop
      vertex -9.38459713474939 6.818308926592688 1.87
      vertex -8.937953616199156 -7.3941182810848 1.87
      vertex -8.937953616199156 7.3941182810848 1.87
    endloop
  endfacet
  facet normal 0 0 1
    outer loop
      vertex -9.38459713474939 6.818308926592688 1.87
      vertex -9.38459713474939 -6.818308926592688 1.87
      vertex -8.937953616199156 -7.3941182810848 1.87
    endloop
  endfacet
  facet normal 0 0 1
    outer loop
      vertex -9.794203935823374 6.215590821756362 1.87
      vertex -9.38459713474939 -6.818308926592688 1.87
      vertex -9.38459713474939 6.818308926592688 1.87
    endloop
  endfacet
  facet normal 0 0 1
    outer loop
      vertex -9.794203935823374 6.215590821756362 1.87
      vertex -9.794203935823374 -6.215590821756362 1.87
      vertex -9.38459713474939 -6.818308926592688 1.87
    endloop
  endfacet
  facet normal 0 0 1
    outer loop
      vertex -10.165157488508816 5.588342619579898 1.87
      vertex -9.794203935823374 -6.215590821756362 1.87
      vertex -9.794203935823374 6.215590821756362 1.87
    endloop
  endfacet
  facet normal 0 0 1
    outer loop
      vertex -10.165157488508816 5.588342619579898 1.87
      vertex -10.165157488508816 -5.588342619579898 1.87
      vertex -9.794203935823374 -6.215590821756362 1.87
    endloop
  endfacet
  facet normal 0 0 1
    outer loop
      vertex -10.495993808605826 4.93903978215484 1.87
      vertex -10.165157488508816 -5.588342619579898 1.87
      vertex -10.165157488508816 5.588342619579898 1.87
    endloop
  endfacet
  facet normal 0 0 1
    outer loop
      vertex -10.495993808605826 4.93903978215484 1.87
      vertex -10.495993808605826 -4.93903978215484 1.87
      vertex -10.165157488508816 -5.588342619579898 1.87
    endloop
  endfacet
  facet normal 0 0 1
    outer loop
      vertex -10.785407236303717 4.2702448111422635 1.87
      vertex -10.495993808605826 -4.93903978215484 1.87
      vertex -10.495993808605826 4.93903978215484 1.87
    endloop
  endfacet
  facet normal 0 0 1
    outer loop
      vertex -10.785407236303717 4.2702448111422635 1.87
      vertex -10.785407236303717 -4.2702448111422635 1.87
      vertex -10.495993808605826 -4.93903978215484 1.87
    endloop
  endfacet
  facet normal 0 0 1
    outer loop
      vertex -11.03225558902378 3.58459713474939 1.87
      vertex -10.785407236303717 -4.2702448111422635 1.87
      vertex -10.785407236303717 4.2702448111422635 1.87
    endloop
  endfacet
  facet normal 0 0 1
    outer loop
      vertex -11.03225558902378 3.58459713474939 1.87
      vertex -11.03225558902378 -3.58459713474939 1.87
      vertex -10.785407236303717 -4.2702448111422635 1.87
    endloop
  endfacet
  facet normal 0 0 1
    outer loop
      vertex -11.23556466909212 2.8848026911123164 1.87
      vertex -11.03225558902378 -3.58459713474939 1.87
      vertex -11.03225558902378 3.58459713474939 1.87
    endloop
  endfacet
  facet normal 0 0 1
    outer loop
      vertex -11.23556466909212 2.8848026911123164 1.87
      vertex -11.23556466909212 -2.8848026911123164 1.87
      vertex -11.03225558902378 -3.58459713474939 1.87
    endloop
  endfacet
  facet normal 0 0 1
    outer loop
      vertex -11.394532108452788 2.173623249194408 1.87
      vertex -11.23556466909212 -2.8848026911123164 1.87
      vertex -11.23556466909212 2.8848026911123164 1.87
    endloop
  endfacet
  facet normal 0 0 1
    outer loop
      vertex -11.394532108452788 2.173623249194408 1.87
      vertex -11.394532108452788 -2.173623249194408 1.87
      vertex -11.23556466909212 -2.8848026911123164 1.87
    endloop
  endfacet
  facet normal 0 0 1
    outer loop
      vertex -11.508530535247942 1.4538655093459272 1.87
      vertex -11.394532108452788 -2.173623249194408 1.87
      vertex -11.394532108452788 2.173623249194408 1.87
    endloop
  endfacet
  facet normal 0 0 1
    outer loop
      vertex -11.508530535247942 1.4538655093459272 1.87
      vertex -11.508530535247942 -1.4538655093459272 1.87
      vertex -11.394532108452788 -2.173623249194408 1.87
    endloop
  endfacet
  facet normal 0 0 1
    outer loop
      vertex -11.577110049767949 0.728370026540034 1.87
      vertex -11.508530535247942 -1.4538655093459272 1.87
      vertex -11.508530535247942 1.4538655093459272 1.87
    endloop
  endfacet
  facet normal 0 0 1
    outer loop
      vertex -11.577110049767949 0.728370026540034 1.87
      vertex -11.577110049767949 -0.728370026540034 1.87
      vertex -11.508530535247942 -1.4538655093459272 1.87
    endloop
  endfacet
  facet normal 0 0 1
    outer loop
      vertex -11.577110049767949 -0.728370026540034 1.87
      vertex -11.577110049767949 0.728370026540034 1.87
      vertex -11.6 0 1.87
    endloop
  endfacet
endsolid OpenSCAD_Model
