<?xml version="1.0" encoding="UTF-8" standalone="no"?>
<!-- Created with Inkscape (http://www.inkscape.org/) -->

<svg
   version="1.1"
   id="svg1"
   width="39.171844"
   height="41.209095"
   viewBox="0 0 39.171844 41.209095"
   sodipodi:docname="UnderDogsLogo_HeadCut.svg"
   inkscape:version="1.4 (e7c3feb100, 2024-10-09)"
   xmlns:inkscape="http://www.inkscape.org/namespaces/inkscape"
   xmlns:sodipodi="http://sodipodi.sourceforge.net/DTD/sodipodi-0.dtd"
   xmlns="http://www.w3.org/2000/svg"
   xmlns:svg="http://www.w3.org/2000/svg">
  <defs
     id="defs1" />
  <sodipodi:namedview
     id="namedview1"
     pagecolor="#ffffff"
     bordercolor="#999999"
     borderopacity="1"
     inkscape:showpageshadow="2"
     inkscape:pageopacity="0"
     inkscape:pagecheckerboard="0"
     inkscape:deskcolor="#d1d1d1"
     inkscape:zoom="32.120514"
     inkscape:cx="15.364013"
     inkscape:cy="26.167078"
     inkscape:window-width="3840"
     inkscape:window-height="2082"
     inkscape:window-x="0"
     inkscape:window-y="0"
     inkscape:window-maximized="1"
     inkscape:current-layer="g1" />
  <g
     inkscape:groupmode="layer"
     inkscape:label="Image"
     id="g1"
     transform="translate(-60.172103,-46.573217)">
    <path
       id="path1"
       style="fill:none;stroke:#ff2a2a;stroke-width:0.0755906;stroke-linecap:square;stroke-dasharray:none"
       d="M 82.593978 46.618139 C 82.011101 46.637088 81.392203 46.691652 80.687728 46.760717 C 75.244161 47.29439 70.457824 54.079044 69.129134 55.551733 L 60.275619 54.930639 C 59.737078 58.255097 62.512127 60.378045 68.60179 61.299779 L 68.63304 62.35642 C 67.504175 63.102093 67.522004 63.897934 68.60179 64.842748 C 68.93265 65.13225 68.947035 65.771941 68.50804 66.551733 L 66.146712 70.745092 C 65.50799 71.879664 66.169996 73.009923 67.080306 72.952123 L 69.037337 72.827123 L 68.881087 75.498998 L 72.299056 76.151342 L 70.062728 76.772436 C 69.296342 77.207412 69.233121 77.808784 69.875228 78.57517 C 70.548405 79.5694 70.263329 80.803532 69.783431 82.551733 C 69.238295 84.537586 70.014635 85.61558 71.179915 86.063451 C 71.737633 86.277808 76.348186 88.027525 78.824447 85.627904 C 79.510907 84.962691 80.937368 85.877454 80.875228 86.809545 C 81.541704 86.872887 85.36476 88.161149 89.533431 87.600561 C 89.4702 87.530643 90.32302 85.28939 90.722884 84.416967 C 90.907701 84.013733 90.777235 82.298337 90.07054 81.651342 C 89.36367 81.004187 87.889394 80.423243 87.275619 79.321264 C 86.530732 78.273735 85.592382 77.348933 84.603744 77.270483 C 81.28853 77.43123 75.435978 77.388733 75.468978 77.301733 C 73.730168 75.878391 72.797475 73.839738 72.672103 71.182592 C 73.049009 71.125719 73.570604 70.833518 73.773665 70.911108 L 81.340072 66.489233 L 81.5764 64.502904 C 82.69228 63.744149 83.393104 62.639301 84.353744 61.797826 C 85.513296 60.782114 86.840529 60.0984 88.332259 59.747045 C 86.865352 56.636677 86.34632 53.718015 86.777572 50.987279 L 87.677962 51.329076 C 89.119698 53.365934 90.474821 55.640479 92.090072 57.20017 L 91.410384 50.750951 C 92.095143 51.778792 92.47545 52.714707 93.488509 53.844701 C 94.641057 55.130285 95.577928 56.471847 96.533431 57.821264 C 97.498242 59.183827 98.28902 59.445962 99.205306 60.213842 C 98.617677 55.87725 97.113335 51.729993 90.506087 49.028295 C 90.702862 47.381601 89.947343 47.01867 88.238509 47.940404 C 85.771131 46.82023 84.34261 46.561293 82.593978 46.618139 z " />
  </g>
</svg>
