<?xml version="1.0" encoding="UTF-8" standalone="no"?>
<!-- Created with Inkscape (http://www.inkscape.org/) -->

<svg
   xmlns:dc="http://purl.org/dc/elements/1.1/"
   xmlns:cc="http://creativecommons.org/ns#"
   xmlns:rdf="http://www.w3.org/1999/02/22-rdf-syntax-ns#"
   xmlns:svg="http://www.w3.org/2000/svg"
   xmlns="http://www.w3.org/2000/svg"
   xmlns:sodipodi="http://sodipodi.sourceforge.net/DTD/sodipodi-0.dtd"
   xmlns:inkscape="http://www.inkscape.org/namespaces/inkscape"
   width="245.41896mm"
   height="82.976677mm"
   viewBox="0 0 245.41896 82.976677"
   version="1.1"
   id="svg933"
   inkscape:version="0.92.4 (5da689c313, 2019-01-14)"
   sodipodi:docname="IDSilouette.svg">
  <defs
     id="defs927" />
  <sodipodi:namedview
     id="base"
     pagecolor="#ffffff"
     bordercolor="#666666"
     borderopacity="1.0"
     inkscape:pageopacity="0.0"
     inkscape:pageshadow="2"
     inkscape:zoom="0.7"
     inkscape:cx="168.55493"
     inkscape:cy="99.588323"
     inkscape:document-units="mm"
     inkscape:current-layer="layer1"
     showgrid="false"
     fit-margin-top="0"
     fit-margin-left="0"
     fit-margin-right="0"
     fit-margin-bottom="0"
     inkscape:window-width="1920"
     inkscape:window-height="1137"
     inkscape:window-x="-8"
     inkscape:window-y="-8"
     inkscape:window-maximized="1" />
  <metadata
     id="metadata930">
    <rdf:RDF>
      <cc:Work
         rdf:about="">
        <dc:format>image/svg+xml</dc:format>
        <dc:type
           rdf:resource="http://purl.org/dc/dcmitype/StillImage" />
        <dc:title></dc:title>
      </cc:Work>
    </rdf:RDF>
  </metadata>
  <g
     inkscape:label="Ebene 1"
     inkscape:groupmode="layer"
     id="layer1"
     transform="translate(5.5368601,-83.154522)">
    <path
       inkscape:connector-curvature="0"
       style="fill:none;stroke:#ffcc00;stroke-width:0.26458332px;stroke-linecap:butt;stroke-linejoin:miter;stroke-opacity:1"
       d="m 144.50722,83.287883 c -15.97541,-0.04421 -32.71475,1.275107 -46.47883,5.457031 -16.578947,6.108648 -33.446928,13.471556 -50.780867,22.851846 -10.548594,0.78415 -16.051054,3.41834 -23.119001,5.47873 -9.628301,1.68209 -17.767744,5.40496 -23.99544584,11.74708 l -0.3302106,1.87277 -1.25470446,0.4568 -3.831807,6.63681 v 13.3196 l 0.8733315,2.39935 1.0335286,5.8601 -2.0277826,0.73795 v 2.40554 l 16.5405914,3.43543 a 24.922882,24.922882 0 0 1 -2.508891,-10.85205 24.922882,24.922882 0 0 1 24.922515,-24.92303 24.922882,24.922882 0 0 1 24.923009,24.92303 24.922882,24.922882 0 0 1 -1.84277,9.36429 l 0.470773,-0.0175 118.637211,-1.36993 0.33485,-0.0156 a 24.922884,24.922884 0 0 1 -1.53839,-8.56279 24.922884,24.922884 0 0 1 24.92301,-24.92303 24.922884,24.922884 0 0 1 24.92304,24.92303 24.922884,24.922884 0 0 1 -0.85268,6.34535 l 13.63123,-2.4443 c -1.08545,-2.99326 0.4762,-4.32049 1.70117,-5.85907 l -0.18087,-2.3182 1.00203,-1.60353 0.0672,-1.13583 -1.20303,-3.40808 -1.2025,-3.87522 2.00451,-4.20954 c 0.0627,-1.69273 0.3343,-3.38556 -0.53483,-5.07826 l -2.27172,-1.73736 c -1.03089,-1.95043 -1.87745,-3.88374 -1.93733,-5.7459 l 0.53433,-8.95347 -13.36352,-12.36152 c -1.86066,-2.324947 -0.96655,-4.619943 -0.68678,-6.921527 l 3.07319,-0.541575 0.28627,-1.624199 c 0,0 -12.28857,-3.437175 -26.45986,-5.478727 -8.4142,-1.212162 -30.13128,-4.189888 -53.47994,-4.254526 z"
       id="path905" />
  </g>
</svg>
