  0
SECTION
  2
BLOCKS
  0
ENDSEC
  0
SECTION
  2
ENTITIES
  0
LINE
  8
0
 10
-61
 20
-34
 11
-60.9527
 21
-34.752
  0
LINE
  8
0
 10
-60.9527
 20
-34.752
 11
-60.8115
 21
-35.4921
  0
LINE
  8
0
 10
-60.8115
 20
-35.4921
 11
-60.5786
 21
-36.2087
  0
LINE
  8
0
 10
-60.5786
 20
-36.2087
 11
-60.2578
 21
-36.8905
  0
LINE
  8
0
 10
-60.2578
 20
-36.8905
 11
-59.8541
 21
-37.5267
  0
LINE
  8
0
 10
-59.8541
 20
-37.5267
 11
-59.3738
 21
-38.1073
  0
LINE
  8
0
 10
-59.3738
 20
-38.1073
 11
-58.8245
 21
-38.6231
  0
LINE
  8
0
 10
-58.8245
 20
-38.6231
 11
-58.215
 21
-39.066
  0
LINE
  8
0
 10
-58.215
 20
-39.066
 11
-57.5547
 21
-39.429
  0
LINE
  8
0
 10
-57.5547
 20
-39.429
 11
-56.8541
 21
-39.7063
  0
LINE
  8
0
 10
-56.8541
 20
-39.7063
 11
-56.1243
 21
-39.8937
  0
LINE
  8
0
 10
-56.1243
 20
-39.8937
 11
-55.3767
 21
-39.9882
  0
LINE
  8
0
 10
-55.3767
 20
-39.9882
 11
55.3767
 21
-39.9882
  0
LINE
  8
0
 10
55.3767
 20
-39.9882
 11
56.1243
 21
-39.8937
  0
LINE
  8
0
 10
56.1243
 20
-39.8937
 11
56.8541
 21
-39.7063
  0
LINE
  8
0
 10
56.8541
 20
-39.7063
 11
57.5547
 21
-39.429
  0
LINE
  8
0
 10
57.5547
 20
-39.429
 11
58.215
 21
-39.066
  0
LINE
  8
0
 10
58.215
 20
-39.066
 11
58.8245
 21
-38.6231
  0
LINE
  8
0
 10
58.8245
 20
-38.6231
 11
59.3738
 21
-38.1073
  0
LINE
  8
0
 10
59.3738
 20
-38.1073
 11
59.8541
 21
-37.5267
  0
LINE
  8
0
 10
59.8541
 20
-37.5267
 11
60.2578
 21
-36.8905
  0
LINE
  8
0
 10
60.2578
 20
-36.8905
 11
60.5786
 21
-36.2087
  0
LINE
  8
0
 10
60.5786
 20
-36.2087
 11
60.8115
 21
-35.4921
  0
LINE
  8
0
 10
60.8115
 20
-35.4921
 11
60.9527
 21
-34.752
  0
LINE
  8
0
 10
60.9527
 20
-34.752
 11
61
 21
-34
  0
LINE
  8
0
 10
61
 20
-34
 11
61
 21
34
  0
LINE
  8
0
 10
61
 20
34
 11
60.9527
 21
34.752
  0
LINE
  8
0
 10
60.9527
 20
34.752
 11
60.8115
 21
35.4921
  0
LINE
  8
0
 10
60.8115
 20
35.4921
 11
60.5786
 21
36.2087
  0
LINE
  8
0
 10
60.5786
 20
36.2087
 11
60.2578
 21
36.8905
  0
LINE
  8
0
 10
60.2578
 20
36.8905
 11
59.8541
 21
37.5267
  0
LINE
  8
0
 10
59.8541
 20
37.5267
 11
59.3738
 21
38.1073
  0
LINE
  8
0
 10
59.3738
 20
38.1073
 11
58.8245
 21
38.6231
  0
LINE
  8
0
 10
58.8245
 20
38.6231
 11
58.215
 21
39.066
  0
LINE
  8
0
 10
58.215
 20
39.066
 11
57.5547
 21
39.429
  0
LINE
  8
0
 10
57.5547
 20
39.429
 11
56.8541
 21
39.7063
  0
LINE
  8
0
 10
56.8541
 20
39.7063
 11
56.1243
 21
39.8937
  0
LINE
  8
0
 10
56.1243
 20
39.8937
 11
55.3767
 21
39.9882
  0
LINE
  8
0
 10
55.3767
 20
39.9882
 11
-55.3767
 21
39.9882
  0
LINE
  8
0
 10
-55.3767
 20
39.9882
 11
-56.1243
 21
39.8937
  0
LINE
  8
0
 10
-56.1243
 20
39.8937
 11
-56.8541
 21
39.7063
  0
LINE
  8
0
 10
-56.8541
 20
39.7063
 11
-57.5547
 21
39.429
  0
LINE
  8
0
 10
-57.5547
 20
39.429
 11
-58.215
 21
39.066
  0
LINE
  8
0
 10
-58.215
 20
39.066
 11
-58.8245
 21
38.6231
  0
LINE
  8
0
 10
-58.8245
 20
38.6231
 11
-59.3738
 21
38.1073
  0
LINE
  8
0
 10
-59.3738
 20
38.1073
 11
-59.8541
 21
37.5267
  0
LINE
  8
0
 10
-59.8541
 20
37.5267
 11
-60.2578
 21
36.8905
  0
LINE
  8
0
 10
-60.2578
 20
36.8905
 11
-60.5786
 21
36.2087
  0
LINE
  8
0
 10
-60.5786
 20
36.2087
 11
-60.8115
 21
35.4921
  0
LINE
  8
0
 10
-60.8115
 20
35.4921
 11
-60.9527
 21
34.752
  0
LINE
  8
0
 10
-60.9527
 20
34.752
 11
-61
 21
34
  0
LINE
  8
0
 10
-61
 20
34
 11
-61
 21
-34
  0
ENDSEC
  0
SECTION
  2
OBJECTS
  0
DICTIONARY
  0
ENDSEC
  0
EOF
