<?xml version="1.0" encoding="UTF-8" standalone="no"?>
<svg
   height="10mm"
   viewBox="0 0 10 10"
   width="10mm"
   fill="#e3e3e3"
   version="1.1"
   id="svg1"
   sodipodi:docname="NFCIcon.svg"
   inkscape:version="1.4.2 (ebf0e940d0, 2025-05-08)"
   xmlns:inkscape="http://www.inkscape.org/namespaces/inkscape"
   xmlns:sodipodi="http://sodipodi.sourceforge.net/DTD/sodipodi-0.dtd"
   xmlns="http://www.w3.org/2000/svg"
   xmlns:svg="http://www.w3.org/2000/svg">
  <defs
     id="defs1" />
  <sodipodi:namedview
     id="namedview1"
     pagecolor="#ffffff"
     bordercolor="#000000"
     borderopacity="0.25"
     inkscape:showpageshadow="2"
     inkscape:pageopacity="0.0"
     inkscape:pagecheckerboard="0"
     inkscape:deskcolor="#d1d1d1"
     inkscape:zoom="4.2382764"
     inkscape:cx="31.498654"
     inkscape:cy="172.47577"
     inkscape:window-width="1037"
     inkscape:window-height="1224"
     inkscape:window-x="2512"
     inkscape:window-y="450"
     inkscape:window-maximized="0"
     inkscape:current-layer="svg1"
     inkscape:document-units="mm" />
  <path
     d="M 3.2000003,6.325001 Q 3.3125002,6.025 3.3812502,5.69375 3.4500003,5.3625 3.4500003,5 q 0,-0.3624996 -0.06875,-0.6937497 -0.06875,-0.3312501 -0.18125,-0.6312501 L 2.2750002,4.0500003 q 0.075,0.2250001 0.1250001,0.4625 0.05,0.2375001 0.05,0.4874997 0,0.25 -0.05,0.4875 -0.05,0.2375 -0.1250001,0.4625 z M 4.8000003,7 Q 5.0125,6.525001 5.10625,6.025 5.2,5.525 5.2,5 5.2,4.4750004 5.10625,3.9750002 5.0125,3.4750002 4.8000003,3.0000003 L 3.8750002,3.3750002 q 0.1750001,0.3750001 0.2500002,0.7812502 0.075,0.4062499 0.075,0.8437496 0,0.4375 -0.075,0.84375 -0.075,0.40625 -0.2500002,0.781251 z M 6.425001,7.675001 Q 6.6875,7.050001 6.81875,6.38125 6.950001,5.7125 6.950001,5 6.950001,4.2875004 6.81875,3.6187503 6.6875,2.9500002 6.425001,2.3250002 L 5.5,2.7250002 Q 5.725,3.2500003 5.837501,3.8250003 5.95,4.4000003 5.95,5 5.95,5.6 5.837501,6.175001 5.725,6.75 5.5,7.275 Z M 5,10 Q 3.9625003,10 3.0500002,9.606251 2.1375002,9.212501 1.4625001,8.537501 0.7875001,7.862501 0.39375,6.950001 0,6.037501 0,5 0,3.9625003 0.39375,3.0500002 0.7875001,2.1375002 1.4625001,1.4625001 2.1375002,0.7875001 3.0500002,0.39375 3.9625003,0 5,0 q 1.037501,0 1.950001,0.39375 0.9125,0.3937501 1.5875,1.0687501 0.675,0.6750001 1.06875,1.5875001 Q 10,3.9625003 10,5 q 0,1.037501 -0.393749,1.950001 -0.39375,0.9125 -1.06875,1.5875 -0.675,0.675 -1.5875,1.06875 Q 6.037501,10 5,10 Z M 5,9.000001 q 1.675001,0 2.837501,-1.1625 1.1625,-1.1625 1.1625,-2.837501 0,-1.6749997 -1.1625,-2.8374998 Q 6.675001,1 5,1 3.3250003,1 2.1625002,2.1625002 1,3.3250003 1,5 1,6.675001 2.1625002,7.837501 3.3250003,9.000001 5,9.000001 Z M 5,5 Z"
     id="path1"
     style="stroke-width:0.0125" />
</svg>
