<?xml version="1.0" encoding="UTF-8" standalone="no"?>
<svg
   fill="none"
   height="100%"
   width="100%"
   viewBox="0 0 512 512"
   version="1.1"
   id="svg27"
   sodipodi:docname="Obsidian_Shapes.svg"
   inkscape:version="1.4 (86a8ad7, 2024-10-11)"
   xmlns:inkscape="http://www.inkscape.org/namespaces/inkscape"
   xmlns:sodipodi="http://sodipodi.sourceforge.net/DTD/sodipodi-0.dtd"
   xmlns="http://www.w3.org/2000/svg"
   xmlns:svg="http://www.w3.org/2000/svg">
  <defs
     id="defs27" />
  <sodipodi:namedview
     id="namedview27"
     pagecolor="#ffffff"
     bordercolor="#000000"
     borderopacity="0.25"
     inkscape:showpageshadow="2"
     inkscape:pageopacity="0.0"
     inkscape:pagecheckerboard="0"
     inkscape:deskcolor="#d1d1d1"
     inkscape:zoom="2.5066383"
     inkscape:cx="237.56918"
     inkscape:cy="274.87013"
     inkscape:window-width="2482"
     inkscape:window-height="2031"
     inkscape:window-x="549"
     inkscape:window-y="37"
     inkscape:window-maximized="0"
     inkscape:current-layer="svg27" />
  <radialGradient
     id="logo-bottom-left"
     cx="0"
     cy="0"
     gradientTransform="matrix(-59,-225,150,-39,161.4,470)"
     gradientUnits="userSpaceOnUse"
     r="1">
    <stop
       offset="0"
       stop-color="#fff"
       stop-opacity=".4"
       id="stop1" />
    <stop
       offset="1"
       stop-opacity=".1"
       id="stop2" />
  </radialGradient>
  <radialGradient
     id="logo-top-right"
     cx="0"
     cy="0"
     gradientTransform="matrix(50,-379,280,37,360,374.2)"
     gradientUnits="userSpaceOnUse"
     r="1">
    <stop
       offset="0"
       stop-color="#fff"
       stop-opacity=".6"
       id="stop3" />
    <stop
       offset="1"
       stop-color="#fff"
       stop-opacity=".1"
       id="stop4" />
  </radialGradient>
  <radialGradient
     id="logo-top-left"
     cx="0"
     cy="0"
     gradientTransform="matrix(69,-319,218,47,175.4,307)"
     gradientUnits="userSpaceOnUse"
     r="1">
    <stop
       offset="0"
       stop-color="#fff"
       stop-opacity=".8"
       id="stop5" />
    <stop
       offset="1"
       stop-color="#fff"
       stop-opacity=".4"
       id="stop6" />
  </radialGradient>
  <radialGradient
     id="logo-bottom-right"
     cx="0"
     cy="0"
     gradientTransform="matrix(-96,-163,187,-111,335.3,512.2)"
     gradientUnits="userSpaceOnUse"
     r="1">
    <stop
       offset="0"
       stop-color="#fff"
       stop-opacity=".3"
       id="stop7" />
    <stop
       offset="1"
       stop-opacity=".3"
       id="stop8" />
  </radialGradient>
  <radialGradient
     id="logo-top-edge"
     cx="0"
     cy="0"
     gradientTransform="matrix(-36,166,-112,-24,310,128.2)"
     gradientUnits="userSpaceOnUse"
     r="1">
    <stop
       offset="0"
       stop-color="#fff"
       stop-opacity="0"
       id="stop9" />
    <stop
       offset="1"
       stop-color="#fff"
       stop-opacity=".2"
       id="stop10" />
  </radialGradient>
  <radialGradient
     id="logo-left-edge"
     cx="0"
     cy="0"
     gradientTransform="matrix(88,89,-190,187,111,220.2)"
     gradientUnits="userSpaceOnUse"
     r="1">
    <stop
       offset="0"
       stop-color="#fff"
       stop-opacity=".2"
       id="stop11" />
    <stop
       offset="1"
       stop-color="#fff"
       stop-opacity=".4"
       id="stop12" />
  </radialGradient>
  <radialGradient
     id="logo-bottom-edge"
     cx="0"
     cy="0"
     gradientTransform="matrix(9,130,-276,20,215,284)"
     gradientUnits="userSpaceOnUse"
     r="1">
    <stop
       offset="0"
       stop-color="#fff"
       stop-opacity=".2"
       id="stop13" />
    <stop
       offset="1"
       stop-color="#fff"
       stop-opacity=".3"
       id="stop14" />
  </radialGradient>
  <radialGradient
     id="logo-middle-edge"
     cx="0"
     cy="0"
     gradientTransform="matrix(-198,-104,327,-623,400,399.2)"
     gradientUnits="userSpaceOnUse"
     r="1">
    <stop
       offset="0"
       stop-color="#fff"
       stop-opacity=".2"
       id="stop15" />
    <stop
       offset=".5"
       stop-color="#fff"
       stop-opacity=".2"
       id="stop16" />
    <stop
       offset="1"
       stop-color="#fff"
       stop-opacity=".3"
       id="stop17" />
  </radialGradient>
  <path
     id="path19"
     style="fill:#1a1a1a"
     d="m 119.41211,215.24805 c -1.28938,3.79361 -3.14861,7.3583 -4.72457,11.03555 -17.437488,38.89557 -34.898242,77.7813 -52.321194,116.68303 -1.656031,3.76488 -2.608546,7.83337 -2.753342,11.94562 -0.160341,5.00341 0.847911,10.04276 2.969964,14.58019 1.667417,3.63522 4.085588,6.88595 6.913429,9.70218 29.486739,30.33774 58.955113,60.69383 88.453333,91.0201 2.08018,2.11781 4.44979,3.94488 7.02293,5.42395 11.72169,-24.07339 21.50762,-49.21936 27.4379,-75.37464 0.64025,-2.8358 1.24361,-5.72778 1.76977,-8.50679 1.06265,-5.56403 1.91802,-11.16738 2.56967,-16.79435 0.1251,-1.17746 0.29016,-2.60502 0.40351,-3.88239 0.84869,-8.8112 1.12867,-17.68052 0.75274,-26.52581 -0.0658,-1.21152 -0.12762,-2.67732 -0.22451,-3.98489 -1.1763,-18.26176 -5.44319,-36.36327 -12.98501,-53.05667 -2.43973,-5.44902 -5.32404,-10.93788 -8.46517,-16.11928 -3.07339,-5.08059 -6.51884,-10.06444 -10.11437,-14.70049 -1.87513,-2.41157 -3.67239,-4.60412 -5.67062,-6.91236 -9.36691,-10.82059 -20.10705,-20.40072 -31.64384,-28.90405 -1.33085,-0.97678 -2.84842,-2.07177 -4.26903,-3.06883 -1.54112,-1.0872 -3.24003,-2.24481 -4.86573,-3.33742 -0.0853,0.25912 -0.17057,0.51823 -0.25586,0.77735 z" />
  <path
     id="path20"
     style="fill:#1a1a1a"
     d="m 300.7207,20.691406 c 3.32336,14.976556 3.09211,30.750827 -0.77306,45.60089 -1.18153,3.854598 -2.44167,7.68292 -3.81816,11.472518 -1.68249,4.557386 -3.51347,9.060424 -5.50711,13.490678 -2.22207,4.878202 -4.59104,9.691328 -7.20244,14.373838 -2.61584,4.81053 -4.98505,9.75091 -7.49465,14.61738 -1.99963,3.93193 -4.0018,7.86342 -5.77811,11.90289 -1.84868,4.19582 -3.53025,8.46557 -5.04795,12.79191 -1.36785,3.98707 -2.62493,8.01265 -3.70361,12.08763 -1.30677,4.9516 -2.42063,9.9547 -3.26686,15.00617 -0.71487,4.11014 -1.25789,8.25025 -1.65312,12.40341 -0.49195,5.08308 -0.7563,10.18989 -0.71683,15.298 0.0149,7.34683 0.49317,14.68814 1.31151,21.98789 0.14931,1.16371 0.30234,2.57645 0.47511,3.83675 1.89054,14.42811 5.16809,28.80157 9.26317,42.84294 0.60124,2.02053 1.25261,4.23272 1.91214,6.3151 2.43704,7.83454 5.13981,15.58458 8.0195,23.26693 0.94927,2.48407 1.95721,5.13481 2.96566,7.66855 0.12335,0.57015 0.90116,0.27885 1.34364,0.43787 13.12574,1.58921 26.05631,4.99412 38.1277,10.41687 16.19987,7.19182 30.66945,17.96174 42.87133,30.76314 14.81445,15.50482 26.5153,33.72318 36.22076,52.77633 1.24154,2.43749 2.44855,4.89262 3.62326,7.36302 3.26335,-5.58227 7.02525,-10.84854 10.55833,-16.25949 3.52644,-5.26769 6.95183,-10.64045 10.44891,-15.99153 5.13266,-8.00526 10.23387,-16.03145 15.21415,-24.13272 4.25561,-6.82624 8.39323,-13.72595 12.53292,-20.62235 1.39246,-2.54987 2.01242,-5.51144 1.76717,-8.40602 -0.0192,-0.28121 -0.0974,-0.96575 -0.18406,-1.39797 -0.45824,-2.79413 -1.84941,-5.33696 -3.62983,-7.50625 -11.03279,-14.75852 -21.41081,-30.03582 -30.56276,-46.0376 -5.12284,-9.02602 -9.90944,-18.27592 -13.72287,-27.93894 -4.53452,-11.99057 -7.09563,-24.62362 -8.95913,-37.27493 -2.60293,-18.22292 -3.56068,-36.64337 -3.67703,-55.0394 -0.0766,-2.66204 -0.5165,-5.50777 -1.17838,-7.95335 -1.3037,-4.95319 -3.80927,-9.54151 -7.10181,-13.45134 -27.59041,-35.040957 -55.18083,-70.081917 -82.77124,-105.122876 0.0312,0.138021 0.0625,0.276041 0.0937,0.414062 z" />
  <path
     id="path21"
     style="fill:#1a1a1a"
     d="m 268.48047,2.3046875 c -3.37703,0.2856743 -6.71246,1.0490373 -9.8481,2.3424928 -3.38908,1.3870702 -6.5095,3.3864006 -9.25346,5.8071197 -35.16511,31.618354 -70.32656,63.241859 -105.47992,94.8732 -3.50115,3.19851 -6.31218,7.15119 -8.11881,11.53926 -1.42866,3.33595 -2.06756,6.92876 -2.55107,10.50605 -4.13513,27.41547 -8.24218,54.8361 -12.39485,82.24835 -0.36159,0.70735 -0.0202,1.1277 0.64768,1.41473 17.87662,11.84305 34.37869,26.02388 47.587,42.98768 9.48952,12.13487 17.19255,25.67333 22.64977,40.08447 1.96864,5.07513 3.6398,10.26495 5.03537,15.52654 0.39608,1.37036 0.68519,2.76823 1.02717,4.15253 21.00569,-4.99327 42.46918,-8.72145 64.12109,-8.71057 4.50147,0.003 9.00353,0.17682 13.49024,0.5426 -8.85039,-22.63711 -16.23707,-45.94842 -20.39844,-69.93164 -2.52986,-14.8141 -3.82037,-29.89532 -3.02192,-44.92152 0.24554,-4.19526 0.62377,-8.38302 1.16221,-12.55047 0.55506,-4.19946 1.23762,-8.38288 2.09469,-12.53122 0.85598,-4.14805 1.84229,-8.27034 3.00673,-12.34263 1.36141,-4.81379 2.92046,-9.57213 4.71096,-14.24371 1.188,-3.18656 2.49807,-6.32994 3.89383,-9.43069 1.87162,-4.28548 4.08665,-8.40555 6.11803,-12.61499 3.49273,-6.92814 7.16484,-13.7648 10.61729,-20.714284 5.06377,-10.093914 9.84105,-20.441381 12.5881,-31.437595 0.83386,-3.300834 1.49264,-6.635703 1.97071,-10.058594 0.37471,-2.657941 0.62107,-5.247946 0.76757,-7.876953 0.46993,-8.543597 -0.2304,-17.10094 -2.08593,-25.501953 -0.53367,-2.384755 -1.16218,-4.807398 -1.9043,-7.212891 -0.30269,-0.782249 -0.34493,-1.814712 -1.12404,-2.345195 -2.92805,-3.0326412 -6.48843,-5.4486166 -10.36295,-7.1017174 -3.80177,-1.6280171 -7.91783,-2.4889054 -12.05075,-2.5711388 -0.96354,-0.018176 -1.92992,0.05466 -2.8939,0.072739 z" />
  <path
     id="path22"
     style="fill:#1a1a1a"
     d="m 258.87305,309.00195 c -18.34652,0.26832 -36.72331,3.24376 -54.6875,7.29688 -1.8324,0.438 -3.72813,0.82941 -5.51758,1.31055 4.74719,22.86407 4.29854,46.5778 0.43958,69.53592 -4.6177,27.44781 -13.84526,53.93314 -25.33057,79.22013 -1.67125,3.65935 -3.38477,7.29975 -5.15198,10.91387 3.57205,1.44941 7.38603,2.24584 11.23325,2.43123 18.12149,1.47003 36.25266,2.82293 54.38395,4.16171 12.28693,1.13574 24.36615,3.83056 36.31536,6.82896 21.87456,5.53847 43.31388,12.61868 65.04205,18.68357 1.21338,0.38856 2.64687,0.52874 3.96456,0.68488 8.93928,0.9083 18.00697,-2.16706 25.03454,-7.65215 8.72917,-6.72279 14.63769,-17.02935 15.84159,-27.99918 0.6584,-5.36333 1.524,-10.70051 2.63512,-15.98892 0.98185,-4.73349 2.16874,-9.42436 3.50463,-14.0699 1.50513,-5.13016 3.19804,-10.20528 5.13216,-15.19017 1.6355,-4.3132 3.49247,-8.53827 5.42425,-12.72628 0.77195,-1.59258 1.56292,-3.17614 2.34206,-4.76532 -9.44674,-20.10579 -20.83048,-39.48367 -35.47569,-56.27015 -11.75148,-13.47778 -25.79938,-25.12702 -41.86097,-33.10611 -6.3854,-3.1939 -13.06048,-5.80346 -19.91334,-7.80538 -1.50239,-0.44066 -3.2249,-0.91354 -4.8285,-1.312 -2.39163,-0.59553 -4.64473,-1.09709 -7.06018,-1.56495 -1.8189,-0.3448 -3.8462,-0.70187 -5.7577,-0.98167 -6.14647,-0.92312 -12.46727,-1.43105 -18.60753,-1.5945 -2.36674,-0.06 -4.73428,-0.0713 -7.10156,-0.041 z" />
</svg>
