  0
SECTION
  2
BLOCKS
  0
ENDSEC
  0
SECTION
  2
ENTITIES
  0
LINE
  8
0
 10
0
 20
0
 11
50
 21
0
  0
LINE
  8
0
 10
50
 20
0
 11
50
 21
20
  0
LINE
  8
0
 10
50
 20
20
 11
0
 21
20
  0
LINE
  8
0
 10
0
 20
20
 11
0
 21
0
  0
LINE
  8
0
 10
3.5
 20
10
 11
3.62236
 21
10.7725
  0
LINE
  8
0
 10
3.62236
 20
10.7725
 11
3.97746
 21
11.4695
  0
LINE
  8
0
 10
3.97746
 20
11.4695
 11
4.53054
 21
12.0225
  0
LINE
  8
0
 10
4.53054
 20
12.0225
 11
5.22746
 21
12.3776
  0
LINE
  8
0
 10
5.22746
 20
12.3776
 11
6
 21
12.5
  0
LINE
  8
0
 10
6
 20
12.5
 11
6.77254
 21
12.3776
  0
LINE
  8
0
 10
6.77254
 20
12.3776
 11
7.46946
 21
12.0225
  0
LINE
  8
0
 10
7.46946
 20
12.0225
 11
8.02254
 21
11.4695
  0
LINE
  8
0
 10
8.02254
 20
11.4695
 11
8.37764
 21
10.7725
  0
LINE
  8
0
 10
8.37764
 20
10.7725
 11
8.5
 21
10
  0
LINE
  8
0
 10
8.5
 20
10
 11
8.37764
 21
9.22746
  0
LINE
  8
0
 10
8.37764
 20
9.22746
 11
8.02254
 21
8.53054
  0
LINE
  8
0
 10
8.02254
 20
8.53054
 11
7.46946
 21
7.97746
  0
LINE
  8
0
 10
7.46946
 20
7.97746
 11
6.77254
 21
7.62236
  0
LINE
  8
0
 10
6.77254
 20
7.62236
 11
6
 21
7.5
  0
LINE
  8
0
 10
6
 20
7.5
 11
5.22746
 21
7.62236
  0
LINE
  8
0
 10
5.22746
 20
7.62236
 11
4.53054
 21
7.97746
  0
LINE
  8
0
 10
4.53054
 20
7.97746
 11
3.97746
 21
8.53054
  0
LINE
  8
0
 10
3.97746
 20
8.53054
 11
3.62236
 21
9.22746
  0
LINE
  8
0
 10
3.62236
 20
9.22746
 11
3.5
 21
10
  0
LINE
  8
0
 10
11.981
 20
5.15625
 11
11.981
 21
15.0762
  0
LINE
  8
0
 10
11.981
 20
15.0762
 11
13.397
 21
15.0762
  0
LINE
  8
0
 10
13.397
 20
15.0762
 11
13.397
 21
6.56425
  0
LINE
  8
0
 10
13.397
 20
6.56425
 11
16.203
 21
6.56425
  0
LINE
  8
0
 10
16.203
 20
6.56425
 11
16.203
 21
5.15625
  0
LINE
  8
0
 10
16.203
 20
5.15625
 11
11.981
 21
5.15625
  0
LINE
  8
0
 10
17.0685
 20
12.5262
 11
17.0685
 21
14.0312
  0
LINE
  8
0
 10
17.0685
 20
14.0312
 11
18.4855
 21
15.0762
  0
LINE
  8
0
 10
18.4855
 20
15.0762
 11
19.9015
 21
15.0762
  0
LINE
  8
0
 10
19.9015
 20
15.0762
 11
19.9015
 21
5.15625
  0
LINE
  8
0
 10
19.9015
 20
5.15625
 11
18.4855
 21
5.15625
  0
LINE
  8
0
 10
18.4855
 20
5.15625
 11
18.4855
 21
13.5712
  0
LINE
  8
0
 10
18.4855
 20
13.5712
 11
17.0685
 21
12.5262
  0
LINE
  8
0
 10
21.9894
 20
5.15625
 11
21.9894
 21
15.0762
  0
LINE
  8
0
 10
21.9894
 20
15.0762
 11
23.3504
 21
15.0762
  0
LINE
  8
0
 10
23.3504
 20
15.0762
 11
25.4894
 21
9.09926
  0
LINE
  8
0
 10
25.4894
 20
9.09926
 11
25.5174
 21
9.09926
  0
LINE
  8
0
 10
25.5174
 20
9.09926
 11
25.5174
 21
15.0762
  0
LINE
  8
0
 10
25.5174
 20
15.0762
 11
26.9334
 21
15.0762
  0
LINE
  8
0
 10
26.9334
 20
15.0762
 11
26.9334
 21
5.15625
  0
LINE
  8
0
 10
26.9334
 20
5.15625
 11
25.6004
 21
5.15625
  0
LINE
  8
0
 10
25.6004
 20
5.15625
 11
23.4344
 21
11.1192
  0
LINE
  8
0
 10
23.4344
 20
11.1192
 11
23.4064
 21
11.1192
  0
LINE
  8
0
 10
23.4064
 20
11.1192
 11
23.4064
 21
5.15625
  0
LINE
  8
0
 10
23.4064
 20
5.15625
 11
21.9894
 21
5.15625
  0
LINE
  8
0
 10
28.0679
 20
5.15625
 11
28.0679
 21
15.0762
  0
LINE
  8
0
 10
28.0679
 20
15.0762
 11
29.4839
 21
15.0762
  0
LINE
  8
0
 10
29.4839
 20
15.0762
 11
29.4839
 21
10.5482
  0
LINE
  8
0
 10
29.4839
 20
10.5482
 11
29.5119
 21
10.5482
  0
LINE
  8
0
 10
29.5119
 20
10.5482
 11
31.5809
 21
15.0762
  0
LINE
  8
0
 10
31.5809
 20
15.0762
 11
32.9979
 21
15.0762
  0
LINE
  8
0
 10
32.9979
 20
15.0762
 11
31.0669
 21
11.1052
  0
LINE
  8
0
 10
31.0669
 20
11.1052
 11
33.3589
 21
5.15625
  0
LINE
  8
0
 10
33.3589
 20
5.15625
 11
31.8589
 21
5.15625
  0
LINE
  8
0
 10
31.8589
 20
5.15625
 11
30.2479
 21
9.55927
  0
LINE
  8
0
 10
30.2479
 20
9.55927
 11
29.4839
 21
8.12425
  0
LINE
  8
0
 10
29.4839
 20
8.12425
 11
29.4839
 21
5.15625
  0
LINE
  8
0
 10
29.4839
 20
5.15625
 11
28.0679
 21
5.15625
  0
LINE
  8
0
 10
33.5682
 20
7.43126
 11
33.5682
 21
7.95825
  0
LINE
  8
0
 10
33.5682
 20
7.95825
 11
34.9842
 21
7.95825
  0
LINE
  8
0
 10
34.9842
 20
7.95825
 11
34.9842
 21
7.51425
  0
LINE
  8
0
 10
34.9842
 20
7.51425
 11
35.0096
 21
7.26337
  0
LINE
  8
0
 10
35.0096
 20
7.26337
 11
35.086
 21
7.02937
  0
LINE
  8
0
 10
35.086
 20
7.02937
 11
35.2132
 21
6.81226
  0
LINE
  8
0
 10
35.2132
 20
6.81226
 11
35.4006
 21
6.63893
  0
LINE
  8
0
 10
35.4006
 20
6.63893
 11
35.6576
 21
6.53493
  0
LINE
  8
0
 10
35.6576
 20
6.53493
 11
35.9842
 21
6.50026
  0
LINE
  8
0
 10
35.9842
 20
6.50026
 11
36.2071
 21
6.51181
  0
LINE
  8
0
 10
36.2071
 20
6.51181
 11
36.3944
 21
6.54648
  0
LINE
  8
0
 10
36.3944
 20
6.54648
 11
36.5462
 21
6.60426
  0
LINE
  8
0
 10
36.5462
 20
6.60426
 11
36.67
 21
6.68282
  0
LINE
  8
0
 10
36.67
 20
6.68282
 11
36.772
 21
6.77982
  0
LINE
  8
0
 10
36.772
 20
6.77982
 11
36.8522
 21
6.89526
  0
LINE
  8
0
 10
36.8522
 20
6.89526
 11
36.9131
 21
7.03059
  0
LINE
  8
0
 10
36.9131
 20
7.03059
 11
36.9571
 21
7.18593
  0
LINE
  8
0
 10
36.9571
 20
7.18593
 11
36.9842
 21
7.36125
  0
LINE
  8
0
 10
36.9842
 20
7.36125
 11
36.9997
 21
7.5527
  0
LINE
  8
0
 10
36.9997
 20
7.5527
 11
37.0091
 21
7.75636
  0
LINE
  8
0
 10
37.0091
 20
7.75636
 11
37.0122
 21
7.97226
  0
LINE
  8
0
 10
37.0122
 20
7.97226
 11
37.0091
 21
8.21614
  0
LINE
  8
0
 10
37.0091
 20
8.21614
 11
36.9997
 21
8.42915
  0
LINE
  8
0
 10
36.9997
 20
8.42915
 11
36.9842
 21
8.61125
  0
LINE
  8
0
 10
36.9842
 20
8.61125
 11
36.9586
 21
8.76715
  0
LINE
  8
0
 10
36.9586
 20
8.76715
 11
36.9193
 21
8.90147
  0
LINE
  8
0
 10
36.9193
 20
8.90147
 11
36.8662
 21
9.01425
  0
LINE
  8
0
 10
36.8662
 20
9.01425
 11
36.7984
 21
9.11003
  0
LINE
  8
0
 10
36.7984
 20
9.11003
 11
36.7151
 21
9.19337
  0
LINE
  8
0
 10
36.7151
 20
9.19337
 11
36.6162
 21
9.26425
  0
LINE
  8
0
 10
36.6162
 20
9.26425
 11
36.4981
 21
9.3306
  0
LINE
  8
0
 10
36.4981
 20
9.3306
 11
36.3571
 21
9.40025
  0
LINE
  8
0
 10
36.3571
 20
9.40025
 11
36.1932
 21
9.47325
  0
LINE
  8
0
 10
36.1932
 20
9.47325
 11
35.1792
 21
9.88925
  0
LINE
  8
0
 10
35.1792
 20
9.88925
 11
34.635
 21
10.1662
  0
LINE
  8
0
 10
34.635
 20
10.1662
 11
34.225
 21
10.4972
  0
LINE
  8
0
 10
34.225
 20
10.4972
 11
33.9492
 21
10.8822
  0
LINE
  8
0
 10
33.9492
 20
10.8822
 11
33.7759
 21
11.3295
  0
LINE
  8
0
 10
33.7759
 20
11.3295
 11
33.6719
 21
11.8458
  0
LINE
  8
0
 10
33.6719
 20
11.8458
 11
33.6372
 21
12.4312
  0
LINE
  8
0
 10
33.6372
 20
12.4312
 11
33.6542
 21
12.7957
  0
LINE
  8
0
 10
33.6542
 20
12.7957
 11
33.7052
 21
13.1477
  0
LINE
  8
0
 10
33.7052
 20
13.1477
 11
33.7902
 21
13.4872
  0
LINE
  8
0
 10
33.7902
 20
13.4872
 11
33.9083
 21
13.8051
  0
LINE
  8
0
 10
33.9083
 20
13.8051
 11
34.0586
 21
14.0921
  0
LINE
  8
0
 10
34.0586
 20
14.0921
 11
34.2412
 21
14.3482
  0
LINE
  8
0
 10
34.2412
 20
14.3482
 11
34.4582
 21
14.5727
  0
LINE
  8
0
 10
34.4582
 20
14.5727
 11
34.7105
 21
14.7647
  0
LINE
  8
0
 10
34.7105
 20
14.7647
 11
34.9982
 21
14.9242
  0
LINE
  8
0
 10
34.9982
 20
14.9242
 11
35.3211
 21
15.0442
  0
LINE
  8
0
 10
35.3211
 20
15.0442
 11
35.6777
 21
15.1162
  0
LINE
  8
0
 10
35.6777
 20
15.1162
 11
36.0682
 21
15.1402
  0
LINE
  8
0
 10
36.0682
 20
15.1402
 11
36.4101
 21
15.1187
  0
LINE
  8
0
 10
36.4101
 20
15.1187
 11
36.7318
 21
15.054
  0
LINE
  8
0
 10
36.7318
 20
15.054
 11
37.0332
 21
14.9462
  0
LINE
  8
0
 10
37.0332
 20
14.9462
 11
37.3112
 21
14.8038
  0
LINE
  8
0
 10
37.3112
 20
14.8038
 11
37.5612
 21
14.6338
  0
LINE
  8
0
 10
37.5612
 20
14.6338
 11
37.7832
 21
14.4362
  0
LINE
  8
0
 10
37.7832
 20
14.4362
 11
37.9755
 21
14.2162
  0
LINE
  8
0
 10
37.9755
 20
14.2162
 11
38.1352
 21
13.9789
  0
LINE
  8
0
 10
38.1352
 20
13.9789
 11
38.2622
 21
13.7242
  0
LINE
  8
0
 10
38.2622
 20
13.7242
 11
38.355
 21
13.4586
  0
LINE
  8
0
 10
38.355
 20
13.4586
 11
38.4106
 21
13.1882
  0
LINE
  8
0
 10
38.4106
 20
13.1882
 11
38.4292
 21
12.9132
  0
LINE
  8
0
 10
38.4292
 20
12.9132
 11
38.4292
 21
12.2182
  0
LINE
  8
0
 10
38.4292
 20
12.2182
 11
37.0122
 21
12.2182
  0
LINE
  8
0
 10
37.0122
 20
12.2182
 11
37.0122
 21
12.5382
  0
LINE
  8
0
 10
37.0122
 20
12.5382
 11
36.9867
 21
12.8476
  0
LINE
  8
0
 10
36.9867
 20
12.8476
 11
36.9104
 21
13.1276
  0
LINE
  8
0
 10
36.9104
 20
13.1276
 11
36.7832
 21
13.3782
  0
LINE
  8
0
 10
36.7832
 20
13.3782
 11
36.5957
 21
13.5749
  0
LINE
  8
0
 10
36.5957
 20
13.5749
 11
36.3387
 21
13.6929
  0
LINE
  8
0
 10
36.3387
 20
13.6929
 11
36.0122
 21
13.7322
  0
LINE
  8
0
 10
36.0122
 20
13.7322
 11
35.8296
 21
13.7199
  0
LINE
  8
0
 10
35.8296
 20
13.7199
 11
35.67
 21
13.6829
  0
LINE
  8
0
 10
35.67
 20
13.6829
 11
35.5332
 21
13.6212
  0
LINE
  8
0
 10
35.5332
 20
13.6212
 11
35.4176
 21
13.5402
  0
LINE
  8
0
 10
35.4176
 20
13.5402
 11
35.3203
 21
13.4452
  0
LINE
  8
0
 10
35.3203
 20
13.4452
 11
35.2412
 21
13.3362
  0
LINE
  8
0
 10
35.2412
 20
13.3362
 11
35.1787
 21
13.2141
  0
LINE
  8
0
 10
35.1787
 20
13.2141
 11
35.1301
 21
13.0798
  0
LINE
  8
0
 10
35.1301
 20
13.0798
 11
35.0952
 21
12.9332
  0
LINE
  8
0
 10
35.0952
 20
12.9332
 11
35.0724
 21
12.7782
  0
LINE
  8
0
 10
35.0724
 20
12.7782
 11
35.0587
 21
12.6186
  0
LINE
  8
0
 10
35.0587
 20
12.6186
 11
35.0542
 21
12.4542
  0
LINE
  8
0
 10
35.0542
 20
12.4542
 11
35.0565
 21
12.2697
  0
LINE
  8
0
 10
35.0565
 20
12.2697
 11
35.0635
 21
12.1053
  0
LINE
  8
0
 10
35.0635
 20
12.1053
 11
35.0752
 21
11.9612
  0
LINE
  8
0
 10
35.0752
 20
11.9612
 11
35.0961
 21
11.8334
  0
LINE
  8
0
 10
35.0961
 20
11.8334
 11
35.1308
 21
11.7177
  0
LINE
  8
0
 10
35.1308
 20
11.7177
 11
35.1792
 21
11.6142
  0
LINE
  8
0
 10
35.1792
 20
11.6142
 11
35.2431
 21
11.5208
  0
LINE
  8
0
 10
35.2431
 20
11.5208
 11
35.3241
 21
11.4351
  0
LINE
  8
0
 10
35.3241
 20
11.4351
 11
35.4222
 21
11.3572
  0
LINE
  8
0
 10
35.4222
 20
11.3572
 11
35.542
 21
11.2831
  0
LINE
  8
0
 10
35.542
 20
11.2831
 11
35.688
 21
11.2088
  0
LINE
  8
0
 10
35.688
 20
11.2088
 11
35.8602
 21
11.1342
  0
LINE
  8
0
 10
35.8602
 20
11.1342
 11
36.9432
 21
10.7042
  0
LINE
  8
0
 10
36.9432
 20
10.7042
 11
37.2377
 21
10.5767
  0
LINE
  8
0
 10
37.2377
 20
10.5767
 11
37.4921
 21
10.4353
  0
LINE
  8
0
 10
37.4921
 20
10.4353
 11
37.7062
 21
10.2802
  0
LINE
  8
0
 10
37.7062
 20
10.2802
 11
37.8862
 21
10.1089
  0
LINE
  8
0
 10
37.8862
 20
10.1089
 11
38.0369
 21
9.91893
  0
LINE
  8
0
 10
38.0369
 20
9.91893
 11
38.1582
 21
9.71025
  0
LINE
  8
0
 10
38.1582
 20
9.71025
 11
38.2532
 21
9.48204
  0
LINE
  8
0
 10
38.2532
 20
9.48204
 11
38.3249
 21
9.23204
  0
LINE
  8
0
 10
38.3249
 20
9.23204
 11
38.3732
 21
8.96025
  0
LINE
  8
0
 10
38.3732
 20
8.96025
 11
38.4043
 21
8.66504
  0
LINE
  8
0
 10
38.4043
 20
8.66504
 11
38.423
 21
8.34337
  0
LINE
  8
0
 10
38.423
 20
8.34337
 11
38.4292
 21
7.99525
  0
LINE
  8
0
 10
38.4292
 20
7.99525
 11
38.4153
 21
7.58859
  0
LINE
  8
0
 10
38.4153
 20
7.58859
 11
38.3736
 21
7.20192
  0
LINE
  8
0
 10
38.3736
 20
7.20192
 11
38.3042
 21
6.83525
  0
LINE
  8
0
 10
38.3042
 20
6.83525
 11
38.2031
 21
6.49559
  0
LINE
  8
0
 10
38.2031
 20
6.49559
 11
38.0664
 21
6.18993
  0
LINE
  8
0
 10
38.0664
 20
6.18993
 11
37.8942
 21
5.91826
  0
LINE
  8
0
 10
37.8942
 20
5.91826
 11
37.6839
 21
5.68181
  0
LINE
  8
0
 10
37.6839
 20
5.68181
 11
37.4315
 21
5.48048
  0
LINE
  8
0
 10
37.4315
 20
5.48048
 11
37.1372
 21
5.31425
  0
LINE
  8
0
 10
37.1372
 20
5.31425
 11
36.7994
 21
5.19092
  0
LINE
  8
0
 10
36.7994
 20
5.19092
 11
36.4154
 21
5.11693
  0
LINE
  8
0
 10
36.4154
 20
5.11693
 11
35.9852
 21
5.09225
  0
LINE
  8
0
 10
35.9852
 20
5.09225
 11
35.6502
 21
5.11215
  0
LINE
  8
0
 10
35.6502
 20
5.11215
 11
35.3305
 21
5.17181
  0
LINE
  8
0
 10
35.3305
 20
5.17181
 11
35.0262
 21
5.27126
  0
LINE
  8
0
 10
35.0262
 20
5.27126
 11
34.744
 21
5.4057
  0
LINE
  8
0
 10
34.744
 20
5.4057
 11
34.4893
 21
5.56903
  0
LINE
  8
0
 10
34.4893
 20
5.56903
 11
34.2622
 21
5.76126
  0
LINE
  8
0
 10
34.2622
 20
5.76126
 11
34.0641
 21
5.9817
  0
LINE
  8
0
 10
34.0641
 20
5.9817
 11
33.8951
 21
6.22836
  0
LINE
  8
0
 10
33.8951
 20
6.22836
 11
33.7552
 21
6.50125
  0
LINE
  8
0
 10
33.7552
 20
6.50125
 11
33.6513
 21
6.7957
  0
LINE
  8
0
 10
33.6513
 20
6.7957
 11
33.589
 21
7.1057
  0
LINE
  8
0
 10
33.589
 20
7.1057
 11
33.5682
 21
7.43126
  0
ENDSEC
  0
SECTION
  2
OBJECTS
  0
DICTIONARY
  0
ENDSEC
  0
EOF
