<?xml version="1.0" standalone="no"?>
<!DOCTYPE svg PUBLIC "-//W3C//DTD SVG 1.1//EN" "http://www.w3.org/Graphics/SVG/1.1/DTD/svg11.dtd">
<svg width="244mm" height="138mm" viewBox="-19 -90 244 138" xmlns="http://www.w3.org/2000/svg" version="1.1">
<title>OpenSCAD Model</title>
<path d="
M 134.386,-22.0948 L 147.02,5 L 220,5 L 220.314,4.99013 L 220.627,4.96057 L 220.937,4.91142
 L 221.243,4.84291 L 221.545,4.75528 L 221.841,4.64888 L 222.129,4.52412 L 222.409,4.38153 L 222.679,4.22163
 L 222.939,4.04507 L 223.187,3.85255 L 223.423,3.64484 L 223.645,3.42273 L 223.853,3.18712 L 224.045,2.93892
 L 224.222,2.67912 L 224.382,2.40877 L 224.524,2.12889 L 224.649,1.84062 L 224.755,1.54507 L 224.843,1.24344
 L 224.911,0.936905 L 224.961,0.626663 L 224.99,0.31395 L 225,-0 L 224.99,-0.31395 L 224.961,-0.626663
 L 224.911,-0.936905 L 224.843,-1.24344 L 224.755,-1.54507 L 224.649,-1.84062 L 224.524,-2.12889 L 185.231,-86.3938
 L 185.088,-86.6737 L 184.928,-86.944 L 184.752,-87.2038 L 184.559,-87.452 L 184.351,-87.6876 L 184.129,-87.9097
 L 183.894,-88.1174 L 183.646,-88.31 L 183.386,-88.4865 L 183.115,-88.6464 L 182.836,-88.789 L 182.547,-88.9138
 L 182.252,-89.0202 L 181.95,-89.1078 L 181.644,-89.1763 L 181.333,-89.2255 L 181.021,-89.255 L 180.707,-89.2649
 L 180.393,-89.255 L 180.08,-89.2255 L 179.77,-89.1763 L 179.463,-89.1078 L 179.162,-89.0202 L 178.866,-88.9138
 L 178.578,-88.789 L -2.12889,-4.52412 L -2.40877,-4.38153 L -2.67912,-4.22163 L -2.93892,-4.04507 L -3.18712,-3.85255
 L -3.42273,-3.64484 L -3.6254,-3.44217 L -3.77254,-3.75772 L -4.06125,-3.63397 L -4.35716,-3.52861 L -4.65909,-3.44203
 L -4.96588,-3.37457 L -5.27629,-3.32652 L -5.5891,-3.29805 L -5.90309,-3.28929 L -6.217,-3.30025 L -6.52962,-3.3309
 L -6.83968,-3.38112 L -7.14598,-3.45071 L -7.44731,-3.5394 L -7.74248,-3.64682 L -8.0303,-3.77258 L -8.30968,-3.91615
 L -8.57948,-4.077 L -8.83865,-4.25446 L -9.08618,-4.44783 L -9.32108,-4.65639 L -9.5424,-4.87926 L -9.7493,-5.1156
 L -9.94095,-5.36447 L -10.1166,-5.62488 L -10.2755,-5.8958 L -10.4172,-6.17616 L -10.4566,-6.26813 L -10.4594,-6.26678
 L -13.3755,-12.5203 L -7.93765,-15.056 L -7.65729,-15.1976 L -7.38637,-15.3566 L -7.12596,-15.5322 L -6.87709,-15.7239
 L -6.64075,-15.9308 L -6.41788,-16.1521 L -6.20932,-16.387 L -6.01595,-16.6345 L -5.83849,-16.8937 L -5.67764,-17.1635
 L -5.53407,-17.4429 L -5.40831,-17.7307 L -5.30089,-18.0259 L -5.2122,-18.3272 L -5.14261,-18.6335 L -5.09239,-18.9436
 L -5.06174,-19.2562 L -5.05078,-19.5701 L -5.05954,-19.8841 L -5.08801,-20.1969 L -5.13606,-20.5073 L -5.20352,-20.8141
 L -5.2901,-21.116 L -5.39546,-21.412 L -5.51921,-21.7007 L -15.4886,-17.0518 L -15.769,-16.9102 L -16.0399,-16.7513
 L -16.3003,-16.5756 L -16.5491,-16.384 L -16.7855,-16.1771 L -17.0084,-15.9557 L -17.2169,-15.7209 L -17.4103,-15.4733
 L -17.5878,-15.2142 L -17.7486,-14.9444 L -17.8922,-14.665 L -18.0179,-14.3772 L -18.1254,-14.082 L -18.2141,-13.7807
 L -18.2836,-13.4744 L -18.3338,-13.1643 L -18.3645,-12.8517 L -18.3755,-12.5378 L -18.3667,-12.2238 L -18.3382,-11.911
 L -18.2902,-11.6006 L -18.2227,-11.2938 L -18.1361,-10.9918 L -18.0308,-10.6959 L -17.907,-10.4072 L -10.7225,5
 L 76.2808,5 z
M 154.365,-71.9816 L 180.707,-84.2649 L 194.133,-55.4722 L 167.791,-43.189 z
M 123.492,-57.5853 L 149.834,-69.8686 L 163.26,-41.0759 L 136.918,-28.7926 z
M 61.746,-28.7926 L 118.961,-55.4722 L 124.617,-43.3417 L 67.4026,-16.6621 z
M 138.889,-24.5665 L 196.104,-51.246 L 205.446,-31.2111 L 148.232,-4.53152 z
M 69.5157,-12.1306 L 126.73,-38.8101 L 132.387,-26.6796 L 75.1723,-0 z
M 150.345,-0 L 207.559,-26.6796 L 220,-0 z
M 37.5861,-0 L 30.873,-14.3963 L 57.2145,-26.6796 L 69.6554,-0 z
M 0,-0 L 26.3415,-12.2832 L 32.0692,-0 z
M 58.3011,47.0208 L 58.6138,46.9901 L 58.9238,46.9399 L 59.2301,46.8703 L 59.5314,46.7816 L 59.8266,46.6742
 L 60.1144,46.5484 L 60.3938,46.4048 L 60.6636,46.244 L 60.9228,46.0665 L 61.1703,45.8732 L 61.4052,45.6646
 L 61.6265,45.4417 L 61.8334,45.2054 L 62.0251,44.9565 L 62.2007,44.6961 L 62.3597,44.4252 L 62.5013,44.1448
 L 74.3043,16.8406 L 74.4107,16.5451 L 74.4983,16.2434 L 74.5668,15.9369 L 74.616,15.6267 L 74.6455,15.3139
 L 74.6554,15 L 74.6455,14.686 L 74.616,14.3733 L 74.5668,14.0631 L 74.4983,13.7565 L 74.4107,13.4549
 L 74.3043,13.1594 L 74.1795,12.8711 L 74.0369,12.5912 L 73.877,12.3209 L 73.7005,12.0611 L 73.508,11.8129
 L 73.3002,11.5773 L 73.0781,11.3551 L 72.8425,11.1474 L 72.5943,10.9549 L 72.3345,10.7784 L 72.0642,10.6185
 L 71.7843,10.4759 L 71.496,10.3511 L 71.2005,10.2447 L 70.8988,10.1571 L 70.5923,10.0886 L 70.2821,10.0394
 L 69.9694,10.0099 L 69.6554,10 L -10.7225,10 L -17.907,25.4072 L -18.0308,25.6959 L -18.1361,25.9918
 L -18.2227,26.2938 L -18.2902,26.6006 L -18.3382,26.911 L -18.3667,27.2238 L -18.3755,27.5378 L -18.3645,27.8517
 L -18.3338,28.1643 L -18.2836,28.4744 L -18.2141,28.7807 L -18.1254,29.082 L -18.0179,29.3772 L -17.8922,29.665
 L -17.7486,29.9444 L -17.5878,30.2142 L -17.4103,30.4733 L -17.2169,30.7209 L -17.0084,30.9557 L -16.7855,31.1771
 L -16.5491,31.384 L -16.3003,31.5756 L -16.0399,31.7513 L -15.769,31.9102 L -15.4886,32.0518 L -5.51921,36.7007
 L -5.39546,36.412 L -5.2901,36.116 L -5.20352,35.8141 L -5.13606,35.5073 L -5.08801,35.1969 L -5.05954,34.8841
 L -5.05078,34.5701 L -5.06174,34.2562 L -5.09239,33.9436 L -5.14261,33.6335 L -5.2122,33.3272 L -5.30089,33.0259
 L -5.40831,32.7307 L -5.53407,32.4429 L -5.67764,32.1635 L -5.83849,31.8937 L -6.01595,31.6345 L -6.20932,31.387
 L -6.41788,31.1521 L -6.64075,30.9308 L -6.87709,30.7239 L -7.12596,30.5322 L -7.38637,30.3566 L -7.65729,30.1976
 L -7.93765,30.056 L -13.3755,27.5203 L -10.4594,21.2668 L -10.4566,21.2681 L -10.4172,21.1762 L -10.2755,20.8958
 L -10.1166,20.6249 L -9.94095,20.3645 L -9.7493,20.1156 L -9.5424,19.8793 L -9.32108,19.6564 L -9.08618,19.4478
 L -8.83865,19.2545 L -8.57948,19.077 L -8.30968,18.9162 L -8.0303,18.7726 L -7.74248,18.6468 L -7.44731,18.5394
 L -7.14598,18.4507 L -6.83968,18.3811 L -6.52962,18.3309 L -6.217,18.3002 L -5.90309,18.2893 L -5.5891,18.298
 L -5.27629,18.3265 L -4.96588,18.3746 L -4.65909,18.442 L -4.35716,18.5286 L -4.06125,18.634 L -3.77254,18.7577
 L -3.6254,18.4422 L -3.42273,18.6448 L -3.18712,18.8526 L -2.93892,19.0451 L -2.67912,19.2216 L -2.40877,19.3815
 L -2.12889,19.5241 L 55.8567,46.5633 L 56.1454,46.687 L 56.4413,46.7924 L 56.7432,46.879 L 57.05,46.9464
 L 57.3604,46.9945 L 57.6732,47.0229 L 57.9872,47.0317 z
M 0,15 L 32.0692,15 L 26.3415,27.2832 z
M 30.873,29.3963 L 37.5861,15 L 69.6554,15 L 57.2145,41.6796 z
" stroke="black" fill="lightgray" stroke-width="0.5"/>
</svg>
