<?xml version="1.0" standalone="no"?>
<!DOCTYPE svg PUBLIC "-//W3C//DTD SVG 1.1//EN" "http://www.w3.org/Graphics/SVG/1.1/DTD/svg11.dtd">
<svg width="18mm" height="480mm" viewBox="0 -503 18 480" xmlns="http://www.w3.org/2000/svg" version="1.1">
<title>OpenSCAD Model</title>
<path d="
M 15.7295,-495.164 L 16.2681,-495.353 L 16.7263,-495.668 L 17.1042,-496.11 L 17.3997,-496.671 L 17.6108,-497.345
 L 17.7374,-498.133 L 17.7796,-499.034 L 17.7395,-499.948 L 17.6189,-500.743 L 17.418,-501.418 L 17.1368,-501.974
 L 16.7711,-502.408 L 16.317,-502.719 L 15.7743,-502.905 L 15.1432,-502.967 L 14.4954,-502.905 L 13.9408,-502.721
 L 13.4795,-502.414 L 13.1115,-501.985 L 12.8302,-501.432 L 12.6293,-500.756 L 12.5088,-499.957 L 12.4686,-499.034
 L 12.51,-498.128 L 12.6341,-497.338 L 12.8409,-496.664 L 13.1304,-496.104 L 13.5024,-495.665 L 13.9564,-495.351
 L 14.4925,-495.163 L 15.1106,-495.101 z
M 14.7167,-495.945 L 14.3707,-496.086 L 14.0834,-496.322 L 13.8547,-496.652 L 13.6802,-497.084 L 13.5556,-497.624
 L 13.4809,-498.274 L 13.456,-499.034 L 13.4805,-499.813 L 13.5543,-500.474 L 13.6772,-501.017 L 13.8492,-501.442
 L 14.0776,-501.763 L 14.3694,-501.992 L 14.7246,-502.129 L 15.1432,-502.175 L 15.5515,-502.128 L 15.8979,-501.989
 L 16.1822,-501.757 L 16.4044,-501.431 L 16.5718,-501.003 L 16.6913,-500.46 L 16.763,-499.804 L 16.7869,-499.034
 L 16.7618,-498.288 L 16.6866,-497.645 L 16.5611,-497.105 L 16.3855,-496.668 L 16.1559,-496.331 L 15.8687,-496.091
 L 15.5239,-495.946 L 15.1214,-495.898 z
M 9.68561,-495.137 L 10.2016,-495.246 L 10.6458,-495.427 L 11.0181,-495.681 L 11.3124,-496.001 L 11.5226,-496.381
 L 11.6487,-496.82 L 11.6908,-497.319 L 11.6609,-497.67 L 11.5714,-497.989 L 11.4222,-498.278 L 11.2133,-498.535
 L 10.9509,-498.751 L 10.6411,-498.92 L 10.2837,-499.039 L 9.87888,-499.11 L 9.87888,-499.131 L 10.2462,-499.231
 L 10.5672,-499.368 L 10.8416,-499.542 L 11.0697,-499.752 L 11.2489,-499.999 L 11.3769,-500.279 L 11.4537,-500.594
 L 11.4793,-500.943 L 11.4394,-501.394 L 11.3199,-501.793 L 11.1207,-502.139 L 10.8418,-502.432 L 10.4911,-502.666
 L 10.0762,-502.833 L 9.59727,-502.933 L 9.05423,-502.967 L 8.55193,-502.934 L 8.09743,-502.835 L 7.69073,-502.671
 L 7.33183,-502.441 L 7.03192,-502.152 L 6.80222,-501.811 L 6.64268,-501.419 L 6.55336,-500.976 L 7.53528,-500.9
 L 7.58868,-501.184 L 7.68379,-501.434 L 7.8206,-501.651 L 7.99911,-501.833 L 8.2139,-501.978 L 8.45955,-502.081
 L 8.73607,-502.143 L 9.04343,-502.164 L 9.37688,-502.142 L 9.6666,-502.075 L 9.91257,-501.964 L 10.1148,-501.809
 L 10.2726,-501.615 L 10.3854,-501.389 L 10.453,-501.131 L 10.4756,-500.84 L 10.448,-500.548 L 10.3651,-500.289
 L 10.2269,-500.064 L 10.0334,-499.872 L 9.78984,-499.719 L 9.50116,-499.609 L 9.16736,-499.544 L 8.78847,-499.522
 L 8.25679,-499.522 L 8.25679,-498.676 L 8.81015,-498.676 L 9.23653,-498.654 L 9.60966,-498.588 L 9.92957,-498.479
 L 10.1962,-498.326 L 10.4063,-498.134 L 10.5563,-497.907 L 10.6463,-497.647 L 10.6763,-497.352 L 10.65,-497.016
 L 10.5712,-496.724 L 10.4398,-496.476 L 10.2558,-496.272 L 10.0258,-496.113 L 9.75609,-496 L 9.44672,-495.932
 L 9.09767,-495.909 L 8.44228,-495.994 L 7.94623,-496.248 L 7.60956,-496.672 L 7.43224,-497.265 L 6.42311,-497.173
 L 6.52332,-496.692 L 6.69371,-496.273 L 6.93428,-495.917 L 7.24503,-495.624 L 7.62021,-495.395 L 8.05403,-495.231
 L 8.54652,-495.133 L 9.09767,-495.101 z
M 18,-494.509 L 0,-494.509 L 0,-493.909 L 18,-493.909 z
M 10,-478.119 L 0,-478.119 L 0,-477.819 L 10,-477.819 z
M 11.6203,-463.558 L 7.63295,-463.558 L 7.7272,-463.75 L 7.84721,-463.946 L 7.993,-464.145 L 8.16455,-464.348
 L 8.36493,-464.559 L 8.5972,-464.782 L 8.86133,-465.019 L 9.15735,-465.267 L 9.6785,-465.698 L 10.1081,-466.069
 L 10.4461,-466.379 L 10.6926,-466.629 L 10.881,-466.849 L 11.0446,-467.068 L 11.1834,-467.288 L 11.2975,-467.508
 L 11.3865,-467.728 L 11.4501,-467.949 L 11.4882,-468.17 L 11.5009,-468.392 L 11.4621,-468.865 L 11.3457,-469.281
 L 11.1515,-469.64 L 10.8797,-469.941 L 10.5358,-470.179 L 10.125,-470.35 L 9.64748,-470.452 L 9.10312,-470.486
 L 8.60078,-470.452 L 8.14626,-470.351 L 7.73953,-470.181 L 7.38063,-469.944 L 7.08073,-469.649 L 6.85101,-469.308
 L 6.69148,-468.919 L 6.60216,-468.484 L 7.60039,-468.392 L 7.65649,-468.681 L 7.75429,-468.937 L 7.89381,-469.158
 L 8.07503,-469.344 L 8.29085,-469.493 L 8.53413,-469.598 L 8.80489,-469.662 L 9.10312,-469.683 L 9.41335,-469.662
 L 9.68764,-469.596 L 9.92598,-469.488 L 10.1284,-469.336 L 10.2898,-469.145 L 10.4051,-468.918 L 10.4743,-468.657
 L 10.4973,-468.36 L 10.484,-468.132 L 10.4438,-467.917 L 10.3768,-467.715 L 10.283,-467.524 L 10.1676,-467.342
 L 10.0355,-467.163 L 9.88681,-466.989 L 9.72151,-466.819 L 9.54266,-466.651 L 9.35329,-466.482 L 9.15341,-466.314
 L 8.94304,-466.146 L 8.72688,-465.974 L 8.50972,-465.796 L 8.29152,-465.61 L 8.07231,-465.416 L 7.85516,-465.214
 L 7.6431,-465 L 7.43608,-464.775 L 7.23415,-464.538 L 7.04242,-464.286 L 6.86595,-464.015 L 6.70474,-463.725
 L 6.55879,-463.417 L 6.55879,-462.728 L 11.6203,-462.728 z
M 15.7195,-462.657 L 16.239,-462.768 L 16.6852,-462.953 L 17.0581,-463.211 L 17.3524,-463.536 L 17.5627,-463.919
 L 17.6888,-464.361 L 17.7308,-464.86 L 17.7054,-465.222 L 17.6291,-465.551 L 17.502,-465.85 L 17.324,-466.116
 L 17.1002,-466.343 L 16.8357,-466.523 L 16.5306,-466.654 L 16.1848,-466.737 L 16.1848,-466.759 L 16.4828,-466.844
 L 16.7476,-466.975 L 16.9791,-467.151 L 17.1775,-467.372 L 17.3365,-467.627 L 17.4501,-467.902 L 17.5183,-468.199
 L 17.541,-468.517 L 17.5001,-468.946 L 17.3776,-469.329 L 17.1733,-469.665 L 16.8872,-469.954 L 16.5307,-470.187
 L 16.1149,-470.353 L 15.6397,-470.453 L 15.1052,-470.486 L 14.5825,-470.452 L 14.1158,-470.351 L 13.705,-470.181
 L 13.3501,-469.944 L 13.0641,-469.652 L 12.8599,-469.318 L 12.7373,-468.944 L 12.6964,-468.528 L 12.719,-468.21
 L 12.7866,-467.913 L 12.8994,-467.638 L 13.0572,-467.383 L 13.254,-467.16 L 13.4837,-466.98 L 13.7464,-466.843
 L 14.0419,-466.748 L 14.0419,-466.727 L 13.7232,-466.647 L 13.4343,-466.518 L 13.1752,-466.338 L 12.946,-466.108
 L 12.7585,-465.838 L 12.6245,-465.539 L 12.5442,-465.209 L 12.5174,-464.85 L 12.5606,-464.346 L 12.6903,-463.903
 L 12.9065,-463.521 L 13.2091,-463.2 L 13.5883,-462.946 L 14.0344,-462.765 L 14.5472,-462.656 L 15.1268,-462.62
 z
M 14.7961,-467.139 L 14.5145,-467.203 L 14.2712,-467.311 L 14.0663,-467.462 L 13.9037,-467.653 L 13.7876,-467.884
 L 13.7179,-468.154 L 13.6947,-468.463 L 13.7172,-468.765 L 13.7849,-469.028 L 13.8976,-469.251 L 14.0554,-469.434
 L 14.2563,-469.576 L 14.4982,-469.678 L 14.7812,-469.739 L 15.1052,-469.759 L 15.727,-469.678 L 16.1712,-469.435
 L 16.4377,-469.03 L 16.5265,-468.463 L 16.504,-468.132 L 16.4363,-467.85 L 16.3236,-467.618 L 16.1657,-467.435
 L 15.9648,-467.296 L 15.7229,-467.197 L 15.44,-467.137 L 15.116,-467.117 z
M 14.4328,-463.451 L 13.9293,-463.747 L 13.6272,-464.24 L 13.5264,-464.931 L 13.5526,-465.252 L 13.6309,-465.536
 L 13.7614,-465.785 L 13.9442,-465.997 L 14.1734,-466.167 L 14.4433,-466.288 L 14.7539,-466.361 L 15.1052,-466.385
 L 15.4662,-466.362 L 15.7846,-466.295 L 16.0602,-466.182 L 16.2932,-466.024 L 16.4783,-465.822 L 16.6106,-465.576
 L 16.6899,-465.286 L 16.7164,-464.953 L 16.6919,-464.563 L 16.6187,-464.23 L 16.4966,-463.954 L 16.3257,-463.735
 L 16.105,-463.567 L 15.8334,-463.448 L 15.511,-463.376 L 15.1377,-463.352 z
M 18,-462.028 L 0,-462.028 L 0,-461.428 L 18,-461.428 z
M 10,-445.638 L 0,-445.638 L 0,-445.338 L 10,-445.338 z
M 11.6203,-431.078 L 7.63295,-431.078 L 7.7272,-431.27 L 7.84721,-431.465 L 7.993,-431.664 L 8.16455,-431.867
 L 8.36493,-432.078 L 8.5972,-432.302 L 8.86133,-432.538 L 9.15735,-432.787 L 9.6785,-433.218 L 10.1081,-433.588
 L 10.4461,-433.898 L 10.6926,-434.148 L 10.881,-434.368 L 11.0446,-434.588 L 11.1834,-434.808 L 11.2975,-435.027
 L 11.3865,-435.247 L 11.4501,-435.468 L 11.4882,-435.689 L 11.5009,-435.911 L 11.4621,-436.385 L 11.3457,-436.801
 L 11.1515,-437.159 L 10.8797,-437.46 L 10.5358,-437.699 L 10.125,-437.869 L 9.64748,-437.971 L 9.10312,-438.006
 L 8.60078,-437.972 L 8.14626,-437.87 L 7.73953,-437.7 L 7.38063,-437.463 L 7.08073,-437.168 L 6.85101,-436.827
 L 6.69148,-436.439 L 6.60216,-436.004 L 7.60039,-435.911 L 7.65649,-436.201 L 7.75429,-436.456 L 7.89381,-436.677
 L 8.07503,-436.864 L 8.29085,-437.012 L 8.53413,-437.118 L 8.80489,-437.181 L 9.10312,-437.203 L 9.41335,-437.181
 L 9.68764,-437.116 L 9.92598,-437.007 L 10.1284,-436.855 L 10.2898,-436.664 L 10.4051,-436.438 L 10.4743,-436.176
 L 10.4973,-435.879 L 10.484,-435.652 L 10.4438,-435.437 L 10.3768,-435.234 L 10.283,-435.043 L 10.1676,-434.861
 L 10.0355,-434.683 L 9.88681,-434.508 L 9.72151,-434.338 L 9.54266,-434.17 L 9.35329,-434.002 L 9.15341,-433.834
 L 8.94304,-433.666 L 8.72688,-433.494 L 8.50972,-433.315 L 8.29152,-433.129 L 8.07231,-432.936 L 7.85516,-432.733
 L 7.6431,-432.52 L 7.43608,-432.294 L 7.23415,-432.057 L 7.04242,-431.805 L 6.86595,-431.534 L 6.70474,-431.245
 L 6.55879,-430.937 L 6.55879,-430.248 L 11.6203,-430.248 z
M 15.8036,-430.183 L 16.2878,-430.314 L 16.7096,-430.533 L 17.069,-430.839 L 17.3562,-431.221 L 17.5613,-431.666
 L 17.6844,-432.176 L 17.7254,-432.749 L 17.6866,-433.279 L 17.5701,-433.752 L 17.376,-434.169 L 17.1042,-434.528
 L 16.7663,-434.818 L 16.3739,-435.024 L 15.9269,-435.149 L 15.4252,-435.19 L 15.1221,-435.174 L 14.8366,-435.126
 L 14.5687,-435.045 L 14.3185,-434.932 L 14.0907,-434.789 L 13.89,-434.616 L 13.7164,-434.413 L 13.5699,-434.181
 L 13.5985,-434.875 L 13.6845,-435.482 L 13.8277,-436.002 L 14.0283,-436.435 L 14.2811,-436.776 L 14.5809,-437.019
 L 14.928,-437.165 L 15.3221,-437.213 L 15.765,-437.155 L 16.1223,-436.98 L 16.3943,-436.689 L 16.5808,-436.28
 L 17.5139,-436.449 L 17.2087,-437.13 L 16.7435,-437.616 L 16.1183,-437.908 L 15.333,-438.006 L 14.7142,-437.939
 L 14.1707,-437.74 L 13.7024,-437.407 L 13.3095,-436.942 L 12.9986,-436.353 L 12.7765,-435.648 L 12.6432,-434.829
 L 12.5988,-433.893 L 12.6416,-433.031 L 12.7697,-432.278 L 12.9833,-431.634 L 13.2824,-431.099 L 13.6621,-430.679
 L 14.1178,-430.379 L 14.6495,-430.199 L 15.2571,-430.139 z
M 14.8981,-430.961 L 14.6026,-431.067 L 14.338,-431.243 L 14.1042,-431.49 L 13.9132,-431.792 L 13.7767,-432.134
 L 13.6949,-432.516 L 13.6676,-432.939 L 13.6938,-433.27 L 13.7727,-433.563 L 13.904,-433.819 L 14.088,-434.037
 L 14.3146,-434.212 L 14.5742,-434.336 L 14.8666,-434.411 L 15.192,-434.436 L 15.5354,-434.408 L 15.8389,-434.323
 L 16.1024,-434.183 L 16.3258,-433.986 L 16.5038,-433.737 L 16.631,-433.44 L 16.7072,-433.097 L 16.7327,-432.705
 L 16.7076,-432.313 L 16.6323,-431.964 L 16.5068,-431.66 L 16.3312,-431.401 L 16.1115,-431.193 L 15.8538,-431.045
 L 15.5581,-430.956 L 15.2245,-430.926 z
M 18,-429.548 L 0,-429.548 L 0,-428.948 L 18,-428.948 z
M 10,-413.158 L 0,-413.158 L 0,-412.857 L 10,-412.857 z
M 11.6203,-398.597 L 7.63295,-398.597 L 7.7272,-398.789 L 7.84721,-398.984 L 7.993,-399.184 L 8.16455,-399.387
 L 8.36493,-399.598 L 8.5972,-399.821 L 8.86133,-400.057 L 9.15735,-400.306 L 9.6785,-400.737 L 10.1081,-401.108
 L 10.4461,-401.418 L 10.6926,-401.668 L 10.881,-401.887 L 11.0446,-402.107 L 11.1834,-402.327 L 11.2975,-402.547
 L 11.3865,-402.767 L 11.4501,-402.987 L 11.4882,-403.209 L 11.5009,-403.431 L 11.4621,-403.904 L 11.3457,-404.32
 L 11.1515,-404.678 L 10.8797,-404.98 L 10.5358,-405.218 L 10.125,-405.389 L 9.64748,-405.491 L 9.10312,-405.525
 L 8.60078,-405.491 L 8.14626,-405.389 L 7.73953,-405.22 L 7.38063,-404.982 L 7.08073,-404.688 L 6.85101,-404.346
 L 6.69148,-403.958 L 6.60216,-403.523 L 7.60039,-403.431 L 7.65649,-403.72 L 7.75429,-403.975 L 7.89381,-404.196
 L 8.07503,-404.383 L 8.29085,-404.531 L 8.53413,-404.637 L 8.80489,-404.701 L 9.10312,-404.722 L 9.41335,-404.7
 L 9.68764,-404.635 L 9.92598,-404.527 L 10.1284,-404.375 L 10.2898,-404.184 L 10.4051,-403.957 L 10.4743,-403.695
 L 10.4973,-403.398 L 10.484,-403.171 L 10.4438,-402.956 L 10.3768,-402.753 L 10.283,-402.563 L 10.1676,-402.38
 L 10.0355,-402.202 L 9.88681,-402.028 L 9.72151,-401.858 L 9.54266,-401.689 L 9.35329,-401.521 L 9.15341,-401.353
 L 8.94304,-401.185 L 8.72688,-401.013 L 8.50972,-400.834 L 8.29152,-400.648 L 8.07231,-400.455 L 7.85516,-400.253
 L 7.6431,-400.039 L 7.43608,-399.813 L 7.23415,-399.576 L 7.04242,-399.324 L 6.86595,-399.054 L 6.70474,-398.764
 L 6.55879,-398.456 L 6.55879,-397.767 L 11.6203,-397.767 z
M 16.814,-399.498 L 17.8882,-399.498 L 17.8882,-400.268 L 16.814,-400.268 L 16.814,-405.411 L 15.7887,-405.411
 L 12.2896,-400.257 L 12.2896,-399.498 L 15.8918,-399.498 L 15.8918,-397.767 L 16.814,-397.767 z
M 13.1901,-400.268 L 13.2769,-400.377 L 13.5699,-400.778 L 15.5283,-403.664 L 15.568,-403.725 L 15.6165,-403.805
 L 15.6738,-403.904 L 15.7399,-404.022 L 15.8023,-404.136 L 15.8484,-404.222 L 15.8782,-404.28 L 15.8918,-404.31
 L 15.8918,-400.268 z
M 18,-397.067 L 0,-397.067 L 0,-396.467 L 18,-396.467 z
M 10,-380.677 L 0,-380.677 L 0,-380.377 L 10,-380.377 z
M 11.6203,-366.117 L 7.63295,-366.117 L 7.7272,-366.308 L 7.84721,-366.504 L 7.993,-366.703 L 8.16455,-366.906
 L 8.36493,-367.117 L 8.5972,-367.341 L 8.86133,-367.577 L 9.15735,-367.825 L 9.6785,-368.256 L 10.1081,-368.627
 L 10.4461,-368.937 L 10.6926,-369.187 L 10.881,-369.407 L 11.0446,-369.627 L 11.1834,-369.846 L 11.2975,-370.066
 L 11.3865,-370.286 L 11.4501,-370.507 L 11.4882,-370.728 L 11.5009,-370.95 L 11.4621,-371.423 L 11.3457,-371.839
 L 11.1515,-372.198 L 10.8797,-372.499 L 10.5358,-372.738 L 10.125,-372.908 L 9.64748,-373.01 L 9.10312,-373.044
 L 8.60078,-373.01 L 8.14626,-372.909 L 7.73953,-372.739 L 7.38063,-372.502 L 7.08073,-372.207 L 6.85101,-371.866
 L 6.69148,-371.478 L 6.60216,-371.043 L 7.60039,-370.95 L 7.65649,-371.24 L 7.75429,-371.495 L 7.89381,-371.716
 L 8.07503,-371.902 L 8.29085,-372.051 L 8.53413,-372.157 L 8.80489,-372.22 L 9.10312,-372.241 L 9.41335,-372.22
 L 9.68764,-372.155 L 9.92598,-372.046 L 10.1284,-371.894 L 10.2898,-371.703 L 10.4051,-371.477 L 10.4743,-371.215
 L 10.4973,-370.918 L 10.484,-370.691 L 10.4438,-370.476 L 10.3768,-370.273 L 10.283,-370.082 L 10.1676,-369.9
 L 10.0355,-369.722 L 9.88681,-369.547 L 9.72151,-369.377 L 9.54266,-369.209 L 9.35329,-369.041 L 9.15341,-368.873
 L 8.94304,-368.704 L 8.72688,-368.533 L 8.50972,-368.354 L 8.29152,-368.168 L 8.07231,-367.975 L 7.85516,-367.772
 L 7.6431,-367.558 L 7.43608,-367.333 L 7.23415,-367.096 L 7.04242,-366.844 L 6.86595,-366.573 L 6.70474,-366.284
 L 6.55879,-365.976 L 6.55879,-365.287 L 11.6203,-365.287 z
M 17.6549,-366.117 L 13.6676,-366.117 L 13.7618,-366.308 L 13.8818,-366.504 L 14.0276,-366.703 L 14.1992,-366.906
 L 14.3995,-367.117 L 14.6318,-367.341 L 14.8959,-367.577 L 15.192,-367.825 L 15.7131,-368.256 L 16.1427,-368.627
 L 16.4807,-368.937 L 16.7272,-369.187 L 16.9156,-369.407 L 17.0792,-369.627 L 17.218,-369.846 L 17.3321,-370.066
 L 17.4211,-370.286 L 17.4847,-370.507 L 17.5228,-370.728 L 17.5356,-370.95 L 17.4967,-371.423 L 17.3803,-371.839
 L 17.1861,-372.198 L 16.9144,-372.499 L 16.5704,-372.738 L 16.1596,-372.908 L 15.6821,-373.01 L 15.1377,-373.044
 L 14.6354,-373.01 L 14.1809,-372.909 L 13.7741,-372.739 L 13.4152,-372.502 L 13.1153,-372.207 L 12.8856,-371.866
 L 12.7261,-371.478 L 12.6368,-371.043 L 13.635,-370.95 L 13.6911,-371.24 L 13.7889,-371.495 L 13.9284,-371.716
 L 14.1096,-371.902 L 14.3255,-372.051 L 14.5687,-372.157 L 14.8395,-372.22 L 15.1377,-372.241 L 15.448,-372.22
 L 15.7222,-372.155 L 15.9606,-372.046 L 16.163,-371.894 L 16.3244,-371.703 L 16.4397,-371.477 L 16.5089,-371.215
 L 16.532,-370.918 L 16.5186,-370.691 L 16.4784,-370.476 L 16.4114,-370.273 L 16.3176,-370.082 L 16.2022,-369.9
 L 16.0701,-369.722 L 15.9214,-369.547 L 15.7561,-369.377 L 15.5773,-369.209 L 15.3879,-369.041 L 15.188,-368.873
 L 14.9776,-368.704 L 14.7615,-368.533 L 14.5443,-368.354 L 14.3261,-368.168 L 14.1069,-367.975 L 13.8898,-367.772
 L 13.6777,-367.558 L 13.4707,-367.333 L 13.2688,-367.096 L 13.077,-366.844 L 12.9006,-366.573 L 12.7393,-366.284
 L 12.5934,-365.976 L 12.5934,-365.287 L 17.6549,-365.287 z
M 18,-364.587 L 0,-364.587 L 0,-363.987 L 18,-363.987 z
M 10,-348.196 L 0,-348.196 L 0,-347.896 L 10,-347.896 z
M 15.7295,-332.761 L 16.2681,-332.95 L 16.7263,-333.265 L 17.1042,-333.707 L 17.3997,-334.268 L 17.6108,-334.942
 L 17.7374,-335.73 L 17.7796,-336.631 L 17.7395,-337.545 L 17.6189,-338.34 L 17.418,-339.015 L 17.1368,-339.571
 L 16.7711,-340.005 L 16.317,-340.316 L 15.7743,-340.502 L 15.1432,-340.564 L 14.4954,-340.502 L 13.9408,-340.318
 L 13.4795,-340.011 L 13.1115,-339.582 L 12.8302,-339.029 L 12.6293,-338.353 L 12.5088,-337.554 L 12.4686,-336.631
 L 12.51,-335.725 L 12.6341,-334.935 L 12.8409,-334.261 L 13.1304,-333.701 L 13.5024,-333.262 L 13.9564,-332.948
 L 14.4925,-332.76 L 15.1106,-332.698 z
M 14.7167,-333.542 L 14.3707,-333.683 L 14.0834,-333.919 L 13.8547,-334.249 L 13.6802,-334.681 L 13.5556,-335.221
 L 13.4809,-335.871 L 13.456,-336.631 L 13.4805,-337.41 L 13.5543,-338.071 L 13.6772,-338.614 L 13.8492,-339.039
 L 14.0776,-339.36 L 14.3694,-339.589 L 14.7246,-339.726 L 15.1432,-339.772 L 15.5515,-339.725 L 15.8979,-339.586
 L 16.1822,-339.354 L 16.4044,-339.028 L 16.5718,-338.6 L 16.6913,-338.057 L 16.763,-337.401 L 16.7869,-336.631
 L 16.7618,-335.885 L 16.6866,-335.242 L 16.5611,-334.702 L 16.3855,-334.265 L 16.1559,-333.928 L 15.8687,-333.688
 L 15.5239,-333.543 L 15.1214,-333.495 z
M 11.6203,-333.636 L 7.63295,-333.636 L 7.7272,-333.828 L 7.84721,-334.023 L 7.993,-334.222 L 8.16455,-334.425
 L 8.36493,-334.636 L 8.5972,-334.86 L 8.86133,-335.096 L 9.15735,-335.345 L 9.6785,-335.776 L 10.1081,-336.146
 L 10.4461,-336.457 L 10.6926,-336.707 L 10.881,-336.926 L 11.0446,-337.146 L 11.1834,-337.366 L 11.2975,-337.585
 L 11.3865,-337.805 L 11.4501,-338.026 L 11.4882,-338.248 L 11.5009,-338.47 L 11.4621,-338.943 L 11.3457,-339.359
 L 11.1515,-339.717 L 10.8797,-340.019 L 10.5358,-340.257 L 10.125,-340.427 L 9.64748,-340.53 L 9.10312,-340.564
 L 8.60078,-340.53 L 8.14626,-340.428 L 7.73953,-340.259 L 7.38063,-340.021 L 7.08073,-339.727 L 6.85101,-339.385
 L 6.69148,-338.997 L 6.60216,-338.562 L 7.60039,-338.47 L 7.65649,-338.759 L 7.75429,-339.014 L 7.89381,-339.235
 L 8.07503,-339.422 L 8.29085,-339.57 L 8.53413,-339.676 L 8.80489,-339.74 L 9.10312,-339.761 L 9.41335,-339.739
 L 9.68764,-339.674 L 9.92598,-339.566 L 10.1284,-339.414 L 10.2898,-339.222 L 10.4051,-338.996 L 10.4743,-338.734
 L 10.4973,-338.437 L 10.484,-338.21 L 10.4438,-337.995 L 10.3768,-337.792 L 10.283,-337.602 L 10.1676,-337.419
 L 10.0355,-337.241 L 9.88681,-337.067 L 9.72151,-336.896 L 9.54266,-336.728 L 9.35329,-336.56 L 9.15341,-336.392
 L 8.94304,-336.224 L 8.72688,-336.052 L 8.50972,-335.873 L 8.29152,-335.687 L 8.07231,-335.494 L 7.85516,-335.292
 L 7.6431,-335.078 L 7.43608,-334.852 L 7.23415,-334.615 L 7.04242,-334.363 L 6.86595,-334.092 L 6.70474,-333.803
 L 6.55879,-333.495 L 6.55879,-332.806 L 11.6203,-332.806 z
M 18,-332.106 L 0,-332.106 L 0,-331.506 L 18,-331.506 z
M 10,-315.716 L 0,-315.716 L 0,-315.416 L 10,-315.416 z
M 15.7195,-300.254 L 16.239,-300.365 L 16.6852,-300.549 L 17.0581,-300.808 L 17.3524,-301.133 L 17.5627,-301.516
 L 17.6888,-301.958 L 17.7308,-302.457 L 17.7054,-302.819 L 17.6291,-303.148 L 17.502,-303.447 L 17.324,-303.713
 L 17.1002,-303.94 L 16.8357,-304.12 L 16.5306,-304.251 L 16.1848,-304.334 L 16.1848,-304.356 L 16.4828,-304.441
 L 16.7476,-304.572 L 16.9791,-304.748 L 17.1775,-304.969 L 17.3365,-305.224 L 17.4501,-305.499 L 17.5183,-305.796
 L 17.541,-306.114 L 17.5001,-306.543 L 17.3776,-306.926 L 17.1733,-307.262 L 16.8872,-307.551 L 16.5307,-307.784
 L 16.1149,-307.95 L 15.6397,-308.05 L 15.1052,-308.083 L 14.5825,-308.049 L 14.1158,-307.948 L 13.705,-307.778
 L 13.3501,-307.541 L 13.0641,-307.249 L 12.8599,-306.915 L 12.7373,-306.541 L 12.6964,-306.125 L 12.719,-305.807
 L 12.7866,-305.51 L 12.8994,-305.235 L 13.0572,-304.98 L 13.254,-304.757 L 13.4837,-304.577 L 13.7464,-304.44
 L 14.0419,-304.345 L 14.0419,-304.324 L 13.7232,-304.244 L 13.4343,-304.115 L 13.1752,-303.935 L 12.946,-303.705
 L 12.7585,-303.435 L 12.6245,-303.136 L 12.5442,-302.806 L 12.5174,-302.447 L 12.5606,-301.943 L 12.6903,-301.5
 L 12.9065,-301.118 L 13.2091,-300.797 L 13.5883,-300.543 L 14.0344,-300.362 L 14.5472,-300.253 L 15.1268,-300.217
 z
M 14.7961,-304.736 L 14.5145,-304.8 L 14.2712,-304.908 L 14.0663,-305.059 L 13.9037,-305.25 L 13.7876,-305.481
 L 13.7179,-305.751 L 13.6947,-306.06 L 13.7172,-306.362 L 13.7849,-306.625 L 13.8976,-306.848 L 14.0554,-307.031
 L 14.2563,-307.173 L 14.4982,-307.275 L 14.7812,-307.336 L 15.1052,-307.356 L 15.727,-307.275 L 16.1712,-307.032
 L 16.4377,-306.627 L 16.5265,-306.06 L 16.504,-305.729 L 16.4363,-305.447 L 16.3236,-305.215 L 16.1657,-305.032
 L 15.9648,-304.893 L 15.7229,-304.794 L 15.44,-304.734 L 15.116,-304.714 z
M 14.4328,-301.048 L 13.9293,-301.344 L 13.6272,-301.837 L 13.5264,-302.528 L 13.5526,-302.849 L 13.6309,-303.133
 L 13.7614,-303.382 L 13.9442,-303.594 L 14.1734,-303.764 L 14.4433,-303.885 L 14.7539,-303.958 L 15.1052,-303.982
 L 15.4662,-303.959 L 15.7846,-303.892 L 16.0602,-303.779 L 16.2932,-303.621 L 16.4783,-303.419 L 16.6106,-303.173
 L 16.6899,-302.883 L 16.7164,-302.55 L 16.6919,-302.16 L 16.6187,-301.827 L 16.4966,-301.551 L 16.3257,-301.332
 L 16.105,-301.164 L 15.8334,-301.045 L 15.511,-300.973 L 15.1377,-300.949 z
M 11.6366,-301.155 L 9.77583,-301.155 L 9.77583,-307.969 L 8.87527,-307.969 L 7.06871,-306.727 L 7.06871,-305.805
 L 8.79384,-307.036 L 8.79384,-301.155 L 6.84631,-301.155 L 6.84631,-300.325 L 11.6366,-300.325 z
M 18,-299.625 L 0,-299.625 L 0,-299.025 L 18,-299.025 z
M 10,-283.235 L 0,-283.235 L 0,-282.935 L 10,-282.935 z
M 15.8036,-267.78 L 16.2878,-267.911 L 16.7096,-268.13 L 17.069,-268.436 L 17.3562,-268.818 L 17.5613,-269.263
 L 17.6844,-269.773 L 17.7254,-270.346 L 17.6866,-270.876 L 17.5701,-271.349 L 17.376,-271.766 L 17.1042,-272.125
 L 16.7663,-272.415 L 16.3739,-272.621 L 15.9269,-272.746 L 15.4252,-272.787 L 15.1221,-272.771 L 14.8366,-272.723
 L 14.5687,-272.642 L 14.3185,-272.529 L 14.0907,-272.386 L 13.89,-272.213 L 13.7164,-272.01 L 13.5699,-271.778
 L 13.5985,-272.472 L 13.6845,-273.079 L 13.8277,-273.599 L 14.0283,-274.032 L 14.2811,-274.373 L 14.5809,-274.616
 L 14.928,-274.762 L 15.3221,-274.81 L 15.765,-274.752 L 16.1223,-274.577 L 16.3943,-274.286 L 16.5808,-273.877
 L 17.5139,-274.046 L 17.2087,-274.727 L 16.7435,-275.213 L 16.1183,-275.505 L 15.333,-275.603 L 14.7142,-275.536
 L 14.1707,-275.337 L 13.7024,-275.004 L 13.3095,-274.539 L 12.9986,-273.95 L 12.7765,-273.245 L 12.6432,-272.426
 L 12.5988,-271.49 L 12.6416,-270.628 L 12.7697,-269.875 L 12.9833,-269.231 L 13.2824,-268.696 L 13.6621,-268.276
 L 14.1178,-267.976 L 14.6495,-267.796 L 15.2571,-267.736 z
M 14.8981,-268.558 L 14.6026,-268.664 L 14.338,-268.84 L 14.1042,-269.087 L 13.9132,-269.389 L 13.7767,-269.731
 L 13.6949,-270.113 L 13.6676,-270.536 L 13.6938,-270.867 L 13.7727,-271.16 L 13.904,-271.416 L 14.088,-271.634
 L 14.3146,-271.809 L 14.5742,-271.933 L 14.8666,-272.008 L 15.192,-272.033 L 15.5354,-272.005 L 15.8389,-271.92
 L 16.1024,-271.78 L 16.3258,-271.583 L 16.5038,-271.334 L 16.631,-271.037 L 16.7072,-270.694 L 16.7327,-270.302
 L 16.7076,-269.91 L 16.6323,-269.561 L 16.5068,-269.257 L 16.3312,-268.998 L 16.1115,-268.79 L 15.8538,-268.642
 L 15.5581,-268.553 L 15.2245,-268.523 z
M 11.6366,-268.675 L 9.77583,-268.675 L 9.77583,-275.489 L 8.87527,-275.489 L 7.06871,-274.246 L 7.06871,-273.324
 L 8.79384,-274.556 L 8.79384,-268.675 L 6.84631,-268.675 L 6.84631,-267.845 L 11.6366,-267.845 z
M 18,-267.145 L 0,-267.145 L 0,-266.545 L 18,-266.545 z
M 10,-250.755 L 0,-250.755 L 0,-250.454 L 10,-250.454 z
M 16.814,-237.095 L 17.8882,-237.095 L 17.8882,-237.865 L 16.814,-237.865 L 16.814,-243.008 L 15.7887,-243.008
 L 12.2896,-237.854 L 12.2896,-237.095 L 15.8918,-237.095 L 15.8918,-235.364 L 16.814,-235.364 z
M 13.1901,-237.865 L 13.2769,-237.974 L 13.5699,-238.375 L 15.5283,-241.261 L 15.568,-241.322 L 15.6165,-241.402
 L 15.6738,-241.501 L 15.7399,-241.619 L 15.8023,-241.733 L 15.8484,-241.819 L 15.8782,-241.877 L 15.8918,-241.907
 L 15.8918,-237.865 z
M 11.6366,-236.194 L 9.77583,-236.194 L 9.77583,-243.008 L 8.87527,-243.008 L 7.06871,-241.766 L 7.06871,-240.843
 L 8.79384,-242.075 L 8.79384,-236.194 L 6.84631,-236.194 L 6.84631,-235.364 L 11.6366,-235.364 z
M 18,-234.664 L 0,-234.664 L 0,-234.064 L 18,-234.064 z
M 10,-218.274 L 0,-218.274 L 0,-217.974 L 10,-217.974 z
M 17.6549,-203.714 L 13.6676,-203.714 L 13.7618,-203.905 L 13.8818,-204.101 L 14.0276,-204.3 L 14.1992,-204.503
 L 14.3995,-204.714 L 14.6318,-204.938 L 14.8959,-205.174 L 15.192,-205.422 L 15.7131,-205.853 L 16.1427,-206.224
 L 16.4807,-206.534 L 16.7272,-206.784 L 16.9156,-207.004 L 17.0792,-207.224 L 17.218,-207.443 L 17.3321,-207.663
 L 17.4211,-207.883 L 17.4847,-208.104 L 17.5228,-208.325 L 17.5356,-208.547 L 17.4967,-209.02 L 17.3803,-209.436
 L 17.1861,-209.795 L 16.9144,-210.096 L 16.5704,-210.335 L 16.1596,-210.505 L 15.6821,-210.607 L 15.1377,-210.641
 L 14.6354,-210.607 L 14.1809,-210.506 L 13.7741,-210.336 L 13.4152,-210.099 L 13.1153,-209.804 L 12.8856,-209.463
 L 12.7261,-209.075 L 12.6368,-208.639 L 13.635,-208.547 L 13.6911,-208.837 L 13.7889,-209.092 L 13.9284,-209.313
 L 14.1096,-209.499 L 14.3255,-209.648 L 14.5687,-209.754 L 14.8395,-209.817 L 15.1377,-209.838 L 15.448,-209.817
 L 15.7222,-209.752 L 15.9606,-209.643 L 16.163,-209.491 L 16.3244,-209.3 L 16.4397,-209.074 L 16.5089,-208.812
 L 16.532,-208.515 L 16.5186,-208.288 L 16.4784,-208.073 L 16.4114,-207.87 L 16.3176,-207.679 L 16.2022,-207.497
 L 16.0701,-207.318 L 15.9214,-207.144 L 15.7561,-206.974 L 15.5773,-206.806 L 15.3879,-206.638 L 15.188,-206.469
 L 14.9776,-206.301 L 14.7615,-206.13 L 14.5443,-205.951 L 14.3261,-205.765 L 14.1069,-205.572 L 13.8898,-205.369
 L 13.6777,-205.155 L 13.4707,-204.93 L 13.2688,-204.693 L 13.077,-204.441 L 12.9006,-204.17 L 12.7393,-203.881
 L 12.5934,-203.573 L 12.5934,-202.884 L 17.6549,-202.884 z
M 11.6366,-203.714 L 9.77583,-203.714 L 9.77583,-210.527 L 8.87527,-210.527 L 7.06871,-209.285 L 7.06871,-208.363
 L 8.79384,-209.594 L 8.79384,-203.714 L 6.84631,-203.714 L 6.84631,-202.884 L 11.6366,-202.884 z
M 18,-202.184 L 0,-202.184 L 0,-201.584 L 18,-201.584 z
M 10,-185.793 L 0,-185.793 L 0,-185.493 L 10,-185.493 z
M 15.7295,-170.358 L 16.2681,-170.547 L 16.7263,-170.862 L 17.1042,-171.304 L 17.3997,-171.865 L 17.6108,-172.539
 L 17.7374,-173.327 L 17.7796,-174.228 L 17.7395,-175.142 L 17.6189,-175.937 L 17.418,-176.612 L 17.1368,-177.168
 L 16.7711,-177.602 L 16.317,-177.913 L 15.7743,-178.099 L 15.1432,-178.161 L 14.4954,-178.099 L 13.9408,-177.915
 L 13.4795,-177.608 L 13.1115,-177.179 L 12.8302,-176.626 L 12.6293,-175.95 L 12.5088,-175.151 L 12.4686,-174.228
 L 12.51,-173.322 L 12.6341,-172.532 L 12.8409,-171.858 L 13.1304,-171.298 L 13.5024,-170.859 L 13.9564,-170.545
 L 14.4925,-170.357 L 15.1106,-170.295 z
M 14.7167,-171.139 L 14.3707,-171.28 L 14.0834,-171.516 L 13.8547,-171.846 L 13.6802,-172.278 L 13.5556,-172.818
 L 13.4809,-173.468 L 13.456,-174.228 L 13.4805,-175.007 L 13.5543,-175.668 L 13.6772,-176.211 L 13.8492,-176.636
 L 14.0776,-176.957 L 14.3694,-177.186 L 14.7246,-177.323 L 15.1432,-177.369 L 15.5515,-177.322 L 15.8979,-177.183
 L 16.1822,-176.951 L 16.4044,-176.625 L 16.5718,-176.197 L 16.6913,-175.654 L 16.763,-174.998 L 16.7869,-174.228
 L 16.7618,-173.482 L 16.6866,-172.839 L 16.5611,-172.299 L 16.3855,-171.862 L 16.1559,-171.525 L 15.8687,-171.285
 L 15.5239,-171.14 L 15.1214,-171.092 z
M 11.6366,-171.233 L 9.77583,-171.233 L 9.77583,-178.047 L 8.87527,-178.047 L 7.06871,-176.805 L 7.06871,-175.882
 L 8.79384,-177.114 L 8.79384,-171.233 L 6.84631,-171.233 L 6.84631,-170.403 L 11.6366,-170.403 z
M 18,-169.703 L 0,-169.703 L 0,-169.103 L 18,-169.103 z
M 10,-153.313 L 0,-153.313 L 0,-153.013 L 10,-153.013 z
M 9.68492,-137.851 L 10.2044,-137.962 L 10.6506,-138.146 L 11.0235,-138.405 L 11.3178,-138.73 L 11.528,-139.113
 L 11.6542,-139.555 L 11.6962,-140.054 L 11.6708,-140.416 L 11.5945,-140.745 L 11.4674,-141.044 L 11.2894,-141.31
 L 11.0656,-141.537 L 10.8011,-141.717 L 10.496,-141.848 L 10.1501,-141.931 L 10.1501,-141.953 L 10.4482,-142.038
 L 10.713,-142.169 L 10.9445,-142.345 L 11.1429,-142.566 L 11.3019,-142.821 L 11.4155,-143.096 L 11.4837,-143.393
 L 11.5064,-143.711 L 11.4655,-144.14 L 11.343,-144.523 L 11.1387,-144.859 L 10.8526,-145.148 L 10.4961,-145.381
 L 10.0803,-145.547 L 9.60509,-145.647 L 9.07056,-145.68 L 8.54788,-145.646 L 8.08115,-145.545 L 7.67036,-145.375
 L 7.31551,-145.138 L 7.02953,-144.846 L 6.82526,-144.512 L 6.70268,-144.138 L 6.66183,-143.722 L 6.68437,-143.404
 L 6.75201,-143.107 L 6.86473,-142.832 L 7.02255,-142.577 L 7.21939,-142.354 L 7.44913,-142.174 L 7.71176,-142.037
 L 8.00728,-141.942 L 8.00728,-141.921 L 7.68855,-141.841 L 7.39966,-141.712 L 7.14059,-141.532 L 6.91135,-141.302
 L 6.72386,-141.032 L 6.58994,-140.733 L 6.50958,-140.403 L 6.48279,-140.044 L 6.52602,-139.54 L 6.65572,-139.097
 L 6.87186,-138.715 L 7.17447,-138.394 L 7.55374,-138.14 L 7.99979,-137.959 L 8.51262,-137.85 L 9.09224,-137.814
 z
M 8.76151,-142.333 L 8.47992,-142.397 L 8.23663,-142.505 L 8.03168,-142.656 L 7.86909,-142.847 L 7.75298,-143.078
 L 7.6833,-143.348 L 7.66008,-143.657 L 7.68262,-143.959 L 7.75026,-144.222 L 7.86298,-144.445 L 8.0208,-144.628
 L 8.22169,-144.77 L 8.46364,-144.872 L 8.74658,-144.933 L 9.07056,-144.953 L 9.6924,-144.872 L 10.1366,-144.629
 L 10.4031,-144.224 L 10.4919,-143.657 L 10.4694,-143.326 L 10.4017,-143.044 L 10.289,-142.812 L 10.1311,-142.629
 L 9.93024,-142.49 L 9.68834,-142.391 L 9.4054,-142.331 L 9.08144,-142.311 z
M 8.39818,-138.645 L 7.89465,-138.941 L 7.59254,-139.434 L 7.49184,-140.125 L 7.51794,-140.446 L 7.59627,-140.73
 L 7.72682,-140.979 L 7.90959,-141.191 L 8.13881,-141.361 L 8.40871,-141.482 L 8.7193,-141.555 L 9.07056,-141.579
 L 9.43163,-141.556 L 9.75,-141.489 L 10.0256,-141.376 L 10.2585,-141.218 L 10.4437,-141.016 L 10.576,-140.77
 L 10.6553,-140.48 L 10.6817,-140.147 L 10.6573,-139.757 L 10.5841,-139.424 L 10.462,-139.148 L 10.2911,-138.929
 L 10.0704,-138.761 L 9.79883,-138.642 L 9.47641,-138.57 L 9.10312,-138.546 z
M 18,-137.222 L 0,-137.222 L 0,-136.622 L 18,-136.622 z
M 10,-120.832 L 0,-120.832 L 0,-120.532 L 10,-120.532 z
M 9.76904,-105.377 L 10.2532,-105.508 L 10.675,-105.727 L 11.0344,-106.033 L 11.3216,-106.415 L 11.5267,-106.86
 L 11.6498,-107.37 L 11.6908,-107.943 L 11.652,-108.473 L 11.5355,-108.946 L 11.3414,-109.363 L 11.0696,-109.722
 L 10.7317,-110.012 L 10.3393,-110.218 L 9.89226,-110.343 L 9.39062,-110.384 L 9.08749,-110.368 L 8.80199,-110.32
 L 8.53413,-110.239 L 8.28391,-110.126 L 8.05608,-109.983 L 7.85535,-109.81 L 7.68175,-109.607 L 7.53528,-109.375
 L 7.56392,-110.069 L 7.64987,-110.676 L 7.79312,-111.196 L 7.99367,-111.629 L 8.24644,-111.97 L 8.54633,-112.213
 L 8.89336,-112.359 L 9.28751,-112.407 L 9.73035,-112.349 L 10.0877,-112.174 L 10.3597,-111.883 L 10.5462,-111.474
 L 11.4793,-111.643 L 11.1741,-112.324 L 10.7089,-112.81 L 10.0837,-113.102 L 9.29839,-113.2 L 8.6796,-113.133
 L 8.13608,-112.934 L 7.66783,-112.601 L 7.27487,-112.136 L 6.96397,-111.547 L 6.7419,-110.842 L 6.60864,-110.023
 L 6.56424,-109.087 L 6.60695,-108.225 L 6.73511,-107.472 L 6.94872,-106.828 L 7.24776,-106.293 L 7.62749,-105.873
 L 8.08319,-105.573 L 8.61485,-105.393 L 9.22247,-105.333 z
M 8.86354,-106.155 L 8.56804,-106.261 L 8.30338,-106.437 L 8.0696,-106.684 L 7.87856,-106.986 L 7.74211,-107.328
 L 7.66025,-107.71 L 7.63295,-108.133 L 7.65923,-108.464 L 7.73805,-108.757 L 7.86943,-109.013 L 8.05336,-109.231
 L 8.28003,-109.406 L 8.5396,-109.53 L 8.83203,-109.605 L 9.15735,-109.63 L 9.50082,-109.602 L 9.80429,-109.517
 L 10.0677,-109.377 L 10.2912,-109.18 L 10.4692,-108.931 L 10.5964,-108.634 L 10.6726,-108.291 L 10.6981,-107.899
 L 10.673,-107.507 L 10.5977,-107.158 L 10.4722,-106.854 L 10.2966,-106.595 L 10.0768,-106.387 L 9.81917,-106.239
 L 9.52353,-106.15 L 9.18991,-106.12 z
M 18,-104.742 L 0,-104.742 L 0,-104.142 L 18,-104.142 z
M 10,-88.3515 L 0,-88.3515 L 0,-88.0515 L 10,-88.0515 z
M 10.7794,-74.6917 L 11.8536,-74.6917 L 11.8536,-75.4621 L 10.7794,-75.4621 L 10.7794,-80.605 L 9.75407,-80.605
 L 6.25496,-75.4513 L 6.25496,-74.6917 L 9.85719,-74.6917 L 9.85719,-72.9612 L 10.7794,-72.9612 z
M 7.15552,-75.4621 L 7.24231,-75.5706 L 7.53528,-75.9721 L 9.49367,-78.8582 L 9.53336,-78.9192 L 9.58185,-78.9992
 L 9.63916,-79.0982 L 9.70528,-79.2162 L 9.76765,-79.3298 L 9.81377,-79.4156 L 9.84361,-79.4736 L 9.85719,-79.5038
 L 9.85719,-75.4621 z
M 18,-72.2612 L 0,-72.2612 L 0,-71.6612 L 18,-71.6612 z
M 10,-55.8709 L 0,-55.8709 L 0,-55.5709 L 10,-55.5709 z
M 11.6203,-41.3106 L 7.63295,-41.3106 L 7.7272,-41.5023 L 7.84721,-41.6978 L 7.993,-41.897 L 8.16455,-42.0999
 L 8.36493,-42.311 L 8.5972,-42.5346 L 8.86133,-42.7708 L 9.15735,-43.0195 L 9.6785,-43.4504 L 10.1081,-43.821
 L 10.4461,-44.1312 L 10.6926,-44.3811 L 10.881,-44.6009 L 11.0446,-44.8206 L 11.1834,-45.0403 L 11.2975,-45.26
 L 11.3865,-45.4801 L 11.4501,-45.7008 L 11.4882,-45.9222 L 11.5009,-46.1443 L 11.4621,-46.6174 L 11.3457,-47.0333
 L 11.1515,-47.3919 L 10.8797,-47.6931 L 10.5358,-47.9317 L 10.125,-48.1021 L 9.64748,-48.2043 L 9.10312,-48.2383
 L 8.60078,-48.2044 L 8.14626,-48.1027 L 7.73953,-47.9332 L 7.38063,-47.6958 L 7.08073,-47.4012 L 6.85101,-47.0597
 L 6.69148,-46.6715 L 6.60216,-46.2365 L 7.60039,-46.1443 L 7.65649,-46.4337 L 7.75429,-46.6888 L 7.89381,-46.9097
 L 8.07503,-47.0963 L 8.29085,-47.2447 L 8.53413,-47.3507 L 8.80489,-47.4143 L 9.10312,-47.4355 L 9.41335,-47.4138
 L 9.68764,-47.3487 L 9.92598,-47.2402 L 10.1284,-47.0883 L 10.2898,-46.897 L 10.4051,-46.6705 L 10.4743,-46.4088
 L 10.4973,-46.1117 L 10.484,-45.8846 L 10.4438,-45.6696 L 10.3768,-45.4668 L 10.283,-45.2763 L 10.1676,-45.0939
 L 10.0355,-44.9155 L 9.88681,-44.7412 L 9.72151,-44.571 L 9.54266,-44.4028 L 9.35329,-44.2347 L 9.15341,-44.0665
 L 8.94304,-43.8983 L 8.72688,-43.7266 L 8.50972,-43.5478 L 8.29152,-43.3618 L 8.07231,-43.1687 L 7.85516,-42.9662
 L 7.6431,-42.7523 L 7.43608,-42.5268 L 7.23415,-42.2898 L 7.04242,-42.0377 L 6.86595,-41.767 L 6.70474,-41.4776
 L 6.55879,-41.1695 L 6.55879,-40.4806 L 11.6203,-40.4806 z
M 18,-39.7806 L 0,-39.7806 L 0,-39.1806 L 18,-39.1806 z
M 10,-23.3903 L 0,-23.3903 L 0,-23.0903 L 10,-23.0903 z
" stroke="black" fill="lightgray" stroke-width="0.5"/>
</svg>
