<?xml version="1.0" encoding="UTF-8" standalone="no"?>
<svg
   xmlns:dc="http://purl.org/dc/elements/1.1/"
   xmlns:cc="http://creativecommons.org/ns#"
   xmlns:rdf="http://www.w3.org/1999/02/22-rdf-syntax-ns#"
   xmlns:svg="http://www.w3.org/2000/svg"
   xmlns="http://www.w3.org/2000/svg"
   xmlns:sodipodi="http://sodipodi.sourceforge.net/DTD/sodipodi-0.dtd"
   xmlns:inkscape="http://www.inkscape.org/namespaces/inkscape"
   width="126.10011mm"
   height="141.48947mm"
   viewBox="-63 -55 126.10011 141.48947"
   version="1.1"
   id="svg855"
   sodipodi:docname="MarioPlate_V2.svg"
   inkscape:version="0.92.4 (5da689c313, 2019-01-14)">
  <metadata
     id="metadata861">
    <rdf:RDF>
      <cc:Work
         rdf:about="">
        <dc:format>image/svg+xml</dc:format>
        <dc:type
           rdf:resource="http://purl.org/dc/dcmitype/StillImage" />
        <dc:title>OpenSCAD Model</dc:title>
      </cc:Work>
    </rdf:RDF>
  </metadata>
  <defs
     id="defs859" />
  <sodipodi:namedview
     pagecolor="#ffffff"
     bordercolor="#666666"
     borderopacity="1"
     objecttolerance="10"
     gridtolerance="10"
     guidetolerance="10"
     inkscape:pageopacity="0"
     inkscape:pageshadow="2"
     inkscape:window-width="1920"
     inkscape:window-height="1001"
     id="namedview857"
     showgrid="false"
     fit-margin-top="0"
     fit-margin-left="0"
     fit-margin-right="0"
     fit-margin-bottom="0"
     inkscape:zoom="1.2788194"
     inkscape:cx="241.35552"
     inkscape:cy="337.92777"
     inkscape:window-x="-9"
     inkscape:window-y="-9"
     inkscape:window-maximized="1"
     inkscape:current-layer="layer2" />
  <title
     id="title851">OpenSCAD Model</title>
  <g
     inkscape:groupmode="layer"
     id="layer1"
     inkscape:label="Layer 1">
    <g
       style=""
       id="g4557">
      <path
         id="path836"
         d="m 60.23851,86.433479 0.1876,-0.0178 0.1861,-0.0295 0.184,-0.0411 0.1809,-0.0526 0.1774,-0.0638 0.1729,-0.0748 0.168,-0.0856 0.1622,-0.0959 0.1559,-0.10592 0.1489,-0.11551 0.1413,-0.12464 0.1333,-0.13327 0.1246,-0.14137 0.1155,-0.14891 0.106,-0.15589 0.0959,-0.16221 0.0856,-0.16793 0.0748,-0.17295 0.0639,-0.17733 0.0525,-0.18098 0.0412,-0.18393 0.0294,-0.18614 0.0178,-0.18762 0.0059,-0.18839 V 4.439391 l -0.0059,-0.1884 -0.0178,-0.1876 -0.0294,-0.1861 -0.0412,-0.184 -0.0525,-0.1809 -0.0639,-0.1774 -0.0748,-0.1729 -0.0856,-0.168 -0.0959,-0.1622 -0.106,-0.1559 -0.1155,-0.1489 -0.1246,-0.1413 -0.1333,-0.1333 -0.1413,-0.1246 -0.1489,-0.1155 -0.1559,-0.106 -0.1622,-0.0959 -0.168,-0.0856 -0.1729,-0.0748 -0.1774,-0.0639 -0.1809,-0.0525 -0.184,-0.0412 -0.1861,-0.0294 -0.1876,-0.0178 -0.1884,-0.0059 H -59.9499 l -0.1884,0.0059 -0.1876,0.0178 -0.1861,0.0294 -0.184,0.0412 -0.1809,0.0525 -0.1774,0.0639 -0.1729,0.0748 -0.168,0.0856 -0.1622,0.0959 -0.1559,0.106 -0.1489,0.1155 -0.1413,0.1246 -0.1333,0.1333 -0.1246,0.1413 -0.1155,0.1489 -0.106,0.1559 -0.0959,0.1622 -0.0856,0.168 -0.0748,0.1729 -0.0639,0.1774 -0.0525,0.1809 -0.0412,0.184 -0.0294,0.1861 -0.0178,0.1876 -0.006,0.1884 v 78.999998 l 0.006,0.18839 0.0178,0.18762 0.0294,0.18614 0.0412,0.18393 0.0525,0.18098 0.0639,0.17733 0.0748,0.17295 0.0856,0.16793 0.0959,0.16221 0.106,0.15589 0.1155,0.14891 0.1246,0.14137 0.1333,0.13327 0.1413,0.12464 0.1489,0.11551 0.1559,0.10592 0.1622,0.0959 0.168,0.0856 0.1729,0.0748 0.1774,0.0638 0.1809,0.0526 0.184,0.0411 0.1861,0.0295 0.1876,0.0178 0.1884,0.006 H 60.05011 Z"
         style="fill:none;stroke:#ff0000;stroke-width:0.1;stroke-miterlimit:4;stroke-dasharray:none" />
      <path
         inkscape:connector-curvature="0"
         id="path834"
         d="m -53.059818,13.185912 -0.109446,-0.01035 -0.108547,-0.0172 -0.1073,-0.024 -0.105596,-0.03065 -0.103397,-0.03725 -0.100897,-0.04365 -0.09795,-0.0499 -0.09465,-0.05595 -0.0909,-0.0618 -0.0869,-0.0674 -0.08245,-0.0727 -0.07775,-0.07775 -0.0727,-0.08245 -0.0674,-0.08685 -0.06175,-0.09095 -0.056,-0.09465 -0.0499,-0.09795 -0.04365,-0.100898 -0.03725,-0.103399 -0.03065,-0.105598 -0.024,-0.107299 -0.0172,-0.108548 -0.01035,-0.109449 -0.0035,-0.109898 0.0035,-0.109898 0.01035,-0.109449 0.0172,-0.108548 0.024,-0.107299 0.03065,-0.105598 0.03725,-0.103399 0.04365,-0.100899 0.0499,-0.09795 0.056,-0.09465 0.06175,-0.0909 0.0674,-0.0869 0.0727,-0.08245 0.07775,-0.07775 0.08245,-0.0727 0.0869,-0.0674 0.0909,-0.061749 0.09465,-0.055999 0.09795,-0.049899 0.100897,-0.043649 0.103397,-0.03725 0.105596,-0.030649 0.1073,-0.024 0.108547,-0.0172 0.109446,-0.01035 0.109897,-0.00345 0.109897,0.00345 0.109447,0.01035 0.108547,0.0172 0.107296,0.024 0.105597,0.030649 0.103397,0.03725 0.100897,0.043649 0.09795,0.049899 0.09465,0.055999 0.09095,0.061749 0.08685,0.0674 0.08245,0.0727 0.07775,0.07775 0.0727,0.08245 0.0674,0.0869 0.0618,0.0909 0.05595,0.09465 0.0499,0.09795 0.04365,0.100899 0.03725,0.103399 0.03065,0.105598 0.024,0.107299 0.0172,0.108548 0.01035,0.109449 0.0035,0.109898 -0.0035,0.109898 -0.01035,0.109449 -0.0172,0.108548 -0.024,0.107299 -0.03065,0.105598 -0.03725,0.103399 -0.04365,0.100898 -0.0499,0.09795 -0.05595,0.09465 -0.0618,0.09095 -0.0674,0.08685 -0.0727,0.08245 -0.07775,0.07775 -0.08245,0.0727 -0.08685,0.0674 -0.09095,0.0618 -0.09465,0.05595 -0.09795,0.0499 -0.100897,0.04365 -0.103397,0.03725 -0.105597,0.03065 -0.107296,0.024 -0.108547,0.0172 -0.109447,0.01035 -0.109897,0.0034 z"
         style="fill:none;stroke:#ff0000;stroke-width:0.1;stroke-miterlimit:4;stroke-dasharray:none" />
      <path
         inkscape:connector-curvature="0"
         id="path832"
         d="m 52.94021,13.185912 -0.109448,-0.01035 -0.108549,-0.0172 -0.107298,-0.024 -0.105599,-0.03065 -0.103398,-0.03725 -0.100899,-0.04365 -0.09795,-0.0499 -0.09465,-0.05595 -0.09095,-0.0618 -0.08685,-0.0674 -0.08245,-0.0727 -0.07775,-0.07775 -0.0727,-0.08245 -0.0674,-0.08685 -0.0618,-0.09095 -0.05595,-0.09465 -0.0499,-0.09795 -0.04365,-0.100898 -0.03725,-0.103399 -0.03065,-0.105598 -0.024,-0.107299 -0.0172,-0.108548 -0.01035,-0.109449 -0.0035,-0.109898 0.0035,-0.109898 0.01035,-0.109449 0.0172,-0.108548 0.024,-0.107299 0.03065,-0.105598 0.03725,-0.103399 0.04365,-0.100899 0.0499,-0.09795 0.05595,-0.09465 0.0618,-0.0909 0.0674,-0.0869 0.0727,-0.08245 0.07775,-0.07775 0.08245,-0.0727 0.08685,-0.0674 0.09095,-0.061749 0.09465,-0.055999 0.09795,-0.049899 0.100899,-0.043649 0.103398,-0.03725 0.105599,-0.030649 0.107298,-0.024 0.108549,-0.0172 0.109448,-0.01035 0.109899,-0.00345 0.109898,0.00345 0.109449,0.01035 0.108548,0.0172 0.107299,0.024 0.105598,0.030649 0.103399,0.03725 0.100899,0.043649 0.09795,0.049899 0.09465,0.055999 0.0909,0.061749 0.0869,0.0674 0.08245,0.0727 0.07775,0.07775 0.0727,0.08245 0.0674,0.0869 0.06175,0.0909 0.056,0.09465 0.0499,0.09795 0.04365,0.100899 0.03725,0.103399 0.03065,0.105598 0.024,0.107299 0.0172,0.108548 0.01035,0.109449 0.0035,0.109898 -0.0035,0.109898 -0.01035,0.109449 -0.0172,0.108548 -0.024,0.107299 -0.03065,0.105598 -0.03725,0.103399 -0.04365,0.100898 -0.0499,0.09795 -0.056,0.09465 -0.06175,0.09095 -0.0674,0.08685 -0.0727,0.08245 -0.07775,0.07775 -0.08245,0.0727 -0.0869,0.0674 -0.0909,0.0618 -0.09465,0.05595 -0.09795,0.0499 -0.100899,0.04365 -0.103399,0.03725 -0.105598,0.03065 -0.107299,0.024 -0.108548,0.0172 -0.109449,0.01035 -0.109898,0.0034 z"
         style="fill:none;stroke:#ff0000;stroke-width:0.1;stroke-miterlimit:4;stroke-dasharray:none" />
      <path
         inkscape:connector-curvature="0"
         id="path830"
         d="m -51.985787,42.936412 -0.0938,-0.0089 -0.09305,-0.0147 -0.092,-0.02055 -0.09045,-0.0263 -0.0887,-0.03195 -0.08645,-0.0374 -0.084,-0.0428 -0.0811,-0.04795 -0.07795,-0.05295 -0.07445,-0.05775 -0.07065,-0.06235 -0.06665,-0.06665 -0.0623,-0.07065 -0.05775,-0.07445 -0.053,-0.07795 -0.04795,-0.0811 -0.0428,-0.084 -0.0374,-0.08645 -0.03195,-0.08865 -0.02625,-0.0905 -0.0206,-0.092 -0.0147,-0.09305 -0.0089,-0.0938 -0.003,-0.0942 0.003,-0.0942 0.0089,-0.0938 0.0147,-0.09305 0.0206,-0.092 0.02625,-0.09045 0.03195,-0.0887 0.0374,-0.08645 0.0428,-0.084 0.04795,-0.0811 0.053,-0.07795 0.05775,-0.07445 0.0623,-0.07065 0.06665,-0.06665 0.07065,-0.0623 0.07445,-0.05775 0.07795,-0.053 0.0811,-0.04795 0.084,-0.0428 0.08645,-0.0374 0.0887,-0.03195 0.09045,-0.02625 0.092,-0.0206 0.09305,-0.0147 0.0938,-0.0089 0.0942,-0.0029 0.0942,0.0029 0.0938,0.0089 0.09305,0.0147 0.092,0.0206 0.0905,0.02625 0.08865,0.03195 0.08645,0.0374 0.084,0.0428 0.0811,0.04795 0.07795,0.053 0.07445,0.05775 0.07065,0.0623 0.06665,0.06665 0.06235,0.07065 0.05775,0.07445 0.05295,0.07795 0.04795,0.0811 0.0428,0.084 0.0374,0.08645 0.03195,0.0887 0.0263,0.09045 0.02055,0.092 0.0147,0.09305 0.0089,0.0938 0.0029,0.0942 -0.0029,0.0942 -0.0089,0.0938 -0.0147,0.09305 -0.02055,0.092 -0.0263,0.0905 -0.03195,0.08865 -0.0374,0.08645 -0.0428,0.084 -0.04795,0.0811 -0.05295,0.07795 -0.05775,0.07445 -0.06235,0.07065 -0.06665,0.06665 -0.07065,0.06235 -0.07445,0.05775 -0.07795,0.05295 -0.0811,0.04795 -0.084,0.0428 -0.08645,0.0374 -0.08865,0.03195 -0.0905,0.0263 -0.092,0.02055 -0.09305,0.0147 -0.0938,0.0089 -0.0942,0.003 z"
         style="fill:none;stroke:#ff0000;stroke-width:0.1;stroke-miterlimit:4;stroke-dasharray:none" />
      <path
         inkscape:connector-curvature="0"
         id="path828"
         d="m 50.83913,42.936412 -0.0938,-0.0089 -0.09305,-0.0147 -0.092,-0.02055 -0.0905,-0.0263 -0.08865,-0.03195 -0.08645,-0.0374 -0.084,-0.0428 -0.0811,-0.04795 -0.07795,-0.05295 -0.07445,-0.05775 -0.07065,-0.06235 -0.06665,-0.06665 -0.06235,-0.07065 -0.05775,-0.07445 -0.05295,-0.07795 -0.04795,-0.0811 -0.0428,-0.084 -0.0374,-0.08645 -0.03195,-0.08865 -0.0263,-0.0905 -0.02055,-0.092 -0.0147,-0.09305 -0.0089,-0.0938 -0.0029,-0.0942 0.0029,-0.0942 0.0089,-0.0938 0.0147,-0.09305 0.02055,-0.092 0.0263,-0.09045 0.03195,-0.0887 0.0374,-0.08645 0.0428,-0.084 0.04795,-0.0811 0.05295,-0.07795 0.05775,-0.07445 0.06235,-0.07065 0.06665,-0.06665 0.07065,-0.0623 0.07445,-0.05775 0.07795,-0.053 0.0811,-0.04795 0.084,-0.0428 0.08645,-0.0374 0.08865,-0.03195 0.0905,-0.02625 0.092,-0.0206 0.09305,-0.0147 0.0938,-0.0089 0.0942,-0.0029 0.0942,0.0029 0.0938,0.0089 0.09305,0.0147 0.092,0.0206 0.09045,0.02625 0.0887,0.03195 0.08645,0.0374 0.084,0.0428 0.0811,0.04795 0.07795,0.053 0.07445,0.05775 0.07065,0.0623 0.06665,0.06665 0.0623,0.07065 0.05775,0.07445 0.053,0.07795 0.04795,0.0811 0.0428,0.084 0.0374,0.08645 0.03195,0.0887 0.02625,0.09045 0.0206,0.092 0.0147,0.09305 0.0089,0.0938 0.003,0.0942 -0.003,0.0942 -0.0089,0.0938 -0.0147,0.09305 -0.0206,0.092 -0.02625,0.0905 -0.03195,0.08865 -0.0374,0.08645 -0.0428,0.084 -0.04795,0.0811 -0.053,0.07795 -0.05775,0.07445 -0.0623,0.07065 -0.06665,0.06665 -0.07065,0.06235 -0.07445,0.05775 -0.07795,0.05295 -0.0811,0.04795 -0.084,0.0428 -0.08645,0.0374 -0.0887,0.03195 -0.09045,0.0263 -0.092,0.02055 -0.09305,0.0147 -0.0938,0.0089 -0.0942,0.003 z"
         style="fill:none;stroke:#ff0000;stroke-width:0.1;stroke-miterlimit:4;stroke-dasharray:none" />
      <path
         inkscape:connector-curvature="0"
         id="path826"
         d="m -38.83795,77.93641 -0.0938,-0.0089 -0.09305,-0.01474 -0.092,-0.02056 -0.09045,-0.02629 -0.0887,-0.03192 -0.08645,-0.03742 -0.084,-0.04278 -0.0811,-0.04796 -0.07795,-0.05296 -0.07445,-0.05775 -0.07065,-0.06231 -0.06665,-0.06663 -0.0623,-0.07068 -0.05775,-0.07445 -0.053,-0.07794 -0.04795,-0.0811 -0.0428,-0.08396 -0.0374,-0.08647 -0.03195,-0.08866 -0.02625,-0.09049 -0.0206,-0.09196 -0.0147,-0.09307 -0.0089,-0.09381 -0.0029,-0.09419 0.0029,-0.0942 0.0089,-0.0938 0.0147,-0.09305 0.0206,-0.092 0.02625,-0.09045 0.03195,-0.0887 0.0374,-0.08645 0.0428,-0.084 0.04795,-0.0811 0.053,-0.07795 0.05775,-0.07445 0.0623,-0.07065 0.06665,-0.06665 0.07065,-0.0623 0.07445,-0.05775 0.07795,-0.053 0.0811,-0.04795 0.084,-0.0428 0.08645,-0.0374 0.0887,-0.03195 0.09045,-0.02625 0.092,-0.0206 0.09305,-0.0147 0.0938,-0.0089 0.0942,-0.0029 0.0942,0.0029 0.0938,0.0089 0.09305,0.0147 0.092,0.0206 0.0905,0.02625 0.08865,0.03195 0.08645,0.0374 0.084,0.0428 0.0811,0.04795 0.07795,0.053 0.07445,0.05775 0.07065,0.0623 0.06665,0.06665 0.06235,0.07065 0.05775,0.07445 0.05295,0.07795 0.04795,0.0811 0.0428,0.084 0.0374,0.08645 0.03195,0.0887 0.0263,0.09045 0.02055,0.092 0.0147,0.09305 0.0089,0.0938 0.003,0.0942 -0.003,0.09419 -0.0089,0.09381 -0.0147,0.09307 -0.02055,0.09196 -0.0263,0.09049 -0.03195,0.08866 -0.0374,0.08647 -0.0428,0.08396 -0.04795,0.0811 -0.05295,0.07794 -0.05775,0.07445 -0.06235,0.07068 -0.06665,0.06663 -0.07065,0.06231 -0.07445,0.05775 -0.07795,0.05296 -0.0811,0.04796 -0.084,0.04278 -0.08645,0.03742 -0.08865,0.03192 -0.0905,0.02629 -0.092,0.02056 -0.09305,0.01474 -0.0938,0.0089 -0.0942,0.0029 z"
         style="fill:none;stroke:#ff0000;stroke-width:0.1;stroke-miterlimit:4;stroke-dasharray:none" />
      <path
         inkscape:connector-curvature="0"
         id="path877"
         d="m 37.955911,77.93641 -0.0938,-0.0089 -0.09305,-0.01474 -0.092,-0.02056 -0.0905,-0.02629 -0.08865,-0.03192 -0.08645,-0.03742 -0.084,-0.04278 -0.0811,-0.04796 -0.07795,-0.05296 -0.07445,-0.05775 -0.07065,-0.06231 -0.06665,-0.06663 -0.06235,-0.07068 -0.05775,-0.07445 -0.05295,-0.07794 -0.04795,-0.0811 -0.0428,-0.08396 -0.0374,-0.08647 -0.03195,-0.08866 -0.0263,-0.09049 -0.02055,-0.09196 -0.0147,-0.09307 -0.0089,-0.09381 -0.0029,-0.09419 0.0029,-0.0942 0.0089,-0.0938 0.0147,-0.09305 0.02055,-0.092 0.0263,-0.09045 0.03195,-0.0887 0.0374,-0.08645 0.0428,-0.084 0.04795,-0.0811 0.05295,-0.07795 0.05775,-0.07445 0.06235,-0.07065 0.06665,-0.06665 0.07065,-0.0623 0.07445,-0.05775 0.07795,-0.053 0.0811,-0.04795 0.084,-0.0428 0.08645,-0.0374 0.08865,-0.03195 0.0905,-0.02625 0.092,-0.0206 0.09305,-0.0147 0.0938,-0.0089 0.0942,-0.0029 0.0942,0.0029 0.0938,0.0089 0.09305,0.0147 0.092,0.0206 0.09045,0.02625 0.0887,0.03195 0.08645,0.0374 0.084,0.0428 0.0811,0.04795 0.07795,0.053 0.07445,0.05775 0.07065,0.0623 0.06665,0.06665 0.0623,0.07065 0.05775,0.07445 0.053,0.07795 0.04795,0.0811 0.0428,0.084 0.0374,0.08645 0.03195,0.0887 0.02625,0.09045 0.0206,0.092 0.0147,0.09305 0.0089,0.0938 0.003,0.0942 -0.003,0.09419 -0.0089,0.09381 -0.0147,0.09307 -0.0206,0.09196 -0.02625,0.09049 -0.03195,0.08866 -0.0374,0.08647 -0.0428,0.08396 -0.04795,0.0811 -0.053,0.07794 -0.05775,0.07445 -0.0623,0.07068 -0.06665,0.06663 -0.07065,0.06231 -0.07445,0.05775 -0.07795,0.05296 -0.0811,0.04796 -0.084,0.04278 -0.08645,0.03742 -0.0887,0.03192 -0.09045,0.02629 -0.092,0.02056 -0.09305,0.01474 -0.0938,0.0089 -0.0942,0.0029 z"
         style="fill:none;stroke:#ff0000;stroke-width:0.1;stroke-miterlimit:4;stroke-dasharray:none" />
    </g>
  </g>
  <g
     inkscape:groupmode="layer"
     id="layer2"
     inkscape:label="Layer 2">
    <g
       id="g4540"
       style="">
      <path
         id="path822"
         d="m 60.238455,0.04409485 0.1876,-0.01774595 0.1861,-0.02948 0.184,-0.0411072 0.1809,-0.0525817 0.1774,-0.063843 0.1729,-0.074844 0.168,-0.085571 0.1622,-0.095932 0.1559,-0.105927 0.1489,-0.115509 0.1413,-0.124634 0.1333,-0.13327 0.1246,-0.14137 0.1155,-0.14891 0.106,-0.15589 0.0959,-0.16221 0.0856,-0.16793 0.0748,-0.17295 0.0639,-0.17733 0.0525,-0.18098 0.0412,-0.18393 0.0294,-0.18614 0.0178,-0.18762 0.0059,-0.18839 v -49 l -0.0059,-0.1884 -0.0178,-0.1876 -0.0294,-0.1861 -0.0412,-0.184 -0.0525,-0.1809 -0.0639,-0.1774 -0.0748,-0.1729 -0.0856,-0.168 -0.0959,-0.1622 -0.106,-0.1559 -0.1155,-0.1489 -0.1246,-0.1413 -0.1333,-0.1333 -0.1413,-0.1246 -0.1489,-0.1155 -0.1559,-0.106 -0.1622,-0.0959 -0.168,-0.0856 -0.1729,-0.0748 -0.1774,-0.0639 -0.1809,-0.0525 -0.184,-0.0412 -0.1861,-0.0294 -0.1876,-0.0178 -0.1884,-0.0059 h -120 l -0.1884,0.0059 -0.1876,0.0178 -0.1861,0.0294 -0.184,0.0412 -0.1809,0.0525 -0.1774,0.0639 -0.1729,0.0748 -0.168,0.0856 -0.1622,0.0959 -0.1559,0.106 -0.1489,0.1155 -0.1413,0.1246 -0.1333,0.1333 -0.1246,0.1413 -0.1155,0.1489 -0.106,0.1559 -0.0959,0.1622 -0.0856,0.168 -0.0748,0.1729 -0.0639,0.1774 -0.0525,0.1809 -0.0412,0.184 -0.0294,0.1861 -0.0178,0.1876 -0.0059,0.1884 v 49 l 0.0059,0.18839 0.0178,0.18762 0.0294,0.18614 0.0412,0.18393 0.0525,0.18098 0.0639,0.17733 0.0748,0.17295 0.0856,0.16793 0.0959,0.16221 0.106,0.15589 0.1155,0.14891 0.1246,0.14137 0.1333,0.13327 0.1413,0.124634 0.1489,0.115509 0.1559,0.105927 0.1622,0.095932 0.168,0.085571 0.1729,0.074844 0.1774,0.063843 0.1809,0.0525817 0.184,0.0411072 0.1861,0.02948 0.1876,0.01774595 0.1884,0.0059052 h 120 z"
         style="fill:none;stroke:#ff0000;stroke-width:0.1;stroke-miterlimit:4;stroke-dasharray:none" />
      <path
         inkscape:connector-curvature="0"
         id="path820"
         d="m -51.985787,-43.452975 -0.0938,-0.0089 -0.09305,-0.0147 -0.092,-0.02055 -0.09045,-0.0263 -0.0887,-0.03195 -0.08645,-0.0374 -0.084,-0.0428 -0.0811,-0.04795 -0.07795,-0.05295 -0.07445,-0.05775 -0.07065,-0.06235 -0.06665,-0.06665 -0.0623,-0.07065 -0.05775,-0.07445 -0.053,-0.07795 -0.04795,-0.0811 -0.0428,-0.084 -0.0374,-0.08645 -0.03195,-0.08865 -0.02625,-0.0905 -0.0206,-0.092 -0.0147,-0.09305 -0.0089,-0.0938 -0.003,-0.0942 0.003,-0.0942 0.0089,-0.0938 0.0147,-0.09305 0.0206,-0.092 0.02625,-0.09045 0.03195,-0.0887 0.0374,-0.08645 0.0428,-0.084 0.04795,-0.0811 0.053,-0.07795 0.05775,-0.07445 0.0623,-0.07065 0.06665,-0.06665 0.07065,-0.0623 0.07445,-0.05775 0.07795,-0.053 0.0811,-0.04795 0.084,-0.0428 0.08645,-0.0374 0.0887,-0.03195 0.09045,-0.02625 0.092,-0.0206 0.09305,-0.0147 0.0938,-0.0089 0.0942,-0.0029 0.0942,0.0029 0.0938,0.0089 0.09305,0.0147 0.092,0.0206 0.0905,0.02625 0.08865,0.03195 0.08645,0.0374 0.084,0.0428 0.0811,0.04795 0.07795,0.053 0.07445,0.05775 0.07065,0.0623 0.06665,0.06665 0.06235,0.07065 0.05775,0.07445 0.05295,0.07795 0.04795,0.0811 0.0428,0.084 0.0374,0.08645 0.03195,0.0887 0.0263,0.09045 0.02055,0.092 0.0147,0.09305 0.0089,0.0938 0.0029,0.0942 -0.0029,0.0942 -0.0089,0.0938 -0.0147,0.09305 -0.02055,0.092 -0.0263,0.0905 -0.03195,0.08865 -0.0374,0.08645 -0.0428,0.084 -0.04795,0.0811 -0.05295,0.07795 -0.05775,0.07445 -0.06235,0.07065 -0.06665,0.06665 -0.07065,0.06235 -0.07445,0.05775 -0.07795,0.05295 -0.0811,0.04795 -0.084,0.0428 -0.08645,0.0374 -0.08865,0.03195 -0.0905,0.0263 -0.092,0.02055 -0.09305,0.0147 -0.0938,0.0089 -0.0942,0.003 z"
         style="fill:none;stroke:#ff0000;stroke-width:0.1;stroke-miterlimit:4;stroke-dasharray:none" />
      <path
         inkscape:connector-curvature="0"
         id="path818"
         d="m 50.83913,-43.452975 -0.0938,-0.0089 -0.09305,-0.0147 -0.092,-0.02055 -0.0905,-0.0263 -0.08865,-0.03195 -0.08645,-0.0374 -0.084,-0.0428 -0.0811,-0.04795 -0.07795,-0.05295 -0.07445,-0.05775 -0.07065,-0.06235 -0.06665,-0.06665 -0.06235,-0.07065 -0.05775,-0.07445 -0.05295,-0.07795 -0.04795,-0.0811 -0.0428,-0.084 -0.0374,-0.08645 -0.03195,-0.08865 -0.0263,-0.0905 -0.02055,-0.092 -0.0147,-0.09305 -0.0089,-0.0938 -0.0029,-0.0942 0.0029,-0.0942 0.0089,-0.0938 0.0147,-0.09305 0.02055,-0.092 0.0263,-0.09045 0.03195,-0.0887 0.0374,-0.08645 0.0428,-0.084 0.04795,-0.0811 0.05295,-0.07795 0.05775,-0.07445 0.06235,-0.07065 0.06665,-0.06665 0.07065,-0.0623 0.07445,-0.05775 0.07795,-0.053 0.0811,-0.04795 0.084,-0.0428 0.08645,-0.0374 0.08865,-0.03195 0.0905,-0.02625 0.092,-0.0206 0.09305,-0.0147 0.0938,-0.0089 0.0942,-0.0029 0.0942,0.0029 0.0938,0.0089 0.09305,0.0147 0.092,0.0206 0.09045,0.02625 0.0887,0.03195 0.08645,0.0374 0.084,0.0428 0.0811,0.04795 0.07795,0.053 0.07445,0.05775 0.07065,0.0623 0.06665,0.06665 0.0623,0.07065 0.05775,0.07445 0.053,0.07795 0.04795,0.0811 0.0428,0.084 0.0374,0.08645 0.03195,0.0887 0.02625,0.09045 0.0206,0.092 0.0147,0.09305 0.0089,0.0938 0.0029,0.0942 -0.0029,0.0942 -0.0089,0.0938 -0.0147,0.09305 -0.0206,0.092 -0.02625,0.0905 -0.03195,0.08865 -0.0374,0.08645 -0.0428,0.084 -0.04795,0.0811 -0.053,0.07795 -0.05775,0.07445 -0.0623,0.07065 -0.06665,0.06665 -0.07065,0.06235 -0.07445,0.05775 -0.07795,0.05295 -0.0811,0.04795 -0.084,0.0428 -0.08645,0.0374 -0.0887,0.03195 -0.09045,0.0263 -0.092,0.02055 -0.09305,0.0147 -0.0938,0.0089 -0.0942,0.003 z"
         style="fill:none;stroke:#ff0000;stroke-width:0.1;stroke-miterlimit:4;stroke-dasharray:none" />
      <path
         inkscape:connector-curvature="0"
         id="path816"
         d="m -38.837848,-8.4529795 -0.0938,-0.00887 -0.09305,-0.01474 -0.092,-0.020555 -0.09045,-0.02629 -0.0887,-0.031919 -0.08645,-0.037424 -0.084,-0.042784 -0.0811,-0.047964 -0.07795,-0.052964 -0.07445,-0.057754 -0.07065,-0.062314 -0.06665,-0.066634 -0.0623,-0.070684 -0.05775,-0.074454 -0.053,-0.077944 -0.04795,-0.081104 -0.0428,-0.083964 -0.0374,-0.086474 -0.03195,-0.088663 -0.02625,-0.090489 -0.0206,-0.091964 -0.0147,-0.093068 -0.0089,-0.093808 -0.003,-0.094193 0.003,-0.0942 0.0089,-0.0938 0.0147,-0.09305 0.0206,-0.092 0.02625,-0.09045 0.03195,-0.0887 0.0374,-0.08645 0.0428,-0.084 0.04795,-0.0811 0.053,-0.07795 0.05775,-0.07445 0.0623,-0.07065 0.06665,-0.06665 0.07065,-0.0623 0.07445,-0.05775 0.07795,-0.053 0.0811,-0.04795 0.084,-0.0428 0.08645,-0.0374 0.0887,-0.03195 0.09045,-0.02625 0.092,-0.0206 0.09305,-0.0147 0.0938,-0.0089 0.0942,-0.003 0.0942,0.003 0.0938,0.0089 0.09305,0.0147 0.092,0.0206 0.0905,0.02625 0.08865,0.03195 0.08645,0.0374 0.084,0.0428 0.0811,0.04795 0.07795,0.053 0.07445,0.05775 0.07065,0.0623 0.06665,0.06665 0.06235,0.07065 0.05775,0.07445 0.05295,0.07795 0.04795,0.0811 0.0428,0.084 0.0374,0.08645 0.03195,0.0887 0.0263,0.09045 0.02055,0.092 0.0147,0.09305 0.0089,0.0938 0.0029,0.0942 -0.0029,0.094193 -0.0089,0.093808 -0.0147,0.093068 -0.02055,0.091964 -0.0263,0.090489 -0.03195,0.088663 -0.0374,0.086474 -0.0428,0.083964 -0.04795,0.081104 -0.05295,0.077944 -0.05775,0.074454 -0.06235,0.070684 -0.06665,0.066634 -0.07065,0.062314 -0.07445,0.057754 -0.07795,0.052964 -0.0811,0.047964 -0.084,0.042784 -0.08645,0.037424 -0.08865,0.031919 -0.0905,0.02629 -0.092,0.020555 -0.09305,0.01474 -0.0938,0.00887 -0.0942,0.00296 z"
         style="fill:none;stroke:#ff0000;stroke-width:0.1;stroke-miterlimit:4;stroke-dasharray:none" />
      <path
         inkscape:connector-curvature="0"
         id="path853"
         d="m 37.955857,-8.4529795 -0.0938,-0.00887 -0.09305,-0.01474 -0.092,-0.020555 -0.0905,-0.02629 -0.08865,-0.031919 -0.08645,-0.037424 -0.084,-0.042784 -0.0811,-0.047964 -0.07795,-0.052964 -0.07445,-0.057754 -0.07065,-0.062314 -0.06665,-0.066634 -0.06235,-0.070684 -0.05775,-0.074454 -0.05295,-0.077944 -0.04795,-0.081104 -0.0428,-0.083964 -0.0374,-0.086474 -0.03195,-0.088663 -0.0263,-0.090489 -0.02055,-0.091964 -0.0147,-0.093068 -0.0089,-0.093808 -0.0029,-0.094193 0.0029,-0.094199 0.0089,-0.0938 0.0147,-0.09305 0.02055,-0.092 0.0263,-0.09045 0.03195,-0.0887 0.0374,-0.08645 0.0428,-0.084 0.04795,-0.0811 0.05295,-0.07795 0.05775,-0.07445 0.06235,-0.07065 0.06665,-0.06665 0.07065,-0.0623 0.07445,-0.05775 0.07795,-0.053 0.0811,-0.04795 0.084,-0.0428 0.08645,-0.0374 0.08865,-0.03195 0.0905,-0.02625 0.092,-0.0206 0.09305,-0.0147 0.0938,-0.0089 0.0942,-0.003 0.0942,0.003 0.0938,0.0089 0.09305,0.0147 0.092,0.0206 0.09045,0.02625 0.0887,0.03195 0.08645,0.0374 0.084,0.0428 0.0811,0.04795 0.07795,0.053 0.07445,0.05775 0.07065,0.0623 0.06665,0.06665 0.0623,0.07065 0.05775,0.07445 0.053,0.07795 0.04795,0.0811 0.0428,0.084 0.0374,0.08645 0.03195,0.0887 0.02625,0.09045 0.0206,0.092 0.0147,0.09305 0.0089,0.0938 0.0029,0.094199 -0.0029,0.094193 -0.0089,0.093808 -0.0147,0.093068 -0.0206,0.091964 -0.02625,0.090489 -0.03195,0.088663 -0.0374,0.086474 -0.0428,0.083964 -0.04795,0.081104 -0.053,0.077944 -0.05775,0.074454 -0.0623,0.070684 -0.06665,0.066634 -0.07065,0.062314 -0.07445,0.057754 -0.07795,0.052964 -0.0811,0.047964 -0.084,0.042784 -0.08645,0.037424 -0.0887,0.031919 -0.09045,0.02629 -0.092,0.020555 -0.09305,0.01474 -0.0938,0.00887 -0.0942,0.00296 z"
         style="fill:none;stroke:#ff0000;stroke-width:0.1;stroke-miterlimit:4;stroke-dasharray:none" />
    </g>
  </g>
</svg>
