<?xml version="1.0" standalone="no"?>
<!DOCTYPE svg PUBLIC "-//W3C//DTD SVG 1.1//EN" "http://www.w3.org/Graphics/SVG/1.1/DTD/svg11.dtd">
<svg width="126mm" height="85mm" viewBox="-63 -85 126 85" xmlns="http://www.w3.org/2000/svg" version="1.1">
<title>OpenSCAD Model</title>
<path d="
M 60.1884,-0.00590515 L 60.376,-0.0236511 L 60.5621,-0.0531311 L 60.7461,-0.0942383 L 60.927,-0.14682 L 61.1044,-0.210663
 L 61.2773,-0.285507 L 61.4453,-0.371078 L 61.6075,-0.46701 L 61.7634,-0.572937 L 61.9123,-0.688446 L 62.0536,-0.81308
 L 62.1869,-0.94635 L 62.3115,-1.08772 L 62.427,-1.23663 L 62.533,-1.39252 L 62.6289,-1.55473 L 62.7145,-1.72266
 L 62.7893,-1.89561 L 62.8532,-2.07294 L 62.9057,-2.25392 L 62.9469,-2.43785 L 62.9763,-2.62399 L 62.9941,-2.81161
 L 63,-3 L 63,-82 L 62.9941,-82.1884 L 62.9763,-82.376 L 62.9469,-82.5621 L 62.9057,-82.7461
 L 62.8532,-82.927 L 62.7893,-83.1044 L 62.7145,-83.2773 L 62.6289,-83.4453 L 62.533,-83.6075 L 62.427,-83.7634
 L 62.3115,-83.9123 L 62.1869,-84.0536 L 62.0536,-84.1869 L 61.9123,-84.3115 L 61.7634,-84.427 L 61.6075,-84.533
 L 61.4453,-84.6289 L 61.2773,-84.7145 L 61.1044,-84.7893 L 60.927,-84.8532 L 60.7461,-84.9057 L 60.5621,-84.9469
 L 60.376,-84.9763 L 60.1884,-84.9941 L 60,-85 L -60,-85 L -60.1884,-84.9941 L -60.376,-84.9763
 L -60.5621,-84.9469 L -60.7461,-84.9057 L -60.927,-84.8532 L -61.1044,-84.7893 L -61.2773,-84.7145 L -61.4453,-84.6289
 L -61.6075,-84.533 L -61.7634,-84.427 L -61.9123,-84.3115 L -62.0536,-84.1869 L -62.1869,-84.0536 L -62.3115,-83.9123
 L -62.427,-83.7634 L -62.533,-83.6075 L -62.6289,-83.4453 L -62.7145,-83.2773 L -62.7893,-83.1044 L -62.8532,-82.927
 L -62.9057,-82.7461 L -62.9469,-82.5621 L -62.9763,-82.376 L -62.9941,-82.1884 L -63,-82 L -63,-3
 L -62.9941,-2.81161 L -62.9763,-2.62399 L -62.9469,-2.43785 L -62.9057,-2.25392 L -62.8532,-2.07294 L -62.7893,-1.89561
 L -62.7145,-1.72266 L -62.6289,-1.55473 L -62.533,-1.39252 L -62.427,-1.23663 L -62.3115,-1.08772 L -62.1869,-0.94635
 L -62.0536,-0.81308 L -61.9123,-0.688446 L -61.7634,-0.572937 L -61.6075,-0.46701 L -61.4453,-0.371078 L -61.2773,-0.285507
 L -61.1044,-0.210663 L -60.927,-0.14682 L -60.7461,-0.0942383 L -60.5621,-0.0531311 L -60.376,-0.0236511 L -60.1884,-0.00590515
 L -60,-0 L 60,-0 z
M -53.2198,-71.5069 L -53.4387,-71.5276 L -53.6558,-71.562 L -53.8704,-71.61 L -54.0816,-71.6713 L -54.2884,-71.7458
 L -54.4902,-71.8331 L -54.6861,-71.9329 L -54.8754,-72.0448 L -55.0572,-72.1684 L -55.231,-72.3032 L -55.3959,-72.4486
 L -55.5514,-72.6041 L -55.6968,-72.769 L -55.8316,-72.9427 L -55.9551,-73.1246 L -56.0671,-73.3139 L -56.1669,-73.5098
 L -56.2542,-73.7116 L -56.3287,-73.9184 L -56.39,-74.1296 L -56.438,-74.3442 L -56.4724,-74.5613 L -56.4931,-74.7802
 L -56.5,-75 L -56.4931,-75.2198 L -56.4724,-75.4387 L -56.438,-75.6558 L -56.39,-75.8704 L -56.3287,-76.0816
 L -56.2542,-76.2884 L -56.1669,-76.4902 L -56.0671,-76.6861 L -55.9551,-76.8754 L -55.8316,-77.0572 L -55.6968,-77.231
 L -55.5514,-77.3959 L -55.3959,-77.5514 L -55.231,-77.6968 L -55.0572,-77.8316 L -54.8754,-77.9551 L -54.6861,-78.0671
 L -54.4902,-78.1669 L -54.2884,-78.2542 L -54.0816,-78.3287 L -53.8704,-78.39 L -53.6558,-78.438 L -53.4387,-78.4724
 L -53.2198,-78.4931 L -53,-78.5 L -52.7802,-78.4931 L -52.5613,-78.4724 L -52.3442,-78.438 L -52.1296,-78.39
 L -51.9184,-78.3287 L -51.7116,-78.2542 L -51.5098,-78.1669 L -51.3139,-78.0671 L -51.1246,-77.9551 L -50.9427,-77.8316
 L -50.769,-77.6968 L -50.6041,-77.5514 L -50.4486,-77.3959 L -50.3032,-77.231 L -50.1684,-77.0572 L -50.0448,-76.8754
 L -49.9329,-76.6861 L -49.8331,-76.4902 L -49.7458,-76.2884 L -49.6713,-76.0816 L -49.61,-75.8704 L -49.562,-75.6558
 L -49.5276,-75.4387 L -49.5069,-75.2198 L -49.5,-75 L -49.5069,-74.7802 L -49.5276,-74.5613 L -49.562,-74.3442
 L -49.61,-74.1296 L -49.6713,-73.9184 L -49.7458,-73.7116 L -49.8331,-73.5098 L -49.9329,-73.3139 L -50.0448,-73.1246
 L -50.1684,-72.9427 L -50.3032,-72.769 L -50.4486,-72.6041 L -50.6041,-72.4486 L -50.769,-72.3032 L -50.9427,-72.1684
 L -51.1246,-72.0448 L -51.3139,-71.9329 L -51.5098,-71.8331 L -51.7116,-71.7458 L -51.9184,-71.6713 L -52.1296,-71.61
 L -52.3442,-71.562 L -52.5613,-71.5276 L -52.7802,-71.5069 L -53,-71.5 z
M 52.7802,-71.5069 L 52.5613,-71.5276 L 52.3442,-71.562 L 52.1296,-71.61 L 51.9184,-71.6713 L 51.7116,-71.7458
 L 51.5098,-71.8331 L 51.3139,-71.9329 L 51.1246,-72.0448 L 50.9427,-72.1684 L 50.769,-72.3032 L 50.6041,-72.4486
 L 50.4486,-72.6041 L 50.3032,-72.769 L 50.1684,-72.9427 L 50.0448,-73.1246 L 49.9329,-73.3139 L 49.8331,-73.5098
 L 49.7458,-73.7116 L 49.6713,-73.9184 L 49.61,-74.1296 L 49.562,-74.3442 L 49.5276,-74.5613 L 49.5069,-74.7802
 L 49.5,-75 L 49.5069,-75.2198 L 49.5276,-75.4387 L 49.562,-75.6558 L 49.61,-75.8704 L 49.6713,-76.0816
 L 49.7458,-76.2884 L 49.8331,-76.4902 L 49.9329,-76.6861 L 50.0448,-76.8754 L 50.1684,-77.0572 L 50.3032,-77.231
 L 50.4486,-77.3959 L 50.6041,-77.5514 L 50.769,-77.6968 L 50.9427,-77.8316 L 51.1246,-77.9551 L 51.3139,-78.0671
 L 51.5098,-78.1669 L 51.7116,-78.2542 L 51.9184,-78.3287 L 52.1296,-78.39 L 52.3442,-78.438 L 52.5613,-78.4724
 L 52.7802,-78.4931 L 53,-78.5 L 53.2198,-78.4931 L 53.4387,-78.4724 L 53.6558,-78.438 L 53.8704,-78.39
 L 54.0816,-78.3287 L 54.2884,-78.2542 L 54.4902,-78.1669 L 54.6861,-78.0671 L 54.8754,-77.9551 L 55.0572,-77.8316
 L 55.231,-77.6968 L 55.3959,-77.5514 L 55.5514,-77.3959 L 55.6968,-77.231 L 55.8316,-77.0572 L 55.9551,-76.8754
 L 56.0671,-76.6861 L 56.1669,-76.4902 L 56.2542,-76.2884 L 56.3287,-76.0816 L 56.39,-75.8704 L 56.438,-75.6558
 L 56.4724,-75.4387 L 56.4931,-75.2198 L 56.5,-75 L 56.4931,-74.7802 L 56.4724,-74.5613 L 56.438,-74.3442
 L 56.39,-74.1296 L 56.3287,-73.9184 L 56.2542,-73.7116 L 56.1669,-73.5098 L 56.0671,-73.3139 L 55.9551,-73.1246
 L 55.8316,-72.9427 L 55.6968,-72.769 L 55.5514,-72.6041 L 55.3959,-72.4486 L 55.231,-72.3032 L 55.0572,-72.1684
 L 54.8754,-72.0448 L 54.6861,-71.9329 L 54.4902,-71.8331 L 54.2884,-71.7458 L 54.0816,-71.6713 L 53.8704,-71.61
 L 53.6558,-71.562 L 53.4387,-71.5276 L 53.2198,-71.5069 L 53,-71.5 z
M -53.1884,-42.0059 L -53.376,-42.0237 L -53.5621,-42.0531 L -53.7461,-42.0942 L -53.927,-42.1468 L -54.1044,-42.2107
 L -54.2773,-42.2855 L -54.4453,-42.3711 L -54.6075,-42.467 L -54.7634,-42.5729 L -54.9123,-42.6884 L -55.0536,-42.8131
 L -55.1869,-42.9464 L -55.3115,-43.0877 L -55.427,-43.2366 L -55.533,-43.3925 L -55.6289,-43.5547 L -55.7145,-43.7227
 L -55.7893,-43.8956 L -55.8532,-44.0729 L -55.9057,-44.2539 L -55.9469,-44.4379 L -55.9763,-44.624 L -55.9941,-44.8116
 L -56,-45 L -55.9941,-45.1884 L -55.9763,-45.376 L -55.9469,-45.5621 L -55.9057,-45.7461 L -55.8532,-45.927
 L -55.7893,-46.1044 L -55.7145,-46.2773 L -55.6289,-46.4453 L -55.533,-46.6075 L -55.427,-46.7634 L -55.3115,-46.9123
 L -55.1869,-47.0536 L -55.0536,-47.1869 L -54.9123,-47.3115 L -54.7634,-47.427 L -54.6075,-47.533 L -54.4453,-47.6289
 L -54.2773,-47.7145 L -54.1044,-47.7893 L -53.927,-47.8532 L -53.7461,-47.9057 L -53.5621,-47.9469 L -53.376,-47.9763
 L -53.1884,-47.9941 L -53,-48 L -52.8116,-47.9941 L -52.624,-47.9763 L -52.4379,-47.9469 L -52.2539,-47.9057
 L -52.0729,-47.8532 L -51.8956,-47.7893 L -51.7227,-47.7145 L -51.5547,-47.6289 L -51.3925,-47.533 L -51.2366,-47.427
 L -51.0877,-47.3115 L -50.9464,-47.1869 L -50.8131,-47.0536 L -50.6884,-46.9123 L -50.5729,-46.7634 L -50.467,-46.6075
 L -50.3711,-46.4453 L -50.2855,-46.2773 L -50.2107,-46.1044 L -50.1468,-45.927 L -50.0942,-45.7461 L -50.0531,-45.5621
 L -50.0237,-45.376 L -50.0059,-45.1884 L -50,-45 L -50.0059,-44.8116 L -50.0237,-44.624 L -50.0531,-44.4379
 L -50.0942,-44.2539 L -50.1468,-44.0729 L -50.2107,-43.8956 L -50.2855,-43.7227 L -50.3711,-43.5547 L -50.467,-43.3925
 L -50.5729,-43.2366 L -50.6884,-43.0877 L -50.8131,-42.9464 L -50.9464,-42.8131 L -51.0877,-42.6884 L -51.2366,-42.5729
 L -51.3925,-42.467 L -51.5547,-42.3711 L -51.7227,-42.2855 L -51.8956,-42.2107 L -52.0729,-42.1468 L -52.2539,-42.0942
 L -52.4379,-42.0531 L -52.624,-42.0237 L -52.8116,-42.0059 L -53,-42 z
M 52.8116,-42.0059 L 52.624,-42.0237 L 52.4379,-42.0531 L 52.2539,-42.0942 L 52.0729,-42.1468 L 51.8956,-42.2107
 L 51.7227,-42.2855 L 51.5547,-42.3711 L 51.3925,-42.467 L 51.2366,-42.5729 L 51.0877,-42.6884 L 50.9464,-42.8131
 L 50.8131,-42.9464 L 50.6884,-43.0877 L 50.5729,-43.2366 L 50.467,-43.3925 L 50.3711,-43.5547 L 50.2855,-43.7227
 L 50.2107,-43.8956 L 50.1468,-44.0729 L 50.0942,-44.2539 L 50.0531,-44.4379 L 50.0237,-44.624 L 50.0059,-44.8116
 L 50,-45 L 50.0059,-45.1884 L 50.0237,-45.376 L 50.0531,-45.5621 L 50.0942,-45.7461 L 50.1468,-45.927
 L 50.2107,-46.1044 L 50.2855,-46.2773 L 50.3711,-46.4453 L 50.467,-46.6075 L 50.5729,-46.7634 L 50.6884,-46.9123
 L 50.8131,-47.0536 L 50.9464,-47.1869 L 51.0877,-47.3115 L 51.2366,-47.427 L 51.3925,-47.533 L 51.5547,-47.6289
 L 51.7227,-47.7145 L 51.8956,-47.7893 L 52.0729,-47.8532 L 52.2539,-47.9057 L 52.4379,-47.9469 L 52.624,-47.9763
 L 52.8116,-47.9941 L 53,-48 L 53.1884,-47.9941 L 53.376,-47.9763 L 53.5621,-47.9469 L 53.7461,-47.9057
 L 53.927,-47.8532 L 54.1044,-47.7893 L 54.2773,-47.7145 L 54.4453,-47.6289 L 54.6075,-47.533 L 54.7634,-47.427
 L 54.9123,-47.3115 L 55.0536,-47.1869 L 55.1869,-47.0536 L 55.3115,-46.9123 L 55.427,-46.7634 L 55.533,-46.6075
 L 55.6289,-46.4453 L 55.7145,-46.2773 L 55.7893,-46.1044 L 55.8532,-45.927 L 55.9057,-45.7461 L 55.9469,-45.5621
 L 55.9763,-45.376 L 55.9941,-45.1884 L 56,-45 L 55.9941,-44.8116 L 55.9763,-44.624 L 55.9469,-44.4379
 L 55.9057,-44.2539 L 55.8532,-44.0729 L 55.7893,-43.8956 L 55.7145,-43.7227 L 55.6289,-43.5547 L 55.533,-43.3925
 L 55.427,-43.2366 L 55.3115,-43.0877 L 55.1869,-42.9464 L 55.0536,-42.8131 L 54.9123,-42.6884 L 54.7634,-42.5729
 L 54.6075,-42.467 L 54.4453,-42.3711 L 54.2773,-42.2855 L 54.1044,-42.2107 L 53.927,-42.1468 L 53.7461,-42.0942
 L 53.5621,-42.0531 L 53.376,-42.0237 L 53.1884,-42.0059 L 53,-42 z
M -38.1884,-7.00591 L -38.376,-7.02365 L -38.5621,-7.05313 L -38.7461,-7.09424 L -38.927,-7.14682 L -39.1044,-7.21066
 L -39.2773,-7.28551 L -39.4453,-7.37108 L -39.6075,-7.46701 L -39.7634,-7.57294 L -39.9123,-7.68845 L -40.0536,-7.81308
 L -40.1869,-7.94635 L -40.3115,-8.08772 L -40.427,-8.23663 L -40.533,-8.39252 L -40.6289,-8.55473 L -40.7145,-8.72266
 L -40.7893,-8.89561 L -40.8532,-9.07294 L -40.9057,-9.25392 L -40.9469,-9.43785 L -40.9763,-9.62399 L -40.9941,-9.81161
 L -41,-10 L -40.9941,-10.1884 L -40.9763,-10.376 L -40.9469,-10.5621 L -40.9057,-10.7461 L -40.8532,-10.927
 L -40.7893,-11.1044 L -40.7145,-11.2773 L -40.6289,-11.4453 L -40.533,-11.6075 L -40.427,-11.7634 L -40.3115,-11.9123
 L -40.1869,-12.0536 L -40.0536,-12.1869 L -39.9123,-12.3115 L -39.7634,-12.427 L -39.6075,-12.533 L -39.4453,-12.6289
 L -39.2773,-12.7145 L -39.1044,-12.7893 L -38.927,-12.8532 L -38.7461,-12.9057 L -38.5621,-12.9469 L -38.376,-12.9763
 L -38.1884,-12.9941 L -38,-13 L -37.8116,-12.9941 L -37.624,-12.9763 L -37.4379,-12.9469 L -37.2539,-12.9057
 L -37.0729,-12.8532 L -36.8956,-12.7893 L -36.7227,-12.7145 L -36.5547,-12.6289 L -36.3925,-12.533 L -36.2366,-12.427
 L -36.0877,-12.3115 L -35.9464,-12.1869 L -35.8131,-12.0536 L -35.6884,-11.9123 L -35.5729,-11.7634 L -35.467,-11.6075
 L -35.3711,-11.4453 L -35.2855,-11.2773 L -35.2107,-11.1044 L -35.1468,-10.927 L -35.0942,-10.7461 L -35.0531,-10.5621
 L -35.0237,-10.376 L -35.0059,-10.1884 L -35,-10 L -35.0059,-9.81161 L -35.0237,-9.62399 L -35.0531,-9.43785
 L -35.0942,-9.25392 L -35.1468,-9.07294 L -35.2107,-8.89561 L -35.2855,-8.72266 L -35.3711,-8.55473 L -35.467,-8.39252
 L -35.5729,-8.23663 L -35.6884,-8.08772 L -35.8131,-7.94635 L -35.9464,-7.81308 L -36.0877,-7.68845 L -36.2366,-7.57294
 L -36.3925,-7.46701 L -36.5547,-7.37108 L -36.7227,-7.28551 L -36.8956,-7.21066 L -37.0729,-7.14682 L -37.2539,-7.09424
 L -37.4379,-7.05313 L -37.624,-7.02365 L -37.8116,-7.00591 L -38,-7 z
M 37.8116,-7.00591 L 37.624,-7.02365 L 37.4379,-7.05313 L 37.2539,-7.09424 L 37.0729,-7.14682 L 36.8956,-7.21066
 L 36.7227,-7.28551 L 36.5547,-7.37108 L 36.3925,-7.46701 L 36.2366,-7.57294 L 36.0877,-7.68845 L 35.9464,-7.81308
 L 35.8131,-7.94635 L 35.6884,-8.08772 L 35.5729,-8.23663 L 35.467,-8.39252 L 35.3711,-8.55473 L 35.2855,-8.72266
 L 35.2107,-8.89561 L 35.1468,-9.07294 L 35.0942,-9.25392 L 35.0531,-9.43785 L 35.0237,-9.62399 L 35.0059,-9.81161
 L 35,-10 L 35.0059,-10.1884 L 35.0237,-10.376 L 35.0531,-10.5621 L 35.0942,-10.7461 L 35.1468,-10.927
 L 35.2107,-11.1044 L 35.2855,-11.2773 L 35.3711,-11.4453 L 35.467,-11.6075 L 35.5729,-11.7634 L 35.6884,-11.9123
 L 35.8131,-12.0536 L 35.9464,-12.1869 L 36.0877,-12.3115 L 36.2366,-12.427 L 36.3925,-12.533 L 36.5547,-12.6289
 L 36.7227,-12.7145 L 36.8956,-12.7893 L 37.0729,-12.8532 L 37.2539,-12.9057 L 37.4379,-12.9469 L 37.624,-12.9763
 L 37.8116,-12.9941 L 38,-13 L 38.1884,-12.9941 L 38.376,-12.9763 L 38.5621,-12.9469 L 38.7461,-12.9057
 L 38.927,-12.8532 L 39.1044,-12.7893 L 39.2773,-12.7145 L 39.4453,-12.6289 L 39.6075,-12.533 L 39.7634,-12.427
 L 39.9123,-12.3115 L 40.0536,-12.1869 L 40.1869,-12.0536 L 40.3115,-11.9123 L 40.427,-11.7634 L 40.533,-11.6075
 L 40.6289,-11.4453 L 40.7145,-11.2773 L 40.7893,-11.1044 L 40.8532,-10.927 L 40.9057,-10.7461 L 40.9469,-10.5621
 L 40.9763,-10.376 L 40.9941,-10.1884 L 41,-10 L 40.9941,-9.81161 L 40.9763,-9.62399 L 40.9469,-9.43785
 L 40.9057,-9.25392 L 40.8532,-9.07294 L 40.7893,-8.89561 L 40.7145,-8.72266 L 40.6289,-8.55473 L 40.533,-8.39252
 L 40.427,-8.23663 L 40.3115,-8.08772 L 40.1869,-7.94635 L 40.0536,-7.81308 L 39.9123,-7.68845 L 39.7634,-7.57294
 L 39.6075,-7.46701 L 39.4453,-7.37108 L 39.2773,-7.28551 L 39.1044,-7.21066 L 38.927,-7.14682 L 38.7461,-7.09424
 L 38.5621,-7.05313 L 38.376,-7.02365 L 38.1884,-7.00591 L 38,-7 z
" stroke="black" fill="lightgray" stroke-width="0.5"/>
</svg>
