<?xml version="1.0" standalone="no"?>
<!DOCTYPE svg PUBLIC "-//W3C//DTD SVG 1.1//EN" "http://www.w3.org/Graphics/SVG/1.1/DTD/svg11.dtd">
<svg width="10mm" height="21mm" viewBox="-5 -4 10 21" xmlns="http://www.w3.org/2000/svg" version="1.1">
<title>OpenSCAD Model</title>
<path d="
M -3.87,16.7395 L -3.56999,16.7395 L -3.56999,16.74 L -3.25,16.74 L -3.25,16.7395 L -2.95,16.7395
 L -2.95,16.74 L -2.62999,16.74 L -2.62999,16.7395 L -2.32999,16.7395 L -2.32999,16.74 L -2.00999,16.74
 L -2.00999,16.7395 L -1.70999,16.7395 L -1.70999,16.74 L -1.39,16.74 L -1.39,16.7395 L -1.09,16.7395
 L -1.09,16.74 L -0.769989,16.74 L -0.769989,16.7395 L -0.469986,16.7395 L -0.469986,16.74 L -0.149994,16.74
 L -0.149994,16.7395 L 0.149994,16.7395 L 0.149994,16.74 L 0.469986,16.74 L 0.469986,16.7395 L 0.769989,16.7395
 L 0.769989,16.74 L 1.09,16.74 L 1.09,16.7395 L 1.39,16.7395 L 1.39,16.74 L 1.70999,16.74
 L 1.70999,16.7395 L 2.00999,16.7395 L 2.00999,16.74 L 2.32999,16.74 L 2.32999,16.7395 L 2.62999,16.7395
 L 2.62999,16.74 L 2.95,16.74 L 2.95,16.7395 L 3.25,16.7395 L 3.25,16.74 L 3.56999,16.74
 L 3.56999,16.7395 L 3.87,16.7395 L 3.87,16.74 L 4.18999,16.74 L 4.18999,16.7395 L 4.26569,16.7395
 L 4.29684,16.7355 L 4.32724,16.7278 L 4.35643,16.7162 L 4.38394,16.7011 L 4.40935,16.6826 L 4.43224,16.6611
 L 4.45224,16.6369 L 4.46907,16.6104 L 4.48244,16.582 L 4.49214,16.5522 L 4.49802,16.5213 L 4.5,16.49
 L 4.5,10.99 L 4.49802,10.9586 L 4.49214,10.9278 L 4.48244,10.8979 L 4.46907,10.8695 L 4.45224,10.843
 L 4.43224,10.8188 L 2.64999,9.08478 L 2.64999,5.73999 L 4.98,5.73999 L 4.98,-3.10999 L -4.98,-3.10999
 L -4.98,5.73999 L -2.64999,5.73999 L -2.64999,9.08478 L -4.43224,10.8188 L -4.45224,10.843 L -4.46907,10.8695
 L -4.48244,10.8979 L -4.49214,10.9278 L -4.49802,10.9586 L -4.5,10.99 L -4.5,16.49 L -4.49802,16.5213
 L -4.49214,16.5522 L -4.48244,16.582 L -4.46907,16.6104 L -4.45224,16.6369 L -4.43224,16.6611 L -4.40935,16.6826
 L -4.38394,16.7011 L -4.35643,16.7162 L -4.32724,16.7278 L -4.29684,16.7355 L -4.26569,16.7395 L -4.18999,16.7395
 L -4.18999,16.74 L -3.87,16.74 z
M 3.07487,11.1392 L 3.02504,11.1329 L 2.97638,11.1204 L 2.92969,11.1019 L 2.88567,11.0777 L 2.84502,11.0482
 L 2.80841,11.0138 L 2.77638,10.9751 L 2.74947,10.9327 L 2.72809,10.8872 L 2.71255,10.8395 L 2.70314,10.7901
 L 2.7,10.74 L 2.70314,10.6898 L 2.71255,10.6405 L 2.72809,10.5927 L 2.74947,10.5473 L 2.77638,10.5049
 L 2.80841,10.4662 L 2.84502,10.4318 L 2.88567,10.4023 L 2.92969,10.3781 L 2.97638,10.3596 L 3.02504,10.3471
 L 3.07487,10.3408 L 3.12511,10.3408 L 3.17494,10.3471 L 3.2236,10.3596 L 3.27031,10.3781 L 3.31432,10.4023
 L 3.35497,10.4318 L 3.39159,10.4662 L 3.4236,10.5049 L 3.45052,10.5473 L 3.47191,10.5927 L 3.48743,10.6405
 L 3.49684,10.6898 L 3.5,10.74 L 3.49684,10.7901 L 3.48743,10.8395 L 3.47191,10.8872 L 3.45052,10.9327
 L 3.4236,10.9751 L 3.39159,11.0138 L 3.35497,11.0482 L 3.31432,11.0777 L 3.27031,11.1019 L 3.2236,11.1204
 L 3.17494,11.1329 L 3.12511,11.1392 z
M -3.12511,11.1392 L -3.17494,11.1329 L -3.2236,11.1204 L -3.27031,11.1019 L -3.31432,11.0777 L -3.35497,11.0482
 L -3.39159,11.0138 L -3.4236,10.9751 L -3.45052,10.9327 L -3.47191,10.8872 L -3.48743,10.8395 L -3.49684,10.7901
 L -3.5,10.74 L -3.49684,10.6898 L -3.48743,10.6405 L -3.47191,10.5927 L -3.45052,10.5473 L -3.4236,10.5049
 L -3.39159,10.4662 L -3.35497,10.4318 L -3.31432,10.4023 L -3.27031,10.3781 L -3.2236,10.3596 L -3.17494,10.3471
 L -3.12511,10.3408 L -3.07487,10.3408 L -3.02504,10.3471 L -2.97638,10.3596 L -2.92969,10.3781 L -2.88567,10.4023
 L -2.84502,10.4318 L -2.80841,10.4662 L -2.77638,10.5049 L -2.74947,10.5473 L -2.72809,10.5927 L -2.71255,10.6405
 L -2.70314,10.6898 L -2.7,10.74 L -2.70314,10.7901 L -2.71255,10.8395 L -2.72809,10.8872 L -2.74947,10.9327
 L -2.77638,10.9751 L -2.80841,11.0138 L -2.84502,11.0482 L -2.88567,11.0777 L -2.92969,11.1019 L -2.97638,11.1204
 L -3.02504,11.1329 L -3.07487,11.1392 z
" stroke="black" fill="lightgray" stroke-width="0.5"/>
</svg>
