  0
SECTION
  2
HEADER
  9
$ACADVER
  1
AC1014
  9
$HANDSEED
  5
FFFF
  9
$MEASUREMENT
 70
     1
  0
ENDSEC
  0
SECTION
  2
TABLES
  0
TABLE
  2
VPORT
  5
8
330
0
100
AcDbSymbolTable
 70
     4
  0
VPORT
  5
2E
330
8
100
AcDbSymbolTableRecord
100
AcDbViewportTableRecord
  2
*ACTIVE
 70
     0
 10
0.0
 20
0.0
 11
1.0
 21
1.0
 12
210.0
 22
148.5
 13
0.0
 23
0.0
 14
10.0
 24
10.0
 15
10.0
 25
10.0
 16
0.0
 26
0.0
 36
1.0
 17
0.0
 27
0.0
 37
0.0
 40
341.0
 41
1.24
 42
50.0
 43
0.0
 44
0.0
 50
0.0
 51
0.0
 71
     0
 72
   100
 73
     1
 74
     3
 75
     0
 76
     0
 77
     0
 78
     0
  0
ENDTAB
  0
TABLE
  2
LTYPE
  5
5
330
0
100
AcDbSymbolTable
 70
     1
  0
LTYPE
  5
14
330
5
100
AcDbSymbolTableRecord
100
AcDbLinetypeTableRecord
  2
BYBLOCK
 70
     0
  3

 72
    65
 73
     0
 40
0.0
  0
LTYPE
  5
15
330
5
100
AcDbSymbolTableRecord
100
AcDbLinetypeTableRecord
  2
BYLAYER
 70
     0
  3

 72
    65
 73
     0
 40
0.0
  0
LTYPE
  5
16
330
5
100
AcDbSymbolTableRecord
100
AcDbLinetypeTableRecord
  2
CONTINUOUS
 70
     0
  3
Solid line
 72
    65
 73
     0
 40
0.0
  0
ENDTAB
  0
TABLE
  2
LAYER
  5
2
100
AcDbSymbolTable
 70
1
  0
LAYER
  5
50
100
AcDbSymbolTableRecord
100
AcDbLayerTableRecord
  2
0
 70
0
  6
CONTINUOUS
  0
ENDTAB
  0
TABLE
  2
STYLE
  5
3
330
0
100
AcDbSymbolTable
 70
     1
  0
STYLE
  5
11
330
3
100
AcDbSymbolTableRecord
100
AcDbTextStyleTableRecord
  2
STANDARD
 70
     0
 40
0.0
 41
1.0
 50
0.0
 71
     0
 42
2.5
  3
txt
  4

  0
ENDTAB
  0
TABLE
  2
VIEW
  5
6
330
0
100
AcDbSymbolTable
 70
     0
  0
ENDTAB
  0
TABLE
  2
UCS
  5
7
330
0
100
AcDbSymbolTable
 70
     0
  0
ENDTAB
  0
TABLE
  2
APPID
  5
9
330
0
100
AcDbSymbolTable
 70
     2
  0
APPID
  5
12
330
9
100
AcDbSymbolTableRecord
100
AcDbRegAppTableRecord
  2
ACAD
 70
     0
  0
ENDTAB
  0
TABLE
  2
DIMSTYLE
  5
A
330
0
100
AcDbSymbolTable
 70
     1
  0
DIMSTYLE
105
27
330
A
100
AcDbSymbolTableRecord
100
AcDbDimStyleTableRecord
  2
ISO-25
 70
     0
  3

  4

  5

  6

  7

 40
1.0
 41
2.5
 42
0.625
 43
3.75
 44
1.25
 45
0.0
 46
0.0
 47
0.0
 48
0.0
140
2.5
141
2.5
142
0.0
143
0.03937007874016
144
1.0
145
0.0
146
1.0
147
0.625
 71
     0
 72
     0
 73
     0
 74
     0
 75
     0
 76
     0
 77
     1
 78
     8
170
     0
171
     3
172
     1
173
     0
174
     0
175
     0
176
     0
177
     0
178
     0
270
     2
271
     2
272
     2
273
     2
274
     3
340
11
275
     0
280
     0
281
     0
282
     0
283
     0
284
     8
285
     0
286
     0
287
     3
288
     0
  0
ENDTAB
  0
TABLE
  2
BLOCK_RECORD
  5
1
330
0
100
AcDbSymbolTable
 70
     1
  0
BLOCK_RECORD
  5
1F
330
1
100
AcDbSymbolTableRecord
100
AcDbBlockTableRecord
  2
*MODEL_SPACE
  0
BLOCK_RECORD
  5
1B
330
1
100
AcDbSymbolTableRecord
100
AcDbBlockTableRecord
  2
*PAPER_SPACE
  0
ENDTAB
  0
ENDSEC
  0
SECTION
  2
BLOCKS
  0
BLOCK
  5
20
330
1F
100
AcDbEntity
  8
0
100
AcDbBlockBegin
  2
*MODEL_SPACE
 70
     0
 10
0.0
 20
0.0
 30
0.0
  3
*MODEL_SPACE
  1

  0
ENDBLK
  5
21
330
1F
100
AcDbEntity
  8
0
100
AcDbBlockEnd
  0
BLOCK
  5
1C
330
1B
100
AcDbEntity
 67
     1
  8
0
100
AcDbBlockBegin
  2
*PAPER_SPACE
  1

  0
ENDBLK
  5
1D
330
1B
100
AcDbEntity
 67
     1
  8
0
100
AcDbBlockEnd
  0
ENDSEC
  0
SECTION
  2
ENTITIES
  0
LWPOLYLINE
  5
100
100
AcDbEntity
  8
0
 62
7
100
AcDbPolyline
 90
142
 70
1
 10
123.813999
 20
61.082898
 30
0.0
 10
124.436899
 20
61.161612
 30
0.0
 10
125.045099
 20
61.317716
 30
0.0
 10
125.628899
 20
61.548909
 30
0.0
 10
126.179099
 20
61.851407
 30
0.0
 10
126.687099
 20
62.220395
 30
0.0
 10
127.144899
 20
62.650316
 30
0.0
 10
127.545099
 20
63.134107
 30
0.0
 10
127.881499
 20
63.664200
 30
0.0
 10
128.148899
 20
64.232392
 30
0.0
 10
128.342899
 20
64.829610
 30
0.0
 10
128.460599
 20
65.446407
 30
0.0
 10
128.499999
 20
66.072993
 30
0.0
 10
128.499999
 20
94.999992
 30
0.0
 10
137.375299
 20
94.999992
 30
0.0
 10
137.893399
 20
94.393408
 30
0.0
 10
139.683229
 20
92.864699
 30
0.0
 10
141.690159
 20
91.634915
 30
0.0
 10
143.864749
 20
90.734194
 30
0.0
 10
146.153489
 20
90.184708
 30
0.0
 10
148.499999
 20
90.000002
 30
0.0
 10
150.846510
 20
90.184708
 30
0.0
 10
153.135251
 20
90.734194
 30
0.0
 10
155.309840
 20
91.634915
 30
0.0
 10
157.316771
 20
92.864699
 30
0.0
 10
159.106600
 20
94.393408
 30
0.0
 10
159.624699
 20
94.999992
 30
0.0
 10
163.499998
 20
94.999992
 30
0.0
 10
163.499998
 20
87.145994
 30
0.0
 10
148.499999
 20
87.145994
 30
0.0
 10
148.499999
 20
62.145994
 30
0.0
 10
148.539412
 20
61.519408
 30
0.0
 10
148.657075
 20
60.902611
 30
0.0
 10
148.851104
 20
60.305394
 30
0.0
 10
149.118452
 20
59.737307
 30
0.0
 10
149.454910
 20
59.207108
 30
0.0
 10
149.855150
 20
58.723318
 30
0.0
 10
150.312869
 20
58.293502
 30
0.0
 10
150.820858
 20
57.924408
 30
0.0
 10
151.371088
 20
57.621910
 30
0.0
 10
151.954910
 20
57.390717
 30
0.0
 10
152.563079
 20
57.234613
 30
0.0
 10
153.186040
 20
57.155900
 30
0.0
 10
223.813899
 20
57.155900
 30
0.0
 10
224.436900
 20
57.234613
 30
0.0
 10
225.045098
 20
57.390717
 30
0.0
 10
225.628899
 20
57.621910
 30
0.0
 10
226.179100
 20
57.924408
 30
0.0
 10
226.687100
 20
58.293502
 30
0.0
 10
227.144800
 20
58.723318
 30
0.0
 10
227.545098
 20
59.207108
 30
0.0
 10
227.881500
 20
59.737307
 30
0.0
 10
228.148899
 20
60.305394
 30
0.0
 10
228.342899
 20
60.902611
 30
0.0
 10
228.460599
 20
61.519408
 30
0.0
 10
228.500001
 20
62.145994
 30
0.0
 10
228.500001
 20
94.999992
 30
0.0
 10
268.500000
 20
94.999992
 30
0.0
 10
268.500000
 20
143.927001
 30
0.0
 10
268.461001
 20
144.553603
 30
0.0
 10
268.342999
 20
145.170403
 30
0.0
 10
268.148999
 20
145.767602
 30
0.0
 10
267.882000
 20
146.335802
 30
0.0
 10
267.545000
 20
146.865903
 30
0.0
 10
267.145000
 20
147.349701
 30
0.0
 10
266.686998
 20
147.779602
 30
0.0
 10
266.178998
 20
148.148603
 30
0.0
 10
265.628998
 20
148.451101
 30
0.0
 10
265.045000
 20
148.682302
 30
0.0
 10
264.437000
 20
148.838403
 30
0.0
 10
263.813999
 20
148.917101
 30
0.0
 10
173.186000
 20
148.917101
 30
0.0
 10
172.563099
 20
148.838403
 30
0.0
 10
171.954899
 20
148.682302
 30
0.0
 10
171.371099
 20
148.451101
 30
0.0
 10
170.820900
 20
148.148603
 30
0.0
 10
170.312900
 20
147.779602
 30
0.0
 10
169.855100
 20
147.349701
 30
0.0
 10
169.454899
 20
146.865903
 30
0.0
 10
169.118500
 20
146.335802
 30
0.0
 10
168.851098
 20
145.767602
 30
0.0
 10
168.657098
 20
145.170403
 30
0.0
 10
168.539398
 20
144.553603
 30
0.0
 10
168.499999
 20
143.927001
 30
0.0
 10
168.499999
 20
115.000005
 30
0.0
 10
159.624699
 20
115.000005
 30
0.0
 10
159.106600
 20
115.606615
 30
0.0
 10
157.316771
 20
117.135298
 30
0.0
 10
155.309840
 20
118.365108
 30
0.0
 10
153.135251
 20
119.265803
 30
0.0
 10
150.846510
 20
119.815289
 30
0.0
 10
148.499999
 20
119.999995
 30
0.0
 10
146.153489
 20
119.815289
 30
0.0
 10
143.864749
 20
119.265803
 30
0.0
 10
141.690159
 20
118.365108
 30
0.0
 10
139.683229
 20
117.135298
 30
0.0
 10
137.893399
 20
115.606615
 30
0.0
 10
137.375299
 20
115.000005
 30
0.0
 10
133.499999
 20
115.000005
 30
0.0
 10
133.499999
 20
122.854002
 30
0.0
 10
148.499999
 20
122.854002
 30
0.0
 10
148.499999
 20
147.854003
 30
0.0
 10
148.460587
 20
148.480602
 30
0.0
 10
148.342924
 20
149.097401
 30
0.0
 10
148.148895
 20
149.694603
 30
0.0
 10
147.881546
 20
150.262703
 30
0.0
 10
147.545089
 20
150.792902
 30
0.0
 10
147.144848
 20
151.276703
 30
0.0
 10
146.687130
 20
151.706503
 30
0.0
 10
146.179139
 20
152.075602
 30
0.0
 10
145.628909
 20
152.378102
 30
0.0
 10
145.045089
 20
152.609303
 30
0.0
 10
144.436919
 20
152.765402
 30
0.0
 10
143.813959
 20
152.844102
 30
0.0
 10
73.186100
 20
152.844102
 30
0.0
 10
72.563098
 20
152.765402
 30
0.0
 10
71.954901
 20
152.609303
 30
0.0
 10
71.371100
 20
152.378102
 30
0.0
 10
70.820899
 20
152.075602
 30
0.0
 10
70.312899
 20
151.706503
 30
0.0
 10
69.855199
 20
151.276703
 30
0.0
 10
69.454900
 20
150.792902
 30
0.0
 10
69.118499
 20
150.262703
 30
0.0
 10
68.851100
 20
149.694603
 30
0.0
 10
68.657100
 20
149.097401
 30
0.0
 10
68.539400
 20
148.480602
 30
0.0
 10
68.499998
 20
147.854003
 30
0.0
 10
68.499998
 20
115.000005
 30
0.0
 10
28.499999
 20
115.000005
 30
0.0
 10
28.499999
 20
66.072993
 30
0.0
 10
28.538998
 20
65.446407
 30
0.0
 10
28.657000
 20
64.829610
 30
0.0
 10
28.851000
 20
64.232392
 30
0.0
 10
29.117999
 20
63.664200
 30
0.0
 10
29.454999
 20
63.134107
 30
0.0
 10
29.854999
 20
62.650316
 30
0.0
 10
30.313000
 20
62.220395
 30
0.0
 10
30.821000
 20
61.851407
 30
0.0
 10
31.371000
 20
61.548909
 30
0.0
 10
31.954999
 20
61.317716
 30
0.0
 10
32.562998
 20
61.161612
 30
0.0
 10
33.186000
 20
61.082898
 30
0.0
  0
LWPOLYLINE
  5
101
100
AcDbEntity
  8
0
 62
7
100
AcDbPolyline
 90
50
 70
1
 10
80.820900
 20
142.075603
 30
0.0
 10
81.371099
 20
142.378101
 30
0.0
 10
81.954899
 20
142.609302
 30
0.0
 10
82.563100
 20
142.765404
 30
0.0
 10
83.186101
 20
142.844101
 30
0.0
 10
133.813999
 20
142.844101
 30
0.0
 10
134.436899
 20
142.765404
 30
0.0
 10
135.045099
 20
142.609302
 30
0.0
 10
135.628899
 20
142.378101
 30
0.0
 10
136.179099
 20
142.075603
 30
0.0
 10
136.687099
 20
141.706501
 30
0.0
 10
137.144899
 20
141.276702
 30
0.0
 10
137.545099
 20
140.792903
 30
0.0
 10
137.881499
 20
140.262702
 30
0.0
 10
138.148899
 20
139.694602
 30
0.0
 10
138.342899
 20
139.097403
 30
0.0
 10
138.460599
 20
138.480604
 30
0.0
 10
138.499999
 20
137.854001
 30
0.0
 10
138.460599
 20
137.227307
 30
0.0
 10
138.342899
 20
136.610510
 30
0.0
 10
138.148899
 20
136.013398
 30
0.0
 10
137.881499
 20
135.445206
 30
0.0
 10
137.545099
 20
134.915113
 30
0.0
 10
137.144899
 20
134.431190
 30
0.0
 10
136.687099
 20
134.001401
 30
0.0
 10
136.179099
 20
133.632307
 30
0.0
 10
135.628899
 20
133.329809
 30
0.0
 10
135.045099
 20
133.098695
 30
0.0
 10
134.436899
 20
132.942512
 30
0.0
 10
133.813999
 20
132.863798
 30
0.0
 10
83.186101
 20
132.863798
 30
0.0
 10
82.563100
 20
132.942512
 30
0.0
 10
81.954899
 20
133.098695
 30
0.0
 10
81.371099
 20
133.329809
 30
0.0
 10
80.820900
 20
133.632307
 30
0.0
 10
80.312900
 20
134.001401
 30
0.0
 10
79.855200
 20
134.431190
 30
0.0
 10
79.454899
 20
134.915113
 30
0.0
 10
79.118500
 20
135.445206
 30
0.0
 10
78.851099
 20
136.013398
 30
0.0
 10
78.657101
 20
136.610510
 30
0.0
 10
78.539398
 20
137.227307
 30
0.0
 10
78.499999
 20
137.854001
 30
0.0
 10
78.539398
 20
138.480604
 30
0.0
 10
78.657101
 20
139.097403
 30
0.0
 10
78.851099
 20
139.694602
 30
0.0
 10
79.118500
 20
140.262702
 30
0.0
 10
79.454899
 20
140.792903
 30
0.0
 10
79.855200
 20
141.276702
 30
0.0
 10
80.312900
 20
141.706501
 30
0.0
  0
LWPOLYLINE
  5
102
100
AcDbEntity
  8
0
 62
7
100
AcDbPolyline
 90
40
 70
1
 10
152.351780
 20
103.748493
 30
0.0
 10
152.108569
 20
103.161356
 30
0.0
 10
151.776499
 20
102.619489
 30
0.0
 10
151.363770
 20
102.136228
 30
0.0
 10
150.880519
 20
101.723504
 30
0.0
 10
150.338650
 20
101.391426
 30
0.0
 10
149.751510
 20
101.148221
 30
0.0
 10
149.133544
 20
100.999869
 30
0.0
 10
148.499999
 20
100.950021
 30
0.0
 10
147.866455
 20
100.999869
 30
0.0
 10
147.248488
 20
101.148221
 30
0.0
 10
146.661349
 20
101.391426
 30
0.0
 10
146.119479
 20
101.723504
 30
0.0
 10
145.636229
 20
102.136228
 30
0.0
 10
145.223499
 20
102.619489
 30
0.0
 10
144.891429
 20
103.161356
 30
0.0
 10
144.648219
 20
103.748493
 30
0.0
 10
144.499859
 20
104.366454
 30
0.0
 10
144.450009
 20
104.999998
 30
0.0
 10
144.499859
 20
105.633543
 30
0.0
 10
144.648219
 20
106.251504
 30
0.0
 10
144.891429
 20
106.838641
 30
0.0
 10
145.223499
 20
107.380534
 30
0.0
 10
145.636229
 20
107.863769
 30
0.0
 10
146.119479
 20
108.276493
 30
0.0
 10
146.661349
 20
108.608571
 30
0.0
 10
147.248488
 20
108.851776
 30
0.0
 10
147.866455
 20
109.000154
 30
0.0
 10
148.499999
 20
109.050002
 30
0.0
 10
149.133544
 20
109.000154
 30
0.0
 10
149.751510
 20
108.851776
 30
0.0
 10
150.338650
 20
108.608571
 30
0.0
 10
150.880519
 20
108.276493
 30
0.0
 10
151.363770
 20
107.863769
 30
0.0
 10
151.776499
 20
107.380534
 30
0.0
 10
152.108569
 20
106.838641
 30
0.0
 10
152.351780
 20
106.251504
 30
0.0
 10
152.500140
 20
105.633543
 30
0.0
 10
152.549990
 20
104.999998
 30
0.0
 10
152.500140
 20
104.366454
 30
0.0
  0
LWPOLYLINE
  5
103
100
AcDbEntity
  8
0
 62
7
100
AcDbPolyline
 90
50
 70
1
 10
216.179098
 20
67.924415
 30
0.0
 10
215.628900
 20
67.621917
 30
0.0
 10
215.045100
 20
67.390697
 30
0.0
 10
214.436899
 20
67.234593
 30
0.0
 10
213.813898
 20
67.155906
 30
0.0
 10
163.185999
 20
67.155906
 30
0.0
 10
162.563098
 20
67.234593
 30
0.0
 10
161.954898
 20
67.390697
 30
0.0
 10
161.371100
 20
67.621917
 30
0.0
 10
160.820899
 20
67.924415
 30
0.0
 10
160.312899
 20
68.293508
 30
0.0
 10
159.855098
 20
68.723298
 30
0.0
 10
159.454900
 20
69.207115
 30
0.0
 10
159.118498
 20
69.737313
 30
0.0
 10
158.851100
 20
70.305400
 30
0.0
 10
158.657100
 20
70.902618
 30
0.0
 10
158.539400
 20
71.519414
 30
0.0
 10
158.500000
 20
72.146001
 30
0.0
 10
158.539400
 20
72.772693
 30
0.0
 10
158.657100
 20
73.389516
 30
0.0
 10
158.851100
 20
73.986601
 30
0.0
 10
159.118498
 20
74.554794
 30
0.0
 10
159.454900
 20
75.084913
 30
0.0
 10
159.855098
 20
75.568809
 30
0.0
 10
160.312899
 20
75.998598
 30
0.0
 10
160.820899
 20
76.367692
 30
0.0
 10
161.371100
 20
76.670217
 30
0.0
 10
161.954898
 20
76.901304
 30
0.0
 10
162.563098
 20
77.057514
 30
0.0
 10
163.185999
 20
77.136201
 30
0.0
 10
213.813898
 20
77.136201
 30
0.0
 10
214.436899
 20
77.057514
 30
0.0
 10
215.045099
 20
76.901304
 30
0.0
 10
215.628900
 20
76.670217
 30
0.0
 10
216.179098
 20
76.367692
 30
0.0
 10
216.687098
 20
75.998598
 30
0.0
 10
217.144798
 20
75.568809
 30
0.0
 10
217.545100
 20
75.084913
 30
0.0
 10
217.881499
 20
74.554794
 30
0.0
 10
218.148900
 20
73.986601
 30
0.0
 10
218.342898
 20
73.389516
 30
0.0
 10
218.460600
 20
72.772693
 30
0.0
 10
218.500000
 20
72.146001
 30
0.0
 10
218.460600
 20
71.519414
 30
0.0
 10
218.342898
 20
70.902618
 30
0.0
 10
218.148900
 20
70.305400
 30
0.0
 10
217.881499
 20
69.737313
 30
0.0
 10
217.545100
 20
69.207115
 30
0.0
 10
217.144798
 20
68.723298
 30
0.0
 10
216.687098
 20
68.293508
 30
0.0
  0
ENDSEC
  0
SECTION
  2
OBJECTS
  0
DICTIONARY
  5
C
330
0
100
AcDbDictionary
  3
ACAD_GROUP
350
D
  3
ACAD_MLINESTYLE
350
17
  0
DICTIONARY
  5
D
330
C
100
AcDbDictionary
  0
DICTIONARY
  5
1A
330
C
100
AcDbDictionary
  0
DICTIONARY
  5
17
330
C
100
AcDbDictionary
  3
STANDARD
350
18
  0
DICTIONARY
  5
19
330
C
100
AcDbDictionary
  0
ENDSEC
  0
EOF
