  0
SECTION
  2
BLOCKS
  0
ENDSEC
  0
SECTION
  2
ENTITIES
  0
LINE
  8
0
 10
75.9369
 20
-47.7654
 11
76.5451
 21
-47.6093
  0
LINE
  8
0
 10
76.5451
 20
-47.6093
 11
77.1289
 21
-47.3781
  0
LINE
  8
0
 10
77.1289
 20
-47.3781
 11
77.6791
 21
-47.0756
  0
LINE
  8
0
 10
77.6791
 20
-47.0756
 11
78.1871
 21
-46.7065
  0
LINE
  8
0
 10
78.1871
 20
-46.7065
 11
78.6448
 21
-46.2767
  0
LINE
  8
0
 10
78.6448
 20
-46.2767
 11
79.0451
 21
-45.7929
  0
LINE
  8
0
 10
79.0451
 20
-45.7929
 11
79.3815
 21
-45.2627
  0
LINE
  8
0
 10
79.3815
 20
-45.2627
 11
79.6489
 21
-44.6946
  0
LINE
  8
0
 10
79.6489
 20
-44.6946
 11
79.8429
 21
-44.0974
  0
LINE
  8
0
 10
79.8429
 20
-44.0974
 11
79.9606
 21
-43.4806
  0
LINE
  8
0
 10
79.9606
 20
-43.4806
 11
80
 21
-42.854
  0
LINE
  8
0
 10
80
 20
-42.854
 11
80
 21
-10
  0
LINE
  8
0
 10
80
 20
-10
 11
120
 21
-10
  0
LINE
  8
0
 10
120
 20
-10
 11
120
 21
38.927
  0
LINE
  8
0
 10
120
 20
38.927
 11
119.961
 21
39.5536
  0
LINE
  8
0
 10
119.961
 20
39.5536
 11
119.843
 21
40.1704
  0
LINE
  8
0
 10
119.843
 20
40.1704
 11
119.649
 21
40.7676
  0
LINE
  8
0
 10
119.649
 20
40.7676
 11
119.382
 21
41.3358
  0
LINE
  8
0
 10
119.382
 20
41.3358
 11
119.045
 21
41.8659
  0
LINE
  8
0
 10
119.045
 20
41.8659
 11
118.645
 21
42.3497
  0
LINE
  8
0
 10
118.645
 20
42.3497
 11
118.187
 21
42.7796
  0
LINE
  8
0
 10
118.187
 20
42.7796
 11
117.679
 21
43.1486
  0
LINE
  8
0
 10
117.679
 20
43.1486
 11
117.129
 21
43.4511
  0
LINE
  8
0
 10
117.129
 20
43.4511
 11
116.545
 21
43.6823
  0
LINE
  8
0
 10
116.545
 20
43.6823
 11
115.937
 21
43.8384
  0
LINE
  8
0
 10
115.937
 20
43.8384
 11
115.314
 21
43.9171
  0
LINE
  8
0
 10
115.314
 20
43.9171
 11
24.686
 21
43.9171
  0
LINE
  8
0
 10
24.686
 20
43.9171
 11
24.0631
 21
43.8384
  0
LINE
  8
0
 10
24.0631
 20
43.8384
 11
23.4549
 21
43.6823
  0
LINE
  8
0
 10
23.4549
 20
43.6823
 11
22.8711
 21
43.4511
  0
LINE
  8
0
 10
22.8711
 20
43.4511
 11
22.3209
 21
43.1486
  0
LINE
  8
0
 10
22.3209
 20
43.1486
 11
21.8129
 21
42.7796
  0
LINE
  8
0
 10
21.8129
 20
42.7796
 11
21.3551
 21
42.3497
  0
LINE
  8
0
 10
21.3551
 20
42.3497
 11
20.9549
 21
41.8659
  0
LINE
  8
0
 10
20.9549
 20
41.8659
 11
20.6185
 21
41.3358
  0
LINE
  8
0
 10
20.6185
 20
41.3358
 11
20.3511
 21
40.7676
  0
LINE
  8
0
 10
20.3511
 20
40.7676
 11
20.1571
 21
40.1704
  0
LINE
  8
0
 10
20.1571
 20
40.1704
 11
20.0394
 21
39.5536
  0
LINE
  8
0
 10
20.0394
 20
39.5536
 11
20
 21
38.927
  0
LINE
  8
0
 10
20
 20
38.927
 11
20
 21
10
  0
LINE
  8
0
 10
20
 20
10
 11
11.1247
 21
10
  0
LINE
  8
0
 10
11.1247
 20
10
 11
10.6066
 21
10.6066
  0
LINE
  8
0
 10
10.6066
 20
10.6066
 11
8.81677
 21
12.1353
  0
LINE
  8
0
 10
8.81677
 20
12.1353
 11
6.80984
 21
13.3651
  0
LINE
  8
0
 10
6.80984
 20
13.3651
 11
4.63525
 21
14.2658
  0
LINE
  8
0
 10
4.63525
 20
14.2658
 11
2.34651
 21
14.8153
  0
LINE
  8
0
 10
2.34651
 20
14.8153
 11
0
 21
15
  0
LINE
  8
0
 10
0
 20
15
 11
-2.34651
 21
14.8153
  0
LINE
  8
0
 10
-2.34651
 20
14.8153
 11
-4.63525
 21
14.2658
  0
LINE
  8
0
 10
-4.63525
 20
14.2658
 11
-6.80984
 21
13.3651
  0
LINE
  8
0
 10
-6.80984
 20
13.3651
 11
-8.81677
 21
12.1353
  0
LINE
  8
0
 10
-8.81677
 20
12.1353
 11
-10.6066
 21
10.6066
  0
LINE
  8
0
 10
-10.6066
 20
10.6066
 11
-11.1247
 21
10
  0
LINE
  8
0
 10
-11.1247
 20
10
 11
-15
 21
10
  0
LINE
  8
0
 10
-15
 20
10
 11
-15
 21
17.854
  0
LINE
  8
0
 10
-15
 20
17.854
 11
0
 21
17.854
  0
LINE
  8
0
 10
0
 20
17.854
 11
0
 21
42.854
  0
LINE
  8
0
 10
0
 20
42.854
 11
-0.0394135
 21
43.4806
  0
LINE
  8
0
 10
-0.0394135
 20
43.4806
 11
-0.157074
 21
44.0974
  0
LINE
  8
0
 10
-0.157074
 20
44.0974
 11
-0.351105
 21
44.6946
  0
LINE
  8
0
 10
-0.351105
 20
44.6946
 11
-0.618454
 21
45.2627
  0
LINE
  8
0
 10
-0.618454
 20
45.2627
 11
-0.95491
 21
45.7929
  0
LINE
  8
0
 10
-0.95491
 20
45.7929
 11
-1.35515
 21
46.2767
  0
LINE
  8
0
 10
-1.35515
 20
46.2767
 11
-1.81287
 21
46.7065
  0
LINE
  8
0
 10
-1.81287
 20
46.7065
 11
-2.32086
 21
47.0756
  0
LINE
  8
0
 10
-2.32086
 20
47.0756
 11
-2.87109
 21
47.3781
  0
LINE
  8
0
 10
-2.87109
 20
47.3781
 11
-3.45491
 21
47.6093
  0
LINE
  8
0
 10
-3.45491
 20
47.6093
 11
-4.06308
 21
47.7654
  0
LINE
  8
0
 10
-4.06308
 20
47.7654
 11
-4.68604
 21
47.8441
  0
LINE
  8
0
 10
-4.68604
 20
47.8441
 11
-75.3139
 21
47.8441
  0
LINE
  8
0
 10
-75.3139
 20
47.8441
 11
-75.9369
 21
47.7654
  0
LINE
  8
0
 10
-75.9369
 20
47.7654
 11
-76.5451
 21
47.6093
  0
LINE
  8
0
 10
-76.5451
 20
47.6093
 11
-77.1289
 21
47.3781
  0
LINE
  8
0
 10
-77.1289
 20
47.3781
 11
-77.6791
 21
47.0756
  0
LINE
  8
0
 10
-77.6791
 20
47.0756
 11
-78.1871
 21
46.7065
  0
LINE
  8
0
 10
-78.1871
 20
46.7065
 11
-78.6448
 21
46.2767
  0
LINE
  8
0
 10
-78.6448
 20
46.2767
 11
-79.0451
 21
45.7929
  0
LINE
  8
0
 10
-79.0451
 20
45.7929
 11
-79.3815
 21
45.2627
  0
LINE
  8
0
 10
-79.3815
 20
45.2627
 11
-79.6489
 21
44.6946
  0
LINE
  8
0
 10
-79.6489
 20
44.6946
 11
-79.8429
 21
44.0974
  0
LINE
  8
0
 10
-79.8429
 20
44.0974
 11
-79.9606
 21
43.4806
  0
LINE
  8
0
 10
-79.9606
 20
43.4806
 11
-80
 21
42.854
  0
LINE
  8
0
 10
-80
 20
42.854
 11
-80
 21
10
  0
LINE
  8
0
 10
-80
 20
10
 11
-120
 21
10
  0
LINE
  8
0
 10
-120
 20
10
 11
-120
 21
-38.927
  0
LINE
  8
0
 10
-120
 20
-38.927
 11
-119.961
 21
-39.5536
  0
LINE
  8
0
 10
-119.961
 20
-39.5536
 11
-119.843
 21
-40.1704
  0
LINE
  8
0
 10
-119.843
 20
-40.1704
 11
-119.649
 21
-40.7676
  0
LINE
  8
0
 10
-119.649
 20
-40.7676
 11
-119.382
 21
-41.3358
  0
LINE
  8
0
 10
-119.382
 20
-41.3358
 11
-119.045
 21
-41.8659
  0
LINE
  8
0
 10
-119.045
 20
-41.8659
 11
-118.645
 21
-42.3497
  0
LINE
  8
0
 10
-118.645
 20
-42.3497
 11
-118.187
 21
-42.7796
  0
LINE
  8
0
 10
-118.187
 20
-42.7796
 11
-117.679
 21
-43.1486
  0
LINE
  8
0
 10
-117.679
 20
-43.1486
 11
-117.129
 21
-43.4511
  0
LINE
  8
0
 10
-117.129
 20
-43.4511
 11
-116.545
 21
-43.6823
  0
LINE
  8
0
 10
-116.545
 20
-43.6823
 11
-115.937
 21
-43.8384
  0
LINE
  8
0
 10
-115.937
 20
-43.8384
 11
-115.314
 21
-43.9171
  0
LINE
  8
0
 10
-115.314
 20
-43.9171
 11
-24.686
 21
-43.9171
  0
LINE
  8
0
 10
-24.686
 20
-43.9171
 11
-24.0631
 21
-43.8384
  0
LINE
  8
0
 10
-24.0631
 20
-43.8384
 11
-23.4549
 21
-43.6823
  0
LINE
  8
0
 10
-23.4549
 20
-43.6823
 11
-22.8711
 21
-43.4511
  0
LINE
  8
0
 10
-22.8711
 20
-43.4511
 11
-22.3209
 21
-43.1486
  0
LINE
  8
0
 10
-22.3209
 20
-43.1486
 11
-21.8129
 21
-42.7796
  0
LINE
  8
0
 10
-21.8129
 20
-42.7796
 11
-21.3551
 21
-42.3497
  0
LINE
  8
0
 10
-21.3551
 20
-42.3497
 11
-20.9549
 21
-41.8659
  0
LINE
  8
0
 10
-20.9549
 20
-41.8659
 11
-20.6185
 21
-41.3358
  0
LINE
  8
0
 10
-20.6185
 20
-41.3358
 11
-20.3511
 21
-40.7676
  0
LINE
  8
0
 10
-20.3511
 20
-40.7676
 11
-20.1571
 21
-40.1704
  0
LINE
  8
0
 10
-20.1571
 20
-40.1704
 11
-20.0394
 21
-39.5536
  0
LINE
  8
0
 10
-20.0394
 20
-39.5536
 11
-20
 21
-38.927
  0
LINE
  8
0
 10
-20
 20
-38.927
 11
-20
 21
-10
  0
LINE
  8
0
 10
-20
 20
-10
 11
-11.1247
 21
-10
  0
LINE
  8
0
 10
-11.1247
 20
-10
 11
-10.6066
 21
-10.6066
  0
LINE
  8
0
 10
-10.6066
 20
-10.6066
 11
-8.81677
 21
-12.1353
  0
LINE
  8
0
 10
-8.81677
 20
-12.1353
 11
-6.80984
 21
-13.3651
  0
LINE
  8
0
 10
-6.80984
 20
-13.3651
 11
-4.63525
 21
-14.2658
  0
LINE
  8
0
 10
-4.63525
 20
-14.2658
 11
-2.34651
 21
-14.8153
  0
LINE
  8
0
 10
-2.34651
 20
-14.8153
 11
0
 21
-15
  0
LINE
  8
0
 10
0
 20
-15
 11
2.34651
 21
-14.8153
  0
LINE
  8
0
 10
2.34651
 20
-14.8153
 11
4.63525
 21
-14.2658
  0
LINE
  8
0
 10
4.63525
 20
-14.2658
 11
6.80984
 21
-13.3651
  0
LINE
  8
0
 10
6.80984
 20
-13.3651
 11
8.81677
 21
-12.1353
  0
LINE
  8
0
 10
8.81677
 20
-12.1353
 11
10.6066
 21
-10.6066
  0
LINE
  8
0
 10
10.6066
 20
-10.6066
 11
11.1247
 21
-10
  0
LINE
  8
0
 10
11.1247
 20
-10
 11
15
 21
-10
  0
LINE
  8
0
 10
15
 20
-10
 11
15
 21
-17.854
  0
LINE
  8
0
 10
15
 20
-17.854
 11
0
 21
-17.854
  0
LINE
  8
0
 10
0
 20
-17.854
 11
0
 21
-42.854
  0
LINE
  8
0
 10
0
 20
-42.854
 11
0.0394135
 21
-43.4806
  0
LINE
  8
0
 10
0.0394135
 20
-43.4806
 11
0.157074
 21
-44.0974
  0
LINE
  8
0
 10
0.157074
 20
-44.0974
 11
0.351105
 21
-44.6946
  0
LINE
  8
0
 10
0.351105
 20
-44.6946
 11
0.618454
 21
-45.2627
  0
LINE
  8
0
 10
0.618454
 20
-45.2627
 11
0.95491
 21
-45.7929
  0
LINE
  8
0
 10
0.95491
 20
-45.7929
 11
1.35515
 21
-46.2767
  0
LINE
  8
0
 10
1.35515
 20
-46.2767
 11
1.81287
 21
-46.7065
  0
LINE
  8
0
 10
1.81287
 20
-46.7065
 11
2.32086
 21
-47.0756
  0
LINE
  8
0
 10
2.32086
 20
-47.0756
 11
2.87109
 21
-47.3781
  0
LINE
  8
0
 10
2.87109
 20
-47.3781
 11
3.45491
 21
-47.6093
  0
LINE
  8
0
 10
3.45491
 20
-47.6093
 11
4.06308
 21
-47.7654
  0
LINE
  8
0
 10
4.06308
 20
-47.7654
 11
4.68604
 21
-47.8441
  0
LINE
  8
0
 10
4.68604
 20
-47.8441
 11
75.3139
 21
-47.8441
  0
LINE
  8
0
 10
75.3139
 20
-47.8441
 11
75.9369
 21
-47.7654
  0
LINE
  8
0
 10
-65.3139
 20
27.8638
 11
-65.9369
 21
27.9425
  0
LINE
  8
0
 10
-65.9369
 20
27.9425
 11
-66.5451
 21
28.0987
  0
LINE
  8
0
 10
-66.5451
 20
28.0987
 11
-67.1289
 21
28.3298
  0
LINE
  8
0
 10
-67.1289
 20
28.3298
 11
-67.6791
 21
28.6323
  0
LINE
  8
0
 10
-67.6791
 20
28.6323
 11
-68.1871
 21
29.0014
  0
LINE
  8
0
 10
-68.1871
 20
29.0014
 11
-68.6448
 21
29.4312
  0
LINE
  8
0
 10
-68.6448
 20
29.4312
 11
-69.0451
 21
29.9151
  0
LINE
  8
0
 10
-69.0451
 20
29.9151
 11
-69.3815
 21
30.4452
  0
LINE
  8
0
 10
-69.3815
 20
30.4452
 11
-69.6489
 21
31.0134
  0
LINE
  8
0
 10
-69.6489
 20
31.0134
 11
-69.8429
 21
31.6105
  0
LINE
  8
0
 10
-69.8429
 20
31.6105
 11
-69.9606
 21
32.2273
  0
LINE
  8
0
 10
-69.9606
 20
32.2273
 11
-70
 21
32.854
  0
LINE
  8
0
 10
-70
 20
32.854
 11
-69.9606
 21
33.4806
  0
LINE
  8
0
 10
-69.9606
 20
33.4806
 11
-69.8429
 21
34.0974
  0
LINE
  8
0
 10
-69.8429
 20
34.0974
 11
-69.6489
 21
34.6946
  0
LINE
  8
0
 10
-69.6489
 20
34.6946
 11
-69.3815
 21
35.2627
  0
LINE
  8
0
 10
-69.3815
 20
35.2627
 11
-69.0451
 21
35.7929
  0
LINE
  8
0
 10
-69.0451
 20
35.7929
 11
-68.6448
 21
36.2767
  0
LINE
  8
0
 10
-68.6448
 20
36.2767
 11
-68.1871
 21
36.7065
  0
LINE
  8
0
 10
-68.1871
 20
36.7065
 11
-67.6791
 21
37.0756
  0
LINE
  8
0
 10
-67.6791
 20
37.0756
 11
-67.1289
 21
37.3781
  0
LINE
  8
0
 10
-67.1289
 20
37.3781
 11
-66.5451
 21
37.6093
  0
LINE
  8
0
 10
-66.5451
 20
37.6093
 11
-65.9369
 21
37.7654
  0
LINE
  8
0
 10
-65.9369
 20
37.7654
 11
-65.3139
 21
37.8441
  0
LINE
  8
0
 10
-65.3139
 20
37.8441
 11
-14.686
 21
37.8441
  0
LINE
  8
0
 10
-14.686
 20
37.8441
 11
-14.0631
 21
37.7654
  0
LINE
  8
0
 10
-14.0631
 20
37.7654
 11
-13.4549
 21
37.6093
  0
LINE
  8
0
 10
-13.4549
 20
37.6093
 11
-12.8711
 21
37.3781
  0
LINE
  8
0
 10
-12.8711
 20
37.3781
 11
-12.3209
 21
37.0756
  0
LINE
  8
0
 10
-12.3209
 20
37.0756
 11
-11.8129
 21
36.7065
  0
LINE
  8
0
 10
-11.8129
 20
36.7065
 11
-11.3551
 21
36.2767
  0
LINE
  8
0
 10
-11.3551
 20
36.2767
 11
-10.9549
 21
35.7929
  0
LINE
  8
0
 10
-10.9549
 20
35.7929
 11
-10.6185
 21
35.2627
  0
LINE
  8
0
 10
-10.6185
 20
35.2627
 11
-10.3511
 21
34.6946
  0
LINE
  8
0
 10
-10.3511
 20
34.6946
 11
-10.1571
 21
34.0974
  0
LINE
  8
0
 10
-10.1571
 20
34.0974
 11
-10.0394
 21
33.4806
  0
LINE
  8
0
 10
-10.0394
 20
33.4806
 11
-10
 21
32.854
  0
LINE
  8
0
 10
-10
 20
32.854
 11
-10.0394
 21
32.2273
  0
LINE
  8
0
 10
-10.0394
 20
32.2273
 11
-10.1571
 21
31.6105
  0
LINE
  8
0
 10
-10.1571
 20
31.6105
 11
-10.3511
 21
31.0134
  0
LINE
  8
0
 10
-10.3511
 20
31.0134
 11
-10.6185
 21
30.4452
  0
LINE
  8
0
 10
-10.6185
 20
30.4452
 11
-10.9549
 21
29.9151
  0
LINE
  8
0
 10
-10.9549
 20
29.9151
 11
-11.3551
 21
29.4312
  0
LINE
  8
0
 10
-11.3551
 20
29.4312
 11
-11.8129
 21
29.0014
  0
LINE
  8
0
 10
-11.8129
 20
29.0014
 11
-12.3209
 21
28.6323
  0
LINE
  8
0
 10
-12.3209
 20
28.6323
 11
-12.8711
 21
28.3298
  0
LINE
  8
0
 10
-12.8711
 20
28.3298
 11
-13.4549
 21
28.0987
  0
LINE
  8
0
 10
-13.4549
 20
28.0987
 11
-14.0631
 21
27.9425
  0
LINE
  8
0
 10
-14.0631
 20
27.9425
 11
-14.686
 21
27.8638
  0
LINE
  8
0
 10
-14.686
 20
27.8638
 11
-65.3139
 21
27.8638
  0
LINE
  8
0
 10
-0.633545
 20
-4.00014
 11
-1.25151
 21
-3.85178
  0
LINE
  8
0
 10
-1.25151
 20
-3.85178
 11
-1.83865
 21
-3.60857
  0
LINE
  8
0
 10
-1.83865
 20
-3.60857
 11
-2.38052
 21
-3.2765
  0
LINE
  8
0
 10
-2.38052
 20
-3.2765
 11
-2.86377
 21
-2.86377
  0
LINE
  8
0
 10
-2.86377
 20
-2.86377
 11
-3.2765
 21
-2.38052
  0
LINE
  8
0
 10
-3.2765
 20
-2.38052
 11
-3.60857
 21
-1.83865
  0
LINE
  8
0
 10
-3.60857
 20
-1.83865
 11
-3.85178
 21
-1.25151
  0
LINE
  8
0
 10
-3.85178
 20
-1.25151
 11
-4.00014
 21
-0.633545
  0
LINE
  8
0
 10
-4.00014
 20
-0.633545
 11
-4.04999
 21
0
  0
LINE
  8
0
 10
-4.04999
 20
0
 11
-4.00014
 21
0.633545
  0
LINE
  8
0
 10
-4.00014
 20
0.633545
 11
-3.85178
 21
1.25151
  0
LINE
  8
0
 10
-3.85178
 20
1.25151
 11
-3.60857
 21
1.83865
  0
LINE
  8
0
 10
-3.60857
 20
1.83865
 11
-3.2765
 21
2.38052
  0
LINE
  8
0
 10
-3.2765
 20
2.38052
 11
-2.86377
 21
2.86377
  0
LINE
  8
0
 10
-2.86377
 20
2.86377
 11
-2.38052
 21
3.2765
  0
LINE
  8
0
 10
-2.38052
 20
3.2765
 11
-1.83865
 21
3.60857
  0
LINE
  8
0
 10
-1.83865
 20
3.60857
 11
-1.25151
 21
3.85178
  0
LINE
  8
0
 10
-1.25151
 20
3.85178
 11
-0.633545
 21
4.00014
  0
LINE
  8
0
 10
-0.633545
 20
4.00014
 11
0
 21
4.04999
  0
LINE
  8
0
 10
0
 20
4.04999
 11
0.633545
 21
4.00014
  0
LINE
  8
0
 10
0.633545
 20
4.00014
 11
1.25151
 21
3.85178
  0
LINE
  8
0
 10
1.25151
 20
3.85178
 11
1.83865
 21
3.60857
  0
LINE
  8
0
 10
1.83865
 20
3.60857
 11
2.38052
 21
3.2765
  0
LINE
  8
0
 10
2.38052
 20
3.2765
 11
2.86377
 21
2.86377
  0
LINE
  8
0
 10
2.86377
 20
2.86377
 11
3.2765
 21
2.38052
  0
LINE
  8
0
 10
3.2765
 20
2.38052
 11
3.60857
 21
1.83865
  0
LINE
  8
0
 10
3.60857
 20
1.83865
 11
3.85178
 21
1.25151
  0
LINE
  8
0
 10
3.85178
 20
1.25151
 11
4.00014
 21
0.633545
  0
LINE
  8
0
 10
4.00014
 20
0.633545
 11
4.04999
 21
0
  0
LINE
  8
0
 10
4.04999
 20
0
 11
4.00014
 21
-0.633545
  0
LINE
  8
0
 10
4.00014
 20
-0.633545
 11
3.85178
 21
-1.25151
  0
LINE
  8
0
 10
3.85178
 20
-1.25151
 11
3.60857
 21
-1.83865
  0
LINE
  8
0
 10
3.60857
 20
-1.83865
 11
3.2765
 21
-2.38052
  0
LINE
  8
0
 10
3.2765
 20
-2.38052
 11
2.86377
 21
-2.86377
  0
LINE
  8
0
 10
2.86377
 20
-2.86377
 11
2.38052
 21
-3.2765
  0
LINE
  8
0
 10
2.38052
 20
-3.2765
 11
1.83865
 21
-3.60857
  0
LINE
  8
0
 10
1.83865
 20
-3.60857
 11
1.25151
 21
-3.85178
  0
LINE
  8
0
 10
1.25151
 20
-3.85178
 11
0.633545
 21
-4.00014
  0
LINE
  8
0
 10
0.633545
 20
-4.00014
 11
0
 21
-4.04999
  0
LINE
  8
0
 10
0
 20
-4.04999
 11
-0.633545
 21
-4.00014
  0
LINE
  8
0
 10
14.686
 20
-37.8441
 11
14.0631
 21
-37.7654
  0
LINE
  8
0
 10
14.0631
 20
-37.7654
 11
13.4549
 21
-37.6093
  0
LINE
  8
0
 10
13.4549
 20
-37.6093
 11
12.8711
 21
-37.3781
  0
LINE
  8
0
 10
12.8711
 20
-37.3781
 11
12.3209
 21
-37.0756
  0
LINE
  8
0
 10
12.3209
 20
-37.0756
 11
11.8129
 21
-36.7065
  0
LINE
  8
0
 10
11.8129
 20
-36.7065
 11
11.3551
 21
-36.2767
  0
LINE
  8
0
 10
11.3551
 20
-36.2767
 11
10.9549
 21
-35.7929
  0
LINE
  8
0
 10
10.9549
 20
-35.7929
 11
10.6185
 21
-35.2627
  0
LINE
  8
0
 10
10.6185
 20
-35.2627
 11
10.3511
 21
-34.6946
  0
LINE
  8
0
 10
10.3511
 20
-34.6946
 11
10.1571
 21
-34.0974
  0
LINE
  8
0
 10
10.1571
 20
-34.0974
 11
10.0394
 21
-33.4806
  0
LINE
  8
0
 10
10.0394
 20
-33.4806
 11
10
 21
-32.854
  0
LINE
  8
0
 10
10
 20
-32.854
 11
10.0394
 21
-32.2273
  0
LINE
  8
0
 10
10.0394
 20
-32.2273
 11
10.1571
 21
-31.6105
  0
LINE
  8
0
 10
10.1571
 20
-31.6105
 11
10.3511
 21
-31.0134
  0
LINE
  8
0
 10
10.3511
 20
-31.0134
 11
10.6185
 21
-30.4452
  0
LINE
  8
0
 10
10.6185
 20
-30.4452
 11
10.9549
 21
-29.9151
  0
LINE
  8
0
 10
10.9549
 20
-29.9151
 11
11.3551
 21
-29.4312
  0
LINE
  8
0
 10
11.3551
 20
-29.4312
 11
11.8129
 21
-29.0014
  0
LINE
  8
0
 10
11.8129
 20
-29.0014
 11
12.3209
 21
-28.6323
  0
LINE
  8
0
 10
12.3209
 20
-28.6323
 11
12.8711
 21
-28.3298
  0
LINE
  8
0
 10
12.8711
 20
-28.3298
 11
13.4549
 21
-28.0987
  0
LINE
  8
0
 10
13.4549
 20
-28.0987
 11
14.0631
 21
-27.9425
  0
LINE
  8
0
 10
14.0631
 20
-27.9425
 11
14.686
 21
-27.8638
  0
LINE
  8
0
 10
14.686
 20
-27.8638
 11
65.3139
 21
-27.8638
  0
LINE
  8
0
 10
65.3139
 20
-27.8638
 11
65.9369
 21
-27.9425
  0
LINE
  8
0
 10
65.9369
 20
-27.9425
 11
66.5451
 21
-28.0987
  0
LINE
  8
0
 10
66.5451
 20
-28.0987
 11
67.1289
 21
-28.3298
  0
LINE
  8
0
 10
67.1289
 20
-28.3298
 11
67.6791
 21
-28.6323
  0
LINE
  8
0
 10
67.6791
 20
-28.6323
 11
68.1871
 21
-29.0014
  0
LINE
  8
0
 10
68.1871
 20
-29.0014
 11
68.6448
 21
-29.4312
  0
LINE
  8
0
 10
68.6448
 20
-29.4312
 11
69.0451
 21
-29.9151
  0
LINE
  8
0
 10
69.0451
 20
-29.9151
 11
69.3815
 21
-30.4452
  0
LINE
  8
0
 10
69.3815
 20
-30.4452
 11
69.6489
 21
-31.0134
  0
LINE
  8
0
 10
69.6489
 20
-31.0134
 11
69.8429
 21
-31.6105
  0
LINE
  8
0
 10
69.8429
 20
-31.6105
 11
69.9606
 21
-32.2273
  0
LINE
  8
0
 10
69.9606
 20
-32.2273
 11
70
 21
-32.854
  0
LINE
  8
0
 10
70
 20
-32.854
 11
69.9606
 21
-33.4806
  0
LINE
  8
0
 10
69.9606
 20
-33.4806
 11
69.8429
 21
-34.0974
  0
LINE
  8
0
 10
69.8429
 20
-34.0974
 11
69.6489
 21
-34.6946
  0
LINE
  8
0
 10
69.6489
 20
-34.6946
 11
69.3815
 21
-35.2627
  0
LINE
  8
0
 10
69.3815
 20
-35.2627
 11
69.0451
 21
-35.7929
  0
LINE
  8
0
 10
69.0451
 20
-35.7929
 11
68.6448
 21
-36.2767
  0
LINE
  8
0
 10
68.6448
 20
-36.2767
 11
68.1871
 21
-36.7065
  0
LINE
  8
0
 10
68.1871
 20
-36.7065
 11
67.6791
 21
-37.0756
  0
LINE
  8
0
 10
67.6791
 20
-37.0756
 11
67.1289
 21
-37.3781
  0
LINE
  8
0
 10
67.1289
 20
-37.3781
 11
66.5451
 21
-37.6093
  0
LINE
  8
0
 10
66.5451
 20
-37.6093
 11
65.9369
 21
-37.7654
  0
LINE
  8
0
 10
65.9369
 20
-37.7654
 11
65.3139
 21
-37.8441
  0
LINE
  8
0
 10
65.3139
 20
-37.8441
 11
14.686
 21
-37.8441
  0
ENDSEC
  0
SECTION
  2
OBJECTS
  0
DICTIONARY
  0
ENDSEC
  0
EOF
