<?xml version="1.0" encoding="UTF-8" standalone="no"?>
<svg
   width="100mm"
   zoomAndPan="magnify"
   viewBox="0 0 283.46456 251.47228"
   height="88.713837mm"
   preserveAspectRatio="xMidYMid"
   version="1.0"
   id="svg9"
   sodipodi:docname="HeartBall.svg"
   inkscape:version="1.4.2 (ebf0e940d0, 2025-05-08)"
   xmlns:inkscape="http://www.inkscape.org/namespaces/inkscape"
   xmlns:sodipodi="http://sodipodi.sourceforge.net/DTD/sodipodi-0.dtd"
   xmlns="http://www.w3.org/2000/svg"
   xmlns:svg="http://www.w3.org/2000/svg">
  <defs
     id="defs9" />
  <sodipodi:namedview
     id="namedview9"
     pagecolor="#ffffff"
     bordercolor="#999999"
     borderopacity="1"
     inkscape:showpageshadow="2"
     inkscape:pageopacity="0"
     inkscape:pagecheckerboard="0"
     inkscape:deskcolor="#d1d1d1"
     inkscape:document-units="mm"
     inkscape:zoom="3.714"
     inkscape:cx="238.69144"
     inkscape:cy="198.03446"
     inkscape:window-width="3840"
     inkscape:window-height="2082"
     inkscape:window-x="0"
     inkscape:window-y="0"
     inkscape:window-maximized="1"
     inkscape:current-layer="svg9" />
  <path
     fill="#010101"
     d="m 282.09815,97.798964 c -3.04449,17.098596 -10.24927,33.273026 -19.57747,47.852576 -11.07143,17.7755 -25.1379,33.41831 -40.02654,47.99786 -19.62691,18.93765 -41.38034,35.79207 -64.92336,49.59273 -4.63938,2.66432 -9.18292,5.66862 -14.16229,7.75186 -2.41705,1.25798 -4.933,-0.24418 -7.10587,-1.30743 C 118.65694,240.67672 102.0776,229.53729 86.848975,216.89571 69.398019,202.94668 53.010318,187.59442 38.653307,170.44946 26.858612,156.40462 16.55989,140.95344 9.1634792,124.14848 1.334349,106.22771 -2.2448582,85.982634 1.4796192,66.609164 5.2010062,47.331519 15.595544,29.123304 31.352712,17.254429 46.194987,5.5833695 65.191369,-0.51797355 84.04557,0.06310645 c 14.647552,-0.14527 29.1962,4.98863705 40.7498,13.99538155 6.6237,4.89282 11.98942,11.188887 16.82352,17.824948 9.66818,-13.899565 23.92938,-25.0884525 40.46235,-29.3012845 14.16229,-3.730659 29.34147,-3.34430305 43.36157,0.676897 20.78599,6.490791 39.3002,21.1661595 49.11365,40.8301655 8.41022,16.464974 10.63563,35.64372 7.54169,53.70975 z m 0,0"
     fill-opacity="1"
     fill-rule="nonzero"
     id="path1"
     style="stroke-width:1" />
  <path
     fill="#010101"
     d="M 31.352712,17.303883 C 46.194987,5.6328235 65.191369,-0.47161055 84.04557,0.10946945 c 14.647552,-0.14527 29.1962,4.94227405 40.7498,13.99847155 6.6237,4.892821 11.98942,11.188888 16.82352,17.821858 9.66818,-13.899565 23.92938,-25.0853615 40.46235,-29.3012845 14.16229,-3.681206 29.34147,-3.34121205 43.36157,0.679987 20.78599,6.487701 39.3002,21.1630695 49.11365,40.8270755 8.41022,16.418611 10.68199,35.597357 7.58805,53.663387 -3.04449,17.098596 -10.24617,33.273026 -19.57746,47.852576 -11.06834,17.7755 -25.13791,33.41831 -40.02655,47.99786 -19.67327,18.93765 -41.37725,35.79207 -64.92027,49.59273 -4.64246,2.66432 -9.18602,5.66862 -14.16538,7.75186 -2.41705,1.25798 -4.92991,-0.24418 -7.10587,-1.30743 C 118.70639,240.67672 102.12397,229.53729 86.848975,216.89571 69.398019,202.94668 53.010318,187.59442 38.653307,170.44946 26.858612,156.40462 16.55989,140.95344 9.1634792,124.19485 1.334349,106.27408 -2.2448582,86.028994 1.4796192,66.658624 5.2010062,47.430426 15.641906,29.219121 31.352712,17.303883 Z M 214.95246,10.667822 c -0.0958,1.211615 -1.30434,2.908493 0.0495,3.87593 9.56928,8.138216 17.69203,17.871311 24.55682,28.333848 l -0.0989,0.676897 c 7.59113,2.954855 15.66445,-0.339994 23.30194,-1.403248 -1.74015,-4.117016 -5.07518,-7.266595 -8.02385,-10.51199 -5.12464,-5.084453 -10.68508,-10.07309 -17.4046,-12.929038 -6.71951,-4.070653 -14.45282,-7.411865 -22.38086,-8.042399 z M 20.961265,41.084905 c 7.152233,2.083235 14.693914,3.777023 22.186141,3.195942 1.644334,-1.937965 2.370685,-4.503373 3.869748,-6.586607 5.266813,-7.798222 12.227414,-14.23956 18.415302,-21.261977 1.499063,-1.502155 1.984327,-3.535936 2.080143,-5.61917 -0.822166,0.04945 -2.512863,0.194723 -3.33503,0.244176 C 46.772976,15.464826 31.062172,26.214812 20.961265,41.084905 Z M 70.411819,20.404009 c -6.911146,6.731877 -13.099034,14.239559 -18.560571,22.183051 -1.162161,1.937964 -3.047581,3.971746 -2.32123,6.391881 2.32123,12.737403 5.461536,25.378993 7.396411,38.165853 0.336902,1.01689 -0.09891,2.76013 1.208523,3.19594 11.986327,4.64864 23.929387,9.49201 35.96516,13.998476 1.11271,0.24108 2.4665,1.06325 3.52976,0.19162 8.314388,-5.810796 16.387698,-12.057406 24.797908,-17.871296 5.22045,-3.68121 11.06834,-6.39189 16.09716,-10.31418 -0.0495,-9.30038 -0.24108,-18.647118 -1.15907,-27.898035 C 135.52681,40.989089 131.6138,34.158304 126.7797,28.20223 123.10467,23.649404 118.65694,19.146032 112.80904,17.693331 98.788932,14.012125 84.091938,16.868073 70.411819,20.404009 Z m 94.750091,-0.630534 c -2.8034,1.406338 -4.88355,3.925383 -6.9606,6.200251 -6.28679,6.972964 -10.83035,15.40172 -13.39266,24.411558 -1.0138,3.001219 -0.43581,6.197159 -0.29055,9.297286 0.63054,5.764434 0.34,11.575234 0.77581,17.339684 7.53859,4.69809 15.56554,8.76565 22.71777,14.1901 6.52788,4.31174 12.18414,9.927816 19.14474,13.513206 2.17596,-0.19473 4.10775,-1.25798 6.13843,-1.98433 11.07144,-4.311726 22.18923,-8.574016 33.25758,-12.885756 1.1127,-9.97728 2.95176,-19.80928 5.31936,-29.591828 0.82216,-4.79391 2.4665,-9.587827 2.41705,-14.480645 C 227.66513,36.532079 220.414,27.62115 212.29432,19.628204 196.77515,16.382809 180.34109,14.543752 165.16191,19.773475 Z m 26.24752,90.472345 c -1.1127,0.48527 -2.41705,0.67999 -3.33502,1.55161 -3.43085,16.31971 -10.00509,31.72142 -15.85609,47.22205 6.09208,7.02242 11.74834,14.38483 18.03205,21.26198 2.8034,3.05067 5.65625,6.20025 9.23237,8.28039 3.52975,0.72635 6.91424,-1.01688 10.29563,-1.83906 3.4803,-1.21161 7.59113,-1.26106 10.39454,-4.02119 7.44587,-6.73188 14.35701,-14.09429 20.59436,-21.93888 9.03764,-11.04361 17.06459,-23.00522 23.29884,-35.84153 -4.06138,-0.82216 -7.39641,-3.29175 -10.4409,-5.90662 -5.12464,-3.92538 -9.18602,-9.00983 -14.16538,-13.07739 -1.98123,-3.00432 -5.36572,-4.89283 -7.73331,-7.603496 -1.15907,-0.87162 -2.08015,-3.10013 -3.8203,-2.27796 -12.32631,4.407556 -24.21683,9.736176 -36.49679,14.190096 z m -158.848195,7.75186 c -3.77084,3.48648 -8.604934,5.37499 -13.439028,6.92351 6.187887,13.46376 14.888638,25.66954 24.074653,37.19841 2.75395,3.1465 5.124634,6.8277 8.555481,9.25093 1.257977,2.71068 3.579208,4.74446 5.560444,6.92351 3.140306,3.14958 6.187888,6.54024 9.958727,8.96038 5.025728,1.7927 10.586173,1.35689 15.85608,1.55161 2.849764,0.38636 4.688823,-2.13269 6.475334,-3.92538 7.445856,-8.42567 14.502274,-17.14496 21.608144,-25.86117 -5.46153,-14.77118 -11.649418,-29.35074 -15.420258,-44.65664 -0.38636,-1.06326 -0.38636,-2.71068 -1.78651,-2.9054 C 80.710543,106.85516 67.948409,100.94854 54.799922,96.006274 46.726614,102.59596 40.15237,110.92581 32.561235,117.99768 Z m 63.520117,68.82094 c -2.07705,1.88851 -4.10775,3.82646 -6.187884,5.66862 3.625574,7.9404 8.314394,15.40171 12.570492,23.00522 1.35379,2.46958 4.01193,3.6812 6.33006,5.03499 5.90045,3.14958 11.74834,6.44134 17.54987,9.83201 4.06138,2.46958 8.99129,1.74324 13.53484,2.03378 5.51099,0.0494 11.26308,0.67999 16.6288,-0.96744 6.23734,-2.37377 11.45778,-6.63606 17.01514,-10.21836 3.57921,-2.66431 7.83222,-4.79701 10.10399,-8.81511 4.06139,-6.58661 8.36386,-13.22267 10.15345,-20.82616 -3.48338,-2.95486 -6.76896,-6.20026 -10.10399,-9.30038 -4.88355,-5.18027 -9.57237,-10.55836 -13.92429,-16.22389 -0.96435,-1.01689 -1.83597,-2.66431 -3.43085,-2.42323 -16.7246,-0.19163 -33.40284,-0.0958 -50.13054,-0.19163 -6.67006,7.84458 -12.90431,16.02916 -20.109088,23.39158 z m 0,0"
     fill-opacity="1"
     fill-rule="nonzero"
     id="path2"
     style="stroke-width:1" />
  <path
     fill="#ffffff"
     d="m 215.00192,14.543752 c 9.56928,8.138216 17.69203,17.871311 24.55682,28.333848 l -0.0989,0.676897 c 7.59113,2.954855 15.66445,-0.339994 23.30194,-1.403248 -1.74015,-4.117016 -5.07518,-7.266595 -8.02385,-10.51199 -5.12464,-5.084453 -10.68508,-10.07309 -17.4046,-12.929038 -6.71951,-4.070653 -14.45282,-7.411865 -22.38086,-8.042399 -0.0958,1.261068 -1.30434,2.908493 0.0495,3.87593 z m 0,0"
     fill-opacity="1"
     fill-rule="nonzero"
     id="path3"
     style="stroke-width:1" />
  <path
     fill="#ffffff"
     d="m 43.147406,44.280847 c 1.644334,-1.937965 2.370685,-4.503373 3.869748,-6.586607 5.266813,-7.798222 12.227414,-14.23956 18.415302,-21.261977 1.499063,-1.502155 1.984327,-3.535936 2.080143,-5.61917 -0.822166,0.04945 -2.512863,0.194723 -3.33503,0.244176 -17.355139,4.407557 -33.065943,15.157543 -43.169942,30.027636 7.105871,2.083235 14.60119,3.777023 22.139779,3.195942 z m 0,0"
     fill-opacity="1"
     fill-rule="nonzero"
     id="path4"
     style="stroke-width:1" />
  <path
     fill="#ffffff"
     d="m 49.530018,48.978941 c 2.32123,12.737403 5.461536,25.378993 7.396411,38.165853 0.336902,1.01689 -0.09891,2.76013 1.208523,3.19594 11.986327,4.64864 23.929387,9.49201 35.96516,13.998476 1.11271,0.24108 2.4665,1.06325 3.52976,0.19162 8.314388,-5.810796 16.387698,-12.057406 24.797908,-17.871296 5.22045,-3.68121 11.06834,-6.39189 16.09716,-10.31418 -0.0495,-9.30038 -0.24108,-18.647118 -1.15907,-27.898035 -1.83906,-7.45823 -5.75207,-14.289015 -10.58617,-20.245089 -3.67503,-4.552826 -8.12276,-9.056198 -13.97066,-10.508899 -13.970648,-3.73066 -28.667648,-0.921074 -42.347767,2.614862 -6.914238,6.731877 -13.099034,14.239558 -18.563662,22.17996 -1.208524,2.083234 -3.093944,4.070653 -2.367593,6.490788 z m 0,0"
     fill-opacity="1"
     fill-rule="nonzero"
     id="path5"
     style="stroke-width:1" />
  <path
     fill="#ffffff"
     d="m 145.24445,76.972794 c 7.54169,4.6981 15.56554,8.76566 22.72086,14.19011 6.5248,4.31174 12.18106,9.930906 19.14166,13.513206 2.17596,-0.19164 4.11083,-1.25798 6.14152,-1.98433 11.06834,-4.311736 22.18614,-8.574016 33.25758,-12.882676 1.11271,-9.97727 2.94867,-19.80927 5.31626,-29.591818 0.82217,-4.797003 2.46651,-9.590921 2.41705,-14.483738 -6.6206,-9.250923 -13.87174,-18.161852 -21.99451,-26.151706 -15.42026,-3.199033 -31.85742,-4.988637 -47.0366,0.191633 -2.8034,1.406338 -4.88045,3.925383 -6.9606,6.200251 -6.2837,6.972964 -10.82725,15.40172 -13.38957,24.411558 -1.01689,3.001219 -0.43581,6.197159 -0.29054,9.297286 0.53163,5.714984 0.24109,11.528874 0.67689,17.290224 z m 0,0"
     fill-opacity="1"
     fill-rule="nonzero"
     id="path6"
     style="stroke-width:1" />
  <path
     fill="#ffffff"
     d="m 95.744452,114.36284 c -0.38636,-1.06326 -0.38636,-2.71068 -1.78961,-2.9054 -13.293753,-4.60228 -26.055886,-10.5089 -39.204374,-15.451166 -8.023854,6.589686 -14.551735,14.919536 -22.189233,21.991406 -3.77084,3.48648 -8.604934,5.37499 -13.439028,6.92351 6.187887,13.46376 14.888638,25.66954 24.074653,37.19841 2.75395,3.1465 5.124634,6.8277 8.555481,9.25093 1.257977,2.71068 3.579208,4.74446 5.560444,6.92351 3.140306,3.14958 6.187888,6.54024 9.958727,8.96038 5.025728,1.7927 10.586173,1.35689 15.85608,1.55161 2.849764,0.38636 4.688823,-2.13269 6.475334,-3.92538 7.445856,-8.42567 14.502274,-17.14496 21.608144,-25.86117 -5.5079,-14.72482 -11.649418,-29.35074 -15.466618,-44.65664 z m 0,0"
     fill-opacity="1"
     fill-rule="nonzero"
     id="path7"
     style="stroke-width:1" />
  <path
     fill="#ffffff"
     d="m 169.75183,166.09135 c -0.96435,-1.01998 -1.83597,-2.66431 -3.43085,-2.42323 -16.7246,-0.19472 -33.40284,-0.0958 -50.13054,-0.19472 -6.62061,7.79822 -12.90431,16.03226 -20.059638,23.34522 -2.08014,1.88851 -4.11083,3.82646 -6.18788,5.66862 3.62557,7.9404 8.31439,15.40171 12.567408,23.00522 1.35379,2.46958 4.01192,3.6812 6.33315,5.03499 5.89735,3.14958 11.74833,6.44134 17.54678,9.83201 4.06138,2.46958 8.99129,1.74324 13.53793,2.03378 5.51099,0.0494 11.26307,0.67999 16.62879,-0.96744 6.23425,-2.37377 11.4547,-6.63606 17.01514,-10.21836 3.57612,-2.66431 7.83222,-4.79701 10.104,-8.81511 4.06138,-6.58661 8.36385,-13.22267 10.15036,-20.82616 -3.4803,-2.95486 -6.76587,-6.20026 -10.104,-9.30038 -4.92991,-5.13391 -9.61873,-10.55836 -13.97065,-16.17444 z m 0,0"
     fill-opacity="1"
     fill-rule="nonzero"
     id="path8"
     style="stroke-width:1" />
  <path
     fill="#ffffff"
     d="m 239.41347,105.93718 c -1.98433,-3.00432 -5.36572,-4.89283 -7.7364,-7.603496 -1.15908,-0.87162 -2.07706,-3.10013 -3.81721,-2.27796 -12.27995,4.407556 -24.21992,9.736176 -36.49679,14.190096 -1.1127,0.48527 -2.41705,0.67999 -3.33812,1.55161 -3.43085,16.31971 -10.00509,31.72142 -15.85608,47.22205 6.09207,7.02242 11.74834,14.38483 18.03204,21.26198 2.80341,3.05067 5.65626,6.20025 9.23238,8.28039 3.52975,0.72635 6.91424,-1.01688 10.29872,-1.83906 3.4803,-1.21161 7.58804,-1.26106 10.39144,-4.02119 7.44587,-6.73188 14.35701,-14.09429 20.59436,-21.93888 9.04075,-11.04361 17.0646,-23.00522 23.29885,-35.84153 -4.05829,-0.82216 -7.39332,-3.29175 -10.4409,-5.90662 -5.07519,-3.92538 -9.13657,-9.00983 -14.16229,-13.07739 z m 0,0"
     fill-opacity="1"
     fill-rule="nonzero"
     id="path9"
     style="stroke-width:1" />
</svg>
