<?xml version="1.0" encoding="UTF-8" standalone="no"?>
<svg
   width="100mm"
   zoomAndPan="magnify"
   viewBox="0 0 283.46456 251.47228"
   height="88.713837mm"
   preserveAspectRatio="xMidYMid"
   version="1.0"
   id="svg9"
   sodipodi:docname="HeartBall_Frame.svg"
   inkscape:version="1.4.2 (ebf0e940d0, 2025-05-08)"
   xmlns:inkscape="http://www.inkscape.org/namespaces/inkscape"
   xmlns:sodipodi="http://sodipodi.sourceforge.net/DTD/sodipodi-0.dtd"
   xmlns="http://www.w3.org/2000/svg"
   xmlns:svg="http://www.w3.org/2000/svg">
  <defs
     id="defs9" />
  <sodipodi:namedview
     id="namedview9"
     pagecolor="#ffffff"
     bordercolor="#999999"
     borderopacity="1"
     inkscape:showpageshadow="2"
     inkscape:pageopacity="0"
     inkscape:pagecheckerboard="0"
     inkscape:deskcolor="#d1d1d1"
     inkscape:document-units="mm"
     inkscape:zoom="3.714"
     inkscape:cx="238.69144"
     inkscape:cy="198.03446"
     inkscape:window-width="3840"
     inkscape:window-height="2082"
     inkscape:window-x="0"
     inkscape:window-y="0"
     inkscape:window-maximized="1"
     inkscape:current-layer="svg9" />
  <path
     id="path1"
     style="stroke-width:1"
     d="M 203.81542 0.013183593 C 196.49783 -0.11972303 189.16268 0.71718994 182.08154 2.5825194 C 165.54857 6.7953514 151.28634 17.984223 141.61816 31.883788 C 136.78406 25.247727 131.41959 18.950925 124.79589 14.058105 C 113.24229 5.0513605 98.692959 -0.082281721 84.045407 0.062988279 C 65.191206 -0.51809172 46.194325 5.5833344 31.35205 17.254394 C 15.594882 29.123269 5.2008791 47.331728 1.4794921 66.609373 C -2.2449853 85.982843 1.334932 106.22766 9.1640622 124.14843 C 16.560473 140.95339 26.858136 156.40437 38.652831 170.44921 C 53.009842 187.59417 69.398162 202.94598 86.849118 216.89501 C 102.07774 229.53659 118.65656 240.67716 136.30224 249.687 C 138.47511 250.75025 140.99115 252.25162 143.4082 250.99364 C 148.38757 248.9104 152.93093 245.90601 157.57031 243.24169 C 181.11333 229.44103 202.86673 212.58706 222.49364 193.64941 C 237.38228 179.06986 251.44907 163.42637 262.5205 145.65087 C 271.8487 131.07132 279.05364 114.89742 282.09813 97.798825 C 285.19207 79.732795 282.96734 60.55384 274.55712 44.088866 C 264.74367 24.42486 246.22836 9.7500682 225.44237 3.2592772 C 218.43232 1.2486772 211.13302 0.14609021 203.81542 0.013183593 z M 214.95263 10.668457 C 222.88067 11.298991 230.61447 14.639796 237.33398 18.710449 C 244.0535 21.566397 249.61314 26.554706 254.73778 31.639159 C 257.68645 34.884554 261.02205 38.033861 262.7622 42.150877 C 255.12471 43.214131 247.05059 46.509053 239.45946 43.554198 L 239.55907 42.87744 C 232.69428 32.414903 224.57171 22.682649 215.00243 14.544433 C 213.64859 13.576996 214.85683 11.929525 214.95263 10.668457 z M 67.513181 10.813476 C 67.417365 12.89671 66.932166 14.930462 65.433103 16.432617 C 59.245215 23.455034 52.283901 29.896601 47.017088 37.694823 C 45.518025 39.778057 44.791305 42.342795 43.146971 44.28076 C 35.608382 44.861841 28.113194 43.167706 21.007323 41.084471 C 31.111322 26.214378 46.822593 15.464197 64.177732 11.05664 C 64.999899 11.007187 66.691015 10.862926 67.513181 10.813476 z M 96.877438 15.949218 C 102.22879 15.815364 107.57008 16.29485 112.80908 17.693847 C 118.65698 19.146548 123.10426 23.64981 126.77929 28.202636 C 131.61339 34.15871 135.52666 40.988546 137.36572 48.446776 C 138.28371 57.697693 138.47491 67.044344 138.52441 76.344724 C 133.49559 80.267014 127.64769 82.978943 122.42724 86.660153 C 114.01703 92.474043 105.94476 98.72045 97.630368 104.53125 C 96.567108 105.40288 95.212804 104.58043 94.100094 104.33935 C 82.064321 99.832886 70.121579 94.989945 58.135252 90.341305 C 56.827819 89.905495 57.263658 88.161906 56.926756 87.145016 C 54.991881 74.358156 51.850525 61.715917 49.529295 48.978514 C 48.802944 46.558379 50.689423 44.571025 51.897947 42.487791 C 57.362575 34.547389 63.547674 27.04047 70.461912 20.308593 C 79.011986 18.098633 87.958519 16.172309 96.877438 15.949218 z M 188.63671 16.535156 C 196.57093 16.734902 204.53547 17.982514 212.2456 19.582031 C 220.36837 27.571885 227.61816 36.482962 234.23876 45.733885 C 234.28822 50.626702 232.64394 55.419792 231.82177 60.216795 C 229.45418 69.999343 227.61856 79.832297 226.50585 89.809567 C 215.43441 94.118227 204.31638 98.379667 193.24804 102.6914 C 191.21735 103.41775 189.28338 104.48463 187.10742 104.67627 C 180.14682 101.09397 174.48964 95.474823 167.96484 91.163083 C 160.80952 85.738633 152.7868 81.671242 145.24511 76.973142 C 144.80931 71.211792 145.09852 65.397111 144.56689 59.682127 C 144.42162 56.582 143.8415 53.385983 144.85839 50.384764 C 147.42071 41.374926 151.96336 32.946108 158.24706 25.973144 C 160.32721 23.698276 162.4046 21.180263 165.208 19.773925 C 172.79759 17.18379 180.70249 16.335409 188.63671 16.535156 z M 228.61962 95.87695 C 229.89299 95.896829 230.69878 97.598063 231.67675 98.333493 C 234.04743 101.04416 237.42972 102.93318 239.41405 105.9375 C 244.43977 110.00506 248.50097 115.08878 253.57616 119.01416 C 256.62374 121.62903 259.95781 124.09971 264.0161 124.92187 C 257.78185 137.75818 249.75851 149.71859 240.71776 160.7622 C 234.48041 168.60679 227.5694 175.96929 220.12353 182.70117 C 217.32013 185.4613 213.21223 185.51055 209.73193 186.72216 C 206.34745 187.54434 202.96236 189.28835 199.43261 188.562 C 195.85649 186.48186 193.00458 183.33191 190.20117 180.28124 C 183.91747 173.40409 178.26101 166.04146 172.16894 159.01904 C 178.01993 143.51841 184.59356 128.11658 188.02441 111.79687 C 188.94548 110.92525 190.25009 110.73087 191.36279 110.2456 C 203.63966 105.79168 215.57942 100.46322 227.85937 96.055661 C 228.13127 95.927197 228.38381 95.873268 228.61962 95.87695 z M 54.749998 96.005856 C 67.898486 100.94812 80.661322 106.85475 93.955075 111.45703 C 95.358325 111.65175 95.358754 113.30002 95.745114 114.36328 C 99.562314 129.66918 105.70303 144.29422 111.21093 159.01904 C 104.10506 167.73525 97.04888 176.45518 89.603024 184.88085 C 87.816513 186.67354 85.976714 189.19299 83.12695 188.80663 C 77.857043 188.61191 72.29721 189.0466 67.271482 187.2539 C 63.500643 184.83376 60.45378 181.44303 57.313474 178.29345 C 55.332238 176.1144 53.010905 174.08128 51.752928 171.3706 C 48.322081 168.94737 45.950726 165.26661 43.196776 162.12011 C 34.010761 150.59124 25.309957 138.38563 19.12207 124.92187 C 23.956164 123.37335 28.789706 121.48403 32.560546 117.99755 C 40.198044 110.92568 46.726144 102.59554 54.749998 96.005856 z M 116.18994 163.47363 C 132.91764 163.57255 149.59668 163.47373 166.32128 163.66845 C 167.91616 163.42737 168.7876 165.07132 169.75195 166.0913 C 174.10387 171.70738 178.79225 177.1322 183.72216 182.26611 C 187.06029 185.36623 190.34635 188.61154 193.82665 191.5664 C 192.04014 199.16989 187.73813 205.80547 183.67675 212.39208 C 181.40497 216.41018 177.14838 218.5432 173.57226 221.20751 C 168.01182 224.78981 162.79088 229.05249 156.55663 231.42626 C 151.19091 233.07369 145.43872 232.44246 139.92773 232.39306 C 135.38109 232.10252 130.45102 232.82943 126.38964 230.35985 C 120.59119 226.96918 114.7411 223.6774 108.84375 220.52782 C 106.52252 219.17403 103.86355 217.96274 102.50976 215.49316 C 98.256744 207.88965 93.568438 200.42819 89.942868 192.48779 C 92.019918 190.64563 94.050228 188.70735 96.130368 186.81884 C 103.2857 179.50588 109.56933 171.27185 116.18994 163.47363 z " />
</svg>
