<?xml version="1.0" encoding="UTF-8" standalone="no"?>
<svg
   width="100mm"
   zoomAndPan="magnify"
   viewBox="0 0 283.46456 283.46456"
   height="100mm"
   preserveAspectRatio="xMidYMid"
   version="1.0"
   id="svg3"
   sodipodi:docname="RoundBall_Fields.svg"
   inkscape:version="1.4.2 (ebf0e940d0, 2025-05-08)"
   xmlns:inkscape="http://www.inkscape.org/namespaces/inkscape"
   xmlns:sodipodi="http://sodipodi.sourceforge.net/DTD/sodipodi-0.dtd"
   xmlns="http://www.w3.org/2000/svg"
   xmlns:svg="http://www.w3.org/2000/svg">
  <sodipodi:namedview
     id="namedview3"
     pagecolor="#ffffff"
     bordercolor="#999999"
     borderopacity="1"
     inkscape:showpageshadow="2"
     inkscape:pageopacity="0"
     inkscape:pagecheckerboard="0"
     inkscape:deskcolor="#d1d1d1"
     inkscape:zoom="3.714"
     inkscape:cx="234.92192"
     inkscape:cy="226.84437"
     inkscape:window-width="3840"
     inkscape:window-height="2082"
     inkscape:window-x="0"
     inkscape:window-y="0"
     inkscape:window-maximized="1"
     inkscape:current-layer="svg3"
     inkscape:document-units="mm" />
  <defs
     id="defs1">
    <clipPath
       clipPathUnits="userSpaceOnUse"
       id="clipPath5">
      <path
         d="M 5.542969,5.542969 H 369.29297 V 369.29297 H 5.542969 Z m 0,0"
         clip-rule="nonzero"
         id="path5"
         style="stroke-width:0.999997" />
    </clipPath>
  </defs>
  <path
     id="path2"
     style="stroke-width:0.999994"
     d="M 133.30517 8.8798825 C 132.82097 8.8581698 132.27709 8.8833352 131.61474 8.9077146 L 128.33496 9.2460935 C 122.90825 9.7854865 117.53875 10.65711 112.22168 11.860839 C 106.90765 13.064569 101.6849 14.591507 96.556638 16.444335 C 91.431418 18.297164 86.43731 20.457745 81.580076 22.929198 C 76.719801 25.397605 72.030807 28.160962 67.514646 31.211425 C 67.121804 31.473503 66.746446 31.751205 66.338377 31.998046 C 65.619688 32.455158 65.585998 32.896202 66.304685 33.383788 C 67.586752 34.298013 68.775507 35.321927 69.86572 36.455565 C 70.733627 37.336268 71.237796 38.858288 72.446775 39.038085 C 73.63748 39.22093 74.715528 38.142048 75.842283 37.599608 C 84.710159 33.381985 94.117929 31.095656 103.83545 30.035155 C 108.3577 29.544522 112.88282 29.021192 117.42334 29.673339 C 117.95627 29.78 118.48575 29.770568 119.01562 29.642577 C 119.54245 29.514585 120.02056 29.279298 120.44384 28.937987 C 126.56488 24.260205 133.09715 20.250005 140.04345 16.913085 C 141.38033 16.257891 142.73555 15.654775 144.09375 15.048339 C 145.02254 14.624749 144.859 14.231208 144.10986 13.807617 C 141.06762 12.012689 137.91186 10.455879 134.63818 9.1333005 C 134.21336 8.9702637 133.78937 8.9015952 133.30517 8.8798825 z M 154.77246 17.988281 C 154.07599 17.982567 153.39639 18.118134 152.73632 18.396972 C 143.16499 22.163577 133.97798 26.701049 125.16796 32.012694 C 123.71536 32.87816 123.72954 32.927859 124.26855 34.643554 C 125.52016 38.690521 126.78517 42.733287 128.0581 46.768065 C 129.1879 50.525528 130.58213 54.180599 132.23877 57.733885 C 133.1219 59.562334 134.41048 61.232287 134.96777 63.194822 C 135.37584 64.599681 136.15812 65.153618 137.56201 65.449217 C 151.18966 68.478348 164.11422 73.369367 176.33496 80.125486 C 180.19029 82.216015 183.9598 84.455455 187.7329 86.69531 C 187.89735 86.82635 188.07989 86.924307 188.27783 86.988278 C 188.47882 87.055347 188.68293 87.082367 188.89306 87.073239 C 189.10318 87.064096 189.30766 87.01929 189.49951 86.937009 C 189.6944 86.854728 189.86726 86.741976 190.01953 86.5957 C 198.29662 80.418589 207.47532 75.874557 216.83349 71.626463 C 217.406 71.361337 217.99388 71.133439 218.5664 70.889646 C 219.07193 70.676327 219.26717 70.282695 219.13622 69.499509 C 219.0875 69.28619 218.95682 68.828692 218.85937 68.37158 C 216.9652 59.448748 213.79501 50.934599 210.67968 42.389647 C 209.58338 39.433654 208.29209 36.979892 205.00927 36.147948 C 204.71692 36.03824 204.44306 35.892922 204.19335 35.70703 C 200.28929 33.369663 196.25422 31.275994 192.15527 29.301269 C 180.51314 23.639171 168.28564 19.887749 155.47412 18.041015 C 155.23811 18.007493 155.00461 17.990185 154.77246 17.988281 z M 221.93115 35.746581 C 221.81209 35.75165 221.68504 35.779119 221.55029 35.837401 C 219.95151 36.474311 218.31909 37.001702 216.65331 37.425292 C 215.99858 37.605089 216.08157 38.044016 216.32519 38.52246 C 216.58708 38.994809 216.83303 39.48495 217.07665 39.975585 C 221.05684 47.853153 223.92929 56.118035 225.70165 64.766599 C 225.91482 66.211075 226.40506 67.558898 227.16943 68.802244 C 227.93684 70.045589 228.91708 71.084205 230.11083 71.925291 C 237.62051 77.581292 243.59807 84.739891 248.44921 92.812497 C 251.80511 98.224707 254.48617 103.95637 256.48388 110.00244 C 256.85845 111.19702 257.44815 111.57153 258.67235 111.48925 C 260.45384 111.37343 262.26626 111.45556 264.06298 111.45556 L 264.06298 111.31054 L 265.23778 111.31054 C 266.25186 111.34407 267.27937 111.35903 268.29345 111.39257 C 271.42705 111.49009 271.42647 111.49008 270.6621 108.54931 C 263.67012 81.84482 249.70786 59.436215 229.01513 41.230956 C 227.13923 39.579257 225.16321 38.029379 223.21728 36.45996 C 222.83128 36.140553 222.44706 35.724616 221.93115 35.746581 z M 60.650389 36.355956 C 60.231227 36.377725 59.734984 36.850355 58.564451 37.800292 C 36.111548 56.093926 21.019351 79.19652 13.293457 107.11084 C 12.57477 109.756 12.0013 112.43741 11.349609 115.11914 C 11.154711 115.8688 11.563522 116.29574 12.102539 116.7041 C 12.739004 117.16121 13.340765 117.66659 13.946777 118.15722 C 15.792221 119.71141 15.762506 119.69404 16.937988 117.60351 C 25.297301 102.63461 36.649649 90.57276 51.525877 81.927243 C 51.915674 81.744395 52.232938 81.475076 52.476561 81.121579 C 52.72323 80.768075 52.863361 80.374874 52.899901 79.94824 C 53.128297 77.525544 53.48785 75.124291 53.975096 72.741209 C 56.347375 62.337332 60.330867 52.588738 65.93115 43.504393 C 66.052962 43.35507 66.144056 43.190656 66.208006 43.007811 C 66.268915 42.828014 66.296118 42.638763 66.290037 42.446776 C 66.283947 42.254789 66.244471 42.069815 66.171385 41.893065 C 66.098298 41.713267 65.997645 41.554242 65.866697 41.414061 C 64.886115 40.182905 63.810386 39.03792 62.644041 37.980468 C 61.50025 36.886065 61.125438 36.331284 60.650389 36.355956 z M 135.28418 71.682127 C 134.29544 71.655134 133.42399 71.980627 132.62841 73.003416 C 132.29953 73.341679 131.94313 73.640871 131.55029 73.8999 C 120.08478 82.938536 108.21109 91.38936 95.588376 98.727536 C 94.199725 99.544247 93.824622 100.42426 93.903806 101.92968 C 94.019544 104.26705 93.940615 106.63458 93.937497 108.99023 C 94.031898 112.66846 94.233321 116.34373 94.543942 120.02197 C 95.554974 132.93691 97.401199 145.73388 100.08105 158.41113 C 100.17241 159.0267 100.41882 159.57197 100.8208 160.04736 C 101.22582 160.52276 101.72415 160.85463 102.31494 161.04052 C 109.94034 164.34087 117.58409 167.57756 125.50488 170.09472 C 131.16912 171.91098 136.93475 173.42789 142.6538 175.07958 C 143.09537 175.25314 143.55141 175.3146 144.02343 175.25976 C 144.49545 175.20491 144.92563 175.04025 145.31543 174.76904 C 147.50498 173.26666 149.80721 171.91085 152.03027 170.43896 C 165.3869 161.54964 177.52142 151.18509 189.0996 140.07421 C 191.48406 137.78561 192.3496 135.39957 192.40136 132.26074 C 192.55058 124.8799 192.20363 117.52079 191.354 110.18261 C 190.88198 106.12955 190.3099 102.10999 189.60644 98.087399 C 189.50899 97.234123 189.2285 96.441217 188.76562 95.712888 C 188.30578 94.984558 187.70791 94.393139 186.97704 93.936032 C 184.13579 92.089297 181.13089 90.587803 178.15869 88.98486 C 165.07918 81.960565 151.52072 76.060669 137.19873 72.038084 C 136.5124 71.841525 135.87742 71.698322 135.28418 71.682127 z M 56.622068 86.043454 C 56.066393 86.039525 55.581004 86.29225 55.019529 86.762693 C 53.353757 88.185836 51.589686 89.49375 49.792967 90.767575 C 36.762183 100.09875 26.637099 111.99487 18.600585 125.79052 C 18.125521 126.52495 17.873483 127.33291 17.849121 128.20752 C 17.867394 131.26407 17.849121 134.32088 17.849121 137.37744 C 17.751671 142.00036 18.047111 146.61182 18.388183 151.23779 L 18.391113 151.23779 C 18.668234 154.9465 20.007193 158.41102 20.692382 162.01611 C 21.621195 166.63294 22.834122 171.17041 24.335448 175.63183 C 24.600389 176.56434 25.154385 177.26885 26.000976 177.74121 C 36.942693 184.41809 48.466186 189.85436 60.574217 194.0537 C 63.726089 195.13249 63.186844 195.71996 65.866697 192.62988 C 74.606672 182.47284 83.370476 172.33421 92.159177 162.21679 C 92.500249 161.89986 92.728771 161.51352 92.850583 161.06249 C 92.972426 160.61148 92.964072 160.16269 92.830075 159.71777 C 90.771465 151.00826 89.230245 142.21047 88.207028 133.32421 C 87.077226 123.97474 86.148582 114.60975 86.50488 105.19629 C 86.620603 102.48409 85.90144 101.14314 83.583982 99.738278 C 75.255116 94.673472 66.51819 90.456528 57.72949 86.336423 C 57.313809 86.141007 56.955474 86.045812 56.622068 86.043454 z M 258.61083 118.21582 C 257.23274 118.28881 257.11108 118.89685 256.58349 121.25097 C 254.60709 129.92697 251.1942 138.09916 247.5703 146.18701 C 245.85581 150.04503 244.09234 153.91873 241.47948 157.28613 C 241.24805 157.60001 241.0955 157.9511 241.02245 158.33203 C 240.94635 158.716 240.95881 159.09672 241.05321 159.4746 C 241.47955 162.50068 241.95071 165.53876 242.19433 168.58007 C 243.3424 181.92471 242.79222 195.19886 240.54784 208.40331 C 240.3499 209.56438 240.69373 210.08826 241.67431 210.60937 C 244.41202 212.00813 246.93055 213.72408 249.23583 215.75976 C 251.42235 217.68573 251.4219 217.68652 252.99023 215.28515 C 267.46143 192.99331 274.74532 168.5593 274.84276 141.98584 C 274.89453 134.99202 274.37169 128.04081 273.27538 121.13232 C 272.96476 119.10579 272.96376 119.10465 270.79247 118.96142 C 267.34521 118.73286 263.91698 118.4892 260.46972 118.27588 C 259.66957 118.22636 259.07019 118.19148 258.61083 118.21582 z M 195.96533 143.26171 C 195.04139 143.23121 194.56805 143.7756 193.25097 145.31835 C 189.16724 150.0906 184.77921 154.56441 180.08642 158.73632 C 171.36167 166.54075 161.93882 173.39168 151.81933 179.27929 C 150.84176 179.8522 150.54955 180.40761 150.7749 181.53515 C 151.24388 183.92737 151.49983 186.34099 151.54248 188.77587 C 151.73737 200.23111 151.3106 211.65532 148.92919 222.91552 C 148.6673 224.14363 148.9789 224.69854 150.02343 225.33544 C 156.08356 228.94663 162.32332 232.21559 168.73974 235.14111 C 175.87485 238.40793 183.22014 241.10593 190.77245 243.22997 C 191.73477 243.50729 192.58367 243.7684 193.64648 243.06445 C 202.10628 237.65528 210.11861 231.64634 217.6831 225.03954 C 222.89359 220.39833 228.02149 215.67438 232.62597 210.41454 C 233.27461 209.8142 233.67071 209.08005 233.81689 208.20849 C 234.92537 198.15507 235.79392 188.08931 235.61425 177.95361 C 235.41631 172.15437 235.15741 166.35295 235.07519 160.56591 C 235.03864 158.53938 234.27131 157.54214 232.41064 156.79248 C 221.16134 152.24878 210.07271 147.27904 198.39404 143.84765 C 197.23607 143.50596 196.51969 143.28002 195.96533 143.26171 z M 25.360839 185.35839 C 24.773099 185.47419 24.55787 185.96504 24.332519 186.45263 C 23.07786 189.14959 22.112108 191.96323 21.101074 194.77294 C 20.854408 195.39462 20.756569 196.04074 20.802245 196.70507 C 20.847925 197.37246 21.03439 197.99655 21.363281 198.57861 C 23.558932 203.18325 25.98895 207.65401 28.659667 211.99658 C 31.908989 217.25641 35.504478 222.26311 39.451171 227.01708 C 43.400908 231.7741 47.659491 236.22992 52.230467 240.38964 C 56.798398 244.54936 61.632913 248.37031 66.736814 251.85351 C 71.840716 255.33975 77.161302 258.45079 82.700681 261.19042 C 85.018147 262.36672 84.755826 262.26665 85.605466 260.0786 C 87.843749 254.04472 89.595832 247.87113 90.86572 241.56298 C 90.957065 241.23386 91.002328 240.89501 90.996091 240.5537 C 90.993043 240.21239 90.941315 239.87782 90.840817 239.55175 C 90.74032 239.22263 90.597498 238.91682 90.408689 238.63036 C 90.222927 238.3439 89.998103 238.09111 89.739255 237.86864 C 79.924289 227.96455 71.332698 217.12862 64.523435 204.93896 C 63.722525 203.50058 63.250006 201.75153 62.104978 200.68798 C 60.880773 199.5452 58.889314 199.65987 57.238768 199.1997 C 46.616806 196.24371 36.565286 191.95623 27.076171 186.33984 C 26.537155 186.029 25.997305 185.71798 25.360839 185.35839 z M 145.43115 231.57421 C 145.01313 231.56666 144.57871 231.68974 144.0791 231.96972 C 142.56559 232.80167 140.99412 233.51414 139.37402 234.10839 C 126.12703 239.25547 112.45881 242.39505 98.185544 242.5078 C 96.206109 242.52609 96.191389 242.55976 96.011716 244.32421 C 95.283895 250.58665 93.79464 256.65926 91.538083 262.54687 C 90.703676 264.81719 90.100847 264.65545 93.039548 265.81347 C 96.529445 267.197 100.06769 268.43171 103.66113 269.51659 C 107.25152 270.59842 110.88549 271.5271 114.5581 272.30419 C 118.22767 273.08129 121.92404 273.69987 125.64843 274.16308 C 129.37282 274.62628 133.10709 274.93233 136.85888 275.0786 C 140.60764 275.22486 144.35574 275.21264 148.10449 275.04198 C 151.85019 274.87133 155.58639 274.54227 159.30468 274.05468 C 163.02603 273.56709 166.7197 272.92402 170.38623 272.12255 C 174.04971 271.32413 177.67693 270.36939 181.26122 269.26317 C 182.09564 269.0011 182.8142 268.75746 183.15527 267.74267 C 185.00071 262.25123 187.20589 256.89081 188.74072 251.28661 C 189.16706 249.73548 189.16711 249.71772 187.50439 249.33984 C 180.29924 247.7369 173.29842 245.49308 166.50439 242.61327 C 159.70731 239.73042 153.22957 236.26056 147.06591 232.19531 C 146.47836 231.80962 145.96859 231.58391 145.43115 231.57421 z " />
</svg>
