<?xml version="1.0" encoding="UTF-8" standalone="no"?>
<svg
   width="100mm"
   zoomAndPan="magnify"
   viewBox="0 0 283.46456 283.46456"
   height="100mm"
   preserveAspectRatio="xMidYMid"
   version="1.0"
   id="svg3"
   sodipodi:docname="RoundBall_Frame.svg"
   inkscape:version="1.4.2 (ebf0e940d0, 2025-05-08)"
   xmlns:inkscape="http://www.inkscape.org/namespaces/inkscape"
   xmlns:sodipodi="http://sodipodi.sourceforge.net/DTD/sodipodi-0.dtd"
   xmlns="http://www.w3.org/2000/svg"
   xmlns:svg="http://www.w3.org/2000/svg">
  <sodipodi:namedview
     id="namedview3"
     pagecolor="#ffffff"
     bordercolor="#999999"
     borderopacity="1"
     inkscape:showpageshadow="2"
     inkscape:pageopacity="0"
     inkscape:pagecheckerboard="0"
     inkscape:deskcolor="#d1d1d1"
     inkscape:zoom="3.714"
     inkscape:cx="234.92192"
     inkscape:cy="226.84437"
     inkscape:window-width="3840"
     inkscape:window-height="2082"
     inkscape:window-x="0"
     inkscape:window-y="0"
     inkscape:window-maximized="1"
     inkscape:current-layer="svg3"
     inkscape:document-units="mm" />
  <defs
     id="defs1">
    <clipPath
       clipPathUnits="userSpaceOnUse"
       id="clipPath5">
      <path
         d="M 5.542969,5.542969 H 369.29297 V 369.29297 H 5.542969 Z m 0,0"
         clip-rule="nonzero"
         id="path5"
         style="stroke-width:0.999997" />
    </clipPath>
  </defs>
  <path
     fill="#000000"
     d="M 186.79687,369.03906 C 287.43359,369.14453 369.15625,288.47266 369.21875,187.5625 369.28125,86.902344 288.64844,6.167969 187.53125,5.6875 85.300781,6.273438 5.71875,88.246094 5.613281,187.10156 5.53125,287.73828 86.390625,368.95703 186.79687,369.03906 Z m 60.91797,-41.24609 c -1.96875,7.18359 -4.79687,14.05469 -7.16406,21.09375 -0.4375,1.30078 -1.35937,1.61328 -2.42969,1.94922 -4.59765,1.41797 -9.25,2.64062 -13.94922,3.66406 -4.70312,1.02734 -9.4414,1.85156 -14.21484,2.47656 -4.76953,0.625 -9.5625,1.04688 -14.36719,1.26563 -4.80859,0.21875 -9.61718,0.23437 -14.42578,0.0469 -4.8125,-0.1875 -9.60156,-0.57812 -14.3789,-1.17187 -4.77735,-0.59375 -9.51954,-1.38672 -14.22657,-2.38282 -4.71093,-0.99609 -9.37109,-2.1875 -13.97656,-3.57421 -4.60937,-1.39063 -9.14844,-2.97266 -13.625,-4.7461 -3.76953,-1.48437 -2.99609,-1.27734 -1.92578,-4.1875 2.89453,-7.54687 4.80469,-15.33203 5.73828,-23.35937 0.23047,-2.26172 0.25,-2.30469 2.78906,-2.32813 18.3086,-0.14453 35.83985,-4.16797 52.83203,-10.76562 2.07813,-0.76172 4.09375,-1.67578 6.03516,-2.74219 1.46484,-0.82031 2.49219,-0.58984 3.83203,0.28906 7.90625,5.21094 16.21485,9.66016 24.9336,13.35547 8.71484,3.69141 17.69531,6.56641 26.9375,8.62109 2.13281,0.48438 2.13281,0.50782 1.58593,2.4961 z M 126.06641,136.34375 c -0.10157,-1.92969 0.3789,-3.05859 2.16015,-4.10547 16.19141,-9.40625 31.42188,-20.23828 46.12891,-31.82422 0.5039,-0.33203 0.96094,-0.714841 1.38281,-1.148435 1.63281,-2.097656 3.51563,-1.910156 5.86328,-1.238281 18.3711,5.156246 35.76172,12.718746 52.53906,21.722656 3.8125,2.05469 7.66797,3.98047 11.3125,6.34766 0.9375,0.58593 1.70313,1.34375 2.29297,2.27734 0.59375,0.93359 0.95313,1.94922 1.07813,3.04297 0.90234,5.15625 1.63672,10.30859 2.24219,15.5039 1.08984,9.40625 1.53515,18.83985 1.34375,28.30079 -0.0664,4.02343 -1.17579,7.08203 -4.23438,10.01562 -14.85156,14.24219 -30.41797,27.52734 -47.55078,38.92188 -2.85156,1.88671 -5.80469,3.625 -8.61328,5.55078 -0.5,0.34765 -1.05078,0.55859 -1.65625,0.6289 -0.60547,0.0703 -1.19141,-0.008 -1.75781,-0.23047 -7.33594,-2.11718 -14.73047,-4.0625 -21.9961,-6.39062 -10.16015,-3.22656 -19.96484,-7.375 -29.74609,-11.60547 -0.75781,-0.23828 -1.39844,-0.66406 -1.91797,-1.27344 -0.51563,-0.60937 -0.83203,-1.30859 -0.94922,-2.09765 -3.4375,-16.25 -5.80469,-32.65235 -7.10156,-49.20703 -0.39844,-4.71485 -0.65625,-9.42579 -0.77734,-14.14063 0.004,-3.01953 0.10546,-6.05469 -0.043,-9.05078 z m 179.46875,136.23047 c -0.1875,1.11719 -0.69532,2.05859 -1.52735,2.82812 -5.90625,6.74219 -12.48437,12.79688 -19.16797,18.7461 -9.70312,8.46875 -19.98047,16.17187 -30.83203,23.10547 -1.36328,0.90234 -2.45312,0.5664 -3.6875,0.21093 -9.6875,-2.72265 -19.10937,-6.17968 -28.26172,-10.36718 -8.23047,-3.75 -16.23437,-7.94141 -24.00781,-12.57032 -1.33984,-0.8164 -1.73828,-1.52734 -1.40234,-3.10156 3.05468,-14.43359 3.60156,-29.07812 3.35156,-43.76172 -0.0547,-3.12109 -0.38281,-6.21484 -0.98438,-9.28125 -0.28906,-1.44531 0.0859,-2.15625 1.33985,-2.89062 12.98047,-7.54688 25.0664,-16.32813 36.25781,-26.33203 6.01953,-5.34766 11.64844,-11.08204 16.88672,-17.19922 2.70312,-3.16407 2.63672,-3.05469 6.59766,-1.88672 14.98046,4.39844 29.20312,10.76953 43.63281,16.59375 2.38672,0.96094 3.37109,2.23828 3.41797,4.83594 0.10547,7.41796 0.4375,14.85546 0.6914,22.28906 0.23047,12.99219 -0.88281,25.89453 -2.30468,38.78125 z m 50.61328,-111.61719 c 1.40625,8.85547 2.07812,17.76563 2.01172,26.73047 -0.125,34.0625 -9.46875,65.38281 -28.03125,93.95703 -2.01172,3.07813 -2.01172,3.07813 -4.81641,0.60938 -2.95703,-2.60938 -6.1875,-4.8086 -9.69922,-6.60157 -1.25781,-0.66797 -1.69922,-1.33984 -1.44531,-2.82812 2.8789,-16.92578 3.58594,-33.94141 2.11328,-51.04688 -0.3125,-3.89843 -0.91797,-7.79297 -1.46484,-11.67187 -0.1211,-0.48438 -0.13672,-0.97266 -0.0391,-1.46485 0.0937,-0.48828 0.28907,-0.9375 0.58594,-1.33984 3.35156,-4.31641 5.61328,-9.28125 7.8125,-14.22656 4.64844,-10.36719 9.02734,-20.84375 11.5625,-31.96485 0.90234,-4.02343 0.87891,-4.0664 4.98438,-3.8125 4.42187,0.27344 8.82031,0.58594 13.24218,0.87891 2.78516,0.18359 2.78516,0.18359 3.1836,2.78125 z M 283.51953,53.660156 c 2.13672,-0.542968 4.23047,-1.21875 6.28125,-2.035156 0.92188,-0.398438 1.52734,0.292969 2.13672,0.796875 2.49609,2.011719 5.03125,4 7.4375,6.117187 26.54297,23.335938 44.45312,52.058598 53.42187,86.289058 0.98047,3.76954 0.98047,3.76954 -3.03906,3.64454 -1.30078,-0.043 -2.61719,-0.0625 -3.91797,-0.10547 h -1.50781 v 0.1875 c -2.30469,0 -4.62891,-0.10547 -6.91406,0.043 -1.57031,0.10546 -2.32813,-0.375 -2.8086,-1.90625 -2.5625,-7.75 -6,-15.09766 -10.30468,-22.03516 -6.22266,-10.34766 -13.89063,-19.52344 -23.52344,-26.773438 -1.53125,-1.078124 -2.78906,-2.410156 -3.77344,-4.003906 -0.98047,-1.59375 -1.60937,-3.320312 -1.88281,-5.171875 -2.27344,-11.085937 -5.95703,-21.679687 -11.0625,-31.777343 -0.3125,-0.628907 -0.62891,-1.257813 -0.96484,-1.863282 -0.3125,-0.613281 -0.41797,-1.175781 0.42187,-1.40625 z M 205.04297,28.8125 c 16.43359,2.367188 32.11719,7.175781 47.05078,14.433594 5.25781,2.53125 10.43359,5.214844 15.44141,8.210937 0.32031,0.238281 0.67187,0.425781 1.04687,0.566407 4.21094,1.066406 5.86719,4.210937 7.27344,8 3.99609,10.953124 8.0625,21.867187 10.49219,33.304687 0.125,0.585937 0.29296,1.171875 0.35546,1.445313 0.16797,1.003906 -0.082,1.507812 -0.73046,1.78125 -0.73438,0.3125 -1.48829,0.605468 -2.22266,0.945312 -12.00391,5.44531 -23.77734,11.26953 -34.39453,19.1875 -0.19531,0.1875 -0.41797,0.33203 -0.66797,0.4375 -0.24609,0.10547 -0.50781,0.16406 -0.77734,0.17578 -0.26954,0.0117 -0.53125,-0.0234 -0.78907,-0.10937 -0.2539,-0.082 -0.48828,-0.20703 -0.69922,-0.375 -4.83984,-2.8711 -9.67578,-5.74219 -14.62109,-8.42188 -15.67578,-8.660155 -32.25391,-14.929686 -49.73437,-18.812499 -1.80079,-0.378906 -2.80469,-1.089843 -3.32813,-2.890625 -0.71484,-2.515625 -2.36719,-4.65625 -3.5,-7 -2.125,-4.554687 -3.91406,-9.238281 -5.36328,-14.054687 -1.63281,-5.171875 -3.25391,-10.355469 -4.85938,-15.542969 -0.6914,-2.199219 -0.71093,-2.261719 1.15235,-3.371094 11.30078,-6.808594 23.08594,-12.625 35.36328,-17.453125 1.12891,-0.476562 2.30078,-0.628906 3.51172,-0.457031 z M 90.707031,46.703125 c 0.523438,-0.316406 1.003907,-0.671875 1.507813,-1.007813 5.792968,-3.910156 11.808596,-7.453124 18.042966,-10.617187 6.23047,-3.167969 12.63672,-5.9375 19.21094,-8.3125 6.57812,-2.375 13.27734,-4.332031 20.09375,-5.875 6.82031,-1.542969 13.70703,-2.660156 20.66797,-3.351563 l 4.20703,-0.433593 c 1.69922,-0.0625 2.78906,-0.128907 3.87891,0.289062 4.19921,1.695313 8.24609,3.691407 12.14843,5.992188 0.96094,0.542969 1.17188,1.046875 -0.0195,1.589843 -1.74219,0.777344 -3.48047,1.550782 -5.19531,2.390626 -8.91016,4.277343 -17.28906,9.417968 -25.14063,15.414062 -0.54296,0.4375 -1.15625,0.738281 -1.83203,0.902344 -0.67968,0.164062 -1.35937,0.175781 -2.04297,0.03906 -5.82421,-0.835937 -11.6289,-0.164062 -17.42968,0.464844 -12.46485,1.359375 -24.53125,4.289062 -35.90625,9.695312 -1.44531,0.695313 -2.82813,2.078126 -4.355471,1.84375 -1.550781,-0.230468 -2.199219,-2.179687 -3.3125,-3.308593 -1.398438,-1.453125 -2.921875,-2.765625 -4.566407,-3.9375 -0.921874,-0.625 -0.878906,-1.191407 0.04297,-1.777344 z M 23.503906,157.14453 c -0.777344,-0.62891 -1.550781,-1.27734 -2.367187,-1.86328 -0.691407,-0.52344 -1.214844,-1.07031 -0.964844,-2.03125 0.835937,-3.4375 1.570313,-6.875 2.492187,-10.26563 9.910157,-35.78124 29.269532,-65.394526 58.070313,-88.843745 3.203125,-2.597656 2.472656,-2.410156 5.234375,0.230469 1.496094,1.355468 2.875,2.824218 4.132812,4.402344 0.167969,0.179687 0.296876,0.382812 0.390626,0.613281 0.09375,0.226562 0.144531,0.464843 0.152343,0.710937 0.0078,0.246094 -0.02734,0.488282 -0.105469,0.71875 -0.08203,0.234375 -0.199218,0.445313 -0.355468,0.636719 C 83,73.097656 77.890625,85.59375 74.847656,98.929688 c -0.625,3.054692 -1.085937,6.132812 -1.378906,9.238282 -0.04687,0.54687 -0.226562,1.05078 -0.542969,1.50391 -0.3125,0.45312 -0.71875,0.79687 -1.21875,1.03125 C 52.625,121.78516 38.0625,137.24609 27.339844,156.43359 c -1.507813,2.67969 -1.46875,2.70313 -3.835938,0.71094 z m 5.695313,42.40234 c -0.4375,-5.92968 -0.816407,-11.83984 -0.691407,-17.76562 0,-3.91797 0.02344,-7.83594 0,-11.75391 0.03125,-1.12109 0.355469,-2.15625 0.964844,-3.09765 10.308594,-17.6836 23.296875,-32.9336 40.011719,-44.89453 2.304687,-1.63282 4.566406,-3.3086 6.703125,-5.13282 1.152344,-0.96484 2.054688,-1.21484 3.476562,-0.54687 11.273438,5.28125 22.480468,10.6875 33.164068,17.17969 2.97265,1.80078 3.89453,3.51953 3.74609,6.99609 -0.45703,12.06641 0.73437,24.07031 2.18359,36.05469 1.3125,11.39062 3.28907,22.66797 5.92969,33.83203 0.17188,0.57031 0.18359,1.14453 0.0273,1.72265 -0.15625,0.57813 -0.44921,1.07422 -0.88671,1.48047 -11.27344,12.96875 -22.51563,25.96485 -33.726568,38.98438 -3.4375,3.96094 -2.746093,3.20703 -6.789062,1.82422 C 67.78125,249.04687 53,242.07812 38.964844,233.51953 c -1.085938,-0.60547 -1.796875,-1.50781 -2.136719,-2.70312 -1.925781,-5.71875 -3.480469,-11.53516 -4.671875,-17.45313 -0.878906,-4.62109 -2.597656,-9.0625 -2.953125,-13.81641 z m 3.816406,60.6836 c -0.421875,-0.7461 -0.660156,-1.54688 -0.71875,-2.40235 -0.05859,-0.85156 0.06641,-1.67968 0.382813,-2.47656 1.296874,-3.60156 2.535156,-7.20703 4.144531,-10.66406 0.289062,-0.625 0.566406,-1.25391 1.320312,-1.40234 0.816407,0.46093 1.507813,0.85937 2.199219,1.25781 12.171875,7.19922 25.066406,12.69531 38.691406,16.48437 2.117188,0.58985 4.671875,0.44141 6.242188,1.90625 1.46875,1.36328 2.074218,3.60547 3.101562,5.44922 8.734375,15.625 19.753904,29.51563 32.343754,42.21094 0.33203,0.28516 0.62109,0.60937 0.85937,0.97656 0.24219,0.36719 0.42578,0.75781 0.55469,1.17969 0.12891,0.41797 0.19531,0.84766 0.19922,1.28516 0.008,0.4375 -0.0508,0.87109 -0.16797,1.29296 -1.62891,8.08594 -3.875,16 -6.74609,23.73438 -1.08985,2.80469 -0.75391,2.93359 -3.72657,1.42578 -7.10547,-3.51172 -13.929685,-7.5 -20.47656,-11.96875 -6.546875,-4.46484 -12.75,-9.36328 -18.609375,-14.69531 -5.863281,-5.33203 -11.324219,-11.04297 -16.390625,-17.14063 -5.0625,-6.09375 -9.675781,-12.51172 -13.84375,-19.2539 -3.425781,-5.56641 -6.542969,-11.29688 -9.359375,-17.19922 z m 0,0"
     fill-opacity="1"
     fill-rule="nonzero"
     id="path3"
     clip-path="url(#clipPath5)"
     transform="matrix(0.77959354,0,0,0.78013831,-4.376029,-4.4370366)"
     style="stroke-width:1.28227" />
</svg>
