<?xml version="1.0" encoding="UTF-8" standalone="no"?>
<svg
   width="14mm"
   height="16mm"
   viewBox="-7 -8 14 16"
   version="1.1"
   id="svg297"
   sodipodi:docname="punchJig_slider.svg"
   inkscape:version="1.2 (dc2aedaf03, 2022-05-15)"
   xmlns:inkscape="http://www.inkscape.org/namespaces/inkscape"
   xmlns:sodipodi="http://sodipodi.sourceforge.net/DTD/sodipodi-0.dtd"
   xmlns="http://www.w3.org/2000/svg"
   xmlns:svg="http://www.w3.org/2000/svg">
  <defs
     id="defs301" />
  <sodipodi:namedview
     id="namedview299"
     pagecolor="#ffffff"
     bordercolor="#666666"
     borderopacity="1.0"
     inkscape:showpageshadow="2"
     inkscape:pageopacity="0.0"
     inkscape:pagecheckerboard="0"
     inkscape:deskcolor="#d1d1d1"
     inkscape:document-units="mm"
     showgrid="false"
     inkscape:zoom="3.9026042"
     inkscape:cx="24.598959"
     inkscape:cy="30.23622"
     inkscape:window-width="1600"
     inkscape:window-height="1137"
     inkscape:window-x="-8"
     inkscape:window-y="-8"
     inkscape:window-maximized="1"
     inkscape:current-layer="svg297" />
  <title
     id="title293">OpenSCAD Model</title>
  <path
     d=" M 3.11732,7.49075 L 3.23175,7.46329 L 3.34048,7.41824 L 3.44083,7.35675 L 3.53032,7.28032 L 3.60675,7.19083  L 3.66824,7.09048 L 3.71329,6.98175 L 3.74075,6.86732 L 3.75923,6.63266 L 3.7867,6.51823 L 3.83174,6.4095  L 3.89323,6.30916 L 3.96967,6.21967 L 4.05916,6.14323 L 4.1595,6.08174 L 4.26823,6.0367 L 4.38266,6.00923  L 4.5,6 L 4.61732,6.00923 L 4.73175,6.0367 L 4.84048,6.08174 L 4.94083,6.14323 L 5.03032,6.21967  L 5.10675,6.30916 L 5.16824,6.4095 L 5.21329,6.51823 L 5.24075,6.63266 L 5.25,6.75 L 5.48465,6.73152  L 5.71352,6.67657 L 5.93098,6.5865 L 6.13167,6.46352 L 6.31065,6.31065 L 6.46352,6.13167 L 6.5865,5.93098  L 6.67657,5.71352 L 6.73152,5.48465 L 6.75,5.25 L 6.75,-5.25 L 6.73152,-5.48465 L 6.67657,-5.71352  L 6.5865,-5.93098 L 6.46352,-6.13167 L 6.44824,-6.14955 L 6.44083,-6.14323 L 6.34048,-6.08174 L 6.23175,-6.0367  L 6.11732,-6.00923 L 6,-6 L 5.88266,-6.00923 L 5.76823,-6.0367 L 5.6595,-6.08174 L 5.55916,-6.14323  L 5.46967,-6.21967 L 5.39323,-6.30916 L 5.33174,-6.4095 L 5.2867,-6.51823 L 5.25923,-6.63266 L 5.24075,-6.86732  L 5.21329,-6.98175 L 5.16824,-7.09048 L 5.10675,-7.19083 L 5.03032,-7.28032 L 4.94083,-7.35675 L 4.84048,-7.41824  L 4.73175,-7.46329 L 4.61732,-7.49075 L 4.5,-7.5 L 4.38266,-7.49075 L 4.26823,-7.46329 L 4.1595,-7.41824  L 4.05916,-7.35675 L 3.96967,-7.28032 L 3.89323,-7.19083 L 3.83174,-7.09048 L 3.7867,-6.98175 L 3.75923,-6.86732  L 3.74075,-6.63266 L 3.71329,-6.51823 L 3.66824,-6.4095 L 3.60675,-6.30916 L 3.53032,-6.21967 L 3.44083,-6.14323  L 3.34048,-6.08174 L 3.23175,-6.0367 L 3.11732,-6.00923 L 3,-6 L 2.88266,-6.00923 L 2.76823,-6.0367  L 2.6595,-6.08174 L 2.55916,-6.14323 L 2.46967,-6.21967 L 2.39323,-6.30916 L 2.33174,-6.4095 L 2.2867,-6.51823  L 2.25923,-6.63266 L 2.24075,-6.86732 L 2.21329,-6.98175 L 2.16824,-7.09048 L 2.10675,-7.19083 L 2.03032,-7.28032  L 1.94083,-7.35675 L 1.84048,-7.41824 L 1.73175,-7.46329 L 1.61732,-7.49075 L 1.5,-7.5 L 1.38266,-7.49075  L 1.26823,-7.46329 L 1.1595,-7.41824 L 1.05916,-7.35675 L 0.969666,-7.28032 L 0.893234,-7.19083 L 0.831741,-7.09048  L 0.786697,-6.98175 L 0.759232,-6.86732 L 0.740753,-6.63266 L 0.713287,-6.51823 L 0.668243,-6.4095 L 0.60675,-6.30916  L 0.530319,-6.21967 L 0.440826,-6.14323 L 0.340485,-6.08174 L 0.23175,-6.0367 L 0.117325,-6.00923 L 0,-6  L -0.117325,-6.00923 L -0.23175,-6.0367 L -0.340485,-6.08174 L -0.440826,-6.14323 L -0.530319,-6.21967 L -0.60675,-6.30916  L -0.668243,-6.4095 L -0.713287,-6.51823 L -0.740753,-6.63266 L -0.759232,-6.86732 L -0.786697,-6.98175 L -0.831741,-7.09048  L -0.893234,-7.19083 L -0.969666,-7.28032 L -1.05916,-7.35675 L -1.1595,-7.41824 L -1.26823,-7.46329 L -1.38266,-7.49075  L -1.5,-7.5 L -1.61732,-7.49075 L -1.73175,-7.46329 L -1.84048,-7.41824 L -1.94083,-7.35675 L -2.03032,-7.28032  L -2.10675,-7.19083 L -2.16824,-7.09048 L -2.21329,-6.98175 L -2.24075,-6.86732 L -2.25923,-6.63266 L -2.2867,-6.51823  L -2.33174,-6.4095 L -2.39323,-6.30916 L -2.46967,-6.21967 L -2.55916,-6.14323 L -2.6595,-6.08174 L -2.76823,-6.0367  L -2.88266,-6.00923 L -3,-6 L -3.11732,-6.00923 L -3.23175,-6.0367 L -3.34048,-6.08174 L -3.44083,-6.14323  L -3.53032,-6.21967 L -3.60675,-6.30916 L -3.66824,-6.4095 L -3.71329,-6.51823 L -3.74075,-6.63266 L -3.75923,-6.86732  L -3.7867,-6.98175 L -3.83174,-7.09048 L -3.89323,-7.19083 L -3.96967,-7.28032 L -4.05916,-7.35675 L -4.1595,-7.41824  L -4.26823,-7.46329 L -4.38266,-7.49075 L -4.5,-7.5 L -4.61732,-7.49075 L -4.73175,-7.46329 L -4.84048,-7.41824  L -4.94083,-7.35675 L -5.03032,-7.28032 L -5.10675,-7.19083 L -5.16824,-7.09048 L -5.21329,-6.98175 L -5.24075,-6.86732  L -5.25923,-6.63266 L -5.2867,-6.51823 L -5.33174,-6.4095 L -5.39323,-6.30916 L -5.46967,-6.21967 L -5.55916,-6.14323  L -5.6595,-6.08174 L -5.76823,-6.0367 L -5.88266,-6.00923 L -6,-6 L -6.11732,-6.00923 L -6.23175,-6.0367  L -6.34048,-6.08174 L -6.44083,-6.14323 L -6.44824,-6.14955 L -6.46352,-6.13167 L -6.5865,-5.93098 L -6.67657,-5.71352  L -6.73152,-5.48465 L -6.75,-5.25 L -6.75,5.25 L -6.73152,5.48465 L -6.67657,5.71352 L -6.5865,5.93098  L -6.46352,6.13167 L -6.31065,6.31065 L -6.13167,6.46352 L -5.93098,6.5865 L -5.71352,6.67657 L -5.48465,6.73152  L -5.25,6.75 L -5.24075,6.63266 L -5.21329,6.51823 L -5.16824,6.4095 L -5.10675,6.30916 L -5.03032,6.21967  L -4.94083,6.14323 L -4.84048,6.08174 L -4.73175,6.0367 L -4.61732,6.00923 L -4.5,6 L -4.38266,6.00923  L -4.26823,6.0367 L -4.1595,6.08174 L -4.05916,6.14323 L -3.96967,6.21967 L -3.89323,6.30916 L -3.83174,6.4095  L -3.7867,6.51823 L -3.75923,6.63266 L -3.74075,6.86732 L -3.71329,6.98175 L -3.66824,7.09048 L -3.60675,7.19083  L -3.53032,7.28032 L -3.44083,7.35675 L -3.34048,7.41824 L -3.23175,7.46329 L -3.11732,7.49075 L -3,7.5  L -2.88266,7.49075 L -2.76823,7.46329 L -2.6595,7.41824 L -2.55916,7.35675 L -2.46967,7.28032 L -2.39323,7.19083  L -2.33174,7.09048 L -2.2867,6.98175 L -2.25923,6.86732 L -2.24075,6.63266 L -2.21329,6.51823 L -2.16824,6.4095  L -2.10675,6.30916 L -2.03032,6.21967 L -1.94083,6.14323 L -1.84048,6.08174 L -1.73175,6.0367 L -1.61732,6.00923  L -1.5,6 L -1.38266,6.00923 L -1.26823,6.0367 L -1.1595,6.08174 L -1.05916,6.14323 L -0.969666,6.21967  L -0.893234,6.30916 L -0.831741,6.4095 L -0.786697,6.51823 L -0.759232,6.63266 L -0.740753,6.86732 L -0.713287,6.98175  L -0.668243,7.09048 L -0.60675,7.19083 L -0.530319,7.28032 L -0.440826,7.35675 L -0.340485,7.41824 L -0.23175,7.46329  L -0.117325,7.49075 L 0,7.5 L 0.117325,7.49075 L 0.23175,7.46329 L 0.340485,7.41824 L 0.440826,7.35675  L 0.530319,7.28032 L 0.60675,7.19083 L 0.668243,7.09048 L 0.713287,6.98175 L 0.740753,6.86732 L 0.759232,6.63266  L 0.786697,6.51823 L 0.831741,6.4095 L 0.893234,6.30916 L 0.969666,6.21967 L 1.05916,6.14323 L 1.1595,6.08174  L 1.26823,6.0367 L 1.38266,6.00923 L 1.5,6 L 1.61732,6.00923 L 1.73175,6.0367 L 1.84048,6.08174  L 1.94083,6.14323 L 2.03032,6.21967 L 2.10675,6.30916 L 2.16824,6.4095 L 2.21329,6.51823 L 2.24075,6.63266  L 2.25923,6.86732 L 2.2867,6.98175 L 2.33174,7.09048 L 2.39323,7.19083 L 2.46967,7.28032 L 2.55916,7.35675  L 2.6595,7.41824 L 2.76823,7.46329 L 2.88266,7.49075 L 3,7.5 z M -1.75,3.03108 L -3.5,-0 L -1.75,-3.03108 L 1.75,-3.03108 L 3.5,-0 L 1.75,3.03108  z "
     stroke="black"
     fill="lightgray"
     stroke-width="0.5"
     id="path295"
     style="fill:none;stroke:#ff0000;stroke-width:0.1;stroke-dasharray:none" />
</svg>
