<?xml version="1.0" encoding="UTF-8" standalone="no"?>
<svg
   width="88mm"
   height="22mm"
   viewBox="-44 -11 88 22"
   version="1.1"
   id="svg6"
   sodipodi:docname="punchJig_rail.svg"
   inkscape:version="1.2 (dc2aedaf03, 2022-05-15)"
   xmlns:inkscape="http://www.inkscape.org/namespaces/inkscape"
   xmlns:sodipodi="http://sodipodi.sourceforge.net/DTD/sodipodi-0.dtd"
   xmlns="http://www.w3.org/2000/svg"
   xmlns:svg="http://www.w3.org/2000/svg">
  <defs
     id="defs10" />
  <sodipodi:namedview
     id="namedview8"
     pagecolor="#ffffff"
     bordercolor="#666666"
     borderopacity="1.0"
     inkscape:showpageshadow="2"
     inkscape:pageopacity="0.0"
     inkscape:pagecheckerboard="0"
     inkscape:deskcolor="#d1d1d1"
     inkscape:document-units="mm"
     showgrid="false"
     inkscape:zoom="2.8382576"
     inkscape:cx="163.83291"
     inkscape:cy="41.574803"
     inkscape:window-width="1600"
     inkscape:window-height="1137"
     inkscape:window-x="-8"
     inkscape:window-y="-8"
     inkscape:window-maximized="1"
     inkscape:current-layer="svg6" />
  <title
     id="title2">OpenSCAD Model</title>
  <path
     d=" M 39.0322,10.4384 L 39.7951,10.2553 L 40.5199,9.95503 L 41.1889,9.54507 L 41.7855,9.03552 L 42.2951,8.43892  L 42.705,7.76994 L 43.0053,7.04507 L 43.1884,6.28217 L 43.25,5.5 L 43.25,-5.5 L 43.1884,-6.28217  L 43.0053,-7.04507 L 42.705,-7.76994 L 42.2951,-8.43892 L 41.7855,-9.03552 L 41.1889,-9.54507 L 40.5199,-9.95503  L 39.7951,-10.2553 L 39.0322,-10.4384 L 38.25,-10.5 L -38.25,-10.5 L -39.0322,-10.4384 L -39.7951,-10.2553  L -40.5199,-9.95503 L -41.1889,-9.54507 L -41.7855,-9.03552 L -42.2951,-8.43892 L -42.705,-7.76994 L -43.0053,-7.04507  L -43.1884,-6.28217 L -43.25,-5.5 L -43.25,5.5 L -43.1884,6.28217 L -43.0053,7.04507 L -42.705,7.76994  L -42.2951,8.43892 L -41.7855,9.03552 L -41.1889,9.54507 L -40.5199,9.95503 L -39.7951,10.2553 L -39.0322,10.4384  L -38.25,10.5 L 38.25,10.5 z M -35.75,6 L -35.9846,5.98152 L -36.2135,5.92657 L -36.431,5.8365 L -36.6317,5.71352 L -36.8107,5.56065  L -36.9635,5.38167 L -37.0865,5.18098 L -37.1766,4.96352 L -37.2315,4.73465 L -37.25,4.5 L -37.25,-4.5  L -37.2315,-4.73465 L -37.1766,-4.96352 L -37.0865,-5.18098 L -36.9635,-5.38167 L -36.8107,-5.56065 L -36.6317,-5.71352  L -36.431,-5.8365 L -36.2135,-5.92657 L -35.9846,-5.98152 L -35.75,-6 L 35.75,-6 L 35.9846,-5.98152  L 36.2135,-5.92657 L 36.431,-5.8365 L 36.6317,-5.71352 L 36.8107,-5.56065 L 36.9635,-5.38167 L 37.0865,-5.18098  L 37.1766,-4.96352 L 37.2315,-4.73465 L 37.25,-4.5 L 37.25,4.5 L 37.2315,4.73465 L 37.1766,4.96352  L 37.0865,5.18098 L 36.9635,5.38167 L 36.8107,5.56065 L 36.6317,5.71352 L 36.431,5.8365 L 36.2135,5.92657  L 35.9846,5.98152 L 35.75,6 z M 39.2966,-3.216 L 39.0983,-3.26363 L 38.9098,-3.34169 L 38.7359,-3.44827 L 38.5807,-3.58075 L 38.4483,-3.73587  L 38.3417,-3.90981 L 38.2636,-4.09827 L 38.216,-4.29663 L 38.2,-4.5 L 38.216,-4.70335 L 38.2636,-4.90172  L 38.3417,-5.09018 L 38.4483,-5.26411 L 38.5807,-5.41924 L 38.7359,-5.55171 L 38.9098,-5.65829 L 39.0983,-5.73636  L 39.2966,-5.78398 L 39.5,-5.79999 L 39.7034,-5.78398 L 39.9017,-5.73636 L 40.0902,-5.65829 L 40.2641,-5.55171  L 40.4192,-5.41924 L 40.5517,-5.26411 L 40.6583,-5.09018 L 40.7364,-4.90172 L 40.784,-4.70335 L 40.8,-4.5  L 40.784,-4.29663 L 40.7364,-4.09827 L 40.6583,-3.90981 L 40.5517,-3.73587 L 40.4192,-3.58075 L 40.2641,-3.44827  L 40.0902,-3.34169 L 39.9017,-3.26363 L 39.7034,-3.216 L 39.5,-3.2 z M -39.7034,-3.216 L -39.9017,-3.26363 L -40.0902,-3.34169 L -40.2641,-3.44827 L -40.4192,-3.58075 L -40.5517,-3.73587  L -40.6583,-3.90981 L -40.7364,-4.09827 L -40.784,-4.29663 L -40.8,-4.5 L -40.784,-4.70335 L -40.7364,-4.90172  L -40.6583,-5.09018 L -40.5517,-5.26411 L -40.4192,-5.41924 L -40.2641,-5.55171 L -40.0902,-5.65829 L -39.9017,-5.73636  L -39.7034,-5.78398 L -39.5,-5.79999 L -39.2966,-5.78398 L -39.0983,-5.73636 L -38.9098,-5.65829 L -38.7359,-5.55171  L -38.5807,-5.41924 L -38.4483,-5.26411 L -38.3417,-5.09018 L -38.2636,-4.90172 L -38.216,-4.70335 L -38.2,-4.5  L -38.216,-4.29663 L -38.2636,-4.09827 L -38.3417,-3.90981 L -38.4483,-3.73587 L -38.5807,-3.58075 L -38.7359,-3.44827  L -38.9098,-3.34169 L -39.0983,-3.26363 L -39.2966,-3.216 L -39.5,-3.2 z M -39.7034,5.78398 L -39.9017,5.73636 L -40.0902,5.65829 L -40.2641,5.55171 L -40.4192,5.41924 L -40.5517,5.26411  L -40.6583,5.09018 L -40.7364,4.90172 L -40.784,4.70335 L -40.8,4.5 L -40.784,4.29663 L -40.7364,4.09827  L -40.6583,3.90981 L -40.5517,3.73587 L -40.4192,3.58075 L -40.2641,3.44827 L -40.0902,3.34169 L -39.9017,3.26363  L -39.7034,3.216 L -39.5,3.2 L -39.2966,3.216 L -39.0983,3.26363 L -38.9098,3.34169 L -38.7359,3.44827  L -38.5807,3.58075 L -38.4483,3.73587 L -38.3417,3.90981 L -38.2636,4.09827 L -38.216,4.29663 L -38.2,4.5  L -38.216,4.70335 L -38.2636,4.90172 L -38.3417,5.09018 L -38.4483,5.26411 L -38.5807,5.41924 L -38.7359,5.55171  L -38.9098,5.65829 L -39.0983,5.73636 L -39.2966,5.78398 L -39.5,5.79999 z M 39.2966,5.78398 L 39.0983,5.73636 L 38.9098,5.65829 L 38.7359,5.55171 L 38.5807,5.41924 L 38.4483,5.26411  L 38.3417,5.09018 L 38.2636,4.90172 L 38.216,4.70335 L 38.2,4.5 L 38.216,4.29663 L 38.2636,4.09827  L 38.3417,3.90981 L 38.4483,3.73587 L 38.5807,3.58075 L 38.7359,3.44827 L 38.9098,3.34169 L 39.0983,3.26363  L 39.2966,3.216 L 39.5,3.2 L 39.7034,3.216 L 39.9017,3.26363 L 40.0902,3.34169 L 40.2641,3.44827  L 40.4192,3.58075 L 40.5517,3.73587 L 40.6583,3.90981 L 40.7364,4.09827 L 40.784,4.29663 L 40.8,4.5  L 40.784,4.70335 L 40.7364,4.90172 L 40.6583,5.09018 L 40.5517,5.26411 L 40.4192,5.41924 L 40.2641,5.55171  L 40.0902,5.65829 L 39.9017,5.73636 L 39.7034,5.78398 L 39.5,5.79999 z "
     stroke="black"
     fill="lightgray"
     stroke-width="0.5"
     id="path4"
     style="fill:none;stroke:#ff0000;stroke-width:0.1;stroke-dasharray:none" />
</svg>
