<?xml version="1.0" encoding="UTF-8" standalone="no"?>
<svg
   width="90mm"
   height="22mm"
   viewBox="-45 -11 90 22"
   version="1.1"
   id="svg5573"
   sodipodi:docname="punchJig_carriage.svg"
   inkscape:version="1.2 (dc2aedaf03, 2022-05-15)"
   xmlns:inkscape="http://www.inkscape.org/namespaces/inkscape"
   xmlns:sodipodi="http://sodipodi.sourceforge.net/DTD/sodipodi-0.dtd"
   xmlns="http://www.w3.org/2000/svg"
   xmlns:svg="http://www.w3.org/2000/svg">
  <defs
     id="defs5577" />
  <sodipodi:namedview
     id="namedview5575"
     pagecolor="#ffffff"
     bordercolor="#666666"
     borderopacity="1.0"
     inkscape:showpageshadow="2"
     inkscape:pageopacity="0.0"
     inkscape:pagecheckerboard="0"
     inkscape:deskcolor="#d1d1d1"
     inkscape:document-units="mm"
     showgrid="false"
     inkscape:zoom="2.8382576"
     inkscape:cx="167.70853"
     inkscape:cy="41.574803"
     inkscape:window-width="1600"
     inkscape:window-height="1137"
     inkscape:window-x="-8"
     inkscape:window-y="-8"
     inkscape:window-maximized="1"
     inkscape:current-layer="svg5573" />
  <title
     id="title5569">OpenSCAD Model</title>
  <path
     d=" M 44,9.75 L 43.8827,9.74075 L 43.7682,9.71329 L 43.6595,9.66824 L 43.5592,9.60675 L 43.4697,9.53032  L 43.3932,9.44083 L 43.3317,9.34048 L 43.2867,9.23175 L 43.2592,9.11732 L 43.25,9 L 43.2592,8.88266  L 43.2867,8.76823 L 43.3317,8.6595 L 43.3932,8.55916 L 43.4697,8.46967 L 43.5592,8.39323 L 43.6595,8.33174  L 43.7682,8.2867 L 43.8827,8.25923 L 44.1173,8.24075 L 44.2318,8.21329 L 44.3405,8.16824 L 44.4408,8.10675  L 44.5303,8.03032 L 44.6068,7.94083 L 44.6682,7.84048 L 44.7133,7.73175 L 44.7408,7.61732 L 44.75,7.5  L 44.7408,7.38266 L 44.7133,7.26823 L 44.6682,7.1595 L 44.6068,7.05916 L 44.5303,6.96967 L 44.4408,6.89323  L 44.3405,6.83174 L 44.2318,6.7867 L 44.1173,6.75923 L 43.8827,6.74075 L 43.7682,6.71329 L 43.6595,6.66824  L 43.5592,6.60675 L 43.4697,6.53032 L 43.3932,6.44083 L 43.3317,6.34048 L 43.2867,6.23175 L 43.2592,6.11732  L 43.25,6 L 43.2592,5.88266 L 43.2867,5.76823 L 43.3317,5.6595 L 43.3932,5.55916 L 43.4697,5.46967  L 43.5592,5.39323 L 43.6595,5.33174 L 43.7682,5.2867 L 43.8827,5.25923 L 44.1173,5.24075 L 44.2318,5.21329  L 44.3405,5.16824 L 44.4408,5.10675 L 44.5303,5.03032 L 44.6068,4.94083 L 44.6682,4.84048 L 44.7133,4.73175  L 44.7408,4.61732 L 44.75,4.5 L 44.7408,4.38266 L 44.7133,4.26823 L 44.6682,4.1595 L 44.6068,4.05916  L 44.5303,3.96967 L 44.4408,3.89323 L 44.3405,3.83174 L 44.2318,3.7867 L 44.1173,3.75923 L 43.8827,3.74075  L 43.7682,3.71329 L 43.6595,3.66824 L 43.5592,3.60675 L 43.4697,3.53032 L 43.3932,3.44083 L 43.3317,3.34048  L 43.2867,3.23175 L 43.2592,3.11732 L 43.25,3 L 43.2592,2.88266 L 43.2867,2.76823 L 43.3317,2.6595  L 43.3932,2.55916 L 43.4697,2.46967 L 43.5592,2.39323 L 43.6595,2.33174 L 43.7682,2.2867 L 43.8827,2.25923  L 44.1173,2.24075 L 44.2318,2.21329 L 44.3405,2.16824 L 44.4408,2.10675 L 44.5303,2.03032 L 44.6068,1.94083  L 44.6682,1.84048 L 44.7133,1.73175 L 44.7408,1.61732 L 44.75,1.5 L 44.7408,1.38266 L 44.7133,1.26823  L 44.6682,1.1595 L 44.6068,1.05916 L 44.5303,0.969666 L 44.4408,0.893234 L 44.3405,0.831741 L 44.2318,0.786697  L 44.1173,0.759232 L 43.8827,0.740753 L 43.7682,0.713287 L 43.6595,0.668243 L 43.5592,0.60675 L 43.4697,0.530319  L 43.3932,0.440826 L 43.3317,0.340485 L 43.2867,0.23175 L 43.2592,0.117325 L 43.25,-0 L 43.2592,-0.117325  L 43.2867,-0.23175 L 43.3317,-0.340485 L 43.3932,-0.440826 L 43.4697,-0.530319 L 43.5592,-0.60675 L 43.6595,-0.668243  L 43.7682,-0.713287 L 43.8827,-0.740753 L 44.1173,-0.759232 L 44.2318,-0.786697 L 44.3405,-0.831741 L 44.4408,-0.893234  L 44.5303,-0.969666 L 44.6068,-1.05916 L 44.6682,-1.1595 L 44.7133,-1.26823 L 44.7408,-1.38266 L 44.75,-1.5  L 44.7408,-1.61732 L 44.7133,-1.73175 L 44.6682,-1.84048 L 44.6068,-1.94083 L 44.5303,-2.03032 L 44.4408,-2.10675  L 44.3405,-2.16824 L 44.2318,-2.21329 L 44.1173,-2.24075 L 43.8827,-2.25923 L 43.7682,-2.2867 L 43.6595,-2.33174  L 43.5592,-2.39323 L 43.4697,-2.46967 L 43.3932,-2.55916 L 43.3317,-2.6595 L 43.2867,-2.76823 L 43.2592,-2.88266  L 43.25,-3 L 43.2592,-3.11732 L 43.2867,-3.23175 L 43.3317,-3.34048 L 43.3932,-3.44083 L 43.4697,-3.53032  L 43.5592,-3.60675 L 43.6595,-3.66824 L 43.7682,-3.71329 L 43.8827,-3.74075 L 44.1173,-3.75923 L 44.2318,-3.7867  L 44.3405,-3.83174 L 44.4408,-3.89323 L 44.5303,-3.96967 L 44.6068,-4.05916 L 44.6682,-4.1595 L 44.7133,-4.26823  L 44.7408,-4.38266 L 44.75,-4.5 L 44.7408,-4.61732 L 44.7133,-4.73175 L 44.6682,-4.84048 L 44.6068,-4.94083  L 44.5303,-5.03032 L 44.4408,-5.10675 L 44.3405,-5.16824 L 44.2318,-5.21329 L 44.1173,-5.24075 L 43.8827,-5.25923  L 43.7682,-5.2867 L 43.6595,-5.33174 L 43.5592,-5.39323 L 43.4697,-5.46967 L 43.3932,-5.55916 L 43.3317,-5.6595  L 43.2867,-5.76823 L 43.2592,-5.88266 L 43.25,-6 L 43.2592,-6.11732 L 43.2867,-6.23175 L 43.3317,-6.34048  L 43.3932,-6.44083 L 43.4697,-6.53032 L 43.5592,-6.60675 L 43.6595,-6.66824 L 43.7682,-6.71329 L 43.8827,-6.74075  L 44.1173,-6.75923 L 44.2318,-6.7867 L 44.3405,-6.83174 L 44.4408,-6.89323 L 44.5303,-6.96967 L 44.6068,-7.05916  L 44.6682,-7.1595 L 44.7133,-7.26823 L 44.7408,-7.38266 L 44.75,-7.5 L 44.7408,-7.61732 L 44.7133,-7.73175  L 44.6682,-7.84048 L 44.6068,-7.94083 L 44.5303,-8.03032 L 44.4408,-8.10675 L 44.3405,-8.16824 L 44.2318,-8.21329  L 44.1173,-8.24075 L 43.8827,-8.25923 L 43.7682,-8.2867 L 43.6595,-8.33174 L 43.5592,-8.39323 L 43.4697,-8.46967  L 43.3932,-8.55916 L 43.3317,-8.6595 L 43.2867,-8.76823 L 43.2592,-8.88266 L 43.25,-9 L 43.2592,-9.11732  L 43.2867,-9.23175 L 43.3317,-9.34048 L 43.3932,-9.44083 L 43.4697,-9.53032 L 43.5592,-9.60675 L 43.6595,-9.66824  L 43.7682,-9.71329 L 43.8827,-9.74075 L 44,-9.75 L 44,-10.5 L -43.25,-10.5 L -43.2592,-10.3827  L -43.2867,-10.2682 L -43.3317,-10.1595 L -43.3932,-10.0592 L -43.4697,-9.96967 L -43.5592,-9.89323 L -43.6595,-9.83174  L -43.7682,-9.7867 L -43.8827,-9.75923 L -44.1173,-9.74075 L -44.2318,-9.71329 L -44.3405,-9.66824 L -44.4408,-9.60675  L -44.5303,-9.53032 L -44.6068,-9.44083 L -44.6682,-9.34048 L -44.7133,-9.23175 L -44.7408,-9.11732 L -44.75,-9  L -44.7408,-8.88266 L -44.7133,-8.76823 L -44.6682,-8.6595 L -44.6068,-8.55916 L -44.5303,-8.46967 L -44.4408,-8.39323  L -44.3405,-8.33174 L -44.2318,-8.2867 L -44.1173,-8.25923 L -43.8827,-8.24075 L -43.7682,-8.21329 L -43.6595,-8.16824  L -43.5592,-8.10675 L -43.4697,-8.03032 L -43.3932,-7.94083 L -43.3317,-7.84048 L -43.2867,-7.73175 L -43.2592,-7.61732  L -43.25,-7.5 L -43.2592,-7.38266 L -43.2867,-7.26823 L -43.3317,-7.1595 L -43.3932,-7.05916 L -43.4697,-6.96967  L -43.5592,-6.89323 L -43.6595,-6.83174 L -43.7682,-6.7867 L -43.8827,-6.75923 L -44.1173,-6.74075 L -44.2318,-6.71329  L -44.3405,-6.66824 L -44.4408,-6.60675 L -44.5303,-6.53032 L -44.6068,-6.44083 L -44.6682,-6.34048 L -44.7133,-6.23175  L -44.7408,-6.11732 L -44.75,-6 L -44.7408,-5.88266 L -44.7133,-5.76823 L -44.6682,-5.6595 L -44.6068,-5.55916  L -44.5303,-5.46967 L -44.4408,-5.39323 L -44.3405,-5.33174 L -44.2318,-5.2867 L -44.1173,-5.25923 L -43.8827,-5.24075  L -43.7682,-5.21329 L -43.6595,-5.16824 L -43.5592,-5.10675 L -43.4697,-5.03032 L -43.3932,-4.94083 L -43.3317,-4.84048  L -43.2867,-4.73175 L -43.2592,-4.61732 L -43.25,-4.5 L -43.2592,-4.38266 L -43.2867,-4.26823 L -43.3317,-4.1595  L -43.3932,-4.05916 L -43.4697,-3.96967 L -43.5592,-3.89323 L -43.6595,-3.83174 L -43.7682,-3.7867 L -43.8827,-3.75923  L -44.1173,-3.74075 L -44.2318,-3.71329 L -44.3405,-3.66824 L -44.4408,-3.60675 L -44.5303,-3.53032 L -44.6068,-3.44083  L -44.6682,-3.34048 L -44.7133,-3.23175 L -44.7408,-3.11732 L -44.75,-3 L -44.7408,-2.88266 L -44.7133,-2.76823  L -44.6682,-2.6595 L -44.6068,-2.55916 L -44.5303,-2.46967 L -44.4408,-2.39323 L -44.3405,-2.33174 L -44.2318,-2.2867  L -44.1173,-2.25923 L -43.8827,-2.24075 L -43.7682,-2.21329 L -43.6595,-2.16824 L -43.5592,-2.10675 L -43.4697,-2.03032  L -43.3932,-1.94083 L -43.3317,-1.84048 L -43.2867,-1.73175 L -43.2592,-1.61732 L -43.25,-1.5 L -43.2592,-1.38266  L -43.2867,-1.26823 L -43.3317,-1.1595 L -43.3932,-1.05916 L -43.4697,-0.969666 L -43.5592,-0.893234 L -43.6595,-0.831741  L -43.7682,-0.786697 L -43.8827,-0.759232 L -44.1173,-0.740753 L -44.2318,-0.713287 L -44.3405,-0.668243 L -44.4408,-0.60675  L -44.5303,-0.530319 L -44.6068,-0.440826 L -44.6682,-0.340485 L -44.7133,-0.23175 L -44.7408,-0.117325 L -44.75,-0  L -44.7408,0.117325 L -44.7133,0.23175 L -44.6682,0.340485 L -44.6068,0.440826 L -44.5303,0.530319 L -44.4408,0.60675  L -44.3405,0.668243 L -44.2318,0.713287 L -44.1173,0.740753 L -43.8827,0.759232 L -43.7682,0.786697 L -43.6595,0.831741  L -43.5592,0.893234 L -43.4697,0.969666 L -43.3932,1.05916 L -43.3317,1.1595 L -43.2867,1.26823 L -43.2592,1.38266  L -43.25,1.5 L -43.2592,1.61732 L -43.2867,1.73175 L -43.3317,1.84048 L -43.3932,1.94083 L -43.4697,2.03032  L -43.5592,2.10675 L -43.6595,2.16824 L -43.7682,2.21329 L -43.8827,2.24075 L -44.1173,2.25923 L -44.2318,2.2867  L -44.3405,2.33174 L -44.4408,2.39323 L -44.5303,2.46967 L -44.6068,2.55916 L -44.6682,2.6595 L -44.7133,2.76823  L -44.7408,2.88266 L -44.75,3 L -44.7408,3.11732 L -44.7133,3.23175 L -44.6682,3.34048 L -44.6068,3.44083  L -44.5303,3.53032 L -44.4408,3.60675 L -44.3405,3.66824 L -44.2318,3.71329 L -44.1173,3.74075 L -43.8827,3.75923  L -43.7682,3.7867 L -43.6595,3.83174 L -43.5592,3.89323 L -43.4697,3.96967 L -43.3932,4.05916 L -43.3317,4.1595  L -43.2867,4.26823 L -43.2592,4.38266 L -43.25,4.5 L -43.2592,4.61732 L -43.2867,4.73175 L -43.3317,4.84048  L -43.3932,4.94083 L -43.4697,5.03032 L -43.5592,5.10675 L -43.6595,5.16824 L -43.7682,5.21329 L -43.8827,5.24075  L -44.1173,5.25923 L -44.2318,5.2867 L -44.3405,5.33174 L -44.4408,5.39323 L -44.5303,5.46967 L -44.6068,5.55916  L -44.6682,5.6595 L -44.7133,5.76823 L -44.7408,5.88266 L -44.75,6 L -44.7408,6.11732 L -44.7133,6.23175  L -44.6682,6.34048 L -44.6068,6.44083 L -44.5303,6.53032 L -44.4408,6.60675 L -44.3405,6.66824 L -44.2318,6.71329  L -44.1173,6.74075 L -43.8827,6.75923 L -43.7682,6.7867 L -43.6595,6.83174 L -43.5592,6.89323 L -43.4697,6.96967  L -43.3932,7.05916 L -43.3317,7.1595 L -43.2867,7.26823 L -43.2592,7.38266 L -43.25,7.5 L -43.2592,7.61732  L -43.2867,7.73175 L -43.3317,7.84048 L -43.3932,7.94083 L -43.4697,8.03032 L -43.5592,8.10675 L -43.6595,8.16824  L -43.7682,8.21329 L -43.8827,8.24075 L -44.1173,8.25923 L -44.2318,8.2867 L -44.3405,8.33174 L -44.4408,8.39323  L -44.5303,8.46967 L -44.6068,8.55916 L -44.6682,8.6595 L -44.7133,8.76823 L -44.7408,8.88266 L -44.75,9  L -44.7408,9.11732 L -44.7133,9.23175 L -44.6682,9.34048 L -44.6068,9.44083 L -44.5303,9.53032 L -44.4408,9.60675  L -44.3405,9.66824 L -44.2318,9.71329 L -44.1173,9.74075 L -43.8827,9.75923 L -43.7682,9.7867 L -43.6595,9.83174  L -43.5592,9.89323 L -43.4697,9.96967 L -43.3932,10.0592 L -43.3317,10.1595 L -43.2867,10.2682 L -43.2592,10.3827  L -43.25,10.5 L 44,10.5 z M -7.26823,-7.46329 L -7.1595,-7.41824 L -7.05916,-7.35675 L -6.96967,-7.28032 L -6.89323,-7.19083 L -6.83174,-7.09048  L -6.7867,-6.98175 L -6.75923,-6.86732 L -6.74075,-6.63266 L -6.71329,-6.51823 L -6.66824,-6.4095 L -6.60675,-6.30916  L -6.53032,-6.21967 L -6.44083,-6.14323 L -6.34048,-6.08174 L -6.23175,-6.0367 L -6.11732,-6.00923 L -6,-6  L -5.88266,-6.00923 L -5.76823,-6.0367 L -5.6595,-6.08174 L -5.55916,-6.14323 L -5.46967,-6.21967 L -5.39323,-6.30916  L -5.33174,-6.4095 L -5.2867,-6.51823 L -5.25923,-6.63266 L -5.24075,-6.86732 L -5.21329,-6.98175 L -5.16824,-7.09048  L -5.10675,-7.19083 L -5.03032,-7.28032 L -4.94083,-7.35675 L -4.84048,-7.41824 L -4.73175,-7.46329 L -4.61732,-7.49075  L -4.5,-7.5 L -4.38266,-7.49075 L -4.26823,-7.46329 L -4.1595,-7.41824 L -4.05916,-7.35675 L -3.96967,-7.28032  L -3.89323,-7.19083 L -3.83174,-7.09048 L -3.7867,-6.98175 L -3.75923,-6.86732 L -3.74075,-6.63266 L -3.71329,-6.51823  L -3.66824,-6.4095 L -3.60675,-6.30916 L -3.53032,-6.21967 L -3.44083,-6.14323 L -3.34048,-6.08174 L -3.23175,-6.0367  L -3.11732,-6.00923 L -3,-6 L -2.88266,-6.00923 L -2.76823,-6.0367 L -2.6595,-6.08174 L -2.55916,-6.14323  L -2.46967,-6.21967 L -2.39323,-6.30916 L -2.33174,-6.4095 L -2.2867,-6.51823 L -2.25923,-6.63266 L -2.24075,-6.86732  L -2.21329,-6.98175 L -2.16824,-7.09048 L -2.10675,-7.19083 L -2.03032,-7.28032 L -1.94083,-7.35675 L -1.84048,-7.41824  L -1.73175,-7.46329 L -1.61732,-7.49075 L -1.5,-7.5 L -1.38266,-7.49075 L -1.26823,-7.46329 L -1.1595,-7.41824  L -1.05916,-7.35675 L -0.969666,-7.28032 L -0.893234,-7.19083 L -0.831741,-7.09048 L -0.786697,-6.98175 L -0.759232,-6.86732  L -0.740753,-6.63266 L -0.713287,-6.51823 L -0.668243,-6.4095 L -0.60675,-6.30916 L -0.530319,-6.21967 L -0.440826,-6.14323  L -0.340485,-6.08174 L -0.23175,-6.0367 L -0.117325,-6.00923 L 0,-6 L 0.117325,-6.00923 L 0.23175,-6.0367  L 0.340485,-6.08174 L 0.440826,-6.14323 L 0.530319,-6.21967 L 0.60675,-6.30916 L 0.668243,-6.4095 L 0.713287,-6.51823  L 0.740753,-6.63266 L 0.759232,-6.86732 L 0.786697,-6.98175 L 0.831741,-7.09048 L 0.893234,-7.19083 L 0.969666,-7.28032  L 1.05916,-7.35675 L 1.1595,-7.41824 L 1.26823,-7.46329 L 1.38266,-7.49075 L 1.5,-7.5 L 1.61732,-7.49075  L 1.73175,-7.46329 L 1.84048,-7.41824 L 1.94083,-7.35675 L 2.03032,-7.28032 L 2.10675,-7.19083 L 2.16824,-7.09048  L 2.21329,-6.98175 L 2.24075,-6.86732 L 2.25923,-6.63266 L 2.2867,-6.51823 L 2.33174,-6.4095 L 2.39323,-6.30916  L 2.46967,-6.21967 L 2.55916,-6.14323 L 2.6595,-6.08174 L 2.76823,-6.0367 L 2.88266,-6.00923 L 3,-6  L 3.11732,-6.00923 L 3.23175,-6.0367 L 3.34048,-6.08174 L 3.44083,-6.14323 L 3.53032,-6.21967 L 3.60675,-6.30916  L 3.66824,-6.4095 L 3.71329,-6.51823 L 3.74075,-6.63266 L 3.75923,-6.86732 L 3.7867,-6.98175 L 3.83174,-7.09048  L 3.89323,-7.19083 L 3.96967,-7.28032 L 4.05916,-7.35675 L 4.1595,-7.41824 L 4.26823,-7.46329 L 4.38266,-7.49075  L 4.5,-7.5 L 4.61732,-7.49075 L 4.73175,-7.46329 L 4.84048,-7.41824 L 4.94083,-7.35675 L 5.03032,-7.28032  L 5.10675,-7.19083 L 5.16824,-7.09048 L 5.21329,-6.98175 L 5.24075,-6.86732 L 5.25923,-6.63266 L 5.2867,-6.51823  L 5.33174,-6.4095 L 5.39323,-6.30916 L 5.46967,-6.21967 L 5.55916,-6.14323 L 5.6595,-6.08174 L 5.76823,-6.0367  L 5.88266,-6.00923 L 6,-6 L 6.11732,-6.00923 L 6.23175,-6.0367 L 6.34048,-6.08174 L 6.44083,-6.14323  L 6.53032,-6.21967 L 6.60675,-6.30916 L 6.66824,-6.4095 L 6.71329,-6.51823 L 6.74075,-6.63266 L 6.75923,-6.86732  L 6.7867,-6.98175 L 6.83174,-7.09048 L 6.89323,-7.19083 L 6.96967,-7.28032 L 7.05916,-7.35675 L 7.1595,-7.41824  L 7.26823,-7.46329 L 7.38266,-7.49075 L 7.5,-7.5 L 7.61732,-7.49075 L 7.73175,-7.46329 L 7.84048,-7.41824  L 7.94083,-7.35675 L 8.03032,-7.28032 L 8.10675,-7.19083 L 8.16824,-7.09048 L 8.21329,-6.98175 L 8.24075,-6.86732  L 8.25923,-6.63266 L 8.2867,-6.51823 L 8.33174,-6.4095 L 8.39323,-6.30916 L 8.46967,-6.21967 L 8.55916,-6.14323  L 8.6595,-6.08174 L 8.76823,-6.0367 L 8.88266,-6.00923 L 9,-6 L 9.11732,-6.00923 L 9.23175,-6.0367  L 9.34048,-6.08174 L 9.44083,-6.14323 L 9.53032,-6.21967 L 9.60675,-6.30916 L 9.66824,-6.4095 L 9.71329,-6.51823  L 9.74075,-6.63266 L 9.75923,-6.86732 L 9.7867,-6.98175 L 9.83174,-7.09048 L 9.89323,-7.19083 L 9.96967,-7.28032  L 10.0592,-7.35675 L 10.1595,-7.41824 L 10.2682,-7.46329 L 10.3827,-7.49075 L 10.5,-7.5 L 10.6173,-7.49075  L 10.7318,-7.46329 L 10.8405,-7.41824 L 10.9408,-7.35675 L 11.0303,-7.28032 L 11.1068,-7.19083 L 11.1682,-7.09048  L 11.2133,-6.98175 L 11.2408,-6.86732 L 11.2592,-6.63266 L 11.2867,-6.51823 L 11.3317,-6.4095 L 11.3932,-6.30916  L 11.4697,-6.21967 L 11.5592,-6.14323 L 11.6595,-6.08174 L 11.7682,-6.0367 L 11.8827,-6.00923 L 12,-6  L 12.1173,-6.00923 L 12.2318,-6.0367 L 12.3405,-6.08174 L 12.4408,-6.14323 L 12.5303,-6.21967 L 12.6068,-6.30916  L 12.6682,-6.4095 L 12.7133,-6.51823 L 12.7408,-6.63266 L 12.7592,-6.86732 L 12.7867,-6.98175 L 12.8317,-7.09048  L 12.8932,-7.19083 L 12.9697,-7.28032 L 13.0592,-7.35675 L 13.1595,-7.41824 L 13.2682,-7.46329 L 13.3827,-7.49075  L 13.5,-7.5 L 13.6173,-7.49075 L 13.7318,-7.46329 L 13.8405,-7.41824 L 13.9408,-7.35675 L 14.0303,-7.28032  L 14.1068,-7.19083 L 14.1682,-7.09048 L 14.2133,-6.98175 L 14.2408,-6.86732 L 14.2592,-6.63266 L 14.2867,-6.51823  L 14.3317,-6.4095 L 14.3932,-6.30916 L 14.4697,-6.21967 L 14.5592,-6.14323 L 14.6595,-6.08174 L 14.7682,-6.0367  L 14.8827,-6.00923 L 15,-6 L 15.1173,-6.00923 L 15.2318,-6.0367 L 15.3405,-6.08174 L 15.4408,-6.14323  L 15.5303,-6.21967 L 15.6068,-6.30916 L 15.6682,-6.4095 L 15.7133,-6.51823 L 15.7408,-6.63266 L 15.7592,-6.86732  L 15.7867,-6.98175 L 15.8317,-7.09048 L 15.8932,-7.19083 L 15.9697,-7.28032 L 16.0592,-7.35675 L 16.1595,-7.41824  L 16.2682,-7.46329 L 16.3827,-7.49075 L 16.5,-7.5 L 16.6173,-7.49075 L 16.7318,-7.46329 L 16.8405,-7.41824  L 16.9408,-7.35675 L 17.0303,-7.28032 L 17.1068,-7.19083 L 17.1682,-7.09048 L 17.2133,-6.98175 L 17.2408,-6.86732  L 17.2592,-6.63266 L 17.2867,-6.51823 L 17.3317,-6.4095 L 17.3932,-6.30916 L 17.4697,-6.21967 L 17.5592,-6.14323  L 17.6595,-6.08174 L 17.7682,-6.0367 L 17.8827,-6.00923 L 18,-6 L 18.1173,-6.00923 L 18.2318,-6.0367  L 18.3405,-6.08174 L 18.4408,-6.14323 L 18.5303,-6.21967 L 18.6068,-6.30916 L 18.6682,-6.4095 L 18.7133,-6.51823  L 18.7408,-6.63266 L 18.7592,-6.86732 L 18.7867,-6.98175 L 18.8317,-7.09048 L 18.8932,-7.19083 L 18.9697,-7.28032  L 19.0592,-7.35675 L 19.1595,-7.41824 L 19.2682,-7.46329 L 19.3827,-7.49075 L 19.5,-7.5 L 19.6173,-7.49075  L 19.7318,-7.46329 L 19.8405,-7.41824 L 19.9408,-7.35675 L 20.0303,-7.28032 L 20.1068,-7.19083 L 20.1682,-7.09048  L 20.2133,-6.98175 L 20.2408,-6.86732 L 20.2592,-6.63266 L 20.2867,-6.51823 L 20.3317,-6.4095 L 20.3932,-6.30916  L 20.4697,-6.21967 L 20.5592,-6.14323 L 20.6595,-6.08174 L 20.7682,-6.0367 L 20.8827,-6.00923 L 21,-6  L 21.1173,-6.00923 L 21.2318,-6.0367 L 21.3405,-6.08174 L 21.4408,-6.14323 L 21.5303,-6.21967 L 21.6068,-6.30916  L 21.6682,-6.4095 L 21.7133,-6.51823 L 21.7408,-6.63266 L 21.7592,-6.86732 L 21.7867,-6.98175 L 21.8317,-7.09048  L 21.8932,-7.19083 L 21.9697,-7.28032 L 22.0592,-7.35675 L 22.1595,-7.41824 L 22.2682,-7.46329 L 22.3827,-7.49075  L 22.5,-7.5 L 22.6173,-7.49075 L 22.7318,-7.46329 L 22.8405,-7.41824 L 22.9408,-7.35675 L 23.0303,-7.28032  L 23.1068,-7.19083 L 23.1682,-7.09048 L 23.2133,-6.98175 L 23.2408,-6.86732 L 23.2592,-6.63266 L 23.2867,-6.51823  L 23.3317,-6.4095 L 23.3932,-6.30916 L 23.4697,-6.21967 L 23.5592,-6.14323 L 23.6595,-6.08174 L 23.7682,-6.0367  L 23.8827,-6.00923 L 24,-6 L 24.1173,-6.00923 L 24.2318,-6.0367 L 24.3405,-6.08174 L 24.4408,-6.14323  L 24.5303,-6.21967 L 24.6068,-6.30916 L 24.6682,-6.4095 L 24.7133,-6.51823 L 24.7408,-6.63266 L 24.7592,-6.86732  L 24.7867,-6.98175 L 24.8317,-7.09048 L 24.8932,-7.19083 L 24.9697,-7.28032 L 25.0592,-7.35675 L 25.1595,-7.41824  L 25.2682,-7.46329 L 25.3827,-7.49075 L 25.5,-7.5 L 25.6173,-7.49075 L 25.7318,-7.46329 L 25.8405,-7.41824  L 25.9408,-7.35675 L 26.0303,-7.28032 L 26.1068,-7.19083 L 26.1682,-7.09048 L 26.2133,-6.98175 L 26.2408,-6.86732  L 26.2592,-6.63266 L 26.2867,-6.51823 L 26.3317,-6.4095 L 26.3932,-6.30916 L 26.4697,-6.21967 L 26.5592,-6.14323  L 26.6595,-6.08174 L 26.7682,-6.0367 L 26.8827,-6.00923 L 27,-6 L 27.1173,-6.00923 L 27.2318,-6.0367  L 27.3405,-6.08174 L 27.4408,-6.14323 L 27.5303,-6.21967 L 27.6068,-6.30916 L 27.6682,-6.4095 L 27.7133,-6.51823  L 27.7408,-6.63266 L 27.7592,-6.86732 L 27.7867,-6.98175 L 27.8317,-7.09048 L 27.8932,-7.19083 L 27.9697,-7.28032  L 28.0592,-7.35675 L 28.1595,-7.41824 L 28.2682,-7.46329 L 28.3827,-7.49075 L 28.5,-7.5 L 28.6173,-7.49075  L 28.7318,-7.46329 L 28.8405,-7.41824 L 28.9408,-7.35675 L 29.0303,-7.28032 L 29.1068,-7.19083 L 29.1682,-7.09048  L 29.2133,-6.98175 L 29.2408,-6.86732 L 29.2592,-6.63266 L 29.2867,-6.51823 L 29.3317,-6.4095 L 29.3932,-6.30916  L 29.4697,-6.21967 L 29.5592,-6.14323 L 29.6595,-6.08174 L 29.7682,-6.0367 L 29.8827,-6.00923 L 30,-6  L 30.1173,-6.00923 L 30.2318,-6.0367 L 30.3405,-6.08174 L 30.4408,-6.14323 L 30.5303,-6.21967 L 30.6068,-6.30916  L 30.6682,-6.4095 L 30.7133,-6.51823 L 30.7408,-6.63266 L 30.7592,-6.86732 L 30.7867,-6.98175 L 30.8317,-7.09048  L 30.8932,-7.19083 L 30.9697,-7.28032 L 31.0592,-7.35675 L 31.1595,-7.41824 L 31.2682,-7.46329 L 31.3827,-7.49075  L 31.5,-7.5 L 31.6173,-7.49075 L 31.7318,-7.46329 L 31.8405,-7.41824 L 31.9408,-7.35675 L 32.0303,-7.28032  L 32.1068,-7.19083 L 32.1682,-7.09048 L 32.2133,-6.98175 L 32.2408,-6.86732 L 32.2592,-6.63266 L 32.2867,-6.51823  L 32.3317,-6.4095 L 32.3932,-6.30916 L 32.4697,-6.21967 L 32.5592,-6.14323 L 32.6595,-6.08174 L 32.7682,-6.0367  L 32.8827,-6.00923 L 33,-6 L 33.1173,-6.00923 L 33.2318,-6.0367 L 33.3405,-6.08174 L 33.4408,-6.14323  L 33.5303,-6.21967 L 33.6068,-6.30916 L 33.6682,-6.4095 L 33.7133,-6.51823 L 33.7408,-6.63266 L 33.7592,-6.86732  L 33.7867,-6.98175 L 33.8317,-7.09048 L 33.8932,-7.19083 L 33.9697,-7.28032 L 34.0592,-7.35675 L 34.1595,-7.41824  L 34.2682,-7.46329 L 34.3827,-7.49075 L 34.5,-7.5 L 34.6173,-7.49075 L 34.7318,-7.46329 L 34.8405,-7.41824  L 34.9408,-7.35675 L 35.0303,-7.28032 L 35.1068,-7.19083 L 35.1682,-7.09048 L 35.2133,-6.98175 L 35.2408,-6.86732  L 35.2592,-6.63266 L 35.2867,-6.51823 L 35.3317,-6.4095 L 35.3932,-6.30916 L 35.4697,-6.21967 L 35.5592,-6.14323  L 35.6595,-6.08174 L 35.7682,-6.0367 L 35.8827,-6.00923 L 36,-6 L 36.1173,-6.00923 L 36.2318,-6.0367  L 36.3405,-6.08174 L 36.4408,-6.14323 L 36.5303,-6.21967 L 36.6068,-6.30916 L 36.6682,-6.4095 L 36.7133,-6.51823  L 36.7408,-6.63266 L 36.7483,-6.72826 L 36.9635,-6.67657 L 37.181,-6.5865 L 37.3817,-6.46352 L 37.5607,-6.31065  L 37.7135,-6.13167 L 37.8365,-5.93098 L 37.9266,-5.71352 L 37.9815,-5.48465 L 38,-5.25 L 38,5.25  L 37.9815,5.48465 L 37.9266,5.71352 L 37.8365,5.93098 L 37.7135,6.13167 L 37.5607,6.31065 L 37.3817,6.46352  L 37.181,6.5865 L 36.9635,6.67657 L 36.7483,6.72826 L 36.75,6.75 L 36.7408,6.86732 L 36.7133,6.98175  L 36.6682,7.09048 L 36.6068,7.19083 L 36.5303,7.28032 L 36.4408,7.35675 L 36.3405,7.41824 L 36.2318,7.46329  L 36.1173,7.49075 L 36,7.5 L 35.8827,7.49075 L 35.7682,7.46329 L 35.6595,7.41824 L 35.5592,7.35675  L 35.4697,7.28032 L 35.3932,7.19083 L 35.3317,7.09048 L 35.2867,6.98175 L 35.2592,6.86732 L 35.2408,6.63266  L 35.2133,6.51823 L 35.1682,6.4095 L 35.1068,6.30916 L 35.0303,6.21967 L 34.9408,6.14323 L 34.8405,6.08174  L 34.7318,6.0367 L 34.6173,6.00923 L 34.5,6 L 34.3827,6.00923 L 34.2682,6.0367 L 34.1595,6.08174  L 34.0592,6.14323 L 33.9697,6.21967 L 33.8932,6.30916 L 33.8317,6.4095 L 33.7867,6.51823 L 33.7592,6.63266  L 33.7408,6.86732 L 33.7133,6.98175 L 33.6682,7.09048 L 33.6068,7.19083 L 33.5303,7.28032 L 33.4408,7.35675  L 33.3405,7.41824 L 33.2318,7.46329 L 33.1173,7.49075 L 33,7.5 L 32.8827,7.49075 L 32.7682,7.46329  L 32.6595,7.41824 L 32.5592,7.35675 L 32.4697,7.28032 L 32.3932,7.19083 L 32.3317,7.09048 L 32.2867,6.98175  L 32.2592,6.86732 L 32.2408,6.63266 L 32.2133,6.51823 L 32.1682,6.4095 L 32.1068,6.30916 L 32.0303,6.21967  L 31.9408,6.14323 L 31.8405,6.08174 L 31.7318,6.0367 L 31.6173,6.00923 L 31.5,6 L 31.3827,6.00923  L 31.2682,6.0367 L 31.1595,6.08174 L 31.0592,6.14323 L 30.9697,6.21967 L 30.8932,6.30916 L 30.8317,6.4095  L 30.7867,6.51823 L 30.7592,6.63266 L 30.7408,6.86732 L 30.7133,6.98175 L 30.6682,7.09048 L 30.6068,7.19083  L 30.5303,7.28032 L 30.4408,7.35675 L 30.3405,7.41824 L 30.2318,7.46329 L 30.1173,7.49075 L 30,7.5  L 29.8827,7.49075 L 29.7682,7.46329 L 29.6595,7.41824 L 29.5592,7.35675 L 29.4697,7.28032 L 29.3932,7.19083  L 29.3317,7.09048 L 29.2867,6.98175 L 29.2592,6.86732 L 29.2408,6.63266 L 29.2133,6.51823 L 29.1682,6.4095  L 29.1068,6.30916 L 29.0303,6.21967 L 28.9408,6.14323 L 28.8405,6.08174 L 28.7318,6.0367 L 28.6173,6.00923  L 28.5,6 L 28.3827,6.00923 L 28.2682,6.0367 L 28.1595,6.08174 L 28.0592,6.14323 L 27.9697,6.21967  L 27.8932,6.30916 L 27.8317,6.4095 L 27.7867,6.51823 L 27.7592,6.63266 L 27.7408,6.86732 L 27.7133,6.98175  L 27.6682,7.09048 L 27.6068,7.19083 L 27.5303,7.28032 L 27.4408,7.35675 L 27.3405,7.41824 L 27.2318,7.46329  L 27.1173,7.49075 L 27,7.5 L 26.8827,7.49075 L 26.7682,7.46329 L 26.6595,7.41824 L 26.5592,7.35675  L 26.4697,7.28032 L 26.3932,7.19083 L 26.3317,7.09048 L 26.2867,6.98175 L 26.2592,6.86732 L 26.2408,6.63266  L 26.2133,6.51823 L 26.1682,6.4095 L 26.1068,6.30916 L 26.0303,6.21967 L 25.9408,6.14323 L 25.8405,6.08174  L 25.7318,6.0367 L 25.6173,6.00923 L 25.5,6 L 25.3827,6.00923 L 25.2682,6.0367 L 25.1595,6.08174  L 25.0592,6.14323 L 24.9697,6.21967 L 24.8932,6.30916 L 24.8317,6.4095 L 24.7867,6.51823 L 24.7592,6.63266  L 24.7408,6.86732 L 24.7133,6.98175 L 24.6682,7.09048 L 24.6068,7.19083 L 24.5303,7.28032 L 24.4408,7.35675  L 24.3405,7.41824 L 24.2318,7.46329 L 24.1173,7.49075 L 24,7.5 L 23.8827,7.49075 L 23.7682,7.46329  L 23.6595,7.41824 L 23.5592,7.35675 L 23.4697,7.28032 L 23.3932,7.19083 L 23.3317,7.09048 L 23.2867,6.98175  L 23.2592,6.86732 L 23.2408,6.63266 L 23.2133,6.51823 L 23.1682,6.4095 L 23.1068,6.30916 L 23.0303,6.21967  L 22.9408,6.14323 L 22.8405,6.08174 L 22.7318,6.0367 L 22.6173,6.00923 L 22.5,6 L 22.3827,6.00923  L 22.2682,6.0367 L 22.1595,6.08174 L 22.0592,6.14323 L 21.9697,6.21967 L 21.8932,6.30916 L 21.8317,6.4095  L 21.7867,6.51823 L 21.7592,6.63266 L 21.7408,6.86732 L 21.7133,6.98175 L 21.6682,7.09048 L 21.6068,7.19083  L 21.5303,7.28032 L 21.4408,7.35675 L 21.3405,7.41824 L 21.2318,7.46329 L 21.1173,7.49075 L 21,7.5  L 20.8827,7.49075 L 20.7682,7.46329 L 20.6595,7.41824 L 20.5592,7.35675 L 20.4697,7.28032 L 20.3932,7.19083  L 20.3317,7.09048 L 20.2867,6.98175 L 20.2592,6.86732 L 20.2408,6.63266 L 20.2133,6.51823 L 20.1682,6.4095  L 20.1068,6.30916 L 20.0303,6.21967 L 19.9408,6.14323 L 19.8405,6.08174 L 19.7318,6.0367 L 19.6173,6.00923  L 19.5,6 L 19.3827,6.00923 L 19.2682,6.0367 L 19.1595,6.08174 L 19.0592,6.14323 L 18.9697,6.21967  L 18.8932,6.30916 L 18.8317,6.4095 L 18.7867,6.51823 L 18.7592,6.63266 L 18.7408,6.86732 L 18.7133,6.98175  L 18.6682,7.09048 L 18.6068,7.19083 L 18.5303,7.28032 L 18.4408,7.35675 L 18.3405,7.41824 L 18.2318,7.46329  L 18.1173,7.49075 L 18,7.5 L 17.8827,7.49075 L 17.7682,7.46329 L 17.6595,7.41824 L 17.5592,7.35675  L 17.4697,7.28032 L 17.3932,7.19083 L 17.3317,7.09048 L 17.2867,6.98175 L 17.2592,6.86732 L 17.2408,6.63266  L 17.2133,6.51823 L 17.1682,6.4095 L 17.1068,6.30916 L 17.0303,6.21967 L 16.9408,6.14323 L 16.8405,6.08174  L 16.7318,6.0367 L 16.6173,6.00923 L 16.5,6 L 16.3827,6.00923 L 16.2682,6.0367 L 16.1595,6.08174  L 16.0592,6.14323 L 15.9697,6.21967 L 15.8932,6.30916 L 15.8317,6.4095 L 15.7867,6.51823 L 15.7592,6.63266  L 15.7408,6.86732 L 15.7133,6.98175 L 15.6682,7.09048 L 15.6068,7.19083 L 15.5303,7.28032 L 15.4408,7.35675  L 15.3405,7.41824 L 15.2318,7.46329 L 15.1173,7.49075 L 15,7.5 L 14.8827,7.49075 L 14.7682,7.46329  L 14.6595,7.41824 L 14.5592,7.35675 L 14.4697,7.28032 L 14.3932,7.19083 L 14.3317,7.09048 L 14.2867,6.98175  L 14.2592,6.86732 L 14.2408,6.63266 L 14.2133,6.51823 L 14.1682,6.4095 L 14.1068,6.30916 L 14.0303,6.21967  L 13.9408,6.14323 L 13.8405,6.08174 L 13.7318,6.0367 L 13.6173,6.00923 L 13.5,6 L 13.3827,6.00923  L 13.2682,6.0367 L 13.1595,6.08174 L 13.0592,6.14323 L 12.9697,6.21967 L 12.8932,6.30916 L 12.8317,6.4095  L 12.7867,6.51823 L 12.7592,6.63266 L 12.7408,6.86732 L 12.7133,6.98175 L 12.6682,7.09048 L 12.6068,7.19083  L 12.5303,7.28032 L 12.4408,7.35675 L 12.3405,7.41824 L 12.2318,7.46329 L 12.1173,7.49075 L 12,7.5  L 11.8827,7.49075 L 11.7682,7.46329 L 11.6595,7.41824 L 11.5592,7.35675 L 11.4697,7.28032 L 11.3932,7.19083  L 11.3317,7.09048 L 11.2867,6.98175 L 11.2592,6.86732 L 11.2408,6.63266 L 11.2133,6.51823 L 11.1682,6.4095  L 11.1068,6.30916 L 11.0303,6.21967 L 10.9408,6.14323 L 10.8405,6.08174 L 10.7318,6.0367 L 10.6173,6.00923  L 10.5,6 L 10.3827,6.00923 L 10.2682,6.0367 L 10.1595,6.08174 L 10.0592,6.14323 L 9.96967,6.21967  L 9.89323,6.30916 L 9.83174,6.4095 L 9.7867,6.51823 L 9.75923,6.63266 L 9.74075,6.86732 L 9.71329,6.98175  L 9.66824,7.09048 L 9.60675,7.19083 L 9.53032,7.28032 L 9.44083,7.35675 L 9.34048,7.41824 L 9.23175,7.46329  L 9.11732,7.49075 L 9,7.5 L 8.88266,7.49075 L 8.76823,7.46329 L 8.6595,7.41824 L 8.55916,7.35675  L 8.46967,7.28032 L 8.39323,7.19083 L 8.33174,7.09048 L 8.2867,6.98175 L 8.25923,6.86732 L 8.24075,6.63266  L 8.21329,6.51823 L 8.16824,6.4095 L 8.10675,6.30916 L 8.03032,6.21967 L 7.94083,6.14323 L 7.84048,6.08174  L 7.73175,6.0367 L 7.61732,6.00923 L 7.5,6 L 7.38266,6.00923 L 7.26823,6.0367 L 7.1595,6.08174  L 7.05916,6.14323 L 6.96967,6.21967 L 6.89323,6.30916 L 6.83174,6.4095 L 6.7867,6.51823 L 6.75923,6.63266  L 6.74075,6.86732 L 6.71329,6.98175 L 6.66824,7.09048 L 6.60675,7.19083 L 6.53032,7.28032 L 6.44083,7.35675  L 6.34048,7.41824 L 6.23175,7.46329 L 6.11732,7.49075 L 6,7.5 L 5.88266,7.49075 L 5.76823,7.46329  L 5.6595,7.41824 L 5.55916,7.35675 L 5.46967,7.28032 L 5.39323,7.19083 L 5.33174,7.09048 L 5.2867,6.98175  L 5.25923,6.86732 L 5.24075,6.63266 L 5.21329,6.51823 L 5.16824,6.4095 L 5.10675,6.30916 L 5.03032,6.21967  L 4.94083,6.14323 L 4.84048,6.08174 L 4.73175,6.0367 L 4.61732,6.00923 L 4.5,6 L 4.38266,6.00923  L 4.26823,6.0367 L 4.1595,6.08174 L 4.05916,6.14323 L 3.96967,6.21967 L 3.89323,6.30916 L 3.83174,6.4095  L 3.7867,6.51823 L 3.75923,6.63266 L 3.74075,6.86732 L 3.71329,6.98175 L 3.66824,7.09048 L 3.60675,7.19083  L 3.53032,7.28032 L 3.44083,7.35675 L 3.34048,7.41824 L 3.23175,7.46329 L 3.11732,7.49075 L 3,7.5  L 2.88266,7.49075 L 2.76823,7.46329 L 2.6595,7.41824 L 2.55916,7.35675 L 2.46967,7.28032 L 2.39323,7.19083  L 2.33174,7.09048 L 2.2867,6.98175 L 2.25923,6.86732 L 2.24075,6.63266 L 2.21329,6.51823 L 2.16824,6.4095  L 2.10675,6.30916 L 2.03032,6.21967 L 1.94083,6.14323 L 1.84048,6.08174 L 1.73175,6.0367 L 1.61732,6.00923  L 1.5,6 L 1.38266,6.00923 L 1.26823,6.0367 L 1.1595,6.08174 L 1.05916,6.14323 L 0.969666,6.21967  L 0.893234,6.30916 L 0.831741,6.4095 L 0.786697,6.51823 L 0.759232,6.63266 L 0.740753,6.86732 L 0.713287,6.98175  L 0.668243,7.09048 L 0.60675,7.19083 L 0.530319,7.28032 L 0.440826,7.35675 L 0.340485,7.41824 L 0.23175,7.46329  L 0.117325,7.49075 L 0,7.5 L -0.117325,7.49075 L -0.23175,7.46329 L -0.340485,7.41824 L -0.440826,7.35675  L -0.530319,7.28032 L -0.60675,7.19083 L -0.668243,7.09048 L -0.713287,6.98175 L -0.740753,6.86732 L -0.759232,6.63266  L -0.786697,6.51823 L -0.831741,6.4095 L -0.893234,6.30916 L -0.969666,6.21967 L -1.05916,6.14323 L -1.1595,6.08174  L -1.26823,6.0367 L -1.38266,6.00923 L -1.5,6 L -1.61732,6.00923 L -1.73175,6.0367 L -1.84048,6.08174  L -1.94083,6.14323 L -2.03032,6.21967 L -2.10675,6.30916 L -2.16824,6.4095 L -2.21329,6.51823 L -2.24075,6.63266  L -2.25923,6.86732 L -2.2867,6.98175 L -2.33174,7.09048 L -2.39323,7.19083 L -2.46967,7.28032 L -2.55916,7.35675  L -2.6595,7.41824 L -2.76823,7.46329 L -2.88266,7.49075 L -3,7.5 L -3.11732,7.49075 L -3.23175,7.46329  L -3.34048,7.41824 L -3.44083,7.35675 L -3.53032,7.28032 L -3.60675,7.19083 L -3.66824,7.09048 L -3.71329,6.98175  L -3.74075,6.86732 L -3.75923,6.63266 L -3.7867,6.51823 L -3.83174,6.4095 L -3.89323,6.30916 L -3.96967,6.21967  L -4.05916,6.14323 L -4.1595,6.08174 L -4.26823,6.0367 L -4.38266,6.00923 L -4.5,6 L -4.61732,6.00923  L -4.73175,6.0367 L -4.84048,6.08174 L -4.94083,6.14323 L -5.03032,6.21967 L -5.10675,6.30916 L -5.16824,6.4095  L -5.21329,6.51823 L -5.24075,6.63266 L -5.25923,6.86732 L -5.2867,6.98175 L -5.33174,7.09048 L -5.39323,7.19083  L -5.46967,7.28032 L -5.55916,7.35675 L -5.6595,7.41824 L -5.76823,7.46329 L -5.88266,7.49075 L -6,7.5  L -6.11732,7.49075 L -6.23175,7.46329 L -6.34048,7.41824 L -6.44083,7.35675 L -6.53032,7.28032 L -6.60675,7.19083  L -6.66824,7.09048 L -6.71329,6.98175 L -6.74075,6.86732 L -6.75923,6.63266 L -6.7867,6.51823 L -6.83174,6.4095  L -6.89323,6.30916 L -6.96967,6.21967 L -7.05916,6.14323 L -7.1595,6.08174 L -7.26823,6.0367 L -7.38266,6.00923  L -7.5,6 L -7.61732,6.00923 L -7.73175,6.0367 L -7.84048,6.08174 L -7.94083,6.14323 L -8.03032,6.21967  L -8.10675,6.30916 L -8.16824,6.4095 L -8.21329,6.51823 L -8.24075,6.63266 L -8.25923,6.86732 L -8.2867,6.98175  L -8.33174,7.09048 L -8.39323,7.19083 L -8.46967,7.28032 L -8.55916,7.35675 L -8.6595,7.41824 L -8.76823,7.46329  L -8.88266,7.49075 L -9,7.5 L -9.11732,7.49075 L -9.23175,7.46329 L -9.34048,7.41824 L -9.44083,7.35675  L -9.53032,7.28032 L -9.60675,7.19083 L -9.66824,7.09048 L -9.71329,6.98175 L -9.74075,6.86732 L -9.75923,6.63266  L -9.7867,6.51823 L -9.83174,6.4095 L -9.89323,6.30916 L -9.96967,6.21967 L -10.0592,6.14323 L -10.1595,6.08174  L -10.2682,6.0367 L -10.3827,6.00923 L -10.5,6 L -10.6173,6.00923 L -10.7318,6.0367 L -10.8405,6.08174  L -10.9408,6.14323 L -11.0303,6.21967 L -11.1068,6.30916 L -11.1682,6.4095 L -11.2133,6.51823 L -11.2408,6.63266  L -11.2592,6.86732 L -11.2867,6.98175 L -11.3317,7.09048 L -11.3932,7.19083 L -11.4697,7.28032 L -11.5592,7.35675  L -11.6595,7.41824 L -11.7682,7.46329 L -11.8827,7.49075 L -12,7.5 L -12.1173,7.49075 L -12.2318,7.46329  L -12.3405,7.41824 L -12.4408,7.35675 L -12.5303,7.28032 L -12.6068,7.19083 L -12.6682,7.09048 L -12.7133,6.98175  L -12.7408,6.86732 L -12.7592,6.63266 L -12.7867,6.51823 L -12.8317,6.4095 L -12.8932,6.30916 L -12.9697,6.21967  L -13.0592,6.14323 L -13.1595,6.08174 L -13.2682,6.0367 L -13.3827,6.00923 L -13.5,6 L -13.6173,6.00923  L -13.7318,6.0367 L -13.8405,6.08174 L -13.9408,6.14323 L -14.0303,6.21967 L -14.1068,6.30916 L -14.1682,6.4095  L -14.2133,6.51823 L -14.2408,6.63266 L -14.2592,6.86732 L -14.2867,6.98175 L -14.3317,7.09048 L -14.3932,7.19083  L -14.4697,7.28032 L -14.5592,7.35675 L -14.6595,7.41824 L -14.7682,7.46329 L -14.8827,7.49075 L -15,7.5  L -15.1173,7.49075 L -15.2318,7.46329 L -15.3405,7.41824 L -15.4408,7.35675 L -15.5303,7.28032 L -15.6068,7.19083  L -15.6682,7.09048 L -15.7133,6.98175 L -15.7408,6.86732 L -15.7592,6.63266 L -15.7867,6.51823 L -15.8317,6.4095  L -15.8932,6.30916 L -15.9697,6.21967 L -16.0592,6.14323 L -16.1595,6.08174 L -16.2682,6.0367 L -16.3827,6.00923  L -16.5,6 L -16.6173,6.00923 L -16.7318,6.0367 L -16.8405,6.08174 L -16.9408,6.14323 L -17.0303,6.21967  L -17.1068,6.30916 L -17.1682,6.4095 L -17.2133,6.51823 L -17.2408,6.63266 L -17.2592,6.86732 L -17.2867,6.98175  L -17.3317,7.09048 L -17.3932,7.19083 L -17.4697,7.28032 L -17.5592,7.35675 L -17.6595,7.41824 L -17.7682,7.46329  L -17.8827,7.49075 L -18,7.5 L -18.1173,7.49075 L -18.2318,7.46329 L -18.3405,7.41824 L -18.4408,7.35675  L -18.5303,7.28032 L -18.6068,7.19083 L -18.6682,7.09048 L -18.7133,6.98175 L -18.7408,6.86732 L -18.7592,6.63266  L -18.7867,6.51823 L -18.8317,6.4095 L -18.8932,6.30916 L -18.9697,6.21967 L -19.0592,6.14323 L -19.1595,6.08174  L -19.2682,6.0367 L -19.3827,6.00923 L -19.5,6 L -19.6173,6.00923 L -19.7318,6.0367 L -19.8405,6.08174  L -19.9408,6.14323 L -20.0303,6.21967 L -20.1068,6.30916 L -20.1682,6.4095 L -20.2133,6.51823 L -20.2408,6.63266  L -20.2592,6.86732 L -20.2867,6.98175 L -20.3317,7.09048 L -20.3932,7.19083 L -20.4697,7.28032 L -20.5592,7.35675  L -20.6595,7.41824 L -20.7682,7.46329 L -20.8827,7.49075 L -21,7.5 L -21.1173,7.49075 L -21.2318,7.46329  L -21.3405,7.41824 L -21.4408,7.35675 L -21.5303,7.28032 L -21.6068,7.19083 L -21.6682,7.09048 L -21.7133,6.98175  L -21.7408,6.86732 L -21.7592,6.63266 L -21.7867,6.51823 L -21.8317,6.4095 L -21.8932,6.30916 L -21.9697,6.21967  L -22.0592,6.14323 L -22.1595,6.08174 L -22.2682,6.0367 L -22.3827,6.00923 L -22.5,6 L -22.6173,6.00923  L -22.7318,6.0367 L -22.8405,6.08174 L -22.9408,6.14323 L -23.0303,6.21967 L -23.1068,6.30916 L -23.1682,6.4095  L -23.2133,6.51823 L -23.2408,6.63266 L -23.2592,6.86732 L -23.2867,6.98175 L -23.3317,7.09048 L -23.3932,7.19083  L -23.4697,7.28032 L -23.5592,7.35675 L -23.6595,7.41824 L -23.7682,7.46329 L -23.8827,7.49075 L -24,7.5  L -24.1173,7.49075 L -24.2318,7.46329 L -24.3405,7.41824 L -24.4408,7.35675 L -24.5303,7.28032 L -24.6068,7.19083  L -24.6682,7.09048 L -24.7133,6.98175 L -24.7408,6.86732 L -24.7592,6.63266 L -24.7867,6.51823 L -24.8317,6.4095  L -24.8932,6.30916 L -24.9697,6.21967 L -25.0592,6.14323 L -25.1595,6.08174 L -25.2682,6.0367 L -25.3827,6.00923  L -25.5,6 L -25.6173,6.00923 L -25.7318,6.0367 L -25.8405,6.08174 L -25.9408,6.14323 L -26.0303,6.21967  L -26.1068,6.30916 L -26.1682,6.4095 L -26.2133,6.51823 L -26.2408,6.63266 L -26.2592,6.86732 L -26.2867,6.98175  L -26.3317,7.09048 L -26.3932,7.19083 L -26.4697,7.28032 L -26.5592,7.35675 L -26.6595,7.41824 L -26.7682,7.46329  L -26.8827,7.49075 L -27,7.5 L -27.1173,7.49075 L -27.2318,7.46329 L -27.3405,7.41824 L -27.4408,7.35675  L -27.5303,7.28032 L -27.6068,7.19083 L -27.6682,7.09048 L -27.7133,6.98175 L -27.7408,6.86732 L -27.7592,6.63266  L -27.7867,6.51823 L -27.8317,6.4095 L -27.8932,6.30916 L -27.9697,6.21967 L -28.0592,6.14323 L -28.1595,6.08174  L -28.2682,6.0367 L -28.3827,6.00923 L -28.5,6 L -28.6173,6.00923 L -28.7318,6.0367 L -28.8405,6.08174  L -28.9408,6.14323 L -29.0303,6.21967 L -29.1068,6.30916 L -29.1682,6.4095 L -29.2133,6.51823 L -29.2408,6.63266  L -29.2592,6.86732 L -29.2867,6.98175 L -29.3317,7.09048 L -29.3932,7.19083 L -29.4697,7.28032 L -29.5592,7.35675  L -29.6595,7.41824 L -29.7682,7.46329 L -29.8827,7.49075 L -30,7.5 L -30.1173,7.49075 L -30.2318,7.46329  L -30.3405,7.41824 L -30.4408,7.35675 L -30.5303,7.28032 L -30.6068,7.19083 L -30.6682,7.09048 L -30.7133,6.98175  L -30.7408,6.86732 L -30.7592,6.63266 L -30.7867,6.51823 L -30.8317,6.4095 L -30.8932,6.30916 L -30.9697,6.21967  L -31.0592,6.14323 L -31.1595,6.08174 L -31.2682,6.0367 L -31.3827,6.00923 L -31.5,6 L -31.6173,6.00923  L -31.7318,6.0367 L -31.8405,6.08174 L -31.9408,6.14323 L -32.0303,6.21967 L -32.1068,6.30916 L -32.1682,6.4095  L -32.2133,6.51823 L -32.2408,6.63266 L -32.2592,6.86732 L -32.2867,6.98175 L -32.3317,7.09048 L -32.3932,7.19083  L -32.4697,7.28032 L -32.5592,7.35675 L -32.6595,7.41824 L -32.7682,7.46329 L -32.8827,7.49075 L -33,7.5  L -33.1173,7.49075 L -33.2318,7.46329 L -33.3405,7.41824 L -33.4408,7.35675 L -33.5303,7.28032 L -33.6068,7.19083  L -33.6682,7.09048 L -33.7133,6.98175 L -33.7408,6.86732 L -33.7592,6.63266 L -33.7867,6.51823 L -33.8317,6.4095  L -33.8932,6.30916 L -33.9697,6.21967 L -34.0592,6.14323 L -34.1595,6.08174 L -34.2682,6.0367 L -34.3827,6.00923  L -34.5,6 L -34.6173,6.00923 L -34.7318,6.0367 L -34.8405,6.08174 L -34.9408,6.14323 L -35.0303,6.21967  L -35.1068,6.30916 L -35.1682,6.4095 L -35.2133,6.51823 L -35.2408,6.63266 L -35.2592,6.86732 L -35.2867,6.98175  L -35.3317,7.09048 L -35.3932,7.19083 L -35.4697,7.28032 L -35.5592,7.35675 L -35.6595,7.41824 L -35.7682,7.46329  L -35.8827,7.49075 L -36,7.5 L -36.1173,7.49075 L -36.2318,7.46329 L -36.3405,7.41824 L -36.4408,7.35675  L -36.5303,7.28032 L -36.6068,7.19083 L -36.6682,7.09048 L -36.7133,6.98175 L -36.7408,6.86732 L -36.75,6.75  L -36.7483,6.72826 L -36.9635,6.67657 L -37.181,6.5865 L -37.3817,6.46352 L -37.5607,6.31065 L -37.7135,6.13167  L -37.8365,5.93098 L -37.9266,5.71352 L -37.9815,5.48465 L -38,5.25 L -38,-5.25 L -37.9815,-5.48465  L -37.9266,-5.71352 L -37.8365,-5.93098 L -37.7135,-6.13167 L -37.5607,-6.31065 L -37.3817,-6.46352 L -37.181,-6.5865  L -36.9635,-6.67657 L -36.7346,-6.73152 L -36.5,-6.75 L -35.25,-6.75 L -35.2408,-6.86732 L -35.2133,-6.98175  L -35.1682,-7.09048 L -35.1068,-7.19083 L -35.0303,-7.28032 L -34.9408,-7.35675 L -34.8405,-7.41824 L -34.7318,-7.46329  L -34.6173,-7.49075 L -34.5,-7.5 L -34.3827,-7.49075 L -34.2682,-7.46329 L -34.1595,-7.41824 L -34.0592,-7.35675  L -33.9697,-7.28032 L -33.8932,-7.19083 L -33.8317,-7.09048 L -33.7867,-6.98175 L -33.7592,-6.86732 L -33.7408,-6.63266  L -33.7133,-6.51823 L -33.6682,-6.4095 L -33.6068,-6.30916 L -33.5303,-6.21967 L -33.4408,-6.14323 L -33.3405,-6.08174  L -33.2318,-6.0367 L -33.1173,-6.00923 L -33,-6 L -32.8827,-6.00923 L -32.7682,-6.0367 L -32.6595,-6.08174  L -32.5592,-6.14323 L -32.4697,-6.21967 L -32.3932,-6.30916 L -32.3317,-6.4095 L -32.2867,-6.51823 L -32.2592,-6.63266  L -32.2408,-6.86732 L -32.2133,-6.98175 L -32.1682,-7.09048 L -32.1068,-7.19083 L -32.0303,-7.28032 L -31.9408,-7.35675  L -31.8405,-7.41824 L -31.7318,-7.46329 L -31.6173,-7.49075 L -31.5,-7.5 L -31.3827,-7.49075 L -31.2682,-7.46329  L -31.1595,-7.41824 L -31.0592,-7.35675 L -30.9697,-7.28032 L -30.8932,-7.19083 L -30.8317,-7.09048 L -30.7867,-6.98175  L -30.7592,-6.86732 L -30.7408,-6.63266 L -30.7133,-6.51823 L -30.6682,-6.4095 L -30.6068,-6.30916 L -30.5303,-6.21967  L -30.4408,-6.14323 L -30.3405,-6.08174 L -30.2318,-6.0367 L -30.1173,-6.00923 L -30,-6 L -29.8827,-6.00923  L -29.7682,-6.0367 L -29.6595,-6.08174 L -29.5592,-6.14323 L -29.4697,-6.21967 L -29.3932,-6.30916 L -29.3317,-6.4095  L -29.2867,-6.51823 L -29.2592,-6.63266 L -29.2408,-6.86732 L -29.2133,-6.98175 L -29.1682,-7.09048 L -29.1068,-7.19083  L -29.0303,-7.28032 L -28.9408,-7.35675 L -28.8405,-7.41824 L -28.7318,-7.46329 L -28.6173,-7.49075 L -28.5,-7.5  L -28.3827,-7.49075 L -28.2682,-7.46329 L -28.1595,-7.41824 L -28.0592,-7.35675 L -27.9697,-7.28032 L -27.8932,-7.19083  L -27.8317,-7.09048 L -27.7867,-6.98175 L -27.7592,-6.86732 L -27.7408,-6.63266 L -27.7133,-6.51823 L -27.6682,-6.4095  L -27.6068,-6.30916 L -27.5303,-6.21967 L -27.4408,-6.14323 L -27.3405,-6.08174 L -27.2318,-6.0367 L -27.1173,-6.00923  L -27,-6 L -26.8827,-6.00923 L -26.7682,-6.0367 L -26.6595,-6.08174 L -26.5592,-6.14323 L -26.4697,-6.21967  L -26.3932,-6.30916 L -26.3317,-6.4095 L -26.2867,-6.51823 L -26.2592,-6.63266 L -26.2408,-6.86732 L -26.2133,-6.98175  L -26.1682,-7.09048 L -26.1068,-7.19083 L -26.0303,-7.28032 L -25.9408,-7.35675 L -25.8405,-7.41824 L -25.7318,-7.46329  L -25.6173,-7.49075 L -25.5,-7.5 L -25.3827,-7.49075 L -25.2682,-7.46329 L -25.1595,-7.41824 L -25.0592,-7.35675  L -24.9697,-7.28032 L -24.8932,-7.19083 L -24.8317,-7.09048 L -24.7867,-6.98175 L -24.7592,-6.86732 L -24.7408,-6.63266  L -24.7133,-6.51823 L -24.6682,-6.4095 L -24.6068,-6.30916 L -24.5303,-6.21967 L -24.4408,-6.14323 L -24.3405,-6.08174  L -24.2318,-6.0367 L -24.1173,-6.00923 L -24,-6 L -23.8827,-6.00923 L -23.7682,-6.0367 L -23.6595,-6.08174  L -23.5592,-6.14323 L -23.4697,-6.21967 L -23.3932,-6.30916 L -23.3317,-6.4095 L -23.2867,-6.51823 L -23.2592,-6.63266  L -23.2408,-6.86732 L -23.2133,-6.98175 L -23.1682,-7.09048 L -23.1068,-7.19083 L -23.0303,-7.28032 L -22.9408,-7.35675  L -22.8405,-7.41824 L -22.7318,-7.46329 L -22.6173,-7.49075 L -22.5,-7.5 L -22.3827,-7.49075 L -22.2682,-7.46329  L -22.1595,-7.41824 L -22.0592,-7.35675 L -21.9697,-7.28032 L -21.8932,-7.19083 L -21.8317,-7.09048 L -21.7867,-6.98175  L -21.7592,-6.86732 L -21.7408,-6.63266 L -21.7133,-6.51823 L -21.6682,-6.4095 L -21.6068,-6.30916 L -21.5303,-6.21967  L -21.4408,-6.14323 L -21.3405,-6.08174 L -21.2318,-6.0367 L -21.1173,-6.00923 L -21,-6 L -20.8827,-6.00923  L -20.7682,-6.0367 L -20.6595,-6.08174 L -20.5592,-6.14323 L -20.4697,-6.21967 L -20.3932,-6.30916 L -20.3317,-6.4095  L -20.2867,-6.51823 L -20.2592,-6.63266 L -20.2408,-6.86732 L -20.2133,-6.98175 L -20.1682,-7.09048 L -20.1068,-7.19083  L -20.0303,-7.28032 L -19.9408,-7.35675 L -19.8405,-7.41824 L -19.7318,-7.46329 L -19.6173,-7.49075 L -19.5,-7.5  L -19.3827,-7.49075 L -19.2682,-7.46329 L -19.1595,-7.41824 L -19.0592,-7.35675 L -18.9697,-7.28032 L -18.8932,-7.19083  L -18.8317,-7.09048 L -18.7867,-6.98175 L -18.7592,-6.86732 L -18.7408,-6.63266 L -18.7133,-6.51823 L -18.6682,-6.4095  L -18.6068,-6.30916 L -18.5303,-6.21967 L -18.4408,-6.14323 L -18.3405,-6.08174 L -18.2318,-6.0367 L -18.1173,-6.00923  L -18,-6 L -17.8827,-6.00923 L -17.7682,-6.0367 L -17.6595,-6.08174 L -17.5592,-6.14323 L -17.4697,-6.21967  L -17.3932,-6.30916 L -17.3317,-6.4095 L -17.2867,-6.51823 L -17.2592,-6.63266 L -17.2408,-6.86732 L -17.2133,-6.98175  L -17.1682,-7.09048 L -17.1068,-7.19083 L -17.0303,-7.28032 L -16.9408,-7.35675 L -16.8405,-7.41824 L -16.7318,-7.46329  L -16.6173,-7.49075 L -16.5,-7.5 L -16.3827,-7.49075 L -16.2682,-7.46329 L -16.1595,-7.41824 L -16.0592,-7.35675  L -15.9697,-7.28032 L -15.8932,-7.19083 L -15.8317,-7.09048 L -15.7867,-6.98175 L -15.7592,-6.86732 L -15.7408,-6.63266  L -15.7133,-6.51823 L -15.6682,-6.4095 L -15.6068,-6.30916 L -15.5303,-6.21967 L -15.4408,-6.14323 L -15.3405,-6.08174  L -15.2318,-6.0367 L -15.1173,-6.00923 L -15,-6 L -14.8827,-6.00923 L -14.7682,-6.0367 L -14.6595,-6.08174  L -14.5592,-6.14323 L -14.4697,-6.21967 L -14.3932,-6.30916 L -14.3317,-6.4095 L -14.2867,-6.51823 L -14.2592,-6.63266  L -14.2408,-6.86732 L -14.2133,-6.98175 L -14.1682,-7.09048 L -14.1068,-7.19083 L -14.0303,-7.28032 L -13.9408,-7.35675  L -13.8405,-7.41824 L -13.7318,-7.46329 L -13.6173,-7.49075 L -13.5,-7.5 L -13.3827,-7.49075 L -13.2682,-7.46329  L -13.1595,-7.41824 L -13.0592,-7.35675 L -12.9697,-7.28032 L -12.8932,-7.19083 L -12.8317,-7.09048 L -12.7867,-6.98175  L -12.7592,-6.86732 L -12.7408,-6.63266 L -12.7133,-6.51823 L -12.6682,-6.4095 L -12.6068,-6.30916 L -12.5303,-6.21967  L -12.4408,-6.14323 L -12.3405,-6.08174 L -12.2318,-6.0367 L -12.1173,-6.00923 L -12,-6 L -11.8827,-6.00923  L -11.7682,-6.0367 L -11.6595,-6.08174 L -11.5592,-6.14323 L -11.4697,-6.21967 L -11.3932,-6.30916 L -11.3317,-6.4095  L -11.2867,-6.51823 L -11.2592,-6.63266 L -11.2408,-6.86732 L -11.2133,-6.98175 L -11.1682,-7.09048 L -11.1068,-7.19083  L -11.0303,-7.28032 L -10.9408,-7.35675 L -10.8405,-7.41824 L -10.7318,-7.46329 L -10.6173,-7.49075 L -10.5,-7.5  L -10.3827,-7.49075 L -10.2682,-7.46329 L -10.1595,-7.41824 L -10.0592,-7.35675 L -9.96967,-7.28032 L -9.89323,-7.19083  L -9.83174,-7.09048 L -9.7867,-6.98175 L -9.75923,-6.86732 L -9.74075,-6.63266 L -9.71329,-6.51823 L -9.66824,-6.4095  L -9.60675,-6.30916 L -9.53032,-6.21967 L -9.44083,-6.14323 L -9.34048,-6.08174 L -9.23175,-6.0367 L -9.11732,-6.00923  L -9,-6 L -8.88266,-6.00923 L -8.76823,-6.0367 L -8.6595,-6.08174 L -8.55916,-6.14323 L -8.46967,-6.21967  L -8.39323,-6.30916 L -8.33174,-6.4095 L -8.2867,-6.51823 L -8.25923,-6.63266 L -8.24075,-6.86732 L -8.21329,-6.98175  L -8.16824,-7.09048 L -8.10675,-7.19083 L -8.03032,-7.28032 L -7.94083,-7.35675 L -7.84048,-7.41824 L -7.73175,-7.46329  L -7.61732,-7.49075 L -7.5,-7.5 L -7.38266,-7.49075 z M -39.6564,-3.5123 L -39.809,-3.54893 L -39.954,-3.60898 L -40.0878,-3.69098 L -40.2071,-3.79289 L -40.309,-3.9122  L -40.391,-4.04601 L -40.451,-4.19098 L -40.4877,-4.34355 L -40.5,-4.5 L -40.4877,-4.65643 L -40.451,-4.80901  L -40.391,-4.95398 L -40.309,-5.08778 L -40.2071,-5.20709 L -40.0878,-5.30901 L -39.954,-5.39101 L -39.809,-5.45105  L -39.6564,-5.48769 L -39.5,-5.5 L -39.3436,-5.48769 L -39.191,-5.45105 L -39.046,-5.39101 L -38.9122,-5.30901  L -38.7929,-5.20709 L -38.691,-5.08778 L -38.609,-4.95398 L -38.5489,-4.80901 L -38.5123,-4.65643 L -38.5,-4.5  L -38.5123,-4.34355 L -38.5489,-4.19098 L -38.609,-4.04601 L -38.691,-3.9122 L -38.7929,-3.79289 L -38.9122,-3.69098  L -39.046,-3.60898 L -39.191,-3.54893 L -39.3436,-3.5123 L -39.5,-3.5 z M 39.3436,-3.5123 L 39.191,-3.54893 L 39.046,-3.60898 L 38.9122,-3.69098 L 38.7929,-3.79289 L 38.691,-3.9122  L 38.609,-4.04601 L 38.5489,-4.19098 L 38.5123,-4.34355 L 38.5,-4.5 L 38.5123,-4.65643 L 38.5489,-4.80901  L 38.609,-4.95398 L 38.691,-5.08778 L 38.7929,-5.20709 L 38.9122,-5.30901 L 39.046,-5.39101 L 39.191,-5.45105  L 39.3436,-5.48769 L 39.5,-5.5 L 39.6564,-5.48769 L 39.809,-5.45105 L 39.954,-5.39101 L 40.0878,-5.30901  L 40.2071,-5.20709 L 40.309,-5.08778 L 40.391,-4.95398 L 40.451,-4.80901 L 40.4877,-4.65643 L 40.5,-4.5  L 40.4877,-4.34355 L 40.451,-4.19098 L 40.391,-4.04601 L 40.309,-3.9122 L 40.2071,-3.79289 L 40.0878,-3.69098  L 39.954,-3.60898 L 39.809,-3.54893 L 39.6564,-3.5123 L 39.5,-3.5 z M -39.6564,5.48769 L -39.809,5.45105 L -39.954,5.39101 L -40.0878,5.30901 L -40.2071,5.20709 L -40.309,5.08778  L -40.391,4.95398 L -40.451,4.80901 L -40.4877,4.65643 L -40.5,4.5 L -40.4877,4.34355 L -40.451,4.19098  L -40.391,4.04601 L -40.309,3.9122 L -40.2071,3.79289 L -40.0878,3.69098 L -39.954,3.60898 L -39.809,3.54893  L -39.6564,3.5123 L -39.5,3.5 L -39.3436,3.5123 L -39.191,3.54893 L -39.046,3.60898 L -38.9122,3.69098  L -38.7929,3.79289 L -38.691,3.9122 L -38.609,4.04601 L -38.5489,4.19098 L -38.5123,4.34355 L -38.5,4.5  L -38.5123,4.65643 L -38.5489,4.80901 L -38.609,4.95398 L -38.691,5.08778 L -38.7929,5.20709 L -38.9122,5.30901  L -39.046,5.39101 L -39.191,5.45105 L -39.3436,5.48769 L -39.5,5.5 z M 39.3436,5.48769 L 39.191,5.45105 L 39.046,5.39101 L 38.9122,5.30901 L 38.7929,5.20709 L 38.691,5.08778  L 38.609,4.95398 L 38.5489,4.80901 L 38.5123,4.65643 L 38.5,4.5 L 38.5123,4.34355 L 38.5489,4.19098  L 38.609,4.04601 L 38.691,3.9122 L 38.7929,3.79289 L 38.9122,3.69098 L 39.046,3.60898 L 39.191,3.54893  L 39.3436,3.5123 L 39.5,3.5 L 39.6564,3.5123 L 39.809,3.54893 L 39.954,3.60898 L 40.0878,3.69098  L 40.2071,3.79289 L 40.309,3.9122 L 40.391,4.04601 L 40.451,4.19098 L 40.4877,4.34355 L 40.5,4.5  L 40.4877,4.65643 L 40.451,4.80901 L 40.391,4.95398 L 40.309,5.08778 L 40.2071,5.20709 L 40.0878,5.30901  L 39.954,5.39101 L 39.809,5.45105 L 39.6564,5.48769 L 39.5,5.5 z "
     stroke="black"
     fill="lightgray"
     stroke-width="0.5"
     id="path5571"
     style="fill:none;stroke:#ff0000;stroke-width:0.1;stroke-dasharray:none" />
</svg>
