<?xml version="1.0" encoding="UTF-8" standalone="no"?>
<svg
   width="120mm"
   height="120mm"
   viewBox="-60 -60 120 120"
   version="1.1"
   id="svg2073"
   sodipodi:docname="punchJig_midFrame.svg"
   inkscape:version="1.2 (dc2aedaf03, 2022-05-15)"
   xmlns:inkscape="http://www.inkscape.org/namespaces/inkscape"
   xmlns:sodipodi="http://sodipodi.sourceforge.net/DTD/sodipodi-0.dtd"
   xmlns="http://www.w3.org/2000/svg"
   xmlns:svg="http://www.w3.org/2000/svg">
  <defs
     id="defs2077" />
  <sodipodi:namedview
     id="namedview2075"
     pagecolor="#ffffff"
     bordercolor="#666666"
     borderopacity="1.0"
     inkscape:showpageshadow="2"
     inkscape:pageopacity="0.0"
     inkscape:pagecheckerboard="0"
     inkscape:deskcolor="#d1d1d1"
     inkscape:document-units="mm"
     showgrid="false"
     inkscape:zoom="0.52034722"
     inkscape:cx="213.3191"
     inkscape:cy="226.77165"
     inkscape:window-width="1600"
     inkscape:window-height="1137"
     inkscape:window-x="-8"
     inkscape:window-y="-8"
     inkscape:window-maximized="1"
     inkscape:current-layer="svg2073" />
  <title
     id="title2069">OpenSCAD Model</title>
  <path
     d=" M 55.7822,59.9384 L 56.5451,59.7553 L 57.2699,59.455 L 57.9389,59.0451 L 58.5355,58.5355 L 59.0451,57.9389  L 59.455,57.2699 L 59.7553,56.5451 L 59.9384,55.7822 L 60,55 L 60,-55 L 59.9384,-55.7822  L 59.7553,-56.5451 L 59.455,-57.2699 L 59.0451,-57.9389 L 58.5355,-58.5355 L 57.9389,-59.0451 L 57.2699,-59.455  L 56.5451,-59.7553 L 55.7822,-59.9384 L 55,-60 L -55,-60 L -55.7822,-59.9384 L -56.5451,-59.7553  L -57.2699,-59.455 L -57.9389,-59.0451 L -58.5355,-58.5355 L -59.0451,-57.9389 L -59.455,-57.2699 L -59.7553,-56.5451  L -59.9384,-55.7822 L -60,-55 L -60,55 L -59.9384,55.7822 L -59.7553,56.5451 L -59.455,57.2699  L -59.0451,57.9389 L -58.5355,58.5355 L -57.9389,59.0451 L -57.2699,59.455 L -56.5451,59.7553 L -55.7822,59.9384  L -55,60 L 55,60 z M -55.2425,-53.4691 L -55.479,-53.5259 L -55.7037,-53.6189 L -55.9111,-53.746 L -56.096,-53.904 L -56.254,-54.0889  L -56.3811,-54.2963 L -56.4741,-54.521 L -56.5309,-54.7575 L -56.55,-55 L -56.5309,-55.2425 L -56.4741,-55.479  L -56.3811,-55.7037 L -56.254,-55.9111 L -56.096,-56.096 L -55.9111,-56.254 L -55.7037,-56.3811 L -55.479,-56.4741  L -55.2425,-56.5309 L -55,-56.55 L -54.7575,-56.5309 L -54.521,-56.4741 L -54.2963,-56.3811 L -54.0889,-56.254  L -53.904,-56.096 L -53.746,-55.9111 L -53.6189,-55.7037 L -53.5259,-55.479 L -53.4691,-55.2425 L -53.45,-55  L -53.4691,-54.7575 L -53.5259,-54.521 L -53.6189,-54.2963 L -53.746,-54.0889 L -53.904,-53.904 L -54.0889,-53.746  L -54.2963,-53.6189 L -54.521,-53.5259 L -54.7575,-53.4691 L -55,-53.45 z M 54.7575,-53.4691 L 54.521,-53.5259 L 54.2963,-53.6189 L 54.0889,-53.746 L 53.904,-53.904 L 53.746,-54.0889  L 53.6189,-54.2963 L 53.5259,-54.521 L 53.4691,-54.7575 L 53.45,-55 L 53.4691,-55.2425 L 53.5259,-55.479  L 53.6189,-55.7037 L 53.746,-55.9111 L 53.904,-56.096 L 54.0889,-56.254 L 54.2963,-56.3811 L 54.521,-56.4741  L 54.7575,-56.5309 L 55,-56.55 L 55.2425,-56.5309 L 55.479,-56.4741 L 55.7037,-56.3811 L 55.9111,-56.254  L 56.096,-56.096 L 56.254,-55.9111 L 56.3811,-55.7037 L 56.4741,-55.479 L 56.5309,-55.2425 L 56.55,-55  L 56.5309,-54.7575 L 56.4741,-54.521 L 56.3811,-54.2963 L 56.254,-54.0889 L 56.096,-53.904 L 55.9111,-53.746  L 55.7037,-53.6189 L 55.479,-53.5259 L 55.2425,-53.4691 L 55,-53.45 z M -41.75,43.25 L -41.9846,43.2315 L -42.2135,43.1766 L -42.431,43.0865 L -42.6317,42.9635 L -42.8107,42.8107  L -42.9635,42.6317 L -43.0865,42.431 L -43.1766,42.2135 L -43.2315,41.9846 L -43.25,41.75 L -43.25,-41.75  L -43.2315,-41.9846 L -43.1766,-42.2135 L -43.0865,-42.431 L -42.9635,-42.6317 L -42.8107,-42.8107 L -42.6317,-42.9635  L -42.431,-43.0865 L -42.2135,-43.1766 L -41.9846,-43.2315 L -41.75,-43.25 L 41.75,-43.25 L 41.9846,-43.2315  L 42.2135,-43.1766 L 42.431,-43.0865 L 42.6317,-42.9635 L 42.8107,-42.8107 L 42.9635,-42.6317 L 43.0865,-42.431  L 43.1766,-42.2135 L 43.2315,-41.9846 L 43.25,-41.75 L 43.25,41.75 L 43.2315,41.9846 L 43.1766,42.2135  L 43.0865,42.431 L 42.9635,42.6317 L 42.8107,42.8107 L 42.6317,42.9635 L 42.431,43.0865 L 42.2135,43.1766  L 41.9846,43.2315 L 41.75,43.25 z M -55.2425,56.5309 L -55.479,56.4741 L -55.7037,56.3811 L -55.9111,56.254 L -56.096,56.096 L -56.254,55.9111  L -56.3811,55.7037 L -56.4741,55.479 L -56.5309,55.2425 L -56.55,55 L -56.5309,54.7575 L -56.4741,54.521  L -56.3811,54.2963 L -56.254,54.0889 L -56.096,53.904 L -55.9111,53.746 L -55.7037,53.6189 L -55.479,53.5259  L -55.2425,53.4691 L -55,53.45 L -54.7575,53.4691 L -54.521,53.5259 L -54.2963,53.6189 L -54.0889,53.746  L -53.904,53.904 L -53.746,54.0889 L -53.6189,54.2963 L -53.5259,54.521 L -53.4691,54.7575 L -53.45,55  L -53.4691,55.2425 L -53.5259,55.479 L -53.6189,55.7037 L -53.746,55.9111 L -53.904,56.096 L -54.0889,56.254  L -54.2963,56.3811 L -54.521,56.4741 L -54.7575,56.5309 L -55,56.55 z M 54.7575,56.5309 L 54.521,56.4741 L 54.2963,56.3811 L 54.0889,56.254 L 53.904,56.096 L 53.746,55.9111  L 53.6189,55.7037 L 53.5259,55.479 L 53.4691,55.2425 L 53.45,55 L 53.4691,54.7575 L 53.5259,54.521  L 53.6189,54.2963 L 53.746,54.0889 L 53.904,53.904 L 54.0889,53.746 L 54.2963,53.6189 L 54.521,53.5259  L 54.7575,53.4691 L 55,53.45 L 55.2425,53.4691 L 55.479,53.5259 L 55.7037,53.6189 L 55.9111,53.746  L 56.096,53.904 L 56.254,54.0889 L 56.3811,54.2963 L 56.4741,54.521 L 56.5309,54.7575 L 56.55,55  L 56.5309,55.2425 L 56.4741,55.479 L 56.3811,55.7037 L 56.254,55.9111 L 56.096,56.096 L 55.9111,56.254  L 55.7037,56.3811 L 55.479,56.4741 L 55.2425,56.5309 L 55,56.55 z "
     stroke="black"
     fill="lightgray"
     stroke-width="0.5"
     id="path2071"
     style="fill:none;stroke:#ff0000;stroke-width:0.1;stroke-dasharray:none" />
</svg>
