<?xml version="1.0" encoding="UTF-8" standalone="no"?>
<svg
   width="120mm"
   height="120mm"
   viewBox="-60 -60 120 120"
   version="1.1"
   id="svg4378"
   sodipodi:docname="punchJig_botFrame.svg"
   inkscape:version="1.2 (dc2aedaf03, 2022-05-15)"
   xmlns:inkscape="http://www.inkscape.org/namespaces/inkscape"
   xmlns:sodipodi="http://sodipodi.sourceforge.net/DTD/sodipodi-0.dtd"
   xmlns="http://www.w3.org/2000/svg"
   xmlns:svg="http://www.w3.org/2000/svg">
  <defs
     id="defs4382" />
  <sodipodi:namedview
     id="namedview4380"
     pagecolor="#ffffff"
     bordercolor="#666666"
     borderopacity="1.0"
     inkscape:showpageshadow="2"
     inkscape:pageopacity="0.0"
     inkscape:pagecheckerboard="0"
     inkscape:deskcolor="#d1d1d1"
     inkscape:document-units="mm"
     showgrid="false"
     inkscape:zoom="0.52034722"
     inkscape:cx="213.3191"
     inkscape:cy="226.77165"
     inkscape:window-width="1600"
     inkscape:window-height="1137"
     inkscape:window-x="-8"
     inkscape:window-y="-8"
     inkscape:window-maximized="1"
     inkscape:current-layer="svg4378" />
  <title
     id="title4374">OpenSCAD Model</title>
  <path
     d=" M 55.7822,59.9384 L 56.5451,59.7553 L 57.2699,59.455 L 57.9389,59.0451 L 58.5355,58.5355 L 59.0451,57.9389  L 59.455,57.2699 L 59.7553,56.5451 L 59.9384,55.7822 L 60,55 L 60,-55 L 59.9384,-55.7822  L 59.7553,-56.5451 L 59.455,-57.2699 L 59.0451,-57.9389 L 58.5355,-58.5355 L 57.9389,-59.0451 L 57.2699,-59.455  L 56.5451,-59.7553 L 55.7822,-59.9384 L 55,-60 L -55,-60 L -55.7822,-59.9384 L -56.5451,-59.7553  L -57.2699,-59.455 L -57.9389,-59.0451 L -58.5355,-58.5355 L -59.0451,-57.9389 L -59.455,-57.2699 L -59.7553,-56.5451  L -59.9384,-55.7822 L -60,-55 L -60,55 L -59.9384,55.7822 L -59.7553,56.5451 L -59.455,57.2699  L -59.0451,57.9389 L -58.5355,58.5355 L -57.9389,59.0451 L -57.2699,59.455 L -56.5451,59.7553 L -55.7822,59.9384  L -55,60 L 55,60 z M -55.1799,-53.8642 L -55.3554,-53.9063 L -55.5221,-53.9753 L -55.6759,-54.0696 L -55.8132,-54.1868 L -55.9304,-54.324  L -56.0247,-54.4779 L -56.0937,-54.6446 L -56.1358,-54.8201 L -56.15,-55 L -56.1358,-55.1799 L -56.0937,-55.3554  L -56.0247,-55.5221 L -55.9304,-55.6759 L -55.8132,-55.8132 L -55.6759,-55.9304 L -55.5221,-56.0247 L -55.3554,-56.0937  L -55.1799,-56.1358 L -55,-56.15 L -54.8201,-56.1358 L -54.6446,-56.0937 L -54.4779,-56.0247 L -54.324,-55.9304  L -54.1868,-55.8132 L -54.0696,-55.6759 L -53.9753,-55.5221 L -53.9063,-55.3554 L -53.8642,-55.1799 L -53.85,-55  L -53.8642,-54.8201 L -53.9063,-54.6446 L -53.9753,-54.4779 L -54.0696,-54.324 L -54.1868,-54.1868 L -54.324,-54.0696  L -54.4779,-53.9753 L -54.6446,-53.9063 L -54.8201,-53.8642 L -55,-53.85 z M 54.8201,-53.8642 L 54.6446,-53.9063 L 54.4779,-53.9753 L 54.324,-54.0696 L 54.1868,-54.1868 L 54.0696,-54.324  L 53.9753,-54.4779 L 53.9063,-54.6446 L 53.8642,-54.8201 L 53.85,-55 L 53.8642,-55.1799 L 53.9063,-55.3554  L 53.9753,-55.5221 L 54.0696,-55.6759 L 54.1868,-55.8132 L 54.324,-55.9304 L 54.4779,-56.0247 L 54.6446,-56.0937  L 54.8201,-56.1358 L 55,-56.15 L 55.1799,-56.1358 L 55.3554,-56.0937 L 55.5221,-56.0247 L 55.6759,-55.9304  L 55.8132,-55.8132 L 55.9304,-55.6759 L 56.0247,-55.5221 L 56.0937,-55.3554 L 56.1358,-55.1799 L 56.15,-55  L 56.1358,-54.8201 L 56.0937,-54.6446 L 56.0247,-54.4779 L 55.9304,-54.324 L 55.8132,-54.1868 L 55.6759,-54.0696  L 55.5221,-53.9753 L 55.3554,-53.9063 L 55.1799,-53.8642 L 55,-53.85 z M -50,50 L -50,-50 L 50,-50 L 50,50 z M -55.1799,56.1358 L -55.3554,56.0937 L -55.5221,56.0247 L -55.6759,55.9304 L -55.8132,55.8132 L -55.9304,55.6759  L -56.0247,55.5221 L -56.0937,55.3554 L -56.1358,55.1799 L -56.15,55 L -56.1358,54.8201 L -56.0937,54.6446  L -56.0247,54.4779 L -55.9304,54.324 L -55.8132,54.1868 L -55.6759,54.0696 L -55.5221,53.9753 L -55.3554,53.9063  L -55.1799,53.8642 L -55,53.85 L -54.8201,53.8642 L -54.6446,53.9063 L -54.4779,53.9753 L -54.324,54.0696  L -54.1868,54.1868 L -54.0696,54.324 L -53.9753,54.4779 L -53.9063,54.6446 L -53.8642,54.8201 L -53.85,55  L -53.8642,55.1799 L -53.9063,55.3554 L -53.9753,55.5221 L -54.0696,55.6759 L -54.1868,55.8132 L -54.324,55.9304  L -54.4779,56.0247 L -54.6446,56.0937 L -54.8201,56.1358 L -55,56.15 z M 54.8201,56.1358 L 54.6446,56.0937 L 54.4779,56.0247 L 54.324,55.9304 L 54.1868,55.8132 L 54.0696,55.6759  L 53.9753,55.5221 L 53.9063,55.3554 L 53.8642,55.1799 L 53.85,55 L 53.8642,54.8201 L 53.9063,54.6446  L 53.9753,54.4779 L 54.0696,54.324 L 54.1868,54.1868 L 54.324,54.0696 L 54.4779,53.9753 L 54.6446,53.9063  L 54.8201,53.8642 L 55,53.85 L 55.1799,53.8642 L 55.3554,53.9063 L 55.5221,53.9753 L 55.6759,54.0696  L 55.8132,54.1868 L 55.9304,54.324 L 56.0247,54.4779 L 56.0937,54.6446 L 56.1358,54.8201 L 56.15,55  L 56.1358,55.1799 L 56.0937,55.3554 L 56.0247,55.5221 L 55.9304,55.6759 L 55.8132,55.8132 L 55.6759,55.9304  L 55.5221,56.0247 L 55.3554,56.0937 L 55.1799,56.1358 L 55,56.15 z "
     stroke="black"
     fill="lightgray"
     stroke-width="0.5"
     id="path4376"
     style="fill:none;stroke:#ff0000;stroke-width:0.1;stroke-dasharray:none" />
</svg>
