<?xml version="1.0" encoding="UTF-8" standalone="no"?>
<svg
   width="120mm"
   height="120mm"
   viewBox="-60 -60 120 120"
   version="1.1"
   id="svg6"
   sodipodi:docname="punchJig_topFrame.svg"
   inkscape:version="1.2 (dc2aedaf03, 2022-05-15)"
   xmlns:inkscape="http://www.inkscape.org/namespaces/inkscape"
   xmlns:sodipodi="http://sodipodi.sourceforge.net/DTD/sodipodi-0.dtd"
   xmlns="http://www.w3.org/2000/svg"
   xmlns:svg="http://www.w3.org/2000/svg">
  <defs
     id="defs10" />
  <sodipodi:namedview
     id="namedview8"
     pagecolor="#ffffff"
     bordercolor="#666666"
     borderopacity="1.0"
     inkscape:showpageshadow="2"
     inkscape:pageopacity="0.0"
     inkscape:pagecheckerboard="0"
     inkscape:deskcolor="#d1d1d1"
     inkscape:document-units="mm"
     showgrid="false"
     inkscape:zoom="2.0813889"
     inkscape:cx="165.7547"
     inkscape:cy="163.35246"
     inkscape:window-width="1600"
     inkscape:window-height="1137"
     inkscape:window-x="-8"
     inkscape:window-y="-8"
     inkscape:window-maximized="1"
     inkscape:current-layer="svg6" />
  <title
     id="title2">OpenSCAD Model</title>
  <path
     d=" M 55.7822,59.9384 L 56.5451,59.7553 L 57.2699,59.455 L 57.9389,59.0451 L 58.5355,58.5355 L 59.0451,57.9389  L 59.455,57.2699 L 59.7553,56.5451 L 59.9384,55.7822 L 60,55 L 60,-55 L 59.9384,-55.7822  L 59.7553,-56.5451 L 59.455,-57.2699 L 59.0451,-57.9389 L 58.5355,-58.5355 L 57.9389,-59.0451 L 57.2699,-59.455  L 56.5451,-59.7553 L 55.7822,-59.9384 L 55,-60 L -55,-60 L -55.7822,-59.9384 L -56.5451,-59.7553  L -57.2699,-59.455 L -57.9389,-59.0451 L -58.5355,-58.5355 L -59.0451,-57.9389 L -59.455,-57.2699 L -59.7553,-56.5451  L -59.9384,-55.7822 L -60,-55 L -60,55 L -59.9384,55.7822 L -59.7553,56.5451 L -59.455,57.2699  L -59.0451,57.9389 L -58.5355,58.5355 L -57.9389,59.0451 L -57.2699,59.455 L -56.5451,59.7553 L -55.7822,59.9384  L -55,60 L 55,60 z M 54.7575,-53.4691 L 54.521,-53.5259 L 54.2963,-53.6189 L 54.0889,-53.746 L 53.904,-53.904 L 53.746,-54.0889  L 53.6189,-54.2963 L 53.5259,-54.521 L 53.4691,-54.7575 L 53.45,-55 L 53.4691,-55.2425 L 53.5259,-55.479  L 53.6189,-55.7037 L 53.746,-55.9111 L 53.904,-56.096 L 54.0889,-56.254 L 54.2963,-56.3811 L 54.521,-56.4741  L 54.7575,-56.5309 L 55,-56.55 L 55.2425,-56.5309 L 55.479,-56.4741 L 55.7037,-56.3811 L 55.9111,-56.254  L 56.096,-56.096 L 56.254,-55.9111 L 56.3811,-55.7037 L 56.4741,-55.479 L 56.5309,-55.2425 L 56.55,-55  L 56.5309,-54.7575 L 56.4741,-54.521 L 56.3811,-54.2963 L 56.254,-54.0889 L 56.096,-53.904 L 55.9111,-53.746  L 55.7037,-53.6189 L 55.479,-53.5259 L 55.2425,-53.4691 L 55,-53.45 z M -55.2425,-53.4691 L -55.479,-53.5259 L -55.7037,-53.6189 L -55.9111,-53.746 L -56.096,-53.904 L -56.254,-54.0889  L -56.3811,-54.2963 L -56.4741,-54.521 L -56.5309,-54.7575 L -56.55,-55 L -56.5309,-55.2425 L -56.4741,-55.479  L -56.3811,-55.7037 L -56.254,-55.9111 L -56.096,-56.096 L -55.9111,-56.254 L -55.7037,-56.3811 L -55.479,-56.4741  L -55.2425,-56.5309 L -55,-56.55 L -54.7575,-56.5309 L -54.521,-56.4741 L -54.2963,-56.3811 L -54.0889,-56.254  L -53.904,-56.096 L -53.746,-55.9111 L -53.6189,-55.7037 L -53.5259,-55.479 L -53.4691,-55.2425 L -53.45,-55  L -53.4691,-54.7575 L -53.5259,-54.521 L -53.6189,-54.2963 L -53.746,-54.0889 L -53.904,-53.904 L -54.0889,-53.746  L -54.2963,-53.6189 L -54.521,-53.5259 L -54.7575,-53.4691 L -55,-53.45 z M -28.2682,-44.7133 L -28.1595,-44.6682 L -28.0592,-44.6068 L -27.9697,-44.5303 L -27.8932,-44.4408 L -27.8317,-44.3405  L -27.7867,-44.2318 L -27.7592,-44.1173 L -27.7408,-43.8827 L -27.7133,-43.7682 L -27.6682,-43.6595 L -27.6068,-43.5592  L -27.5303,-43.4697 L -27.4408,-43.3932 L -27.3405,-43.3317 L -27.2318,-43.2867 L -27.1173,-43.2592 L -27,-43.25  L -26.8827,-43.2592 L -26.7682,-43.2867 L -26.6595,-43.3317 L -26.5592,-43.3932 L -26.4697,-43.4697 L -26.3932,-43.5592  L -26.3317,-43.6595 L -26.2867,-43.7682 L -26.2592,-43.8827 L -26.2408,-44.1173 L -26.2133,-44.2318 L -26.1682,-44.3405  L -26.1068,-44.4408 L -26.0303,-44.5303 L -25.9408,-44.6068 L -25.8405,-44.6682 L -25.7318,-44.7133 L -25.6173,-44.7408  L -25.5,-44.75 L -25.3827,-44.7408 L -25.2682,-44.7133 L -25.1595,-44.6682 L -25.0592,-44.6068 L -24.9697,-44.5303  L -24.8932,-44.4408 L -24.8317,-44.3405 L -24.7867,-44.2318 L -24.7592,-44.1173 L -24.7408,-43.8827 L -24.7133,-43.7682  L -24.6682,-43.6595 L -24.6068,-43.5592 L -24.5303,-43.4697 L -24.4408,-43.3932 L -24.3405,-43.3317 L -24.2318,-43.2867  L -24.1173,-43.2592 L -24,-43.25 L -23.8827,-43.2592 L -23.7682,-43.2867 L -23.6595,-43.3317 L -23.5592,-43.3932  L -23.4697,-43.4697 L -23.3932,-43.5592 L -23.3317,-43.6595 L -23.2867,-43.7682 L -23.2592,-43.8827 L -23.2408,-44.1173  L -23.2133,-44.2318 L -23.1682,-44.3405 L -23.1068,-44.4408 L -23.0303,-44.5303 L -22.9408,-44.6068 L -22.8405,-44.6682  L -22.7318,-44.7133 L -22.6173,-44.7408 L -22.5,-44.75 L -22.3827,-44.7408 L -22.2682,-44.7133 L -22.1595,-44.6682  L -22.0592,-44.6068 L -21.9697,-44.5303 L -21.8932,-44.4408 L -21.8317,-44.3405 L -21.7867,-44.2318 L -21.7592,-44.1173  L -21.7408,-43.8827 L -21.7133,-43.7682 L -21.6682,-43.6595 L -21.6068,-43.5592 L -21.5303,-43.4697 L -21.4408,-43.3932  L -21.3405,-43.3317 L -21.2318,-43.2867 L -21.1173,-43.2592 L -21,-43.25 L -20.8827,-43.2592 L -20.7682,-43.2867  L -20.6595,-43.3317 L -20.5592,-43.3932 L -20.4697,-43.4697 L -20.3932,-43.5592 L -20.3317,-43.6595 L -20.2867,-43.7682  L -20.2592,-43.8827 L -20.2408,-44.1173 L -20.2133,-44.2318 L -20.1682,-44.3405 L -20.1068,-44.4408 L -20.0303,-44.5303  L -19.9408,-44.6068 L -19.8405,-44.6682 L -19.7318,-44.7133 L -19.6173,-44.7408 L -19.5,-44.75 L -19.3827,-44.7408  L -19.2682,-44.7133 L -19.1595,-44.6682 L -19.0592,-44.6068 L -18.9697,-44.5303 L -18.8932,-44.4408 L -18.8317,-44.3405  L -18.7867,-44.2318 L -18.7592,-44.1173 L -18.7408,-43.8827 L -18.7133,-43.7682 L -18.6682,-43.6595 L -18.6068,-43.5592  L -18.5303,-43.4697 L -18.4408,-43.3932 L -18.3405,-43.3317 L -18.2318,-43.2867 L -18.1173,-43.2592 L -18,-43.25  L -17.8827,-43.2592 L -17.7682,-43.2867 L -17.6595,-43.3317 L -17.5592,-43.3932 L -17.4697,-43.4697 L -17.3932,-43.5592  L -17.3317,-43.6595 L -17.2867,-43.7682 L -17.2592,-43.8827 L -17.2408,-44.1173 L -17.2133,-44.2318 L -17.1682,-44.3405  L -17.1068,-44.4408 L -17.0303,-44.5303 L -16.9408,-44.6068 L -16.8405,-44.6682 L -16.7318,-44.7133 L -16.6173,-44.7408  L -16.5,-44.75 L -16.3827,-44.7408 L -16.2682,-44.7133 L -16.1595,-44.6682 L -16.0592,-44.6068 L -15.9697,-44.5303  L -15.8932,-44.4408 L -15.8317,-44.3405 L -15.7867,-44.2318 L -15.7592,-44.1173 L -15.7408,-43.8827 L -15.7133,-43.7682  L -15.6682,-43.6595 L -15.6068,-43.5592 L -15.5303,-43.4697 L -15.4408,-43.3932 L -15.3405,-43.3317 L -15.2318,-43.2867  L -15.1173,-43.2592 L -15,-43.25 L -14.8827,-43.2592 L -14.7682,-43.2867 L -14.6595,-43.3317 L -14.5592,-43.3932  L -14.4697,-43.4697 L -14.3932,-43.5592 L -14.3317,-43.6595 L -14.2867,-43.7682 L -14.2592,-43.8827 L -14.2408,-44.1173  L -14.2133,-44.2318 L -14.1682,-44.3405 L -14.1068,-44.4408 L -14.0303,-44.5303 L -13.9408,-44.6068 L -13.8405,-44.6682  L -13.7318,-44.7133 L -13.6173,-44.7408 L -13.5,-44.75 L -13.3827,-44.7408 L -13.2682,-44.7133 L -13.1595,-44.6682  L -13.0592,-44.6068 L -12.9697,-44.5303 L -12.8932,-44.4408 L -12.8317,-44.3405 L -12.7867,-44.2318 L -12.7592,-44.1173  L -12.7408,-43.8827 L -12.7133,-43.7682 L -12.6682,-43.6595 L -12.6068,-43.5592 L -12.5303,-43.4697 L -12.4408,-43.3932  L -12.3405,-43.3317 L -12.2318,-43.2867 L -12.1173,-43.2592 L -12,-43.25 L -11.8827,-43.2592 L -11.7682,-43.2867  L -11.6595,-43.3317 L -11.5592,-43.3932 L -11.4697,-43.4697 L -11.3932,-43.5592 L -11.3317,-43.6595 L -11.2867,-43.7682  L -11.2592,-43.8827 L -11.2408,-44.1173 L -11.2133,-44.2318 L -11.1682,-44.3405 L -11.1068,-44.4408 L -11.0303,-44.5303  L -10.9408,-44.6068 L -10.8405,-44.6682 L -10.7318,-44.7133 L -10.6173,-44.7408 L -10.5,-44.75 L -10.3827,-44.7408  L -10.2682,-44.7133 L -10.1595,-44.6682 L -10.0592,-44.6068 L -9.96967,-44.5303 L -9.89323,-44.4408 L -9.83174,-44.3405  L -9.7867,-44.2318 L -9.75923,-44.1173 L -9.74075,-43.8827 L -9.71329,-43.7682 L -9.66824,-43.6595 L -9.60675,-43.5592  L -9.53032,-43.4697 L -9.44083,-43.3932 L -9.34048,-43.3317 L -9.23175,-43.2867 L -9.11732,-43.2592 L -9,-43.25  L -8.88266,-43.2592 L -8.76823,-43.2867 L -8.6595,-43.3317 L -8.55916,-43.3932 L -8.46967,-43.4697 L -8.39323,-43.5592  L -8.33174,-43.6595 L -8.2867,-43.7682 L -8.25923,-43.8827 L -8.24075,-44.1173 L -8.21329,-44.2318 L -8.16824,-44.3405  L -8.10675,-44.4408 L -8.03032,-44.5303 L -7.94083,-44.6068 L -7.84048,-44.6682 L -7.73175,-44.7133 L -7.61732,-44.7408  L -7.5,-44.75 L -7.38266,-44.7408 L -7.26823,-44.7133 L -7.1595,-44.6682 L -7.05916,-44.6068 L -6.96967,-44.5303  L -6.89323,-44.4408 L -6.83174,-44.3405 L -6.7867,-44.2318 L -6.75923,-44.1173 L -6.74075,-43.8827 L -6.71329,-43.7682  L -6.66824,-43.6595 L -6.60675,-43.5592 L -6.53032,-43.4697 L -6.44083,-43.3932 L -6.34048,-43.3317 L -6.23175,-43.2867  L -6.11732,-43.2592 L -6,-43.25 L -5.88266,-43.2592 L -5.76823,-43.2867 L -5.6595,-43.3317 L -5.55916,-43.3932  L -5.46967,-43.4697 L -5.39323,-43.5592 L -5.33174,-43.6595 L -5.2867,-43.7682 L -5.25923,-43.8827 L -5.24075,-44.1173  L -5.21329,-44.2318 L -5.16824,-44.3405 L -5.10675,-44.4408 L -5.03032,-44.5303 L -4.94083,-44.6068 L -4.84048,-44.6682  L -4.73175,-44.7133 L -4.61732,-44.7408 L -4.5,-44.75 L -4.38266,-44.7408 L -4.26823,-44.7133 L -4.1595,-44.6682  L -4.05916,-44.6068 L -3.96967,-44.5303 L -3.89323,-44.4408 L -3.83174,-44.3405 L -3.7867,-44.2318 L -3.75923,-44.1173  L -3.74075,-43.8827 L -3.71329,-43.7682 L -3.66824,-43.6595 L -3.60675,-43.5592 L -3.53032,-43.4697 L -3.44083,-43.3932  L -3.34048,-43.3317 L -3.23175,-43.2867 L -3.11732,-43.2592 L -3,-43.25 L -2.88266,-43.2592 L -2.76823,-43.2867  L -2.6595,-43.3317 L -2.55916,-43.3932 L -2.46967,-43.4697 L -2.39323,-43.5592 L -2.33174,-43.6595 L -2.2867,-43.7682  L -2.25923,-43.8827 L -2.24075,-44.1173 L -2.21329,-44.2318 L -2.16824,-44.3405 L -2.10675,-44.4408 L -2.03032,-44.5303  L -1.94083,-44.6068 L -1.84048,-44.6682 L -1.73175,-44.7133 L -1.61732,-44.7408 L -1.5,-44.75 L -1.38266,-44.7408  L -1.26823,-44.7133 L -1.1595,-44.6682 L -1.05916,-44.6068 L -0.969666,-44.5303 L -0.893234,-44.4408 L -0.831741,-44.3405  L -0.786697,-44.2318 L -0.759232,-44.1173 L -0.740753,-43.8827 L -0.713287,-43.7682 L -0.668243,-43.6595 L -0.60675,-43.5592  L -0.530319,-43.4697 L -0.440826,-43.3932 L -0.340485,-43.3317 L -0.23175,-43.2867 L -0.117325,-43.2592 L 0,-43.25  L 0.117325,-43.2592 L 0.23175,-43.2867 L 0.340485,-43.3317 L 0.440826,-43.3932 L 0.530319,-43.4697 L 0.60675,-43.5592  L 0.668243,-43.6595 L 0.713287,-43.7682 L 0.740753,-43.8827 L 0.759232,-44.1173 L 0.786697,-44.2318 L 0.831741,-44.3405  L 0.893234,-44.4408 L 0.969666,-44.5303 L 1.05916,-44.6068 L 1.1595,-44.6682 L 1.26823,-44.7133 L 1.38266,-44.7408  L 1.5,-44.75 L 1.61732,-44.7408 L 1.73175,-44.7133 L 1.84048,-44.6682 L 1.94083,-44.6068 L 2.03032,-44.5303  L 2.10675,-44.4408 L 2.16824,-44.3405 L 2.21329,-44.2318 L 2.24075,-44.1173 L 2.25923,-43.8827 L 2.2867,-43.7682  L 2.33174,-43.6595 L 2.39323,-43.5592 L 2.46967,-43.4697 L 2.55916,-43.3932 L 2.6595,-43.3317 L 2.76823,-43.2867  L 2.88266,-43.2592 L 3,-43.25 L 3.11732,-43.2592 L 3.23175,-43.2867 L 3.34048,-43.3317 L 3.44083,-43.3932  L 3.53032,-43.4697 L 3.60675,-43.5592 L 3.66824,-43.6595 L 3.71329,-43.7682 L 3.74075,-43.8827 L 3.75923,-44.1173  L 3.7867,-44.2318 L 3.83174,-44.3405 L 3.89323,-44.4408 L 3.96967,-44.5303 L 4.05916,-44.6068 L 4.1595,-44.6682  L 4.26823,-44.7133 L 4.38266,-44.7408 L 4.5,-44.75 L 4.61732,-44.7408 L 4.73175,-44.7133 L 4.84048,-44.6682  L 4.94083,-44.6068 L 5.03032,-44.5303 L 5.10675,-44.4408 L 5.16824,-44.3405 L 5.21329,-44.2318 L 5.24075,-44.1173  L 5.25923,-43.8827 L 5.2867,-43.7682 L 5.33174,-43.6595 L 5.39323,-43.5592 L 5.46967,-43.4697 L 5.55916,-43.3932  L 5.6595,-43.3317 L 5.76823,-43.2867 L 5.88266,-43.2592 L 6,-43.25 L 6.11732,-43.2592 L 6.23175,-43.2867  L 6.34048,-43.3317 L 6.44083,-43.3932 L 6.53032,-43.4697 L 6.60675,-43.5592 L 6.66824,-43.6595 L 6.71329,-43.7682  L 6.74075,-43.8827 L 6.75923,-44.1173 L 6.7867,-44.2318 L 6.83174,-44.3405 L 6.89323,-44.4408 L 6.96967,-44.5303  L 7.05916,-44.6068 L 7.1595,-44.6682 L 7.26823,-44.7133 L 7.38266,-44.7408 L 7.5,-44.75 L 7.61732,-44.7408  L 7.73175,-44.7133 L 7.84048,-44.6682 L 7.94083,-44.6068 L 8.03032,-44.5303 L 8.10675,-44.4408 L 8.16824,-44.3405  L 8.21329,-44.2318 L 8.24075,-44.1173 L 8.25923,-43.8827 L 8.2867,-43.7682 L 8.33174,-43.6595 L 8.39323,-43.5592  L 8.46967,-43.4697 L 8.55916,-43.3932 L 8.6595,-43.3317 L 8.76823,-43.2867 L 8.88266,-43.2592 L 9,-43.25  L 9.11732,-43.2592 L 9.23175,-43.2867 L 9.34048,-43.3317 L 9.44083,-43.3932 L 9.53032,-43.4697 L 9.60675,-43.5592  L 9.66824,-43.6595 L 9.71329,-43.7682 L 9.74075,-43.8827 L 9.75923,-44.1173 L 9.7867,-44.2318 L 9.83174,-44.3405  L 9.89323,-44.4408 L 9.96967,-44.5303 L 10.0592,-44.6068 L 10.1595,-44.6682 L 10.2682,-44.7133 L 10.3827,-44.7408  L 10.5,-44.75 L 10.6173,-44.7408 L 10.7318,-44.7133 L 10.8405,-44.6682 L 10.9408,-44.6068 L 11.0303,-44.5303  L 11.1068,-44.4408 L 11.1682,-44.3405 L 11.2133,-44.2318 L 11.2408,-44.1173 L 11.2592,-43.8827 L 11.2867,-43.7682  L 11.3317,-43.6595 L 11.3932,-43.5592 L 11.4697,-43.4697 L 11.5592,-43.3932 L 11.6595,-43.3317 L 11.7682,-43.2867  L 11.8827,-43.2592 L 12,-43.25 L 12.1173,-43.2592 L 12.2318,-43.2867 L 12.3405,-43.3317 L 12.4408,-43.3932  L 12.5303,-43.4697 L 12.6068,-43.5592 L 12.6682,-43.6595 L 12.7133,-43.7682 L 12.7408,-43.8827 L 12.7592,-44.1173  L 12.7867,-44.2318 L 12.8317,-44.3405 L 12.8932,-44.4408 L 12.9697,-44.5303 L 13.0592,-44.6068 L 13.1595,-44.6682  L 13.2682,-44.7133 L 13.3827,-44.7408 L 13.5,-44.75 L 13.6173,-44.7408 L 13.7318,-44.7133 L 13.8405,-44.6682  L 13.9408,-44.6068 L 14.0303,-44.5303 L 14.1068,-44.4408 L 14.1682,-44.3405 L 14.2133,-44.2318 L 14.2408,-44.1173  L 14.2592,-43.8827 L 14.2867,-43.7682 L 14.3317,-43.6595 L 14.3932,-43.5592 L 14.4697,-43.4697 L 14.5592,-43.3932  L 14.6595,-43.3317 L 14.7682,-43.2867 L 14.8827,-43.2592 L 15,-43.25 L 15.1173,-43.2592 L 15.2318,-43.2867  L 15.3405,-43.3317 L 15.4408,-43.3932 L 15.5303,-43.4697 L 15.6068,-43.5592 L 15.6682,-43.6595 L 15.7133,-43.7682  L 15.7408,-43.8827 L 15.7592,-44.1173 L 15.7867,-44.2318 L 15.8317,-44.3405 L 15.8932,-44.4408 L 15.9697,-44.5303  L 16.0592,-44.6068 L 16.1595,-44.6682 L 16.2682,-44.7133 L 16.3827,-44.7408 L 16.5,-44.75 L 16.6173,-44.7408  L 16.7318,-44.7133 L 16.8405,-44.6682 L 16.9408,-44.6068 L 17.0303,-44.5303 L 17.1068,-44.4408 L 17.1682,-44.3405  L 17.2133,-44.2318 L 17.2408,-44.1173 L 17.2592,-43.8827 L 17.2867,-43.7682 L 17.3317,-43.6595 L 17.3932,-43.5592  L 17.4697,-43.4697 L 17.5592,-43.3932 L 17.6595,-43.3317 L 17.7682,-43.2867 L 17.8827,-43.2592 L 18,-43.25  L 18.1173,-43.2592 L 18.2318,-43.2867 L 18.3405,-43.3317 L 18.4408,-43.3932 L 18.5303,-43.4697 L 18.6068,-43.5592  L 18.6682,-43.6595 L 18.7133,-43.7682 L 18.7408,-43.8827 L 18.7592,-44.1173 L 18.7867,-44.2318 L 18.8317,-44.3405  L 18.8932,-44.4408 L 18.9697,-44.5303 L 19.0592,-44.6068 L 19.1595,-44.6682 L 19.2682,-44.7133 L 19.3827,-44.7408  L 19.5,-44.75 L 19.6173,-44.7408 L 19.7318,-44.7133 L 19.8405,-44.6682 L 19.9408,-44.6068 L 20.0303,-44.5303  L 20.1068,-44.4408 L 20.1682,-44.3405 L 20.2133,-44.2318 L 20.2408,-44.1173 L 20.2592,-43.8827 L 20.2867,-43.7682  L 20.3317,-43.6595 L 20.3932,-43.5592 L 20.4697,-43.4697 L 20.5592,-43.3932 L 20.6595,-43.3317 L 20.7682,-43.2867  L 20.8827,-43.2592 L 21,-43.25 L 21.1173,-43.2592 L 21.2318,-43.2867 L 21.3405,-43.3317 L 21.4408,-43.3932  L 21.5303,-43.4697 L 21.6068,-43.5592 L 21.6682,-43.6595 L 21.7133,-43.7682 L 21.7408,-43.8827 L 21.7592,-44.1173  L 21.7867,-44.2318 L 21.8317,-44.3405 L 21.8932,-44.4408 L 21.9697,-44.5303 L 22.0592,-44.6068 L 22.1595,-44.6682  L 22.2682,-44.7133 L 22.3827,-44.7408 L 22.5,-44.75 L 22.6173,-44.7408 L 22.7318,-44.7133 L 22.8405,-44.6682  L 22.9408,-44.6068 L 23.0303,-44.5303 L 23.1068,-44.4408 L 23.1682,-44.3405 L 23.2133,-44.2318 L 23.2408,-44.1173  L 23.2592,-43.8827 L 23.2867,-43.7682 L 23.3317,-43.6595 L 23.3932,-43.5592 L 23.4697,-43.4697 L 23.5592,-43.3932  L 23.6595,-43.3317 L 23.7682,-43.2867 L 23.8827,-43.2592 L 24,-43.25 L 24.1173,-43.2592 L 24.2318,-43.2867  L 24.3405,-43.3317 L 24.4408,-43.3932 L 24.5303,-43.4697 L 24.6068,-43.5592 L 24.6682,-43.6595 L 24.7133,-43.7682  L 24.7408,-43.8827 L 24.7592,-44.1173 L 24.7867,-44.2318 L 24.8317,-44.3405 L 24.8932,-44.4408 L 24.9697,-44.5303  L 25.0592,-44.6068 L 25.1595,-44.6682 L 25.2682,-44.7133 L 25.3827,-44.7408 L 25.5,-44.75 L 25.6173,-44.7408  L 25.7318,-44.7133 L 25.8405,-44.6682 L 25.9408,-44.6068 L 26.0303,-44.5303 L 26.1068,-44.4408 L 26.1682,-44.3405  L 26.2133,-44.2318 L 26.2408,-44.1173 L 26.2592,-43.8827 L 26.2867,-43.7682 L 26.3317,-43.6595 L 26.3932,-43.5592  L 26.4697,-43.4697 L 26.5592,-43.3932 L 26.6595,-43.3317 L 26.7682,-43.2867 L 26.8827,-43.2592 L 27,-43.25  L 27.1173,-43.2592 L 27.2318,-43.2867 L 27.3405,-43.3317 L 27.4408,-43.3932 L 27.5303,-43.4697 L 27.6068,-43.5592  L 27.6682,-43.6595 L 27.7133,-43.7682 L 27.7408,-43.8827 L 27.7592,-44.1173 L 27.7867,-44.2318 L 27.8317,-44.3405  L 27.8932,-44.4408 L 27.9697,-44.5303 L 28.0592,-44.6068 L 28.1595,-44.6682 L 28.2682,-44.7133 L 28.3827,-44.7408  L 28.5,-44.75 L 28.6173,-44.7408 L 28.7318,-44.7133 L 28.8405,-44.6682 L 28.9408,-44.6068 L 29.0303,-44.5303  L 29.1068,-44.4408 L 29.1682,-44.3405 L 29.2133,-44.2318 L 29.2408,-44.1173 L 29.2592,-43.8827 L 29.2867,-43.7682  L 29.3317,-43.6595 L 29.3932,-43.5592 L 29.4697,-43.4697 L 29.5592,-43.3932 L 29.6595,-43.3317 L 29.7682,-43.2867  L 29.8827,-43.2592 L 30,-43.25 L 30.1173,-43.2592 L 30.2318,-43.2867 L 30.3405,-43.3317 L 30.4408,-43.3932  L 30.5303,-43.4697 L 30.6068,-43.5592 L 30.6682,-43.6595 L 30.7133,-43.7682 L 30.7408,-43.8827 L 30.7592,-44.1173  L 30.7867,-44.2318 L 30.8317,-44.3405 L 30.8932,-44.4408 L 30.9697,-44.5303 L 31.0592,-44.6068 L 31.1595,-44.6682  L 31.2682,-44.7133 L 31.3827,-44.7408 L 31.5,-44.75 L 31.6173,-44.7408 L 31.7318,-44.7133 L 31.8405,-44.6682  L 31.9408,-44.6068 L 32.0303,-44.5303 L 32.1068,-44.4408 L 32.1682,-44.3405 L 32.2133,-44.2318 L 32.2408,-44.1173  L 32.2592,-43.8827 L 32.2867,-43.7682 L 32.3317,-43.6595 L 32.3932,-43.5592 L 32.4697,-43.4697 L 32.5592,-43.3932  L 32.6595,-43.3317 L 32.7682,-43.2867 L 32.8827,-43.2592 L 33,-43.25 L 33.1173,-43.2592 L 33.2318,-43.2867  L 33.3405,-43.3317 L 33.4408,-43.3932 L 33.5303,-43.4697 L 33.6068,-43.5592 L 33.6682,-43.6595 L 33.7133,-43.7682  L 33.7408,-43.8827 L 33.7592,-44.1173 L 33.7867,-44.2318 L 33.8317,-44.3405 L 33.8932,-44.4408 L 33.9697,-44.5303  L 34.0592,-44.6068 L 34.1595,-44.6682 L 34.2682,-44.7133 L 34.3827,-44.7408 L 34.5,-44.75 L 34.6173,-44.7408  L 34.7318,-44.7133 L 34.8405,-44.6682 L 34.9408,-44.6068 L 35.0303,-44.5303 L 35.1068,-44.4408 L 35.1682,-44.3405  L 35.2133,-44.2318 L 35.2408,-44.1173 L 35.2592,-43.8827 L 35.2867,-43.7682 L 35.3317,-43.6595 L 35.3932,-43.5592  L 35.4697,-43.4697 L 35.5592,-43.3932 L 35.6595,-43.3317 L 35.7682,-43.2867 L 35.8827,-43.2592 L 36,-43.25  L 36.1173,-43.2592 L 36.2318,-43.2867 L 36.3405,-43.3317 L 36.4408,-43.3932 L 36.5303,-43.4697 L 36.6068,-43.5592  L 36.6682,-43.6595 L 36.7133,-43.7682 L 36.7408,-43.8827 L 36.7592,-44.1173 L 36.7867,-44.2318 L 36.8317,-44.3405  L 36.8932,-44.4408 L 36.9697,-44.5303 L 37.0592,-44.6068 L 37.1595,-44.6682 L 37.2682,-44.7133 L 37.3827,-44.7408  L 37.5,-44.75 L 37.6173,-44.7408 L 37.7318,-44.7133 L 37.8405,-44.6682 L 37.9408,-44.6068 L 38.0303,-44.5303  L 38.1068,-44.4408 L 38.1682,-44.3405 L 38.2133,-44.2318 L 38.2408,-44.1173 L 38.2592,-43.8827 L 38.2867,-43.7682  L 38.3317,-43.6595 L 38.3932,-43.5592 L 38.4697,-43.4697 L 38.5592,-43.3932 L 38.6595,-43.3317 L 38.7682,-43.2867  L 38.8827,-43.2592 L 39,-43.25 L 39.1173,-43.2592 L 39.2318,-43.2867 L 39.3405,-43.3317 L 39.4408,-43.3932  L 39.5303,-43.4697 L 39.6068,-43.5592 L 39.6682,-43.6595 L 39.7133,-43.7682 L 39.7408,-43.8827 L 39.7454,-43.9413  L 39.7547,-43.9406 L 39.75,-44 L 39.7592,-44.1173 L 39.7867,-44.2318 L 39.8317,-44.3405 L 39.8932,-44.4408  L 39.9697,-44.5303 L 40.0592,-44.6068 L 40.1595,-44.6682 L 40.2682,-44.7133 L 40.3827,-44.7408 L 40.5,-44.75  L 40.6173,-44.7408 L 40.7318,-44.7133 L 40.8405,-44.6682 L 40.9408,-44.6068 L 41.0303,-44.5303 L 41.1068,-44.4408  L 41.1682,-44.3405 L 41.2133,-44.2318 L 41.2408,-44.1173 L 41.25,-44 L 41.2408,-43.8827 L 41.2133,-43.7682  L 41.1682,-43.6595 L 41.1068,-43.5592 L 41.0837,-43.5322 L 41.2699,-43.455 L 41.9389,-43.0451 L 42.5355,-42.5355  L 43.0451,-41.9389 L 43.455,-41.2699 L 43.5322,-41.0837 L 43.5592,-41.1068 L 43.6595,-41.1682 L 43.7682,-41.2133  L 43.8827,-41.2408 L 44,-41.25 L 44.1173,-41.2408 L 44.2318,-41.2133 L 44.3405,-41.1682 L 44.4408,-41.1068  L 44.5303,-41.0303 L 44.6068,-40.9408 L 44.6682,-40.8405 L 44.7133,-40.7318 L 44.7408,-40.6173 L 44.75,-40.5  L 44.7408,-40.3827 L 44.7133,-40.2682 L 44.6682,-40.1595 L 44.6068,-40.0592 L 44.5303,-39.9697 L 44.4408,-39.8932  L 44.3405,-39.8317 L 44.2318,-39.7867 L 44.1173,-39.7592 L 44,-39.75 L 43.9406,-39.7547 L 43.9413,-39.7454  L 43.8827,-39.7408 L 43.7682,-39.7133 L 43.6595,-39.6682 L 43.5592,-39.6068 L 43.4697,-39.5303 L 43.3932,-39.4408  L 43.3317,-39.3405 L 43.2867,-39.2318 L 43.2592,-39.1173 L 43.25,-39 L 43.2592,-38.8827 L 43.2867,-38.7682  L 43.3317,-38.6595 L 43.3932,-38.5592 L 43.4697,-38.4697 L 43.5592,-38.3932 L 43.6595,-38.3317 L 43.7682,-38.2867  L 43.8827,-38.2592 L 44.1173,-38.2408 L 44.2318,-38.2133 L 44.3405,-38.1682 L 44.4408,-38.1068 L 44.5303,-38.0303  L 44.6068,-37.9408 L 44.6682,-37.8405 L 44.7133,-37.7318 L 44.7408,-37.6173 L 44.75,-37.5 L 44.7408,-37.3827  L 44.7133,-37.2682 L 44.6682,-37.1595 L 44.6068,-37.0592 L 44.5303,-36.9697 L 44.4408,-36.8932 L 44.3405,-36.8317  L 44.2318,-36.7867 L 44.1173,-36.7592 L 43.8827,-36.7408 L 43.7682,-36.7133 L 43.6595,-36.6682 L 43.5592,-36.6068  L 43.4697,-36.5303 L 43.3932,-36.4408 L 43.3317,-36.3405 L 43.2867,-36.2318 L 43.2592,-36.1173 L 43.25,-36  L 43.2592,-35.8827 L 43.2867,-35.7682 L 43.3317,-35.6595 L 43.3932,-35.5592 L 43.4697,-35.4697 L 43.5592,-35.3932  L 43.6595,-35.3317 L 43.7682,-35.2867 L 43.8827,-35.2592 L 44.1173,-35.2408 L 44.2318,-35.2133 L 44.3405,-35.1682  L 44.4408,-35.1068 L 44.5303,-35.0303 L 44.6068,-34.9408 L 44.6682,-34.8405 L 44.7133,-34.7318 L 44.7408,-34.6173  L 44.75,-34.5 L 44.7408,-34.3827 L 44.7133,-34.2682 L 44.6682,-34.1595 L 44.6068,-34.0592 L 44.5303,-33.9697  L 44.4408,-33.8932 L 44.3405,-33.8317 L 44.2318,-33.7867 L 44.1173,-33.7592 L 43.8827,-33.7408 L 43.7682,-33.7133  L 43.6595,-33.6682 L 43.5592,-33.6068 L 43.4697,-33.5303 L 43.3932,-33.4408 L 43.3317,-33.3405 L 43.2867,-33.2318  L 43.2592,-33.1173 L 43.25,-33 L 43.2592,-32.8827 L 43.2867,-32.7682 L 43.3317,-32.6595 L 43.3932,-32.5592  L 43.4697,-32.4697 L 43.5592,-32.3932 L 43.6595,-32.3317 L 43.7682,-32.2867 L 43.8827,-32.2592 L 44.1173,-32.2408  L 44.2318,-32.2133 L 44.3405,-32.1682 L 44.4408,-32.1068 L 44.5303,-32.0303 L 44.6068,-31.9408 L 44.6682,-31.8405  L 44.7133,-31.7318 L 44.7408,-31.6173 L 44.75,-31.5 L 44.7408,-31.3827 L 44.7133,-31.2682 L 44.6682,-31.1595  L 44.6068,-31.0592 L 44.5303,-30.9697 L 44.4408,-30.8932 L 44.3405,-30.8317 L 44.2318,-30.7867 L 44.1173,-30.7592  L 43.8827,-30.7408 L 43.7682,-30.7133 L 43.6595,-30.6682 L 43.5592,-30.6068 L 43.4697,-30.5303 L 43.3932,-30.4408  L 43.3317,-30.3405 L 43.2867,-30.2318 L 43.2592,-30.1173 L 43.25,-30 L 43.2592,-29.8827 L 43.2867,-29.7682  L 43.3317,-29.6595 L 43.3932,-29.5592 L 43.4697,-29.4697 L 43.5592,-29.3932 L 43.6595,-29.3317 L 43.7682,-29.2867  L 43.8827,-29.2592 L 44.1173,-29.2408 L 44.2318,-29.2133 L 44.3405,-29.1682 L 44.4408,-29.1068 L 44.5303,-29.0303  L 44.6068,-28.9408 L 44.6682,-28.8405 L 44.7133,-28.7318 L 44.7408,-28.6173 L 44.75,-28.5 L 44.7408,-28.3827  L 44.7133,-28.2682 L 44.6682,-28.1595 L 44.6068,-28.0592 L 44.5303,-27.9697 L 44.4408,-27.8932 L 44.3405,-27.8317  L 44.2318,-27.7867 L 44.1173,-27.7592 L 43.8827,-27.7408 L 43.7682,-27.7133 L 43.6595,-27.6682 L 43.5592,-27.6068  L 43.4697,-27.5303 L 43.3932,-27.4408 L 43.3317,-27.3405 L 43.2867,-27.2318 L 43.2592,-27.1173 L 43.25,-27  L 43.2592,-26.8827 L 43.2867,-26.7682 L 43.3317,-26.6595 L 43.3932,-26.5592 L 43.4697,-26.4697 L 43.5592,-26.3932  L 43.6595,-26.3317 L 43.7682,-26.2867 L 43.8827,-26.2592 L 44.1173,-26.2408 L 44.2318,-26.2133 L 44.3405,-26.1682  L 44.4408,-26.1068 L 44.5303,-26.0303 L 44.6068,-25.9408 L 44.6682,-25.8405 L 44.7133,-25.7318 L 44.7408,-25.6173  L 44.75,-25.5 L 44.7408,-25.3827 L 44.7133,-25.2682 L 44.6682,-25.1595 L 44.6068,-25.0592 L 44.5303,-24.9697  L 44.4408,-24.8932 L 44.3405,-24.8317 L 44.2318,-24.7867 L 44.1173,-24.7592 L 43.8827,-24.7408 L 43.7682,-24.7133  L 43.6595,-24.6682 L 43.5592,-24.6068 L 43.4697,-24.5303 L 43.3932,-24.4408 L 43.3317,-24.3405 L 43.2867,-24.2318  L 43.2592,-24.1173 L 43.25,-24 L 43.2592,-23.8827 L 43.2867,-23.7682 L 43.3317,-23.6595 L 43.3932,-23.5592  L 43.4697,-23.4697 L 43.5592,-23.3932 L 43.6595,-23.3317 L 43.7682,-23.2867 L 43.8827,-23.2592 L 44.1173,-23.2408  L 44.2318,-23.2133 L 44.3405,-23.1682 L 44.4408,-23.1068 L 44.5303,-23.0303 L 44.6068,-22.9408 L 44.6682,-22.8405  L 44.7133,-22.7318 L 44.7408,-22.6173 L 44.75,-22.5 L 44.7408,-22.3827 L 44.7133,-22.2682 L 44.6682,-22.1595  L 44.6068,-22.0592 L 44.5303,-21.9697 L 44.4408,-21.8932 L 44.3405,-21.8317 L 44.2318,-21.7867 L 44.1173,-21.7592  L 43.8827,-21.7408 L 43.7682,-21.7133 L 43.6595,-21.6682 L 43.5592,-21.6068 L 43.4697,-21.5303 L 43.3932,-21.4408  L 43.3317,-21.3405 L 43.2867,-21.2318 L 43.2592,-21.1173 L 43.25,-21 L 43.2592,-20.8827 L 43.2867,-20.7682  L 43.3317,-20.6595 L 43.3932,-20.5592 L 43.4697,-20.4697 L 43.5592,-20.3932 L 43.6595,-20.3317 L 43.7682,-20.2867  L 43.8827,-20.2592 L 44.1173,-20.2408 L 44.2318,-20.2133 L 44.3405,-20.1682 L 44.4408,-20.1068 L 44.5303,-20.0303  L 44.6068,-19.9408 L 44.6682,-19.8405 L 44.7133,-19.7318 L 44.7408,-19.6173 L 44.75,-19.5 L 44.7408,-19.3827  L 44.7133,-19.2682 L 44.6682,-19.1595 L 44.6068,-19.0592 L 44.5303,-18.9697 L 44.4408,-18.8932 L 44.3405,-18.8317  L 44.2318,-18.7867 L 44.1173,-18.7592 L 43.8827,-18.7408 L 43.7682,-18.7133 L 43.6595,-18.6682 L 43.5592,-18.6068  L 43.4697,-18.5303 L 43.3932,-18.4408 L 43.3317,-18.3405 L 43.2867,-18.2318 L 43.2592,-18.1173 L 43.25,-18  L 43.2592,-17.8827 L 43.2867,-17.7682 L 43.3317,-17.6595 L 43.3932,-17.5592 L 43.4697,-17.4697 L 43.5592,-17.3932  L 43.6595,-17.3317 L 43.7682,-17.2867 L 43.8827,-17.2592 L 44.1173,-17.2408 L 44.2318,-17.2133 L 44.3405,-17.1682  L 44.4408,-17.1068 L 44.5303,-17.0303 L 44.6068,-16.9408 L 44.6682,-16.8405 L 44.7133,-16.7318 L 44.7408,-16.6173  L 44.75,-16.5 L 44.7408,-16.3827 L 44.7133,-16.2682 L 44.6682,-16.1595 L 44.6068,-16.0592 L 44.5303,-15.9697  L 44.4408,-15.8932 L 44.3405,-15.8317 L 44.2318,-15.7867 L 44.1173,-15.7592 L 43.8827,-15.7408 L 43.7682,-15.7133  L 43.6595,-15.6682 L 43.5592,-15.6068 L 43.4697,-15.5303 L 43.3932,-15.4408 L 43.3317,-15.3405 L 43.2867,-15.2318  L 43.2592,-15.1173 L 43.25,-15 L 43.2592,-14.8827 L 43.2867,-14.7682 L 43.3317,-14.6595 L 43.3932,-14.5592  L 43.4697,-14.4697 L 43.5592,-14.3932 L 43.6595,-14.3317 L 43.7682,-14.2867 L 43.8827,-14.2592 L 44.1173,-14.2408  L 44.2318,-14.2133 L 44.3405,-14.1682 L 44.4408,-14.1068 L 44.5303,-14.0303 L 44.6068,-13.9408 L 44.6682,-13.8405  L 44.7133,-13.7318 L 44.7408,-13.6173 L 44.75,-13.5 L 44.7408,-13.3827 L 44.7133,-13.2682 L 44.6682,-13.1595  L 44.6068,-13.0592 L 44.5303,-12.9697 L 44.4408,-12.8932 L 44.3405,-12.8317 L 44.2318,-12.7867 L 44.1173,-12.7592  L 43.8827,-12.7408 L 43.7682,-12.7133 L 43.6595,-12.6682 L 43.5592,-12.6068 L 43.4697,-12.5303 L 43.3932,-12.4408  L 43.3317,-12.3405 L 43.2867,-12.2318 L 43.2592,-12.1173 L 43.25,-12 L 43.2592,-11.8827 L 43.2867,-11.7682  L 43.3317,-11.6595 L 43.3932,-11.5592 L 43.4697,-11.4697 L 43.5592,-11.3932 L 43.6595,-11.3317 L 43.7682,-11.2867  L 43.8827,-11.2592 L 44.1173,-11.2408 L 44.2318,-11.2133 L 44.3405,-11.1682 L 44.4408,-11.1068 L 44.5303,-11.0303  L 44.6068,-10.9408 L 44.6682,-10.8405 L 44.7133,-10.7318 L 44.7408,-10.6173 L 44.75,-10.5 L 44.7408,-10.3827  L 44.7133,-10.2682 L 44.6682,-10.1595 L 44.6068,-10.0592 L 44.5303,-9.96967 L 44.4408,-9.89323 L 44.3405,-9.83174  L 44.2318,-9.7867 L 44.1173,-9.75923 L 43.8827,-9.74075 L 43.7682,-9.71329 L 43.6595,-9.66824 L 43.5592,-9.60675  L 43.4697,-9.53032 L 43.3932,-9.44083 L 43.3317,-9.34048 L 43.2867,-9.23175 L 43.2592,-9.11732 L 43.25,-9  L 43.2592,-8.88266 L 43.2867,-8.76823 L 43.3317,-8.6595 L 43.3932,-8.55916 L 43.4697,-8.46967 L 43.5592,-8.39323  L 43.6595,-8.33174 L 43.7682,-8.2867 L 43.8827,-8.25923 L 44.1173,-8.24075 L 44.2318,-8.21329 L 44.3405,-8.16824  L 44.4408,-8.10675 L 44.5303,-8.03032 L 44.6068,-7.94083 L 44.6682,-7.84048 L 44.7133,-7.73175 L 44.7408,-7.61732  L 44.75,-7.5 L 44.7408,-7.38266 L 44.7133,-7.26823 L 44.6682,-7.1595 L 44.6068,-7.05916 L 44.5303,-6.96967  L 44.4408,-6.89323 L 44.3405,-6.83174 L 44.2318,-6.7867 L 44.1173,-6.75923 L 43.8827,-6.74075 L 43.7682,-6.71329  L 43.6595,-6.66824 L 43.5592,-6.60675 L 43.4697,-6.53032 L 43.3932,-6.44083 L 43.3317,-6.34048 L 43.2867,-6.23175  L 43.2592,-6.11732 L 43.25,-6 L 43.2592,-5.88266 L 43.2867,-5.76823 L 43.3317,-5.6595 L 43.3932,-5.55916  L 43.4697,-5.46967 L 43.5592,-5.39323 L 43.6595,-5.33174 L 43.7682,-5.2867 L 43.8827,-5.25923 L 44.1173,-5.24075  L 44.2318,-5.21329 L 44.3405,-5.16824 L 44.4408,-5.10675 L 44.5303,-5.03032 L 44.6068,-4.94083 L 44.6682,-4.84048  L 44.7133,-4.73175 L 44.7408,-4.61732 L 44.75,-4.5 L 44.7408,-4.38266 L 44.7133,-4.26823 L 44.6682,-4.1595  L 44.6068,-4.05916 L 44.5303,-3.96967 L 44.4408,-3.89323 L 44.3405,-3.83174 L 44.2318,-3.7867 L 44.1173,-3.75923  L 43.8827,-3.74075 L 43.7682,-3.71329 L 43.6595,-3.66824 L 43.5592,-3.60675 L 43.4697,-3.53032 L 43.3932,-3.44083  L 43.3317,-3.34048 L 43.2867,-3.23175 L 43.2592,-3.11732 L 43.25,-3 L 43.2592,-2.88266 L 43.2867,-2.76823  L 43.3317,-2.6595 L 43.3932,-2.55916 L 43.4697,-2.46967 L 43.5592,-2.39323 L 43.6595,-2.33174 L 43.7682,-2.2867  L 43.8827,-2.25923 L 44.1173,-2.24075 L 44.2318,-2.21329 L 44.3405,-2.16824 L 44.4408,-2.10675 L 44.5303,-2.03032  L 44.6068,-1.94083 L 44.6682,-1.84048 L 44.7133,-1.73175 L 44.7408,-1.61732 L 44.75,-1.5 L 44.7408,-1.38266  L 44.7133,-1.26823 L 44.6682,-1.1595 L 44.6068,-1.05916 L 44.5303,-0.969666 L 44.4408,-0.893234 L 44.3405,-0.831741  L 44.2318,-0.786697 L 44.1173,-0.759232 L 43.8827,-0.740753 L 43.7682,-0.713287 L 43.6595,-0.668243 L 43.5592,-0.60675  L 43.4697,-0.530319 L 43.3932,-0.440826 L 43.3317,-0.340485 L 43.2867,-0.23175 L 43.2592,-0.117325 L 43.25,-0  L 43.2592,0.117325 L 43.2867,0.23175 L 43.3317,0.340485 L 43.3932,0.440826 L 43.4697,0.530319 L 43.5592,0.60675  L 43.6595,0.668243 L 43.7682,0.713287 L 43.8827,0.740753 L 44.1173,0.759232 L 44.2318,0.786697 L 44.3405,0.831741  L 44.4408,0.893234 L 44.5303,0.969666 L 44.6068,1.05916 L 44.6682,1.1595 L 44.7133,1.26823 L 44.7408,1.38266  L 44.75,1.5 L 44.7408,1.61732 L 44.7133,1.73175 L 44.6682,1.84048 L 44.6068,1.94083 L 44.5303,2.03032  L 44.4408,2.10675 L 44.3405,2.16824 L 44.2318,2.21329 L 44.1173,2.24075 L 43.8827,2.25923 L 43.7682,2.2867  L 43.6595,2.33174 L 43.5592,2.39323 L 43.4697,2.46967 L 43.3932,2.55916 L 43.3317,2.6595 L 43.2867,2.76823  L 43.2592,2.88266 L 43.25,3 L 43.2592,3.11732 L 43.2867,3.23175 L 43.3317,3.34048 L 43.3932,3.44083  L 43.4697,3.53032 L 43.5592,3.60675 L 43.6595,3.66824 L 43.7682,3.71329 L 43.8827,3.74075 L 44.1173,3.75923  L 44.2318,3.7867 L 44.3405,3.83174 L 44.4408,3.89323 L 44.5303,3.96967 L 44.6068,4.05916 L 44.6682,4.1595  L 44.7133,4.26823 L 44.7408,4.38266 L 44.75,4.5 L 44.7408,4.61732 L 44.7133,4.73175 L 44.6682,4.84048  L 44.6068,4.94083 L 44.5303,5.03032 L 44.4408,5.10675 L 44.3405,5.16824 L 44.2318,5.21329 L 44.1173,5.24075  L 43.8827,5.25923 L 43.7682,5.2867 L 43.6595,5.33174 L 43.5592,5.39323 L 43.4697,5.46967 L 43.3932,5.55916  L 43.3317,5.6595 L 43.2867,5.76823 L 43.2592,5.88266 L 43.25,6 L 43.2592,6.11732 L 43.2867,6.23175  L 43.3317,6.34048 L 43.3932,6.44083 L 43.4697,6.53032 L 43.5592,6.60675 L 43.6595,6.66824 L 43.7682,6.71329  L 43.8827,6.74075 L 44.1173,6.75923 L 44.2318,6.7867 L 44.3405,6.83174 L 44.4408,6.89323 L 44.5303,6.96967  L 44.6068,7.05916 L 44.6682,7.1595 L 44.7133,7.26823 L 44.7408,7.38266 L 44.75,7.5 L 44.7408,7.61732  L 44.7133,7.73175 L 44.6682,7.84048 L 44.6068,7.94083 L 44.5303,8.03032 L 44.4408,8.10675 L 44.3405,8.16824  L 44.2318,8.21329 L 44.1173,8.24075 L 43.8827,8.25923 L 43.7682,8.2867 L 43.6595,8.33174 L 43.5592,8.39323  L 43.4697,8.46967 L 43.3932,8.55916 L 43.3317,8.6595 L 43.2867,8.76823 L 43.2592,8.88266 L 43.25,9  L 43.2592,9.11732 L 43.2867,9.23175 L 43.3317,9.34048 L 43.3932,9.44083 L 43.4697,9.53032 L 43.5592,9.60675  L 43.6595,9.66824 L 43.7682,9.71329 L 43.8827,9.74075 L 44.1173,9.75923 L 44.2318,9.7867 L 44.3405,9.83174  L 44.4408,9.89323 L 44.5303,9.96967 L 44.6068,10.0592 L 44.6682,10.1595 L 44.7133,10.2682 L 44.7408,10.3827  L 44.75,10.5 L 44.7408,10.6173 L 44.7133,10.7318 L 44.6682,10.8405 L 44.6068,10.9408 L 44.5303,11.0303  L 44.4408,11.1068 L 44.3405,11.1682 L 44.2318,11.2133 L 44.1173,11.2408 L 43.8827,11.2592 L 43.7682,11.2867  L 43.6595,11.3317 L 43.5592,11.3932 L 43.4697,11.4697 L 43.3932,11.5592 L 43.3317,11.6595 L 43.2867,11.7682  L 43.2592,11.8827 L 43.25,12 L 43.2592,12.1173 L 43.2867,12.2318 L 43.3317,12.3405 L 43.3932,12.4408  L 43.4697,12.5303 L 43.5592,12.6068 L 43.6595,12.6682 L 43.7682,12.7133 L 43.8827,12.7408 L 44.1173,12.7592  L 44.2318,12.7867 L 44.3405,12.8317 L 44.4408,12.8932 L 44.5303,12.9697 L 44.6068,13.0592 L 44.6682,13.1595  L 44.7133,13.2682 L 44.7408,13.3827 L 44.75,13.5 L 44.7408,13.6173 L 44.7133,13.7318 L 44.6682,13.8405  L 44.6068,13.9408 L 44.5303,14.0303 L 44.4408,14.1068 L 44.3405,14.1682 L 44.2318,14.2133 L 44.1173,14.2408  L 43.8827,14.2592 L 43.7682,14.2867 L 43.6595,14.3317 L 43.5592,14.3932 L 43.4697,14.4697 L 43.3932,14.5592  L 43.3317,14.6595 L 43.2867,14.7682 L 43.2592,14.8827 L 43.25,15 L 43.2592,15.1173 L 43.2867,15.2318  L 43.3317,15.3405 L 43.3932,15.4408 L 43.4697,15.5303 L 43.5592,15.6068 L 43.6595,15.6682 L 43.7682,15.7133  L 43.8827,15.7408 L 44.1173,15.7592 L 44.2318,15.7867 L 44.3405,15.8317 L 44.4408,15.8932 L 44.5303,15.9697  L 44.6068,16.0592 L 44.6682,16.1595 L 44.7133,16.2682 L 44.7408,16.3827 L 44.75,16.5 L 44.7408,16.6173  L 44.7133,16.7318 L 44.6682,16.8405 L 44.6068,16.9408 L 44.5303,17.0303 L 44.4408,17.1068 L 44.3405,17.1682  L 44.2318,17.2133 L 44.1173,17.2408 L 43.8827,17.2592 L 43.7682,17.2867 L 43.6595,17.3317 L 43.5592,17.3932  L 43.4697,17.4697 L 43.3932,17.5592 L 43.3317,17.6595 L 43.2867,17.7682 L 43.2592,17.8827 L 43.25,18  L 43.2592,18.1173 L 43.2867,18.2318 L 43.3317,18.3405 L 43.3932,18.4408 L 43.4697,18.5303 L 43.5592,18.6068  L 43.6595,18.6682 L 43.7682,18.7133 L 43.8827,18.7408 L 44.1173,18.7592 L 44.2318,18.7867 L 44.3405,18.8317  L 44.4408,18.8932 L 44.5303,18.9697 L 44.6068,19.0592 L 44.6682,19.1595 L 44.7133,19.2682 L 44.7408,19.3827  L 44.75,19.5 L 44.7408,19.6173 L 44.7133,19.7318 L 44.6682,19.8405 L 44.6068,19.9408 L 44.5303,20.0303  L 44.4408,20.1068 L 44.3405,20.1682 L 44.2318,20.2133 L 44.1173,20.2408 L 43.8827,20.2592 L 43.7682,20.2867  L 43.6595,20.3317 L 43.5592,20.3932 L 43.4697,20.4697 L 43.3932,20.5592 L 43.3317,20.6595 L 43.2867,20.7682  L 43.2592,20.8827 L 43.25,21 L 43.2592,21.1173 L 43.2867,21.2318 L 43.3317,21.3405 L 43.3932,21.4408  L 43.4697,21.5303 L 43.5592,21.6068 L 43.6595,21.6682 L 43.7682,21.7133 L 43.8827,21.7408 L 44.1173,21.7592  L 44.2318,21.7867 L 44.3405,21.8317 L 44.4408,21.8932 L 44.5303,21.9697 L 44.6068,22.0592 L 44.6682,22.1595  L 44.7133,22.2682 L 44.7408,22.3827 L 44.75,22.5 L 44.7408,22.6173 L 44.7133,22.7318 L 44.6682,22.8405  L 44.6068,22.9408 L 44.5303,23.0303 L 44.4408,23.1068 L 44.3405,23.1682 L 44.2318,23.2133 L 44.1173,23.2408  L 43.8827,23.2592 L 43.7682,23.2867 L 43.6595,23.3317 L 43.5592,23.3932 L 43.4697,23.4697 L 43.3932,23.5592  L 43.3317,23.6595 L 43.2867,23.7682 L 43.2592,23.8827 L 43.25,24 L 43.2592,24.1173 L 43.2867,24.2318  L 43.3317,24.3405 L 43.3932,24.4408 L 43.4697,24.5303 L 43.5592,24.6068 L 43.6595,24.6682 L 43.7682,24.7133  L 43.8827,24.7408 L 44.1173,24.7592 L 44.2318,24.7867 L 44.3405,24.8317 L 44.4408,24.8932 L 44.5303,24.9697  L 44.6068,25.0592 L 44.6682,25.1595 L 44.7133,25.2682 L 44.7408,25.3827 L 44.75,25.5 L 44.7408,25.6173  L 44.7133,25.7318 L 44.6682,25.8405 L 44.6068,25.9408 L 44.5303,26.0303 L 44.4408,26.1068 L 44.3405,26.1682  L 44.2318,26.2133 L 44.1173,26.2408 L 43.8827,26.2592 L 43.7682,26.2867 L 43.6595,26.3317 L 43.5592,26.3932  L 43.4697,26.4697 L 43.3932,26.5592 L 43.3317,26.6595 L 43.2867,26.7682 L 43.2592,26.8827 L 43.25,27  L 43.2592,27.1173 L 43.2867,27.2318 L 43.3317,27.3405 L 43.3932,27.4408 L 43.4697,27.5303 L 43.5592,27.6068  L 43.6595,27.6682 L 43.7682,27.7133 L 43.8827,27.7408 L 44.1173,27.7592 L 44.2318,27.7867 L 44.3405,27.8317  L 44.4408,27.8932 L 44.5303,27.9697 L 44.6068,28.0592 L 44.6682,28.1595 L 44.7133,28.2682 L 44.7408,28.3827  L 44.75,28.5 L 44.7408,28.6173 L 44.7133,28.7318 L 44.6682,28.8405 L 44.6068,28.9408 L 44.5303,29.0303  L 44.4408,29.1068 L 44.3405,29.1682 L 44.2318,29.2133 L 44.1173,29.2408 L 43.8827,29.2592 L 43.7682,29.2867  L 43.6595,29.3317 L 43.5592,29.3932 L 43.4697,29.4697 L 43.3932,29.5592 L 43.3317,29.6595 L 43.2867,29.7682  L 43.2592,29.8827 L 43.25,30 L 43.2592,30.1173 L 43.2867,30.2318 L 43.3317,30.3405 L 43.3932,30.4408  L 43.4697,30.5303 L 43.5592,30.6068 L 43.6595,30.6682 L 43.7682,30.7133 L 43.8827,30.7408 L 44.1173,30.7592  L 44.2318,30.7867 L 44.3405,30.8317 L 44.4408,30.8932 L 44.5303,30.9697 L 44.6068,31.0592 L 44.6682,31.1595  L 44.7133,31.2682 L 44.7408,31.3827 L 44.75,31.5 L 44.7408,31.6173 L 44.7133,31.7318 L 44.6682,31.8405  L 44.6068,31.9408 L 44.5303,32.0303 L 44.4408,32.1068 L 44.3405,32.1682 L 44.2318,32.2133 L 44.1173,32.2408  L 43.8827,32.2592 L 43.7682,32.2867 L 43.6595,32.3317 L 43.5592,32.3932 L 43.4697,32.4697 L 43.3932,32.5592  L 43.3317,32.6595 L 43.2867,32.7682 L 43.2592,32.8827 L 43.25,33 L 43.2592,33.1173 L 43.2867,33.2318  L 43.3317,33.3405 L 43.3932,33.4408 L 43.4697,33.5303 L 43.5592,33.6068 L 43.6595,33.6682 L 43.7682,33.7133  L 43.8827,33.7408 L 44.1173,33.7592 L 44.2318,33.7867 L 44.3405,33.8317 L 44.4408,33.8932 L 44.5303,33.9697  L 44.6068,34.0592 L 44.6682,34.1595 L 44.7133,34.2682 L 44.7408,34.3827 L 44.75,34.5 L 44.7408,34.6173  L 44.7133,34.7318 L 44.6682,34.8405 L 44.6068,34.9408 L 44.5303,35.0303 L 44.4408,35.1068 L 44.3405,35.1682  L 44.2318,35.2133 L 44.1173,35.2408 L 43.8827,35.2592 L 43.7682,35.2867 L 43.6595,35.3317 L 43.5592,35.3932  L 43.4697,35.4697 L 43.3932,35.5592 L 43.3317,35.6595 L 43.2867,35.7682 L 43.2592,35.8827 L 43.25,36  L 43.2592,36.1173 L 43.2867,36.2318 L 43.3317,36.3405 L 43.3932,36.4408 L 43.4697,36.5303 L 43.5592,36.6068  L 43.6595,36.6682 L 43.7682,36.7133 L 43.8827,36.7408 L 44.1173,36.7592 L 44.2318,36.7867 L 44.3405,36.8317  L 44.4408,36.8932 L 44.5303,36.9697 L 44.6068,37.0592 L 44.6682,37.1595 L 44.7133,37.2682 L 44.7408,37.3827  L 44.75,37.5 L 44.7408,37.6173 L 44.7133,37.7318 L 44.6682,37.8405 L 44.6068,37.9408 L 44.5303,38.0303  L 44.4408,38.1068 L 44.3405,38.1682 L 44.2318,38.2133 L 44.1173,38.2408 L 44,38.25 L 44,39  L 43.9384,39.7822 L 43.7553,40.5451 L 43.455,41.2699 L 43.0451,41.9389 L 42.5355,42.5355 L 41.9389,43.0451  L 41.2699,43.455 L 40.5451,43.7553 L 39.7822,43.9384 L 39.7454,43.9413 L 39.75,44 L 39.7408,44.1173  L 39.7133,44.2318 L 39.6682,44.3405 L 39.6068,44.4408 L 39.5303,44.5303 L 39.4408,44.6068 L 39.3405,44.6682  L 39.2318,44.7133 L 39.1173,44.7408 L 39,44.75 L 38.8827,44.7408 L 38.7682,44.7133 L 38.6595,44.6682  L 38.5592,44.6068 L 38.4697,44.5303 L 38.3932,44.4408 L 38.3317,44.3405 L 38.2867,44.2318 L 38.2592,44.1173  L 38.2408,43.8827 L 38.2133,43.7682 L 38.1682,43.6595 L 38.1068,43.5592 L 38.0303,43.4697 L 37.9408,43.3932  L 37.8405,43.3317 L 37.7318,43.2867 L 37.6173,43.2592 L 37.5,43.25 L 37.3827,43.2592 L 37.2682,43.2867  L 37.1595,43.3317 L 37.0592,43.3932 L 36.9697,43.4697 L 36.8932,43.5592 L 36.8317,43.6595 L 36.7867,43.7682  L 36.7592,43.8827 L 36.7408,44.1173 L 36.7133,44.2318 L 36.6682,44.3405 L 36.6068,44.4408 L 36.5303,44.5303  L 36.4408,44.6068 L 36.3405,44.6682 L 36.2318,44.7133 L 36.1173,44.7408 L 36,44.75 L 35.8827,44.7408  L 35.7682,44.7133 L 35.6595,44.6682 L 35.5592,44.6068 L 35.4697,44.5303 L 35.3932,44.4408 L 35.3317,44.3405  L 35.2867,44.2318 L 35.2592,44.1173 L 35.2408,43.8827 L 35.2133,43.7682 L 35.1682,43.6595 L 35.1068,43.5592  L 35.0303,43.4697 L 34.9408,43.3932 L 34.8405,43.3317 L 34.7318,43.2867 L 34.6173,43.2592 L 34.5,43.25  L 34.3827,43.2592 L 34.2682,43.2867 L 34.1595,43.3317 L 34.0592,43.3932 L 33.9697,43.4697 L 33.8932,43.5592  L 33.8317,43.6595 L 33.7867,43.7682 L 33.7592,43.8827 L 33.7408,44.1173 L 33.7133,44.2318 L 33.6682,44.3405  L 33.6068,44.4408 L 33.5303,44.5303 L 33.4408,44.6068 L 33.3405,44.6682 L 33.2318,44.7133 L 33.1173,44.7408  L 33,44.75 L 32.8827,44.7408 L 32.7682,44.7133 L 32.6595,44.6682 L 32.5592,44.6068 L 32.4697,44.5303  L 32.3932,44.4408 L 32.3317,44.3405 L 32.2867,44.2318 L 32.2592,44.1173 L 32.2408,43.8827 L 32.2133,43.7682  L 32.1682,43.6595 L 32.1068,43.5592 L 32.0303,43.4697 L 31.9408,43.3932 L 31.8405,43.3317 L 31.7318,43.2867  L 31.6173,43.2592 L 31.5,43.25 L 31.3827,43.2592 L 31.2682,43.2867 L 31.1595,43.3317 L 31.0592,43.3932  L 30.9697,43.4697 L 30.8932,43.5592 L 30.8317,43.6595 L 30.7867,43.7682 L 30.7592,43.8827 L 30.7408,44.1173  L 30.7133,44.2318 L 30.6682,44.3405 L 30.6068,44.4408 L 30.5303,44.5303 L 30.4408,44.6068 L 30.3405,44.6682  L 30.2318,44.7133 L 30.1173,44.7408 L 30,44.75 L 29.8827,44.7408 L 29.7682,44.7133 L 29.6595,44.6682  L 29.5592,44.6068 L 29.4697,44.5303 L 29.3932,44.4408 L 29.3317,44.3405 L 29.2867,44.2318 L 29.2592,44.1173  L 29.2408,43.8827 L 29.2133,43.7682 L 29.1682,43.6595 L 29.1068,43.5592 L 29.0303,43.4697 L 28.9408,43.3932  L 28.8405,43.3317 L 28.7318,43.2867 L 28.6173,43.2592 L 28.5,43.25 L 28.3827,43.2592 L 28.2682,43.2867  L 28.1595,43.3317 L 28.0592,43.3932 L 27.9697,43.4697 L 27.8932,43.5592 L 27.8317,43.6595 L 27.7867,43.7682  L 27.7592,43.8827 L 27.7408,44.1173 L 27.7133,44.2318 L 27.6682,44.3405 L 27.6068,44.4408 L 27.5303,44.5303  L 27.4408,44.6068 L 27.3405,44.6682 L 27.2318,44.7133 L 27.1173,44.7408 L 27,44.75 L 26.8827,44.7408  L 26.7682,44.7133 L 26.6595,44.6682 L 26.5592,44.6068 L 26.4697,44.5303 L 26.3932,44.4408 L 26.3317,44.3405  L 26.2867,44.2318 L 26.2592,44.1173 L 26.2408,43.8827 L 26.2133,43.7682 L 26.1682,43.6595 L 26.1068,43.5592  L 26.0303,43.4697 L 25.9408,43.3932 L 25.8405,43.3317 L 25.7318,43.2867 L 25.6173,43.2592 L 25.5,43.25  L 25.3827,43.2592 L 25.2682,43.2867 L 25.1595,43.3317 L 25.0592,43.3932 L 24.9697,43.4697 L 24.8932,43.5592  L 24.8317,43.6595 L 24.7867,43.7682 L 24.7592,43.8827 L 24.7408,44.1173 L 24.7133,44.2318 L 24.6682,44.3405  L 24.6068,44.4408 L 24.5303,44.5303 L 24.4408,44.6068 L 24.3405,44.6682 L 24.2318,44.7133 L 24.1173,44.7408  L 24,44.75 L 23.8827,44.7408 L 23.7682,44.7133 L 23.6595,44.6682 L 23.5592,44.6068 L 23.4697,44.5303  L 23.3932,44.4408 L 23.3317,44.3405 L 23.2867,44.2318 L 23.2592,44.1173 L 23.2408,43.8827 L 23.2133,43.7682  L 23.1682,43.6595 L 23.1068,43.5592 L 23.0303,43.4697 L 22.9408,43.3932 L 22.8405,43.3317 L 22.7318,43.2867  L 22.6173,43.2592 L 22.5,43.25 L 22.3827,43.2592 L 22.2682,43.2867 L 22.1595,43.3317 L 22.0592,43.3932  L 21.9697,43.4697 L 21.8932,43.5592 L 21.8317,43.6595 L 21.7867,43.7682 L 21.7592,43.8827 L 21.7408,44.1173  L 21.7133,44.2318 L 21.6682,44.3405 L 21.6068,44.4408 L 21.5303,44.5303 L 21.4408,44.6068 L 21.3405,44.6682  L 21.2318,44.7133 L 21.1173,44.7408 L 21,44.75 L 20.8827,44.7408 L 20.7682,44.7133 L 20.6595,44.6682  L 20.5592,44.6068 L 20.4697,44.5303 L 20.3932,44.4408 L 20.3317,44.3405 L 20.2867,44.2318 L 20.2592,44.1173  L 20.2408,43.8827 L 20.2133,43.7682 L 20.1682,43.6595 L 20.1068,43.5592 L 20.0303,43.4697 L 19.9408,43.3932  L 19.8405,43.3317 L 19.7318,43.2867 L 19.6173,43.2592 L 19.5,43.25 L 19.3827,43.2592 L 19.2682,43.2867  L 19.1595,43.3317 L 19.0592,43.3932 L 18.9697,43.4697 L 18.8932,43.5592 L 18.8317,43.6595 L 18.7867,43.7682  L 18.7592,43.8827 L 18.7408,44.1173 L 18.7133,44.2318 L 18.6682,44.3405 L 18.6068,44.4408 L 18.5303,44.5303  L 18.4408,44.6068 L 18.3405,44.6682 L 18.2318,44.7133 L 18.1173,44.7408 L 18,44.75 L 17.8827,44.7408  L 17.7682,44.7133 L 17.6595,44.6682 L 17.5592,44.6068 L 17.4697,44.5303 L 17.3932,44.4408 L 17.3317,44.3405  L 17.2867,44.2318 L 17.2592,44.1173 L 17.2408,43.8827 L 17.2133,43.7682 L 17.1682,43.6595 L 17.1068,43.5592  L 17.0303,43.4697 L 16.9408,43.3932 L 16.8405,43.3317 L 16.7318,43.2867 L 16.6173,43.2592 L 16.5,43.25  L 16.3827,43.2592 L 16.2682,43.2867 L 16.1595,43.3317 L 16.0592,43.3932 L 15.9697,43.4697 L 15.8932,43.5592  L 15.8317,43.6595 L 15.7867,43.7682 L 15.7592,43.8827 L 15.7408,44.1173 L 15.7133,44.2318 L 15.6682,44.3405  L 15.6068,44.4408 L 15.5303,44.5303 L 15.4408,44.6068 L 15.3405,44.6682 L 15.2318,44.7133 L 15.1173,44.7408  L 15,44.75 L 14.8827,44.7408 L 14.7682,44.7133 L 14.6595,44.6682 L 14.5592,44.6068 L 14.4697,44.5303  L 14.3932,44.4408 L 14.3317,44.3405 L 14.2867,44.2318 L 14.2592,44.1173 L 14.2408,43.8827 L 14.2133,43.7682  L 14.1682,43.6595 L 14.1068,43.5592 L 14.0303,43.4697 L 13.9408,43.3932 L 13.8405,43.3317 L 13.7318,43.2867  L 13.6173,43.2592 L 13.5,43.25 L 13.3827,43.2592 L 13.2682,43.2867 L 13.1595,43.3317 L 13.0592,43.3932  L 12.9697,43.4697 L 12.8932,43.5592 L 12.8317,43.6595 L 12.7867,43.7682 L 12.7592,43.8827 L 12.7408,44.1173  L 12.7133,44.2318 L 12.6682,44.3405 L 12.6068,44.4408 L 12.5303,44.5303 L 12.4408,44.6068 L 12.3405,44.6682  L 12.2318,44.7133 L 12.1173,44.7408 L 12,44.75 L 11.8827,44.7408 L 11.7682,44.7133 L 11.6595,44.6682  L 11.5592,44.6068 L 11.4697,44.5303 L 11.3932,44.4408 L 11.3317,44.3405 L 11.2867,44.2318 L 11.2592,44.1173  L 11.2408,43.8827 L 11.2133,43.7682 L 11.1682,43.6595 L 11.1068,43.5592 L 11.0303,43.4697 L 10.9408,43.3932  L 10.8405,43.3317 L 10.7318,43.2867 L 10.6173,43.2592 L 10.5,43.25 L 10.3827,43.2592 L 10.2682,43.2867  L 10.1595,43.3317 L 10.0592,43.3932 L 9.96967,43.4697 L 9.89323,43.5592 L 9.83174,43.6595 L 9.7867,43.7682  L 9.75923,43.8827 L 9.74075,44.1173 L 9.71329,44.2318 L 9.66824,44.3405 L 9.60675,44.4408 L 9.53032,44.5303  L 9.44083,44.6068 L 9.34048,44.6682 L 9.23175,44.7133 L 9.11732,44.7408 L 9,44.75 L 8.88266,44.7408  L 8.76823,44.7133 L 8.6595,44.6682 L 8.55916,44.6068 L 8.46967,44.5303 L 8.39323,44.4408 L 8.33174,44.3405  L 8.2867,44.2318 L 8.25923,44.1173 L 8.24075,43.8827 L 8.21329,43.7682 L 8.16824,43.6595 L 8.10675,43.5592  L 8.03032,43.4697 L 7.94083,43.3932 L 7.84048,43.3317 L 7.73175,43.2867 L 7.61732,43.2592 L 7.5,43.25  L 7.38266,43.2592 L 7.26823,43.2867 L 7.1595,43.3317 L 7.05916,43.3932 L 6.96967,43.4697 L 6.89323,43.5592  L 6.83174,43.6595 L 6.7867,43.7682 L 6.75923,43.8827 L 6.74075,44.1173 L 6.71329,44.2318 L 6.66824,44.3405  L 6.60675,44.4408 L 6.53032,44.5303 L 6.44083,44.6068 L 6.34048,44.6682 L 6.23175,44.7133 L 6.11732,44.7408  L 6,44.75 L 5.88266,44.7408 L 5.76823,44.7133 L 5.6595,44.6682 L 5.55916,44.6068 L 5.46967,44.5303  L 5.39323,44.4408 L 5.33174,44.3405 L 5.2867,44.2318 L 5.25923,44.1173 L 5.24075,43.8827 L 5.21329,43.7682  L 5.16824,43.6595 L 5.10675,43.5592 L 5.03032,43.4697 L 4.94083,43.3932 L 4.84048,43.3317 L 4.73175,43.2867  L 4.61732,43.2592 L 4.5,43.25 L 4.38266,43.2592 L 4.26823,43.2867 L 4.1595,43.3317 L 4.05916,43.3932  L 3.96967,43.4697 L 3.89323,43.5592 L 3.83174,43.6595 L 3.7867,43.7682 L 3.75923,43.8827 L 3.74075,44.1173  L 3.71329,44.2318 L 3.66824,44.3405 L 3.60675,44.4408 L 3.53032,44.5303 L 3.44083,44.6068 L 3.34048,44.6682  L 3.23175,44.7133 L 3.11732,44.7408 L 3,44.75 L 2.88266,44.7408 L 2.76823,44.7133 L 2.6595,44.6682  L 2.55916,44.6068 L 2.46967,44.5303 L 2.39323,44.4408 L 2.33174,44.3405 L 2.2867,44.2318 L 2.25923,44.1173  L 2.24075,43.8827 L 2.21329,43.7682 L 2.16824,43.6595 L 2.10675,43.5592 L 2.03032,43.4697 L 1.94083,43.3932  L 1.84048,43.3317 L 1.73175,43.2867 L 1.61732,43.2592 L 1.5,43.25 L 1.38266,43.2592 L 1.26823,43.2867  L 1.1595,43.3317 L 1.05916,43.3932 L 0.969666,43.4697 L 0.893234,43.5592 L 0.831741,43.6595 L 0.786697,43.7682  L 0.759232,43.8827 L 0.740753,44.1173 L 0.713287,44.2318 L 0.668243,44.3405 L 0.60675,44.4408 L 0.530319,44.5303  L 0.440826,44.6068 L 0.340485,44.6682 L 0.23175,44.7133 L 0.117325,44.7408 L 0,44.75 L -0.117325,44.7408  L -0.23175,44.7133 L -0.340485,44.6682 L -0.440826,44.6068 L -0.530319,44.5303 L -0.60675,44.4408 L -0.668243,44.3405  L -0.713287,44.2318 L -0.740753,44.1173 L -0.759232,43.8827 L -0.786697,43.7682 L -0.831741,43.6595 L -0.893234,43.5592  L -0.969666,43.4697 L -1.05916,43.3932 L -1.1595,43.3317 L -1.26823,43.2867 L -1.38266,43.2592 L -1.5,43.25  L -1.61732,43.2592 L -1.73175,43.2867 L -1.84048,43.3317 L -1.94083,43.3932 L -2.03032,43.4697 L -2.10675,43.5592  L -2.16824,43.6595 L -2.21329,43.7682 L -2.24075,43.8827 L -2.25923,44.1173 L -2.2867,44.2318 L -2.33174,44.3405  L -2.39323,44.4408 L -2.46967,44.5303 L -2.55916,44.6068 L -2.6595,44.6682 L -2.76823,44.7133 L -2.88266,44.7408  L -3,44.75 L -3.11732,44.7408 L -3.23175,44.7133 L -3.34048,44.6682 L -3.44083,44.6068 L -3.53032,44.5303  L -3.60675,44.4408 L -3.66824,44.3405 L -3.71329,44.2318 L -3.74075,44.1173 L -3.75923,43.8827 L -3.7867,43.7682  L -3.83174,43.6595 L -3.89323,43.5592 L -3.96967,43.4697 L -4.05916,43.3932 L -4.1595,43.3317 L -4.26823,43.2867  L -4.38266,43.2592 L -4.5,43.25 L -4.61732,43.2592 L -4.73175,43.2867 L -4.84048,43.3317 L -4.94083,43.3932  L -5.03032,43.4697 L -5.10675,43.5592 L -5.16824,43.6595 L -5.21329,43.7682 L -5.24075,43.8827 L -5.25923,44.1173  L -5.2867,44.2318 L -5.33174,44.3405 L -5.39323,44.4408 L -5.46967,44.5303 L -5.55916,44.6068 L -5.6595,44.6682  L -5.76823,44.7133 L -5.88266,44.7408 L -6,44.75 L -6.11732,44.7408 L -6.23175,44.7133 L -6.34048,44.6682  L -6.44083,44.6068 L -6.53032,44.5303 L -6.60675,44.4408 L -6.66824,44.3405 L -6.71329,44.2318 L -6.74075,44.1173  L -6.75923,43.8827 L -6.7867,43.7682 L -6.83174,43.6595 L -6.89323,43.5592 L -6.96967,43.4697 L -7.05916,43.3932  L -7.1595,43.3317 L -7.26823,43.2867 L -7.38266,43.2592 L -7.5,43.25 L -7.61732,43.2592 L -7.73175,43.2867  L -7.84048,43.3317 L -7.94083,43.3932 L -8.03032,43.4697 L -8.10675,43.5592 L -8.16824,43.6595 L -8.21329,43.7682  L -8.24075,43.8827 L -8.25923,44.1173 L -8.2867,44.2318 L -8.33174,44.3405 L -8.39323,44.4408 L -8.46967,44.5303  L -8.55916,44.6068 L -8.6595,44.6682 L -8.76823,44.7133 L -8.88266,44.7408 L -9,44.75 L -9.11732,44.7408  L -9.23175,44.7133 L -9.34048,44.6682 L -9.44083,44.6068 L -9.53032,44.5303 L -9.60675,44.4408 L -9.66824,44.3405  L -9.71329,44.2318 L -9.74075,44.1173 L -9.75923,43.8827 L -9.7867,43.7682 L -9.83174,43.6595 L -9.89323,43.5592  L -9.96967,43.4697 L -10.0592,43.3932 L -10.1595,43.3317 L -10.2682,43.2867 L -10.3827,43.2592 L -10.5,43.25  L -10.6173,43.2592 L -10.7318,43.2867 L -10.8405,43.3317 L -10.9408,43.3932 L -11.0303,43.4697 L -11.1068,43.5592  L -11.1682,43.6595 L -11.2133,43.7682 L -11.2408,43.8827 L -11.2592,44.1173 L -11.2867,44.2318 L -11.3317,44.3405  L -11.3932,44.4408 L -11.4697,44.5303 L -11.5592,44.6068 L -11.6595,44.6682 L -11.7682,44.7133 L -11.8827,44.7408  L -12,44.75 L -12.1173,44.7408 L -12.2318,44.7133 L -12.3405,44.6682 L -12.4408,44.6068 L -12.5303,44.5303  L -12.6068,44.4408 L -12.6682,44.3405 L -12.7133,44.2318 L -12.7408,44.1173 L -12.7592,43.8827 L -12.7867,43.7682  L -12.8317,43.6595 L -12.8932,43.5592 L -12.9697,43.4697 L -13.0592,43.3932 L -13.1595,43.3317 L -13.2682,43.2867  L -13.3827,43.2592 L -13.5,43.25 L -13.6173,43.2592 L -13.7318,43.2867 L -13.8405,43.3317 L -13.9408,43.3932  L -14.0303,43.4697 L -14.1068,43.5592 L -14.1682,43.6595 L -14.2133,43.7682 L -14.2408,43.8827 L -14.2592,44.1173  L -14.2867,44.2318 L -14.3317,44.3405 L -14.3932,44.4408 L -14.4697,44.5303 L -14.5592,44.6068 L -14.6595,44.6682  L -14.7682,44.7133 L -14.8827,44.7408 L -15,44.75 L -15.1173,44.7408 L -15.2318,44.7133 L -15.3405,44.6682  L -15.4408,44.6068 L -15.5303,44.5303 L -15.6068,44.4408 L -15.6682,44.3405 L -15.7133,44.2318 L -15.7408,44.1173  L -15.7592,43.8827 L -15.7867,43.7682 L -15.8317,43.6595 L -15.8932,43.5592 L -15.9697,43.4697 L -16.0592,43.3932  L -16.1595,43.3317 L -16.2682,43.2867 L -16.3827,43.2592 L -16.5,43.25 L -16.6173,43.2592 L -16.7318,43.2867  L -16.8405,43.3317 L -16.9408,43.3932 L -17.0303,43.4697 L -17.1068,43.5592 L -17.1682,43.6595 L -17.2133,43.7682  L -17.2408,43.8827 L -17.2592,44.1173 L -17.2867,44.2318 L -17.3317,44.3405 L -17.3932,44.4408 L -17.4697,44.5303  L -17.5592,44.6068 L -17.6595,44.6682 L -17.7682,44.7133 L -17.8827,44.7408 L -18,44.75 L -18.1173,44.7408  L -18.2318,44.7133 L -18.3405,44.6682 L -18.4408,44.6068 L -18.5303,44.5303 L -18.6068,44.4408 L -18.6682,44.3405  L -18.7133,44.2318 L -18.7408,44.1173 L -18.7592,43.8827 L -18.7867,43.7682 L -18.8317,43.6595 L -18.8932,43.5592  L -18.9697,43.4697 L -19.0592,43.3932 L -19.1595,43.3317 L -19.2682,43.2867 L -19.3827,43.2592 L -19.5,43.25  L -19.6173,43.2592 L -19.7318,43.2867 L -19.8405,43.3317 L -19.9408,43.3932 L -20.0303,43.4697 L -20.1068,43.5592  L -20.1682,43.6595 L -20.2133,43.7682 L -20.2408,43.8827 L -20.2592,44.1173 L -20.2867,44.2318 L -20.3317,44.3405  L -20.3932,44.4408 L -20.4697,44.5303 L -20.5592,44.6068 L -20.6595,44.6682 L -20.7682,44.7133 L -20.8827,44.7408  L -21,44.75 L -21.1173,44.7408 L -21.2318,44.7133 L -21.3405,44.6682 L -21.4408,44.6068 L -21.5303,44.5303  L -21.6068,44.4408 L -21.6682,44.3405 L -21.7133,44.2318 L -21.7408,44.1173 L -21.7592,43.8827 L -21.7867,43.7682  L -21.8317,43.6595 L -21.8932,43.5592 L -21.9697,43.4697 L -22.0592,43.3932 L -22.1595,43.3317 L -22.2682,43.2867  L -22.3827,43.2592 L -22.5,43.25 L -22.6173,43.2592 L -22.7318,43.2867 L -22.8405,43.3317 L -22.9408,43.3932  L -23.0303,43.4697 L -23.1068,43.5592 L -23.1682,43.6595 L -23.2133,43.7682 L -23.2408,43.8827 L -23.2592,44.1173  L -23.2867,44.2318 L -23.3317,44.3405 L -23.3932,44.4408 L -23.4697,44.5303 L -23.5592,44.6068 L -23.6595,44.6682  L -23.7682,44.7133 L -23.8827,44.7408 L -24,44.75 L -24.1173,44.7408 L -24.2318,44.7133 L -24.3405,44.6682  L -24.4408,44.6068 L -24.5303,44.5303 L -24.6068,44.4408 L -24.6682,44.3405 L -24.7133,44.2318 L -24.7408,44.1173  L -24.7592,43.8827 L -24.7867,43.7682 L -24.8317,43.6595 L -24.8932,43.5592 L -24.9697,43.4697 L -25.0592,43.3932  L -25.1595,43.3317 L -25.2682,43.2867 L -25.3827,43.2592 L -25.5,43.25 L -25.6173,43.2592 L -25.7318,43.2867  L -25.8405,43.3317 L -25.9408,43.3932 L -26.0303,43.4697 L -26.1068,43.5592 L -26.1682,43.6595 L -26.2133,43.7682  L -26.2408,43.8827 L -26.2592,44.1173 L -26.2867,44.2318 L -26.3317,44.3405 L -26.3932,44.4408 L -26.4697,44.5303  L -26.5592,44.6068 L -26.6595,44.6682 L -26.7682,44.7133 L -26.8827,44.7408 L -27,44.75 L -27.1173,44.7408  L -27.2318,44.7133 L -27.3405,44.6682 L -27.4408,44.6068 L -27.5303,44.5303 L -27.6068,44.4408 L -27.6682,44.3405  L -27.7133,44.2318 L -27.7408,44.1173 L -27.7592,43.8827 L -27.7867,43.7682 L -27.8317,43.6595 L -27.8932,43.5592  L -27.9697,43.4697 L -28.0592,43.3932 L -28.1595,43.3317 L -28.2682,43.2867 L -28.3827,43.2592 L -28.5,43.25  L -28.6173,43.2592 L -28.7318,43.2867 L -28.8405,43.3317 L -28.9408,43.3932 L -29.0303,43.4697 L -29.1068,43.5592  L -29.1682,43.6595 L -29.2133,43.7682 L -29.2408,43.8827 L -29.2592,44.1173 L -29.2867,44.2318 L -29.3317,44.3405  L -29.3932,44.4408 L -29.4697,44.5303 L -29.5592,44.6068 L -29.6595,44.6682 L -29.7682,44.7133 L -29.8827,44.7408  L -30,44.75 L -30.1173,44.7408 L -30.2318,44.7133 L -30.3405,44.6682 L -30.4408,44.6068 L -30.5303,44.5303  L -30.6068,44.4408 L -30.6682,44.3405 L -30.7133,44.2318 L -30.7408,44.1173 L -30.7592,43.8827 L -30.7867,43.7682  L -30.8317,43.6595 L -30.8932,43.5592 L -30.9697,43.4697 L -31.0592,43.3932 L -31.1595,43.3317 L -31.2682,43.2867  L -31.3827,43.2592 L -31.5,43.25 L -31.6173,43.2592 L -31.7318,43.2867 L -31.8405,43.3317 L -31.9408,43.3932  L -32.0303,43.4697 L -32.1068,43.5592 L -32.1682,43.6595 L -32.2133,43.7682 L -32.2408,43.8827 L -32.2592,44.1173  L -32.2867,44.2318 L -32.3317,44.3405 L -32.3932,44.4408 L -32.4697,44.5303 L -32.5592,44.6068 L -32.6595,44.6682  L -32.7682,44.7133 L -32.8827,44.7408 L -33,44.75 L -33.1173,44.7408 L -33.2318,44.7133 L -33.3405,44.6682  L -33.4408,44.6068 L -33.5303,44.5303 L -33.6068,44.4408 L -33.6682,44.3405 L -33.7133,44.2318 L -33.7408,44.1173  L -33.7592,43.8827 L -33.7867,43.7682 L -33.8317,43.6595 L -33.8932,43.5592 L -33.9697,43.4697 L -34.0592,43.3932  L -34.1595,43.3317 L -34.2682,43.2867 L -34.3827,43.2592 L -34.5,43.25 L -34.6173,43.2592 L -34.7318,43.2867  L -34.8405,43.3317 L -34.9408,43.3932 L -35.0303,43.4697 L -35.1068,43.5592 L -35.1682,43.6595 L -35.2133,43.7682  L -35.2408,43.8827 L -35.2592,44.1173 L -35.2867,44.2318 L -35.3317,44.3405 L -35.3932,44.4408 L -35.4697,44.5303  L -35.5592,44.6068 L -35.6595,44.6682 L -35.7682,44.7133 L -35.8827,44.7408 L -36,44.75 L -36.1173,44.7408  L -36.2318,44.7133 L -36.3405,44.6682 L -36.4408,44.6068 L -36.5303,44.5303 L -36.6068,44.4408 L -36.6682,44.3405  L -36.7133,44.2318 L -36.7408,44.1173 L -36.7592,43.8827 L -36.7867,43.7682 L -36.8317,43.6595 L -36.8932,43.5592  L -36.9697,43.4697 L -37.0592,43.3932 L -37.1595,43.3317 L -37.2682,43.2867 L -37.3827,43.2592 L -37.5,43.25  L -37.6173,43.2592 L -37.7318,43.2867 L -37.8405,43.3317 L -37.9408,43.3932 L -38.0303,43.4697 L -38.1068,43.5592  L -38.1682,43.6595 L -38.2133,43.7682 L -38.2408,43.8827 L -38.2592,44.1173 L -38.2867,44.2318 L -38.3317,44.3405  L -38.3932,44.4408 L -38.4697,44.5303 L -38.5592,44.6068 L -38.6595,44.6682 L -38.7682,44.7133 L -38.8827,44.7408  L -39,44.75 L -39.1173,44.7408 L -39.2318,44.7133 L -39.3405,44.6682 L -39.4408,44.6068 L -39.5303,44.5303  L -39.6068,44.4408 L -39.6682,44.3405 L -39.7133,44.2318 L -39.7408,44.1173 L -39.75,44 L -39.7454,43.9413  L -39.7822,43.9384 L -40.5451,43.7553 L -41.2699,43.455 L -41.9389,43.0451 L -42.5355,42.5355 L -43.0451,41.9389  L -43.455,41.2699 L -43.7553,40.5451 L -43.9384,39.7822 L -43.9413,39.7454 L -44,39.75 L -44.1173,39.7408  L -44.2318,39.7133 L -44.3405,39.6682 L -44.4408,39.6068 L -44.5303,39.5303 L -44.6068,39.4408 L -44.6682,39.3405  L -44.7133,39.2318 L -44.7408,39.1173 L -44.75,39 L -44.7408,38.8827 L -44.7133,38.7682 L -44.6682,38.6595  L -44.6068,38.5592 L -44.5303,38.4697 L -44.4408,38.3932 L -44.3405,38.3317 L -44.2318,38.2867 L -44.1173,38.2592  L -43.8827,38.2408 L -43.7682,38.2133 L -43.6595,38.1682 L -43.5592,38.1068 L -43.4697,38.0303 L -43.3932,37.9408  L -43.3317,37.8405 L -43.2867,37.7318 L -43.2592,37.6173 L -43.25,37.5 L -43.2592,37.3827 L -43.2867,37.2682  L -43.3317,37.1595 L -43.3932,37.0592 L -43.4697,36.9697 L -43.5592,36.8932 L -43.6595,36.8317 L -43.7682,36.7867  L -43.8827,36.7592 L -44.1173,36.7408 L -44.2318,36.7133 L -44.3405,36.6682 L -44.4408,36.6068 L -44.5303,36.5303  L -44.6068,36.4408 L -44.6682,36.3405 L -44.7133,36.2318 L -44.7408,36.1173 L -44.75,36 L -44.7408,35.8827  L -44.7133,35.7682 L -44.6682,35.6595 L -44.6068,35.5592 L -44.5303,35.4697 L -44.4408,35.3932 L -44.3405,35.3317  L -44.2318,35.2867 L -44.1173,35.2592 L -43.8827,35.2408 L -43.7682,35.2133 L -43.6595,35.1682 L -43.5592,35.1068  L -43.4697,35.0303 L -43.3932,34.9408 L -43.3317,34.8405 L -43.2867,34.7318 L -43.2592,34.6173 L -43.25,34.5  L -43.2592,34.3827 L -43.2867,34.2682 L -43.3317,34.1595 L -43.3932,34.0592 L -43.4697,33.9697 L -43.5592,33.8932  L -43.6595,33.8317 L -43.7682,33.7867 L -43.8827,33.7592 L -44.1173,33.7408 L -44.2318,33.7133 L -44.3405,33.6682  L -44.4408,33.6068 L -44.5303,33.5303 L -44.6068,33.4408 L -44.6682,33.3405 L -44.7133,33.2318 L -44.7408,33.1173  L -44.75,33 L -44.7408,32.8827 L -44.7133,32.7682 L -44.6682,32.6595 L -44.6068,32.5592 L -44.5303,32.4697  L -44.4408,32.3932 L -44.3405,32.3317 L -44.2318,32.2867 L -44.1173,32.2592 L -43.8827,32.2408 L -43.7682,32.2133  L -43.6595,32.1682 L -43.5592,32.1068 L -43.4697,32.0303 L -43.3932,31.9408 L -43.3317,31.8405 L -43.2867,31.7318  L -43.2592,31.6173 L -43.25,31.5 L -43.2592,31.3827 L -43.2867,31.2682 L -43.3317,31.1595 L -43.3932,31.0592  L -43.4697,30.9697 L -43.5592,30.8932 L -43.6595,30.8317 L -43.7682,30.7867 L -43.8827,30.7592 L -44.1173,30.7408  L -44.2318,30.7133 L -44.3405,30.6682 L -44.4408,30.6068 L -44.5303,30.5303 L -44.6068,30.4408 L -44.6682,30.3405  L -44.7133,30.2318 L -44.7408,30.1173 L -44.75,30 L -44.7408,29.8827 L -44.7133,29.7682 L -44.6682,29.6595  L -44.6068,29.5592 L -44.5303,29.4697 L -44.4408,29.3932 L -44.3405,29.3317 L -44.2318,29.2867 L -44.1173,29.2592  L -43.8827,29.2408 L -43.7682,29.2133 L -43.6595,29.1682 L -43.5592,29.1068 L -43.4697,29.0303 L -43.3932,28.9408  L -43.3317,28.8405 L -43.2867,28.7318 L -43.2592,28.6173 L -43.25,28.5 L -43.2592,28.3827 L -43.2867,28.2682  L -43.3317,28.1595 L -43.3932,28.0592 L -43.4697,27.9697 L -43.5592,27.8932 L -43.6595,27.8317 L -43.7682,27.7867  L -43.8827,27.7592 L -44.1173,27.7408 L -44.2318,27.7133 L -44.3405,27.6682 L -44.4408,27.6068 L -44.5303,27.5303  L -44.6068,27.4408 L -44.6682,27.3405 L -44.7133,27.2318 L -44.7408,27.1173 L -44.75,27 L -44.7408,26.8827  L -44.7133,26.7682 L -44.6682,26.6595 L -44.6068,26.5592 L -44.5303,26.4697 L -44.4408,26.3932 L -44.3405,26.3317  L -44.2318,26.2867 L -44.1173,26.2592 L -43.8827,26.2408 L -43.7682,26.2133 L -43.6595,26.1682 L -43.5592,26.1068  L -43.4697,26.0303 L -43.3932,25.9408 L -43.3317,25.8405 L -43.2867,25.7318 L -43.2592,25.6173 L -43.25,25.5  L -43.2592,25.3827 L -43.2867,25.2682 L -43.3317,25.1595 L -43.3932,25.0592 L -43.4697,24.9697 L -43.5592,24.8932  L -43.6595,24.8317 L -43.7682,24.7867 L -43.8827,24.7592 L -44.1173,24.7408 L -44.2318,24.7133 L -44.3405,24.6682  L -44.4408,24.6068 L -44.5303,24.5303 L -44.6068,24.4408 L -44.6682,24.3405 L -44.7133,24.2318 L -44.7408,24.1173  L -44.75,24 L -44.7408,23.8827 L -44.7133,23.7682 L -44.6682,23.6595 L -44.6068,23.5592 L -44.5303,23.4697  L -44.4408,23.3932 L -44.3405,23.3317 L -44.2318,23.2867 L -44.1173,23.2592 L -43.8827,23.2408 L -43.7682,23.2133  L -43.6595,23.1682 L -43.5592,23.1068 L -43.4697,23.0303 L -43.3932,22.9408 L -43.3317,22.8405 L -43.2867,22.7318  L -43.2592,22.6173 L -43.25,22.5 L -43.2592,22.3827 L -43.2867,22.2682 L -43.3317,22.1595 L -43.3932,22.0592  L -43.4697,21.9697 L -43.5592,21.8932 L -43.6595,21.8317 L -43.7682,21.7867 L -43.8827,21.7592 L -44.1173,21.7408  L -44.2318,21.7133 L -44.3405,21.6682 L -44.4408,21.6068 L -44.5303,21.5303 L -44.6068,21.4408 L -44.6682,21.3405  L -44.7133,21.2318 L -44.7408,21.1173 L -44.75,21 L -44.7408,20.8827 L -44.7133,20.7682 L -44.6682,20.6595  L -44.6068,20.5592 L -44.5303,20.4697 L -44.4408,20.3932 L -44.3405,20.3317 L -44.2318,20.2867 L -44.1173,20.2592  L -43.8827,20.2408 L -43.7682,20.2133 L -43.6595,20.1682 L -43.5592,20.1068 L -43.4697,20.0303 L -43.3932,19.9408  L -43.3317,19.8405 L -43.2867,19.7318 L -43.2592,19.6173 L -43.25,19.5 L -43.2592,19.3827 L -43.2867,19.2682  L -43.3317,19.1595 L -43.3932,19.0592 L -43.4697,18.9697 L -43.5592,18.8932 L -43.6595,18.8317 L -43.7682,18.7867  L -43.8827,18.7592 L -44.1173,18.7408 L -44.2318,18.7133 L -44.3405,18.6682 L -44.4408,18.6068 L -44.5303,18.5303  L -44.6068,18.4408 L -44.6682,18.3405 L -44.7133,18.2318 L -44.7408,18.1173 L -44.75,18 L -44.7408,17.8827  L -44.7133,17.7682 L -44.6682,17.6595 L -44.6068,17.5592 L -44.5303,17.4697 L -44.4408,17.3932 L -44.3405,17.3317  L -44.2318,17.2867 L -44.1173,17.2592 L -43.8827,17.2408 L -43.7682,17.2133 L -43.6595,17.1682 L -43.5592,17.1068  L -43.4697,17.0303 L -43.3932,16.9408 L -43.3317,16.8405 L -43.2867,16.7318 L -43.2592,16.6173 L -43.25,16.5  L -43.2592,16.3827 L -43.2867,16.2682 L -43.3317,16.1595 L -43.3932,16.0592 L -43.4697,15.9697 L -43.5592,15.8932  L -43.6595,15.8317 L -43.7682,15.7867 L -43.8827,15.7592 L -44.1173,15.7408 L -44.2318,15.7133 L -44.3405,15.6682  L -44.4408,15.6068 L -44.5303,15.5303 L -44.6068,15.4408 L -44.6682,15.3405 L -44.7133,15.2318 L -44.7408,15.1173  L -44.75,15 L -44.7408,14.8827 L -44.7133,14.7682 L -44.6682,14.6595 L -44.6068,14.5592 L -44.5303,14.4697  L -44.4408,14.3932 L -44.3405,14.3317 L -44.2318,14.2867 L -44.1173,14.2592 L -43.8827,14.2408 L -43.7682,14.2133  L -43.6595,14.1682 L -43.5592,14.1068 L -43.4697,14.0303 L -43.3932,13.9408 L -43.3317,13.8405 L -43.2867,13.7318  L -43.2592,13.6173 L -43.25,13.5 L -43.2592,13.3827 L -43.2867,13.2682 L -43.3317,13.1595 L -43.3932,13.0592  L -43.4697,12.9697 L -43.5592,12.8932 L -43.6595,12.8317 L -43.7682,12.7867 L -43.8827,12.7592 L -44.1173,12.7408  L -44.2318,12.7133 L -44.3405,12.6682 L -44.4408,12.6068 L -44.5303,12.5303 L -44.6068,12.4408 L -44.6682,12.3405  L -44.7133,12.2318 L -44.7408,12.1173 L -44.75,12 L -44.7408,11.8827 L -44.7133,11.7682 L -44.6682,11.6595  L -44.6068,11.5592 L -44.5303,11.4697 L -44.4408,11.3932 L -44.3405,11.3317 L -44.2318,11.2867 L -44.1173,11.2592  L -43.8827,11.2408 L -43.7682,11.2133 L -43.6595,11.1682 L -43.5592,11.1068 L -43.4697,11.0303 L -43.3932,10.9408  L -43.3317,10.8405 L -43.2867,10.7318 L -43.2592,10.6173 L -43.25,10.5 L -43.2592,10.3827 L -43.2867,10.2682  L -43.3317,10.1595 L -43.3932,10.0592 L -43.4697,9.96967 L -43.5592,9.89323 L -43.6595,9.83174 L -43.7682,9.7867  L -43.8827,9.75923 L -44.1173,9.74075 L -44.2318,9.71329 L -44.3405,9.66824 L -44.4408,9.60675 L -44.5303,9.53032  L -44.6068,9.44083 L -44.6682,9.34048 L -44.7133,9.23175 L -44.7408,9.11732 L -44.75,9 L -44.7408,8.88266  L -44.7133,8.76823 L -44.6682,8.6595 L -44.6068,8.55916 L -44.5303,8.46967 L -44.4408,8.39323 L -44.3405,8.33174  L -44.2318,8.2867 L -44.1173,8.25923 L -43.8827,8.24075 L -43.7682,8.21329 L -43.6595,8.16824 L -43.5592,8.10675  L -43.4697,8.03032 L -43.3932,7.94083 L -43.3317,7.84048 L -43.2867,7.73175 L -43.2592,7.61732 L -43.25,7.5  L -43.2592,7.38266 L -43.2867,7.26823 L -43.3317,7.1595 L -43.3932,7.05916 L -43.4697,6.96967 L -43.5592,6.89323  L -43.6595,6.83174 L -43.7682,6.7867 L -43.8827,6.75923 L -44.1173,6.74075 L -44.2318,6.71329 L -44.3405,6.66824  L -44.4408,6.60675 L -44.5303,6.53032 L -44.6068,6.44083 L -44.6682,6.34048 L -44.7133,6.23175 L -44.7408,6.11732  L -44.75,6 L -44.7408,5.88266 L -44.7133,5.76823 L -44.6682,5.6595 L -44.6068,5.55916 L -44.5303,5.46967  L -44.4408,5.39323 L -44.3405,5.33174 L -44.2318,5.2867 L -44.1173,5.25923 L -43.8827,5.24075 L -43.7682,5.21329  L -43.6595,5.16824 L -43.5592,5.10675 L -43.4697,5.03032 L -43.3932,4.94083 L -43.3317,4.84048 L -43.2867,4.73175  L -43.2592,4.61732 L -43.25,4.5 L -43.2592,4.38266 L -43.2867,4.26823 L -43.3317,4.1595 L -43.3932,4.05916  L -43.4697,3.96967 L -43.5592,3.89323 L -43.6595,3.83174 L -43.7682,3.7867 L -43.8827,3.75923 L -44.1173,3.74075  L -44.2318,3.71329 L -44.3405,3.66824 L -44.4408,3.60675 L -44.5303,3.53032 L -44.6068,3.44083 L -44.6682,3.34048  L -44.7133,3.23175 L -44.7408,3.11732 L -44.75,3 L -44.7408,2.88266 L -44.7133,2.76823 L -44.6682,2.6595  L -44.6068,2.55916 L -44.5303,2.46967 L -44.4408,2.39323 L -44.3405,2.33174 L -44.2318,2.2867 L -44.1173,2.25923  L -43.8827,2.24075 L -43.7682,2.21329 L -43.6595,2.16824 L -43.5592,2.10675 L -43.4697,2.03032 L -43.3932,1.94083  L -43.3317,1.84048 L -43.2867,1.73175 L -43.2592,1.61732 L -43.25,1.5 L -43.2592,1.38266 L -43.2867,1.26823  L -43.3317,1.1595 L -43.3932,1.05916 L -43.4697,0.969666 L -43.5592,0.893234 L -43.6595,0.831741 L -43.7682,0.786697  L -43.8827,0.759232 L -44.1173,0.740753 L -44.2318,0.713287 L -44.3405,0.668243 L -44.4408,0.60675 L -44.5303,0.530319  L -44.6068,0.440826 L -44.6682,0.340485 L -44.7133,0.23175 L -44.7408,0.117325 L -44.75,-0 L -44.7408,-0.117325  L -44.7133,-0.23175 L -44.6682,-0.340485 L -44.6068,-0.440826 L -44.5303,-0.530319 L -44.4408,-0.60675 L -44.3405,-0.668243  L -44.2318,-0.713287 L -44.1173,-0.740753 L -43.8827,-0.759232 L -43.7682,-0.786697 L -43.6595,-0.831741 L -43.5592,-0.893234  L -43.4697,-0.969666 L -43.3932,-1.05916 L -43.3317,-1.1595 L -43.2867,-1.26823 L -43.2592,-1.38266 L -43.25,-1.5  L -43.2592,-1.61732 L -43.2867,-1.73175 L -43.3317,-1.84048 L -43.3932,-1.94083 L -43.4697,-2.03032 L -43.5592,-2.10675  L -43.6595,-2.16824 L -43.7682,-2.21329 L -43.8827,-2.24075 L -44.1173,-2.25923 L -44.2318,-2.2867 L -44.3405,-2.33174  L -44.4408,-2.39323 L -44.5303,-2.46967 L -44.6068,-2.55916 L -44.6682,-2.6595 L -44.7133,-2.76823 L -44.7408,-2.88266  L -44.75,-3 L -44.7408,-3.11732 L -44.7133,-3.23175 L -44.6682,-3.34048 L -44.6068,-3.44083 L -44.5303,-3.53032  L -44.4408,-3.60675 L -44.3405,-3.66824 L -44.2318,-3.71329 L -44.1173,-3.74075 L -43.8827,-3.75923 L -43.7682,-3.7867  L -43.6595,-3.83174 L -43.5592,-3.89323 L -43.4697,-3.96967 L -43.3932,-4.05916 L -43.3317,-4.1595 L -43.2867,-4.26823  L -43.2592,-4.38266 L -43.25,-4.5 L -43.2592,-4.61732 L -43.2867,-4.73175 L -43.3317,-4.84048 L -43.3932,-4.94083  L -43.4697,-5.03032 L -43.5592,-5.10675 L -43.6595,-5.16824 L -43.7682,-5.21329 L -43.8827,-5.24075 L -44.1173,-5.25923  L -44.2318,-5.2867 L -44.3405,-5.33174 L -44.4408,-5.39323 L -44.5303,-5.46967 L -44.6068,-5.55916 L -44.6682,-5.6595  L -44.7133,-5.76823 L -44.7408,-5.88266 L -44.75,-6 L -44.7408,-6.11732 L -44.7133,-6.23175 L -44.6682,-6.34048  L -44.6068,-6.44083 L -44.5303,-6.53032 L -44.4408,-6.60675 L -44.3405,-6.66824 L -44.2318,-6.71329 L -44.1173,-6.74075  L -43.8827,-6.75923 L -43.7682,-6.7867 L -43.6595,-6.83174 L -43.5592,-6.89323 L -43.4697,-6.96967 L -43.3932,-7.05916  L -43.3317,-7.1595 L -43.2867,-7.26823 L -43.2592,-7.38266 L -43.25,-7.5 L -43.2592,-7.61732 L -43.2867,-7.73175  L -43.3317,-7.84048 L -43.3932,-7.94083 L -43.4697,-8.03032 L -43.5592,-8.10675 L -43.6595,-8.16824 L -43.7682,-8.21329  L -43.8827,-8.24075 L -44.1173,-8.25923 L -44.2318,-8.2867 L -44.3405,-8.33174 L -44.4408,-8.39323 L -44.5303,-8.46967  L -44.6068,-8.55916 L -44.6682,-8.6595 L -44.7133,-8.76823 L -44.7408,-8.88266 L -44.75,-9 L -44.7408,-9.11732  L -44.7133,-9.23175 L -44.6682,-9.34048 L -44.6068,-9.44083 L -44.5303,-9.53032 L -44.4408,-9.60675 L -44.3405,-9.66824  L -44.2318,-9.71329 L -44.1173,-9.74075 L -43.8827,-9.75923 L -43.7682,-9.7867 L -43.6595,-9.83174 L -43.5592,-9.89323  L -43.4697,-9.96967 L -43.3932,-10.0592 L -43.3317,-10.1595 L -43.2867,-10.2682 L -43.2592,-10.3827 L -43.25,-10.5  L -43.2592,-10.6173 L -43.2867,-10.7318 L -43.3317,-10.8405 L -43.3932,-10.9408 L -43.4697,-11.0303 L -43.5592,-11.1068  L -43.6595,-11.1682 L -43.7682,-11.2133 L -43.8827,-11.2408 L -44.1173,-11.2592 L -44.2318,-11.2867 L -44.3405,-11.3317  L -44.4408,-11.3932 L -44.5303,-11.4697 L -44.6068,-11.5592 L -44.6682,-11.6595 L -44.7133,-11.7682 L -44.7408,-11.8827  L -44.75,-12 L -44.7408,-12.1173 L -44.7133,-12.2318 L -44.6682,-12.3405 L -44.6068,-12.4408 L -44.5303,-12.5303  L -44.4408,-12.6068 L -44.3405,-12.6682 L -44.2318,-12.7133 L -44.1173,-12.7408 L -43.8827,-12.7592 L -43.7682,-12.7867  L -43.6595,-12.8317 L -43.5592,-12.8932 L -43.4697,-12.9697 L -43.3932,-13.0592 L -43.3317,-13.1595 L -43.2867,-13.2682  L -43.2592,-13.3827 L -43.25,-13.5 L -43.2592,-13.6173 L -43.2867,-13.7318 L -43.3317,-13.8405 L -43.3932,-13.9408  L -43.4697,-14.0303 L -43.5592,-14.1068 L -43.6595,-14.1682 L -43.7682,-14.2133 L -43.8827,-14.2408 L -44.1173,-14.2592  L -44.2318,-14.2867 L -44.3405,-14.3317 L -44.4408,-14.3932 L -44.5303,-14.4697 L -44.6068,-14.5592 L -44.6682,-14.6595  L -44.7133,-14.7682 L -44.7408,-14.8827 L -44.75,-15 L -44.7408,-15.1173 L -44.7133,-15.2318 L -44.6682,-15.3405  L -44.6068,-15.4408 L -44.5303,-15.5303 L -44.4408,-15.6068 L -44.3405,-15.6682 L -44.2318,-15.7133 L -44.1173,-15.7408  L -43.8827,-15.7592 L -43.7682,-15.7867 L -43.6595,-15.8317 L -43.5592,-15.8932 L -43.4697,-15.9697 L -43.3932,-16.0592  L -43.3317,-16.1595 L -43.2867,-16.2682 L -43.2592,-16.3827 L -43.25,-16.5 L -43.2592,-16.6173 L -43.2867,-16.7318  L -43.3317,-16.8405 L -43.3932,-16.9408 L -43.4697,-17.0303 L -43.5592,-17.1068 L -43.6595,-17.1682 L -43.7682,-17.2133  L -43.8827,-17.2408 L -44.1173,-17.2592 L -44.2318,-17.2867 L -44.3405,-17.3317 L -44.4408,-17.3932 L -44.5303,-17.4697  L -44.6068,-17.5592 L -44.6682,-17.6595 L -44.7133,-17.7682 L -44.7408,-17.8827 L -44.75,-18 L -44.7408,-18.1173  L -44.7133,-18.2318 L -44.6682,-18.3405 L -44.6068,-18.4408 L -44.5303,-18.5303 L -44.4408,-18.6068 L -44.3405,-18.6682  L -44.2318,-18.7133 L -44.1173,-18.7408 L -43.8827,-18.7592 L -43.7682,-18.7867 L -43.6595,-18.8317 L -43.5592,-18.8932  L -43.4697,-18.9697 L -43.3932,-19.0592 L -43.3317,-19.1595 L -43.2867,-19.2682 L -43.2592,-19.3827 L -43.25,-19.5  L -43.2592,-19.6173 L -43.2867,-19.7318 L -43.3317,-19.8405 L -43.3932,-19.9408 L -43.4697,-20.0303 L -43.5592,-20.1068  L -43.6595,-20.1682 L -43.7682,-20.2133 L -43.8827,-20.2408 L -44.1173,-20.2592 L -44.2318,-20.2867 L -44.3405,-20.3317  L -44.4408,-20.3932 L -44.5303,-20.4697 L -44.6068,-20.5592 L -44.6682,-20.6595 L -44.7133,-20.7682 L -44.7408,-20.8827  L -44.75,-21 L -44.7408,-21.1173 L -44.7133,-21.2318 L -44.6682,-21.3405 L -44.6068,-21.4408 L -44.5303,-21.5303  L -44.4408,-21.6068 L -44.3405,-21.6682 L -44.2318,-21.7133 L -44.1173,-21.7408 L -43.8827,-21.7592 L -43.7682,-21.7867  L -43.6595,-21.8317 L -43.5592,-21.8932 L -43.4697,-21.9697 L -43.3932,-22.0592 L -43.3317,-22.1595 L -43.2867,-22.2682  L -43.2592,-22.3827 L -43.25,-22.5 L -43.2592,-22.6173 L -43.2867,-22.7318 L -43.3317,-22.8405 L -43.3932,-22.9408  L -43.4697,-23.0303 L -43.5592,-23.1068 L -43.6595,-23.1682 L -43.7682,-23.2133 L -43.8827,-23.2408 L -44.1173,-23.2592  L -44.2318,-23.2867 L -44.3405,-23.3317 L -44.4408,-23.3932 L -44.5303,-23.4697 L -44.6068,-23.5592 L -44.6682,-23.6595  L -44.7133,-23.7682 L -44.7408,-23.8827 L -44.75,-24 L -44.7408,-24.1173 L -44.7133,-24.2318 L -44.6682,-24.3405  L -44.6068,-24.4408 L -44.5303,-24.5303 L -44.4408,-24.6068 L -44.3405,-24.6682 L -44.2318,-24.7133 L -44.1173,-24.7408  L -43.8827,-24.7592 L -43.7682,-24.7867 L -43.6595,-24.8317 L -43.5592,-24.8932 L -43.4697,-24.9697 L -43.3932,-25.0592  L -43.3317,-25.1595 L -43.2867,-25.2682 L -43.2592,-25.3827 L -43.25,-25.5 L -43.2592,-25.6173 L -43.2867,-25.7318  L -43.3317,-25.8405 L -43.3932,-25.9408 L -43.4697,-26.0303 L -43.5592,-26.1068 L -43.6595,-26.1682 L -43.7682,-26.2133  L -43.8827,-26.2408 L -44.1173,-26.2592 L -44.2318,-26.2867 L -44.3405,-26.3317 L -44.4408,-26.3932 L -44.5303,-26.4697  L -44.6068,-26.5592 L -44.6682,-26.6595 L -44.7133,-26.7682 L -44.7408,-26.8827 L -44.75,-27 L -44.7408,-27.1173  L -44.7133,-27.2318 L -44.6682,-27.3405 L -44.6068,-27.4408 L -44.5303,-27.5303 L -44.4408,-27.6068 L -44.3405,-27.6682  L -44.2318,-27.7133 L -44.1173,-27.7408 L -43.8827,-27.7592 L -43.7682,-27.7867 L -43.6595,-27.8317 L -43.5592,-27.8932  L -43.4697,-27.9697 L -43.3932,-28.0592 L -43.3317,-28.1595 L -43.2867,-28.2682 L -43.2592,-28.3827 L -43.25,-28.5  L -43.2592,-28.6173 L -43.2867,-28.7318 L -43.3317,-28.8405 L -43.3932,-28.9408 L -43.4697,-29.0303 L -43.5592,-29.1068  L -43.6595,-29.1682 L -43.7682,-29.2133 L -43.8827,-29.2408 L -44.1173,-29.2592 L -44.2318,-29.2867 L -44.3405,-29.3317  L -44.4408,-29.3932 L -44.5303,-29.4697 L -44.6068,-29.5592 L -44.6682,-29.6595 L -44.7133,-29.7682 L -44.7408,-29.8827  L -44.75,-30 L -44.7408,-30.1173 L -44.7133,-30.2318 L -44.6682,-30.3405 L -44.6068,-30.4408 L -44.5303,-30.5303  L -44.4408,-30.6068 L -44.3405,-30.6682 L -44.2318,-30.7133 L -44.1173,-30.7408 L -43.8827,-30.7592 L -43.7682,-30.7867  L -43.6595,-30.8317 L -43.5592,-30.8932 L -43.4697,-30.9697 L -43.3932,-31.0592 L -43.3317,-31.1595 L -43.2867,-31.2682  L -43.2592,-31.3827 L -43.25,-31.5 L -43.2592,-31.6173 L -43.2867,-31.7318 L -43.3317,-31.8405 L -43.3932,-31.9408  L -43.4697,-32.0303 L -43.5592,-32.1068 L -43.6595,-32.1682 L -43.7682,-32.2133 L -43.8827,-32.2408 L -44.1173,-32.2592  L -44.2318,-32.2867 L -44.3405,-32.3317 L -44.4408,-32.3932 L -44.5303,-32.4697 L -44.6068,-32.5592 L -44.6682,-32.6595  L -44.7133,-32.7682 L -44.7408,-32.8827 L -44.75,-33 L -44.7408,-33.1173 L -44.7133,-33.2318 L -44.6682,-33.3405  L -44.6068,-33.4408 L -44.5303,-33.5303 L -44.4408,-33.6068 L -44.3405,-33.6682 L -44.2318,-33.7133 L -44.1173,-33.7408  L -43.8827,-33.7592 L -43.7682,-33.7867 L -43.6595,-33.8317 L -43.5592,-33.8932 L -43.4697,-33.9697 L -43.3932,-34.0592  L -43.3317,-34.1595 L -43.2867,-34.2682 L -43.2592,-34.3827 L -43.25,-34.5 L -43.2592,-34.6173 L -43.2867,-34.7318  L -43.3317,-34.8405 L -43.3932,-34.9408 L -43.4697,-35.0303 L -43.5592,-35.1068 L -43.6595,-35.1682 L -43.7682,-35.2133  L -43.8827,-35.2408 L -44.1173,-35.2592 L -44.2318,-35.2867 L -44.3405,-35.3317 L -44.4408,-35.3932 L -44.5303,-35.4697  L -44.6068,-35.5592 L -44.6682,-35.6595 L -44.7133,-35.7682 L -44.7408,-35.8827 L -44.75,-36 L -44.7408,-36.1173  L -44.7133,-36.2318 L -44.6682,-36.3405 L -44.6068,-36.4408 L -44.5303,-36.5303 L -44.4408,-36.6068 L -44.3405,-36.6682  L -44.2318,-36.7133 L -44.1173,-36.7408 L -43.8827,-36.7592 L -43.7682,-36.7867 L -43.6595,-36.8317 L -43.5592,-36.8932  L -43.4697,-36.9697 L -43.3932,-37.0592 L -43.3317,-37.1595 L -43.2867,-37.2682 L -43.2592,-37.3827 L -43.25,-37.5  L -43.2592,-37.6173 L -43.2867,-37.7318 L -43.3317,-37.8405 L -43.3932,-37.9408 L -43.4697,-38.0303 L -43.5592,-38.1068  L -43.6595,-38.1682 L -43.7682,-38.2133 L -43.8827,-38.2408 L -44.1173,-38.2592 L -44.2318,-38.2867 L -44.3405,-38.3317  L -44.4408,-38.3932 L -44.5303,-38.4697 L -44.6068,-38.5592 L -44.6682,-38.6595 L -44.7133,-38.7682 L -44.7408,-38.8827  L -44.75,-39 L -44.7408,-39.1173 L -44.7133,-39.2318 L -44.6682,-39.3405 L -44.6068,-39.4408 L -44.5303,-39.5303  L -44.4408,-39.6068 L -44.3405,-39.6682 L -44.2318,-39.7133 L -44.1173,-39.7408 L -44,-39.75 L -43.9413,-39.7454  L -43.9384,-39.7822 L -43.7553,-40.5451 L -43.455,-41.2699 L -43.0451,-41.9389 L -42.5355,-42.5355 L -41.9389,-43.0451  L -41.2699,-43.455 L -40.5451,-43.7553 L -39.7822,-43.9384 L -39,-44 L -38.25,-44 L -38.2408,-44.1173  L -38.2133,-44.2318 L -38.1682,-44.3405 L -38.1068,-44.4408 L -38.0303,-44.5303 L -37.9408,-44.6068 L -37.8405,-44.6682  L -37.7318,-44.7133 L -37.6173,-44.7408 L -37.5,-44.75 L -37.3827,-44.7408 L -37.2682,-44.7133 L -37.1595,-44.6682  L -37.0592,-44.6068 L -36.9697,-44.5303 L -36.8932,-44.4408 L -36.8317,-44.3405 L -36.7867,-44.2318 L -36.7592,-44.1173  L -36.7408,-43.8827 L -36.7133,-43.7682 L -36.6682,-43.6595 L -36.6068,-43.5592 L -36.5303,-43.4697 L -36.4408,-43.3932  L -36.3405,-43.3317 L -36.2318,-43.2867 L -36.1173,-43.2592 L -36,-43.25 L -35.8827,-43.2592 L -35.7682,-43.2867  L -35.6595,-43.3317 L -35.5592,-43.3932 L -35.4697,-43.4697 L -35.3932,-43.5592 L -35.3317,-43.6595 L -35.2867,-43.7682  L -35.2592,-43.8827 L -35.2408,-44.1173 L -35.2133,-44.2318 L -35.1682,-44.3405 L -35.1068,-44.4408 L -35.0303,-44.5303  L -34.9408,-44.6068 L -34.8405,-44.6682 L -34.7318,-44.7133 L -34.6173,-44.7408 L -34.5,-44.75 L -34.3827,-44.7408  L -34.2682,-44.7133 L -34.1595,-44.6682 L -34.0592,-44.6068 L -33.9697,-44.5303 L -33.8932,-44.4408 L -33.8317,-44.3405  L -33.7867,-44.2318 L -33.7592,-44.1173 L -33.7408,-43.8827 L -33.7133,-43.7682 L -33.6682,-43.6595 L -33.6068,-43.5592  L -33.5303,-43.4697 L -33.4408,-43.3932 L -33.3405,-43.3317 L -33.2318,-43.2867 L -33.1173,-43.2592 L -33,-43.25  L -32.8827,-43.2592 L -32.7682,-43.2867 L -32.6595,-43.3317 L -32.5592,-43.3932 L -32.4697,-43.4697 L -32.3932,-43.5592  L -32.3317,-43.6595 L -32.2867,-43.7682 L -32.2592,-43.8827 L -32.2408,-44.1173 L -32.2133,-44.2318 L -32.1682,-44.3405  L -32.1068,-44.4408 L -32.0303,-44.5303 L -31.9408,-44.6068 L -31.8405,-44.6682 L -31.7318,-44.7133 L -31.6173,-44.7408  L -31.5,-44.75 L -31.3827,-44.7408 L -31.2682,-44.7133 L -31.1595,-44.6682 L -31.0592,-44.6068 L -30.9697,-44.5303  L -30.8932,-44.4408 L -30.8317,-44.3405 L -30.7867,-44.2318 L -30.7592,-44.1173 L -30.7408,-43.8827 L -30.7133,-43.7682  L -30.6682,-43.6595 L -30.6068,-43.5592 L -30.5303,-43.4697 L -30.4408,-43.3932 L -30.3405,-43.3317 L -30.2318,-43.2867  L -30.1173,-43.2592 L -30,-43.25 L -29.8827,-43.2592 L -29.7682,-43.2867 L -29.6595,-43.3317 L -29.5592,-43.3932  L -29.4697,-43.4697 L -29.3932,-43.5592 L -29.3317,-43.6595 L -29.2867,-43.7682 L -29.2592,-43.8827 L -29.2408,-44.1173  L -29.2133,-44.2318 L -29.1682,-44.3405 L -29.1068,-44.4408 L -29.0303,-44.5303 L -28.9408,-44.6068 L -28.8405,-44.6682  L -28.7318,-44.7133 L -28.6173,-44.7408 L -28.5,-44.75 L -28.3827,-44.7408 z M -55.2425,56.5309 L -55.479,56.4741 L -55.7037,56.3811 L -55.9111,56.254 L -56.096,56.096 L -56.254,55.9111  L -56.3811,55.7037 L -56.4741,55.479 L -56.5309,55.2425 L -56.55,55 L -56.5309,54.7575 L -56.4741,54.521  L -56.3811,54.2963 L -56.254,54.0889 L -56.096,53.904 L -55.9111,53.746 L -55.7037,53.6189 L -55.479,53.5259  L -55.2425,53.4691 L -55,53.45 L -54.7575,53.4691 L -54.521,53.5259 L -54.2963,53.6189 L -54.0889,53.746  L -53.904,53.904 L -53.746,54.0889 L -53.6189,54.2963 L -53.5259,54.521 L -53.4691,54.7575 L -53.45,55  L -53.4691,55.2425 L -53.5259,55.479 L -53.6189,55.7037 L -53.746,55.9111 L -53.904,56.096 L -54.0889,56.254  L -54.2963,56.3811 L -54.521,56.4741 L -54.7575,56.5309 L -55,56.55 z M 54.7575,56.5309 L 54.521,56.4741 L 54.2963,56.3811 L 54.0889,56.254 L 53.904,56.096 L 53.746,55.9111  L 53.6189,55.7037 L 53.5259,55.479 L 53.4691,55.2425 L 53.45,55 L 53.4691,54.7575 L 53.5259,54.521  L 53.6189,54.2963 L 53.746,54.0889 L 53.904,53.904 L 54.0889,53.746 L 54.2963,53.6189 L 54.521,53.5259  L 54.7575,53.4691 L 55,53.45 L 55.2425,53.4691 L 55.479,53.5259 L 55.7037,53.6189 L 55.9111,53.746  L 56.096,53.904 L 56.254,54.0889 L 56.3811,54.2963 L 56.4741,54.521 L 56.5309,54.7575 L 56.55,55  L 56.5309,55.2425 L 56.4741,55.479 L 56.3811,55.7037 L 56.254,55.9111 L 56.096,56.096 L 55.9111,56.254  L 55.7037,56.3811 L 55.479,56.4741 L 55.2425,56.5309 L 55,56.55 z "
     stroke="black"
     fill="lightgray"
     stroke-width="0.5"
     id="path4"
     style="fill:none;stroke:#ff0000;stroke-width:0.1;stroke-dasharray:none" />
</svg>
