<?xml version="1.0" encoding="UTF-8" standalone="no"?>
<!-- Created with Inkscape (http://www.inkscape.org/) -->

<svg
   width="50.799915mm"
   height="22.859924mm"
   viewBox="0 0 50.799915 22.859924"
   version="1.1"
   id="svg2068"
   inkscape:version="1.1.1 (3bf5ae0d25, 2021-09-20)"
   sodipodi:docname="featherM0basicPCBedge.svg"
   xmlns:inkscape="http://www.inkscape.org/namespaces/inkscape"
   xmlns:sodipodi="http://sodipodi.sourceforge.net/DTD/sodipodi-0.dtd"
   xmlns="http://www.w3.org/2000/svg"
   xmlns:svg="http://www.w3.org/2000/svg">
  <sodipodi:namedview
     id="namedview2070"
     pagecolor="#ffffff"
     bordercolor="#666666"
     borderopacity="1.0"
     inkscape:pageshadow="2"
     inkscape:pageopacity="0.0"
     inkscape:pagecheckerboard="0"
     inkscape:document-units="mm"
     showgrid="false"
     fit-margin-top="0"
     fit-margin-left="0"
     fit-margin-right="0"
     fit-margin-bottom="0"
     inkscape:zoom="2.5620932"
     inkscape:cx="135.24098"
     inkscape:cy="119.62875"
     inkscape:window-width="1920"
     inkscape:window-height="1137"
     inkscape:window-x="1912"
     inkscape:window-y="-8"
     inkscape:window-maximized="1"
     inkscape:current-layer="layer1" />
  <defs
     id="defs2065" />
  <g
     inkscape:label="Ebene 1"
     inkscape:groupmode="layer"
     id="layer1"
     transform="translate(-25.821183,-52.596464)">
    <path
       gorn="0.3"
       style="fill:none;stroke:#000000;stroke-width:0.1;stroke-miterlimit:4;stroke-dasharray:none"
       id="path8"
       d="m 28.361168,75.456388 a 2.5399915,2.5399915 0 0 1 -2.539985,-2.539992 v -6.349979 l 0.507998,-0.507998 v -4.063986 l -0.507998,-0.507999 v -6.349978 a 2.5399915,2.5399915 0 0 1 2.539985,-2.539992 h 45.719939 a 2.5399915,2.5399915 0 0 1 2.539991,2.539992 v 17.77994 a 2.5399915,2.5399915 0 0 1 -2.539991,2.539992 H 28.361168 m 1.554989,-13.37997 a 0.3500005,0.3500005 0 1 0 0.700001,0 0.3500005,0.3500005 0 1 0 -0.700001,0 z m 0,3.900016 a 0.3500005,0.3500005 0 1 0 0.700001,0 0.3500005,0.3500005 0 1 0 -0.700001,0 z M 72.811111,55.136456 a 1.2699958,1.2699958 0 1 0 2.539991,0 1.2699958,1.2699958 0 1 0 -2.539991,0 z m 0,17.77994 a 1.2699958,1.2699958 0 1 0 2.539991,0 1.2699958,1.2699958 0 1 0 -2.539991,0 z m -3.039876,1.269996 a 0.49999909,0.49999909 0 1 0 0.999998,0 0.49999909,0.49999909 0 1 0 -0.999998,0 z m -2.539992,0 a 0.4999995,0.4999995 0 1 0 0.999999,0 0.4999995,0.4999995 0 1 0 -0.999999,0 z m -2.539991,0 a 0.49999909,0.49999909 0 1 0 0.999998,0 0.49999909,0.49999909 0 1 0 -0.999998,0 z m -2.539992,0 a 0.4999995,0.4999995 0 1 0 0.999999,0 0.4999995,0.4999995 0 1 0 -0.999999,0 z m -2.540132,0 a 0.49999909,0.49999909 0 1 0 0.999998,0 0.49999909,0.49999909 0 1 0 -0.999998,0 z m -2.539992,0 a 0.49999909,0.49999909 0 1 0 0.999998,0 0.49999909,0.49999909 0 1 0 -0.999998,0 z m -2.539991,0 a 0.49999909,0.49999909 0 1 0 0.999998,0 0.49999909,0.49999909 0 1 0 -0.999998,0 z m -2.539992,0 a 0.49999909,0.49999909 0 1 0 0.999998,0 0.49999909,0.49999909 0 1 0 -0.999998,0 z m -2.540062,0 a 0.49999909,0.49999909 0 1 0 0.999998,0 0.49999909,0.49999909 0 1 0 -0.999998,0 z m -2.539991,0 a 0.49999909,0.49999909 0 1 0 0.999998,0 0.49999909,0.49999909 0 1 0 -0.999998,0 z m -2.539992,0 a 0.49999909,0.49999909 0 1 0 0.999998,0 0.49999909,0.49999909 0 1 0 -0.999998,0 z m -2.539991,0 a 0.49999909,0.49999909 0 1 0 0.999998,0 0.49999909,0.49999909 0 1 0 -0.999998,0 z m -2.539992,0 a 0.49999909,0.49999909 0 1 0 0.999998,0 0.49999909,0.49999909 0 1 0 -0.999998,0 z m -2.539991,0 a 0.49999909,0.49999909 0 1 0 0.999998,0 0.49999909,0.49999909 0 1 0 -0.999998,0 z m -2.539992,0 a 0.49999909,0.49999909 0 0 0 0.999998,0 0.49999909,0.49999909 0 1 0 -0.999998,0 z m -2.539991,0 a 0.49999909,0.49999909 0 0 0 0.999998,0 0.49999909,0.49999909 0 1 0 -0.999998,0 z M 41.831117,53.86646 a 0.49999909,0.49999909 0 1 0 0.999998,0 0.49999909,0.49999909 0 1 0 -0.999998,0 z m 2.539991,0 a 0.49999909,0.49999909 0 1 0 0.999998,0 0.49999909,0.49999909 0 1 0 -0.999998,0 z m 2.539992,0 a 0.49999909,0.49999909 0 1 0 0.999998,0 0.49999909,0.49999909 0 1 0 -0.999998,0 z m 2.539991,0 a 0.49999909,0.49999909 0 1 0 0.999998,0 0.49999909,0.49999909 0 1 0 -0.999998,0 z m 2.540062,0 a 0.49999909,0.49999909 0 1 0 0.999998,0 0.49999909,0.49999909 0 1 0 -0.999998,0 z m 2.539992,0 a 0.49999909,0.49999909 0 1 0 0.999998,0 0.49999909,0.49999909 0 1 0 -0.999998,0 z m 2.539991,0 a 0.49999909,0.49999909 0 1 0 0.999998,0 0.49999909,0.49999909 0 1 0 -0.999998,0 z m 2.539992,0 a 0.49999909,0.49999909 0 1 0 0.999998,0 0.49999909,0.49999909 0 1 0 -0.999998,0 z m 2.540132,0 a 0.4999995,0.4999995 0 1 0 0.999999,0 0.4999995,0.4999995 0 1 0 -0.999999,0 z m 2.539992,0 a 0.49999909,0.49999909 0 1 0 0.999998,0 0.49999909,0.49999909 0 1 0 -0.999998,0 z m 2.539991,0 a 0.4999995,0.4999995 0 1 0 0.999999,0 0.4999995,0.4999995 0 1 0 -0.999999,0 z m 2.539992,0 a 0.49999909,0.49999909 0 1 0 0.999998,0 0.49999909,0.49999909 0 1 0 -0.999998,0 z m -42.660054,1.269996 a 1.2499969,1.2499969 0 1 0 2.499991,0 1.2499969,1.2499969 0 1 0 -2.499991,0 z m 0,17.77994 a 1.2499969,1.2499969 0 1 0 2.499991,0 1.2499969,1.2499969 0 1 0 -2.499991,0 z m 3.654992,-12.189948 a 0.39999928,0.39999928 0 1 0 0.799998,0 0.39999928,0.39999928 0 1 0 -0.799998,0 z m 0,6.599956 a 0.39999928,0.39999928 0 1 0 0.799998,0 0.39999928,0.39999928 0 1 0 -0.799998,0 z m -2.849987,-6.899958 a 0.4499983,0.4499983 0 0 0 0.899996,0 0.4499983,0.4499983 0 1 0 -0.899996,0 z m 0,7.199959 a 0.4499983,0.4499983 0 0 0 0.899996,0 0.4499983,0.4499983 0 1 0 -0.899996,0 z M 63.371162,57.041449 a 0.54999812,0.54999812 0 0 0 1.099996,0 0.54999812,0.54999812 0 1 0 -1.099996,0 z m 2.539991,0 a 0.5499985,0.5499985 0 0 0 1.099997,0 0.5499985,0.5499985 0 1 0 -1.099997,0 z m 2.539992,0 a 0.54999812,0.54999812 0 0 0 1.099996,0 0.54999812,0.54999812 0 1 0 -1.099996,0 z m 2.539991,0 a 0.5499985,0.5499985 0 0 0 1.099997,0 0.5499985,0.5499985 0 1 0 -1.099997,0 z m -7.619974,13.969954 a 0.54999812,0.54999812 0 0 0 1.099996,0 0.54999812,0.54999812 0 1 0 -1.099996,0 z m 2.539991,0 a 0.5499985,0.5499985 0 0 0 1.099997,0 0.5499985,0.5499985 0 1 0 -1.099997,0 z m 2.539992,0 a 0.54999812,0.54999812 0 0 0 1.099996,0 0.54999812,0.54999812 0 1 0 -1.099996,0 z m 2.539991,0 a 0.5499985,0.5499985 0 0 0 1.099997,0 0.5499985,0.5499985 0 1 0 -1.099997,0 z M 56.971054,66.566417 a 0.59999891,0.59999891 0 1 0 1.199997,0 0.59999891,0.59999891 0 1 0 -1.199997,0 z m 12.699992,-7.619974 a 0.599999,0.599999 0 1 0 1.199998,0 0.599999,0.599999 0 1 0 -1.199998,0 z m 0,2.539991 a 0.599999,0.599999 0 1 0 1.199998,0 0.599999,0.599999 0 1 0 -1.199998,0 z m 2.539992,0 a 0.599999,0.599999 0 1 0 1.199998,0 0.599999,0.599999 0 1 0 -1.199998,0 z m 0,-2.539991 a 0.599999,0.599999 0 1 0 1.199998,0 0.599999,0.599999 0 1 0 -1.199998,0 z m 2.539991,0 a 0.599999,0.599999 0 1 0 1.199998,0 0.599999,0.599999 0 1 0 -1.199998,0 z m 0,2.539991 a 0.599999,0.599999 0 1 0 1.199998,0 0.599999,0.599999 0 1 0 -1.199998,0 z m 0,2.539992 a 0.599999,0.599999 0 1 0 1.199998,0 0.599999,0.599999 0 1 0 -1.199998,0 z m 0,2.539991 a 0.599999,0.599999 0 1 0 1.199998,0 0.599999,0.599999 0 1 0 -1.199998,0 z m -2.539991,0 a 0.599999,0.599999 0 1 0 1.199998,0 0.599999,0.599999 0 1 0 -1.199998,0 z m 0,-2.539991 a 0.599999,0.599999 0 1 0 1.199998,0 0.599999,0.599999 0 1 0 -1.199998,0 z m -2.539992,0 a 0.599999,0.599999 0 0 0 1.199998,0 0.599999,0.599999 0 1 0 -1.199998,0 z m 0,2.539991 a 0.599999,0.599999 0 0 0 1.199998,0 0.599999,0.599999 0 1 0 -1.199998,0 z m 0,2.539992 a 0.599999,0.599999 0 0 0 1.199998,0 0.599999,0.599999 0 1 0 -1.199998,0 z m 2.539992,0 a 0.599999,0.599999 0 1 0 1.199998,0 0.599999,0.599999 0 1 0 -1.199998,0 z m -15.239984,0 a 0.59999891,0.59999891 0 1 0 1.199997,0 0.59999891,0.59999891 0 1 0 -1.199997,0 z m 10.160001,0 a 0.599999,0.599999 0 1 0 1.199998,0 0.599999,0.599999 0 1 0 -1.199998,0 z m 0,-2.539992 a 0.599999,0.599999 0 1 0 1.199998,0 0.599999,0.599999 0 1 0 -1.199998,0 z m 0,-2.539991 a 0.599999,0.599999 0 1 0 1.199998,0 0.599999,0.599999 0 1 0 -1.199998,0 z m 0,-2.539992 a 0.599999,0.599999 0 1 0 1.199998,0 0.599999,0.599999 0 1 0 -1.199998,0 z m 0,-2.539991 a 0.599999,0.599999 0 1 0 1.199998,0 0.599999,0.599999 0 1 0 -1.199998,0 z m -2.539992,0 a 0.599999,0.599999 0 1 0 1.199998,0 0.599999,0.599999 0 1 0 -1.199998,0 z m 0,2.539991 a 0.599999,0.599999 0 1 0 1.199998,0 0.599999,0.599999 0 1 0 -1.199998,0 z m 0,2.539992 a 0.599999,0.599999 0 1 0 1.199998,0 0.599999,0.599999 0 1 0 -1.199998,0 z m 0,2.539991 a 0.599999,0.599999 0 1 0 1.199998,0 0.599999,0.599999 0 1 0 -1.199998,0 z m 0,2.539992 a 0.599999,0.599999 0 1 0 1.199998,0 0.599999,0.599999 0 1 0 -1.199998,0 z m -2.539991,0 a 0.599999,0.599999 0 1 0 1.199998,0 0.599999,0.599999 0 1 0 -1.199998,0 z m 0,-2.539992 a 0.599999,0.599999 0 1 0 1.199998,0 0.599999,0.599999 0 1 0 -1.199998,0 z m 0,-2.539991 a 0.599999,0.599999 0 1 0 1.199998,0 0.599999,0.599999 0 1 0 -1.199998,0 z m 0,-2.539992 a 0.599999,0.599999 0 1 0 1.199998,0 0.599999,0.599999 0 1 0 -1.199998,0 z m 0,-2.539991 a 0.599999,0.599999 0 1 0 1.199998,0 0.599999,0.599999 0 1 0 -1.199998,0 z m -2.540027,0 a 0.599999,0.599999 0 1 0 1.199998,0 0.599999,0.599999 0 1 0 -1.199998,0 z m 0,2.539991 a 0.599999,0.599999 0 1 0 1.199998,0 0.599999,0.599999 0 1 0 -1.199998,0 z m 0,2.539992 a 0.599999,0.599999 0 1 0 1.199998,0 0.599999,0.599999 0 1 0 -1.199998,0 z m 0,2.539991 a 0.599999,0.599999 0 1 0 1.199998,0 0.599999,0.599999 0 1 0 -1.199998,0 z m 0,2.539992 a 0.599999,0.599999 0 1 0 1.199998,0 0.599999,0.599999 0 1 0 -1.199998,0 z m 15.239984,0 a 0.599999,0.599999 0 1 0 1.199998,0 0.599999,0.599999 0 1 0 -1.199998,0 z M 56.971054,61.486434 a 0.59999891,0.59999891 0 1 0 1.199997,0 0.59999891,0.59999891 0 1 0 -1.199997,0 z m 0,2.539992 a 0.59999891,0.59999891 0 1 0 1.199997,0 0.59999891,0.59999891 0 1 0 -1.199997,0 z m 0,-5.079983 a 0.59999891,0.59999891 0 1 0 1.199997,0 0.59999891,0.59999891 0 1 0 -1.199997,0 z" />
  </g>
</svg>
