  0
SECTION
  2
HEADER
  9
$ACADVER
  1
AC1014
  9
$HANDSEED
  5
FFFF
  9
$MEASUREMENT
 70
     1
  0
ENDSEC
  0
SECTION
  2
TABLES
  0
TABLE
  2
VPORT
  5
8
330
0
100
AcDbSymbolTable
 70
     4
  0
VPORT
  5
2E
330
8
100
AcDbSymbolTableRecord
100
AcDbViewportTableRecord
  2
*ACTIVE
 70
     0
 10
0.0
 20
0.0
 11
1.0
 21
1.0
 12
210.0
 22
148.5
 13
0.0
 23
0.0
 14
10.0
 24
10.0
 15
10.0
 25
10.0
 16
0.0
 26
0.0
 36
1.0
 17
0.0
 27
0.0
 37
0.0
 40
341.0
 41
1.24
 42
50.0
 43
0.0
 44
0.0
 50
0.0
 51
0.0
 71
     0
 72
   100
 73
     1
 74
     3
 75
     0
 76
     0
 77
     0
 78
     0
  0
ENDTAB
  0
TABLE
  2
LTYPE
  5
5
330
0
100
AcDbSymbolTable
 70
     1
  0
LTYPE
  5
14
330
5
100
AcDbSymbolTableRecord
100
AcDbLinetypeTableRecord
  2
BYBLOCK
 70
     0
  3

 72
    65
 73
     0
 40
0.0
  0
LTYPE
  5
15
330
5
100
AcDbSymbolTableRecord
100
AcDbLinetypeTableRecord
  2
BYLAYER
 70
     0
  3

 72
    65
 73
     0
 40
0.0
  0
LTYPE
  5
16
330
5
100
AcDbSymbolTableRecord
100
AcDbLinetypeTableRecord
  2
CONTINUOUS
 70
     0
  3
Solid line
 72
    65
 73
     0
 40
0.0
  0
ENDTAB
  0
TABLE
  2
LAYER
  5
2
100
AcDbSymbolTable
 70
2
  0
LAYER
  5
50
100
AcDbSymbolTableRecord
100
AcDbLayerTableRecord
  2
0
 70
0
  6
CONTINUOUS
  0
LAYER
  5
51
100
AcDbSymbolTableRecord
100
AcDbLayerTableRecord
  2
Ebene_1
 70
0
  6
CONTINUOUS
  0
ENDTAB
  0
TABLE
  2
STYLE
  5
3
330
0
100
AcDbSymbolTable
 70
     1
  0
STYLE
  5
11
330
3
100
AcDbSymbolTableRecord
100
AcDbTextStyleTableRecord
  2
STANDARD
 70
     0
 40
0.0
 41
1.0
 50
0.0
 71
     0
 42
2.5
  3
txt
  4

  0
ENDTAB
  0
TABLE
  2
VIEW
  5
6
330
0
100
AcDbSymbolTable
 70
     0
  0
ENDTAB
  0
TABLE
  2
UCS
  5
7
330
0
100
AcDbSymbolTable
 70
     0
  0
ENDTAB
  0
TABLE
  2
APPID
  5
9
330
0
100
AcDbSymbolTable
 70
     2
  0
APPID
  5
12
330
9
100
AcDbSymbolTableRecord
100
AcDbRegAppTableRecord
  2
ACAD
 70
     0
  0
ENDTAB
  0
TABLE
  2
DIMSTYLE
  5
A
330
0
100
AcDbSymbolTable
 70
     1
  0
DIMSTYLE
105
27
330
A
100
AcDbSymbolTableRecord
100
AcDbDimStyleTableRecord
  2
ISO-25
 70
     0
  3

  4

  5

  6

  7

 40
1.0
 41
2.5
 42
0.625
 43
3.75
 44
1.25
 45
0.0
 46
0.0
 47
0.0
 48
0.0
140
2.5
141
2.5
142
0.0
143
0.03937007874016
144
1.0
145
0.0
146
1.0
147
0.625
 71
     0
 72
     0
 73
     0
 74
     0
 75
     0
 76
     0
 77
     1
 78
     8
170
     0
171
     3
172
     1
173
     0
174
     0
175
     0
176
     0
177
     0
178
     0
270
     2
271
     2
272
     2
273
     2
274
     3
340
11
275
     0
280
     0
281
     0
282
     0
283
     0
284
     8
285
     0
286
     0
287
     3
288
     0
  0
ENDTAB
  0
TABLE
  2
BLOCK_RECORD
  5
1
330
0
100
AcDbSymbolTable
 70
     1
  0
BLOCK_RECORD
  5
1F
330
1
100
AcDbSymbolTableRecord
100
AcDbBlockTableRecord
  2
*MODEL_SPACE
  0
BLOCK_RECORD
  5
1B
330
1
100
AcDbSymbolTableRecord
100
AcDbBlockTableRecord
  2
*PAPER_SPACE
  0
ENDTAB
  0
ENDSEC
  0
SECTION
  2
BLOCKS
  0
BLOCK
  5
20
330
1F
100
AcDbEntity
  8
0
100
AcDbBlockBegin
  2
*MODEL_SPACE
 70
     0
 10
0.0
 20
0.0
 30
0.0
  3
*MODEL_SPACE
  1

  0
ENDBLK
  5
21
330
1F
100
AcDbEntity
  8
0
100
AcDbBlockEnd
  0
BLOCK
  5
1C
330
1B
100
AcDbEntity
 67
     1
  8
0
100
AcDbBlockBegin
  2
*PAPER_SPACE
  1

  0
ENDBLK
  5
1D
330
1B
100
AcDbEntity
 67
     1
  8
0
100
AcDbBlockEnd
  0
ENDSEC
  0
SECTION
  2
ENTITIES
  0
SPLINE
  5
100
100
AcDbEntity
  8
Ebene_1
 62
7
100
AcDbSpline
 70
8
 71
3
 72
8
 73
4
 74
0
 40
0
 40
0
 40
0
 40
0
 40
1
 40
1
 40
1
 40
1
 10
0.000000
 20
1.778000
 30
0.0
 10
0.000000
 20
1.778000
 30
0.0
 10
0.000000
 20
25.399909
 30
0.0
 10
0.000000
 20
25.399909
 30
0.0
  0
SPLINE
  5
101
100
AcDbEntity
  8
Ebene_1
 62
7
100
AcDbSpline
 70
8
 71
3
 72
8
 73
4
 74
0
 40
0
 40
0
 40
0
 40
0
 40
1
 40
1
 40
1
 40
1
 10
0.000000
 20
25.399909
 30
0.0
 10
0.000000
 20
26.101311
 30
0.0
 10
0.568598
 20
26.669909
 30
0.0
 10
1.270000
 20
26.669909
 30
0.0
  0
LWPOLYLINE
  5
102
100
AcDbEntity
  8
Ebene_1
 62
7
100
AcDbPolyline
 90
8
 70
0
 10
15.240000
 20
25.399909
 30
0.0
 10
15.240000
 20
2.285930
 30
0.0
 10
14.478000
 20
1.524000
 30
0.0
 10
11.176000
 20
1.524000
 30
0.0
 10
9.652000
 20
0.000000
 30
0.0
 10
2.540000
 20
0.000000
 30
0.0
 10
0.762000
 20
1.778000
 30
0.0
 10
0.000000
 20
1.778000
 30
0.0
  0
SPLINE
  5
103
100
AcDbEntity
  8
Ebene_1
 62
7
100
AcDbSpline
 70
8
 71
3
 72
8
 73
4
 74
0
 40
0
 40
0
 40
0
 40
0
 40
1
 40
1
 40
1
 40
1
 10
13.970000
 20
26.669909
 30
0.0
 10
14.671402
 20
26.669909
 30
0.0
 10
15.240000
 20
26.101311
 30
0.0
 10
15.240000
 20
25.399909
 30
0.0
  0
SPLINE
  5
104
100
AcDbEntity
  8
Ebene_1
 62
7
100
AcDbSpline
 70
8
 71
3
 72
8
 73
4
 74
0
 40
0
 40
0
 40
0
 40
0
 40
1
 40
1
 40
1
 40
1
 10
9.219990
 20
22.351929
 30
0.0
 10
9.219617
 20
22.226638
 30
0.0
 10
9.286245
 20
22.110704
 30
0.0
 10
9.394689
 20
22.047951
 30
0.0
  0
SPLINE
  5
105
100
AcDbEntity
  8
Ebene_1
 62
7
100
AcDbSpline
 70
8
 71
3
 72
8
 73
4
 74
0
 40
0
 40
0
 40
0
 40
0
 40
1
 40
1
 40
1
 40
1
 10
9.394689
 20
22.047951
 30
0.0
 10
9.503132
 20
21.985197
 30
0.0
 10
9.636848
 20
21.985197
 30
0.0
 10
9.745291
 20
22.047951
 30
0.0
  0
SPLINE
  5
106
100
AcDbEntity
  8
Ebene_1
 62
7
100
AcDbSpline
 70
8
 71
3
 72
8
 73
4
 74
0
 40
0
 40
0
 40
0
 40
0
 40
1
 40
1
 40
1
 40
1
 10
9.745291
 20
22.047951
 30
0.0
 10
9.853735
 20
22.110704
 30
0.0
 10
9.920363
 20
22.226638
 30
0.0
 10
9.919990
 20
22.351929
 30
0.0
  0
SPLINE
  5
107
100
AcDbEntity
  8
Ebene_1
 62
7
100
AcDbSpline
 70
8
 71
3
 72
8
 73
4
 74
0
 40
0
 40
0
 40
0
 40
0
 40
1
 40
1
 40
1
 40
1
 10
9.919990
 20
22.351929
 30
0.0
 10
9.920363
 20
22.477220
 30
0.0
 10
9.853735
 20
22.593154
 30
0.0
 10
9.745291
 20
22.655907
 30
0.0
  0
SPLINE
  5
108
100
AcDbEntity
  8
Ebene_1
 62
7
100
AcDbSpline
 70
8
 71
3
 72
8
 73
4
 74
0
 40
0
 40
0
 40
0
 40
0
 40
1
 40
1
 40
1
 40
1
 10
9.745291
 20
22.655907
 30
0.0
 10
9.636848
 20
22.718661
 30
0.0
 10
9.503132
 20
22.718661
 30
0.0
 10
9.394689
 20
22.655907
 30
0.0
  0
SPLINE
  5
109
100
AcDbEntity
  8
Ebene_1
 62
7
100
AcDbSpline
 70
8
 71
3
 72
8
 73
4
 74
0
 40
0
 40
0
 40
0
 40
0
 40
1
 40
1
 40
1
 40
1
 10
9.394689
 20
22.655907
 30
0.0
 10
9.286245
 20
22.593154
 30
0.0
 10
9.219617
 20
22.477220
 30
0.0
 10
9.219990
 20
22.351929
 30
0.0
  0
LWPOLYLINE
  5
10a
100
AcDbEntity
  8
Ebene_1
 62
7
100
AcDbPolyline
 90
6
 70
0
 10
1.270000
 20
26.669909
 30
0.0
 10
4.826000
 20
26.669909
 30
0.0
 10
5.207000
 20
26.288909
 30
0.0
 10
10.033000
 20
26.288909
 30
0.0
 10
10.414000
 20
26.669909
 30
0.0
 10
13.970000
 20
26.669909
 30
0.0
  0
SPLINE
  5
10b
100
AcDbEntity
  8
Ebene_1
 62
7
100
AcDbSpline
 70
8
 71
3
 72
8
 73
4
 74
0
 40
0
 40
0
 40
0
 40
0
 40
1
 40
1
 40
1
 40
1
 10
5.319990
 20
22.351929
 30
0.0
 10
5.319990
 20
22.226884
 30
0.0
 10
5.386701
 20
22.111338
 30
0.0
 10
5.494993
 20
22.048816
 30
0.0
  0
SPLINE
  5
10c
100
AcDbEntity
  8
Ebene_1
 62
7
100
AcDbSpline
 70
8
 71
3
 72
8
 73
4
 74
0
 40
0
 40
0
 40
0
 40
0
 40
1
 40
1
 40
1
 40
1
 10
5.494993
 20
22.048816
 30
0.0
 10
5.603284
 20
21.986293
 30
0.0
 10
5.736706
 20
21.986293
 30
0.0
 10
5.844998
 20
22.048816
 30
0.0
  0
SPLINE
  5
10d
100
AcDbEntity
  8
Ebene_1
 62
7
100
AcDbSpline
 70
8
 71
3
 72
8
 73
4
 74
0
 40
0
 40
0
 40
0
 40
0
 40
1
 40
1
 40
1
 40
1
 10
5.844998
 20
22.048816
 30
0.0
 10
5.953289
 20
22.111338
 30
0.0
 10
6.020000
 20
22.226884
 30
0.0
 10
6.020000
 20
22.351929
 30
0.0
  0
SPLINE
  5
10e
100
AcDbEntity
  8
Ebene_1
 62
7
100
AcDbSpline
 70
8
 71
3
 72
8
 73
4
 74
0
 40
0
 40
0
 40
0
 40
0
 40
1
 40
1
 40
1
 40
1
 10
6.020000
 20
22.351929
 30
0.0
 10
6.020000
 20
22.476974
 30
0.0
 10
5.953289
 20
22.592520
 30
0.0
 10
5.844998
 20
22.655042
 30
0.0
  0
SPLINE
  5
10f
100
AcDbEntity
  8
Ebene_1
 62
7
100
AcDbSpline
 70
8
 71
3
 72
8
 73
4
 74
0
 40
0
 40
0
 40
0
 40
0
 40
1
 40
1
 40
1
 40
1
 10
5.844998
 20
22.655042
 30
0.0
 10
5.736706
 20
22.717565
 30
0.0
 10
5.603284
 20
22.717565
 30
0.0
 10
5.494993
 20
22.655042
 30
0.0
  0
SPLINE
  5
110
100
AcDbEntity
  8
Ebene_1
 62
7
100
AcDbSpline
 70
8
 71
3
 72
8
 73
4
 74
0
 40
0
 40
0
 40
0
 40
0
 40
1
 40
1
 40
1
 40
1
 10
5.494993
 20
22.655042
 30
0.0
 10
5.386701
 20
22.592520
 30
0.0
 10
5.319990
 20
22.476974
 30
0.0
 10
5.319990
 20
22.351929
 30
0.0
  0
LWPOLYLINE
  5
111
100
AcDbEntity
  8
Ebene_1
 62
7
100
AcDbPolyline
 90
1
 70
1
 10
9.219990
 20
22.351929
 30
0.0
  0
SPLINE
  5
112
100
AcDbEntity
  8
Ebene_1
 62
7
100
AcDbSpline
 70
8
 71
3
 72
8
 73
4
 74
0
 40
0
 40
0
 40
0
 40
0
 40
1
 40
1
 40
1
 40
1
 10
0.424000
 20
20.192929
 30
0.0
 10
0.424000
 20
19.585416
 30
0.0
 10
0.916487
 20
19.092929
 30
0.0
 10
1.524000
 20
19.092929
 30
0.0
  0
SPLINE
  5
113
100
AcDbEntity
  8
Ebene_1
 62
7
100
AcDbSpline
 70
8
 71
3
 72
8
 73
4
 74
0
 40
0
 40
0
 40
0
 40
0
 40
1
 40
1
 40
1
 40
1
 10
1.524000
 20
19.092929
 30
0.0
 10
2.131513
 20
19.092929
 30
0.0
 10
2.624000
 20
19.585416
 30
0.0
 10
2.624000
 20
20.192929
 30
0.0
  0
SPLINE
  5
114
100
AcDbEntity
  8
Ebene_1
 62
7
100
AcDbSpline
 70
8
 71
3
 72
8
 73
4
 74
0
 40
0
 40
0
 40
0
 40
0
 40
1
 40
1
 40
1
 40
1
 10
2.624000
 20
20.192929
 30
0.0
 10
2.624000
 20
20.585921
 30
0.0
 10
2.414341
 20
20.949061
 30
0.0
 10
2.074000
 20
21.145557
 30
0.0
  0
SPLINE
  5
115
100
AcDbEntity
  8
Ebene_1
 62
7
100
AcDbSpline
 70
8
 71
3
 72
8
 73
4
 74
0
 40
0
 40
0
 40
0
 40
0
 40
1
 40
1
 40
1
 40
1
 10
2.074000
 20
21.145557
 30
0.0
 10
1.733659
 20
21.342053
 30
0.0
 10
1.314341
 20
21.342053
 30
0.0
 10
0.974000
 20
21.145557
 30
0.0
  0
SPLINE
  5
116
100
AcDbEntity
  8
Ebene_1
 62
7
100
AcDbSpline
 70
8
 71
3
 72
8
 73
4
 74
0
 40
0
 40
0
 40
0
 40
0
 40
1
 40
1
 40
1
 40
1
 10
0.974000
 20
21.145557
 30
0.0
 10
0.633659
 20
20.949061
 30
0.0
 10
0.424000
 20
20.585921
 30
0.0
 10
0.424000
 20
20.192929
 30
0.0
  0
LWPOLYLINE
  5
117
100
AcDbEntity
  8
Ebene_1
 62
7
100
AcDbPolyline
 90
1
 70
1
 10
5.319990
 20
22.351929
 30
0.0
  0
SPLINE
  5
118
100
AcDbEntity
  8
Ebene_1
 62
7
100
AcDbSpline
 70
8
 71
3
 72
8
 73
4
 74
0
 40
0
 40
0
 40
0
 40
0
 40
1
 40
1
 40
1
 40
1
 10
12.616000
 20
20.192929
 30
0.0
 10
12.616000
 20
19.799937
 30
0.0
 10
12.825659
 20
19.436797
 30
0.0
 10
13.166000
 20
19.240301
 30
0.0
  0
SPLINE
  5
119
100
AcDbEntity
  8
Ebene_1
 62
7
100
AcDbSpline
 70
8
 71
3
 72
8
 73
4
 74
0
 40
0
 40
0
 40
0
 40
0
 40
1
 40
1
 40
1
 40
1
 10
13.166000
 20
19.240301
 30
0.0
 10
13.506341
 20
19.043805
 30
0.0
 10
13.925659
 20
19.043805
 30
0.0
 10
14.266000
 20
19.240301
 30
0.0
  0
SPLINE
  5
11a
100
AcDbEntity
  8
Ebene_1
 62
7
100
AcDbSpline
 70
8
 71
3
 72
8
 73
4
 74
0
 40
0
 40
0
 40
0
 40
0
 40
1
 40
1
 40
1
 40
1
 10
14.266000
 20
19.240301
 30
0.0
 10
14.606341
 20
19.436797
 30
0.0
 10
14.816000
 20
19.799937
 30
0.0
 10
14.816000
 20
20.192929
 30
0.0
  0
SPLINE
  5
11b
100
AcDbEntity
  8
Ebene_1
 62
7
100
AcDbSpline
 70
8
 71
3
 72
8
 73
4
 74
0
 40
0
 40
0
 40
0
 40
0
 40
1
 40
1
 40
1
 40
1
 10
14.816000
 20
20.192929
 30
0.0
 10
14.816000
 20
20.585921
 30
0.0
 10
14.606341
 20
20.949061
 30
0.0
 10
14.266000
 20
21.145557
 30
0.0
  0
SPLINE
  5
11c
100
AcDbEntity
  8
Ebene_1
 62
7
100
AcDbSpline
 70
8
 71
3
 72
8
 73
4
 74
0
 40
0
 40
0
 40
0
 40
0
 40
1
 40
1
 40
1
 40
1
 10
14.266000
 20
21.145557
 30
0.0
 10
13.925659
 20
21.342053
 30
0.0
 10
13.506341
 20
21.342053
 30
0.0
 10
13.166000
 20
21.145557
 30
0.0
  0
SPLINE
  5
11d
100
AcDbEntity
  8
Ebene_1
 62
7
100
AcDbSpline
 70
8
 71
3
 72
8
 73
4
 74
0
 40
0
 40
0
 40
0
 40
0
 40
1
 40
1
 40
1
 40
1
 10
13.166000
 20
21.145557
 30
0.0
 10
12.825659
 20
20.949061
 30
0.0
 10
12.616000
 20
20.585921
 30
0.0
 10
12.616000
 20
20.192929
 30
0.0
  0
LWPOLYLINE
  5
11e
100
AcDbEntity
  8
Ebene_1
 62
7
100
AcDbPolyline
 90
1
 70
1
 10
0.424000
 20
20.192929
 30
0.0
  0
SPLINE
  5
11f
100
AcDbEntity
  8
Ebene_1
 62
7
100
AcDbSpline
 70
8
 71
3
 72
8
 73
4
 74
0
 40
0
 40
0
 40
0
 40
0
 40
1
 40
1
 40
1
 40
1
 10
10.520010
 20
21.451923
 30
0.0
 10
10.519750
 20
21.308844
 30
0.0
 10
10.595933
 20
21.176522
 30
0.0
 10
10.719800
 20
21.104907
 30
0.0
  0
SPLINE
  5
120
100
AcDbEntity
  8
Ebene_1
 62
7
100
AcDbSpline
 70
8
 71
3
 72
8
 73
4
 74
0
 40
0
 40
0
 40
0
 40
0
 40
1
 40
1
 40
1
 40
1
 10
10.719800
 20
21.104907
 30
0.0
 10
10.843667
 20
21.033292
 30
0.0
 10
10.996353
 20
21.033292
 30
0.0
 10
11.120220
 20
21.104907
 30
0.0
  0
SPLINE
  5
121
100
AcDbEntity
  8
Ebene_1
 62
7
100
AcDbSpline
 70
8
 71
3
 72
8
 73
4
 74
0
 40
0
 40
0
 40
0
 40
0
 40
1
 40
1
 40
1
 40
1
 10
11.120220
 20
21.104907
 30
0.0
 10
11.244087
 20
21.176522
 30
0.0
 10
11.320270
 20
21.308844
 30
0.0
 10
11.320010
 20
21.451923
 30
0.0
  0
SPLINE
  5
122
100
AcDbEntity
  8
Ebene_1
 62
7
100
AcDbSpline
 70
8
 71
3
 72
8
 73
4
 74
0
 40
0
 40
0
 40
0
 40
0
 40
1
 40
1
 40
1
 40
1
 10
11.320010
 20
21.451923
 30
0.0
 10
11.320270
 20
21.595002
 30
0.0
 10
11.244087
 20
21.727324
 30
0.0
 10
11.120220
 20
21.798939
 30
0.0
  0
SPLINE
  5
123
100
AcDbEntity
  8
Ebene_1
 62
7
100
AcDbSpline
 70
8
 71
3
 72
8
 73
4
 74
0
 40
0
 40
0
 40
0
 40
0
 40
1
 40
1
 40
1
 40
1
 10
11.120220
 20
21.798939
 30
0.0
 10
10.996353
 20
21.870554
 30
0.0
 10
10.843667
 20
21.870554
 30
0.0
 10
10.719800
 20
21.798939
 30
0.0
  0
SPLINE
  5
124
100
AcDbEntity
  8
Ebene_1
 62
7
100
AcDbSpline
 70
8
 71
3
 72
8
 73
4
 74
0
 40
0
 40
0
 40
0
 40
0
 40
1
 40
1
 40
1
 40
1
 10
10.719800
 20
21.798939
 30
0.0
 10
10.595933
 20
21.727324
 30
0.0
 10
10.519750
 20
21.595002
 30
0.0
 10
10.520010
 20
21.451923
 30
0.0
  0
LWPOLYLINE
  5
125
100
AcDbEntity
  8
Ebene_1
 62
7
100
AcDbPolyline
 90
1
 70
1
 10
12.616000
 20
20.192929
 30
0.0
  0
SPLINE
  5
126
100
AcDbEntity
  8
Ebene_1
 62
7
100
AcDbSpline
 70
8
 71
3
 72
8
 73
4
 74
0
 40
0
 40
0
 40
0
 40
0
 40
1
 40
1
 40
1
 40
1
 10
3.919990
 20
21.451923
 30
0.0
 10
3.920391
 20
21.231293
 30
0.0
 10
4.099359
 20
21.052649
 30
0.0
 10
4.319990
 20
21.052649
 30
0.0
  0
SPLINE
  5
127
100
AcDbEntity
  8
Ebene_1
 62
7
100
AcDbSpline
 70
8
 71
3
 72
8
 73
4
 74
0
 40
0
 40
0
 40
0
 40
0
 40
1
 40
1
 40
1
 40
1
 10
4.319990
 20
21.052649
 30
0.0
 10
4.540621
 20
21.052649
 30
0.0
 10
4.719589
 20
21.231293
 30
0.0
 10
4.719990
 20
21.451923
 30
0.0
  0
SPLINE
  5
128
100
AcDbEntity
  8
Ebene_1
 62
7
100
AcDbSpline
 70
8
 71
3
 72
8
 73
4
 74
0
 40
0
 40
0
 40
0
 40
0
 40
1
 40
1
 40
1
 40
1
 10
4.719990
 20
21.451923
 30
0.0
 10
4.720250
 20
21.595002
 30
0.0
 10
4.644067
 20
21.727324
 30
0.0
 10
4.520200
 20
21.798939
 30
0.0
  0
SPLINE
  5
129
100
AcDbEntity
  8
Ebene_1
 62
7
100
AcDbSpline
 70
8
 71
3
 72
8
 73
4
 74
0
 40
0
 40
0
 40
0
 40
0
 40
1
 40
1
 40
1
 40
1
 10
4.520200
 20
21.798939
 30
0.0
 10
4.396333
 20
21.870554
 30
0.0
 10
4.243647
 20
21.870554
 30
0.0
 10
4.119780
 20
21.798939
 30
0.0
  0
SPLINE
  5
12a
100
AcDbEntity
  8
Ebene_1
 62
7
100
AcDbSpline
 70
8
 71
3
 72
8
 73
4
 74
0
 40
0
 40
0
 40
0
 40
0
 40
1
 40
1
 40
1
 40
1
 10
4.119780
 20
21.798939
 30
0.0
 10
3.995913
 20
21.727324
 30
0.0
 10
3.919730
 20
21.595002
 30
0.0
 10
3.919990
 20
21.451923
 30
0.0
  0
LWPOLYLINE
  5
12b
100
AcDbEntity
  8
Ebene_1
 62
7
100
AcDbPolyline
 90
1
 70
1
 10
10.520010
 20
21.451923
 30
0.0
  0
SPLINE
  5
12c
100
AcDbEntity
  8
Ebene_1
 62
7
100
AcDbSpline
 70
8
 71
3
 72
8
 73
4
 74
0
 40
0
 40
0
 40
0
 40
0
 40
1
 40
1
 40
1
 40
1
 10
10.770020
 20
24.251913
 30
0.0
 10
10.770020
 20
24.091143
 30
0.0
 10
10.855790
 20
23.942586
 30
0.0
 10
10.995020
 20
23.862202
 30
0.0
  0
SPLINE
  5
12d
100
AcDbEntity
  8
Ebene_1
 62
7
100
AcDbSpline
 70
8
 71
3
 72
8
 73
4
 74
0
 40
0
 40
0
 40
0
 40
0
 40
1
 40
1
 40
1
 40
1
 10
10.995020
 20
23.862202
 30
0.0
 10
11.134250
 20
23.781817
 30
0.0
 10
11.305790
 20
23.781817
 30
0.0
 10
11.445020
 20
23.862202
 30
0.0
  0
SPLINE
  5
12e
100
AcDbEntity
  8
Ebene_1
 62
7
100
AcDbSpline
 70
8
 71
3
 72
8
 73
4
 74
0
 40
0
 40
0
 40
0
 40
0
 40
1
 40
1
 40
1
 40
1
 10
11.445020
 20
23.862202
 30
0.0
 10
11.584250
 20
23.942586
 30
0.0
 10
11.670020
 20
24.091143
 30
0.0
 10
11.670020
 20
24.251913
 30
0.0
  0
SPLINE
  5
12f
100
AcDbEntity
  8
Ebene_1
 62
7
100
AcDbSpline
 70
8
 71
3
 72
8
 73
4
 74
0
 40
0
 40
0
 40
0
 40
0
 40
1
 40
1
 40
1
 40
1
 10
11.670020
 20
24.251913
 30
0.0
 10
11.670020
 20
24.412683
 30
0.0
 10
11.584250
 20
24.561240
 30
0.0
 10
11.445020
 20
24.641624
 30
0.0
  0
SPLINE
  5
130
100
AcDbEntity
  8
Ebene_1
 62
7
100
AcDbSpline
 70
8
 71
3
 72
8
 73
4
 74
0
 40
0
 40
0
 40
0
 40
0
 40
1
 40
1
 40
1
 40
1
 10
11.445020
 20
24.641624
 30
0.0
 10
11.305790
 20
24.722009
 30
0.0
 10
11.134250
 20
24.722009
 30
0.0
 10
10.995020
 20
24.641624
 30
0.0
  0
SPLINE
  5
131
100
AcDbEntity
  8
Ebene_1
 62
7
100
AcDbSpline
 70
8
 71
3
 72
8
 73
4
 74
0
 40
0
 40
0
 40
0
 40
0
 40
1
 40
1
 40
1
 40
1
 10
10.995020
 20
24.641624
 30
0.0
 10
10.855790
 20
24.561240
 30
0.0
 10
10.770020
 20
24.412683
 30
0.0
 10
10.770020
 20
24.251913
 30
0.0
  0
LWPOLYLINE
  5
132
100
AcDbEntity
  8
Ebene_1
 62
7
100
AcDbPolyline
 90
1
 70
1
 10
3.919990
 20
21.451923
 30
0.0
  0
SPLINE
  5
133
100
AcDbEntity
  8
Ebene_1
 62
7
100
AcDbSpline
 70
8
 71
3
 72
8
 73
4
 74
0
 40
0
 40
0
 40
0
 40
0
 40
1
 40
1
 40
1
 40
1
 10
3.570000
 20
24.251913
 30
0.0
 10
3.570000
 20
24.091143
 30
0.0
 10
3.655770
 20
23.942586
 30
0.0
 10
3.795000
 20
23.862202
 30
0.0
  0
SPLINE
  5
134
100
AcDbEntity
  8
Ebene_1
 62
7
100
AcDbSpline
 70
8
 71
3
 72
8
 73
4
 74
0
 40
0
 40
0
 40
0
 40
0
 40
1
 40
1
 40
1
 40
1
 10
3.795000
 20
23.862202
 30
0.0
 10
3.934230
 20
23.781817
 30
0.0
 10
4.105770
 20
23.781817
 30
0.0
 10
4.245000
 20
23.862202
 30
0.0
  0
SPLINE
  5
135
100
AcDbEntity
  8
Ebene_1
 62
7
100
AcDbSpline
 70
8
 71
3
 72
8
 73
4
 74
0
 40
0
 40
0
 40
0
 40
0
 40
1
 40
1
 40
1
 40
1
 10
4.245000
 20
23.862202
 30
0.0
 10
4.384230
 20
23.942586
 30
0.0
 10
4.470000
 20
24.091143
 30
0.0
 10
4.470000
 20
24.251913
 30
0.0
  0
SPLINE
  5
136
100
AcDbEntity
  8
Ebene_1
 62
7
100
AcDbSpline
 70
8
 71
3
 72
8
 73
4
 74
0
 40
0
 40
0
 40
0
 40
0
 40
1
 40
1
 40
1
 40
1
 10
4.470000
 20
24.251913
 30
0.0
 10
4.470000
 20
24.412683
 30
0.0
 10
4.384230
 20
24.561240
 30
0.0
 10
4.245000
 20
24.641624
 30
0.0
  0
SPLINE
  5
137
100
AcDbEntity
  8
Ebene_1
 62
7
100
AcDbSpline
 70
8
 71
3
 72
8
 73
4
 74
0
 40
0
 40
0
 40
0
 40
0
 40
1
 40
1
 40
1
 40
1
 10
4.245000
 20
24.641624
 30
0.0
 10
4.105770
 20
24.722009
 30
0.0
 10
3.934230
 20
24.722009
 30
0.0
 10
3.795000
 20
24.641624
 30
0.0
  0
SPLINE
  5
138
100
AcDbEntity
  8
Ebene_1
 62
7
100
AcDbSpline
 70
8
 71
3
 72
8
 73
4
 74
0
 40
0
 40
0
 40
0
 40
0
 40
1
 40
1
 40
1
 40
1
 10
3.795000
 20
24.641624
 30
0.0
 10
3.655770
 20
24.561240
 30
0.0
 10
3.570000
 20
24.412683
 30
0.0
 10
3.570000
 20
24.251913
 30
0.0
  0
LWPOLYLINE
  5
139
100
AcDbEntity
  8
Ebene_1
 62
7
100
AcDbPolyline
 90
1
 70
1
 10
10.770020
 20
24.251913
 30
0.0
  0
SPLINE
  5
13a
100
AcDbEntity
  8
Ebene_1
 62
7
100
AcDbSpline
 70
8
 71
3
 72
8
 73
4
 74
0
 40
0
 40
0
 40
0
 40
0
 40
1
 40
1
 40
1
 40
1
 10
0.795400
 20
17.779929
 30
0.0
 10
0.795906
 20
17.504144
 30
0.0
 10
1.019615
 20
17.280845
 30
0.0
 10
1.295400
 20
17.280845
 30
0.0
  0
SPLINE
  5
13b
100
AcDbEntity
  8
Ebene_1
 62
7
100
AcDbSpline
 70
8
 71
3
 72
8
 73
4
 74
0
 40
0
 40
0
 40
0
 40
0
 40
1
 40
1
 40
1
 40
1
 10
1.295400
 20
17.280845
 30
0.0
 10
1.571185
 20
17.280845
 30
0.0
 10
1.794894
 20
17.504144
 30
0.0
 10
1.795400
 20
17.779929
 30
0.0
  0
SPLINE
  5
13c
100
AcDbEntity
  8
Ebene_1
 62
7
100
AcDbSpline
 70
8
 71
3
 72
8
 73
4
 74
0
 40
0
 40
0
 40
0
 40
0
 40
1
 40
1
 40
1
 40
1
 10
1.795400
 20
17.779929
 30
0.0
 10
1.795728
 20
17.958780
 30
0.0
 10
1.700500
 20
18.124186
 30
0.0
 10
1.545665
 20
18.213706
 30
0.0
  0
SPLINE
  5
13d
100
AcDbEntity
  8
Ebene_1
 62
7
100
AcDbSpline
 70
8
 71
3
 72
8
 73
4
 74
0
 40
0
 40
0
 40
0
 40
0
 40
1
 40
1
 40
1
 40
1
 10
1.545665
 20
18.213706
 30
0.0
 10
1.390830
 20
18.303226
 30
0.0
 10
1.199970
 20
18.303226
 30
0.0
 10
1.045135
 20
18.213706
 30
0.0
  0
SPLINE
  5
13e
100
AcDbEntity
  8
Ebene_1
 62
7
100
AcDbSpline
 70
8
 71
3
 72
8
 73
4
 74
0
 40
0
 40
0
 40
0
 40
0
 40
1
 40
1
 40
1
 40
1
 10
1.045135
 20
18.213706
 30
0.0
 10
0.890300
 20
18.124186
 30
0.0
 10
0.795072
 20
17.958780
 30
0.0
 10
0.795400
 20
17.779929
 30
0.0
  0
LWPOLYLINE
  5
13f
100
AcDbEntity
  8
Ebene_1
 62
7
100
AcDbPolyline
 90
1
 70
1
 10
3.570000
 20
24.251913
 30
0.0
  0
SPLINE
  5
140
100
AcDbEntity
  8
Ebene_1
 62
7
100
AcDbSpline
 70
8
 71
3
 72
8
 73
4
 74
0
 40
0
 40
0
 40
0
 40
0
 40
1
 40
1
 40
1
 40
1
 10
0.795400
 20
15.239929
 30
0.0
 10
0.795906
 20
14.964144
 30
0.0
 10
1.019615
 20
14.740845
 30
0.0
 10
1.295400
 20
14.740845
 30
0.0
  0
SPLINE
  5
141
100
AcDbEntity
  8
Ebene_1
 62
7
100
AcDbSpline
 70
8
 71
3
 72
8
 73
4
 74
0
 40
0
 40
0
 40
0
 40
0
 40
1
 40
1
 40
1
 40
1
 10
1.295400
 20
14.740845
 30
0.0
 10
1.571185
 20
14.740845
 30
0.0
 10
1.794894
 20
14.964144
 30
0.0
 10
1.795400
 20
15.239929
 30
0.0
  0
SPLINE
  5
142
100
AcDbEntity
  8
Ebene_1
 62
7
100
AcDbSpline
 70
8
 71
3
 72
8
 73
4
 74
0
 40
0
 40
0
 40
0
 40
0
 40
1
 40
1
 40
1
 40
1
 10
1.795400
 20
15.239929
 30
0.0
 10
1.795728
 20
15.418780
 30
0.0
 10
1.700500
 20
15.584186
 30
0.0
 10
1.545665
 20
15.673706
 30
0.0
  0
SPLINE
  5
143
100
AcDbEntity
  8
Ebene_1
 62
7
100
AcDbSpline
 70
8
 71
3
 72
8
 73
4
 74
0
 40
0
 40
0
 40
0
 40
0
 40
1
 40
1
 40
1
 40
1
 10
1.545665
 20
15.673706
 30
0.0
 10
1.390830
 20
15.763226
 30
0.0
 10
1.199970
 20
15.763226
 30
0.0
 10
1.045135
 20
15.673706
 30
0.0
  0
SPLINE
  5
144
100
AcDbEntity
  8
Ebene_1
 62
7
100
AcDbSpline
 70
8
 71
3
 72
8
 73
4
 74
0
 40
0
 40
0
 40
0
 40
0
 40
1
 40
1
 40
1
 40
1
 10
1.045135
 20
15.673706
 30
0.0
 10
0.890300
 20
15.584186
 30
0.0
 10
0.795072
 20
15.418780
 30
0.0
 10
0.795400
 20
15.239929
 30
0.0
  0
LWPOLYLINE
  5
145
100
AcDbEntity
  8
Ebene_1
 62
7
100
AcDbPolyline
 90
1
 70
1
 10
0.795400
 20
17.779929
 30
0.0
  0
SPLINE
  5
146
100
AcDbEntity
  8
Ebene_1
 62
7
100
AcDbSpline
 70
8
 71
3
 72
8
 73
4
 74
0
 40
0
 40
0
 40
0
 40
0
 40
1
 40
1
 40
1
 40
1
 10
0.795400
 20
12.699928
 30
0.0
 10
0.795906
 20
12.424143
 30
0.0
 10
1.019615
 20
12.200844
 30
0.0
 10
1.295400
 20
12.200844
 30
0.0
  0
SPLINE
  5
147
100
AcDbEntity
  8
Ebene_1
 62
7
100
AcDbSpline
 70
8
 71
3
 72
8
 73
4
 74
0
 40
0
 40
0
 40
0
 40
0
 40
1
 40
1
 40
1
 40
1
 10
1.295400
 20
12.200844
 30
0.0
 10
1.571185
 20
12.200844
 30
0.0
 10
1.794894
 20
12.424143
 30
0.0
 10
1.795400
 20
12.699928
 30
0.0
  0
SPLINE
  5
148
100
AcDbEntity
  8
Ebene_1
 62
7
100
AcDbSpline
 70
8
 71
3
 72
8
 73
4
 74
0
 40
0
 40
0
 40
0
 40
0
 40
1
 40
1
 40
1
 40
1
 10
1.795400
 20
12.699928
 30
0.0
 10
1.795728
 20
12.878779
 30
0.0
 10
1.700500
 20
13.044185
 30
0.0
 10
1.545665
 20
13.133705
 30
0.0
  0
SPLINE
  5
149
100
AcDbEntity
  8
Ebene_1
 62
7
100
AcDbSpline
 70
8
 71
3
 72
8
 73
4
 74
0
 40
0
 40
0
 40
0
 40
0
 40
1
 40
1
 40
1
 40
1
 10
1.545665
 20
13.133705
 30
0.0
 10
1.390830
 20
13.223225
 30
0.0
 10
1.199970
 20
13.223225
 30
0.0
 10
1.045135
 20
13.133705
 30
0.0
  0
SPLINE
  5
14a
100
AcDbEntity
  8
Ebene_1
 62
7
100
AcDbSpline
 70
8
 71
3
 72
8
 73
4
 74
0
 40
0
 40
0
 40
0
 40
0
 40
1
 40
1
 40
1
 40
1
 10
1.045135
 20
13.133705
 30
0.0
 10
0.890300
 20
13.044185
 30
0.0
 10
0.795072
 20
12.878779
 30
0.0
 10
0.795400
 20
12.699928
 30
0.0
  0
LWPOLYLINE
  5
14b
100
AcDbEntity
  8
Ebene_1
 62
7
100
AcDbPolyline
 90
1
 70
1
 10
0.795400
 20
15.239929
 30
0.0
  0
SPLINE
  5
14c
100
AcDbEntity
  8
Ebene_1
 62
7
100
AcDbSpline
 70
8
 71
3
 72
8
 73
4
 74
0
 40
0
 40
0
 40
0
 40
0
 40
1
 40
1
 40
1
 40
1
 10
0.795400
 20
10.159928
 30
0.0
 10
0.795906
 20
9.884143
 30
0.0
 10
1.019615
 20
9.660844
 30
0.0
 10
1.295400
 20
9.660844
 30
0.0
  0
SPLINE
  5
14d
100
AcDbEntity
  8
Ebene_1
 62
7
100
AcDbSpline
 70
8
 71
3
 72
8
 73
4
 74
0
 40
0
 40
0
 40
0
 40
0
 40
1
 40
1
 40
1
 40
1
 10
1.295400
 20
9.660844
 30
0.0
 10
1.571185
 20
9.660844
 30
0.0
 10
1.794894
 20
9.884143
 30
0.0
 10
1.795400
 20
10.159928
 30
0.0
  0
SPLINE
  5
14e
100
AcDbEntity
  8
Ebene_1
 62
7
100
AcDbSpline
 70
8
 71
3
 72
8
 73
4
 74
0
 40
0
 40
0
 40
0
 40
0
 40
1
 40
1
 40
1
 40
1
 10
1.795400
 20
10.159928
 30
0.0
 10
1.795728
 20
10.338779
 30
0.0
 10
1.700500
 20
10.504185
 30
0.0
 10
1.545665
 20
10.593705
 30
0.0
  0
SPLINE
  5
14f
100
AcDbEntity
  8
Ebene_1
 62
7
100
AcDbSpline
 70
8
 71
3
 72
8
 73
4
 74
0
 40
0
 40
0
 40
0
 40
0
 40
1
 40
1
 40
1
 40
1
 10
1.545665
 20
10.593705
 30
0.0
 10
1.390830
 20
10.683225
 30
0.0
 10
1.199970
 20
10.683225
 30
0.0
 10
1.045135
 20
10.593705
 30
0.0
  0
SPLINE
  5
150
100
AcDbEntity
  8
Ebene_1
 62
7
100
AcDbSpline
 70
8
 71
3
 72
8
 73
4
 74
0
 40
0
 40
0
 40
0
 40
0
 40
1
 40
1
 40
1
 40
1
 10
1.045135
 20
10.593705
 30
0.0
 10
0.890300
 20
10.504185
 30
0.0
 10
0.795072
 20
10.338779
 30
0.0
 10
0.795400
 20
10.159928
 30
0.0
  0
LWPOLYLINE
  5
151
100
AcDbEntity
  8
Ebene_1
 62
7
100
AcDbPolyline
 90
1
 70
1
 10
0.795400
 20
12.699928
 30
0.0
  0
SPLINE
  5
152
100
AcDbEntity
  8
Ebene_1
 62
7
100
AcDbSpline
 70
8
 71
3
 72
8
 73
4
 74
0
 40
0
 40
0
 40
0
 40
0
 40
1
 40
1
 40
1
 40
1
 10
0.795400
 20
7.619928
 30
0.0
 10
0.795906
 20
7.344143
 30
0.0
 10
1.019615
 20
7.120844
 30
0.0
 10
1.295400
 20
7.120844
 30
0.0
  0
SPLINE
  5
153
100
AcDbEntity
  8
Ebene_1
 62
7
100
AcDbSpline
 70
8
 71
3
 72
8
 73
4
 74
0
 40
0
 40
0
 40
0
 40
0
 40
1
 40
1
 40
1
 40
1
 10
1.295400
 20
7.120844
 30
0.0
 10
1.571185
 20
7.120844
 30
0.0
 10
1.794894
 20
7.344143
 30
0.0
 10
1.795400
 20
7.619928
 30
0.0
  0
SPLINE
  5
154
100
AcDbEntity
  8
Ebene_1
 62
7
100
AcDbSpline
 70
8
 71
3
 72
8
 73
4
 74
0
 40
0
 40
0
 40
0
 40
0
 40
1
 40
1
 40
1
 40
1
 10
1.795400
 20
7.619928
 30
0.0
 10
1.795728
 20
7.798779
 30
0.0
 10
1.700500
 20
7.964185
 30
0.0
 10
1.545665
 20
8.053705
 30
0.0
  0
SPLINE
  5
155
100
AcDbEntity
  8
Ebene_1
 62
7
100
AcDbSpline
 70
8
 71
3
 72
8
 73
4
 74
0
 40
0
 40
0
 40
0
 40
0
 40
1
 40
1
 40
1
 40
1
 10
1.545665
 20
8.053705
 30
0.0
 10
1.390830
 20
8.143225
 30
0.0
 10
1.199970
 20
8.143225
 30
0.0
 10
1.045135
 20
8.053705
 30
0.0
  0
SPLINE
  5
156
100
AcDbEntity
  8
Ebene_1
 62
7
100
AcDbSpline
 70
8
 71
3
 72
8
 73
4
 74
0
 40
0
 40
0
 40
0
 40
0
 40
1
 40
1
 40
1
 40
1
 10
1.045135
 20
8.053705
 30
0.0
 10
0.890300
 20
7.964185
 30
0.0
 10
0.795072
 20
7.798779
 30
0.0
 10
0.795400
 20
7.619928
 30
0.0
  0
LWPOLYLINE
  5
157
100
AcDbEntity
  8
Ebene_1
 62
7
100
AcDbPolyline
 90
1
 70
1
 10
0.795400
 20
10.159928
 30
0.0
  0
SPLINE
  5
158
100
AcDbEntity
  8
Ebene_1
 62
7
100
AcDbSpline
 70
8
 71
3
 72
8
 73
4
 74
0
 40
0
 40
0
 40
0
 40
0
 40
1
 40
1
 40
1
 40
1
 10
13.470010
 20
7.619928
 30
0.0
 10
13.469680
 20
7.441076
 30
0.0
 10
13.564907
 20
7.275668
 30
0.0
 10
13.719743
 20
7.186146
 30
0.0
  0
SPLINE
  5
159
100
AcDbEntity
  8
Ebene_1
 62
7
100
AcDbSpline
 70
8
 71
3
 72
8
 73
4
 74
0
 40
0
 40
0
 40
0
 40
0
 40
1
 40
1
 40
1
 40
1
 10
13.719743
 20
7.186146
 30
0.0
 10
13.874579
 20
7.096625
 30
0.0
 10
14.065441
 20
7.096625
 30
0.0
 10
14.220277
 20
7.186146
 30
0.0
  0
SPLINE
  5
15a
100
AcDbEntity
  8
Ebene_1
 62
7
100
AcDbSpline
 70
8
 71
3
 72
8
 73
4
 74
0
 40
0
 40
0
 40
0
 40
0
 40
1
 40
1
 40
1
 40
1
 10
14.220277
 20
7.186146
 30
0.0
 10
14.375113
 20
7.275668
 30
0.0
 10
14.470340
 20
7.441076
 30
0.0
 10
14.470010
 20
7.619928
 30
0.0
  0
SPLINE
  5
15b
100
AcDbEntity
  8
Ebene_1
 62
7
100
AcDbSpline
 70
8
 71
3
 72
8
 73
4
 74
0
 40
0
 40
0
 40
0
 40
0
 40
1
 40
1
 40
1
 40
1
 10
14.470010
 20
7.619928
 30
0.0
 10
14.470340
 20
7.798780
 30
0.0
 10
14.375113
 20
7.964188
 30
0.0
 10
14.220277
 20
8.053710
 30
0.0
  0
SPLINE
  5
15c
100
AcDbEntity
  8
Ebene_1
 62
7
100
AcDbSpline
 70
8
 71
3
 72
8
 73
4
 74
0
 40
0
 40
0
 40
0
 40
0
 40
1
 40
1
 40
1
 40
1
 10
14.220277
 20
8.053710
 30
0.0
 10
14.065441
 20
8.143231
 30
0.0
 10
13.874579
 20
8.143231
 30
0.0
 10
13.719743
 20
8.053710
 30
0.0
  0
SPLINE
  5
15d
100
AcDbEntity
  8
Ebene_1
 62
7
100
AcDbSpline
 70
8
 71
3
 72
8
 73
4
 74
0
 40
0
 40
0
 40
0
 40
0
 40
1
 40
1
 40
1
 40
1
 10
13.719743
 20
8.053710
 30
0.0
 10
13.564907
 20
7.964188
 30
0.0
 10
13.469680
 20
7.798780
 30
0.0
 10
13.470010
 20
7.619928
 30
0.0
  0
LWPOLYLINE
  5
15e
100
AcDbEntity
  8
Ebene_1
 62
7
100
AcDbPolyline
 90
1
 70
1
 10
0.795400
 20
7.619928
 30
0.0
  0
SPLINE
  5
15f
100
AcDbEntity
  8
Ebene_1
 62
7
100
AcDbSpline
 70
8
 71
3
 72
8
 73
4
 74
0
 40
0
 40
0
 40
0
 40
0
 40
1
 40
1
 40
1
 40
1
 10
13.470010
 20
10.159928
 30
0.0
 10
13.469680
 20
9.981076
 30
0.0
 10
13.564907
 20
9.815668
 30
0.0
 10
13.719743
 20
9.726146
 30
0.0
  0
SPLINE
  5
160
100
AcDbEntity
  8
Ebene_1
 62
7
100
AcDbSpline
 70
8
 71
3
 72
8
 73
4
 74
0
 40
0
 40
0
 40
0
 40
0
 40
1
 40
1
 40
1
 40
1
 10
13.719743
 20
9.726146
 30
0.0
 10
13.874579
 20
9.636625
 30
0.0
 10
14.065441
 20
9.636625
 30
0.0
 10
14.220277
 20
9.726146
 30
0.0
  0
SPLINE
  5
161
100
AcDbEntity
  8
Ebene_1
 62
7
100
AcDbSpline
 70
8
 71
3
 72
8
 73
4
 74
0
 40
0
 40
0
 40
0
 40
0
 40
1
 40
1
 40
1
 40
1
 10
14.220277
 20
9.726146
 30
0.0
 10
14.375113
 20
9.815668
 30
0.0
 10
14.470340
 20
9.981076
 30
0.0
 10
14.470010
 20
10.159928
 30
0.0
  0
SPLINE
  5
162
100
AcDbEntity
  8
Ebene_1
 62
7
100
AcDbSpline
 70
8
 71
3
 72
8
 73
4
 74
0
 40
0
 40
0
 40
0
 40
0
 40
1
 40
1
 40
1
 40
1
 10
14.470010
 20
10.159928
 30
0.0
 10
14.470340
 20
10.338780
 30
0.0
 10
14.375113
 20
10.504188
 30
0.0
 10
14.220277
 20
10.593710
 30
0.0
  0
SPLINE
  5
163
100
AcDbEntity
  8
Ebene_1
 62
7
100
AcDbSpline
 70
8
 71
3
 72
8
 73
4
 74
0
 40
0
 40
0
 40
0
 40
0
 40
1
 40
1
 40
1
 40
1
 10
14.220277
 20
10.593710
 30
0.0
 10
14.065441
 20
10.683231
 30
0.0
 10
13.874579
 20
10.683231
 30
0.0
 10
13.719743
 20
10.593710
 30
0.0
  0
SPLINE
  5
164
100
AcDbEntity
  8
Ebene_1
 62
7
100
AcDbSpline
 70
8
 71
3
 72
8
 73
4
 74
0
 40
0
 40
0
 40
0
 40
0
 40
1
 40
1
 40
1
 40
1
 10
13.719743
 20
10.593710
 30
0.0
 10
13.564907
 20
10.504188
 30
0.0
 10
13.469680
 20
10.338780
 30
0.0
 10
13.470010
 20
10.159928
 30
0.0
  0
LWPOLYLINE
  5
165
100
AcDbEntity
  8
Ebene_1
 62
7
100
AcDbPolyline
 90
1
 70
1
 10
13.470010
 20
7.619928
 30
0.0
  0
SPLINE
  5
166
100
AcDbEntity
  8
Ebene_1
 62
7
100
AcDbSpline
 70
8
 71
3
 72
8
 73
4
 74
0
 40
0
 40
0
 40
0
 40
0
 40
1
 40
1
 40
1
 40
1
 10
13.470010
 20
12.699928
 30
0.0
 10
13.469680
 20
12.521076
 30
0.0
 10
13.564907
 20
12.355668
 30
0.0
 10
13.719743
 20
12.266146
 30
0.0
  0
SPLINE
  5
167
100
AcDbEntity
  8
Ebene_1
 62
7
100
AcDbSpline
 70
8
 71
3
 72
8
 73
4
 74
0
 40
0
 40
0
 40
0
 40
0
 40
1
 40
1
 40
1
 40
1
 10
13.719743
 20
12.266146
 30
0.0
 10
13.874579
 20
12.176625
 30
0.0
 10
14.065441
 20
12.176625
 30
0.0
 10
14.220277
 20
12.266146
 30
0.0
  0
SPLINE
  5
168
100
AcDbEntity
  8
Ebene_1
 62
7
100
AcDbSpline
 70
8
 71
3
 72
8
 73
4
 74
0
 40
0
 40
0
 40
0
 40
0
 40
1
 40
1
 40
1
 40
1
 10
14.220277
 20
12.266146
 30
0.0
 10
14.375113
 20
12.355668
 30
0.0
 10
14.470340
 20
12.521076
 30
0.0
 10
14.470010
 20
12.699928
 30
0.0
  0
SPLINE
  5
169
100
AcDbEntity
  8
Ebene_1
 62
7
100
AcDbSpline
 70
8
 71
3
 72
8
 73
4
 74
0
 40
0
 40
0
 40
0
 40
0
 40
1
 40
1
 40
1
 40
1
 10
14.470010
 20
12.699928
 30
0.0
 10
14.470340
 20
12.878780
 30
0.0
 10
14.375113
 20
13.044188
 30
0.0
 10
14.220277
 20
13.133710
 30
0.0
  0
SPLINE
  5
16a
100
AcDbEntity
  8
Ebene_1
 62
7
100
AcDbSpline
 70
8
 71
3
 72
8
 73
4
 74
0
 40
0
 40
0
 40
0
 40
0
 40
1
 40
1
 40
1
 40
1
 10
14.220277
 20
13.133710
 30
0.0
 10
14.065441
 20
13.223231
 30
0.0
 10
13.874579
 20
13.223231
 30
0.0
 10
13.719743
 20
13.133710
 30
0.0
  0
SPLINE
  5
16b
100
AcDbEntity
  8
Ebene_1
 62
7
100
AcDbSpline
 70
8
 71
3
 72
8
 73
4
 74
0
 40
0
 40
0
 40
0
 40
0
 40
1
 40
1
 40
1
 40
1
 10
13.719743
 20
13.133710
 30
0.0
 10
13.564907
 20
13.044188
 30
0.0
 10
13.469680
 20
12.878780
 30
0.0
 10
13.470010
 20
12.699928
 30
0.0
  0
LWPOLYLINE
  5
16c
100
AcDbEntity
  8
Ebene_1
 62
7
100
AcDbPolyline
 90
1
 70
1
 10
13.470010
 20
10.159928
 30
0.0
  0
SPLINE
  5
16d
100
AcDbEntity
  8
Ebene_1
 62
7
100
AcDbSpline
 70
8
 71
3
 72
8
 73
4
 74
0
 40
0
 40
0
 40
0
 40
0
 40
1
 40
1
 40
1
 40
1
 10
13.470010
 20
15.239929
 30
0.0
 10
13.469680
 20
15.061077
 30
0.0
 10
13.564907
 20
14.895669
 30
0.0
 10
13.719743
 20
14.806147
 30
0.0
  0
SPLINE
  5
16e
100
AcDbEntity
  8
Ebene_1
 62
7
100
AcDbSpline
 70
8
 71
3
 72
8
 73
4
 74
0
 40
0
 40
0
 40
0
 40
0
 40
1
 40
1
 40
1
 40
1
 10
13.719743
 20
14.806147
 30
0.0
 10
13.874579
 20
14.716626
 30
0.0
 10
14.065441
 20
14.716626
 30
0.0
 10
14.220277
 20
14.806147
 30
0.0
  0
SPLINE
  5
16f
100
AcDbEntity
  8
Ebene_1
 62
7
100
AcDbSpline
 70
8
 71
3
 72
8
 73
4
 74
0
 40
0
 40
0
 40
0
 40
0
 40
1
 40
1
 40
1
 40
1
 10
14.220277
 20
14.806147
 30
0.0
 10
14.375113
 20
14.895669
 30
0.0
 10
14.470340
 20
15.061077
 30
0.0
 10
14.470010
 20
15.239929
 30
0.0
  0
SPLINE
  5
170
100
AcDbEntity
  8
Ebene_1
 62
7
100
AcDbSpline
 70
8
 71
3
 72
8
 73
4
 74
0
 40
0
 40
0
 40
0
 40
0
 40
1
 40
1
 40
1
 40
1
 10
14.470010
 20
15.239929
 30
0.0
 10
14.470340
 20
15.418781
 30
0.0
 10
14.375113
 20
15.584189
 30
0.0
 10
14.220277
 20
15.673711
 30
0.0
  0
SPLINE
  5
171
100
AcDbEntity
  8
Ebene_1
 62
7
100
AcDbSpline
 70
8
 71
3
 72
8
 73
4
 74
0
 40
0
 40
0
 40
0
 40
0
 40
1
 40
1
 40
1
 40
1
 10
14.220277
 20
15.673711
 30
0.0
 10
14.065441
 20
15.763232
 30
0.0
 10
13.874579
 20
15.763232
 30
0.0
 10
13.719743
 20
15.673711
 30
0.0
  0
SPLINE
  5
172
100
AcDbEntity
  8
Ebene_1
 62
7
100
AcDbSpline
 70
8
 71
3
 72
8
 73
4
 74
0
 40
0
 40
0
 40
0
 40
0
 40
1
 40
1
 40
1
 40
1
 10
13.719743
 20
15.673711
 30
0.0
 10
13.564907
 20
15.584189
 30
0.0
 10
13.469680
 20
15.418781
 30
0.0
 10
13.470010
 20
15.239929
 30
0.0
  0
LWPOLYLINE
  5
173
100
AcDbEntity
  8
Ebene_1
 62
7
100
AcDbPolyline
 90
1
 70
1
 10
13.470010
 20
12.699928
 30
0.0
  0
SPLINE
  5
174
100
AcDbEntity
  8
Ebene_1
 62
7
100
AcDbSpline
 70
8
 71
3
 72
8
 73
4
 74
0
 40
0
 40
0
 40
0
 40
0
 40
1
 40
1
 40
1
 40
1
 10
13.470010
 20
17.779929
 30
0.0
 10
13.469680
 20
17.601077
 30
0.0
 10
13.564907
 20
17.435669
 30
0.0
 10
13.719743
 20
17.346147
 30
0.0
  0
SPLINE
  5
175
100
AcDbEntity
  8
Ebene_1
 62
7
100
AcDbSpline
 70
8
 71
3
 72
8
 73
4
 74
0
 40
0
 40
0
 40
0
 40
0
 40
1
 40
1
 40
1
 40
1
 10
13.719743
 20
17.346147
 30
0.0
 10
13.874579
 20
17.256626
 30
0.0
 10
14.065441
 20
17.256626
 30
0.0
 10
14.220277
 20
17.346147
 30
0.0
  0
SPLINE
  5
176
100
AcDbEntity
  8
Ebene_1
 62
7
100
AcDbSpline
 70
8
 71
3
 72
8
 73
4
 74
0
 40
0
 40
0
 40
0
 40
0
 40
1
 40
1
 40
1
 40
1
 10
14.220277
 20
17.346147
 30
0.0
 10
14.375113
 20
17.435669
 30
0.0
 10
14.470340
 20
17.601077
 30
0.0
 10
14.470010
 20
17.779929
 30
0.0
  0
SPLINE
  5
177
100
AcDbEntity
  8
Ebene_1
 62
7
100
AcDbSpline
 70
8
 71
3
 72
8
 73
4
 74
0
 40
0
 40
0
 40
0
 40
0
 40
1
 40
1
 40
1
 40
1
 10
14.470010
 20
17.779929
 30
0.0
 10
14.470340
 20
17.958781
 30
0.0
 10
14.375113
 20
18.124189
 30
0.0
 10
14.220277
 20
18.213711
 30
0.0
  0
SPLINE
  5
178
100
AcDbEntity
  8
Ebene_1
 62
7
100
AcDbSpline
 70
8
 71
3
 72
8
 73
4
 74
0
 40
0
 40
0
 40
0
 40
0
 40
1
 40
1
 40
1
 40
1
 10
14.220277
 20
18.213711
 30
0.0
 10
14.065441
 20
18.303232
 30
0.0
 10
13.874579
 20
18.303232
 30
0.0
 10
13.719743
 20
18.213711
 30
0.0
  0
SPLINE
  5
179
100
AcDbEntity
  8
Ebene_1
 62
7
100
AcDbSpline
 70
8
 71
3
 72
8
 73
4
 74
0
 40
0
 40
0
 40
0
 40
0
 40
1
 40
1
 40
1
 40
1
 10
13.719743
 20
18.213711
 30
0.0
 10
13.564907
 20
18.124189
 30
0.0
 10
13.469680
 20
17.958781
 30
0.0
 10
13.470010
 20
17.779929
 30
0.0
  0
LWPOLYLINE
  5
17a
100
AcDbEntity
  8
Ebene_1
 62
7
100
AcDbPolyline
 90
1
 70
1
 10
13.470010
 20
15.239929
 30
0.0
  0
SPLINE
  5
17b
100
AcDbEntity
  8
Ebene_1
 62
7
100
AcDbSpline
 70
8
 71
3
 72
8
 73
4
 74
0
 40
0
 40
0
 40
0
 40
0
 40
1
 40
1
 40
1
 40
1
 10
0.805000
 20
3.809927
 30
0.0
 10
0.805000
 20
3.416935
 30
0.0
 10
1.014659
 20
3.053795
 30
0.0
 10
1.355000
 20
2.857299
 30
0.0
  0
SPLINE
  5
17c
100
AcDbEntity
  8
Ebene_1
 62
7
100
AcDbSpline
 70
8
 71
3
 72
8
 73
4
 74
0
 40
0
 40
0
 40
0
 40
0
 40
1
 40
1
 40
1
 40
1
 10
1.355000
 20
2.857299
 30
0.0
 10
1.695341
 20
2.660803
 30
0.0
 10
2.114659
 20
2.660803
 30
0.0
 10
2.455000
 20
2.857299
 30
0.0
  0
SPLINE
  5
17d
100
AcDbEntity
  8
Ebene_1
 62
7
100
AcDbSpline
 70
8
 71
3
 72
8
 73
4
 74
0
 40
0
 40
0
 40
0
 40
0
 40
1
 40
1
 40
1
 40
1
 10
2.455000
 20
2.857299
 30
0.0
 10
2.795341
 20
3.053795
 30
0.0
 10
3.005000
 20
3.416935
 30
0.0
 10
3.005000
 20
3.809927
 30
0.0
  0
SPLINE
  5
17e
100
AcDbEntity
  8
Ebene_1
 62
7
100
AcDbSpline
 70
8
 71
3
 72
8
 73
4
 74
0
 40
0
 40
0
 40
0
 40
0
 40
1
 40
1
 40
1
 40
1
 10
3.005000
 20
3.809927
 30
0.0
 10
3.005000
 20
4.202919
 30
0.0
 10
2.795341
 20
4.566059
 30
0.0
 10
2.455000
 20
4.762555
 30
0.0
  0
SPLINE
  5
17f
100
AcDbEntity
  8
Ebene_1
 62
7
100
AcDbSpline
 70
8
 71
3
 72
8
 73
4
 74
0
 40
0
 40
0
 40
0
 40
0
 40
1
 40
1
 40
1
 40
1
 10
2.455000
 20
4.762555
 30
0.0
 10
2.114659
 20
4.959051
 30
0.0
 10
1.695341
 20
4.959051
 30
0.0
 10
1.355000
 20
4.762555
 30
0.0
  0
SPLINE
  5
180
100
AcDbEntity
  8
Ebene_1
 62
7
100
AcDbSpline
 70
8
 71
3
 72
8
 73
4
 74
0
 40
0
 40
0
 40
0
 40
0
 40
1
 40
1
 40
1
 40
1
 10
1.355000
 20
4.762555
 30
0.0
 10
1.014659
 20
4.566059
 30
0.0
 10
0.805000
 20
4.202919
 30
0.0
 10
0.805000
 20
3.809927
 30
0.0
  0
LWPOLYLINE
  5
181
100
AcDbEntity
  8
Ebene_1
 62
7
100
AcDbPolyline
 90
1
 70
1
 10
13.470010
 20
17.779929
 30
0.0
  0
SPLINE
  5
182
100
AcDbEntity
  8
Ebene_1
 62
7
100
AcDbSpline
 70
8
 71
3
 72
8
 73
4
 74
0
 40
0
 40
0
 40
0
 40
0
 40
1
 40
1
 40
1
 40
1
 10
12.235000
 20
3.809927
 30
0.0
 10
12.235000
 20
3.416935
 30
0.0
 10
12.444659
 20
3.053795
 30
0.0
 10
12.785000
 20
2.857299
 30
0.0
  0
SPLINE
  5
183
100
AcDbEntity
  8
Ebene_1
 62
7
100
AcDbSpline
 70
8
 71
3
 72
8
 73
4
 74
0
 40
0
 40
0
 40
0
 40
0
 40
1
 40
1
 40
1
 40
1
 10
12.785000
 20
2.857299
 30
0.0
 10
13.125341
 20
2.660803
 30
0.0
 10
13.544659
 20
2.660803
 30
0.0
 10
13.885000
 20
2.857299
 30
0.0
  0
SPLINE
  5
184
100
AcDbEntity
  8
Ebene_1
 62
7
100
AcDbSpline
 70
8
 71
3
 72
8
 73
4
 74
0
 40
0
 40
0
 40
0
 40
0
 40
1
 40
1
 40
1
 40
1
 10
13.885000
 20
2.857299
 30
0.0
 10
14.225341
 20
3.053795
 30
0.0
 10
14.435000
 20
3.416935
 30
0.0
 10
14.435000
 20
3.809927
 30
0.0
  0
SPLINE
  5
185
100
AcDbEntity
  8
Ebene_1
 62
7
100
AcDbSpline
 70
8
 71
3
 72
8
 73
4
 74
0
 40
0
 40
0
 40
0
 40
0
 40
1
 40
1
 40
1
 40
1
 10
14.435000
 20
3.809927
 30
0.0
 10
14.435000
 20
4.202919
 30
0.0
 10
14.225341
 20
4.566059
 30
0.0
 10
13.885000
 20
4.762555
 30
0.0
  0
SPLINE
  5
186
100
AcDbEntity
  8
Ebene_1
 62
7
100
AcDbSpline
 70
8
 71
3
 72
8
 73
4
 74
0
 40
0
 40
0
 40
0
 40
0
 40
1
 40
1
 40
1
 40
1
 10
13.885000
 20
4.762555
 30
0.0
 10
13.544659
 20
4.959051
 30
0.0
 10
13.125341
 20
4.959051
 30
0.0
 10
12.785000
 20
4.762555
 30
0.0
  0
SPLINE
  5
187
100
AcDbEntity
  8
Ebene_1
 62
7
100
AcDbSpline
 70
8
 71
3
 72
8
 73
4
 74
0
 40
0
 40
0
 40
0
 40
0
 40
1
 40
1
 40
1
 40
1
 10
12.785000
 20
4.762555
 30
0.0
 10
12.444659
 20
4.566059
 30
0.0
 10
12.235000
 20
4.202919
 30
0.0
 10
12.235000
 20
3.809927
 30
0.0
  0
LWPOLYLINE
  5
188
100
AcDbEntity
  8
Ebene_1
 62
7
100
AcDbPolyline
 90
1
 70
1
 10
0.805000
 20
3.809927
 30
0.0
  0
LWPOLYLINE
  5
189
100
AcDbEntity
  8
Ebene_1
 62
7
100
AcDbPolyline
 90
1
 70
1
 10
12.235000
 20
3.809927
 30
0.0
  0
ENDSEC
  0
SECTION
  2
OBJECTS
  0
DICTIONARY
  5
C
330
0
100
AcDbDictionary
  3
ACAD_GROUP
350
D
  3
ACAD_MLINESTYLE
350
17
  0
DICTIONARY
  5
D
330
C
100
AcDbDictionary
  0
DICTIONARY
  5
1A
330
C
100
AcDbDictionary
  0
DICTIONARY
  5
17
330
C
100
AcDbDictionary
  3
STANDARD
350
18
  0
DICTIONARY
  5
19
330
C
100
AcDbDictionary
  0
ENDSEC
  0
EOF
