<?xml version="1.0" encoding="UTF-8" standalone="no"?>
<!-- Created with Inkscape (http://www.inkscape.org/) -->

<svg
   xmlns:dc="http://purl.org/dc/elements/1.1/"
   xmlns:cc="http://creativecommons.org/ns#"
   xmlns:rdf="http://www.w3.org/1999/02/22-rdf-syntax-ns#"
   xmlns:svg="http://www.w3.org/2000/svg"
   xmlns="http://www.w3.org/2000/svg"
   xmlns:sodipodi="http://sodipodi.sourceforge.net/DTD/sodipodi-0.dtd"
   xmlns:inkscape="http://www.inkscape.org/namespaces/inkscape"
   width="15.24mm"
   height="26.669909mm"
   viewBox="0 0 15.24 26.669909"
   version="1.1"
   id="svg2662"
   inkscape:version="0.92.4 (5da689c313, 2019-01-14)"
   sodipodi:docname="trinketM0PCB.svg">
  <defs
     id="defs2656" />
  <sodipodi:namedview
     id="base"
     pagecolor="#ffffff"
     bordercolor="#666666"
     borderopacity="1.0"
     inkscape:pageopacity="0.0"
     inkscape:pageshadow="2"
     inkscape:zoom="2.8"
     inkscape:cx="-65.40232"
     inkscape:cy="-12.68116"
     inkscape:document-units="mm"
     inkscape:current-layer="layer1"
     showgrid="false"
     fit-margin-top="0"
     fit-margin-left="0"
     fit-margin-right="0"
     fit-margin-bottom="0"
     inkscape:window-width="1920"
     inkscape:window-height="1001"
     inkscape:window-x="-9"
     inkscape:window-y="-9"
     inkscape:window-maximized="1" />
  <metadata
     id="metadata2659">
    <rdf:RDF>
      <cc:Work
         rdf:about="">
        <dc:format>image/svg+xml</dc:format>
        <dc:type
           rdf:resource="http://purl.org/dc/dcmitype/StillImage" />
        <dc:title></dc:title>
      </cc:Work>
    </rdf:RDF>
  </metadata>
  <g
     inkscape:label="Ebene 1"
     inkscape:groupmode="layer"
     id="layer1"
     transform="translate(-131.47524,-76.534091)">
    <path
       inkscape:connector-curvature="0"
       d="m 146.71524,77.804091 v 23.113979 l -0.762,0.76193 h -3.302 l -1.524,1.524 h -7.112 l -1.778,-1.778 h -0.762 V 77.804091 a 1.2700002,1.2700002 0 0 1 1.27,-1.27 h 3.556 l 0.381,0.381 h 4.826 l 0.381,-0.381 h 3.556 a 1.2700002,1.2700002 0 0 1 1.27,1.27 m -6.02001,3.04798 a 0.35000155,0.35000155 0 1 0 0.7,0 0.35000155,0.35000155 0 1 0 -0.7,0 z m -3.9,0 a 0.350005,0.350005 0 1 0 0.70001,0 0.350005,0.350005 0 1 0 -0.70001,0 z m -4.89599,2.159 a 1.1,1.1 0 0 0 2.2,0 1.1,1.1 0 1 0 -2.2,0 z m 12.192,0 a 1.1,1.1 0 0 0 2.2,0 1.1,1.1 0 1 0 -2.2,0 z m -2.09599,-1.258994 a 0.40000066,0.40000066 0 1 0 0.8,0 0.40000066,0.40000066 0 1 0 -0.8,0 z m -6.60002,0 a 0.40000066,0.40000066 0 0 0 0.8,0 0.40000066,0.40000066 0 1 0 -0.8,0 z m 6.85003,-2.79999 a 0.45,0.45 0 1 0 0.9,0 0.45,0.45 0 1 0 -0.9,0 z m -7.20002,0 a 0.45,0.45 0 0 0 0.9,0 0.45,0.45 0 1 0 -0.9,0 z m -2.7746,6.471984 a 0.50000084,0.50000084 0 0 0 1,0 0.50000084,0.50000084 0 1 0 -1,0 z m 0,2.54 a 0.50000084,0.50000084 0 0 0 1,0 0.50000084,0.50000084 0 1 0 -1,0 z m 0,2.540001 a 0.50000084,0.50000084 0 0 0 1,0 0.50000084,0.50000084 0 1 0 -1,0 z m 0,2.54 a 0.50000084,0.50000084 0 0 0 1,0 0.50000084,0.50000084 0 1 0 -1,0 z m 0,2.54 a 0.50000084,0.50000084 0 0 0 1,0 0.50000084,0.50000084 0 1 0 -1,0 z m 12.67461,0 a 0.50000085,0.50000085 0 1 0 1,0 0.50000085,0.50000085 0 1 0 -1,0 z m 0,-2.54 a 0.50000085,0.50000085 0 1 0 1,0 0.50000085,0.50000085 0 1 0 -1,0 z m 0,-2.54 a 0.50000085,0.50000085 0 1 0 1,0 0.50000085,0.50000085 0 1 0 -1,0 z m 0,-2.540001 a 0.50000085,0.50000085 0 1 0 1,0 0.50000085,0.50000085 0 1 0 -1,0 z m 0,-2.54 a 0.50000085,0.50000085 0 1 0 1,0 0.50000085,0.50000085 0 1 0 -1,0 z m -12.66501,13.970002 a 1.1,1.1 0 1 0 2.2,0 1.1,1.1 0 1 0 -2.2,0 z m 11.43,0 a 1.1,1.1 0 0 0 2.2,0 1.1,1.1 0 1 0 -2.2,0 z"
       style="fill:#000000;stroke:none;stroke-width:0"
       gorn="0.4.0"
       id="path8" />
  </g>
</svg>
