  0
SECTION
  2
BLOCKS
  0
ENDSEC
  0
SECTION
  2
ENTITIES
  0
LINE
  8
0
 10
24.5103
 20
193.511
 11
25.1498
 21
193.005
  0
LINE
  8
0
 10
25.1498
 20
193.005
 11
25.8459
 21
192.581
  0
LINE
  8
0
 10
25.8459
 20
192.581
 11
26.5884
 21
192.245
  0
LINE
  8
0
 10
26.5884
 20
192.245
 11
27.3661
 21
192.001
  0
LINE
  8
0
 10
27.3661
 20
192.001
 11
28.1677
 21
191.853
  0
LINE
  8
0
 10
28.1677
 20
191.853
 11
28.9813
 21
191.803
  0
LINE
  8
0
 10
28.9813
 20
191.803
 11
30.1462
 21
191.905
  0
LINE
  8
0
 10
30.1462
 20
191.905
 11
31.2757
 21
192.208
  0
LINE
  8
0
 10
31.2757
 20
192.208
 11
32.3354
 21
192.702
  0
LINE
  8
0
 10
32.3354
 20
192.702
 11
33.2932
 21
193.373
  0
LINE
  8
0
 10
33.2932
 20
193.373
 11
34.1201
 21
194.2
  0
LINE
  8
0
 10
34.1201
 20
194.2
 11
34.7907
 21
195.157
  0
LINE
  8
0
 10
34.7907
 20
195.157
 11
35.2849
 21
196.217
  0
LINE
  8
0
 10
35.2849
 20
196.217
 11
35.5875
 21
197.347
  0
LINE
  8
0
 10
35.5875
 20
197.347
 11
35.6895
 21
198.511
  0
LINE
  8
0
 10
35.6895
 20
198.511
 11
35.5875
 21
199.676
  0
LINE
  8
0
 10
35.5875
 20
199.676
 11
35.2849
 21
200.806
  0
LINE
  8
0
 10
35.2849
 20
200.806
 11
34.7907
 21
201.866
  0
LINE
  8
0
 10
34.7907
 20
201.866
 11
34.1201
 21
202.823
  0
LINE
  8
0
 10
34.1201
 20
202.823
 11
33.7069
 21
203.237
  0
LINE
  8
0
 10
33.7069
 20
203.237
 11
39.6777
 21
209.207
  0
LINE
  8
0
 10
39.6777
 20
209.207
 11
39.9629
 21
208.899
  0
LINE
  8
0
 10
39.9629
 20
208.899
 11
40.3407
 21
208.549
  0
LINE
  8
0
 10
40.3407
 20
208.549
 11
40.7446
 21
208.229
  0
LINE
  8
0
 10
40.7446
 20
208.229
 11
41.1727
 21
207.94
  0
LINE
  8
0
 10
41.1727
 20
207.94
 11
41.6235
 21
207.683
  0
LINE
  8
0
 10
41.6235
 20
207.683
 11
42.0952
 21
207.462
  0
LINE
  8
0
 10
42.0952
 20
207.462
 11
42.586
 21
207.277
  0
LINE
  8
0
 10
42.586
 20
207.277
 11
43.0943
 21
207.13
  0
LINE
  8
0
 10
43.0943
 20
207.13
 11
43.6182
 21
207.023
  0
LINE
  8
0
 10
43.6182
 20
207.023
 11
44.1561
 21
206.957
  0
LINE
  8
0
 10
44.1561
 20
206.957
 11
44.7063
 21
206.935
  0
LINE
  8
0
 10
44.7063
 20
206.935
 11
45.2565
 21
206.957
  0
LINE
  8
0
 10
45.2565
 20
206.957
 11
45.7944
 21
207.023
  0
LINE
  8
0
 10
45.7944
 20
207.023
 11
46.3183
 21
207.13
  0
LINE
  8
0
 10
46.3183
 20
207.13
 11
46.8266
 21
207.277
  0
LINE
  8
0
 10
46.8266
 20
207.277
 11
47.3174
 21
207.462
  0
LINE
  8
0
 10
47.3174
 20
207.462
 11
47.7891
 21
207.683
  0
LINE
  8
0
 10
47.7891
 20
207.683
 11
48.2399
 21
207.94
  0
LINE
  8
0
 10
48.2399
 20
207.94
 11
48.668
 21
208.229
  0
LINE
  8
0
 10
48.668
 20
208.229
 11
49.0719
 21
208.549
  0
LINE
  8
0
 10
49.0719
 20
208.549
 11
49.4496
 21
208.899
  0
LINE
  8
0
 10
49.4496
 20
208.899
 11
49.7997
 21
209.277
  0
LINE
  8
0
 10
49.7997
 20
209.277
 11
50.1201
 21
209.681
  0
LINE
  8
0
 10
50.1201
 20
209.681
 11
50.4094
 21
210.109
  0
LINE
  8
0
 10
50.4094
 20
210.109
 11
50.6657
 21
210.56
  0
LINE
  8
0
 10
50.6657
 20
210.56
 11
50.8873
 21
211.032
  0
LINE
  8
0
 10
50.8873
 20
211.032
 11
51.0724
 21
211.523
  0
LINE
  8
0
 10
51.0724
 20
211.523
 11
51.2195
 21
212.031
  0
LINE
  8
0
 10
51.2195
 20
212.031
 11
51.3266
 21
212.555
  0
LINE
  8
0
 10
51.3266
 20
212.555
 11
51.3922
 21
213.093
  0
LINE
  8
0
 10
51.3922
 20
213.093
 11
51.4144
 21
213.643
  0
LINE
  8
0
 10
51.4144
 20
213.643
 11
51.3922
 21
214.193
  0
LINE
  8
0
 10
51.3922
 20
214.193
 11
51.3266
 21
214.731
  0
LINE
  8
0
 10
51.3266
 20
214.731
 11
51.2195
 21
215.255
  0
LINE
  8
0
 10
51.2195
 20
215.255
 11
51.0724
 21
215.763
  0
LINE
  8
0
 10
51.0724
 20
215.763
 11
50.8873
 21
216.254
  0
LINE
  8
0
 10
50.8873
 20
216.254
 11
50.6657
 21
216.726
  0
LINE
  8
0
 10
50.6657
 20
216.726
 11
50.4094
 21
217.176
  0
LINE
  8
0
 10
50.4094
 20
217.176
 11
50.2668
 21
217.387
  0
LINE
  8
0
 10
50.2668
 20
217.387
 11
50.5379
 21
217.919
  0
LINE
  8
0
 10
50.5379
 20
217.919
 11
50.7895
 21
218.575
  0
LINE
  8
0
 10
50.7895
 20
218.575
 11
50.9712
 21
219.253
  0
LINE
  8
0
 10
50.9712
 20
219.253
 11
51.081
 21
219.946
  0
LINE
  8
0
 10
51.081
 20
219.946
 11
51.1178
 21
220.648
  0
LINE
  8
0
 10
51.1178
 20
220.648
 11
51.0159
 21
221.812
  0
LINE
  8
0
 10
51.0159
 20
221.812
 11
50.7133
 21
222.942
  0
LINE
  8
0
 10
50.7133
 20
222.942
 11
50.2191
 21
224.002
  0
LINE
  8
0
 10
50.2191
 20
224.002
 11
49.5484
 21
224.959
  0
LINE
  8
0
 10
49.5484
 20
224.959
 11
48.7216
 21
225.786
  0
LINE
  8
0
 10
48.7216
 20
225.786
 11
47.7637
 21
226.457
  0
LINE
  8
0
 10
47.7637
 20
226.457
 11
46.704
 21
226.951
  0
LINE
  8
0
 10
46.704
 20
226.951
 11
45.5745
 21
227.254
  0
LINE
  8
0
 10
45.5745
 20
227.254
 11
44.4097
 21
227.356
  0
LINE
  8
0
 10
44.4097
 20
227.356
 11
44.403
 21
227.356
  0
LINE
  8
0
 10
44.403
 20
227.356
 11
43.0952
 21
227.226
  0
LINE
  8
0
 10
43.0952
 20
227.226
 11
41.8379
 21
226.843
  0
LINE
  8
0
 10
41.8379
 20
226.843
 11
40.9541
 21
226.37
  0
LINE
  8
0
 10
40.9541
 20
226.37
 11
40.6093
 21
226.532
  0
LINE
  8
0
 10
40.6093
 20
226.532
 11
40.1185
 21
226.717
  0
LINE
  8
0
 10
40.1185
 20
226.717
 11
39.6102
 21
226.864
  0
LINE
  8
0
 10
39.6102
 20
226.864
 11
39.0863
 21
226.971
  0
LINE
  8
0
 10
39.0863
 20
226.971
 11
38.5484
 21
227.037
  0
LINE
  8
0
 10
38.5484
 20
227.037
 11
37.9982
 21
227.059
  0
LINE
  8
0
 10
37.9982
 20
227.059
 11
37.9915
 21
227.059
  0
LINE
  8
0
 10
37.9915
 20
227.059
 11
37.4417
 21
227.036
  0
LINE
  8
0
 10
37.4417
 20
227.036
 11
36.9042
 21
226.97
  0
LINE
  8
0
 10
36.9042
 20
226.97
 11
36.3807
 21
226.863
  0
LINE
  8
0
 10
36.3807
 20
226.863
 11
35.8729
 21
226.715
  0
LINE
  8
0
 10
35.8729
 20
226.715
 11
35.3825
 21
226.53
  0
LINE
  8
0
 10
35.3825
 20
226.53
 11
34.9113
 21
226.308
  0
LINE
  8
0
 10
34.9113
 20
226.308
 11
34.461
 21
226.052
  0
LINE
  8
0
 10
34.461
 20
226.052
 11
34.0332
 21
225.762
  0
LINE
  8
0
 10
34.0332
 20
225.762
 11
33.6298
 21
225.442
  0
LINE
  8
0
 10
33.6298
 20
225.442
 11
33.2525
 21
225.092
  0
LINE
  8
0
 10
33.2525
 20
225.092
 11
32.9028
 21
224.714
  0
LINE
  8
0
 10
32.9028
 20
224.714
 11
32.5827
 21
224.31
  0
LINE
  8
0
 10
32.5827
 20
224.31
 11
32.2938
 21
223.882
  0
LINE
  8
0
 10
32.2938
 20
223.882
 11
32.0379
 21
223.432
  0
LINE
  8
0
 10
32.0379
 20
223.432
 11
31.8165
 21
222.96
  0
LINE
  8
0
 10
31.8165
 20
222.96
 11
31.6316
 21
222.47
  0
LINE
  8
0
 10
31.6316
 20
222.47
 11
31.4848
 21
221.962
  0
LINE
  8
0
 10
31.4848
 20
221.962
 11
31.3777
 21
221.438
  0
LINE
  8
0
 10
31.3777
 20
221.438
 11
31.3123
 21
220.901
  0
LINE
  8
0
 10
31.3123
 20
220.901
 11
31.2901
 21
220.351
  0
LINE
  8
0
 10
31.2901
 20
220.351
 11
31.2957
 21
220.074
  0
LINE
  8
0
 10
31.2957
 20
220.074
 11
31.3123
 21
219.801
  0
LINE
  8
0
 10
31.3123
 20
219.801
 11
31.3398
 21
219.53
  0
LINE
  8
0
 10
31.3398
 20
219.53
 11
31.3779
 21
219.263
  0
LINE
  8
0
 10
31.3779
 20
219.263
 11
31.4263
 21
218.999
  0
LINE
  8
0
 10
31.4263
 20
218.999
 11
31.485
 21
218.739
  0
LINE
  8
0
 10
31.485
 20
218.739
 11
31.5536
 21
218.483
  0
LINE
  8
0
 10
31.5536
 20
218.483
 11
31.632
 21
218.231
  0
LINE
  8
0
 10
31.632
 20
218.231
 11
31.72
 21
217.983
  0
LINE
  8
0
 10
31.72
 20
217.983
 11
31.8172
 21
217.74
  0
LINE
  8
0
 10
31.8172
 20
217.74
 11
31.9236
 21
217.501
  0
LINE
  8
0
 10
31.9236
 20
217.501
 11
32.0388
 21
217.268
  0
LINE
  8
0
 10
32.0388
 20
217.268
 11
32.1627
 21
217.04
  0
LINE
  8
0
 10
32.1627
 20
217.04
 11
32.2951
 21
216.817
  0
LINE
  8
0
 10
32.2951
 20
216.817
 11
32.4357
 21
216.6
  0
LINE
  8
0
 10
32.4357
 20
216.6
 11
32.5843
 21
216.389
  0
LINE
  8
0
 10
32.5843
 20
216.389
 11
32.7408
 21
216.184
  0
LINE
  8
0
 10
32.7408
 20
216.184
 11
32.9048
 21
215.985
  0
LINE
  8
0
 10
32.9048
 20
215.985
 11
33.0762
 21
215.793
  0
LINE
  8
0
 10
33.0762
 20
215.793
 11
33.2548
 21
215.608
  0
LINE
  8
0
 10
33.2548
 20
215.608
 11
27.3136
 21
209.666
  0
LINE
  8
0
 10
27.3136
 20
209.666
 11
27.128
 21
209.845
  0
LINE
  8
0
 10
27.128
 20
209.845
 11
26.9358
 21
210.016
  0
LINE
  8
0
 10
26.9358
 20
210.016
 11
26.737
 21
210.18
  0
LINE
  8
0
 10
26.737
 20
210.18
 11
26.5319
 21
210.337
  0
LINE
  8
0
 10
26.5319
 20
210.337
 11
26.3208
 21
210.485
  0
LINE
  8
0
 10
26.3208
 20
210.485
 11
26.1038
 21
210.626
  0
LINE
  8
0
 10
26.1038
 20
210.626
 11
25.8811
 21
210.758
  0
LINE
  8
0
 10
25.8811
 20
210.758
 11
25.653
 21
210.882
  0
LINE
  8
0
 10
25.653
 20
210.882
 11
25.4196
 21
210.998
  0
LINE
  8
0
 10
25.4196
 20
210.998
 11
25.1813
 21
211.104
  0
LINE
  8
0
 10
25.1813
 20
211.104
 11
24.9382
 21
211.201
  0
LINE
  8
0
 10
24.9382
 20
211.201
 11
24.6905
 21
211.289
  0
LINE
  8
0
 10
24.6905
 20
211.289
 11
24.4384
 21
211.367
  0
LINE
  8
0
 10
24.4384
 20
211.367
 11
24.1822
 21
211.436
  0
LINE
  8
0
 10
24.1822
 20
211.436
 11
23.9221
 21
211.495
  0
LINE
  8
0
 10
23.9221
 20
211.495
 11
23.6583
 21
211.543
  0
LINE
  8
0
 10
23.6583
 20
211.543
 11
23.391
 21
211.581
  0
LINE
  8
0
 10
23.391
 20
211.581
 11
23.1204
 21
211.609
  0
LINE
  8
0
 10
23.1204
 20
211.609
 11
22.8467
 21
211.625
  0
LINE
  8
0
 10
22.8467
 20
211.625
 11
22.5702
 21
211.631
  0
LINE
  8
0
 10
22.5702
 20
211.631
 11
22.5635
 21
211.631
  0
LINE
  8
0
 10
22.5635
 20
211.631
 11
22.0137
 21
211.608
  0
LINE
  8
0
 10
22.0137
 20
211.608
 11
21.4762
 21
211.542
  0
LINE
  8
0
 10
21.4762
 20
211.542
 11
20.9527
 21
211.435
  0
LINE
  8
0
 10
20.9527
 20
211.435
 11
20.4449
 21
211.287
  0
LINE
  8
0
 10
20.4449
 20
211.287
 11
19.9545
 21
211.102
  0
LINE
  8
0
 10
19.9545
 20
211.102
 11
19.4833
 21
210.88
  0
LINE
  8
0
 10
19.4833
 20
210.88
 11
19.033
 21
210.624
  0
LINE
  8
0
 10
19.033
 20
210.624
 11
18.6052
 21
210.334
  0
LINE
  8
0
 10
18.6052
 20
210.334
 11
18.2018
 21
210.014
  0
LINE
  8
0
 10
18.2018
 20
210.014
 11
17.8244
 21
209.664
  0
LINE
  8
0
 10
17.8244
 20
209.664
 11
17.4749
 21
209.286
  0
LINE
  8
0
 10
17.4749
 20
209.286
 11
17.1547
 21
208.882
  0
LINE
  8
0
 10
17.1547
 20
208.882
 11
16.8658
 21
208.454
  0
LINE
  8
0
 10
16.8658
 20
208.454
 11
16.6099
 21
208.004
  0
LINE
  8
0
 10
16.6099
 20
208.004
 11
16.3885
 21
207.532
  0
LINE
  8
0
 10
16.3885
 20
207.532
 11
16.2036
 21
207.042
  0
LINE
  8
0
 10
16.2036
 20
207.042
 11
16.0568
 21
206.534
  0
LINE
  8
0
 10
16.0568
 20
206.534
 11
15.9498
 21
206.01
  0
LINE
  8
0
 10
15.9498
 20
206.01
 11
15.8843
 21
205.473
  0
LINE
  8
0
 10
15.8843
 20
205.473
 11
15.8621
 21
204.923
  0
LINE
  8
0
 10
15.8621
 20
204.923
 11
15.8843
 21
204.373
  0
LINE
  8
0
 10
15.8843
 20
204.373
 11
15.9499
 21
203.835
  0
LINE
  8
0
 10
15.9499
 20
203.835
 11
16.057
 21
203.311
  0
LINE
  8
0
 10
16.057
 20
203.311
 11
16.2041
 21
202.803
  0
LINE
  8
0
 10
16.2041
 20
202.803
 11
16.3892
 21
202.312
  0
LINE
  8
0
 10
16.3892
 20
202.312
 11
16.6108
 21
201.84
  0
LINE
  8
0
 10
16.6108
 20
201.84
 11
16.8671
 21
201.389
  0
LINE
  8
0
 10
16.8671
 20
201.389
 11
17.1563
 21
200.961
  0
LINE
  8
0
 10
17.1563
 20
200.961
 11
17.4768
 21
200.557
  0
LINE
  8
0
 10
17.4768
 20
200.557
 11
17.8268
 21
200.18
  0
LINE
  8
0
 10
17.8268
 20
200.18
 11
18.2046
 21
199.83
  0
LINE
  8
0
 10
18.2046
 20
199.83
 11
18.6085
 21
199.509
  0
LINE
  8
0
 10
18.6085
 20
199.509
 11
19.0366
 21
199.22
  0
LINE
  8
0
 10
19.0366
 20
199.22
 11
19.4874
 21
198.964
  0
LINE
  8
0
 10
19.4874
 20
198.964
 11
19.9591
 21
198.742
  0
LINE
  8
0
 10
19.9591
 20
198.742
 11
20.4499
 21
198.557
  0
LINE
  8
0
 10
20.4499
 20
198.557
 11
20.9581
 21
198.41
  0
LINE
  8
0
 10
20.9581
 20
198.41
 11
21.4821
 21
198.303
  0
LINE
  8
0
 10
21.4821
 20
198.303
 11
22.02
 21
198.237
  0
LINE
  8
0
 10
22.02
 20
198.237
 11
22.2732
 21
198.227
  0
LINE
  8
0
 10
22.2732
 20
198.227
 11
22.2732
 21
188.204
  0
LINE
  8
0
 10
22.2732
 20
188.204
 11
24.5103
 21
188.204
  0
LINE
  8
0
 10
24.5103
 20
188.204
 11
24.5103
 21
193.511
  0
LINE
  8
0
 10
73.7229
 20
207.5
 11
73.8577
 21
207.525
  0
LINE
  8
0
 10
73.8577
 20
207.525
 11
73.9532
 21
207.532
  0
LINE
  8
0
 10
73.9532
 20
207.532
 11
74.1388
 21
207.577
  0
LINE
  8
0
 10
74.1388
 20
207.577
 11
74.5234
 21
207.648
  0
LINE
  8
0
 10
74.5234
 20
207.648
 11
74.807
 21
207.737
  0
LINE
  8
0
 10
74.807
 20
207.737
 11
74.9767
 21
207.778
  0
LINE
  8
0
 10
74.9767
 20
207.778
 11
75.1031
 21
207.83
  0
LINE
  8
0
 10
75.1031
 20
207.83
 11
75.3
 21
207.892
  0
LINE
  8
0
 10
75.3
 20
207.892
 11
75.7955
 21
208.117
  0
LINE
  8
0
 10
75.7955
 20
208.117
 11
75.9492
 21
208.181
  0
LINE
  8
0
 10
75.9492
 20
208.181
 11
75.9876
 21
208.204
  0
LINE
  8
0
 10
75.9876
 20
208.204
 11
76.0414
 21
208.229
  0
LINE
  8
0
 10
76.0414
 20
208.229
 11
76.7365
 21
208.652
  0
LINE
  8
0
 10
76.7365
 20
208.652
 11
76.7968
 21
208.7
  0
LINE
  8
0
 10
76.7968
 20
208.7
 11
76.8467
 21
208.731
  0
LINE
  8
0
 10
76.8467
 20
208.731
 11
76.9864
 21
208.85
  0
LINE
  8
0
 10
76.9864
 20
208.85
 11
77.3751
 21
209.157
  0
LINE
  8
0
 10
77.3751
 20
209.157
 11
77.3751
 21
209.182
  0
LINE
  8
0
 10
77.3751
 20
209.182
 11
77.6471
 21
209.414
  0
LINE
  8
0
 10
77.6471
 20
209.414
 11
78.3307
 21
210.215
  0
LINE
  8
0
 10
78.3307
 20
210.215
 11
78.8808
 21
211.112
  0
LINE
  8
0
 10
78.8808
 20
211.112
 11
79.2836
 21
212.085
  0
LINE
  8
0
 10
79.2836
 20
212.085
 11
79.5293
 21
213.108
  0
LINE
  8
0
 10
79.5293
 20
213.108
 11
79.6119
 21
214.158
  0
LINE
  8
0
 10
79.6119
 20
214.158
 11
79.5293
 21
215.207
  0
LINE
  8
0
 10
79.5293
 20
215.207
 11
79.2836
 21
216.231
  0
LINE
  8
0
 10
79.2836
 20
216.231
 11
78.8808
 21
217.203
  0
LINE
  8
0
 10
78.8808
 20
217.203
 11
78.3307
 21
218.101
  0
LINE
  8
0
 10
78.3307
 20
218.101
 11
77.6471
 21
218.901
  0
LINE
  8
0
 10
77.6471
 20
218.901
 11
76.8467
 21
219.585
  0
LINE
  8
0
 10
76.8467
 20
219.585
 11
75.9492
 21
220.135
  0
LINE
  8
0
 10
75.9492
 20
220.135
 11
74.9767
 21
220.537
  0
LINE
  8
0
 10
74.9767
 20
220.537
 11
73.9532
 21
220.783
  0
LINE
  8
0
 10
73.9532
 20
220.783
 11
72.9038
 21
220.866
  0
LINE
  8
0
 10
72.9038
 20
220.866
 11
71.8544
 21
220.783
  0
LINE
  8
0
 10
71.8544
 20
220.783
 11
70.8309
 21
220.537
  0
LINE
  8
0
 10
70.8309
 20
220.537
 11
69.8584
 21
220.135
  0
LINE
  8
0
 10
69.8584
 20
220.135
 11
68.9609
 21
219.585
  0
LINE
  8
0
 10
68.9609
 20
219.585
 11
68.1604
 21
218.901
  0
LINE
  8
0
 10
68.1604
 20
218.901
 11
67.4768
 21
218.101
  0
LINE
  8
0
 10
67.4768
 20
218.101
 11
66.9268
 21
217.203
  0
LINE
  8
0
 10
66.9268
 20
217.203
 11
66.524
 21
216.231
  0
LINE
  8
0
 10
66.524
 20
216.231
 11
66.2783
 21
215.207
  0
LINE
  8
0
 10
66.2783
 20
215.207
 11
66.1957
 21
214.158
  0
LINE
  8
0
 10
66.1957
 20
214.158
 11
66.2783
 21
213.108
  0
LINE
  8
0
 10
66.2783
 20
213.108
 11
66.524
 21
212.085
  0
LINE
  8
0
 10
66.524
 20
212.085
 11
66.9268
 21
211.112
  0
LINE
  8
0
 10
66.9268
 20
211.112
 11
67.4768
 21
210.215
  0
LINE
  8
0
 10
67.4768
 20
210.215
 11
68.1604
 21
209.414
  0
LINE
  8
0
 10
68.1604
 20
209.414
 11
68.4325
 21
209.182
  0
LINE
  8
0
 10
68.4325
 20
209.182
 11
68.4325
 21
209.157
  0
LINE
  8
0
 10
68.4325
 20
209.157
 11
68.8192
 21
208.852
  0
LINE
  8
0
 10
68.8192
 20
208.852
 11
68.9609
 21
208.731
  0
LINE
  8
0
 10
68.9609
 20
208.731
 11
69.0116
 21
208.7
  0
LINE
  8
0
 10
69.0116
 20
208.7
 11
69.072
 21
208.652
  0
LINE
  8
0
 10
69.072
 20
208.652
 11
69.7681
 21
208.228
  0
LINE
  8
0
 10
69.7681
 20
208.228
 11
69.8204
 21
208.204
  0
LINE
  8
0
 10
69.8204
 20
208.204
 11
69.8584
 21
208.181
  0
LINE
  8
0
 10
69.8584
 20
208.181
 11
70.0127
 21
208.117
  0
LINE
  8
0
 10
70.0127
 20
208.117
 11
70.5106
 21
207.891
  0
LINE
  8
0
 10
70.5106
 20
207.891
 11
70.7048
 21
207.83
  0
LINE
  8
0
 10
70.7048
 20
207.83
 11
70.8309
 21
207.778
  0
LINE
  8
0
 10
70.8309
 20
207.778
 11
71.0025
 21
207.737
  0
LINE
  8
0
 10
71.0025
 20
207.737
 11
71.2883
 21
207.647
  0
LINE
  8
0
 10
71.2883
 20
207.647
 11
71.6679
 21
207.577
  0
LINE
  8
0
 10
71.6679
 20
207.577
 11
71.8544
 21
207.532
  0
LINE
  8
0
 10
71.8544
 20
207.532
 11
71.9522
 21
207.524
  0
LINE
  8
0
 10
71.9522
 20
207.524
 11
72.0899
 21
207.499
  0
LINE
  8
0
 10
72.0899
 20
207.499
 11
72.9036
 21
207.449
  0
LINE
  8
0
 10
72.9036
 20
207.449
 11
72.9103
 21
207.449
  0
LINE
  8
0
 10
72.9103
 20
207.449
 11
73.7229
 21
207.5
  0
LINE
  8
0
 10
88.2002
 20
207.532
 11
89.2237
 21
207.778
  0
LINE
  8
0
 10
89.2237
 20
207.778
 11
90.1962
 21
208.181
  0
LINE
  8
0
 10
90.1962
 20
208.181
 11
91.0937
 21
208.731
  0
LINE
  8
0
 10
91.0937
 20
208.731
 11
91.7015
 21
209.25
  0
LINE
  8
0
 10
91.7015
 20
209.25
 11
91.7236
 21
209.25
  0
LINE
  8
0
 10
91.7236
 20
209.25
 11
91.8174
 21
209.349
  0
LINE
  8
0
 10
91.8174
 20
209.349
 11
91.8941
 21
209.414
  0
LINE
  8
0
 10
91.8941
 20
209.414
 11
92.0271
 21
209.57
  0
LINE
  8
0
 10
92.0271
 20
209.57
 11
92.2955
 21
209.853
  0
LINE
  8
0
 10
92.2955
 20
209.853
 11
92.4616
 21
210.079
  0
LINE
  8
0
 10
92.4616
 20
210.079
 11
92.5778
 21
210.215
  0
LINE
  8
0
 10
92.5778
 20
210.215
 11
92.6572
 21
210.344
  0
LINE
  8
0
 10
92.6572
 20
210.344
 11
92.7883
 21
210.522
  0
LINE
  8
0
 10
92.7883
 20
210.522
 11
93.0231
 21
210.941
  0
LINE
  8
0
 10
93.0231
 20
210.941
 11
93.1278
 21
211.112
  0
LINE
  8
0
 10
93.1278
 20
211.112
 11
93.1532
 21
211.174
  0
LINE
  8
0
 10
93.1532
 20
211.174
 11
93.1946
 21
211.248
  0
LINE
  8
0
 10
93.1946
 20
211.248
 11
93.5081
 21
212.017
  0
LINE
  8
0
 10
93.5081
 20
212.017
 11
93.5181
 21
212.055
  0
LINE
  8
0
 10
93.5181
 20
212.055
 11
93.5306
 21
212.085
  0
LINE
  8
0
 10
93.5306
 20
212.085
 11
93.567
 21
212.236
  0
LINE
  8
0
 10
93.567
 20
212.236
 11
93.724
 21
212.82
  0
LINE
  8
0
 10
93.724
 20
212.82
 11
93.7071
 21
212.82
  0
LINE
  8
0
 10
93.7071
 20
212.82
 11
93.7763
 21
213.108
  0
LINE
  8
0
 10
93.7763
 20
213.108
 11
93.8589
 21
214.158
  0
LINE
  8
0
 10
93.8589
 20
214.158
 11
93.7763
 21
215.207
  0
LINE
  8
0
 10
93.7763
 20
215.207
 11
93.5306
 21
216.231
  0
LINE
  8
0
 10
93.5306
 20
216.231
 11
93.1278
 21
217.203
  0
LINE
  8
0
 10
93.1278
 20
217.203
 11
92.5778
 21
218.101
  0
LINE
  8
0
 10
92.5778
 20
218.101
 11
91.8941
 21
218.901
  0
LINE
  8
0
 10
91.8941
 20
218.901
 11
91.0937
 21
219.585
  0
LINE
  8
0
 10
91.0937
 20
219.585
 11
90.1962
 21
220.135
  0
LINE
  8
0
 10
90.1962
 20
220.135
 11
89.2237
 21
220.537
  0
LINE
  8
0
 10
89.2237
 20
220.537
 11
88.2002
 21
220.783
  0
LINE
  8
0
 10
88.2002
 20
220.783
 11
87.1508
 21
220.866
  0
LINE
  8
0
 10
87.1508
 20
220.866
 11
86.1014
 21
220.783
  0
LINE
  8
0
 10
86.1014
 20
220.783
 11
85.0779
 21
220.537
  0
LINE
  8
0
 10
85.0779
 20
220.537
 11
84.1054
 21
220.135
  0
LINE
  8
0
 10
84.1054
 20
220.135
 11
83.2079
 21
219.585
  0
LINE
  8
0
 10
83.2079
 20
219.585
 11
82.4075
 21
218.901
  0
LINE
  8
0
 10
82.4075
 20
218.901
 11
81.7238
 21
218.101
  0
LINE
  8
0
 10
81.7238
 20
218.101
 11
81.1738
 21
217.203
  0
LINE
  8
0
 10
81.1738
 20
217.203
 11
80.771
 21
216.231
  0
LINE
  8
0
 10
80.771
 20
216.231
 11
80.5253
 21
215.207
  0
LINE
  8
0
 10
80.5253
 20
215.207
 11
80.4427
 21
214.158
  0
LINE
  8
0
 10
80.4427
 20
214.158
 11
80.5253
 21
213.108
  0
LINE
  8
0
 10
80.5253
 20
213.108
 11
80.771
 21
212.085
  0
LINE
  8
0
 10
80.771
 20
212.085
 11
81.1738
 21
211.112
  0
LINE
  8
0
 10
81.1738
 20
211.112
 11
81.7238
 21
210.215
  0
LINE
  8
0
 10
81.7238
 20
210.215
 11
82.4075
 21
209.414
  0
LINE
  8
0
 10
82.4075
 20
209.414
 11
83.2079
 21
208.731
  0
LINE
  8
0
 10
83.2079
 20
208.731
 11
84.1054
 21
208.181
  0
LINE
  8
0
 10
84.1054
 20
208.181
 11
85.0779
 21
207.778
  0
LINE
  8
0
 10
85.0779
 20
207.778
 11
86.1014
 21
207.532
  0
LINE
  8
0
 10
86.1014
 20
207.532
 11
87.1508
 21
207.45
  0
LINE
  8
0
 10
87.1508
 20
207.45
 11
88.2002
 21
207.532
  0
LINE
  8
0
 10
59.2069
 20
207.254
 11
59.7448
 21
207.319
  0
LINE
  8
0
 10
59.7448
 20
207.319
 11
60.2688
 21
207.426
  0
LINE
  8
0
 10
60.2688
 20
207.426
 11
60.777
 21
207.573
  0
LINE
  8
0
 10
60.777
 20
207.573
 11
61.2678
 21
207.758
  0
LINE
  8
0
 10
61.2678
 20
207.758
 11
61.7395
 21
207.98
  0
LINE
  8
0
 10
61.7395
 20
207.98
 11
62.1903
 21
208.236
  0
LINE
  8
0
 10
62.1903
 20
208.236
 11
62.6185
 21
208.526
  0
LINE
  8
0
 10
62.6185
 20
208.526
 11
63.0223
 21
208.846
  0
LINE
  8
0
 10
63.0223
 20
208.846
 11
63.4001
 21
209.196
  0
LINE
  8
0
 10
63.4001
 20
209.196
 11
63.7501
 21
209.574
  0
LINE
  8
0
 10
63.7501
 20
209.574
 11
64.0706
 21
209.978
  0
LINE
  8
0
 10
64.0706
 20
209.978
 11
64.3598
 21
210.406
  0
LINE
  8
0
 10
64.3598
 20
210.406
 11
64.6161
 21
210.857
  0
LINE
  8
0
 10
64.6161
 20
210.857
 11
64.8377
 21
211.328
  0
LINE
  8
0
 10
64.8377
 20
211.328
 11
65.0229
 21
211.819
  0
LINE
  8
0
 10
65.0229
 20
211.819
 11
65.1699
 21
212.327
  0
LINE
  8
0
 10
65.1699
 20
212.327
 11
65.2771
 21
212.851
  0
LINE
  8
0
 10
65.2771
 20
212.851
 11
65.3426
 21
213.389
  0
LINE
  8
0
 10
65.3426
 20
213.389
 11
65.3649
 21
213.939
  0
LINE
  8
0
 10
65.3649
 20
213.939
 11
65.3426
 21
214.49
  0
LINE
  8
0
 10
65.3426
 20
214.49
 11
65.2771
 21
215.028
  0
LINE
  8
0
 10
65.2771
 20
215.028
 11
65.1699
 21
215.551
  0
LINE
  8
0
 10
65.1699
 20
215.551
 11
65.0229
 21
216.06
  0
LINE
  8
0
 10
65.0229
 20
216.06
 11
64.8377
 21
216.551
  0
LINE
  8
0
 10
64.8377
 20
216.551
 11
64.6161
 21
217.022
  0
LINE
  8
0
 10
64.6161
 20
217.022
 11
64.3598
 21
217.473
  0
LINE
  8
0
 10
64.3598
 20
217.473
 11
64.0706
 21
217.901
  0
LINE
  8
0
 10
64.0706
 20
217.901
 11
63.7501
 21
218.305
  0
LINE
  8
0
 10
63.7501
 20
218.305
 11
63.4001
 21
218.683
  0
LINE
  8
0
 10
63.4001
 20
218.683
 11
63.0223
 21
219.033
  0
LINE
  8
0
 10
63.0223
 20
219.033
 11
62.6185
 21
219.353
  0
LINE
  8
0
 10
62.6185
 20
219.353
 11
62.1903
 21
219.643
  0
LINE
  8
0
 10
62.1903
 20
219.643
 11
61.7395
 21
219.899
  0
LINE
  8
0
 10
61.7395
 20
219.899
 11
61.2678
 21
220.12
  0
LINE
  8
0
 10
61.2678
 20
220.12
 11
60.777
 21
220.306
  0
LINE
  8
0
 10
60.777
 20
220.306
 11
60.2688
 21
220.453
  0
LINE
  8
0
 10
60.2688
 20
220.453
 11
59.7448
 21
220.56
  0
LINE
  8
0
 10
59.7448
 20
220.56
 11
59.2069
 21
220.625
  0
LINE
  8
0
 10
59.2069
 20
220.625
 11
58.6567
 21
220.648
  0
LINE
  8
0
 10
58.6567
 20
220.648
 11
58.65
 21
220.648
  0
LINE
  8
0
 10
58.65
 20
220.648
 11
58.1003
 21
220.625
  0
LINE
  8
0
 10
58.1003
 20
220.625
 11
57.5628
 21
220.559
  0
LINE
  8
0
 10
57.5628
 20
220.559
 11
57.0392
 21
220.451
  0
LINE
  8
0
 10
57.0392
 20
220.451
 11
56.5314
 21
220.304
  0
LINE
  8
0
 10
56.5314
 20
220.304
 11
56.0411
 21
220.118
  0
LINE
  8
0
 10
56.0411
 20
220.118
 11
55.5699
 21
219.897
  0
LINE
  8
0
 10
55.5699
 20
219.897
 11
55.1195
 21
219.64
  0
LINE
  8
0
 10
55.1195
 20
219.64
 11
54.6918
 21
219.351
  0
LINE
  8
0
 10
54.6918
 20
219.351
 11
54.2884
 21
219.03
  0
LINE
  8
0
 10
54.2884
 20
219.03
 11
53.911
 21
218.68
  0
LINE
  8
0
 10
53.911
 20
218.68
 11
53.5614
 21
218.303
  0
LINE
  8
0
 10
53.5614
 20
218.303
 11
53.2413
 21
217.899
  0
LINE
  8
0
 10
53.2413
 20
217.899
 11
52.9524
 21
217.471
  0
LINE
  8
0
 10
52.9524
 20
217.471
 11
52.6964
 21
217.02
  0
LINE
  8
0
 10
52.6964
 20
217.02
 11
52.4751
 21
216.549
  0
LINE
  8
0
 10
52.4751
 20
216.549
 11
52.2902
 21
216.058
  0
LINE
  8
0
 10
52.2902
 20
216.058
 11
52.1433
 21
215.55
  0
LINE
  8
0
 10
52.1433
 20
215.55
 11
52.0363
 21
215.027
  0
LINE
  8
0
 10
52.0363
 20
215.027
 11
51.9708
 21
214.489
  0
LINE
  8
0
 10
51.9708
 20
214.489
 11
51.9486
 21
213.939
  0
LINE
  8
0
 10
51.9486
 20
213.939
 11
51.9709
 21
213.389
  0
LINE
  8
0
 10
51.9709
 20
213.389
 11
52.0364
 21
212.851
  0
LINE
  8
0
 10
52.0364
 20
212.851
 11
52.1436
 21
212.327
  0
LINE
  8
0
 10
52.1436
 20
212.327
 11
52.2906
 21
211.819
  0
LINE
  8
0
 10
52.2906
 20
211.819
 11
52.4758
 21
211.328
  0
LINE
  8
0
 10
52.4758
 20
211.328
 11
52.6974
 21
210.857
  0
LINE
  8
0
 10
52.6974
 20
210.857
 11
52.9536
 21
210.406
  0
LINE
  8
0
 10
52.9536
 20
210.406
 11
53.2429
 21
209.978
  0
LINE
  8
0
 10
53.2429
 20
209.978
 11
53.5634
 21
209.574
  0
LINE
  8
0
 10
53.5634
 20
209.574
 11
53.9134
 21
209.196
  0
LINE
  8
0
 10
53.9134
 20
209.196
 11
54.2912
 21
208.846
  0
LINE
  8
0
 10
54.2912
 20
208.846
 11
54.695
 21
208.526
  0
LINE
  8
0
 10
54.695
 20
208.526
 11
55.1232
 21
208.236
  0
LINE
  8
0
 10
55.1232
 20
208.236
 11
55.574
 21
207.98
  0
LINE
  8
0
 10
55.574
 20
207.98
 11
56.0456
 21
207.758
  0
LINE
  8
0
 10
56.0456
 20
207.758
 11
56.5365
 21
207.573
  0
LINE
  8
0
 10
56.5365
 20
207.573
 11
57.0447
 21
207.426
  0
LINE
  8
0
 10
57.0447
 20
207.426
 11
57.5686
 21
207.319
  0
LINE
  8
0
 10
57.5686
 20
207.319
 11
58.1066
 21
207.254
  0
LINE
  8
0
 10
58.1066
 20
207.254
 11
58.6567
 21
207.231
  0
LINE
  8
0
 10
58.6567
 20
207.231
 11
59.2069
 21
207.254
  0
LINE
  8
0
 10
67.4729
 20
188.008
 11
68.0108
 21
188.073
  0
LINE
  8
0
 10
68.0108
 20
188.073
 11
68.5348
 21
188.18
  0
LINE
  8
0
 10
68.5348
 20
188.18
 11
69.043
 21
188.327
  0
LINE
  8
0
 10
69.043
 20
188.327
 11
69.5339
 21
188.513
  0
LINE
  8
0
 10
69.5339
 20
188.513
 11
70.0055
 21
188.734
  0
LINE
  8
0
 10
70.0055
 20
188.734
 11
70.4563
 21
188.991
  0
LINE
  8
0
 10
70.4563
 20
188.991
 11
70.8845
 21
189.28
  0
LINE
  8
0
 10
70.8845
 20
189.28
 11
71.2883
 21
189.6
  0
LINE
  8
0
 10
71.2883
 20
189.6
 11
71.6661
 21
189.95
  0
LINE
  8
0
 10
71.6661
 20
189.95
 11
72.0161
 21
190.328
  0
LINE
  8
0
 10
72.0161
 20
190.328
 11
72.3366
 21
190.732
  0
LINE
  8
0
 10
72.3366
 20
190.732
 11
72.6259
 21
191.16
  0
LINE
  8
0
 10
72.6259
 20
191.16
 11
72.8821
 21
191.611
  0
LINE
  8
0
 10
72.8821
 20
191.611
 11
73.1037
 21
192.083
  0
LINE
  8
0
 10
73.1037
 20
192.083
 11
73.2889
 21
192.573
  0
LINE
  8
0
 10
73.2889
 20
192.573
 11
73.4359
 21
193.082
  0
LINE
  8
0
 10
73.4359
 20
193.082
 11
73.5431
 21
193.606
  0
LINE
  8
0
 10
73.5431
 20
193.606
 11
73.6086
 21
194.143
  0
LINE
  8
0
 10
73.6086
 20
194.143
 11
73.6309
 21
194.694
  0
LINE
  8
0
 10
73.6309
 20
194.694
 11
73.6309
 21
205.22
  0
LINE
  8
0
 10
73.6309
 20
205.22
 11
71.3943
 21
205.22
  0
LINE
  8
0
 10
71.3943
 20
205.22
 11
71.3943
 21
199.693
  0
LINE
  8
0
 10
71.3943
 20
199.693
 11
71.2135
 21
199.849
  0
LINE
  8
0
 10
71.2135
 20
199.849
 11
71.0271
 21
199.999
  0
LINE
  8
0
 10
71.0271
 20
199.999
 11
70.8354
 21
200.142
  0
LINE
  8
0
 10
70.8354
 20
200.142
 11
70.6385
 21
200.278
  0
LINE
  8
0
 10
70.6385
 20
200.278
 11
70.4366
 21
200.408
  0
LINE
  8
0
 10
70.4366
 20
200.408
 11
70.2298
 21
200.53
  0
LINE
  8
0
 10
70.2298
 20
200.53
 11
70.0184
 21
200.646
  0
LINE
  8
0
 10
70.0184
 20
200.646
 11
69.8025
 21
200.753
  0
LINE
  8
0
 10
69.8025
 20
200.753
 11
69.5822
 21
200.853
  0
LINE
  8
0
 10
69.5822
 20
200.853
 11
69.3578
 21
200.946
  0
LINE
  8
0
 10
69.3578
 20
200.946
 11
69.1294
 21
201.03
  0
LINE
  8
0
 10
69.1294
 20
201.03
 11
68.8972
 21
201.106
  0
LINE
  8
0
 10
68.8972
 20
201.106
 11
68.6614
 21
201.174
  0
LINE
  8
0
 10
68.6614
 20
201.174
 11
68.422
 21
201.233
  0
LINE
  8
0
 10
68.422
 20
201.233
 11
68.1794
 21
201.284
  0
LINE
  8
0
 10
68.1794
 20
201.284
 11
67.9337
 21
201.326
  0
LINE
  8
0
 10
67.9337
 20
201.326
 11
67.6849
 21
201.359
  0
LINE
  8
0
 10
67.6849
 20
201.359
 11
67.4334
 21
201.383
  0
LINE
  8
0
 10
67.4334
 20
201.383
 11
67.1793
 21
201.397
  0
LINE
  8
0
 10
67.1793
 20
201.397
 11
66.9228
 21
201.402
  0
LINE
  8
0
 10
66.9228
 20
201.402
 11
66.916
 21
201.402
  0
LINE
  8
0
 10
66.916
 20
201.402
 11
66.3663
 21
201.379
  0
LINE
  8
0
 10
66.3663
 20
201.379
 11
65.8288
 21
201.313
  0
LINE
  8
0
 10
65.8288
 20
201.313
 11
65.3053
 21
201.205
  0
LINE
  8
0
 10
65.3053
 20
201.205
 11
64.7975
 21
201.058
  0
LINE
  8
0
 10
64.7975
 20
201.058
 11
64.3071
 21
200.873
  0
LINE
  8
0
 10
64.3071
 20
200.873
 11
63.8359
 21
200.651
  0
LINE
  8
0
 10
63.8359
 20
200.651
 11
63.3855
 21
200.394
  0
LINE
  8
0
 10
63.3855
 20
200.394
 11
62.9578
 21
200.105
  0
LINE
  8
0
 10
62.9578
 20
200.105
 11
62.5544
 21
199.785
  0
LINE
  8
0
 10
62.5544
 20
199.785
 11
62.177
 21
199.435
  0
LINE
  8
0
 10
62.177
 20
199.435
 11
61.8274
 21
199.057
  0
LINE
  8
0
 10
61.8274
 20
199.057
 11
61.5073
 21
198.653
  0
LINE
  8
0
 10
61.5073
 20
198.653
 11
61.2184
 21
198.225
  0
LINE
  8
0
 10
61.2184
 20
198.225
 11
60.9624
 21
197.775
  0
LINE
  8
0
 10
60.9624
 20
197.775
 11
60.7411
 21
197.303
  0
LINE
  8
0
 10
60.7411
 20
197.303
 11
60.5562
 21
196.813
  0
LINE
  8
0
 10
60.5562
 20
196.813
 11
60.4093
 21
196.305
  0
LINE
  8
0
 10
60.4093
 20
196.305
 11
60.3023
 21
195.781
  0
LINE
  8
0
 10
60.3023
 20
195.781
 11
60.2368
 21
195.243
  0
LINE
  8
0
 10
60.2368
 20
195.243
 11
60.2146
 21
194.694
  0
LINE
  8
0
 10
60.2146
 20
194.694
 11
60.2369
 21
194.143
  0
LINE
  8
0
 10
60.2369
 20
194.143
 11
60.3024
 21
193.606
  0
LINE
  8
0
 10
60.3024
 20
193.606
 11
60.4096
 21
193.082
  0
LINE
  8
0
 10
60.4096
 20
193.082
 11
60.5566
 21
192.573
  0
LINE
  8
0
 10
60.5566
 20
192.573
 11
60.7418
 21
192.083
  0
LINE
  8
0
 10
60.7418
 20
192.083
 11
60.9634
 21
191.611
  0
LINE
  8
0
 10
60.9634
 20
191.611
 11
61.2197
 21
191.16
  0
LINE
  8
0
 10
61.2197
 20
191.16
 11
61.5089
 21
190.732
  0
LINE
  8
0
 10
61.5089
 20
190.732
 11
61.8294
 21
190.328
  0
LINE
  8
0
 10
61.8294
 20
190.328
 11
62.1794
 21
189.95
  0
LINE
  8
0
 10
62.1794
 20
189.95
 11
62.5572
 21
189.6
  0
LINE
  8
0
 10
62.5572
 20
189.6
 11
62.961
 21
189.28
  0
LINE
  8
0
 10
62.961
 20
189.28
 11
63.3892
 21
188.991
  0
LINE
  8
0
 10
63.3892
 20
188.991
 11
63.84
 21
188.734
  0
LINE
  8
0
 10
63.84
 20
188.734
 11
64.3117
 21
188.513
  0
LINE
  8
0
 10
64.3117
 20
188.513
 11
64.8025
 21
188.327
  0
LINE
  8
0
 10
64.8025
 20
188.327
 11
65.3107
 21
188.18
  0
LINE
  8
0
 10
65.3107
 20
188.18
 11
65.8347
 21
188.073
  0
LINE
  8
0
 10
65.8347
 20
188.073
 11
66.3726
 21
188.008
  0
LINE
  8
0
 10
66.3726
 20
188.008
 11
66.9228
 21
187.986
  0
LINE
  8
0
 10
66.9228
 20
187.986
 11
67.4729
 21
188.008
  0
LINE
  8
0
 10
115.277
 20
201.402
 11
115.277
 21
201.402
  0
LINE
  8
0
 10
115.277
 20
201.402
 11
115.277
 21
205.22
  0
LINE
  8
0
 10
115.277
 20
205.22
 11
113.04
 21
205.22
  0
LINE
  8
0
 10
113.04
 20
205.22
 11
113.04
 21
194.694
  0
LINE
  8
0
 10
113.04
 20
194.694
 11
113.04
 21
194.687
  0
LINE
  8
0
 10
113.04
 20
194.687
 11
113.04
 21
190.222
  0
LINE
  8
0
 10
113.04
 20
190.222
 11
113.074
 21
189.834
  0
LINE
  8
0
 10
113.074
 20
189.834
 11
113.175
 21
189.457
  0
LINE
  8
0
 10
113.175
 20
189.457
 11
113.34
 21
189.104
  0
LINE
  8
0
 10
113.34
 20
189.104
 11
113.563
 21
188.784
  0
LINE
  8
0
 10
113.563
 20
188.784
 11
113.839
 21
188.509
  0
LINE
  8
0
 10
113.839
 20
188.509
 11
114.158
 21
188.285
  0
LINE
  8
0
 10
114.158
 20
188.285
 11
114.512
 21
188.12
  0
LINE
  8
0
 10
114.512
 20
188.12
 11
114.888
 21
188.019
  0
LINE
  8
0
 10
114.888
 20
188.019
 11
115.277
 21
187.985
  0
LINE
  8
0
 10
115.277
 20
187.985
 11
115.277
 21
201.402
  0
LINE
  8
0
 10
111.573
 20
201.402
 11
107.101
 21
201.402
  0
LINE
  8
0
 10
107.101
 20
201.402
 11
107.101
 21
205.22
  0
LINE
  8
0
 10
107.101
 20
205.22
 11
104.865
 21
205.22
  0
LINE
  8
0
 10
104.865
 20
205.22
 11
104.865
 21
201.402
  0
LINE
  8
0
 10
104.865
 20
201.402
 11
102.628
 21
201.402
  0
LINE
  8
0
 10
102.628
 20
201.402
 11
102.628
 21
199.165
  0
LINE
  8
0
 10
102.628
 20
199.165
 11
104.865
 21
199.165
  0
LINE
  8
0
 10
104.865
 20
199.165
 11
104.865
 21
194.694
  0
LINE
  8
0
 10
104.865
 20
194.694
 11
104.887
 21
194.143
  0
LINE
  8
0
 10
104.887
 20
194.143
 11
104.953
 21
193.605
  0
LINE
  8
0
 10
104.953
 20
193.605
 11
105.06
 21
193.082
  0
LINE
  8
0
 10
105.06
 20
193.082
 11
105.207
 21
192.573
  0
LINE
  8
0
 10
105.207
 20
192.573
 11
105.392
 21
192.082
  0
LINE
  8
0
 10
105.392
 20
192.082
 11
105.614
 21
191.611
  0
LINE
  8
0
 10
105.614
 20
191.611
 11
105.87
 21
191.16
  0
LINE
  8
0
 10
105.87
 20
191.16
 11
106.159
 21
190.732
  0
LINE
  8
0
 10
106.159
 20
190.732
 11
106.48
 21
190.328
  0
LINE
  8
0
 10
106.48
 20
190.328
 11
106.83
 21
189.95
  0
LINE
  8
0
 10
106.83
 20
189.95
 11
107.207
 21
189.6
  0
LINE
  8
0
 10
107.207
 20
189.6
 11
107.611
 21
189.28
  0
LINE
  8
0
 10
107.611
 20
189.28
 11
108.039
 21
188.99
  0
LINE
  8
0
 10
108.039
 20
188.99
 11
108.49
 21
188.734
  0
LINE
  8
0
 10
108.49
 20
188.734
 11
108.962
 21
188.513
  0
LINE
  8
0
 10
108.962
 20
188.513
 11
109.453
 21
188.327
  0
LINE
  8
0
 10
109.453
 20
188.327
 11
109.961
 21
188.18
  0
LINE
  8
0
 10
109.961
 20
188.18
 11
110.485
 21
188.073
  0
LINE
  8
0
 10
110.485
 20
188.073
 11
111.023
 21
188.008
  0
LINE
  8
0
 10
111.023
 20
188.008
 11
111.573
 21
187.985
  0
LINE
  8
0
 10
111.573
 20
187.985
 11
111.573
 21
201.402
  0
LINE
  8
0
 10
82.8554
 20
188.068
 11
83.879
 21
188.314
  0
LINE
  8
0
 10
83.879
 20
188.314
 11
84.8515
 21
188.717
  0
LINE
  8
0
 10
84.8515
 20
188.717
 11
85.749
 21
189.267
  0
LINE
  8
0
 10
85.749
 20
189.267
 11
86.5494
 21
189.95
  0
LINE
  8
0
 10
86.5494
 20
189.95
 11
87.233
 21
190.751
  0
LINE
  8
0
 10
87.233
 20
190.751
 11
87.783
 21
191.648
  0
LINE
  8
0
 10
87.783
 20
191.648
 11
88.1858
 21
192.621
  0
LINE
  8
0
 10
88.1858
 20
192.621
 11
88.4316
 21
193.644
  0
LINE
  8
0
 10
88.4316
 20
193.644
 11
88.5141
 21
194.694
  0
LINE
  8
0
 10
88.5141
 20
194.694
 11
88.4316
 21
195.743
  0
LINE
  8
0
 10
88.4316
 20
195.743
 11
88.1858
 21
196.766
  0
LINE
  8
0
 10
88.1858
 20
196.766
 11
87.783
 21
197.739
  0
LINE
  8
0
 10
87.783
 20
197.739
 11
87.233
 21
198.636
  0
LINE
  8
0
 10
87.233
 20
198.636
 11
86.5494
 21
199.437
  0
LINE
  8
0
 10
86.5494
 20
199.437
 11
86.2777
 21
199.669
  0
LINE
  8
0
 10
86.2777
 20
199.669
 11
86.2777
 21
199.694
  0
LINE
  8
0
 10
86.2777
 20
199.694
 11
85.8853
 21
200.004
  0
LINE
  8
0
 10
85.8853
 20
200.004
 11
85.749
 21
200.121
  0
LINE
  8
0
 10
85.749
 20
200.121
 11
85.7003
 21
200.15
  0
LINE
  8
0
 10
85.7003
 20
200.15
 11
85.639
 21
200.199
  0
LINE
  8
0
 10
85.639
 20
200.199
 11
84.9439
 21
200.623
  0
LINE
  8
0
 10
84.9439
 20
200.623
 11
84.8889
 21
200.648
  0
LINE
  8
0
 10
84.8889
 20
200.648
 11
84.8515
 21
200.671
  0
LINE
  8
0
 10
84.8515
 20
200.671
 11
84.7013
 21
200.733
  0
LINE
  8
0
 10
84.7013
 20
200.733
 11
84.2026
 21
200.959
  0
LINE
  8
0
 10
84.2026
 20
200.959
 11
84.0045
 21
201.021
  0
LINE
  8
0
 10
84.0045
 20
201.021
 11
83.879
 21
201.073
  0
LINE
  8
0
 10
83.879
 20
201.073
 11
83.7104
 21
201.114
  0
LINE
  8
0
 10
83.7104
 20
201.114
 11
83.4259
 21
201.203
  0
LINE
  8
0
 10
83.4259
 20
201.203
 11
83.0401
 21
201.275
  0
LINE
  8
0
 10
83.0401
 20
201.275
 11
82.8554
 21
201.319
  0
LINE
  8
0
 10
82.8554
 20
201.319
 11
82.7604
 21
201.327
  0
LINE
  8
0
 10
82.7604
 20
201.327
 11
82.6254
 21
201.352
  0
LINE
  8
0
 10
82.6254
 20
201.352
 11
81.8129
 21
201.402
  0
LINE
  8
0
 10
81.8129
 20
201.402
 11
81.8058
 21
201.402
  0
LINE
  8
0
 10
81.8058
 20
201.402
 11
80.9922
 21
201.352
  0
LINE
  8
0
 10
80.9922
 20
201.352
 11
80.8545
 21
201.327
  0
LINE
  8
0
 10
80.8545
 20
201.327
 11
80.7567
 21
201.319
  0
LINE
  8
0
 10
80.7567
 20
201.319
 11
80.5702
 21
201.274
  0
LINE
  8
0
 10
80.5702
 20
201.274
 11
80.1906
 21
201.204
  0
LINE
  8
0
 10
80.1906
 20
201.204
 11
79.9047
 21
201.115
  0
LINE
  8
0
 10
79.9047
 20
201.115
 11
79.7331
 21
201.073
  0
LINE
  8
0
 10
79.7331
 20
201.073
 11
79.6071
 21
201.021
  0
LINE
  8
0
 10
79.6071
 20
201.021
 11
79.4128
 21
200.96
  0
LINE
  8
0
 10
79.4128
 20
200.96
 11
78.9149
 21
200.734
  0
LINE
  8
0
 10
78.9149
 20
200.734
 11
78.7606
 21
200.671
  0
LINE
  8
0
 10
78.7606
 20
200.671
 11
78.7227
 21
200.647
  0
LINE
  8
0
 10
78.7227
 20
200.647
 11
78.6704
 21
200.624
  0
LINE
  8
0
 10
78.6704
 20
200.624
 11
77.9743
 21
200.199
  0
LINE
  8
0
 10
77.9743
 20
200.199
 11
77.914
 21
200.152
  0
LINE
  8
0
 10
77.914
 20
200.152
 11
77.8631
 21
200.121
  0
LINE
  8
0
 10
77.8631
 20
200.121
 11
77.7213
 21
199.999
  0
LINE
  8
0
 10
77.7213
 20
199.999
 11
77.3348
 21
199.694
  0
LINE
  8
0
 10
77.3348
 20
199.694
 11
77.3348
 21
199.669
  0
LINE
  8
0
 10
77.3348
 20
199.669
 11
77.0627
 21
199.437
  0
LINE
  8
0
 10
77.0627
 20
199.437
 11
76.3791
 21
198.636
  0
LINE
  8
0
 10
76.3791
 20
198.636
 11
75.8291
 21
197.739
  0
LINE
  8
0
 10
75.8291
 20
197.739
 11
75.4263
 21
196.766
  0
LINE
  8
0
 10
75.4263
 20
196.766
 11
75.1805
 21
195.743
  0
LINE
  8
0
 10
75.1805
 20
195.743
 11
75.0979
 21
194.694
  0
LINE
  8
0
 10
75.0979
 20
194.694
 11
75.1805
 21
193.644
  0
LINE
  8
0
 10
75.1805
 20
193.644
 11
75.4263
 21
192.621
  0
LINE
  8
0
 10
75.4263
 20
192.621
 11
75.8291
 21
191.648
  0
LINE
  8
0
 10
75.8291
 20
191.648
 11
76.3791
 21
190.751
  0
LINE
  8
0
 10
76.3791
 20
190.751
 11
77.0627
 21
189.95
  0
LINE
  8
0
 10
77.0627
 20
189.95
 11
77.8631
 21
189.267
  0
LINE
  8
0
 10
77.8631
 20
189.267
 11
78.7606
 21
188.717
  0
LINE
  8
0
 10
78.7606
 20
188.717
 11
79.7331
 21
188.314
  0
LINE
  8
0
 10
79.7331
 20
188.314
 11
80.7567
 21
188.068
  0
LINE
  8
0
 10
80.7567
 20
188.068
 11
81.806
 21
187.985
  0
LINE
  8
0
 10
81.806
 20
187.985
 11
82.8554
 21
188.068
  0
LINE
  8
0
 10
139.154
 20
188.036
 11
139.289
 21
188.061
  0
LINE
  8
0
 10
139.289
 20
188.061
 11
139.384
 21
188.068
  0
LINE
  8
0
 10
139.384
 20
188.068
 11
139.569
 21
188.112
  0
LINE
  8
0
 10
139.569
 20
188.112
 11
139.955
 21
188.184
  0
LINE
  8
0
 10
139.955
 20
188.184
 11
140.239
 21
188.273
  0
LINE
  8
0
 10
140.239
 20
188.273
 11
140.408
 21
188.314
  0
LINE
  8
0
 10
140.408
 20
188.314
 11
140.533
 21
188.366
  0
LINE
  8
0
 10
140.533
 20
188.366
 11
140.731
 21
188.428
  0
LINE
  8
0
 10
140.731
 20
188.428
 11
141.23
 21
188.654
  0
LINE
  8
0
 10
141.23
 20
188.654
 11
141.38
 21
188.717
  0
LINE
  8
0
 10
141.38
 20
188.717
 11
141.418
 21
188.74
  0
LINE
  8
0
 10
141.418
 20
188.74
 11
141.473
 21
188.765
  0
LINE
  8
0
 10
141.473
 20
188.765
 11
142.168
 21
189.188
  0
LINE
  8
0
 10
142.168
 20
189.188
 11
142.229
 21
189.237
  0
LINE
  8
0
 10
142.229
 20
189.237
 11
142.278
 21
189.267
  0
LINE
  8
0
 10
142.278
 20
189.267
 11
142.414
 21
189.383
  0
LINE
  8
0
 10
142.414
 20
189.383
 11
142.806
 21
189.693
  0
LINE
  8
0
 10
142.806
 20
189.693
 11
142.806
 21
189.718
  0
LINE
  8
0
 10
142.806
 20
189.718
 11
143.078
 21
189.95
  0
LINE
  8
0
 10
143.078
 20
189.95
 11
143.762
 21
190.751
  0
LINE
  8
0
 10
143.762
 20
190.751
 11
144.312
 21
191.648
  0
LINE
  8
0
 10
144.312
 20
191.648
 11
144.715
 21
192.621
  0
LINE
  8
0
 10
144.715
 20
192.621
 11
144.96
 21
193.644
  0
LINE
  8
0
 10
144.96
 20
193.644
 11
145.043
 21
194.694
  0
LINE
  8
0
 10
145.043
 20
194.694
 11
144.96
 21
195.743
  0
LINE
  8
0
 10
144.96
 20
195.743
 11
144.715
 21
196.767
  0
LINE
  8
0
 10
144.715
 20
196.767
 11
144.312
 21
197.739
  0
LINE
  8
0
 10
144.312
 20
197.739
 11
143.762
 21
198.637
  0
LINE
  8
0
 10
143.762
 20
198.637
 11
143.078
 21
199.437
  0
LINE
  8
0
 10
143.078
 20
199.437
 11
142.278
 21
200.121
  0
LINE
  8
0
 10
142.278
 20
200.121
 11
141.38
 21
200.671
  0
LINE
  8
0
 10
141.38
 20
200.671
 11
140.408
 21
201.073
  0
LINE
  8
0
 10
140.408
 20
201.073
 11
139.384
 21
201.319
  0
LINE
  8
0
 10
139.384
 20
201.319
 11
138.335
 21
201.402
  0
LINE
  8
0
 10
138.335
 20
201.402
 11
137.285
 21
201.319
  0
LINE
  8
0
 10
137.285
 20
201.319
 11
136.262
 21
201.073
  0
LINE
  8
0
 10
136.262
 20
201.073
 11
135.289
 21
200.671
  0
LINE
  8
0
 10
135.289
 20
200.671
 11
134.392
 21
200.121
  0
LINE
  8
0
 10
134.392
 20
200.121
 11
133.591
 21
199.437
  0
LINE
  8
0
 10
133.591
 20
199.437
 11
132.908
 21
198.637
  0
LINE
  8
0
 10
132.908
 20
198.637
 11
132.358
 21
197.739
  0
LINE
  8
0
 10
132.358
 20
197.739
 11
131.955
 21
196.767
  0
LINE
  8
0
 10
131.955
 20
196.767
 11
131.709
 21
195.743
  0
LINE
  8
0
 10
131.709
 20
195.743
 11
131.627
 21
194.694
  0
LINE
  8
0
 10
131.627
 20
194.694
 11
131.709
 21
193.644
  0
LINE
  8
0
 10
131.709
 20
193.644
 11
131.955
 21
192.621
  0
LINE
  8
0
 10
131.955
 20
192.621
 11
132.358
 21
191.648
  0
LINE
  8
0
 10
132.358
 20
191.648
 11
132.908
 21
190.751
  0
LINE
  8
0
 10
132.908
 20
190.751
 11
133.591
 21
189.95
  0
LINE
  8
0
 10
133.591
 20
189.95
 11
133.864
 21
189.718
  0
LINE
  8
0
 10
133.864
 20
189.718
 11
133.864
 21
189.693
  0
LINE
  8
0
 10
133.864
 20
189.693
 11
134.25
 21
189.388
  0
LINE
  8
0
 10
134.25
 20
189.388
 11
134.392
 21
189.267
  0
LINE
  8
0
 10
134.392
 20
189.267
 11
134.443
 21
189.235
  0
LINE
  8
0
 10
134.443
 20
189.235
 11
134.503
 21
189.188
  0
LINE
  8
0
 10
134.503
 20
189.188
 11
135.199
 21
188.764
  0
LINE
  8
0
 10
135.199
 20
188.764
 11
135.251
 21
188.74
  0
LINE
  8
0
 10
135.251
 20
188.74
 11
135.289
 21
188.717
  0
LINE
  8
0
 10
135.289
 20
188.717
 11
135.444
 21
188.653
  0
LINE
  8
0
 10
135.444
 20
188.653
 11
135.942
 21
188.427
  0
LINE
  8
0
 10
135.942
 20
188.427
 11
136.136
 21
188.366
  0
LINE
  8
0
 10
136.136
 20
188.366
 11
136.262
 21
188.314
  0
LINE
  8
0
 10
136.262
 20
188.314
 11
136.433
 21
188.273
  0
LINE
  8
0
 10
136.433
 20
188.273
 11
136.719
 21
188.183
  0
LINE
  8
0
 10
136.719
 20
188.183
 11
137.099
 21
188.113
  0
LINE
  8
0
 10
137.099
 20
188.113
 11
137.285
 21
188.068
  0
LINE
  8
0
 10
137.285
 20
188.068
 11
137.383
 21
188.06
  0
LINE
  8
0
 10
137.383
 20
188.06
 11
137.521
 21
188.035
  0
LINE
  8
0
 10
137.521
 20
188.035
 11
138.335
 21
187.985
  0
LINE
  8
0
 10
138.335
 20
187.985
 11
138.342
 21
187.985
  0
LINE
  8
0
 10
138.342
 20
187.985
 11
139.154
 21
188.036
  0
LINE
  8
0
 10
43.8645
 20
201.402
 11
43.8583
 21
201.402
  0
LINE
  8
0
 10
43.8583
 20
201.402
 11
43.0457
 21
201.352
  0
LINE
  8
0
 10
43.0457
 20
201.352
 11
42.2452
 21
201.203
  0
LINE
  8
0
 10
42.2452
 20
201.203
 11
41.4686
 21
200.959
  0
LINE
  8
0
 10
41.4686
 20
200.959
 11
40.7273
 21
200.623
  0
LINE
  8
0
 10
40.7273
 20
200.623
 11
40.0321
 21
200.199
  0
LINE
  8
0
 10
40.0321
 20
200.199
 11
39.3935
 21
199.694
  0
LINE
  8
0
 10
39.3935
 20
199.694
 11
39.3935
 21
201.402
  0
LINE
  8
0
 10
39.3935
 20
201.402
 11
37.1564
 21
201.402
  0
LINE
  8
0
 10
37.1564
 20
201.402
 11
37.1564
 21
194.694
  0
LINE
  8
0
 10
37.1564
 20
194.694
 11
37.2583
 21
193.529
  0
LINE
  8
0
 10
37.2583
 20
193.529
 11
37.5609
 21
192.399
  0
LINE
  8
0
 10
37.5609
 20
192.399
 11
38.0551
 21
191.34
  0
LINE
  8
0
 10
38.0551
 20
191.34
 11
38.7258
 21
190.382
  0
LINE
  8
0
 10
38.7258
 20
190.382
 11
39.3935
 21
189.714
  0
LINE
  8
0
 10
39.3935
 20
189.714
 11
39.3935
 21
189.693
  0
LINE
  8
0
 10
39.3935
 20
189.693
 11
39.4943
 21
189.613
  0
LINE
  8
0
 10
39.4943
 20
189.613
 11
39.5526
 21
189.555
  0
LINE
  8
0
 10
39.5526
 20
189.555
 11
39.6881
 21
189.46
  0
LINE
  8
0
 10
39.6881
 20
189.46
 11
40.0321
 21
189.188
  0
LINE
  8
0
 10
40.0321
 20
189.188
 11
40.3743
 21
188.98
  0
LINE
  8
0
 10
40.3743
 20
188.98
 11
40.5105
 21
188.884
  0
LINE
  8
0
 10
40.5105
 20
188.884
 11
40.5966
 21
188.844
  0
LINE
  8
0
 10
40.5966
 20
188.844
 11
40.7271
 21
188.764
  0
LINE
  8
0
 10
40.7271
 20
188.764
 11
41.4684
 21
188.428
  0
LINE
  8
0
 10
41.4684
 20
188.428
 11
41.5304
 21
188.409
  0
LINE
  8
0
 10
41.5304
 20
188.409
 11
41.5702
 21
188.39
  0
LINE
  8
0
 10
41.5702
 20
188.39
 11
41.7007
 21
188.355
  0
LINE
  8
0
 10
41.7007
 20
188.355
 11
42.2449
 21
188.184
  0
LINE
  8
0
 10
42.2449
 20
188.184
 11
42.5503
 21
188.127
  0
LINE
  8
0
 10
42.5503
 20
188.127
 11
42.6997
 21
188.087
  0
LINE
  8
0
 10
42.6997
 20
188.087
 11
42.826
 21
188.076
  0
LINE
  8
0
 10
42.826
 20
188.076
 11
43.0453
 21
188.036
  0
LINE
  8
0
 10
43.0453
 20
188.036
 11
43.8578
 21
187.986
  0
LINE
  8
0
 10
43.8578
 20
187.986
 11
43.8645
 21
187.986
  0
LINE
  8
0
 10
43.8645
 20
187.986
 11
43.8645
 21
201.402
  0
LINE
  8
0
 10
52.5898
 20
188.008
 11
53.1277
 21
188.073
  0
LINE
  8
0
 10
53.1277
 20
188.073
 11
53.6516
 21
188.18
  0
LINE
  8
0
 10
53.6516
 20
188.18
 11
54.1599
 21
188.327
  0
LINE
  8
0
 10
54.1599
 20
188.327
 11
54.6507
 21
188.513
  0
LINE
  8
0
 10
54.6507
 20
188.513
 11
55.1223
 21
188.734
  0
LINE
  8
0
 10
55.1223
 20
188.734
 11
55.5731
 21
188.991
  0
LINE
  8
0
 10
55.5731
 20
188.991
 11
56.0013
 21
189.28
  0
LINE
  8
0
 10
56.0013
 20
189.28
 11
56.4052
 21
189.6
  0
LINE
  8
0
 10
56.4052
 20
189.6
 11
56.7829
 21
189.95
  0
LINE
  8
0
 10
56.7829
 20
189.95
 11
57.1329
 21
190.328
  0
LINE
  8
0
 10
57.1329
 20
190.328
 11
57.4534
 21
190.732
  0
LINE
  8
0
 10
57.4534
 20
190.732
 11
57.7427
 21
191.16
  0
LINE
  8
0
 10
57.7427
 20
191.16
 11
57.9989
 21
191.611
  0
LINE
  8
0
 10
57.9989
 20
191.611
 11
58.2205
 21
192.083
  0
LINE
  8
0
 10
58.2205
 20
192.083
 11
58.4057
 21
192.573
  0
LINE
  8
0
 10
58.4057
 20
192.573
 11
58.5527
 21
193.082
  0
LINE
  8
0
 10
58.5527
 20
193.082
 11
58.6599
 21
193.606
  0
LINE
  8
0
 10
58.6599
 20
193.606
 11
58.7255
 21
194.143
  0
LINE
  8
0
 10
58.7255
 20
194.143
 11
58.7477
 21
194.694
  0
LINE
  8
0
 10
58.7477
 20
194.694
 11
58.7255
 21
195.244
  0
LINE
  8
0
 10
58.7255
 20
195.244
 11
58.6599
 21
195.782
  0
LINE
  8
0
 10
58.6599
 20
195.782
 11
58.5527
 21
196.306
  0
LINE
  8
0
 10
58.5527
 20
196.306
 11
58.4057
 21
196.814
  0
LINE
  8
0
 10
58.4057
 20
196.814
 11
58.2205
 21
197.305
  0
LINE
  8
0
 10
58.2205
 20
197.305
 11
57.9989
 21
197.776
  0
LINE
  8
0
 10
57.9989
 20
197.776
 11
57.7427
 21
198.227
  0
LINE
  8
0
 10
57.7427
 20
198.227
 11
57.4534
 21
198.655
  0
LINE
  8
0
 10
57.4534
 20
198.655
 11
57.1329
 21
199.059
  0
LINE
  8
0
 10
57.1329
 20
199.059
 11
56.7829
 21
199.437
  0
LINE
  8
0
 10
56.7829
 20
199.437
 11
56.4052
 21
199.787
  0
LINE
  8
0
 10
56.4052
 20
199.787
 11
56.0013
 21
200.107
  0
LINE
  8
0
 10
56.0013
 20
200.107
 11
55.5731
 21
200.397
  0
LINE
  8
0
 10
55.5731
 20
200.397
 11
55.1223
 21
200.653
  0
LINE
  8
0
 10
55.1223
 20
200.653
 11
54.6507
 21
200.875
  0
LINE
  8
0
 10
54.6507
 20
200.875
 11
54.1599
 21
201.06
  0
LINE
  8
0
 10
54.1599
 20
201.06
 11
53.6516
 21
201.207
  0
LINE
  8
0
 10
53.6516
 20
201.207
 11
53.1277
 21
201.314
  0
LINE
  8
0
 10
53.1277
 20
201.314
 11
52.5898
 21
201.38
  0
LINE
  8
0
 10
52.5898
 20
201.38
 11
52.0396
 21
201.402
  0
LINE
  8
0
 10
52.0396
 20
201.402
 11
52.0329
 21
201.402
  0
LINE
  8
0
 10
52.0329
 20
201.402
 11
51.4831
 21
201.379
  0
LINE
  8
0
 10
51.4831
 20
201.379
 11
50.9456
 21
201.313
  0
LINE
  8
0
 10
50.9456
 20
201.313
 11
50.4221
 21
201.205
  0
LINE
  8
0
 10
50.4221
 20
201.205
 11
49.9143
 21
201.058
  0
LINE
  8
0
 10
49.9143
 20
201.058
 11
49.4239
 21
200.873
  0
LINE
  8
0
 10
49.4239
 20
200.873
 11
48.9527
 21
200.651
  0
LINE
  8
0
 10
48.9527
 20
200.651
 11
48.5024
 21
200.394
  0
LINE
  8
0
 10
48.5024
 20
200.394
 11
48.0746
 21
200.105
  0
LINE
  8
0
 10
48.0746
 20
200.105
 11
47.6712
 21
199.785
  0
LINE
  8
0
 10
47.6712
 20
199.785
 11
47.2938
 21
199.435
  0
LINE
  8
0
 10
47.2938
 20
199.435
 11
46.9442
 21
199.057
  0
LINE
  8
0
 10
46.9442
 20
199.057
 11
46.6241
 21
198.653
  0
LINE
  8
0
 10
46.6241
 20
198.653
 11
46.3352
 21
198.225
  0
LINE
  8
0
 10
46.3352
 20
198.225
 11
46.0793
 21
197.775
  0
LINE
  8
0
 10
46.0793
 20
197.775
 11
45.8579
 21
197.303
  0
LINE
  8
0
 10
45.8579
 20
197.303
 11
45.673
 21
196.813
  0
LINE
  8
0
 10
45.673
 20
196.813
 11
45.5262
 21
196.305
  0
LINE
  8
0
 10
45.5262
 20
196.305
 11
45.4191
 21
195.781
  0
LINE
  8
0
 10
45.4191
 20
195.781
 11
45.3537
 21
195.243
  0
LINE
  8
0
 10
45.3537
 20
195.243
 11
45.3315
 21
194.694
  0
LINE
  8
0
 10
45.3315
 20
194.694
 11
45.3537
 21
194.143
  0
LINE
  8
0
 10
45.3537
 20
194.143
 11
45.4193
 21
193.606
  0
LINE
  8
0
 10
45.4193
 20
193.606
 11
45.5264
 21
193.082
  0
LINE
  8
0
 10
45.5264
 20
193.082
 11
45.6734
 21
192.573
  0
LINE
  8
0
 10
45.6734
 20
192.573
 11
45.8586
 21
192.083
  0
LINE
  8
0
 10
45.8586
 20
192.083
 11
46.0802
 21
191.611
  0
LINE
  8
0
 10
46.0802
 20
191.611
 11
46.3365
 21
191.16
  0
LINE
  8
0
 10
46.3365
 20
191.16
 11
46.6257
 21
190.732
  0
LINE
  8
0
 10
46.6257
 20
190.732
 11
46.9462
 21
190.328
  0
LINE
  8
0
 10
46.9462
 20
190.328
 11
47.2962
 21
189.95
  0
LINE
  8
0
 10
47.2962
 20
189.95
 11
47.674
 21
189.6
  0
LINE
  8
0
 10
47.674
 20
189.6
 11
48.0779
 21
189.28
  0
LINE
  8
0
 10
48.0779
 20
189.28
 11
48.506
 21
188.991
  0
LINE
  8
0
 10
48.506
 20
188.991
 11
48.9568
 21
188.734
  0
LINE
  8
0
 10
48.9568
 20
188.734
 11
49.4285
 21
188.513
  0
LINE
  8
0
 10
49.4285
 20
188.513
 11
49.9193
 21
188.327
  0
LINE
  8
0
 10
49.9193
 20
188.327
 11
50.4275
 21
188.18
  0
LINE
  8
0
 10
50.4275
 20
188.18
 11
50.9515
 21
188.073
  0
LINE
  8
0
 10
50.9515
 20
188.073
 11
51.4894
 21
188.008
  0
LINE
  8
0
 10
51.4894
 20
188.008
 11
52.0396
 21
187.986
  0
LINE
  8
0
 10
52.0396
 20
187.986
 11
52.5898
 21
188.008
  0
LINE
  8
0
 10
124.002
 20
188.008
 11
124.54
 21
188.073
  0
LINE
  8
0
 10
124.54
 20
188.073
 11
125.064
 21
188.18
  0
LINE
  8
0
 10
125.064
 20
188.18
 11
125.572
 21
188.327
  0
LINE
  8
0
 10
125.572
 20
188.327
 11
126.063
 21
188.513
  0
LINE
  8
0
 10
126.063
 20
188.513
 11
126.534
 21
188.734
  0
LINE
  8
0
 10
126.534
 20
188.734
 11
126.985
 21
188.99
  0
LINE
  8
0
 10
126.985
 20
188.99
 11
127.413
 21
189.28
  0
LINE
  8
0
 10
127.413
 20
189.28
 11
127.817
 21
189.6
  0
LINE
  8
0
 10
127.817
 20
189.6
 11
128.195
 21
189.95
  0
LINE
  8
0
 10
128.195
 20
189.95
 11
128.545
 21
190.328
  0
LINE
  8
0
 10
128.545
 20
190.328
 11
128.865
 21
190.732
  0
LINE
  8
0
 10
128.865
 20
190.732
 11
129.155
 21
191.16
  0
LINE
  8
0
 10
129.155
 20
191.16
 11
129.411
 21
191.611
  0
LINE
  8
0
 10
129.411
 20
191.611
 11
129.633
 21
192.082
  0
LINE
  8
0
 10
129.633
 20
192.082
 11
129.818
 21
192.573
  0
LINE
  8
0
 10
129.818
 20
192.573
 11
129.965
 21
193.082
  0
LINE
  8
0
 10
129.965
 20
193.082
 11
130.072
 21
193.605
  0
LINE
  8
0
 10
130.072
 20
193.605
 11
130.137
 21
194.143
  0
LINE
  8
0
 10
130.137
 20
194.143
 11
130.16
 21
194.694
  0
LINE
  8
0
 10
130.16
 20
194.694
 11
130.137
 21
195.244
  0
LINE
  8
0
 10
130.137
 20
195.244
 11
130.072
 21
195.782
  0
LINE
  8
0
 10
130.072
 20
195.782
 11
129.965
 21
196.306
  0
LINE
  8
0
 10
129.965
 20
196.306
 11
129.818
 21
196.814
  0
LINE
  8
0
 10
129.818
 20
196.814
 11
129.633
 21
197.305
  0
LINE
  8
0
 10
129.633
 20
197.305
 11
129.411
 21
197.776
  0
LINE
  8
0
 10
129.411
 20
197.776
 11
129.155
 21
198.227
  0
LINE
  8
0
 10
129.155
 20
198.227
 11
128.865
 21
198.655
  0
LINE
  8
0
 10
128.865
 20
198.655
 11
128.545
 21
199.059
  0
LINE
  8
0
 10
128.545
 20
199.059
 11
128.195
 21
199.437
  0
LINE
  8
0
 10
128.195
 20
199.437
 11
127.817
 21
199.787
  0
LINE
  8
0
 10
127.817
 20
199.787
 11
127.413
 21
200.107
  0
LINE
  8
0
 10
127.413
 20
200.107
 11
126.985
 21
200.397
  0
LINE
  8
0
 10
126.985
 20
200.397
 11
126.534
 21
200.653
  0
LINE
  8
0
 10
126.534
 20
200.653
 11
126.063
 21
200.875
  0
LINE
  8
0
 10
126.063
 20
200.875
 11
125.572
 21
201.06
  0
LINE
  8
0
 10
125.572
 20
201.06
 11
125.064
 21
201.207
  0
LINE
  8
0
 10
125.064
 20
201.207
 11
124.54
 21
201.314
  0
LINE
  8
0
 10
124.54
 20
201.314
 11
124.002
 21
201.379
  0
LINE
  8
0
 10
124.002
 20
201.379
 11
123.452
 21
201.402
  0
LINE
  8
0
 10
123.452
 20
201.402
 11
123.445
 21
201.402
  0
LINE
  8
0
 10
123.445
 20
201.402
 11
122.895
 21
201.379
  0
LINE
  8
0
 10
122.895
 20
201.379
 11
122.358
 21
201.313
  0
LINE
  8
0
 10
122.358
 20
201.313
 11
121.834
 21
201.205
  0
LINE
  8
0
 10
121.834
 20
201.205
 11
121.326
 21
201.058
  0
LINE
  8
0
 10
121.326
 20
201.058
 11
120.836
 21
200.873
  0
LINE
  8
0
 10
120.836
 20
200.873
 11
120.365
 21
200.651
  0
LINE
  8
0
 10
120.365
 20
200.651
 11
119.914
 21
200.394
  0
LINE
  8
0
 10
119.914
 20
200.394
 11
119.487
 21
200.105
  0
LINE
  8
0
 10
119.487
 20
200.105
 11
119.083
 21
199.785
  0
LINE
  8
0
 10
119.083
 20
199.785
 11
118.706
 21
199.435
  0
LINE
  8
0
 10
118.706
 20
199.435
 11
118.356
 21
199.057
  0
LINE
  8
0
 10
118.356
 20
199.057
 11
118.036
 21
198.653
  0
LINE
  8
0
 10
118.036
 20
198.653
 11
117.747
 21
198.225
  0
LINE
  8
0
 10
117.747
 20
198.225
 11
117.491
 21
197.775
  0
LINE
  8
0
 10
117.491
 20
197.775
 11
117.27
 21
197.303
  0
LINE
  8
0
 10
117.27
 20
197.303
 11
117.085
 21
196.813
  0
LINE
  8
0
 10
117.085
 20
196.813
 11
116.938
 21
196.305
  0
LINE
  8
0
 10
116.938
 20
196.305
 11
116.831
 21
195.781
  0
LINE
  8
0
 10
116.831
 20
195.781
 11
116.766
 21
195.243
  0
LINE
  8
0
 10
116.766
 20
195.243
 11
116.743
 21
194.694
  0
LINE
  8
0
 10
116.743
 20
194.694
 11
116.766
 21
194.143
  0
LINE
  8
0
 10
116.766
 20
194.143
 11
116.831
 21
193.605
  0
LINE
  8
0
 10
116.831
 20
193.605
 11
116.938
 21
193.082
  0
LINE
  8
0
 10
116.938
 20
193.082
 11
117.085
 21
192.573
  0
LINE
  8
0
 10
117.085
 20
192.573
 11
117.271
 21
192.082
  0
LINE
  8
0
 10
117.271
 20
192.082
 11
117.492
 21
191.611
  0
LINE
  8
0
 10
117.492
 20
191.611
 11
117.748
 21
191.16
  0
LINE
  8
0
 10
117.748
 20
191.16
 11
118.038
 21
190.732
  0
LINE
  8
0
 10
118.038
 20
190.732
 11
118.358
 21
190.328
  0
LINE
  8
0
 10
118.358
 20
190.328
 11
118.708
 21
189.95
  0
LINE
  8
0
 10
118.708
 20
189.95
 11
119.086
 21
189.6
  0
LINE
  8
0
 10
119.086
 20
189.6
 11
119.49
 21
189.28
  0
LINE
  8
0
 10
119.49
 20
189.28
 11
119.918
 21
188.99
  0
LINE
  8
0
 10
119.918
 20
188.99
 11
120.369
 21
188.734
  0
LINE
  8
0
 10
120.369
 20
188.734
 11
120.84
 21
188.513
  0
LINE
  8
0
 10
120.84
 20
188.513
 11
121.331
 21
188.327
  0
LINE
  8
0
 10
121.331
 20
188.327
 11
121.84
 21
188.18
  0
LINE
  8
0
 10
121.84
 20
188.18
 11
122.363
 21
188.073
  0
LINE
  8
0
 10
122.363
 20
188.073
 11
122.901
 21
188.008
  0
LINE
  8
0
 10
122.901
 20
188.008
 11
123.452
 21
187.985
  0
LINE
  8
0
 10
123.452
 20
187.985
 11
124.002
 21
188.008
  0
LINE
  8
0
 10
154.267
 20
188.068
 11
155.291
 21
188.314
  0
LINE
  8
0
 10
155.291
 20
188.314
 11
156.263
 21
188.717
  0
LINE
  8
0
 10
156.263
 20
188.717
 11
157.161
 21
189.267
  0
LINE
  8
0
 10
157.161
 20
189.267
 11
157.961
 21
189.95
  0
LINE
  8
0
 10
157.961
 20
189.95
 11
158.645
 21
190.751
  0
LINE
  8
0
 10
158.645
 20
190.751
 11
159.195
 21
191.648
  0
LINE
  8
0
 10
159.195
 20
191.648
 11
159.598
 21
192.621
  0
LINE
  8
0
 10
159.598
 20
192.621
 11
159.827
 21
193.575
  0
LINE
  8
0
 10
159.827
 20
193.575
 11
159.833
 21
193.575
  0
LINE
  8
0
 10
159.833
 20
193.575
 11
159.841
 21
193.635
  0
LINE
  8
0
 10
159.841
 20
193.635
 11
159.844
 21
193.644
  0
LINE
  8
0
 10
159.844
 20
193.644
 11
159.845
 21
193.657
  0
LINE
  8
0
 10
159.845
 20
193.657
 11
159.873
 21
193.853
  0
LINE
  8
0
 10
159.873
 20
193.853
 11
159.903
 21
194.132
  0
LINE
  8
0
 10
159.903
 20
194.132
 11
159.92
 21
194.413
  0
LINE
  8
0
 10
159.92
 20
194.413
 11
159.926
 21
194.691
  0
LINE
  8
0
 10
159.926
 20
194.691
 11
159.926
 21
194.694
  0
LINE
  8
0
 10
159.926
 20
194.694
 11
159.926
 21
194.696
  0
LINE
  8
0
 10
159.926
 20
194.696
 11
159.92
 21
194.974
  0
LINE
  8
0
 10
159.92
 20
194.974
 11
159.903
 21
195.255
  0
LINE
  8
0
 10
159.903
 20
195.255
 11
159.873
 21
195.534
  0
LINE
  8
0
 10
159.873
 20
195.534
 11
159.845
 21
195.73
  0
LINE
  8
0
 10
159.845
 20
195.73
 11
159.844
 21
195.743
  0
LINE
  8
0
 10
159.844
 20
195.743
 11
159.841
 21
195.753
  0
LINE
  8
0
 10
159.841
 20
195.753
 11
159.833
 21
195.812
  0
LINE
  8
0
 10
159.833
 20
195.812
 11
159.665
 21
196.547
  0
LINE
  8
0
 10
159.665
 20
196.547
 11
159.618
 21
196.681
  0
LINE
  8
0
 10
159.618
 20
196.681
 11
159.598
 21
196.766
  0
LINE
  8
0
 10
159.598
 20
196.766
 11
159.538
 21
196.912
  0
LINE
  8
0
 10
159.538
 20
196.912
 11
159.416
 21
197.258
  0
LINE
  8
0
 10
159.416
 20
197.258
 11
159.256
 21
197.592
  0
LINE
  8
0
 10
159.256
 20
197.592
 11
159.195
 21
197.739
  0
LINE
  8
0
 10
159.195
 20
197.739
 11
159.149
 21
197.814
  0
LINE
  8
0
 10
159.149
 20
197.814
 11
159.089
 21
197.938
  0
LINE
  8
0
 10
159.089
 20
197.938
 11
158.688
 21
198.576
  0
LINE
  8
0
 10
158.688
 20
198.576
 11
158.662
 21
198.609
  0
LINE
  8
0
 10
158.662
 20
198.609
 11
158.645
 21
198.637
  0
LINE
  8
0
 10
158.645
 20
198.637
 11
158.569
 21
198.726
  0
LINE
  8
0
 10
158.569
 20
198.726
 11
158.218
 21
199.165
  0
LINE
  8
0
 10
158.218
 20
199.165
 11
158.194
 21
199.165
  0
LINE
  8
0
 10
158.194
 20
199.165
 11
157.961
 21
199.437
  0
LINE
  8
0
 10
157.961
 20
199.437
 11
157.161
 21
200.121
  0
LINE
  8
0
 10
157.161
 20
200.121
 11
156.263
 21
200.671
  0
LINE
  8
0
 10
156.263
 20
200.671
 11
155.291
 21
201.073
  0
LINE
  8
0
 10
155.291
 20
201.073
 11
154.267
 21
201.319
  0
LINE
  8
0
 10
154.267
 20
201.319
 11
153.218
 21
201.402
  0
LINE
  8
0
 10
153.218
 20
201.402
 11
152.169
 21
201.319
  0
LINE
  8
0
 10
152.169
 20
201.319
 11
151.145
 21
201.073
  0
LINE
  8
0
 10
151.145
 20
201.073
 11
150.173
 21
200.671
  0
LINE
  8
0
 10
150.173
 20
200.671
 11
149.275
 21
200.121
  0
LINE
  8
0
 10
149.275
 20
200.121
 11
148.475
 21
199.437
  0
LINE
  8
0
 10
148.475
 20
199.437
 11
147.791
 21
198.637
  0
LINE
  8
0
 10
147.791
 20
198.637
 11
147.241
 21
197.739
  0
LINE
  8
0
 10
147.241
 20
197.739
 11
146.838
 21
196.766
  0
LINE
  8
0
 10
146.838
 20
196.766
 11
146.609
 21
195.812
  0
LINE
  8
0
 10
146.609
 20
195.812
 11
146.604
 21
195.812
  0
LINE
  8
0
 10
146.604
 20
195.812
 11
146.595
 21
195.755
  0
LINE
  8
0
 10
146.595
 20
195.755
 11
146.593
 21
195.743
  0
LINE
  8
0
 10
146.593
 20
195.743
 11
146.591
 21
195.727
  0
LINE
  8
0
 10
146.591
 20
195.727
 11
146.563
 21
195.534
  0
LINE
  8
0
 10
146.563
 20
195.534
 11
146.533
 21
195.255
  0
LINE
  8
0
 10
146.533
 20
195.255
 11
146.516
 21
194.974
  0
LINE
  8
0
 10
146.516
 20
194.974
 11
146.51
 21
194.694
  0
LINE
  8
0
 10
146.51
 20
194.694
 11
146.516
 21
194.413
  0
LINE
  8
0
 10
146.516
 20
194.413
 11
146.533
 21
194.132
  0
LINE
  8
0
 10
146.533
 20
194.132
 11
146.563
 21
193.853
  0
LINE
  8
0
 10
146.563
 20
193.853
 11
146.591
 21
193.661
  0
LINE
  8
0
 10
146.591
 20
193.661
 11
146.593
 21
193.644
  0
LINE
  8
0
 10
146.593
 20
193.644
 11
146.595
 21
193.632
  0
LINE
  8
0
 10
146.595
 20
193.632
 11
146.604
 21
193.575
  0
LINE
  8
0
 10
146.604
 20
193.575
 11
146.771
 21
192.84
  0
LINE
  8
0
 10
146.771
 20
192.84
 11
146.817
 21
192.709
  0
LINE
  8
0
 10
146.817
 20
192.709
 11
146.838
 21
192.621
  0
LINE
  8
0
 10
146.838
 20
192.621
 11
146.9
 21
192.471
  0
LINE
  8
0
 10
146.9
 20
192.471
 11
147.02
 21
192.129
  0
LINE
  8
0
 10
147.02
 20
192.129
 11
147.179
 21
191.799
  0
LINE
  8
0
 10
147.179
 20
191.799
 11
147.241
 21
191.648
  0
LINE
  8
0
 10
147.241
 20
191.648
 11
147.288
 21
191.571
  0
LINE
  8
0
 10
147.288
 20
191.571
 11
147.347
 21
191.449
  0
LINE
  8
0
 10
147.347
 20
191.449
 11
147.748
 21
190.811
  0
LINE
  8
0
 10
147.748
 20
190.811
 11
147.774
 21
190.779
  0
LINE
  8
0
 10
147.774
 20
190.779
 11
147.791
 21
190.751
  0
LINE
  8
0
 10
147.791
 20
190.751
 11
147.871
 21
190.657
  0
LINE
  8
0
 10
147.871
 20
190.657
 11
148.218
 21
190.222
  0
LINE
  8
0
 10
148.218
 20
190.222
 11
148.243
 21
190.222
  0
LINE
  8
0
 10
148.243
 20
190.222
 11
148.475
 21
189.95
  0
LINE
  8
0
 10
148.475
 20
189.95
 11
149.275
 21
189.267
  0
LINE
  8
0
 10
149.275
 20
189.267
 11
150.173
 21
188.717
  0
LINE
  8
0
 10
150.173
 20
188.717
 11
151.145
 21
188.314
  0
LINE
  8
0
 10
151.145
 20
188.314
 11
152.169
 21
188.068
  0
LINE
  8
0
 10
152.169
 20
188.068
 11
153.218
 21
187.985
  0
LINE
  8
0
 10
153.218
 20
187.985
 11
154.267
 21
188.068
  0
LINE
  8
0
 10
97.7391
 20
188.068
 11
98.7626
 21
188.314
  0
LINE
  8
0
 10
98.7626
 20
188.314
 11
99.7351
 21
188.717
  0
LINE
  8
0
 10
99.7351
 20
188.717
 11
100.633
 21
189.267
  0
LINE
  8
0
 10
100.633
 20
189.267
 11
101.433
 21
189.95
  0
LINE
  8
0
 10
101.433
 20
189.95
 11
101.665
 21
190.222
  0
LINE
  8
0
 10
101.665
 20
190.222
 11
101.69
 21
190.222
  0
LINE
  8
0
 10
101.69
 20
190.222
 11
102
 21
190.615
  0
LINE
  8
0
 10
102
 20
190.615
 11
102.117
 21
190.751
  0
LINE
  8
0
 10
102.117
 20
190.751
 11
102.146
 21
190.799
  0
LINE
  8
0
 10
102.146
 20
190.799
 11
102.195
 21
190.861
  0
LINE
  8
0
 10
102.195
 20
190.861
 11
102.619
 21
191.556
  0
LINE
  8
0
 10
102.619
 20
191.556
 11
102.644
 21
191.611
  0
LINE
  8
0
 10
102.644
 20
191.611
 11
102.667
 21
191.648
  0
LINE
  8
0
 10
102.667
 20
191.648
 11
102.729
 21
191.798
  0
LINE
  8
0
 10
102.729
 20
191.798
 11
102.955
 21
192.297
  0
LINE
  8
0
 10
102.955
 20
192.297
 11
103.018
 21
192.495
  0
LINE
  8
0
 10
103.018
 20
192.495
 11
103.07
 21
192.621
  0
LINE
  8
0
 10
103.07
 20
192.621
 11
103.11
 21
192.789
  0
LINE
  8
0
 10
103.11
 20
192.789
 11
103.199
 21
193.074
  0
LINE
  8
0
 10
103.199
 20
193.074
 11
103.271
 21
193.46
  0
LINE
  8
0
 10
103.271
 20
193.46
 11
103.315
 21
193.644
  0
LINE
  8
0
 10
103.315
 20
193.644
 11
103.323
 21
193.739
  0
LINE
  8
0
 10
103.323
 20
193.739
 11
103.348
 21
193.874
  0
LINE
  8
0
 10
103.348
 20
193.874
 11
103.398
 21
194.687
  0
LINE
  8
0
 10
103.398
 20
194.687
 11
103.398
 21
194.694
  0
LINE
  8
0
 10
103.398
 20
194.694
 11
103.348
 21
195.507
  0
LINE
  8
0
 10
103.348
 20
195.507
 11
103.323
 21
195.645
  0
LINE
  8
0
 10
103.323
 20
195.645
 11
103.315
 21
195.743
  0
LINE
  8
0
 10
103.315
 20
195.743
 11
103.27
 21
195.929
  0
LINE
  8
0
 10
103.27
 20
195.929
 11
103.2
 21
196.309
  0
LINE
  8
0
 10
103.2
 20
196.309
 11
103.111
 21
196.595
  0
LINE
  8
0
 10
103.111
 20
196.595
 11
103.07
 21
196.766
  0
LINE
  8
0
 10
103.07
 20
196.766
 11
103.017
 21
196.893
  0
LINE
  8
0
 10
103.017
 20
196.893
 11
102.956
 21
197.087
  0
LINE
  8
0
 10
102.956
 20
197.087
 11
102.731
 21
197.585
  0
LINE
  8
0
 10
102.731
 20
197.585
 11
102.667
 21
197.739
  0
LINE
  8
0
 10
102.667
 20
197.739
 11
102.643
 21
197.777
  0
LINE
  8
0
 10
102.643
 20
197.777
 11
102.62
 21
197.829
  0
LINE
  8
0
 10
102.62
 20
197.829
 11
102.196
 21
198.525
  0
LINE
  8
0
 10
102.196
 20
198.525
 11
102.148
 21
198.586
  0
LINE
  8
0
 10
102.148
 20
198.586
 11
102.117
 21
198.637
  0
LINE
  8
0
 10
102.117
 20
198.637
 11
101.996
 21
198.778
  0
LINE
  8
0
 10
101.996
 20
198.778
 11
101.69
 21
199.165
  0
LINE
  8
0
 10
101.69
 20
199.165
 11
101.665
 21
199.165
  0
LINE
  8
0
 10
101.665
 20
199.165
 11
101.433
 21
199.437
  0
LINE
  8
0
 10
101.433
 20
199.437
 11
100.633
 21
200.121
  0
LINE
  8
0
 10
100.633
 20
200.121
 11
99.7351
 21
200.671
  0
LINE
  8
0
 10
99.7351
 20
200.671
 11
98.7626
 21
201.073
  0
LINE
  8
0
 10
98.7626
 20
201.073
 11
97.7391
 21
201.319
  0
LINE
  8
0
 10
97.7391
 20
201.319
 11
96.6897
 21
201.402
  0
LINE
  8
0
 10
96.6897
 20
201.402
 11
95.6403
 21
201.319
  0
LINE
  8
0
 10
95.6403
 20
201.319
 11
94.6168
 21
201.073
  0
LINE
  8
0
 10
94.6168
 20
201.073
 11
93.6443
 21
200.671
  0
LINE
  8
0
 10
93.6443
 20
200.671
 11
92.7468
 21
200.121
  0
LINE
  8
0
 10
92.7468
 20
200.121
 11
91.9464
 21
199.437
  0
LINE
  8
0
 10
91.9464
 20
199.437
 11
91.2627
 21
198.637
  0
LINE
  8
0
 10
91.2627
 20
198.637
 11
90.7128
 21
197.739
  0
LINE
  8
0
 10
90.7128
 20
197.739
 11
90.3099
 21
196.766
  0
LINE
  8
0
 10
90.3099
 20
196.766
 11
90.0642
 21
195.743
  0
LINE
  8
0
 10
90.0642
 20
195.743
 11
89.9816
 21
194.694
  0
LINE
  8
0
 10
89.9816
 20
194.694
 11
90.0642
 21
193.644
  0
LINE
  8
0
 10
90.0642
 20
193.644
 11
90.3099
 21
192.621
  0
LINE
  8
0
 10
90.3099
 20
192.621
 11
90.7128
 21
191.648
  0
LINE
  8
0
 10
90.7128
 20
191.648
 11
91.2627
 21
190.751
  0
LINE
  8
0
 10
91.2627
 20
190.751
 11
91.9464
 21
189.95
  0
LINE
  8
0
 10
91.9464
 20
189.95
 11
92.7468
 21
189.267
  0
LINE
  8
0
 10
92.7468
 20
189.267
 11
93.6443
 21
188.717
  0
LINE
  8
0
 10
93.6443
 20
188.717
 11
94.6168
 21
188.314
  0
LINE
  8
0
 10
94.6168
 20
188.314
 11
95.6403
 21
188.068
  0
LINE
  8
0
 10
95.6403
 20
188.068
 11
96.6897
 21
187.985
  0
LINE
  8
0
 10
96.6897
 20
187.985
 11
97.7391
 21
188.068
  0
LINE
  8
0
 10
0.340881
 20
5.84686
 11
0.355087
 21
5.87474
  0
LINE
  8
0
 10
0.355087
 20
5.87474
 11
1.09067
 21
6.88721
  0
LINE
  8
0
 10
1.09067
 20
6.88721
 11
1.11278
 21
6.90932
  0
LINE
  8
0
 10
1.11278
 20
6.90932
 11
2.12524
 21
7.6449
  0
LINE
  8
0
 10
2.12524
 20
7.6449
 11
2.15312
 21
7.6591
  0
LINE
  8
0
 10
2.15312
 20
7.6591
 11
2.48012
 21
7.76535
  0
LINE
  8
0
 10
2.48012
 20
7.76535
 11
2.48012
 21
8.26436
  0
LINE
  8
0
 10
2.48012
 20
8.26436
 11
2.24821
 21
8.97807
  0
LINE
  8
0
 10
2.24821
 20
8.97807
 11
1.80708
 21
9.58525
  0
LINE
  8
0
 10
1.80708
 20
9.58525
 11
1.19991
 21
10.0264
  0
LINE
  8
0
 10
1.19991
 20
10.0264
 11
0.486176
 21
10.2583
  0
LINE
  8
0
 10
0.486176
 20
10.2583
 11
-0.264359
 21
10.2583
  0
LINE
  8
0
 10
-0.264359
 20
10.2583
 11
-0.978073
 21
10.0264
  0
LINE
  8
0
 10
-0.978073
 20
10.0264
 11
-1.58525
 21
9.58525
  0
LINE
  8
0
 10
-1.58525
 20
9.58525
 11
-2.0264
 21
8.97807
  0
LINE
  8
0
 10
-2.0264
 20
8.97807
 11
-2.25829
 21
8.26436
  0
LINE
  8
0
 10
-2.25829
 20
8.26436
 11
-2.25829
 21
7.51381
  0
LINE
  8
0
 10
-2.25829
 20
7.51381
 11
-2.0264
 21
6.80008
  0
LINE
  8
0
 10
-2.0264
 20
6.80008
 11
-1.58525
 21
6.1929
  0
LINE
  8
0
 10
-1.58525
 20
6.1929
 11
-0.978073
 21
5.75177
  0
LINE
  8
0
 10
-0.978073
 20
5.75177
 11
-0.264359
 21
5.51987
  0
LINE
  8
0
 10
-0.264359
 20
5.51987
 11
0.234634
 21
5.51987
  0
LINE
  8
0
 10
0.234634
 20
5.51987
 11
0.340881
 21
5.84686
  0
LINE
  8
0
 10
13.1304
 20
1.71866
 11
13.799
 21
2.05936
  0
LINE
  8
0
 10
13.799
 20
2.05936
 11
14.3297
 21
2.59007
  0
LINE
  8
0
 10
14.3297
 20
2.59007
 11
14.6704
 21
3.25873
  0
LINE
  8
0
 10
14.6704
 20
3.25873
 11
14.7878
 21
4
  0
LINE
  8
0
 10
14.7878
 20
4
 11
14.6704
 21
4.74127
  0
LINE
  8
0
 10
14.6704
 20
4.74127
 11
14.3297
 21
5.40993
  0
LINE
  8
0
 10
14.3297
 20
5.40993
 11
13.799
 21
5.94064
  0
LINE
  8
0
 10
13.799
 20
5.94064
 11
13.1304
 21
6.28134
  0
LINE
  8
0
 10
13.1304
 20
6.28134
 11
12.3891
 21
6.39876
  0
LINE
  8
0
 10
12.3891
 20
6.39876
 11
11.6478
 21
6.28134
  0
LINE
  8
0
 10
11.6478
 20
6.28134
 11
10.9792
 21
5.94064
  0
LINE
  8
0
 10
10.9792
 20
5.94064
 11
10.4484
 21
5.40993
  0
LINE
  8
0
 10
10.4484
 20
5.40993
 11
10.1077
 21
4.74127
  0
LINE
  8
0
 10
10.1077
 20
4.74127
 11
9.99033
 21
4
  0
LINE
  8
0
 10
9.99033
 20
4
 11
10.1077
 21
3.25873
  0
LINE
  8
0
 10
10.1077
 20
3.25873
 11
10.4484
 21
2.59007
  0
LINE
  8
0
 10
10.4484
 20
2.59007
 11
10.9792
 21
2.05936
  0
LINE
  8
0
 10
10.9792
 20
2.05936
 11
11.6478
 21
1.71866
  0
LINE
  8
0
 10
11.6478
 20
1.71866
 11
12.3891
 21
1.60124
  0
LINE
  8
0
 10
12.3891
 20
1.60124
 11
13.1304
 21
1.71866
  0
LINE
  8
0
 10
21.5194
 20
-8.78134
 11
22.1881
 21
-8.44064
  0
LINE
  8
0
 10
22.1881
 20
-8.44064
 11
22.7188
 21
-7.90993
  0
LINE
  8
0
 10
22.7188
 20
-7.90993
 11
23.0595
 21
-7.24127
  0
LINE
  8
0
 10
23.0595
 20
-7.24127
 11
23.1769
 21
-6.5
  0
LINE
  8
0
 10
23.1769
 20
-6.5
 11
23.1782
 21
-6.5
  0
LINE
  8
0
 10
23.1782
 20
-6.5
 11
23.1782
 21
4
  0
LINE
  8
0
 10
23.1782
 20
4
 11
23.1769
 21
4
  0
LINE
  8
0
 10
23.1769
 20
4
 11
23.0595
 21
4.74127
  0
LINE
  8
0
 10
23.0595
 20
4.74127
 11
22.7188
 21
5.40993
  0
LINE
  8
0
 10
22.7188
 20
5.40993
 11
22.1881
 21
5.94064
  0
LINE
  8
0
 10
22.1881
 20
5.94064
 11
21.5194
 21
6.28134
  0
LINE
  8
0
 10
21.5194
 20
6.28134
 11
20.7782
 21
6.39876
  0
LINE
  8
0
 10
20.7782
 20
6.39876
 11
20.0369
 21
6.28134
  0
LINE
  8
0
 10
20.0369
 20
6.28134
 11
19.3682
 21
5.94064
  0
LINE
  8
0
 10
19.3682
 20
5.94064
 11
18.8375
 21
5.40993
  0
LINE
  8
0
 10
18.8375
 20
5.40993
 11
18.4968
 21
4.74127
  0
LINE
  8
0
 10
18.4968
 20
4.74127
 11
18.3794
 21
4
  0
LINE
  8
0
 10
18.3794
 20
4
 11
18.3782
 21
4
  0
LINE
  8
0
 10
18.3782
 20
4
 11
18.3782
 21
-6.5
  0
LINE
  8
0
 10
18.3782
 20
-6.5
 11
18.3794
 21
-6.5
  0
LINE
  8
0
 10
18.3794
 20
-6.5
 11
18.4968
 21
-7.24127
  0
LINE
  8
0
 10
18.4968
 20
-7.24127
 11
18.8375
 21
-7.90993
  0
LINE
  8
0
 10
18.8375
 20
-7.90993
 11
19.3682
 21
-8.44064
  0
LINE
  8
0
 10
19.3682
 20
-8.44064
 11
20.0369
 21
-8.78134
  0
LINE
  8
0
 10
20.0369
 20
-8.78134
 11
20.7782
 21
-8.89876
  0
LINE
  8
0
 10
20.7782
 20
-8.89876
 11
21.5194
 21
-8.78134
  0
LINE
  8
0
 10
31.1079
 20
5.40993
 11
30.5772
 21
5.94064
  0
LINE
  8
0
 10
30.5772
 20
5.94064
 11
29.9085
 21
6.28134
  0
LINE
  8
0
 10
29.9085
 20
6.28134
 11
29.1673
 21
6.39876
  0
LINE
  8
0
 10
29.1673
 20
6.39876
 11
28.426
 21
6.28134
  0
LINE
  8
0
 10
28.426
 20
6.28134
 11
27.7573
 21
5.94064
  0
LINE
  8
0
 10
27.7573
 20
5.94064
 11
27.2266
 21
5.40993
  0
LINE
  8
0
 10
27.2266
 20
5.40993
 11
26.9413
 21
4.85001
  0
LINE
  8
0
 10
26.9413
 20
4.85001
 11
31.3932
 21
4.85001
  0
LINE
  8
0
 10
31.3932
 20
4.85001
 11
31.1079
 21
5.40993
  0
LINE
  8
0
 10
5.08899
 20
1.86269
 11
5.69617
 21
2.30382
  0
LINE
  8
0
 10
5.69617
 20
2.30382
 11
6.1373
 21
2.911
  0
LINE
  8
0
 10
6.1373
 20
2.911
 11
6.3692
 21
3.62473
  0
LINE
  8
0
 10
6.3692
 20
3.62473
 11
6.3692
 21
4.37526
  0
LINE
  8
0
 10
6.3692
 20
4.37526
 11
6.1373
 21
5.08899
  0
LINE
  8
0
 10
6.1373
 20
5.08899
 11
5.69617
 21
5.69617
  0
LINE
  8
0
 10
5.69617
 20
5.69617
 11
5.08899
 21
6.1373
  0
LINE
  8
0
 10
5.08899
 20
6.1373
 11
4.37526
 21
6.3692
  0
LINE
  8
0
 10
4.37526
 20
6.3692
 11
3.62473
 21
6.3692
  0
LINE
  8
0
 10
3.62473
 20
6.3692
 11
2.911
 21
6.1373
  0
LINE
  8
0
 10
2.911
 20
6.1373
 11
2.30382
 21
5.69617
  0
LINE
  8
0
 10
2.30382
 20
5.69617
 11
1.86269
 21
5.08899
  0
LINE
  8
0
 10
1.86269
 20
5.08899
 11
1.63078
 21
4.37526
  0
LINE
  8
0
 10
1.63078
 20
4.37526
 11
1.63078
 21
3.62473
  0
LINE
  8
0
 10
1.63078
 20
3.62473
 11
1.86269
 21
2.911
  0
LINE
  8
0
 10
1.86269
 20
2.911
 11
2.30382
 21
2.30382
  0
LINE
  8
0
 10
2.30382
 20
2.30382
 11
2.911
 21
1.86269
  0
LINE
  8
0
 10
2.911
 20
1.86269
 11
3.62473
 21
1.63078
  0
LINE
  8
0
 10
3.62473
 20
1.63078
 11
4.37526
 21
1.63078
  0
LINE
  8
0
 10
4.37526
 20
1.63078
 11
5.08899
 21
1.86269
  0
LINE
  8
0
 10
32.3214
 20
1.70839
 11
32.8752
 21
2.79521
  0
LINE
  8
0
 10
32.8752
 20
2.79521
 11
32.9314
 21
3.14999
  0
LINE
  8
0
 10
32.9314
 20
3.14999
 11
26.9413
 21
3.14999
  0
LINE
  8
0
 10
26.9413
 20
3.14999
 11
27.2266
 21
2.59007
  0
LINE
  8
0
 10
27.2266
 20
2.59007
 11
27.7573
 21
2.05936
  0
LINE
  8
0
 10
27.7573
 20
2.05936
 11
28.426
 21
1.71866
  0
LINE
  8
0
 10
28.426
 20
1.71866
 11
29.1751
 21
1.60001
  0
LINE
  8
0
 10
29.1751
 20
1.60001
 11
32.213
 21
1.60001
  0
LINE
  8
0
 10
32.213
 20
1.60001
 11
32.3214
 21
1.70839
  0
LINE
  8
0
 10
39.4454
 20
1.39999
 11
37.9454
 21
1.39999
  0
LINE
  8
0
 10
37.9454
 20
1.39999
 11
37.9454
 21
0.0999908
  0
LINE
  8
0
 10
37.9454
 20
0.0999908
 11
39.4454
 21
0.0999908
  0
LINE
  8
0
 10
39.4454
 20
0.0999908
 11
39.4454
 21
1.39999
  0
LINE
  8
0
 10
-8.0369
 20
-3.28134
 11
-7.36824
 21
-2.94064
  0
LINE
  8
0
 10
-7.36824
 20
-2.94064
 11
-6.83752
 21
-2.40993
  0
LINE
  8
0
 10
-6.83752
 20
-2.40993
 11
-6.49683
 21
-1.74127
  0
LINE
  8
0
 10
-6.49683
 20
-1.74127
 11
-6.37941
 21
-1
  0
LINE
  8
0
 10
-6.37941
 20
-1
 11
-6.49683
 21
-0.258728
  0
LINE
  8
0
 10
-6.49683
 20
-0.258728
 11
-6.83752
 21
0.409927
  0
LINE
  8
0
 10
-6.83752
 20
0.409927
 11
-7.36824
 21
0.940643
  0
LINE
  8
0
 10
-7.36824
 20
0.940643
 11
-8.0369
 21
1.28134
  0
LINE
  8
0
 10
-8.0369
 20
1.28134
 11
-8.77817
 21
1.39876
  0
LINE
  8
0
 10
-8.77817
 20
1.39876
 11
-9.51944
 21
1.28134
  0
LINE
  8
0
 10
-9.51944
 20
1.28134
 11
-10.1881
 21
0.940643
  0
LINE
  8
0
 10
-10.1881
 20
0.940643
 11
-10.7188
 21
0.409927
  0
LINE
  8
0
 10
-10.7188
 20
0.409927
 11
-11.0595
 21
-0.258728
  0
LINE
  8
0
 10
-11.0595
 20
-0.258728
 11
-11.1769
 21
-1
  0
LINE
  8
0
 10
-11.1769
 20
-1
 11
-11.0595
 21
-1.74127
  0
LINE
  8
0
 10
-11.0595
 20
-1.74127
 11
-10.7188
 21
-2.40993
  0
LINE
  8
0
 10
-10.7188
 20
-2.40993
 11
-10.1881
 21
-2.94064
  0
LINE
  8
0
 10
-10.1881
 20
-2.94064
 11
-9.51944
 21
-3.28134
  0
LINE
  8
0
 10
-9.51944
 20
-3.28134
 11
-8.77817
 21
-3.39876
  0
LINE
  8
0
 10
-8.77817
 20
-3.39876
 11
-8.0369
 21
-3.28134
  0
LINE
  8
0
 10
37.4563
 20
-0.100006
 11
35.1563
 21
-0.100006
  0
LINE
  8
0
 10
35.1563
 20
-0.100006
 11
35.1563
 21
-6.49216
  0
LINE
  8
0
 10
35.1563
 20
-6.49216
 11
35.275
 21
-7.24127
  0
LINE
  8
0
 10
35.275
 20
-7.24127
 11
35.6157
 21
-7.90993
  0
LINE
  8
0
 10
35.6157
 20
-7.90993
 11
36.1464
 21
-8.44064
  0
LINE
  8
0
 10
36.1464
 20
-8.44064
 11
36.8151
 21
-8.78134
  0
LINE
  8
0
 10
36.8151
 20
-8.78134
 11
37.4563
 21
-8.88292
  0
LINE
  8
0
 10
37.4563
 20
-8.88292
 11
37.4563
 21
-0.100006
  0
LINE
  8
0
 10
32.3214
 20
-8.79161
 11
32.8752
 21
-7.70479
  0
LINE
  8
0
 10
32.8752
 20
-7.70479
 11
33.066
 21
-6.5
  0
LINE
  8
0
 10
33.066
 20
-6.5
 11
32.8752
 21
-5.29521
  0
LINE
  8
0
 10
32.8752
 20
-5.29521
 11
32.3214
 21
-4.20839
  0
LINE
  8
0
 10
32.3214
 20
-4.20839
 11
32.213
 21
-4.10001
  0
LINE
  8
0
 10
32.213
 20
-4.10001
 11
29.1751
 21
-4.10001
  0
LINE
  8
0
 10
29.1751
 20
-4.10001
 11
28.426
 21
-4.21866
  0
LINE
  8
0
 10
28.426
 20
-4.21866
 11
27.7573
 21
-4.55936
  0
LINE
  8
0
 10
27.7573
 20
-4.55936
 11
27.2266
 21
-5.09007
  0
LINE
  8
0
 10
27.2266
 20
-5.09007
 11
26.8859
 21
-5.75873
  0
LINE
  8
0
 10
26.8859
 20
-5.75873
 11
26.7685
 21
-6.5
  0
LINE
  8
0
 10
26.7685
 20
-6.5
 11
26.8859
 21
-7.24127
  0
LINE
  8
0
 10
26.8859
 20
-7.24127
 11
27.2266
 21
-7.90993
  0
LINE
  8
0
 10
27.2266
 20
-7.90993
 11
27.7573
 21
-8.44064
  0
LINE
  8
0
 10
27.7573
 20
-8.44064
 11
28.426
 21
-8.78134
  0
LINE
  8
0
 10
28.426
 20
-8.78134
 11
29.1751
 21
-8.89999
  0
LINE
  8
0
 10
29.1751
 20
-8.89999
 11
32.213
 21
-8.89999
  0
LINE
  8
0
 10
32.213
 20
-8.89999
 11
32.3214
 21
-8.79161
  0
LINE
  8
0
 10
64.3206
 20
-5.29521
 11
63.7668
 21
-4.20839
  0
LINE
  8
0
 10
63.7668
 20
-4.20839
 11
63.6585
 21
-4.10001
  0
LINE
  8
0
 10
63.6585
 20
-4.10001
 11
60.6205
 21
-4.10001
  0
LINE
  8
0
 10
60.6205
 20
-4.10001
 11
59.8714
 21
-4.21866
  0
LINE
  8
0
 10
59.8714
 20
-4.21866
 11
59.2028
 21
-4.55936
  0
LINE
  8
0
 10
59.2028
 20
-4.55936
 11
58.672
 21
-5.09007
  0
LINE
  8
0
 10
58.672
 20
-5.09007
 11
58.3867
 21
-5.64999
  0
LINE
  8
0
 10
58.3867
 20
-5.64999
 11
64.3768
 21
-5.64999
  0
LINE
  8
0
 10
64.3768
 20
-5.64999
 11
64.3206
 21
-5.29521
  0
LINE
  8
0
 10
-0.389084
 20
-4.10124
 11
-1.13036
 21
-4.21866
  0
LINE
  8
0
 10
-1.13036
 20
-4.21866
 11
-1.79901
 21
-4.55936
  0
LINE
  8
0
 10
-1.79901
 20
-4.55936
 11
-2.32973
 21
-5.09007
  0
LINE
  8
0
 10
-2.32973
 20
-5.09007
 11
-2.67043
 21
-5.75873
  0
LINE
  8
0
 10
-2.67043
 20
-5.75873
 11
-2.78908
 21
-6.50784
  0
LINE
  8
0
 10
-2.78908
 20
-6.50784
 11
-2.78908
 21
-9.54578
  0
LINE
  8
0
 10
-2.78908
 20
-9.54578
 11
-2.68069
 21
-9.65416
  0
LINE
  8
0
 10
-2.68069
 20
-9.65416
 11
-1.59387
 21
-10.2079
  0
LINE
  8
0
 10
-1.59387
 20
-10.2079
 11
-0.389084
 21
-10.3988
  0
LINE
  8
0
 10
-0.389084
 20
-10.3988
 11
-0.389084
 21
-4.10124
  0
LINE
  8
0
 10
4.74126
 20
-8.78134
 11
5.40991
 21
-8.44064
  0
LINE
  8
0
 10
5.40991
 20
-8.44064
 11
5.94063
 21
-7.90993
  0
LINE
  8
0
 10
5.94063
 20
-7.90993
 11
6.28133
 21
-7.24127
  0
LINE
  8
0
 10
6.28133
 20
-7.24127
 11
6.39874
 21
-6.5
  0
LINE
  8
0
 10
6.39874
 20
-6.5
 11
6.28133
 21
-5.75873
  0
LINE
  8
0
 10
6.28133
 20
-5.75873
 11
5.94063
 21
-5.09007
  0
LINE
  8
0
 10
5.94063
 20
-5.09007
 11
5.40991
 21
-4.55936
  0
LINE
  8
0
 10
5.40991
 20
-4.55936
 11
4.74126
 21
-4.21866
  0
LINE
  8
0
 10
4.74126
 20
-4.21866
 11
3.99998
 21
-4.10124
  0
LINE
  8
0
 10
3.99998
 20
-4.10124
 11
3.25871
 21
-4.21866
  0
LINE
  8
0
 10
3.25871
 20
-4.21866
 11
2.59006
 21
-4.55936
  0
LINE
  8
0
 10
2.59006
 20
-4.55936
 11
2.05934
 21
-5.09007
  0
LINE
  8
0
 10
2.05934
 20
-5.09007
 11
1.71864
 21
-5.75873
  0
LINE
  8
0
 10
1.71864
 20
-5.75873
 11
1.60123
 21
-6.5
  0
LINE
  8
0
 10
1.60123
 20
-6.5
 11
1.71864
 21
-7.24127
  0
LINE
  8
0
 10
1.71864
 20
-7.24127
 11
2.05934
 21
-7.90993
  0
LINE
  8
0
 10
2.05934
 20
-7.90993
 11
2.59006
 21
-8.44064
  0
LINE
  8
0
 10
2.59006
 20
-8.44064
 11
3.25871
 21
-8.78134
  0
LINE
  8
0
 10
3.25871
 20
-8.78134
 11
3.99998
 21
-8.89876
  0
LINE
  8
0
 10
3.99998
 20
-8.89876
 11
4.74126
 21
-8.78134
  0
LINE
  8
0
 10
13.1303
 20
-8.78134
 11
13.799
 21
-8.44064
  0
LINE
  8
0
 10
13.799
 20
-8.44064
 11
14.3297
 21
-7.90993
  0
LINE
  8
0
 10
14.3297
 20
-7.90993
 11
14.6704
 21
-7.24127
  0
LINE
  8
0
 10
14.6704
 20
-7.24127
 11
14.7878
 21
-6.5
  0
LINE
  8
0
 10
14.7878
 20
-6.5
 11
14.6704
 21
-5.75873
  0
LINE
  8
0
 10
14.6704
 20
-5.75873
 11
14.3297
 21
-5.09007
  0
LINE
  8
0
 10
14.3297
 20
-5.09007
 11
13.799
 21
-4.55936
  0
LINE
  8
0
 10
13.799
 20
-4.55936
 11
13.1303
 21
-4.21866
  0
LINE
  8
0
 10
13.1303
 20
-4.21866
 11
12.3891
 21
-4.10124
  0
LINE
  8
0
 10
12.3891
 20
-4.10124
 11
11.6478
 21
-4.21866
  0
LINE
  8
0
 10
11.6478
 20
-4.21866
 11
10.9791
 21
-4.55936
  0
LINE
  8
0
 10
10.9791
 20
-4.55936
 11
10.4484
 21
-5.09007
  0
LINE
  8
0
 10
10.4484
 20
-5.09007
 11
10.1077
 21
-5.75873
  0
LINE
  8
0
 10
10.1077
 20
-5.75873
 11
9.99031
 21
-6.5
  0
LINE
  8
0
 10
9.99031
 20
-6.5
 11
10.1077
 21
-7.24127
  0
LINE
  8
0
 10
10.1077
 20
-7.24127
 11
10.4484
 21
-7.90993
  0
LINE
  8
0
 10
10.4484
 20
-7.90993
 11
10.9791
 21
-8.44064
  0
LINE
  8
0
 10
10.9791
 20
-8.44064
 11
11.6478
 21
-8.78134
  0
LINE
  8
0
 10
11.6478
 20
-8.78134
 11
12.3891
 21
-8.89876
  0
LINE
  8
0
 10
12.3891
 20
-8.89876
 11
13.1303
 21
-8.78134
  0
LINE
  8
0
 10
44.5758
 20
-8.78134
 11
45.2444
 21
-8.44064
  0
LINE
  8
0
 10
45.2444
 20
-8.44064
 11
45.7751
 21
-7.90993
  0
LINE
  8
0
 10
45.7751
 20
-7.90993
 11
46.1158
 21
-7.24127
  0
LINE
  8
0
 10
46.1158
 20
-7.24127
 11
46.2333
 21
-6.5
  0
LINE
  8
0
 10
46.2333
 20
-6.5
 11
46.1158
 21
-5.75873
  0
LINE
  8
0
 10
46.1158
 20
-5.75873
 11
45.7751
 21
-5.09007
  0
LINE
  8
0
 10
45.7751
 20
-5.09007
 11
45.2444
 21
-4.55936
  0
LINE
  8
0
 10
45.2444
 20
-4.55936
 11
44.5758
 21
-4.21866
  0
LINE
  8
0
 10
44.5758
 20
-4.21866
 11
43.8345
 21
-4.10124
  0
LINE
  8
0
 10
43.8345
 20
-4.10124
 11
43.0932
 21
-4.21866
  0
LINE
  8
0
 10
43.0932
 20
-4.21866
 11
42.4246
 21
-4.55936
  0
LINE
  8
0
 10
42.4246
 20
-4.55936
 11
41.8939
 21
-5.09007
  0
LINE
  8
0
 10
41.8939
 20
-5.09007
 11
41.5532
 21
-5.75873
  0
LINE
  8
0
 10
41.5532
 20
-5.75873
 11
41.4357
 21
-6.5
  0
LINE
  8
0
 10
41.4357
 20
-6.5
 11
41.5532
 21
-7.24127
  0
LINE
  8
0
 10
41.5532
 20
-7.24127
 11
41.8939
 21
-7.90993
  0
LINE
  8
0
 10
41.8939
 20
-7.90993
 11
42.4246
 21
-8.44064
  0
LINE
  8
0
 10
42.4246
 20
-8.44064
 11
43.0932
 21
-8.78134
  0
LINE
  8
0
 10
43.0932
 20
-8.78134
 11
43.8345
 21
-8.89876
  0
LINE
  8
0
 10
43.8345
 20
-8.89876
 11
44.5758
 21
-8.78134
  0
LINE
  8
0
 10
53.4284
 20
-10.2079
 11
54.5152
 21
-9.65416
  0
LINE
  8
0
 10
54.5152
 20
-9.65416
 11
54.6236
 21
-9.54578
  0
LINE
  8
0
 10
54.6236
 20
-9.54578
 11
54.6236
 21
-6.50784
  0
LINE
  8
0
 10
54.6236
 20
-6.50784
 11
54.5049
 21
-5.75873
  0
LINE
  8
0
 10
54.5049
 20
-5.75873
 11
54.1642
 21
-5.09007
  0
LINE
  8
0
 10
54.1642
 20
-5.09007
 11
53.6335
 21
-4.55936
  0
LINE
  8
0
 10
53.6335
 20
-4.55936
 11
52.9649
 21
-4.21866
  0
LINE
  8
0
 10
52.9649
 20
-4.21866
 11
52.2236
 21
-4.10124
  0
LINE
  8
0
 10
52.2236
 20
-4.10124
 11
51.4823
 21
-4.21866
  0
LINE
  8
0
 10
51.4823
 20
-4.21866
 11
50.8137
 21
-4.55936
  0
LINE
  8
0
 10
50.8137
 20
-4.55936
 11
50.283
 21
-5.09007
  0
LINE
  8
0
 10
50.283
 20
-5.09007
 11
49.9423
 21
-5.75873
  0
LINE
  8
0
 10
49.9423
 20
-5.75873
 11
49.8236
 21
-6.50784
  0
LINE
  8
0
 10
49.8236
 20
-6.50784
 11
49.8236
 21
-9.54578
  0
LINE
  8
0
 10
49.8236
 20
-9.54578
 11
49.932
 21
-9.65416
  0
LINE
  8
0
 10
49.932
 20
-9.65416
 11
51.0188
 21
-10.2079
  0
LINE
  8
0
 10
51.0188
 20
-10.2079
 11
52.2236
 21
-10.3988
  0
LINE
  8
0
 10
52.2236
 20
-10.3988
 11
53.4284
 21
-10.2079
  0
LINE
  8
0
 10
61.354
 20
-8.78134
 11
62.0226
 21
-8.44064
  0
LINE
  8
0
 10
62.0226
 20
-8.44064
 11
62.5533
 21
-7.90993
  0
LINE
  8
0
 10
62.5533
 20
-7.90993
 11
62.8386
 21
-7.35001
  0
LINE
  8
0
 10
62.8386
 20
-7.35001
 11
56.8486
 21
-7.35001
  0
LINE
  8
0
 10
56.8486
 20
-7.35001
 11
56.9048
 21
-7.70479
  0
LINE
  8
0
 10
56.9048
 20
-7.70479
 11
57.4585
 21
-8.79161
  0
LINE
  8
0
 10
57.4585
 20
-8.79161
 11
57.5669
 21
-8.89999
  0
LINE
  8
0
 10
57.5669
 20
-8.89999
 11
60.6048
 21
-8.89999
  0
LINE
  8
0
 10
60.6048
 20
-8.89999
 11
61.354
 21
-8.78134
  0
ENDSEC
  0
SECTION
  2
OBJECTS
  0
DICTIONARY
  0
ENDSEC
  0
EOF
