<?xml version="1.0" encoding="UTF-8" standalone="no"?>
<svg
   width="79mm"
   height="21mm"
   viewBox="-13 -12 79 21"
   version="1.1"
   id="svg136"
   sodipodi:docname="BoneProductionsLogo_230320_DNK.svg"
   inkscape:export-filename="BoneProductionsLogo_230320_DNK.png"
   inkscape:export-xdpi="505.47162"
   inkscape:export-ydpi="505.47162"
   inkscape:version="1.2 (dc2aedaf03, 2022-05-15)"
   xmlns:inkscape="http://www.inkscape.org/namespaces/inkscape"
   xmlns:sodipodi="http://sodipodi.sourceforge.net/DTD/sodipodi-0.dtd"
   xmlns:xlink="http://www.w3.org/1999/xlink"
   xmlns="http://www.w3.org/2000/svg"
   xmlns:svg="http://www.w3.org/2000/svg">
  <defs
     id="defs140">
    <linearGradient
       id="linearGradient3328">
      <stop
         style="stop-color:#262525;stop-opacity:1;"
         offset="0"
         id="stop3326" />
    </linearGradient>
    <linearGradient
       id="linearGradient3310"
       inkscape:swatch="solid">
      <stop
         style="stop-color:#1a1a1a;stop-opacity:1;"
         offset="0"
         id="stop3308" />
    </linearGradient>
    <linearGradient
       id="BlackBodyCol"
       inkscape:swatch="solid">
      <stop
         style="stop-color:#262525;stop-opacity:1;"
         offset="0"
         id="stop1049" />
    </linearGradient>
    <linearGradient
       id="Bone"
       inkscape:swatch="solid">
      <stop
         style="stop-color:#124c1e;stop-opacity:1;"
         offset="0"
         id="stop1043" />
    </linearGradient>
    <linearGradient
       id="Gold"
       inkscape:swatch="solid">
      <stop
         style="stop-color:#dbbc7e;stop-opacity:1;"
         offset="0"
         id="stop1037" />
    </linearGradient>
    <linearGradient
       id="Stroke"
       inkscape:swatch="solid">
      <stop
         style="stop-color:#262525;stop-opacity:1;"
         offset="0"
         id="stop1031" />
    </linearGradient>
    <linearGradient
       inkscape:collect="always"
       xlink:href="#Gold"
       id="linearGradient1041"
       x1="-11.3799"
       y1="1"
       x2="-6.62006"
       y2="1"
       gradientUnits="userSpaceOnUse" />
    <linearGradient
       inkscape:collect="always"
       xlink:href="#Gold"
       id="linearGradient1053"
       x1="-2.8800001"
       y1="5.3099999"
       x2="-0.5"
       y2="5.3099999"
       gradientUnits="userSpaceOnUse" />
    <linearGradient
       inkscape:collect="always"
       xlink:href="#Bone"
       id="linearGradient1062"
       gradientUnits="userSpaceOnUse" />
    <linearGradient
       inkscape:collect="always"
       xlink:href="#Stroke"
       id="linearGradient1850"
       gradientUnits="userSpaceOnUse" />
    <linearGradient
       inkscape:collect="always"
       xlink:href="#Stroke"
       id="linearGradient3314" />
    <linearGradient
       inkscape:collect="always"
       xlink:href="#Stroke"
       id="linearGradient3316" />
    <linearGradient
       inkscape:collect="always"
       xlink:href="#Stroke"
       id="linearGradient3318" />
    <linearGradient
       inkscape:collect="always"
       xlink:href="#Stroke"
       id="linearGradient3320" />
    <linearGradient
       inkscape:collect="always"
       xlink:href="#Stroke"
       id="linearGradient3322"
       gradientUnits="userSpaceOnUse"
       x1="-13"
       y1="5.24131"
       x2="-11.5"
       y2="5.24131" />
    <linearGradient
       inkscape:collect="always"
       xlink:href="#Stroke"
       id="linearGradient3355"
       gradientUnits="userSpaceOnUse" />
    <linearGradient
       inkscape:collect="always"
       xlink:href="#Stroke"
       id="linearGradient3357"
       gradientUnits="userSpaceOnUse"
       x1="-13"
       y1="0.99998164"
       x2="-4.9999714"
       y2="0.99998164" />
  </defs>
  <sodipodi:namedview
     id="namedview138"
     pagecolor="#ffffff"
     bordercolor="#666666"
     borderopacity="1.0"
     inkscape:showpageshadow="2"
     inkscape:pageopacity="0.0"
     inkscape:pagecheckerboard="0"
     inkscape:deskcolor="#d1d1d1"
     inkscape:document-units="mm"
     showgrid="false"
     inkscape:zoom="5.3502769"
     inkscape:cx="149.61842"
     inkscape:cy="96.2567"
     inkscape:window-width="2473"
     inkscape:window-height="2022"
     inkscape:window-x="6"
     inkscape:window-y="16"
     inkscape:window-maximized="0"
     inkscape:current-layer="svg136" />
  <title
     id="title132">OpenSCAD Model</title>
  <path
     id="path951"
     style="stroke-width:0;stroke-dasharray:none;fill:url(#Stroke);fill-opacity:1"
     d="M 3.9999959 -8.0002441 L 3.7488485 -7.9919759 L 3.4987345 -7.9682048 L 3.2506877 -7.9289307 L 3.0052246 -7.8741536 L 2.7638957 -7.8043905 L 2.5277344 -7.7191243 L 2.2967407 -7.6193888 L 2.0729818 -7.5051839 L 1.8564575 -7.3775431 L 1.6487183 -7.2359497 L 1.4502808 -7.0819539 L 1.2616618 -6.9160726 L 1.0838949 -6.7383057 L 0.91801351 -6.5496867 L 0.76401774 -6.3512492 L 0.62294108 -6.1435099 L 0.49478353 -5.9269857 L 0.38057861 -5.7032267 L 0.2808431 -5.4722331 L 0.19557699 -5.2360718 L 0.1258138 -4.9947428 L 0.071036784 -4.7492798 L 0.031762695 -4.5012329 L 0.0079915365 -4.251119 L 0.00024007161 -3.9999715 L 0.0079915365 -3.7488241 L 0.031762695 -3.4987101 L 0.071036784 -3.2506632 L 0.1258138 -3.0052002 L 0.19557699 -2.7638713 L 0.2808431 -2.52771 L 0.38057861 -2.2967163 L 0.49478353 -2.0729574 L 0.62294108 -1.8569499 L 0.76401774 -1.6486938 L 0.91801351 -1.4502563 L 1.0838949 -1.2616374 L 1.2616618 -1.0843872 L 1.4502808 -0.9179891 L 1.6487183 -0.76399333 L 1.8564575 -0.62291667 L 2.0729818 -0.49475911 L 2.2967407 -0.3805542 L 2.5277344 -0.28081868 L 2.7638957 -0.19555257 L 3.0052246 -0.12578939 L 3.2506877 -0.07101237 L 3.4987345 -0.031738281 L 3.7488485 -0.0079671224 L 3.9999959 -0.00021565755 L 4.2511434 -0.0079671224 L 4.5012573 -0.031738281 L 4.7493042 -0.07101237 L 4.9947673 -0.12578939 L 5.2360962 -0.19555257 L 5.4722575 -0.28081868 L 5.7032511 -0.3805542 L 5.9270101 -0.49475911 L 6.1435343 -0.62291667 L 6.3512736 -0.76399333 L 6.5497111 -0.9179891 L 6.7383301 -1.0843872 L 6.916097 -1.2616374 L 7.0819784 -1.4502563 L 7.2359741 -1.6486938 L 7.3770508 -1.8569499 L 7.5052083 -2.0729574 L 7.6194132 -2.2967163 L 7.7191488 -2.52771 L 7.8044149 -2.7638713 L 7.8741781 -3.0052002 L 7.9289551 -3.2506632 L 7.9682292 -3.4987101 L 7.9920003 -3.7488241 L 7.9997518 -3.9999715 L 7.9920003 -4.251119 L 7.9682292 -4.5012329 L 7.9289551 -4.7492798 L 7.8741781 -4.9947428 L 7.8044149 -5.2360718 L 7.7191488 -5.4722331 L 7.6194132 -5.7032267 L 7.5052083 -5.9269857 L 7.3770508 -6.1435099 L 7.2359741 -6.3512492 L 7.0819784 -6.5496867 L 6.916097 -6.7383057 L 6.7383301 -6.9160726 L 6.5497111 -7.0819539 L 6.3512736 -7.2359497 L 6.1435343 -7.3775431 L 5.9270101 -7.5051839 L 5.7032511 -7.6193888 L 5.4722575 -7.7191243 L 5.2360962 -7.8043905 L 4.9947673 -7.8741536 L 4.7493042 -7.9289307 L 4.5012573 -7.9682048 L 4.2511434 -7.9919759 L 3.9999959 -8.0002441 z M 3.9999959 -6.5000773 L 4.1570923 -6.4949097 L 4.3131551 -6.4804403 L 4.4681844 -6.4556356 L 4.6216634 -6.4215291 L 4.7725586 -6.3776042 L 4.9203532 -6.3243774 L 5.0645304 -6.261849 L 5.2045736 -6.1905355 L 5.3394491 -6.1109538 L 5.4696737 -6.0225871 L 5.5936971 -5.9264689 L 5.7115194 -5.8225993 L 5.8226237 -5.711495 L 5.9264933 -5.5936727 L 6.0226115 -5.4696493 L 6.1109782 -5.3394246 L 6.1905599 -5.2045492 L 6.2618734 -5.064506 L 6.3244019 -4.9203288 L 6.3776286 -4.7725342 L 6.4215535 -4.621639 L 6.45566 -4.4686768 L 6.4804647 -4.3131307 L 6.4949341 -4.1570679 L 6.5001017 -3.9999715 L 6.4949341 -3.8428752 L 6.4804647 -3.6868123 L 6.45566 -3.531783 L 6.4215535 -3.378304 L 6.3776286 -3.2274089 L 6.3244019 -3.0796143 L 6.2618734 -2.935437 L 6.1905599 -2.7953939 L 6.1109782 -2.6605184 L 6.0226115 -2.5302938 L 5.9264933 -2.4062703 L 5.8226237 -2.2884481 L 5.7115194 -2.1773438 L 5.5936971 -2.0734741 L 5.4696737 -1.977356 L 5.3394491 -1.8889893 L 5.2045736 -1.8094076 L 5.0645304 -1.7380941 L 4.9203532 -1.6755656 L 4.7725586 -1.6223389 L 4.6216634 -1.5784139 L 4.4681844 -1.5443075 L 4.3131551 -1.5195028 L 4.1570923 -1.5050334 L 3.9999959 -1.4998657 L 3.8428996 -1.5050334 L 3.6868368 -1.5195028 L 3.5318075 -1.5443075 L 3.3783285 -1.5784139 L 3.2274333 -1.6223389 L 3.0796387 -1.6755656 L 2.9354614 -1.7380941 L 2.7954183 -1.8094076 L 2.6605428 -1.8889893 L 2.5303182 -1.977356 L 2.4062948 -2.0734741 L 2.2884725 -2.1773438 L 2.1773682 -2.2884481 L 2.0734985 -2.4062703 L 1.9773804 -2.5302938 L 1.8890137 -2.6605184 L 1.809432 -2.7953939 L 1.7381185 -2.935437 L 1.67559 -3.0796143 L 1.6223633 -3.2274089 L 1.5784383 -3.378304 L 1.5443319 -3.531783 L 1.5195272 -3.6868123 L 1.5050578 -3.8428752 L 1.4998901 -3.9999715 L 1.5050578 -4.1570679 L 1.5195272 -4.3131307 L 1.5443319 -4.4686768 L 1.5784383 -4.621639 L 1.6223633 -4.7725342 L 1.67559 -4.9203288 L 1.7381185 -5.064506 L 1.809432 -5.2045492 L 1.8890137 -5.3394246 L 1.9773804 -5.4696493 L 2.0734985 -5.5936727 L 2.1773682 -5.711495 L 2.2884725 -5.8225993 L 2.4062948 -5.9264689 L 2.5303182 -6.0225871 L 2.6605428 -6.1109538 L 2.7954183 -6.1905355 L 2.9354614 -6.261849 L 3.0796387 -6.3243774 L 3.2274333 -6.3776042 L 3.3783285 -6.4215291 L 3.5318075 -6.4556356 L 3.6868368 -6.4804403 L 3.8428996 -6.4949097 L 3.9999959 -6.5000773 z " />
  <path
     id="path957"
     style="stroke-width:0;stroke-dasharray:none;fill:url(#Stroke)"
     d="M 12.500252 -8.0002441 L 12.248588 -7.9919759 L 11.998474 -7.9682048 L 11.750427 -7.9289307 L 11.504964 -7.8741536 L 11.264152 -7.8043905 L 11.027474 -7.7191243 L 10.796997 -7.6193888 L 10.573238 -7.5051839 L 10.356714 -7.3775431 L 10.148975 -7.2359497 L 9.9505371 -7.0819539 L 9.7619181 -6.9160726 L 9.5841512 -6.7383057 L 9.4177531 -6.5496867 L 9.2637573 -6.3512492 L 9.1226807 -6.1435099 L 8.9945231 -5.9269857 L 8.880835 -5.7032267 L 8.7810994 -5.4722331 L 8.6958333 -5.2360718 L 8.6255534 -4.9947428 L 8.5707764 -4.7492798 L 8.5315023 -4.5012329 L 8.5077311 -4.251119 L 8.4999797 -3.9999715 L 8.5077311 -3.7488241 L 8.5315023 -3.4987101 L 8.5707764 -3.2506632 L 8.6255534 -3.0052002 L 8.6958333 -2.7638713 L 8.7810994 -2.52771 L 8.880835 -2.2967163 L 8.9945231 -2.0729574 L 9.1226807 -1.8569499 L 9.2637573 -1.6486938 L 9.4177531 -1.4502563 L 9.5841512 -1.2616374 L 9.7619181 -1.0843872 L 9.9505371 -0.9179891 L 10.148975 -0.76399333 L 10.356714 -0.62291667 L 10.573238 -0.49475911 L 10.796997 -0.3805542 L 11.027474 -0.28081868 L 11.264152 -0.19555257 L 11.504964 -0.12578939 L 11.750427 -0.07101237 L 11.998474 -0.031738281 L 12.248588 -0.0079671224 L 12.500252 -0.00021565755 L 12.7514 -0.0079671224 L 13.001514 -0.031738281 L 13.249561 -0.07101237 L 13.495024 -0.12578939 L 13.736353 -0.19555257 L 13.972514 -0.28081868 L 14.202991 -0.3805542 L 14.42675 -0.49475911 L 14.643274 -0.62291667 L 14.851013 -0.76399333 L 15.049451 -0.9179891 L 15.23807 -1.0843872 L 15.415837 -1.2616374 L 15.582235 -1.4502563 L 15.73623 -1.6486938 L 15.877307 -1.8569499 L 16.004948 -2.0729574 L 16.119153 -2.2967163 L 16.218888 -2.52771 L 16.304154 -2.7638713 L 16.374434 -3.0052002 L 16.429211 -3.2506632 L 16.468486 -3.4987101 L 16.492257 -3.7488241 L 16.500008 -3.9999715 L 16.492257 -4.251119 L 16.468486 -4.5012329 L 16.429211 -4.7492798 L 16.374434 -4.9947428 L 16.304154 -5.2360718 L 16.218888 -5.4722331 L 16.119153 -5.7032267 L 16.004948 -5.9269857 L 15.877307 -6.1435099 L 15.73623 -6.3512492 L 15.582235 -6.5496867 L 15.415837 -6.7383057 L 15.23807 -6.9160726 L 15.049451 -7.0819539 L 14.851013 -7.2359497 L 14.643274 -7.3775431 L 14.42675 -7.5051839 L 14.202991 -7.6193888 L 13.972514 -7.7191243 L 13.736353 -7.8043905 L 13.495024 -7.8741536 L 13.249561 -7.9289307 L 13.001514 -7.9682048 L 12.7514 -7.9919759 L 12.500252 -8.0002441 z M 12.500252 -6.5000773 L 12.656832 -6.4949097 L 12.813411 -6.4804403 L 12.968441 -6.4556356 L 13.12192 -6.4215291 L 13.272298 -6.3776042 L 13.420093 -6.3243774 L 13.56427 -6.261849 L 13.704313 -6.1905355 L 13.839705 -6.1109538 L 13.969413 -6.0225871 L 14.093437 -5.9264689 L 14.211259 -5.8225993 L 14.322363 -5.711495 L 14.426233 -5.5936727 L 14.522351 -5.4696493 L 14.610718 -5.3394246 L 14.690816 -5.2045492 L 14.76213 -5.064506 L 14.824658 -4.9203288 L 14.877368 -4.7725342 L 14.921293 -4.621639 L 14.955916 -4.4686768 L 14.980204 -4.3131307 L 14.99519 -4.1570679 L 14.999841 -3.9999715 L 14.99519 -3.8428752 L 14.980204 -3.6868123 L 14.955916 -3.531783 L 14.921293 -3.378304 L 14.877368 -3.2274089 L 14.824658 -3.0796143 L 14.76213 -2.935437 L 14.690816 -2.7953939 L 14.610718 -2.6605184 L 14.522351 -2.5302938 L 14.426233 -2.4062703 L 14.322363 -2.2884481 L 14.211259 -2.1773438 L 14.093437 -2.0734741 L 13.969413 -1.977356 L 13.839705 -1.8889893 L 13.704313 -1.8094076 L 13.56427 -1.7380941 L 13.420093 -1.6755656 L 13.272298 -1.6223389 L 13.12192 -1.5784139 L 12.968441 -1.5443075 L 12.813411 -1.5195028 L 12.656832 -1.5050334 L 12.500252 -1.4998657 L 12.343156 -1.5050334 L 12.186576 -1.5195028 L 12.031547 -1.5443075 L 11.878068 -1.5784139 L 11.72769 -1.6223389 L 11.579895 -1.6755656 L 11.435718 -1.7380941 L 11.295675 -1.8094076 L 11.160282 -1.8889893 L 11.030575 -1.977356 L 10.906551 -2.0734741 L 10.788729 -2.1773438 L 10.677625 -2.2884481 L 10.573755 -2.4062703 L 10.477637 -2.5302938 L 10.38927 -2.6605184 L 10.309172 -2.7953939 L 10.237858 -2.935437 L 10.175846 -3.0796143 L 10.12262 -3.2274089 L 10.078695 -3.378304 L 10.044071 -3.531783 L 10.019784 -3.6868123 L 10.004797 -3.8428752 L 10.000146 -3.9999715 L 10.004797 -4.1570679 L 10.019784 -4.3131307 L 10.044071 -4.4686768 L 10.078695 -4.621639 L 10.12262 -4.7725342 L 10.175846 -4.9203288 L 10.237858 -5.064506 L 10.309172 -5.2045492 L 10.38927 -5.3394246 L 10.477637 -5.4696493 L 10.573755 -5.5936727 L 10.677625 -5.711495 L 10.788729 -5.8225993 L 10.906551 -5.9264689 L 11.030575 -6.0225871 L 11.160282 -6.1109538 L 11.295675 -6.1905355 L 11.435718 -6.261849 L 11.579895 -6.3243774 L 11.72769 -6.3776042 L 11.878068 -6.4215291 L 12.031547 -6.4556356 L 12.186576 -6.4804403 L 12.343156 -6.4949097 L 12.500252 -6.5000773 z " />
  <path
     id="path963"
     style="stroke-width:0;stroke-dasharray:none;fill:url(#Stroke)"
     d="M 29.500248 -8.0002441 L 29.248584 -7.9919759 L 28.99847 -7.9682048 L 28.750423 -7.9289307 L 28.50496 -7.8741536 L 28.264148 -7.8043905 L 28.02747 -7.7191243 L 27.796993 -7.6193888 L 27.573234 -7.5051839 L 27.35671 -7.3775431 L 27.148971 -7.2359497 L 26.950533 -7.0819539 L 26.761914 -6.9160726 L 26.584147 -6.7383057 L 26.417749 -6.5496867 L 26.263753 -6.3512492 L 26.122677 -6.1435099 L 25.995036 -5.9269857 L 25.880831 -5.7032267 L 25.781095 -5.4722331 L 25.695829 -5.2360718 L 25.625549 -4.9947428 L 25.570772 -4.7492798 L 25.531498 -4.5012329 L 25.507727 -4.251119 L 25.499976 -3.9999715 L 25.507727 -3.7488241 L 25.531498 -3.4987101 L 25.570772 -3.2506632 L 25.625549 -3.0052002 L 25.695829 -2.7638713 L 25.781095 -2.52771 L 25.880831 -2.2967163 L 25.995036 -2.0729574 L 26.122677 -1.8569499 L 26.263753 -1.6486938 L 26.417749 -1.4502563 L 26.584147 -1.2616374 L 26.761914 -1.0843872 L 26.950533 -0.9179891 L 27.148971 -0.76399333 L 27.35671 -0.62291667 L 27.573234 -0.49475911 L 27.796993 -0.3805542 L 28.02747 -0.28081868 L 28.264148 -0.19555257 L 28.50496 -0.12578939 L 28.750423 -0.07101237 L 28.99847 -0.031738281 L 29.248584 -0.0079671224 L 29.500248 -0.00021565755 L 29.751396 -0.0079671224 L 30.00151 -0.031738281 L 30.249556 -0.07101237 L 30.49502 -0.12578939 L 30.736348 -0.19555257 L 30.97251 -0.28081868 L 31.202987 -0.3805542 L 31.426746 -0.49475911 L 31.64327 -0.62291667 L 31.851009 -0.76399333 L 32.049447 -0.9179891 L 32.238066 -1.0843872 L 32.415833 -1.2616374 L 32.582231 -1.4502563 L 32.620471 -1.4998657 L 29.500248 -1.4998657 L 29.343152 -1.5050334 L 29.186572 -1.5195028 L 29.031543 -1.5443075 L 28.878064 -1.5784139 L 28.727686 -1.6223389 L 28.579891 -1.6755656 L 28.435714 -1.7380941 L 28.295671 -1.8094076 L 28.160278 -1.8889893 L 28.03057 -1.977356 L 27.906547 -2.0734741 L 27.788725 -2.1773438 L 27.67762 -2.2884481 L 27.573751 -2.4062703 L 27.477633 -2.5302938 L 27.389266 -2.6605184 L 27.309167 -2.7953939 L 27.237854 -2.935437 L 27.175842 -3.0796143 L 27.122616 -3.2274089 L 27.115898 -3.2501465 L 33.429207 -3.2501465 L 33.429207 -3.2506632 L 33.468481 -3.4987101 L 33.492253 -3.7488241 L 33.500004 -3.9999715 L 33.492253 -4.251119 L 33.468481 -4.5012329 L 33.429207 -4.7492798 L 33.37443 -4.9947428 L 33.30415 -5.2360718 L 33.218884 -5.4722331 L 33.119149 -5.7032267 L 33.004944 -5.9269857 L 32.877303 -6.1435099 L 32.736226 -6.3512492 L 32.582231 -6.5496867 L 32.415833 -6.7383057 L 32.238066 -6.9160726 L 32.049447 -7.0819539 L 31.851009 -7.2359497 L 31.64327 -7.3775431 L 31.426746 -7.5051839 L 31.202987 -7.6193888 L 30.97251 -7.7191243 L 30.736348 -7.8043905 L 30.49502 -7.8741536 L 30.249556 -7.9289307 L 30.00151 -7.9682048 L 29.751396 -7.9919759 L 29.500248 -8.0002441 z M 29.500248 -6.5000773 L 29.656828 -6.4949097 L 29.813407 -6.4804403 L 29.968437 -6.4556356 L 30.121916 -6.4215291 L 30.272294 -6.3776042 L 30.420089 -6.3243774 L 30.564266 -6.261849 L 30.704309 -6.1905355 L 30.839701 -6.1109538 L 30.969409 -6.0225871 L 31.093433 -5.9264689 L 31.211255 -5.8225993 L 31.322359 -5.711495 L 31.426229 -5.5936727 L 31.522347 -5.4696493 L 31.610714 -5.3394246 L 31.690812 -5.2045492 L 31.762126 -5.064506 L 31.824654 -4.9203288 L 31.877364 -4.7725342 L 31.884082 -4.7497965 L 27.115898 -4.7497965 L 27.122616 -4.7725342 L 27.175842 -4.9203288 L 27.237854 -5.064506 L 27.309167 -5.2045492 L 27.389266 -5.3394246 L 27.477633 -5.4696493 L 27.573751 -5.5936727 L 27.67762 -5.711495 L 27.788725 -5.8225993 L 27.906547 -5.9264689 L 28.03057 -6.0225871 L 28.160278 -6.1109538 L 28.295671 -6.1905355 L 28.435714 -6.261849 L 28.579891 -6.3243774 L 28.727686 -6.3776042 L 28.878064 -6.4215291 L 29.031543 -6.4556356 L 29.186572 -6.4804403 L 29.343152 -6.4949097 L 29.500248 -6.5000773 z " />
  <path
     id="path1007"
     style="stroke-width:0;stroke-dasharray:none;fill:url(#Stroke)"
     d="M 44.499849 0.50001221 L 44.248702 0.50776367 L 43.998588 0.53153483 L 43.750541 0.57080892 L 43.505078 0.62558594 L 43.263749 0.69586589 L 43.027588 0.781132 L 42.797111 0.88086751 L 42.572835 0.99455566 L 42.356828 1.1227132 L 42.149089 1.2637899 L 41.950134 1.4177856 L 41.762032 1.5841838 L 41.584265 1.7619507 L 41.417867 1.9505697 L 41.263871 2.1490072 L 41.122795 2.3567464 L 40.994637 2.5727539 L 40.880949 2.7970296 L 40.780697 3.0275065 L 40.695947 3.2641846 L 40.625667 3.5049967 L 40.57089 3.7504598 L 40.531616 3.9985067 L 40.507845 4.2486206 L 40.500094 4.4997681 L 40.507845 4.7509155 L 40.531616 5.0015462 L 40.57089 5.2495931 L 40.625667 5.4945394 L 40.695947 5.7358683 L 40.780697 5.9725464 L 40.880949 6.2030233 L 40.994637 6.4267822 L 41.122795 6.6433065 L 41.263871 6.8510457 L 41.417867 7.0494832 L 41.584265 7.2381022 L 41.762032 7.4158691 L 41.950134 7.5822673 L 42.149089 7.736263 L 42.356828 7.8773397 L 42.572835 8.0049805 L 42.797111 8.1191854 L 43.027588 8.2189209 L 43.263749 8.304187 L 43.505078 8.374467 L 43.750541 8.429244 L 43.998588 8.4685181 L 44.248702 8.4922892 L 44.499849 8.5000407 L 44.750997 8.4922892 L 45.001111 8.4685181 L 45.249674 8.429244 L 45.494621 8.374467 L 45.73595 8.304187 L 45.972628 8.2189209 L 46.203105 8.1191854 L 46.426864 8.0049805 L 46.643388 7.8773397 L 46.851127 7.736263 L 47.049565 7.5822673 L 47.238184 7.4158691 L 47.415951 7.2381022 L 47.581832 7.0494832 L 47.736344 6.8510457 L 47.877421 6.6433065 L 48.005062 6.4267822 L 48.119267 6.2030233 L 48.219002 5.9725464 L 48.304268 5.7358683 L 48.374548 5.4945394 L 48.429325 5.2495931 L 48.468599 5.0015462 L 48.491854 4.7509155 L 48.500122 4.4997681 L 48.491854 4.2486206 L 48.468599 3.9985067 L 48.429325 3.7504598 L 48.374548 3.5049967 L 48.304268 3.2641846 L 48.219002 3.0275065 L 48.119267 2.7970296 L 48.005062 2.5727539 L 47.877421 2.3567464 L 47.736344 2.1490072 L 47.581832 1.9505697 L 47.415951 1.7619507 L 47.238184 1.5841838 L 47.049565 1.4177856 L 46.851127 1.2637899 L 46.643388 1.1227132 L 46.426864 0.99455566 L 46.203105 0.88086751 L 45.972628 0.781132 L 45.73595 0.69586589 L 45.494621 0.62558594 L 45.249674 0.57080892 L 45.001111 0.53153483 L 44.750997 0.50776367 L 44.499849 0.50001221 z M 44.499849 2.000179 L 44.656946 2.0048299 L 44.813525 2.0198161 L 44.968555 2.044104 L 45.121517 2.0787272 L 45.272412 2.1221354 L 45.420207 2.1753621 L 45.564384 2.2378906 L 45.704427 2.3092041 L 45.839819 2.3893026 L 45.969527 2.4776693 L 46.093551 2.5737874 L 46.211373 2.6776571 L 46.322477 2.7887614 L 46.426347 2.9065837 L 46.522465 3.0306071 L 46.610832 3.1603149 L 46.69093 3.2957072 L 46.762244 3.4357503 L 46.824255 3.5799276 L 46.877482 3.7272054 L 46.921407 3.8781006 L 46.955514 4.0315796 L 46.980318 4.1866089 L 46.995304 4.3431885 L 46.999955 4.4997681 L 46.995304 4.6568644 L 46.980318 4.813444 L 46.955514 4.9684733 L 46.921407 5.1219523 L 46.877482 5.2723307 L 46.824255 5.4201253 L 46.762244 5.5643026 L 46.69093 5.7043457 L 46.610832 5.839738 L 46.522465 5.9694458 L 46.426347 6.0934692 L 46.322477 6.2112915 L 46.211373 6.3223958 L 46.093551 6.4262655 L 45.969527 6.5223836 L 45.839819 6.6107503 L 45.704427 6.6908488 L 45.564384 6.7621623 L 45.420207 6.824174 L 45.272412 6.8774007 L 45.121517 6.9213257 L 44.968555 6.9559489 L 44.813525 6.9802368 L 44.656946 6.995223 L 44.499849 6.9998739 L 44.342753 6.995223 L 44.18669 6.9802368 L 44.031661 6.9559489 L 43.878182 6.9213257 L 43.727287 6.8774007 L 43.579492 6.824174 L 43.435832 6.7621623 L 43.295789 6.6908488 L 43.160396 6.6107503 L 43.030688 6.5223836 L 42.906148 6.4262655 L 42.788843 6.3223958 L 42.677738 6.2112915 L 42.573869 6.0934692 L 42.477751 5.9694458 L 42.389384 5.839738 L 42.309285 5.7043457 L 42.237972 5.5643026 L 42.175444 5.4201253 L 42.122217 5.2723307 L 42.078809 5.1219523 L 42.044185 4.9684733 L 42.019897 4.813444 L 42.004911 4.6568644 L 41.999744 4.4997681 L 42.004911 4.3431885 L 42.019897 4.1866089 L 42.044185 4.0315796 L 42.078809 3.8781006 L 42.122217 3.7272054 L 42.175444 3.5799276 L 42.237972 3.4357503 L 42.309285 3.2957072 L 42.389384 3.1603149 L 42.477751 3.0306071 L 42.573869 2.9065837 L 42.677738 2.7887614 L 42.788843 2.6776571 L 42.906148 2.5737874 L 43.030688 2.4776693 L 43.160396 2.3893026 L 43.295789 2.3092041 L 43.435832 2.2378906 L 43.579492 2.1753621 L 43.727287 2.1221354 L 43.878182 2.0787272 L 44.031661 2.044104 L 44.18669 2.0198161 L 44.342753 2.0048299 L 44.499849 2.000179 z " />
  <path
     id="path975"
     style="stroke-width:0;stroke-dasharray:none;fill:url(#linearGradient3318);fill-opacity:1.0"
     d="M 16.495874 -3.0000326 L 16.491223 -2.9788452 L 16.489673 -2.9716105 L 16.419393 -2.7302816 L 16.417326 -2.7230469 L 16.33206 -2.4868856 L 16.328959 -2.4796509 L 16.229224 -2.249174 L 16.226123 -2.2424561 L 16.111918 -2.0186971 L 16.108301 -2.0119792 L 15.98066 -1.7954549 L 15.976526 -1.7892537 L 15.835449 -1.5815145 L 15.830798 -1.5753133 L 15.676803 -1.3768758 L 15.672152 -1.3711914 L 15.505754 -1.1825724 L 15.500586 -1.176888 L 15.322819 -0.99912109 L 15.317651 -0.99395345 L 15.129032 -0.8280721 L 15.123348 -0.82290446 L 14.999841 -0.72730306 L 14.999841 1.3795451 L 14.851013 1.2637899 L 14.643274 1.1227132 L 14.42675 0.99455566 L 14.202991 0.88086751 L 13.972514 0.781132 L 13.736353 0.69586589 L 13.495024 0.62558594 L 13.249561 0.57080892 L 13.001514 0.53153483 L 12.7514 0.50776367 L 12.500252 0.50001221 L 12.248588 0.50776367 L 11.998474 0.53153483 L 11.750427 0.57080892 L 11.504964 0.62558594 L 11.264152 0.69586589 L 11.027474 0.781132 L 10.796997 0.88086751 L 10.573238 0.99455566 L 10.356714 1.1227132 L 10.148975 1.2637899 L 9.9505371 1.4177856 L 9.7619181 1.5841838 L 9.5841512 1.7619507 L 9.4177531 1.9505697 L 9.2637573 2.1490072 L 9.1226807 2.3567464 L 8.9945231 2.5727539 L 8.880835 2.7970296 L 8.7810994 3.0275065 L 8.6958333 3.2641846 L 8.6255534 3.5049967 L 8.5707764 3.7504598 L 8.5315023 3.9985067 L 8.5077311 4.2486206 L 8.4999797 4.4997681 L 8.5077311 4.7509155 L 8.5315023 5.0015462 L 8.5707764 5.2495931 L 8.6255534 5.4945394 L 8.6958333 5.7358683 L 8.7810994 5.9725464 L 8.880835 6.2030233 L 8.9945231 6.4267822 L 9.1226807 6.6433065 L 9.2637573 6.8510457 L 9.4177531 7.0494832 L 9.5841512 7.2381022 L 9.7619181 7.4158691 L 9.9505371 7.5822673 L 10.148975 7.736263 L 10.356714 7.8773397 L 10.573238 8.0049805 L 10.796997 8.1191854 L 11.027474 8.2189209 L 11.264152 8.304187 L 11.504964 8.374467 L 11.750427 8.429244 L 11.998474 8.4685181 L 12.248588 8.4922892 L 12.500252 8.5000407 L 12.7514 8.4922892 L 13.001514 8.4685181 L 13.249561 8.429244 L 13.495024 8.374467 L 13.736353 8.304187 L 13.972514 8.2189209 L 14.202991 8.1191854 L 14.42675 8.0049805 L 14.643274 7.8773397 L 14.851013 7.736263 L 15.049451 7.5822673 L 15.23807 7.4158691 L 15.415837 7.2381022 L 15.582235 7.0494832 L 15.73623 6.8510457 L 15.877307 6.6433065 L 16.004948 6.4267822 L 16.119153 6.2030233 L 16.218888 5.9725464 L 16.304154 5.7358683 L 16.374434 5.4945394 L 16.429211 5.2495931 L 16.468486 5.0015462 L 16.492257 4.7509155 L 16.500008 4.4997681 L 16.500008 -3.0000326 L 16.495874 -3.0000326 z M 12.500252 2.000179 L 12.656832 2.0048299 L 12.813411 2.0198161 L 12.968441 2.044104 L 13.12192 2.0787272 L 13.272298 2.1221354 L 13.420093 2.1753621 L 13.56427 2.2378906 L 13.704313 2.3092041 L 13.839705 2.3893026 L 13.969413 2.4776693 L 14.093437 2.5737874 L 14.211259 2.6776571 L 14.322363 2.7887614 L 14.426233 2.9065837 L 14.522351 3.0306071 L 14.610718 3.1603149 L 14.690816 3.2957072 L 14.76213 3.4357503 L 14.824658 3.5799276 L 14.877368 3.7272054 L 14.921293 3.8781006 L 14.955916 4.0315796 L 14.980204 4.1866089 L 14.99519 4.3431885 L 14.999841 4.4997681 L 14.99519 4.6568644 L 14.980204 4.813444 L 14.955916 4.9684733 L 14.921293 5.1219523 L 14.877368 5.2723307 L 14.824658 5.4201253 L 14.76213 5.5643026 L 14.690816 5.7043457 L 14.610718 5.839738 L 14.522351 5.9694458 L 14.426233 6.0934692 L 14.322363 6.2112915 L 14.211259 6.3223958 L 14.093437 6.4262655 L 13.969413 6.5223836 L 13.839705 6.6107503 L 13.704313 6.6908488 L 13.56427 6.7621623 L 13.420093 6.824174 L 13.272298 6.8774007 L 13.12192 6.9213257 L 12.968441 6.9559489 L 12.813411 6.9802368 L 12.656832 6.995223 L 12.500252 6.9998739 L 12.343156 6.995223 L 12.186576 6.9802368 L 12.031547 6.9559489 L 11.878068 6.9213257 L 11.72769 6.8774007 L 11.579895 6.824174 L 11.435718 6.7621623 L 11.295675 6.6908488 L 11.160282 6.6107503 L 11.030575 6.5223836 L 10.906551 6.4262655 L 10.788729 6.3223958 L 10.677625 6.2112915 L 10.573755 6.0934692 L 10.477637 5.9694458 L 10.38927 5.839738 L 10.309172 5.7043457 L 10.237858 5.5643026 L 10.175846 5.4201253 L 10.12262 5.2723307 L 10.078695 5.1219523 L 10.044071 4.9684733 L 10.019784 4.813444 L 10.004797 4.6568644 L 10.000146 4.4997681 L 10.004797 4.3431885 L 10.019784 4.1866089 L 10.044071 4.0315796 L 10.078695 3.8781006 L 10.12262 3.7272054 L 10.175846 3.5799276 L 10.237858 3.4357503 L 10.309172 3.2957072 L 10.38927 3.1603149 L 10.477637 3.0306071 L 10.573755 2.9065837 L 10.677625 2.7887614 L 10.788729 2.6776571 L 10.906551 2.5737874 L 11.030575 2.4776693 L 11.160282 2.3893026 L 11.295675 2.3092041 L 11.435718 2.2378906 L 11.579895 2.1753621 L 11.72769 2.1221354 L 11.878068 2.0787272 L 12.031547 2.044104 L 12.186576 2.0198161 L 12.343156 2.0048299 L 12.500252 2.000179 z " />
  <path
     id="path1001"
     style="stroke-width:0;stroke-dasharray:none;fill:url(#linearGradient3316);fill-opacity:1.0"
     d="M 3.9999959 0.50001221 L 3.7488485 0.50776367 L 3.4987345 0.53153483 L 3.2506877 0.57080892 L 3.0052246 0.62558594 L 2.7638957 0.69586589 L 2.5277344 0.781132 L 2.2967407 0.88086751 L 2.0729818 0.99455566 L 1.8564575 1.1227132 L 1.6487183 1.2637899 L 1.4502808 1.4177856 L 1.2616618 1.5841838 L 1.0838949 1.7619507 L 0.91801351 1.9505697 L 0.76401774 2.1490072 L 0.62294108 2.3567464 L 0.49478353 2.5727539 L 0.38057861 2.7970296 L 0.2808431 3.0275065 L 0.19557699 3.2641846 L 0.1258138 3.5049967 L 0.071036784 3.7504598 L 0.031762695 3.9985067 L 0.0079915365 4.2486206 L 0.00024007161 4.4997681 L 0.0079915365 4.7509155 L 0.031762695 5.0015462 L 0.071036784 5.2495931 L 0.1258138 5.4945394 L 0.19557699 5.7358683 L 0.2808431 5.9725464 L 0.38057861 6.2030233 L 0.49478353 6.4267822 L 0.62294108 6.6433065 L 0.76401774 6.8510457 L 0.91801351 7.0494832 L 1.0838949 7.2381022 L 1.2616618 7.4158691 L 1.4502808 7.5822673 L 1.6487183 7.736263 L 1.8564575 7.8773397 L 2.0729818 8.0049805 L 2.2967407 8.1191854 L 2.5277344 8.2189209 L 2.7638957 8.304187 L 3.0052246 8.374467 L 3.2506877 8.429244 L 3.4987345 8.4685181 L 3.7488485 8.4922892 L 3.9999959 8.5000407 L 4.2511434 8.4922892 L 4.5012573 8.4685181 L 4.7493042 8.429244 L 4.9947673 8.374467 L 5.2360962 8.304187 L 5.4722575 8.2189209 L 5.7032511 8.1191854 L 5.9270101 8.0049805 L 6.1435343 7.8773397 L 6.3512736 7.736263 L 6.5497111 7.5822673 L 6.7383301 7.4158691 L 6.916097 7.2381022 L 7.0819784 7.0494832 L 7.2359741 6.8510457 L 7.3770508 6.6433065 L 7.5052083 6.4267822 L 7.6194132 6.2030233 L 7.7191488 5.9725464 L 7.8044149 5.7358683 L 7.8741781 5.4945394 L 7.9289551 5.2495931 L 7.9682292 5.0015462 L 7.9920003 4.7509155 L 7.9997518 4.4997681 L 7.9920003 4.2486206 L 7.9682292 3.9985067 L 7.9289551 3.7504598 L 7.8741781 3.5049967 L 7.8044149 3.2641846 L 7.7191488 3.0275065 L 7.6194132 2.7970296 L 7.5052083 2.5727539 L 7.3770508 2.3567464 L 7.2359741 2.1490072 L 7.0819784 1.9505697 L 6.916097 1.7619507 L 6.7383301 1.5841838 L 6.5497111 1.4177856 L 6.3512736 1.2637899 L 6.1435343 1.1227132 L 5.9270101 0.99455566 L 5.7032511 0.88086751 L 5.4722575 0.781132 L 5.2360962 0.69586589 L 4.9947673 0.62558594 L 4.7493042 0.57080892 L 4.5012573 0.53153483 L 4.2511434 0.50776367 L 3.9999959 0.50001221 z M 3.9999959 2.000179 L 4.1570923 2.0048299 L 4.3131551 2.0198161 L 4.4681844 2.044104 L 4.6216634 2.0787272 L 4.7725586 2.1221354 L 4.9203532 2.1753621 L 5.0645304 2.2378906 L 5.2045736 2.3092041 L 5.3394491 2.3893026 L 5.4696737 2.4776693 L 5.5936971 2.5737874 L 5.7115194 2.6776571 L 5.8226237 2.7887614 L 5.9264933 2.9065837 L 6.0226115 3.0306071 L 6.1109782 3.1603149 L 6.1905599 3.2957072 L 6.2618734 3.4357503 L 6.3244019 3.5799276 L 6.3776286 3.7272054 L 6.4215535 3.8781006 L 6.45566 4.0315796 L 6.4804647 4.1866089 L 6.4949341 4.3431885 L 6.5001017 4.4997681 L 6.4949341 4.6568644 L 6.4804647 4.813444 L 6.45566 4.9684733 L 6.4215535 5.1219523 L 6.3776286 5.2723307 L 6.3244019 5.4201253 L 6.2618734 5.5643026 L 6.1905599 5.7043457 L 6.1109782 5.839738 L 6.0226115 5.9694458 L 5.9264933 6.0934692 L 5.8226237 6.2112915 L 5.7115194 6.3223958 L 5.5936971 6.4262655 L 5.4696737 6.5223836 L 5.3394491 6.6107503 L 5.2045736 6.6908488 L 5.0645304 6.7621623 L 4.9203532 6.824174 L 4.7725586 6.8774007 L 4.6216634 6.9213257 L 4.4681844 6.9559489 L 4.3131551 6.9802368 L 4.1570923 6.995223 L 3.9999959 6.9998739 L 3.8428996 6.995223 L 3.6868368 6.9802368 L 3.5318075 6.9559489 L 3.3783285 6.9213257 L 3.2274333 6.8774007 L 3.0796387 6.824174 L 2.9354614 6.7621623 L 2.7954183 6.6908488 L 2.6605428 6.6107503 L 2.5303182 6.5223836 L 2.4062948 6.4262655 L 2.2884725 6.3223958 L 2.1773682 6.2112915 L 2.0734985 6.0934692 L 1.9773804 5.9694458 L 1.8890137 5.839738 L 1.809432 5.7043457 L 1.7381185 5.5643026 L 1.67559 5.4201253 L 1.6223633 5.2723307 L 1.5784383 5.1219523 L 1.5443319 4.9684733 L 1.5195272 4.813444 L 1.5050578 4.6568644 L 1.4998901 4.4997681 L 1.5050578 4.3431885 L 1.5195272 4.1866089 L 1.5443319 4.0315796 L 1.5784383 3.8781006 L 1.6223633 3.7272054 L 1.67559 3.5799276 L 1.7381185 3.4357503 L 1.809432 3.2957072 L 1.8890137 3.1603149 L 1.9773804 3.0306071 L 2.0734985 2.9065837 L 2.1773682 2.7887614 L 2.2884725 2.6776571 L 2.4062948 2.5737874 L 2.5303182 2.4776693 L 2.6605428 2.3893026 L 2.7954183 2.3092041 L 2.9354614 2.2378906 L 3.0796387 2.1753621 L 3.2274333 2.1221354 L 3.3783285 2.0787272 L 3.5318075 2.044104 L 3.6868368 2.0198161 L 3.8428996 2.0048299 L 3.9999959 2.000179 z " />
  <path
     id="path983"
     style="stroke-width:0;stroke-dasharray:none;fill:url(#linearGradient3357);fill-opacity:1.0"
     d="M -9.0002441 -3.0000326 L -9.2513916 -2.9922811 L -9.5015055 -2.9685099 L -9.7495524 -2.9292358 L -9.9944987 -2.8744588 L -10.236344 -2.8041789 L -10.472506 -2.7189128 L -10.702983 -2.6191772 L -10.927258 -2.5049723 L -11.143266 -2.3773315 L -11.351005 -2.2362549 L -11.549443 -2.0822591 L -11.738062 -1.915861 L -11.915828 -1.7380941 L -12.082227 -1.5494751 L -12.236222 -1.3510376 L -12.377299 -1.1432983 L -12.505457 -0.92677409 L -12.619145 -0.70301514 L -12.71888 -0.47253825 L -12.804146 -0.23586019 L -12.874426 0.00546875 L -12.929203 0.25041504 L -12.968477 0.49846191 L -12.992249 0.74909261 L -13 1.0002401 L -12.992249 1.2513875 L -12.968477 1.5015015 L -12.929203 1.7495483 L -12.874426 1.9944946 L -12.804146 2.2358236 L -12.71888 2.4725016 L -12.619145 2.7029785 L -12.505457 2.9272542 L -12.377299 3.1432617 L -12.236222 3.351001 L -12.082227 3.5494385 L -11.915828 3.7380575 L -11.738062 3.9158244 L -11.549443 4.0822225 L -11.351005 4.2362183 L -11.143266 4.3772949 L -10.927258 4.5054525 L -10.702983 4.6191406 L -10.472506 4.7188761 L -10.236344 4.8041423 L -9.9944987 4.8744222 L -9.7495524 4.9291992 L -9.5015055 4.9684733 L -9.2513916 4.9922445 L -9.0002441 4.9999959 L -8.7490967 4.9922445 L -8.498466 4.9684733 L -8.2504191 4.9291992 L -8.0054728 4.8744222 L -7.7641439 4.8041423 L -7.5274658 4.7188761 L -7.2969889 4.6191406 L -7.07323 4.5054525 L -6.8567057 4.3772949 L -6.6489665 4.2362183 L -6.450529 4.0822225 L -6.26191 3.9158244 L -6.0841431 3.7380575 L -5.917745 3.5494385 L -5.7637492 3.351001 L -5.6226725 3.1432617 L -5.4950317 2.9272542 L -5.3808268 2.7029785 L -5.2810913 2.4725016 L -5.1958252 2.2358236 L -5.1255452 1.9944946 L -5.0707682 1.7495483 L -5.0314941 1.5015015 L -5.007723 1.2513875 L -4.9999715 1.0002401 L -5.007723 0.74909261 L -5.0314941 0.49846191 L -5.0707682 0.25041504 L -5.1255452 0.00546875 L -5.1958252 -0.23586019 L -5.2810913 -0.47253825 L -5.3808268 -0.70301514 L -5.4950317 -0.92677409 L -5.6226725 -1.1432983 L -5.7637492 -1.3510376 L -5.917745 -1.5494751 L -6.0841431 -1.7380941 L -6.26191 -1.915861 L -6.450529 -2.0822591 L -6.6489665 -2.2362549 L -6.8567057 -2.3773315 L -7.07323 -2.5049723 L -7.2969889 -2.6191772 L -7.5274658 -2.7189128 L -7.7641439 -2.8041789 L -8.0054728 -2.8744588 L -8.2504191 -2.9292358 L -8.498466 -2.9685099 L -8.7490967 -2.9922811 L -9.0002441 -3.0000326 z M -9.0002441 -1.4998657 L -8.8431478 -1.4952148 L -8.6865682 -1.4802287 L -8.5315389 -1.4559408 L -8.3780599 -1.4213175 L -8.2276815 -1.3773926 L -8.0798869 -1.3246826 L -7.9357096 -1.2621541 L -7.7956665 -1.1908407 L -7.6602743 -1.1107422 L -7.5305664 -1.0223755 L -7.406543 -0.92625732 L -7.2887207 -0.8223877 L -7.1776164 -0.71128337 L -7.0737467 -0.5934611 L -6.9776286 -0.46943766 L -6.8892619 -0.33972982 L -6.8091634 -0.20433757 L -6.7378499 -0.064294434 L -6.6753215 0.079882812 L -6.6226115 0.22767741 L -6.5786865 0.37805583 L -6.5440633 0.53153483 L -6.5197754 0.68656413 L -6.5047892 0.84314372 L -6.5001383 1.0002401 L -6.5047892 1.1568197 L -6.5197754 1.3133993 L -6.5440633 1.4684285 L -6.5786865 1.6219076 L -6.6226115 1.772286 L -6.6753215 1.9200806 L -6.7378499 2.0642578 L -6.8091634 2.2043009 L -6.8892619 2.3396932 L -6.9776286 2.469401 L -7.0737467 2.5934245 L -7.1776164 2.7112467 L -7.2887207 2.8223511 L -7.406543 2.9262207 L -7.5305664 3.0223389 L -7.6602743 3.1107056 L -7.7956665 3.190804 L -7.9357096 3.2621175 L -8.0798869 3.324646 L -8.2276815 3.3778727 L -8.3780599 3.4212809 L -8.5315389 3.4559041 L -8.6865682 3.4801921 L -8.8431478 3.4951782 L -9.0002441 3.4998291 L -9.1568237 3.4951782 L -9.3134033 3.4801921 L -9.4684326 3.4559041 L -9.6219116 3.4212809 L -9.77229 3.3778727 L -9.9200846 3.324646 L -10.064262 3.2621175 L -10.204305 3.190804 L -10.339697 3.1107056 L -10.469405 3.0223389 L -10.593429 2.9262207 L -10.711251 2.8223511 L -10.822355 2.7112467 L -10.926225 2.5934245 L -11.022343 2.469401 L -11.11071 2.3396932 L -11.190808 2.2043009 L -11.262122 2.0642578 L -11.32465 1.9200806 L -11.37736 1.772286 L -11.421285 1.6219076 L -11.455908 1.4684285 L -11.480196 1.3133993 L -11.495182 1.1568197 L -11.499833 1.0002401 L -11.495182 0.84314372 L -11.480196 0.68656413 L -11.455908 0.53153483 L -11.421285 0.37805583 L -11.37736 0.22767741 L -11.32465 0.079882812 L -11.262122 -0.064294434 L -11.190808 -0.20433757 L -11.11071 -0.33972982 L -11.022343 -0.46943766 L -10.926225 -0.5934611 L -10.822355 -0.71128337 L -10.711251 -0.8223877 L -10.593429 -0.92625732 L -10.469405 -1.0223755 L -10.339697 -1.1107422 L -10.204305 -1.1908407 L -10.064262 -1.2621541 L -9.9200846 -1.3246826 L -9.77229 -1.3773926 L -9.6219116 -1.4213175 L -9.4684326 -1.4559408 L -9.3134033 -1.4802287 L -9.1568237 -1.4952148 L -9.0002441 -1.4998657 z " />
  <path
     style="stroke-width:0;stroke-dasharray:none;fill:url(#Gold)"
     d="m 61.6494,6.87524 0.1489,-0.01406 0.1476,-0.0234 0.146,-0.03262 0.1436,-0.04172 0.1406,-0.05061 0.1373,-0.05942 0.133,-0.06779 0.1288,-0.07617 0.1237,-0.0841 0.1182,-0.09167 0.112,-0.09866 0.1059,-0.10596 0.0987,-0.11194 0.0917,-0.11818 0.084,-0.12372 0.0762,-0.1288 L 63.6534,5.51335 63.7128,5.37607 63.715,5.37 H 57.62 v 0.09906 l 0.0057,0.02574 0.0701,0.24131 0.0851,0.23632 0.0999,0.23066 0.114,0.22388 0.128,0.21636 0.141,0.20755 0.0226,0.02912 h 3.2118 z"
     id="path1029" />
  <path
     style="stroke-width:0;stroke-dasharray:none;fill-opacity:1.0;fill:url(#linearGradient1053)"
     d="m -0.5,2.12006 -0.149429,0.0047 -0.148835,0.01406 -0.147598,0.0234 -0.146008,0.03262 -0.14363,0.04172 -0.14057,0.05061 -0.13728,0.05942 -0.13307,0.06779 -0.1288,0.07617 -0.12372,0.0841 -0.11818,0.09167 -0.11194,0.09866 -0.10596,0.10596 -0.09866,0.11194 -0.09167,0.11818 -0.0841,0.12372 -0.07617,0.1288 -0.06779,0.13307 -0.05942,0.13728 -0.05061,0.14057 -0.04172,0.14363 -0.03262,0.14601 -0.0234,0.1476 L -2.87524,4.35057 -2.88,4.50185 v 3.21173 l 0.02912,0.0226 0.20755,0.14103 0.21636,0.12796 0.22388,0.11406 0.23066,0.09984 0.23632,0.08508 0.24136,0.07012 0.24533,0.05482 0.24811,0.03931 0.250166,0.02365 L -0.5,8.49994 Z"
     id="path1027" />
  <path
     style="stroke-width:0;stroke-dasharray:none;fill:url(#Gold)"
     d="M 53.2511,8.49205 53.5013,8.4684 53.7494,8.42909 53.9948,8.37427 54.2361,8.30415 54.4724,8.21907 54.7031,8.11923 54.927,8.00517 55.1433,7.87721 55.3509,7.73618 55.38,7.71358 V 4.50185 L 55.3752,4.35057 55.3612,4.20174 55.3378,4.05414 55.3052,3.90813 55.2634,3.7645 55.2128,3.62393 55.1534,3.48665 55.0856,3.35358 55.0094,3.22478 54.9254,3.10106 54.8337,2.98288 54.735,2.87094 54.6291,2.76498 54.5171,2.66632 54.3989,2.57465 54.2752,2.49055 54.1464,2.41438 54.0134,2.34659 53.8761,2.28717 53.7355,2.23656 53.5919,2.19484 53.4459,2.16222 53.2983,2.13882 53.1494,2.12476 53,2.12006 l -0.1494,0.0047 -0.1489,0.01406 -0.1476,0.0234 -0.146,0.03262 -0.1436,0.04172 -0.1406,0.05061 -0.1373,0.05942 -0.133,0.06779 -0.1288,0.07617 -0.1237,0.0841 -0.1182,0.09167 -0.112,0.09866 -0.1059,0.10596 -0.0987,0.11194 -0.0917,0.11818 -0.084,0.12372 -0.0762,0.1288 -0.0678,0.13307 -0.0594,0.13728 -0.0506,0.14057 -0.0418,0.14363 -0.0326,0.14601 -0.0234,0.1476 -0.014,0.14883 -0.0048,0.15128 v 3.21173 l 0.0291,0.0226 0.2076,0.14103 0.2163,0.12796 0.2239,0.11406 0.2307,0.09984 0.2363,0.08508 0.2413,0.07012 0.2454,0.05482 0.2481,0.03931 0.2502,0.02365 L 53,8.49994 Z"
     id="path1025" />
  <path
     style="stroke-width:0;stroke-dasharray:none;fill:url(#Gold)"
     d="m 32.7362,6.85088 0.141,-0.20755 0.128,-0.21636 0.114,-0.22388 L 33.2191,5.97243 33.3042,5.73611 33.3743,5.49475 33.4291,5.24942 33.4684,5.00131 33.4921,4.75114 33.4999,4.5 33.4921,4.24886 33.4684,3.99869 33.4291,3.75058 33.3743,3.50525 33.3042,3.26389 33.2191,3.02757 33.1192,2.79691 33.0052,2.57303 32.8772,2.35667 32.7362,2.14912 32.7136,2.12 h -3.2118 l -0.1512,0.00476 -0.1489,0.01406 -0.1476,0.0234 -0.146,0.03262 -0.1436,0.04172 -0.1406,0.05061 -0.1373,0.05942 -0.133,0.06779 -0.1288,0.07617 -0.1237,0.0841 -0.1182,0.09167 -0.112,0.09866 -0.1059,0.10596 -0.0987,0.11194 -0.0917,0.11818 -0.084,0.12372 -0.0762,0.1288 -0.0678,0.13307 -0.0594,0.13728 -0.0506,0.14057 -0.0418,0.14363 -0.0326,0.14601 -0.0234,0.1476 -0.014,0.14883 -0.0047,0.14943 0.0047,0.14943 0.014,0.14883 0.0234,0.1476 0.0326,0.14601 0.0418,0.14363 0.0506,0.14057 0.0594,0.13728 0.0678,0.13307 0.0762,0.1288 0.084,0.12372 0.0917,0.11818 0.0987,0.11194 0.1059,0.10596 0.112,0.09866 0.1182,0.09167 0.1237,0.0841 0.1288,0.07617 0.133,0.06779 0.1373,0.05942 0.1406,0.05061 0.1436,0.04172 0.146,0.03262 0.1476,0.0234 0.1489,0.01406 0.1512,0.00476 h 3.2118 z"
     id="path1023" />
  <path
     style="stroke-width:0;stroke-dasharray:none;fill:url(#Gold)"
     d="M 65.38,3.53094 65.3743,3.5052 65.3042,3.26389 65.2191,3.02757 65.1192,2.79691 65.0052,2.57303 64.8772,2.35667 64.7362,2.14912 64.7136,2.12 h -3.2118 l -0.1512,0.00476 -0.1489,0.01406 -0.1476,0.0234 -0.146,0.03262 -0.1436,0.04172 -0.1406,0.05061 -0.1373,0.05942 -0.133,0.06779 -0.1288,0.07617 -0.1237,0.0841 -0.1182,0.09167 -0.112,0.09866 -0.1059,0.10596 -0.0987,0.11194 -0.0917,0.11818 -0.084,0.12372 -0.0762,0.1288 L 59.3466,3.48665 59.2872,3.62393 59.285,3.63 h 6.095 z"
     id="path1021" />
  <path
     style="stroke-width:0;stroke-dasharray:none;fill:url(#linearGradient3322);fill-opacity:1"
     d="m -11.5,4.27245 -0.1232,-0.09559 -0.0058,-0.0048 -0.1885,-0.16619 -0.0055,-0.00515 -0.1777,-0.17769 -0.0052,-0.00549 -0.1662,-0.1885 -0.0048,-0.00581 -0.154,-0.19855 -0.0044,-0.0061 -0.1412,-0.20784 -0.0041,-0.00636 -0.1279,-0.2163 -0.0036,-0.0066 -0.1141,-0.2239 -0.0032,-0.0068 L -12.8292,2.52016 -12.832,2.51314 -12.9171,2.2767 -12.9194,2.26953 -12.9896,2.02823 -12.9914,2.02092 -13,1.98262 V 8.5 h 1.5 z"
     id="path1019" />
  <path
     style="stroke-width:0;stroke-dasharray:none;fill:url(#linearGradient3320);fill-opacity:1.0"
     d="M 21.2512,8.4921 21.5013,8.46844 21.7495,8.42914 21.9948,8.37433 22.2361,8.30421 22.4725,8.2191 22.7031,8.11929 22.927,8.00522 23.1433,7.8773 23.3511,7.73605 23.5497,7.58205 23.7382,7.41586 23.9159,7.23817 24.082,7.04968 24.2361,6.85114 24.3773,6.6433 24.5052,6.427 24.6193,6.20311 24.7191,5.97249 24.8042,5.73605 24.8743,5.49475 24.9291,5.24951 24.9684,5.00133 24.9921,4.75116 25,4.5 24.9921,4.24884 24.9684,3.99867 24.9291,3.75049 24.8743,3.50525 24.8042,3.26395 24.7191,3.02751 24.6193,2.79689 24.5052,2.573 24.3773,2.3567 24.2361,2.14886 24.082,1.95032 23.9159,1.76183 23.7382,1.58414 23.5497,1.41795 23.5,1.37941 V 4.5 l -0.0049,0.15697 -0.0148,0.15635 -0.0246,0.15512 -0.0343,0.15328 -0.0438,0.15082 -0.0532,0.14776 -0.0623,0.14414 -0.0713,0.13994 -0.08,0.13517 -0.0883,0.1299 -0.0962,0.1241 -0.1039,0.11781 -0.111,0.11106 -0.1178,0.10385 -0.1241,0.09627 -0.1299,0.08827 -0.1352,0.07996 -0.14,0.07128 L 21.9203,6.82443 21.7725,6.87764 21.6217,6.92145 21.4684,6.9557 21.3133,6.98029 21.157,6.99506 21,7 20.843,6.99506 20.6867,6.98029 20.5316,6.9557 20.3783,6.92145 20.2275,6.87764 20.0797,6.82443 19.9356,6.76205 19.7956,6.69077 19.6604,6.61081 19.5305,6.52254 19.4064,6.42627 19.2886,6.32242 19.1776,6.21136 19.0737,6.09355 18.9775,5.96945 18.8892,5.83955 18.8092,5.70438 18.7379,5.56444 18.6756,5.4203 18.6224,5.27254 18.5786,5.12172 18.5443,4.96844 18.5197,4.81332 18.5049,4.65697 18.5,4.5 V 1.37941 L 18.4503,1.41795 18.2618,1.58414 18.0841,1.76183 17.918,1.95032 17.7639,2.14886 17.6227,2.3567 17.4948,2.573 17.3807,2.79689 17.2809,3.02751 17.1958,3.26395 17.1257,3.50525 17.0709,3.75049 17.0316,3.99867 17.0079,4.24884 17,4.5 l 0.0079,0.25116 0.0237,0.25017 0.0393,0.24818 0.0548,0.24524 0.0701,0.2413 0.0851,0.23644 0.0998,0.23062 0.1141,0.22389 0.1279,0.2163 0.1412,0.20784 0.1541,0.19854 0.1661,0.18849 0.1777,0.17769 0.1885,0.16619 0.1986,0.154 0.2078,0.14125 0.2163,0.12792 0.2239,0.11407 0.2306,0.09981 0.2364,0.08511 0.2413,0.07012 0.2453,0.05481 0.2482,0.0393 L 20.7488,8.4921 21,8.5 Z"
     id="path1017" />
  <path
     style="stroke-width:0;stroke-dasharray:none;fill:url(#Gold)"
     d="m 21.1494,6.87524 0.1489,-0.01406 0.1476,-0.0234 0.146,-0.03262 0.1436,-0.04172 0.1406,-0.05061 0.1373,-0.05942 0.133,-0.06779 0.1288,-0.07617 0.1237,-0.0841 0.1182,-0.09167 0.112,-0.09866 0.1059,-0.10596 0.0987,-0.11194 0.0917,-0.11818 0.084,-0.12372 0.0762,-0.1288 0.0678,-0.13307 0.0594,-0.13728 0.0506,-0.14057 0.0418,-0.14363 0.0326,-0.14601 0.0234,-0.1476 0.014,-0.14883 L 23.38,4.49815 V 1.28642 L 23.3509,1.26382 23.1433,1.12279 22.927,0.994827 22.7031,0.880768 22.4724,0.78093 22.2361,0.695847 21.9948,0.625732 21.7494,0.570908 21.5013,0.531601 21.2511,0.50795 21,0.500061 20.7489,0.50795 20.4987,0.531601 20.2506,0.570908 20.0052,0.625732 19.7639,0.695847 19.5276,0.78093 19.2969,0.880768 19.073,0.994827 18.8567,1.12279 18.6491,1.26382 18.62,1.28642 v 3.21173 l 0.0048,0.15128 0.014,0.14883 0.0234,0.1476 0.0326,0.14601 0.0418,0.14363 0.0506,0.14057 0.0594,0.13728 0.0678,0.13307 0.0762,0.1288 0.084,0.12372 0.0917,0.11818 0.0987,0.11194 0.1059,0.10596 0.112,0.09866 0.1182,0.09167 0.1237,0.0841 0.1288,0.07617 0.133,0.06779 0.1373,0.05942 0.1406,0.05061 0.1436,0.04172 0.146,0.03262 0.1476,0.0234 0.1489,0.01406 L 21,6.87994 Z"
     id="path1015" />
  <path
     style="stroke-width:0;stroke-dasharray:none;fill:url(#linearGradient1850);fill-opacity:1.0"
     d="M 55.5497,7.58205 55.7382,7.41586 55.9159,7.23817 56.082,7.04968 56.2361,6.85114 56.3773,6.6433 56.5052,6.427 56.6193,6.20311 56.7191,5.97249 56.8042,5.73605 56.8743,5.49475 56.9291,5.24951 56.9684,5.00133 56.9921,4.75116 57,4.5 56.9921,4.24884 56.9684,3.99867 56.9291,3.75049 56.8743,3.50525 56.8042,3.26395 56.7191,3.02751 56.6193,2.79689 56.5052,2.573 56.3773,2.3567 56.2361,2.14886 56.082,1.95032 55.9159,1.76183 55.7382,1.58414 55.5497,1.41795 55.3511,1.26395 55.1433,1.1227 54.927,0.994781 54.7031,0.880707 54.4725,0.780899 54.2361,0.695786 53.9948,0.625671 53.7495,0.570862 53.5013,0.531555 53.2512,0.507904 53,0.5 52.7488,0.507904 52.4987,0.531555 52.2505,0.570862 52.0052,0.625671 51.7639,0.695786 51.5275,0.780899 51.2969,0.880707 51.073,0.994781 50.8567,1.1227 50.6489,1.26395 50.4503,1.41795 50.2618,1.58414 50.0841,1.76183 49.918,1.95032 49.7639,2.14886 49.6227,2.3567 49.4948,2.573 49.3807,2.79689 49.2809,3.02751 49.1958,3.26395 49.1257,3.50525 49.0709,3.75049 49.0316,3.99867 49.0079,4.24884 49,4.5 l 0.0079,0.25116 0.0237,0.25017 0.0393,0.24818 0.0548,0.24524 0.0701,0.2413 0.0851,0.23644 0.0998,0.23062 0.1141,0.22389 0.1279,0.2163 0.1412,0.20784 0.1541,0.19854 0.1661,0.18849 0.1777,0.17769 0.1885,0.16619 L 50.5,7.62059 V 4.5 l 0.0049,-0.15697 0.0148,-0.15635 0.0246,-0.15512 0.0343,-0.15328 0.0438,-0.15082 0.0532,-0.14776 0.0623,-0.14414 0.0713,-0.13994 0.08,-0.13517 0.0883,-0.1299 0.0962,-0.1241 0.1039,-0.11781 0.111,-0.11106 0.1178,-0.10385 0.1241,-0.09627 0.1299,-0.08827 0.1352,-0.07996 0.14,-0.07128 L 52.0797,2.17557 52.2275,2.12236 52.3783,2.07855 52.5316,2.0443 52.6867,2.01971 52.843,2.00494 53,2 l 0.157,0.00494 0.1563,0.01477 0.1551,0.02459 0.1533,0.03425 0.1508,0.04381 0.1478,0.05321 0.1441,0.06238 0.14,0.07128 0.1352,0.07996 0.1299,0.08827 0.1241,0.09627 0.1178,0.10385 0.111,0.11106 0.1039,0.11781 0.0962,0.1241 0.0883,0.1299 0.08,0.13517 0.0713,0.13994 0.0623,0.14414 0.0532,0.14776 0.0438,0.15082 0.0343,0.15328 0.0246,0.15512 0.0148,0.15635 L 55.5,4.5 v 3.12059 z"
     id="path1013" />
  <path
     style="stroke-width:0;stroke-dasharray:none;fill:url(#Gold)"
     d="m 44.6494,6.87524 0.1489,-0.01406 0.1476,-0.0234 0.146,-0.03262 0.1436,-0.04172 0.1406,-0.05061 0.1373,-0.05942 0.133,-0.06779 0.1288,-0.07617 0.1237,-0.0841 0.1182,-0.09167 0.112,-0.09866 0.1059,-0.10596 0.0987,-0.11194 0.0917,-0.11818 0.084,-0.12372 0.0762,-0.1288 0.0678,-0.13307 0.0594,-0.13728 0.0506,-0.14057 0.0418,-0.14363 0.0326,-0.14601 0.0234,-0.1476 0.014,-0.14883 L 46.8799,4.5 46.8752,4.35057 46.8612,4.20174 46.8378,4.05414 46.8052,3.90813 46.7634,3.7645 46.7128,3.62393 46.6534,3.48665 46.5856,3.35358 46.5094,3.22478 46.4254,3.10106 46.3337,2.98288 46.235,2.87094 46.1291,2.76498 46.0171,2.66632 45.8989,2.57465 45.7752,2.49055 45.6464,2.41438 45.5134,2.34659 45.3761,2.28717 45.2355,2.23656 45.0919,2.19484 44.9459,2.16222 44.7983,2.13882 44.6494,2.12476 44.5,2.12006 l -0.1494,0.0047 -0.1489,0.01406 -0.1476,0.0234 -0.146,0.03262 -0.1436,0.04172 -0.1406,0.05061 -0.1373,0.05942 -0.133,0.06779 -0.1288,0.07617 -0.1237,0.0841 -0.1182,0.09167 -0.112,0.09866 -0.1059,0.10596 -0.0987,0.11194 -0.0917,0.11818 -0.084,0.12372 -0.0762,0.1288 -0.0678,0.13307 -0.0594,0.13728 -0.0506,0.14057 -0.0418,0.14363 -0.0326,0.14601 -0.0234,0.1476 -0.014,0.14883 -0.0047,0.14943 0.0047,0.14943 0.014,0.14883 0.0234,0.1476 0.0326,0.14601 0.0418,0.14363 0.0506,0.14057 0.0594,0.13728 0.0678,0.13307 0.0762,0.1288 0.084,0.12372 0.0917,0.11818 0.0987,0.11194 0.1059,0.10596 0.112,0.09866 0.1182,0.09167 0.1237,0.0841 0.1288,0.07617 0.133,0.06779 0.1373,0.05942 0.1406,0.05061 0.1436,0.04172 0.146,0.03262 0.1476,0.0234 0.1489,0.01406 0.1494,0.0047 z"
     id="path1011" />
  <path
     style="stroke-width:0;stroke-dasharray:none;fill:url(#Gold)"
     d="M 4.14943,6.87524 4.29826,6.86118 4.44586,6.83778 4.59187,6.80516 4.7355,6.76344 4.87607,6.71283 5.01335,6.65341 5.14642,6.58562 5.27522,6.50945 5.39894,6.42535 5.51712,6.33368 5.62906,6.23502 5.73502,6.12906 5.83368,6.01712 5.92535,5.89894 6.00945,5.77522 6.08562,5.64642 6.15341,5.51335 6.21283,5.37607 6.26344,5.2355 6.30516,5.09187 6.33778,4.94586 6.36118,4.79826 6.37524,4.64943 6.37994,4.5 6.37524,4.35057 6.36118,4.20174 6.33778,4.05414 6.30516,3.90813 6.26344,3.7645 6.21283,3.62393 6.15341,3.48665 6.08562,3.35358 6.00945,3.22478 5.92535,3.10106 5.83368,2.98288 5.73502,2.87094 5.62906,2.76498 5.51712,2.66632 5.39894,2.57465 5.27522,2.49055 5.14642,2.41438 5.01335,2.34659 4.87607,2.28717 4.7355,2.23656 4.59187,2.19484 4.44586,2.16222 4.29826,2.13882 4.14943,2.12476 4,2.12006 3.85057,2.12476 3.70174,2.13882 3.55414,2.16222 3.40813,2.19484 3.2645,2.23656 3.12393,2.28717 2.98665,2.34659 2.85358,2.41438 2.72478,2.49055 2.60106,2.57465 2.48288,2.66632 2.37094,2.76498 2.26498,2.87094 2.16632,2.98288 2.07465,3.10106 1.99055,3.22478 1.91438,3.35358 1.84659,3.48665 1.78717,3.62393 1.73656,3.7645 1.69484,3.90813 1.66222,4.05414 1.63882,4.20174 1.62476,4.35057 1.62006,4.5 l 0.0047,0.14943 0.01406,0.14883 0.0234,0.1476 0.03262,0.14601 0.04172,0.14363 0.05061,0.14057 0.05942,0.13728 0.06779,0.13307 0.07617,0.1288 0.0841,0.12372 0.09167,0.11818 0.09866,0.11194 0.10596,0.10596 0.11194,0.09866 0.11818,0.09167 0.12372,0.0841 0.1288,0.07617 0.13307,0.06779 0.13728,0.05942 0.14057,0.05061 0.14363,0.04172 0.14601,0.03262 0.1476,0.0234 L 3.85057,6.87524 4,6.87994 Z"
     id="path1005" />
  <path
     style="stroke-width:0;stroke-dasharray:none;fill:url(#linearGradient3314);fill-opacity:1.0"
     d="M -3,4.5 -2.99506,4.34303 -2.98029,4.18668 -2.9557,4.03156 -2.92145,3.87828 -2.87764,3.72746 -2.82443,3.5797 -2.76205,3.43556 -2.69077,3.29562 -2.61081,3.16045 -2.52254,3.03055 -2.42627,2.90645 -2.32242,2.78864 -2.21136,2.67758 -2.09355,2.57373 -1.96945,2.47746 -1.83955,2.38919 -1.70438,2.30923 -1.56444,2.23795 -1.4203,2.17557 -1.27254,2.12236 -1.12172,2.07855 -0.968445,2.0443 -0.813324,2.01971 -0.656967,2.00494 -0.5,2 V 0.5 L -0.75116,0.507904 -1.00133,0.531555 -1.24951,0.570862 -1.49475,0.625671 -1.73605,0.695786 -1.97249,0.780899 -2.20311,0.880707 -2.427,0.994781 -2.6433,1.1227 -2.85114,1.26395 -3,1.37941 V 0.5 h -1.5 v 4 l 0.0079,0.25116 0.02366,0.25017 0.0393,0.24818 0.05481,0.24524 0.07012,0.2413 0.08511,0.23644 0.09981,0.23062 0.11407,0.22389 0.12792,0.2163 0.14125,0.20784 0.154,0.19854 0.16619,0.18849 0.17769,0.17769 0.18849,0.16619 L -3,7.62059 Z"
     id="path999" />
  <path
     style="stroke-width:0;stroke-dasharray:none;fill:url(#Stroke)"
     d="M 61.7512,8.4921 62.0013,8.46844 62.2495,8.42914 62.4948,8.37433 62.7361,8.30421 62.9725,8.2191 63.2031,8.11929 63.427,8.00522 63.6433,7.8773 63.8511,7.73605 64.0497,7.58205 64.2382,7.41586 64.4159,7.23817 64.582,7.04968 64.7361,6.85114 64.8773,6.6433 65.0052,6.427 65.1193,6.20311 65.2191,5.97249 65.3042,5.73605 65.3743,5.49475 65.4291,5.24951 65.4684,5.00133 65.4921,4.75116 65.5,4.5 65.4921,4.24884 65.4684,3.99867 65.4291,3.75049 65.429,3.75 h -6.3132 l 0.0066,-0.02254 0.0532,-0.14776 0.0623,-0.14414 0.0713,-0.13994 0.08,-0.13517 0.0883,-0.1299 0.0962,-0.1241 0.1039,-0.11781 0.111,-0.11106 0.1178,-0.10385 0.1241,-0.09627 0.1299,-0.08827 0.1352,-0.07996 0.14,-0.07128 L 60.5797,2.17557 60.7275,2.12236 60.8783,2.07855 61.0316,2.0443 61.1867,2.01971 61.343,2.00494 61.5,2 h 3.1206 L 64.582,1.95032 64.4159,1.76183 64.2382,1.58414 64.0497,1.41795 63.8511,1.26395 63.6433,1.1227 63.427,0.994781 63.2031,0.880707 62.9725,0.780899 62.7361,0.695786 62.4948,0.625671 62.2495,0.570862 62.0013,0.531555 61.7512,0.507904 61.5,0.5 61.2488,0.507904 60.9987,0.531555 60.7505,0.570862 60.5052,0.625671 60.2639,0.695786 60.0275,0.780899 59.7969,0.880707 59.573,0.994781 59.3567,1.1227 59.1489,1.26395 58.9503,1.41795 58.7618,1.58414 58.5841,1.76183 58.418,1.95032 58.2639,2.14886 58.1227,2.3567 57.9948,2.573 57.8807,2.79689 57.7809,3.02751 57.6958,3.26395 57.6257,3.50525 57.5709,3.75049 57.5316,3.99867 57.5079,4.24884 57.5,4.5 l 0.0079,0.25116 0.0237,0.25017 0.0393,0.24818 10e-5,4.9e-4 h 6.3132 l -0.0066,0.02254 -0.0532,0.14776 -0.0623,0.14414 -0.0713,0.13994 -0.08,0.13517 -0.0883,0.1299 -0.0962,0.1241 -0.1039,0.11781 -0.111,0.11106 -0.1178,0.10385 -0.1241,0.09627 -0.1299,0.08827 -0.1352,0.07996 -0.14,0.07128 L 62.4203,6.82443 62.2725,6.87764 62.1217,6.92145 61.9684,6.9557 61.8133,6.98029 61.657,6.99506 61.5,7 h -3.1206 l 0.0386,0.04968 0.1661,0.18849 0.1777,0.17769 0.1885,0.16619 0.1986,0.154 0.2078,0.14125 0.2163,0.12792 0.2239,0.11407 0.2306,0.09981 0.2364,0.08511 0.2413,0.07012 0.2453,0.05481 0.2482,0.0393 L 61.2488,8.4921 61.5,8.5 Z"
     id="path997" />
  <path
     style="stroke-width:0;stroke-dasharray:none;fill:url(#Stroke)"
     d="M 29.7512,8.4921 30.0013,8.46844 30.2495,8.42914 30.4948,8.37433 30.7361,8.30421 30.9725,8.2191 31.2031,8.11929 31.427,8.00522 31.6433,7.8773 31.8511,7.73605 32.0497,7.58205 32.2382,7.41586 32.4159,7.23817 32.582,7.04968 32.6206,7 H 29.5 L 29.343,6.99506 29.1867,6.98029 29.0316,6.9557 28.8783,6.92145 28.7275,6.87764 28.5797,6.82443 28.4356,6.76205 28.2956,6.69077 28.1604,6.61081 28.0305,6.52254 27.9064,6.42627 27.7886,6.32242 27.6776,6.21136 27.5737,6.09355 27.4775,5.96945 27.3892,5.83955 27.3092,5.70438 27.2379,5.56444 27.1756,5.4203 27.1224,5.27254 27.0786,5.12172 27.0443,4.96844 27.0197,4.81332 27.0049,4.65697 27,4.5 27.0049,4.34303 27.0197,4.18668 27.0443,4.03156 27.0786,3.87828 27.1224,3.72746 27.1756,3.5797 l 0.0623,-0.14414 0.0713,-0.13994 0.08,-0.13517 0.0883,-0.1299 0.0962,-0.1241 0.1039,-0.11781 0.111,-0.11106 0.1178,-0.10385 0.1241,-0.09627 0.1299,-0.08827 0.1352,-0.07996 0.14,-0.07128 L 28.5797,2.17557 28.7275,2.12236 28.8783,2.07855 29.0316,2.0443 29.1867,2.01971 29.343,2.00494 29.5,2 h 3.1206 L 32.582,1.95032 32.4159,1.76183 32.2382,1.58414 32.0497,1.41795 31.8511,1.26395 31.6433,1.1227 31.427,0.994781 31.2031,0.880707 30.9725,0.780899 30.7361,0.695786 30.4948,0.625671 30.2495,0.570862 30.0013,0.531555 29.7512,0.507904 29.5,0.5 29.2488,0.507904 28.9987,0.531555 28.7505,0.570862 28.5052,0.625671 28.2639,0.695786 28.0275,0.780899 27.7969,0.880707 27.573,0.994781 27.3567,1.1227 27.1489,1.26395 26.9503,1.41795 26.7618,1.58414 26.5841,1.76183 26.418,1.95032 26.2639,2.14886 26.1227,2.3567 25.9948,2.573 25.8807,2.79689 25.7809,3.02751 25.6958,3.26395 25.6257,3.50525 25.5709,3.75049 25.5316,3.99867 25.5079,4.24884 25.5,4.5 l 0.0079,0.25116 0.0237,0.25017 0.0393,0.24818 0.0548,0.24524 0.0701,0.2413 0.0851,0.23644 0.0998,0.23062 0.1141,0.22389 0.1279,0.2163 0.1412,0.20784 0.1541,0.19854 0.1661,0.18849 0.1777,0.17769 0.1885,0.16619 0.1986,0.154 0.2078,0.14125 0.2163,0.12792 0.2239,0.11407 0.2306,0.09981 0.2364,0.08511 0.2413,0.07012 0.2453,0.05481 0.2482,0.0393 L 29.2488,8.4921 29.5,8.5 Z"
     id="path995" />
  <path
     style="stroke-width:0;stroke-dasharray:none;fill:url(#Stroke)"
     d="M 40,0.12001 H 38.5 V 8.5 H 40 Z"
     id="path993" />
  <path
     style="stroke-width:0;stroke-dasharray:none;fill:url(#Gold)"
     d="M 38,0.119995 H 35.62 V 4.49815 l 0.0048,0.15128 0.014,0.14883 0.0234,0.1476 0.0326,0.14601 0.0418,0.14363 0.0506,0.14057 0.0594,0.13728 0.0678,0.13307 0.0762,0.1288 0.084,0.12372 0.0917,0.11818 0.0987,0.11194 0.1059,0.10596 0.112,0.09866 0.1182,0.09167 0.1237,0.0841 0.1288,0.07617 0.133,0.06779 0.1373,0.05942 0.1406,0.05061 0.1436,0.04172 0.146,0.03262 0.1476,0.0234 0.1489,0.01406 L 38,6.87994 Z"
     id="path991" />
  <path
     style="stroke-width:0;stroke-dasharray:none;fill:url(#Gold)"
     d="M 40,-1.5 H 38.5 V 0 H 40 Z"
     id="path989" />
  <path
     style="stroke-width:0;stroke-dasharray:none;fill:url(#linearGradient1041);fill-opacity:1"
     d="m -8.85057,3.37524 0.14883,-0.01406 0.1476,-0.0234 0.14601,-0.03262 0.14363,-0.04172 0.14057,-0.05061 0.13728,-0.05942 0.13307,-0.06779 0.1288,-0.07617 0.12372,-0.0841 0.11818,-0.09167 0.11194,-0.09866 0.10596,-0.10596 0.09866,-0.11194 0.09167,-0.11818 0.0841,-0.12372 0.07617,-0.1288 0.06779,-0.13307 0.05942,-0.13728 0.05061,-0.14057 0.04172,-0.14363 0.03262,-0.14601 0.0234,-0.1476 L -6.62476,1.14943 -6.62006,1 -6.62476,0.850571 -6.63882,0.701736 -6.66222,0.554138 -6.69484,0.408127 -6.73656,0.264496 -6.78717,0.123932 -6.84659,-0.0133514 -6.91438,-0.146423 -6.99055,-0.275223 -7.07465,-0.398941 -7.16632,-0.51712 -7.26498,-0.629059 -7.37094,-0.735016 -7.48288,-0.833679 -7.60106,-0.925354 -7.72478,-1.00945 -7.85358,-1.08562 -7.98665,-1.15341 -8.12393,-1.21283 -8.2645,-1.26344 -8.40813,-1.30516 -8.55414,-1.33778 -8.70174,-1.36118 -8.85057,-1.37524 -9,-1.37994 l -0.14943,0.0047 -0.14883,0.01406 -0.1476,0.0234 -0.14601,0.03262 -0.14363,0.04172 -0.14057,0.05061 -0.13733,0.05942 -0.133,0.06779 -0.1288,0.07617 -0.1237,0.084096 -0.1182,0.091675 -0.112,0.098663 -0.1059,0.105957 -0.0987,0.111939 -0.0917,0.118179 -0.084,0.123718 -0.0762,0.1288 -0.0678,0.1330716 -0.0594,0.1372834 -0.0506,0.140564 -0.0418,0.143631 -0.0326,0.146011 -0.0234,0.147598 -0.014,0.148835 L -11.3799,1 l 0.0047,0.14943 0.014,0.14883 0.0234,0.1476 0.0326,0.14601 0.0418,0.14363 0.0506,0.14057 0.0594,0.13728 0.0678,0.13307 0.0762,0.1288 0.084,0.12372 0.0917,0.11818 0.0987,0.11194 0.1059,0.10596 0.112,0.09866 0.1182,0.09167 0.1237,0.0841 0.1288,0.07617 0.133,0.06779 0.13733,0.05942 0.14057,0.05061 0.14363,0.04172 0.14601,0.03262 0.1476,0.0234 0.14883,0.01406 L -9,3.37994 Z"
     id="path987" />
  <path
     style="stroke-width:0;stroke-dasharray:none;fill:url(#Stroke)"
     d="M 38,7 37.843,6.99506 37.6867,6.98029 37.5316,6.9557 37.3783,6.92145 37.2275,6.87764 37.0797,6.82443 36.9356,6.76205 36.7956,6.69077 36.6604,6.61081 36.5305,6.52254 36.4064,6.42627 36.2886,6.32242 36.1776,6.21136 36.0737,6.09355 35.9775,5.96945 35.8892,5.83955 35.8092,5.70438 35.7379,5.56444 35.6756,5.4203 35.6224,5.27254 35.5786,5.12172 35.5443,4.96844 35.5197,4.81332 35.5049,4.65697 35.5,4.5 V 0 H 38 V -1.5 H 35.5 V -3 H 34 v 1.5 h -1.2276 l -0.0955,0.12323 -0.0048,0.00581 -0.1662,0.1885 -0.0052,0.00549 -0.1777,0.177687 -0.0055,0.005158 -0.1885,0.166183 -0.0058,0.004807 -0.1985,0.154007 -0.0061,0.004425 -0.2079,0.14125 -0.0063,0.004044 -0.2163,0.127914 -0.0066,0.003632 -0.2239,0.114075 -0.0068,0.003204 -0.2306,0.099808 -0.0071,0.002777 -0.2364,0.0851133 -0.0072,0.0023346 -0.2413,0.0701141 -0.0073,0.00187682 L 30.4826,0 H 34 v 4.5 l 0.0079,0.25116 0.0237,0.25017 0.0393,0.24818 0.0548,0.24524 0.0701,0.2413 0.0851,0.23644 0.0998,0.23062 0.1141,0.22389 0.1279,0.2163 0.1412,0.20784 0.1541,0.19854 0.1661,0.18849 0.1777,0.17769 0.1885,0.16619 0.1986,0.154 0.2078,0.14125 0.2163,0.12792 0.2239,0.11407 0.2306,0.09981 0.2364,0.08511 0.2413,0.07012 0.2453,0.05481 0.2482,0.0393 L 37.7488,8.4921 38,8.5 Z"
     id="path981" />
  <path
     style="stroke-width:0;stroke-dasharray:none;fill:url(#Gold)"
     d="m 12.6494,6.87524 0.1489,-0.01406 0.1476,-0.0234 0.146,-0.03262 0.1436,-0.04172 0.1406,-0.05061 0.1373,-0.05942 0.133,-0.06779 0.1288,-0.07617 0.1237,-0.0841 0.1182,-0.09167 0.112,-0.09866 0.1059,-0.10596 0.0987,-0.11194 0.0917,-0.11818 0.084,-0.12372 0.0762,-0.1288 0.0678,-0.13307 0.0594,-0.13728 0.0506,-0.14057 0.0418,-0.14363 0.0326,-0.14601 0.0234,-0.1476 0.014,-0.14883 L 14.8799,4.5 14.8752,4.35057 14.8612,4.20174 14.8378,4.05414 14.8052,3.90813 14.7634,3.7645 14.7128,3.62393 14.6534,3.48665 14.5856,3.35358 14.5094,3.22478 14.4254,3.10106 14.3337,2.98288 14.235,2.87094 14.1291,2.76498 14.0171,2.66632 13.8989,2.57465 13.7752,2.49055 13.6464,2.41438 13.5134,2.34659 13.3761,2.28717 13.2355,2.23656 13.0919,2.19484 12.9459,2.16222 12.7983,2.13882 12.6494,2.12476 12.5,2.12006 l -0.1494,0.0047 -0.1489,0.01406 -0.1476,0.0234 -0.146,0.03262 -0.1436,0.04172 -0.1406,0.05061 -0.1373,0.05942 -0.133,0.06779 -0.1288,0.07617 -0.1237,0.0841 -0.1182,0.09167 -0.112,0.09866 -0.1059,0.10596 -0.0987,0.11194 -0.0917,0.11818 -0.084,0.12372 -0.0762,0.1288 -0.0678,0.13307 -0.0594,0.13728 -0.0506,0.14057 -0.0418,0.14363 -0.0326,0.14601 -0.0234,0.1476 -0.014,0.14883 -0.0047,0.14943 0.0047,0.14943 0.014,0.14883 0.0234,0.1476 0.0326,0.14601 0.0418,0.14363 0.0506,0.14057 0.0594,0.13728 0.0678,0.13307 0.0762,0.1288 0.084,0.12372 0.0917,0.11818 0.0987,0.11194 0.1059,0.10596 0.112,0.09866 0.1182,0.09167 0.1237,0.0841 0.1288,0.07617 0.133,0.06779 0.1373,0.05942 0.1406,0.05061 0.1436,0.04172 0.146,0.03262 0.1476,0.0234 0.1489,0.01406 0.1494,0.0047 z"
     id="path979" />
  <path
     style="stroke-width:0;stroke-dasharray:none;fill:url(#Stroke)"
     d="m 40,-3 h -1.5 v 1.38 H 40 Z"
     id="path973" />
  <path
     style="stroke-width:0;stroke-dasharray:none;fill:url(#Gold)"
     d="m 32.7362,-1.64912 0.141,-0.20755 0.128,-0.21636 0.114,-0.22388 0.0999,-0.23066 0.0851,-0.23632 0.0701,-0.24136 L 33.4021,-3.13 H 27.285 l 0.0022,0.00607 0.0594,0.13728 0.0678,0.13307 0.0762,0.1288 0.084,0.12372 0.0917,0.11818 0.0987,0.11194 0.1059,0.10596 0.112,0.09866 0.1182,0.09167 0.1237,0.0841 0.1288,0.07617 0.133,0.06779 0.1373,0.05942 0.1406,0.05061 0.1436,0.04172 0.146,0.03262 0.1476,0.0234 0.1489,0.01406 0.1512,0.00476 h 3.2118 z"
     id="path971" />
  <path
     style="stroke-width:0;stroke-dasharray:none;fill:url(#Gold)"
     d="m 21.2511,-0.00794983 0.2502,-0.02365117 0.2481,-0.0393066 0.2454,-0.0548244 0.2413,-0.070115 0.2363,-0.085083 0.2307,-0.099838 0.2239,-0.114059 0.2163,-0.12796 0.2076,-0.141037 0.0291,-0.022599 V -3.99815 l -0.0048,-0.15128 -0.014,-0.14883 -0.0234,-0.1476 -0.0326,-0.14601 -0.0418,-0.14363 -0.0506,-0.14057 -0.0594,-0.13728 -0.0678,-0.13307 -0.0762,-0.1288 -0.084,-0.12372 -0.0917,-0.11818 -0.0987,-0.11194 -0.1059,-0.10596 -0.112,-0.09866 -0.1182,-0.09167 -0.1237,-0.0841 -0.1288,-0.07617 -0.133,-0.06779 -0.1373,-0.05942 -0.1406,-0.05061 -0.1436,-0.04172 -0.146,-0.03262 -0.1476,-0.0234 -0.1489,-0.01406 -0.1494,-0.0047 -0.1494,0.0047 -0.1489,0.01406 -0.1476,0.0234 -0.146,0.03262 -0.1436,0.04172 -0.1406,0.05061 -0.1373,0.05942 -0.133,0.06779 -0.1288,0.07617 -0.1237,0.0841 -0.1182,0.09167 -0.112,0.09866 -0.1059,0.10596 -0.0987,0.11194 -0.0917,0.11818 -0.084,0.12372 -0.0762,0.1288 -0.0678,0.13307 -0.0594,0.13728 -0.0506,0.14057 -0.0418,0.14363 -0.0326,0.14601 -0.0234,0.1476 -0.014,0.14883 -0.0048,0.15128 v 3.211727 l 0.0291,0.022599 0.2076,0.141037 0.2163,0.12796 0.2239,0.114059 0.2307,0.099838 0.2363,0.085083 0.2413,0.070115 0.2454,0.0548244 0.2481,0.0393066 0.2502,0.02365117 L 21,-6.10352e-5 Z"
     id="path969" />
  <path
     style="stroke-width:0;stroke-dasharray:none;fill:url(#Gold)"
     d="m 31.7128,-4.87607 -0.0594,-0.13728 -0.0678,-0.13307 -0.0762,-0.1288 -0.084,-0.12372 -0.0917,-0.11818 -0.0987,-0.11194 -0.1059,-0.10596 -0.112,-0.09866 -0.1182,-0.09167 -0.1237,-0.0841 -0.1288,-0.07617 -0.133,-0.06779 -0.1373,-0.05942 -0.1406,-0.05061 -0.1436,-0.04172 -0.146,-0.03262 -0.1476,-0.0234 -0.1489,-0.01406 -0.1494,-0.0047 -0.1494,0.0047 -0.1489,0.01406 -0.1476,0.0234 -0.146,0.03262 -0.1436,0.04172 -0.1406,0.05061 -0.1373,0.05942 -0.133,0.06779 -0.1288,0.07617 -0.1237,0.0841 -0.1182,0.09167 -0.112,0.09866 -0.1059,0.10596 -0.0987,0.11194 -0.0917,0.11818 -0.084,0.12372 -0.0762,0.1288 -0.0678,0.13307 -0.0594,0.13728 L 27.285,-4.87 h 4.43 z"
     id="path967" />
  <path
     style="stroke-width:0;stroke-dasharray:none;fill:url(#Gold)"
     d="m 12.6494,-1.62476 0.1489,-0.01406 0.1476,-0.0234 0.146,-0.03262 0.1436,-0.04172 0.1406,-0.05061 0.1373,-0.05942 0.133,-0.06779 0.1288,-0.07617 0.1237,-0.0841 0.1182,-0.09167 0.112,-0.09866 0.1059,-0.10596 0.0987,-0.11194 0.0917,-0.11818 0.084,-0.12372 0.0762,-0.1288 0.0678,-0.13307 0.0594,-0.13728 0.0506,-0.14057 0.0418,-0.14363 0.0326,-0.14601 0.0234,-0.1476 0.014,-0.14883 L 14.8799,-4 l -0.0047,-0.14943 -0.014,-0.14883 -0.0234,-0.1476 -0.0326,-0.14601 -0.0418,-0.14363 -0.0506,-0.14057 -0.0594,-0.13728 -0.0678,-0.13307 -0.0762,-0.1288 -0.084,-0.12372 -0.0917,-0.11818 -0.0987,-0.11194 -0.1059,-0.10596 -0.112,-0.09866 -0.1182,-0.09167 -0.1237,-0.0841 -0.1288,-0.07617 -0.133,-0.06779 -0.1373,-0.05942 -0.1406,-0.05061 -0.1436,-0.04172 -0.146,-0.03262 -0.1476,-0.0234 -0.1489,-0.01406 -0.1494,-0.0047 -0.1494,0.0047 -0.1489,0.01406 -0.1476,0.0234 -0.146,0.03262 -0.1436,0.04172 -0.1406,0.05061 -0.1373,0.05942 -0.133,0.06779 -0.1288,0.07617 -0.1237,0.0841 -0.1182,0.09167 -0.112,0.09866 -0.1059,0.10596 -0.0987,0.11194 -0.0917,0.11818 -0.084,0.12372 -0.0762,0.1288 -0.0678,0.13307 -0.0594,0.13728 -0.0506,0.14057 -0.0418,0.14363 -0.0326,0.14601 -0.0234,0.1476 -0.014,0.14883 L 10.1201,-4 l 0.0047,0.14943 0.014,0.14883 0.0234,0.1476 0.0326,0.14601 0.0418,0.14363 0.0506,0.14057 0.0594,0.13728 0.0678,0.13307 0.0762,0.1288 0.084,0.12372 0.0917,0.11818 0.0987,0.11194 0.1059,0.10596 0.112,0.09866 0.1182,0.09167 0.1237,0.0841 0.1288,0.07617 0.133,0.06779 0.1373,0.05942 0.1406,0.05061 0.1436,0.04172 0.146,0.03262 0.1476,0.0234 0.1489,0.01406 0.1494,0.0047 z"
     id="path961" />
  <path
     style="stroke-width:0;stroke-dasharray:none;fill:url(#Gold)"
     d="m 4.14943,-1.62476 0.14883,-0.01406 0.1476,-0.0234 0.14601,-0.03262 0.14363,-0.04172 0.14057,-0.05061 0.13728,-0.05942 0.13307,-0.06779 0.1288,-0.07617 0.12372,-0.0841 0.11818,-0.09167 0.11194,-0.09866 0.10596,-0.10596 0.09866,-0.11194 0.09167,-0.11818 0.0841,-0.12372 0.07617,-0.1288 0.06779,-0.13307 0.05942,-0.13728 0.05061,-0.14057 0.04172,-0.14363 0.03262,-0.14601 0.0234,-0.1476 L 6.37524,-3.85057 6.37994,-4 6.37524,-4.14943 6.36118,-4.29826 6.33778,-4.44586 6.30516,-4.59187 6.26344,-4.7355 6.21283,-4.87607 6.15341,-5.01335 6.08562,-5.14642 6.00945,-5.27522 5.92535,-5.39894 5.83368,-5.51712 5.73502,-5.62906 5.62906,-5.73502 5.51712,-5.83368 5.39894,-5.92535 5.27522,-6.00945 5.14642,-6.08562 5.01335,-6.15341 4.87607,-6.21283 4.7355,-6.26344 4.59187,-6.30516 4.44586,-6.33778 4.29826,-6.36118 4.14943,-6.37524 4,-6.37994 l -0.14943,0.0047 -0.14883,0.01406 -0.1476,0.0234 -0.14601,0.03262 -0.14363,0.04172 -0.14057,0.05061 -0.13728,0.05942 -0.13307,0.06779 -0.1288,0.07617 -0.12372,0.0841 -0.11818,0.09167 -0.11194,0.09866 -0.10596,0.10596 -0.09866,0.11194 -0.09167,0.11818 -0.0841,0.12372 -0.07617,0.1288 -0.06779,0.13307 -0.05942,0.13728 -0.05061,0.14057 -0.04172,0.14363 -0.03262,0.14601 -0.0234,0.1476 L 1.62476,-4.14943 1.62006,-4 l 0.0047,0.14943 0.01406,0.14883 0.0234,0.1476 0.03262,0.14601 0.04172,0.14363 0.05061,0.14057 0.05942,0.13728 0.06779,0.13307 0.07617,0.1288 0.0841,0.12372 0.09167,0.11818 0.09866,0.11194 0.10596,0.10596 0.11194,0.09866 0.11818,0.09167 0.12372,0.0841 0.1288,0.07617 0.13307,0.06779 0.13728,0.05942 0.14057,0.05061 0.14363,0.04172 0.14601,0.03262 0.1476,0.0234 0.14883,0.01406 L 4,-1.62006 Z"
     id="path955" />
  <path
     style="stroke-width:0;stroke-dasharray:none;fill:url(#Stroke)"
     d="m 23.5497,-0.917953 0.1885,-0.166187 0.1777,-0.17769 0.1661,-0.18849 0.1541,-0.19854 0.1412,-0.20784 0.1279,-0.2163 0.1141,-0.22389 0.0998,-0.23062 0.0851,-0.23644 0.0701,-0.2413 0.0548,-0.24524 0.0393,-0.24818 0.0237,-0.25017 L 25,-4 24.9921,-4.25116 24.9684,-4.50133 24.9291,-4.74951 24.8743,-4.99475 24.8042,-5.23605 24.7191,-5.47249 24.6193,-5.70311 24.5052,-5.927 24.3773,-6.1433 24.2361,-6.35114 24.082,-6.54968 23.9159,-6.73817 23.7382,-6.91586 23.5497,-7.08205 23.3511,-7.23605 23.1433,-7.3773 22.927,-7.50522 22.7031,-7.61929 22.4725,-7.7191 22.2361,-7.80421 21.9948,-7.87433 21.7495,-7.92914 21.5013,-7.96844 21.2512,-7.9921 21,-8 l -0.2512,0.0079 -0.2501,0.02366 -0.2482,0.0393 -0.2453,0.05481 -0.2413,0.07012 -0.2364,0.08511 -0.2306,0.09981 -0.2239,0.11407 -0.2163,0.12792 -0.2078,0.14125 -0.1986,0.154 -0.1885,0.16619 -0.1777,0.17769 -0.1661,0.18849 -0.1541,0.19854 -0.1412,0.20784 -0.1279,0.2163 -0.1141,0.22389 -0.0998,0.23062 -0.0851,0.23644 -0.0701,0.2413 -0.0548,0.24524 -0.0393,0.24818 -0.0237,0.25017 L 17,-4 l 0.0079,0.25116 0.0237,0.25017 0.0393,0.24818 0.0548,0.24524 0.0701,0.2413 0.0851,0.23644 0.0998,0.23062 0.1141,0.22389 0.1279,0.2163 0.1412,0.20784 0.1541,0.19854 0.1661,0.18849 0.1777,0.17769 0.1885,0.166187 L 18.5,-0.87941 V -4 l 0.0049,-0.15697 0.0148,-0.15635 0.0246,-0.15512 0.0343,-0.15328 0.0438,-0.15082 0.0532,-0.14776 0.0623,-0.14414 0.0713,-0.13994 0.08,-0.13517 0.0883,-0.1299 0.0962,-0.1241 0.1039,-0.11781 0.111,-0.11106 0.1178,-0.10385 0.1241,-0.09627 0.1299,-0.08827 0.1352,-0.07996 0.14,-0.07128 0.1441,-0.06238 0.1478,-0.05321 0.1508,-0.04381 0.1533,-0.03425 0.1551,-0.02459 L 20.843,-6.49506 21,-6.5 l 0.157,0.00494 0.1563,0.01477 0.1551,0.02459 0.1533,0.03425 0.1508,0.04381 0.1478,0.05321 0.1441,0.06238 0.14,0.07128 0.1352,0.07996 0.1299,0.08827 0.1241,0.09627 0.1178,0.10385 0.111,0.11106 0.1039,0.11781 0.0962,0.1241 0.0883,0.1299 0.08,0.13517 0.0713,0.13994 0.0623,0.14414 0.0532,0.14776 0.0438,0.15082 0.0343,0.15328 0.0246,0.15512 0.0148,0.15635 L 23.5,-4 v 3.12059 z"
     id="path949" />
  <path
     style="stroke-width:0;stroke-dasharray:none;fill:url(#Gold)"
     d="m 1.78926,-7.47655 0.00636,-0.00404 0.2163,-0.12792 0.0066,-0.00363 0.2239,-0.11407 0.0068,-0.00321 0.23062,-0.0998 0.00702,-0.00278 0.23644,-0.08511 0.00717,-0.00234 0.2413,-0.07011 0.00731,-0.00188 0.24524,-0.05481 0.0074,-0.00142 0.24818,-0.03931 0.00748,-9.3e-4 0.25017,-0.02365 0.00752,-4.7e-4 0.25116,-0.0079 h 0.00754 l 0.25116,0.0079 0.00752,4.7e-4 0.25017,0.02365 0.00748,9.3e-4 0.24818,0.03931 0.0074,0.00142 0.24524,0.05481 0.00731,0.00188 0.2413,0.07011 0.00717,0.00234 0.23644,0.08511 0.00702,0.00278 0.05677,0.02458 0.003,-0.09535 L 5.57603,-8.02431 5.56432,-8.14813 5.54486,-8.2709 5.51772,-8.3924 5.48303,-8.51175 5.44081,-8.62904 5.39153,-8.74295 5.33502,-8.85382 5.27174,-8.96085 5.20178,-9.06378 5.12558,-9.16202 5.0433,-9.25534 4.95534,-9.34331 4.86201,-9.42558 4.76378,-9.50179 4.66084,-9.57175 4.55382,-9.63503 4.44295,-9.69153 4.32904,-9.74081 4.21175,-9.78304 4.09239,-9.81772 3.97092,-9.84486 3.84814,-9.86432 3.72432,-9.87604 3.60001,-9.87993 3.47569,-9.87604 3.35187,-9.86432 3.2291,-9.84486 l -0.1215,0.02714 -0.11935,0.03468 -0.11729,0.04223 -0.11391,0.04928 -0.11087,0.0565 -0.10703,0.06328 -0.10293,0.06996 -0.09824,0.07621 -0.09332,0.08227 -0.08797,0.08797 -0.08227,0.09332 -0.07621,0.09824 -0.06996,0.10293 -0.06328,0.10703 -0.0565,0.11087 -0.04928,0.11391 -0.04223,0.11729 -0.03468,0.11935 -0.02714,0.1215 -0.01946,0.12277 -0.01172,0.12382 -0.00389,0.12432 0.00389,0.12431 0.01172,0.12382 0.01946,0.12278 0.02714,0.12149 9.2e-4,0.00313 z"
     id="path947" />
  <path
     style="stroke-width:0;stroke-dasharray:none;fill:url(#linearGradient3355);fill-opacity:1.0"
     d="M 0.00856018,-5.02092 0.010437,-5.02823 0.0805511,-5.26953 0.0828857,-5.2767 0.167999,-5.51314 l 0.002777,-0.00702 0.099808,-0.23062 0.003204,-0.0068 0.114075,-0.2239 0.003632,-0.0066 0.127914,-0.2163 0.004044,-0.00636 0.14125,-0.20784 0.004425,-0.0061 0.154007,-0.19855 0.004807,-0.00581 0.166183,-0.1885 0.005158,-0.00549 0.177687,-0.17769 0.00549,-0.00515 0.1885,-0.16619 0.00581,-0.0048 L 1.57532,-7.33087 1.57887,-7.33345 1.56599,-7.37775 1.53722,-7.5065 1.51657,-7.6368 1.50415,-7.76814 1.50002,-7.89999 l 0.00413,-0.13186 0.01242,-0.13134 0.02065,-0.1303 0.02877,-0.12875 0.03681,-0.12668 0.04468,-0.12413 0.05239,-0.12108 0.0599,-0.11754 0.06715,-0.11355 0.07416,-0.10912 0.08085,-0.10423 0.08725,-0.09897 0.09328,-0.09328 0.09897,-0.08725 0.10423,-0.08085 0.10912,-0.07416 0.11355,-0.06715 0.11754,-0.0599 0.12108,-0.05239 0.12413,-0.04468 0.12668,-0.03681 0.12875,-0.02877 0.1303,-0.02065 0.13134,-0.01242 0.13186,-0.00413 0.13185,0.00413 0.13134,0.01242 0.1303,0.02065 0.12874,0.02877 0.12668,0.03681 0.12413,0.04468 0.12108,0.05239 0.11753,0.0599 0.11356,0.06715 0.10912,0.07416 0.10423,0.08085 0.09897,0.08725 0.09327,0.09328 0.08725,0.09897 0.08086,0.10423 0.07416,0.10912 0.06715,0.11355 0.05989,0.11754 0.0524,0.12108 0.04468,0.12413 0.0368,0.12668 0.02878,0.12875 0.02065,0.1303 0.01242,0.13134 0.00413,0.13186 -0.00413,0.13185 -0.00136,0.01436 0.05629,0.02436 0.0068,0.00321 0.2239,0.11407 0.0066,0.00363 0.2163,0.12792 0.00636,0.00404 0.20784,0.14125 0.0061,0.00443 0.19855,0.15401 0.00581,0.0048 0.1885,0.16619 0.00549,0.00515 0.17769,0.17769 0.00515,0.00549 0.02004,0.02272 L 7.08688,-7.00471 7.13622,-7.22543 7.1716,-7.44881 7.19289,-7.67395 7.19998,-7.89999 7.19289,-8.12604 7.1716,-8.35118 7.13622,-8.57455 7.08688,-8.79527 7.02379,-9.01245 6.94717,-9.22523 6.85736,-9.43279 6.75468,-9.63429 6.63956,-9.82896 6.51245,-10.016 6.37383,-10.1947 6.22427,-10.3643 6.06435,-10.5243 5.89471,-10.6738 5.716,-10.8125 5.52896,-10.9396 5.33429,-11.0547 5.13278,-11.1574 4.92523,-11.2472 4.71245,-11.3238 4.49527,-11.3869 4.27455,-11.4362 4.05118,-11.4716 3.82605,-11.4929 3.60001,-11.5 l -0.22605,0.0071 -0.22514,0.0213 -0.22337,0.0354 -0.22072,0.0493 -0.21718,0.0631 -0.21278,0.0766 -0.20756,0.0898 -0.2015,0.1027 -0.19467,0.1151 -0.18705,0.1271 -0.17871,0.1387 -0.16963,0.1495 -0.159927,0.16 -0.149551,0.1696 -0.138626,0.1787 -0.127106,0.18704 -0.115128,0.19467 -0.102676,0.2015 -0.089813,0.20756 -0.076615,0.21278 -0.063095,0.21718 -0.0493313,0.22072 -0.0353851,0.22337 -0.021286,0.22514 L 0,-7.89999 v 2.91737 z"
     id="path945" />
  <path
     style="stroke-width:0;stroke-dasharray:none;fill-opacity:1.0;fill:url(#linearGradient1062)"
     d="m 8.38007,-4.00377 0.0079,-0.25116 4.7e-4,-0.00752 0.02365,-0.25017 9.3e-4,-0.00748 0.03931,-0.24818 0.00142,-0.0074 0.05481,-0.24524 0.00188,-0.00731 0.07011,-0.2413 0.00234,-0.00717 0.08511,-0.23644 0.00278,-0.00702 0.0998,-0.23062 0.00321,-0.0068 0.11407,-0.2239 0.00363,-0.0066 0.12792,-0.2163 0.00404,-0.00636 0.14125,-0.20784 0.00443,-0.0061 0.15401,-0.19855 0.0048,-0.00581 0.16619,-0.1885 0.00515,-0.00549 0.17769,-0.17769 0.00549,-0.00515 0.1885,-0.16619 0.00581,-0.0048 0.19853,-0.15401 0.0061,-0.00443 0.2079,-0.14125 0.0063,-0.00404 0.2163,-0.12792 0.0066,-0.00363 0.2239,-0.11407 0.0068,-0.00321 0.2306,-0.0998 0.0071,-0.00278 0.2364,-0.08511 0.0072,-0.00234 0.2413,-0.07011 0.0073,-0.00188 0.2452,-0.05481 0.0074,-0.00142 0.2482,-0.03931 0.0075,-9.3e-4 0.2501,-0.02365 0.0076,-4.7e-4 0.2511,-0.0079 h 0.0076 l 0.2511,0.0079 0.0076,4.7e-4 0.2501,0.02365 0.0075,9.3e-4 0.2482,0.03931 0.0074,0.00142 0.2452,0.05481 0.0073,0.00188 0.2413,0.07011 0.0072,0.00234 0.2364,0.08511 0.0071,0.00278 0.2306,0.0998 0.0068,0.00321 0.2239,0.11407 0.0066,0.00363 0.2163,0.12792 0.0063,0.00404 0.2079,0.14125 0.0061,0.00443 0.1985,0.15401 0.0058,0.0048 0.1885,0.16619 0.0055,0.00515 0.1777,0.17769 0.0052,0.00549 0.1662,0.1885 0.0048,0.00581 0.154,0.19855 0.0044,0.0061 0.1412,0.20784 0.0041,0.00636 0.1279,0.2163 0.0036,0.0066 0.1141,0.2239 0.0032,0.0068 0.0998,0.23062 0.0028,0.00702 0.0851,0.23644 0.0023,0.00717 0.0702,0.2413 0.0018,0.00731 0.0548,0.24524 0.0015,0.0074 0.0393,0.24818 9e-4,0.00748 0.0237,0.25017 4e-4,0.00752 0.0079,0.25116 V -4 h 0.2602 v -0.00377 l 0.0079,-0.25116 4e-4,-0.00752 0.0237,-0.25017 9e-4,-0.00748 0.0393,-0.24818 0.0015,-0.0074 0.0548,-0.24524 0.0018,-0.00731 0.0702,-0.2413 0.0023,-0.00717 0.0851,-0.23644 0.0028,-0.00702 0.0998,-0.23062 0.0032,-0.0068 0.1141,-0.2239 0.0036,-0.0066 0.1279,-0.2163 0.0041,-0.00636 0.1412,-0.20784 0.0044,-0.0061 0.154,-0.19855 0.0048,-0.00581 0.1662,-0.1885 0.0052,-0.00549 0.1777,-0.17769 0.0055,-0.00515 0.1885,-0.16619 0.0058,-0.0048 0.1985,-0.15401 0.0061,-0.00443 0.2079,-0.14125 0.0063,-0.00404 0.2163,-0.12792 0.0066,-0.00363 0.2239,-0.11407 0.0068,-0.00321 0.2306,-0.0998 0.0071,-0.00278 0.2364,-0.08511 0.0072,-0.00234 0.2413,-0.07011 0.0073,-0.00188 0.2452,-0.05481 0.0074,-0.00142 0.2482,-0.03931 0.0075,-9.3e-4 0.2501,-0.02365 0.0076,-4.7e-4 0.2511,-0.0079 h 0.0076 l 0.2511,0.0079 0.0076,4.7e-4 0.2501,0.02365 0.0075,9.3e-4 0.2482,0.03931 0.0074,0.00142 0.2452,0.05481 0.0073,0.00188 0.2413,0.07011 0.0072,0.00234 0.2364,0.08511 0.0071,0.00278 0.2306,0.0998 0.0068,0.00321 0.2239,0.11407 0.0066,0.00363 0.2163,0.12792 0.0063,0.00404 0.2079,0.14125 0.0061,0.00443 0.1985,0.15401 0.0058,0.0048 0.1885,0.16619 0.0055,0.00515 0.1777,0.17769 0.0052,0.00549 0.1662,0.1885 0.0048,0.00581 0.154,0.19855 0.0044,0.0061 0.1412,0.20784 0.0041,0.00636 0.1279,0.2163 0.0036,0.0066 0.1141,0.2239 0.0032,0.0068 0.0998,0.23062 0.0028,0.00702 0.0851,0.23644 0.0023,0.00717 0.0702,0.2413 0.0018,0.00731 0.0548,0.24524 0.0015,0.0074 0.0393,0.24818 9e-4,0.00748 0.0237,0.25017 4e-4,0.00752 0.0079,0.25116 V -4 h 0.2602 v -0.00377 l 0.0079,-0.25116 4e-4,-0.00752 0.0237,-0.25017 9e-4,-0.00748 0.0393,-0.24818 0.0015,-0.0074 0.0548,-0.24524 0.0018,-0.00731 0.0702,-0.2413 0.0023,-0.00717 0.0851,-0.23644 0.0028,-0.00702 0.0998,-0.23062 0.0032,-0.0068 0.1141,-0.2239 0.0036,-0.0066 0.1279,-0.2163 0.0041,-0.00636 0.1412,-0.20784 0.0044,-0.0061 0.154,-0.19855 0.0048,-0.00581 0.1662,-0.1885 0.0052,-0.00549 0.1777,-0.17769 0.0055,-0.00515 0.1885,-0.16619 0.0058,-0.0048 0.1985,-0.15401 0.0061,-0.00443 0.2079,-0.14125 0.0063,-0.00404 0.2163,-0.12792 0.0066,-0.00363 0.2239,-0.11407 0.0068,-0.00321 0.2306,-0.0998 0.0071,-0.00278 0.2364,-0.08511 0.0072,-0.00234 0.2413,-0.07011 0.0073,-0.00188 0.2452,-0.05481 0.0074,-0.00142 0.2482,-0.03931 0.0075,-9.3e-4 0.2501,-0.02365 0.0076,-4.7e-4 0.2511,-0.0079 h 0.0076 l 0.2511,0.0079 0.0076,4.7e-4 0.2501,0.02365 0.0075,9.3e-4 0.2482,0.03931 0.0074,0.00142 0.2452,0.05481 0.0073,0.00188 0.2413,0.07011 0.0072,0.00234 0.2364,0.08511 0.0071,0.00278 0.2306,0.0998 0.0068,0.00321 0.2239,0.11407 0.0066,0.00363 0.2163,0.12792 0.0063,0.00404 0.2079,0.14125 0.0061,0.00443 0.1985,0.15401 0.0058,0.0048 0.1885,0.16619 0.0055,0.00515 0.1777,0.17769 0.0052,0.00549 0.1662,0.1885 0.0048,0.00581 0.154,0.19855 0.0044,0.0061 0.1412,0.20784 0.0041,0.00636 0.0189,0.032 0.0552,-0.09331 0.1027,-0.2015 0.0898,-0.20755 0.0766,-0.21279 0.0631,-0.21718 0.0493,-0.22071 0.0354,-0.22338 0.0213,-0.22514 L 33.5,-8 33.4929,-8.22604 33.4716,-8.45119 33.4362,-8.67456 33.3869,-8.89528 33.3238,-9.11246 33.2472,-9.32524 33.1574,-9.53279 33.0547,-9.7343 32.9396,-9.92897 32.8125,-10.116 l -0.1387,-0.1787 -0.1495,-0.1697 -0.1599,-0.1599 -0.1697,-0.1495 -0.1787,-0.1387 -0.187,-0.1271 -0.1947,-0.1151 -0.2015,-0.1027 -0.2076,-0.0898 -0.2127,-0.0766 -0.2172,-0.0631 -0.2207,-0.0493 -0.2234,-0.0354 -0.2252,-0.0213 -0.226,-0.0071 -0.226,0.0071 -0.2252,0.0213 -0.2234,0.0354 -0.2207,0.0493 -0.2172,0.0631 -0.2128,0.0766 -0.2075,0.0898 -0.2015,0.1027 -0.1947,0.1151 -0.187,0.1271 -0.1787,0.1387 -0.1697,0.1495 -0.1599,0.1599 -0.1496,0.1697 -0.1386,0.1787 -0.1271,0.18703 -0.1151,0.19467 -0.1027,0.20151 -0.0898,0.20755 -0.0766,0.21278 L 26.4435,-9 H 7.15237 l 0.04976,0.17123 0.00188,0.00731 0.04933,0.22071 0.00142,0.00741 0.03537,0.22338 9.3e-4,0.00747 0.02129,0.22516 4.7e-4,0.00752 0.00711,0.22605 v 0.00754 l -0.00711,0.22604 -4.7e-4,0.00752 -0.02129,0.22516 -9.3e-4,0.00748 -0.03537,0.22337 -0.00142,0.00742 -0.04933,0.2207 -0.00188,0.00731 -0.06311,0.21718 -0.00232,0.00714 -0.01986,0.05522 0.05522,0.06264 0.0048,0.00581 0.15401,0.19855 0.00443,0.0061 0.14125,0.20784 0.00404,0.00636 0.12792,0.2163 0.00363,0.0066 0.11407,0.2239 0.00321,0.0068 0.0998,0.23062 0.00278,0.00702 0.08511,0.23644 0.00234,0.00717 0.07011,0.2413 0.00188,0.00731 0.05481,0.24524 0.00142,0.0074 0.03931,0.24818 9.3e-4,0.00748 0.02365,0.25017 4.7e-4,0.00752 0.0079,0.25116 V -4 h 0.26014 z"
     id="path134" />
</svg>
