<?xml version="1.0" encoding="UTF-8" standalone="no"?>
<svg
   xmlns:osb="http://www.openswatchbook.org/uri/2009/osb"
   xmlns:dc="http://purl.org/dc/elements/1.1/"
   xmlns:cc="http://creativecommons.org/ns#"
   xmlns:rdf="http://www.w3.org/1999/02/22-rdf-syntax-ns#"
   xmlns:svg="http://www.w3.org/2000/svg"
   xmlns="http://www.w3.org/2000/svg"
   xmlns:xlink="http://www.w3.org/1999/xlink"
   xmlns:sodipodi="http://sodipodi.sourceforge.net/DTD/sodipodi-0.dtd"
   xmlns:inkscape="http://www.inkscape.org/namespaces/inkscape"
   width="210mm"
   height="297mm"
   viewBox="0 0 210 297"
   version="1.1"
   id="svg8"
   inkscape:version="1.0.1 (3bc2e813f5, 2020-09-07)"
   sodipodi:docname="BoneProductionsLogo.svg">
  <defs
     id="defs2">
    <linearGradient
       id="linearGradient1177"
       osb:paint="solid">
      <stop
         style="stop-color:#ffcc00;stop-opacity:1;"
         offset="0"
         id="stop1175" />
    </linearGradient>
    <linearGradient
       id="Centers"
       osb:paint="solid">
      <stop
         style="stop-color:#ffcc00;stop-opacity:1;"
         offset="0"
         id="stop1167" />
    </linearGradient>
    <linearGradient
       inkscape:collect="always"
       xlink:href="#Centers"
       id="linearGradient1171"
       x1="54.185342"
       y1="83.060562"
       x2="63.12815"
       y2="83.060562"
       gradientUnits="userSpaceOnUse" />
  </defs>
  <sodipodi:namedview
     id="base"
     pagecolor="#ffffff"
     bordercolor="#666666"
     borderopacity="1.0"
     inkscape:pageopacity="0.0"
     inkscape:pageshadow="2"
     inkscape:zoom="1.7152318"
     inkscape:cx="312.31349"
     inkscape:cy="365.71129"
     inkscape:document-units="mm"
     inkscape:current-layer="layer1"
     inkscape:document-rotation="0"
     showgrid="false"
     showguides="false"
     inkscape:guide-bbox="true"
     inkscape:snap-smooth-nodes="true"
     inkscape:snap-center="true"
     inkscape:snap-midpoints="true"
     inkscape:snap-intersection-paths="true"
     inkscape:window-width="1920"
     inkscape:window-height="1137"
     inkscape:window-x="-8"
     inkscape:window-y="-8"
     inkscape:window-maximized="1">
    <sodipodi:guide
       position="58.355051,220.6476"
       orientation="0,-1"
       id="guide845" />
    <sodipodi:guide
       position="58.682274,224.46522"
       orientation="0,-1"
       id="guide847" />
    <sodipodi:guide
       position="58.791349,207.44954"
       orientation="0,-1"
       id="guide849" />
    <sodipodi:guide
       position="58.656883,213.93944"
       orientation="0,-1"
       id="guide905" />
    <sodipodi:guide
       position="44.409692,213.93944"
       orientation="0.70710678,-0.70710678"
       id="guide1183" />
    <sodipodi:guide
       position="44.409692,209.46788"
       orientation="1,0"
       id="guide1185" />
  </sodipodi:namedview>
  <metadata
     id="metadata5">
    <rdf:RDF>
      <cc:Work
         rdf:about="">
        <dc:format>image/svg+xml</dc:format>
        <dc:type
           rdf:resource="http://purl.org/dc/dcmitype/StillImage" />
        <dc:title />
      </cc:Work>
    </rdf:RDF>
  </metadata>
  <g
     inkscape:groupmode="layer"
     id="layer2"
     inkscape:label="back"
     style="display:none">
    <text
       xml:space="preserve"
       style="font-style:normal;font-variant:normal;font-weight:normal;font-stretch:normal;font-size:23.3522px;line-height:1.25;font-family:sans-serif;-inkscape-font-specification:sans-serif;letter-spacing:0px;word-spacing:0px;fill:#000000;fill-opacity:1;stroke:none;stroke-width:0.264583"
       x="105.97913"
       y="89.576759"
       id="text839"><tspan
         sodipodi:role="line"
         id="tspan837"
         x="105.97913"
         y="89.576759"
         style="stroke-width:0.264583">Productions</tspan></text>
    <text
       xml:space="preserve"
       style="font-style:normal;font-variant:normal;font-weight:normal;font-stretch:normal;font-size:23.2929px;line-height:1.25;font-family:effra;-inkscape-font-specification:effra;letter-spacing:0px;word-spacing:0px;fill:#000000;fill-opacity:1;stroke:none;stroke-width:0.264583"
       x="35.471546"
       y="89.453209"
       id="text835"><tspan
         sodipodi:role="line"
         id="tspan833"
         x="35.471546"
         y="89.453209"
         style="font-style:normal;font-variant:normal;font-weight:normal;font-stretch:normal;font-family:effra;-inkscape-font-specification:effra;stroke-width:0.264583">Bone</tspan></text>
  </g>
  <g
     inkscape:label="Ebene 1"
     inkscape:groupmode="layer"
     id="layer1">
    <rect
       style="fill:#000000;fill-rule:evenodd;stroke-width:0.264583"
       id="rect1160"
       width="160.7692"
       height="62.190552"
       x="9.2624216"
       y="115.11868" />
    <g
       id="g1049"
       transform="matrix(1,0,0,-1,-85.556536,213.61731)">
      <circle
         style="fill:#b3b3b3;stroke:none;stroke-width:0.4;stroke-opacity:0.648794;stop-color:#000000"
         id="circle1043"
         cx="167.36259"
         cy="111.31089"
         r="6.7081037" />
      <path
         id="path1045"
         style="fill:#ffcc00;stroke:none;stroke-width:0.4;stroke-opacity:0.648794;stop-color:#000000"
         d="m 167.36239,106.83947 a 4.471404,4.471404 0 0 0 -4.47104,4.47156 v 5.00021 a 6.7081037,6.7081037 0 0 0 4.47104,1.7079 h 0.007 a 6.7081037,6.7081037 0 0 0 4.46484,-1.7079 v -5.00021 a 4.471404,4.471404 0 0 0 -4.47156,-4.47156 z" />
    </g>
    <g
       id="g1168"
       transform="translate(2.5780996e-5)">
      <circle
         style="fill:#b3b3b3;stroke:none;stroke-width:0.4;stroke-opacity:0.648794;stop-color:#000000"
         id="circle853"
         cx="72.903763"
         cy="82.842354"
         r="6.7081037" />
      <path
         id="circle869"
         style="fill:#ffcc00;stroke:none;stroke-width:1.51181;stroke-opacity:0.648794;stop-color:#000000"
         d="m 275.54102,296.20508 a 16.899795,16.899795 0 0 0 -16.89844,16.90039 v 18.89844 a 25.353463,25.353463 0 0 0 16.89844,6.45507 h 0.0254 a 25.353463,25.353463 0 0 0 16.875,-6.45507 v -18.89844 a 16.899795,16.899795 0 0 0 -16.90039,-16.90039 z"
         transform="scale(0.26458333)" />
    </g>
    <path
       id="path1175"
       style="fill:#666666;stroke:none;stroke-width:1.51181;stroke-opacity:0.648794;stop-color:#000000"
       d="M 143.58984 264.34375 C 129.59738 264.35773 118.26168 275.7048 118.26172 289.69727 C 118.2617 296.69845 121.09941 303.03692 125.6875 307.625 L 103.23242 330.08008 C 98.644336 325.49199 92.305879 322.65428 85.304688 322.6543 L 85.279297 322.6543 C 71.286836 322.66828 59.951134 334.01535 59.951172 348.00781 C 59.951142 362.01018 71.30232 373.36136 85.304688 373.36133 C 92.305873 373.36134 98.644334 370.52363 103.23242 365.93555 L 109.53711 372.24023 L 167.84766 313.92969 L 161.54297 307.625 C 166.13106 303.03692 168.96877 296.69845 168.96875 289.69727 C 168.96878 275.69489 157.61762 264.34372 143.61523 264.34375 L 143.58984 264.34375 z "
       transform="scale(0.26458333)" />
    <g
       id="g1159">
      <path
         id="circle855"
         style="fill:#b3b3b3;stroke:none;stroke-width:1.51181;stroke-opacity:0.648794;stop-color:#000000"
         d="m 167.82227,263.22266 a 25.353463,25.353463 0 0 0 -25.32813,25.35351 25.353463,25.353463 0 0 0 0,0.0254 v 25.32813 a 25.353463,25.353463 0 0 0 25.35352,25.35351 25.353463,25.353463 0 0 0 25.35351,-25.35351 25.353463,25.353463 0 0 0 -3.39648,-12.67774 25.353463,25.353463 0 0 0 3.39648,-12.67578 25.353463,25.353463 0 0 0 -25.35351,-25.35351 25.353463,25.353463 0 0 0 -0.0254,0 z"
         transform="scale(0.26458333)" />
      <path
         id="circle871"
         style="fill:#ffcc00;stroke:none;stroke-width:1.51181;stroke-opacity:0.648794;stop-color:#000000"
         d="m 167.84766,271.67578 a 16.899795,16.899795 0 0 0 -16.90039,16.90039 v 25.35352 a 16.899795,16.899795 0 0 0 16.90039,16.90039 16.899795,16.899795 0 0 0 16.90039,-16.90039 16.899795,16.899795 0 0 0 -5.72657,-12.67774 16.899795,16.899795 0 0 0 5.72657,-12.67578 16.899795,16.899795 0 0 0 -16.90039,-16.90039 z"
         transform="scale(0.26458333)" />
    </g>
    <g
       id="g1164"
       transform="translate(-1.3743785e-4)">
      <g
         id="g1022">
        <path
           id="path843"
           style="fill:#b3b3b3;stroke:none;stroke-width:1.51181;stroke-opacity:0.648794;stop-color:#000000"
           d="m 221.66992,288.57617 c -13.99246,0.014 -25.32816,11.36106 -25.32812,25.35352 -3e-5,14.00237 11.35114,25.35354 25.35351,25.35351 14.00237,3e-5 25.35355,-11.35114 25.35352,-25.35351 3e-5,-14.00238 -11.35114,-25.35355 -25.35352,-25.35352 z"
           transform="scale(0.26458333)"
           sodipodi:nodetypes="ssssss" />
        <circle
           style="fill:#ffcc00;stroke:none;stroke-width:0.4;stroke-opacity:0.648794;stop-color:#000000"
           id="circle903"
           cx="58.656883"
           cy="83.060562"
           r="4.4714041" />
      </g>
    </g>
    <g
       id="g1173">
      <circle
         style="fill:#b3b3b3;stroke:none;stroke-width:0.4;stroke-opacity:0.648794;stop-color:#000000"
         id="circle851"
         cx="87.15081"
         cy="82.842354"
         r="6.7081037" />
      <path
         id="circle877"
         style="fill:#ffcc00;stroke:none;stroke-width:1.51181;stroke-opacity:0.648794;stop-color:#000000"
         d="m 329.38867,296.20508 a 16.899795,16.899795 0 0 0 -16.55273,13.49414 h 33.10742 a 16.899795,16.899795 0 0 0 -16.55469,-13.49414 z"
         transform="scale(0.26458333)" />
      <path
         id="path915"
         style="fill:#ffcc00;stroke:none;stroke-width:1.51181;stroke-opacity:0.648794;stop-color:#000000"
         inkscape:transform-center-x="-0.00023278042"
         inkscape:transform-center-y="2.3448182"
         d="m 354.61328,315.65039 a 25.353463,25.353463 0 0 1 -0.0449,0.41992 25.353463,25.353463 0 0 0 0.0449,-0.41992 z m -0.22656,1.67773 a 25.353463,25.353463 0 0 1 -0.1543,0.83204 25.353463,25.353463 0 0 0 0.1543,-0.83204 z m -0.1543,0.83204 h -41.39648 a 16.899795,16.899795 0 0 0 16.55468,13.49414 h 17.28126 a 25.353463,25.353463 0 0 0 7.56054,-13.49414 z"
         transform="scale(0.26458333)" />
    </g>
    <path
       id="circle963"
       style="fill:#b3b3b3;stroke:none;stroke-width:0.4;stroke-opacity:0.648794;stop-color:#000000"
       d="m 28.975142,91.780379 a 6.7081037,6.7081037 0 0 0 -6.701917,6.708118 V 108.7964 h 2.237073 v -5.30717 a 6.7081037,6.7081037 0 0 0 4.471045,1.70739 6.7081037,6.7081037 0 0 0 6.708117,-6.708123 6.7081037,6.7081037 0 0 0 -6.708117,-6.708118 6.7081037,6.7081037 0 0 0 -0.0062,0 z" />
    <circle
       style="fill:#ffcc00;stroke:none;stroke-width:0.4;stroke-opacity:0.648794;stop-color:#000000"
       id="circle988"
       cx="28.981585"
       cy="98.48867"
       r="4.4714041" />
    <g
       id="g1018"
       transform="translate(-82.76134,19.24579)">
      <path
         id="circle979"
         style="fill:#b3b3b3;stroke:none;stroke-width:1.51181;stroke-opacity:0.648794;stop-color:#000000"
         d="m 453.23242,288.57617 v 25.35156 0.002 a 25.353463,25.353463 0 0 0 25.35352,25.35351 v -50.70703 a 25.353463,25.353463 0 0 0 -0.0234,0 25.353463,25.353463 0 0 0 -16.875,6.45508 v -6.45508 z"
         transform="scale(0.26458333)" />
      <path
         id="circle993"
         style="fill:#ffcc00;stroke:none;stroke-width:1.51181;stroke-opacity:0.648794;stop-color:#000000"
         d="m 478.58594,297.0293 a 16.899795,16.899795 0 0 0 -16.89844,16.90039 v 18.90039 a 25.353463,25.353463 0 0 0 16.87305,6.45312 h 0.0254 v -8.45312 -16.90039 z"
         transform="scale(0.26458333)" />
    </g>
    <g
       id="g1028"
       transform="translate(-6.6172984,19.24579)">
      <path
         id="path1024"
         style="fill:#b3b3b3;stroke:none;stroke-width:1.51181;stroke-opacity:0.648794;stop-color:#000000"
         d="m 221.66992,288.57617 c -13.99246,0.014 -25.32816,11.36106 -25.32812,25.35352 -3e-5,14.00237 11.35114,25.35354 25.35351,25.35351 14.00237,3e-5 25.35355,-11.35114 25.35352,-25.35351 3e-5,-14.00238 -11.35114,-25.35355 -25.35352,-25.35352 z"
         transform="scale(0.26458333)"
         sodipodi:nodetypes="ssssss" />
      <circle
         style="fill:#ffcc00;stroke:none;stroke-width:0.4;stroke-opacity:0.648794;stop-color:#000000"
         id="circle1026"
         cx="58.656883"
         cy="83.060562"
         r="4.4714041" />
    </g>
    <g
       id="g1059"
       transform="translate(-83.758986,19.24579)">
      <path
         id="path1030"
         style="fill:#b3b3b3;stroke:none;stroke-width:1.51181;stroke-opacity:0.648794;stop-color:#000000"
         d="m 586.40625,274.14648 v 20.88868 c -4.48562,-4.01511 -10.40646,-6.459 -16.90039,-6.45899 h -0.0254 c -13.99245,0.014 -25.32816,11.36106 -25.32813,25.35352 -3e-5,14.00236 11.35116,25.35354 25.35352,25.35351 14.00239,3e-5 25.35355,-11.35115 25.35352,-25.35351 v -39.78321 z"
         transform="scale(0.26458333)" />
      <path
         id="circle1032"
         style="fill:#ffcc00;stroke:none;stroke-width:0.4;stroke-opacity:0.648794;stop-color:#000000"
         d="m 155.15329,83.060562 a 4.4714041,4.4714041 0 0 1 -4.47141,4.471404 4.4714041,4.4714041 0 0 1 -4.4714,-4.471404 4.4714041,4.4714041 0 0 1 4.4714,-4.471404 4.4714041,4.4714041 0 0 1 4.47141,4.471404 z" />
    </g>
    <g
       id="g1055"
       transform="matrix(0,1,1,0,-14.621168,-65.056175)">
      <circle
         style="fill:#b3b3b3;stroke:none;stroke-width:0.4;stroke-opacity:0.648794;stop-color:#000000"
         id="circle1051"
         cx="167.36259"
         cy="111.31089"
         r="6.7081037" />
      <path
         id="path1053"
         style="fill:#ffcc00;stroke:none;stroke-width:0.4;stroke-opacity:0.648794;stop-color:#000000"
         d="m 167.36239,106.83947 a 4.471404,4.471404 0 0 0 -4.47104,4.47156 v 5.00021 a 6.7081037,6.7081037 0 0 0 4.47104,1.7079 h 0.007 a 6.7081037,6.7081037 0 0 0 4.46484,-1.7079 v -5.00021 a 4.471404,4.471404 0 0 0 -4.47156,-4.47156 z" />
    </g>
    <g
       id="g1069"
       transform="translate(64.794711,19.027581)">
      <path
         id="path1065"
         style="fill:#b3b3b3;stroke:none;stroke-width:1.51181;stroke-opacity:0.648794;stop-color:#000000"
         d="m 221.66992,288.57617 c -13.99246,0.014 -25.32816,11.36106 -25.32812,25.35352 -3e-5,14.00237 11.35114,25.35354 25.35351,25.35351 14.00237,3e-5 25.35355,-11.35114 25.35352,-25.35351 3e-5,-14.00238 -11.35114,-25.35355 -25.35352,-25.35352 z"
         transform="scale(0.26458333)"
         sodipodi:nodetypes="ssssss" />
      <circle
         style="fill:#ffcc00;stroke:none;stroke-width:0.4;stroke-opacity:0.648794;stop-color:#000000"
         id="circle1067"
         cx="58.656883"
         cy="83.060562"
         r="4.4714041" />
    </g>
    <g
       id="g1075"
       transform="translate(-29.027837,-9.2227593)">
      <circle
         style="fill:#b3b3b3;stroke:none;stroke-width:0.4;stroke-opacity:0.648794;stop-color:#000000"
         id="circle1071"
         cx="167.36259"
         cy="111.31089"
         r="6.7081037" />
      <path
         id="path1073"
         style="fill:#ffcc00;stroke:none;stroke-width:0.4;stroke-opacity:0.648794;stop-color:#000000"
         d="m 167.36239,106.83947 a 4.471404,4.471404 0 0 0 -4.47104,4.47156 v 5.00021 a 6.7081037,6.7081037 0 0 0 4.47104,1.7079 h 0.007 a 6.7081037,6.7081037 0 0 0 4.46484,-1.7079 v -5.00021 a 4.471404,4.471404 0 0 0 -4.47156,-4.47156 z" />
    </g>
    <g
       id="g1088"
       transform="translate(-72.299767,-0.03610632)">
      <circle
         style="fill:#b3b3b3;stroke:none;stroke-width:0.4;stroke-opacity:0.648794;stop-color:#000000"
         id="circle1077"
         cx="225.51768"
         cy="102.12424"
         r="6.7081037" />
      <path
         id="path1081"
         style="fill:#ffcc00;stroke:none;stroke-width:0.4;stroke-opacity:0.648794;stop-color:#000000"
         inkscape:transform-center-x="1.1471849"
         inkscape:transform-center-y="2.7906679"
         d="m 218.84374,102.79772 a 6.7081037,6.7081037 0 0 0 0.0119,0.11111 6.7081037,6.7081037 0 0 1 -0.0119,-0.11111 z m 0.0599,0.4439 a 6.7081037,6.7081037 0 0 0 0.0408,0.22015 6.7081037,6.7081037 0 0 1 -0.0408,-0.22015 z m 0.0408,0.22015 h 10.95282 a 4.471404,4.471404 0 0 1 -4.3801,3.57032 h -4.57233 a 6.7081037,6.7081037 0 0 1 -2.00039,-3.57032 z" />
      <path
         id="path1083"
         style="fill:#ffcc00;stroke:none;stroke-width:0.4;stroke-opacity:0.648794;stop-color:#000000"
         inkscape:transform-center-x="-1.1471851"
         inkscape:transform-center-y="-2.7906701"
         d="m 232.19163,101.45075 a 6.7081037,6.7081037 0 0 0 -0.0119,-0.11111 6.7081037,6.7081037 0 0 1 0.0119,0.11111 z m -0.0599,-0.4439 a 6.7081037,6.7081037 0 0 0 -0.0408,-0.22015 6.7081037,6.7081037 0 0 1 0.0408,0.22015 z m -0.0408,-0.22015 h -10.95282 a 4.471404,4.471404 0 0 1 4.3801,-3.570316 h 4.57233 a 6.7081037,6.7081037 0 0 1 2.00039,3.570316 z" />
    </g>
    <g
       id="g1155"
       transform="translate(0.85354518,-2.7873313)">
      <path
         id="path1090"
         style="fill:#b3b3b3;stroke:none;stroke-width:0.4;stroke-opacity:0.648794;stop-color:#000000"
         d="m 104.01137,94.567711 v 10.525969 c -1e-5,3.7048 3.00332,6.70813 6.70811,6.70812 V 98.385566 h -0.007 c -1.71552,0.0017 -3.27967,0.648227 -4.46484,1.708944 v -5.526799 z" />
      <path
         id="circle1092"
         style="fill:#ffcc00;stroke:none;stroke-width:0.4;stroke-opacity:0.648794;stop-color:#000000"
         d="m 110.71949,100.62212 a 4.471404,4.471404 0 0 0 -4.47156,4.47156 4.471404,4.471404 0 0 0 4.47156,4.47156 z" />
    </g>
    <g
       id="g1151"
       transform="translate(-0.35168925,-2.7873313)">
      <path
         id="path1128"
         style="fill:#b3b3b3;stroke:none;stroke-width:0.4;stroke-opacity:0.648794;stop-color:#000000"
         d="m 113.39167,94.567711 v 2.163693 h 2.23656 v -2.163693 z m 0,3.817855 v 6.708114 c 0,1.98661 0.86432,3.77089 2.23656,4.99918 v -9.99835 -1.708944 z" />
      <rect
         style="fill:#ffcc00;fill-rule:evenodd;stroke-width:0.264583"
         id="rect1147"
         width="2.2365572"
         height="1.6541617"
         x="113.39166"
         y="96.7314" />
    </g>
    <path
       style="fill:#ffcc00;stroke:none;stroke-width:0.264583px;stroke-linecap:butt;stroke-linejoin:miter;stroke-opacity:1"
       d="M 42.741577,81.392447 44.40969,83.06056 28.981693,98.488557 27.313577,96.820446 Z"
       id="path1201" />
    <path
       id="path1203"
       style="fill:#b3b3b3;stroke:none;stroke-width:0.4;stroke-opacity:0.648794;stop-color:#000000"
       d="m 44.699582,76.649054 c -3.702172,0.0037 -6.701409,3.005947 -6.701398,6.708118 -8e-6,3.704791 3.003322,6.708124 6.708116,6.708117 3.704794,7e-6 6.708127,-3.003326 6.708119,-6.708117 8e-6,-3.704796 -3.003323,-6.708126 -6.708119,-6.708118 z m 0.0067,2.236557 a 4.471404,4.471404 0 0 1 4.471045,4.471561 4.471404,4.471404 0 0 1 -4.471045,4.471562 4.471404,4.471404 0 0 1 -4.471562,-4.471562 4.471404,4.471404 0 0 1 4.471562,-4.471561 z" />
    <path
       style="fill:#ffcc00;stroke:none;stroke-width:0.264583px;stroke-linecap:butt;stroke-linejoin:miter;stroke-opacity:1"
       d="M 42.741577,81.392447 44.40969,83.06056 28.981693,98.488557 27.313577,96.820446 Z"
       id="path1218" />
    <g
       id="g1224"
       transform="matrix(1,0,0,-1,-85.556536,213.61731)">
      <circle
         style="fill:#b3b3b3;stroke:none;stroke-width:0.4;stroke-opacity:0.648794;stop-color:#000000"
         id="circle1220"
         cx="167.36259"
         cy="111.31089"
         r="6.7081037" />
      <path
         id="path1222"
         style="fill:#ffcc00;stroke:none;stroke-width:0.4;stroke-opacity:0.648794;stop-color:#000000"
         d="m 167.36239,106.83947 a 4.471404,4.471404 0 0 0 -4.47104,4.47156 v 5.00021 a 6.7081037,6.7081037 0 0 0 4.47104,1.7079 h 0.007 a 6.7081037,6.7081037 0 0 0 4.46484,-1.7079 v -5.00021 a 4.471404,4.471404 0 0 0 -4.47156,-4.47156 z" />
    </g>
    <circle
       style="fill:#b3b3b3;stroke:none;stroke-width:0.4;stroke-opacity:0.648794;stop-color:#000000"
       id="circle1226"
       cx="72.903786"
       cy="82.842354"
       r="6.7081037" />
    <path
       id="path1228"
       style="fill:url(#linearGradient1177);fill-opacity:1;stroke:none;stroke-width:0.4;stroke-opacity:0.648794;stop-color:#000000"
       d="m 72.903586,78.370926 a 4.471404,4.471404 0 0 0 -4.471045,4.471562 V 87.8427 a 6.7081037,6.7081037 0 0 0 4.471045,1.707904 h 0.0067 A 6.7081037,6.7081037 0 0 0 77.375151,87.8427 v -5.000212 a 4.471404,4.471404 0 0 0 -4.471562,-4.471562 z" />
    <path
       id="path1232"
       style="fill:#666666;stroke:none;stroke-width:1.51181;stroke-opacity:0.648794;stop-color:#000000"
       d="M 143.58984 264.34375 C 129.59738 264.35773 118.26168 275.7048 118.26172 289.69727 C 118.2617 296.69845 121.09941 303.03692 125.6875 307.625 L 103.23242 330.08008 C 98.644336 325.49199 92.305879 322.65428 85.304688 322.6543 L 85.279297 322.6543 C 71.286836 322.66828 59.951134 334.01535 59.951172 348.00781 C 59.951142 362.01018 71.30232 373.36136 85.304688 373.36133 C 92.305873 373.36134 98.644334 370.52363 103.23242 365.93555 L 109.53711 372.24023 L 167.84766 313.92969 L 161.54297 307.625 C 166.13106 303.03692 168.96877 296.69845 168.96875 289.69727 C 168.96878 275.69489 157.61762 264.34372 143.61523 264.34375 L 143.58984 264.34375 z "
       transform="scale(0.26458333)" />
    <g
       id="g1238">
      <path
         id="path1234"
         style="fill:#b3b3b3;stroke:none;stroke-width:1.51181;stroke-opacity:0.648794;stop-color:#000000"
         d="m 167.82227,263.22266 a 25.353463,25.353463 0 0 0 -25.32813,25.35351 25.353463,25.353463 0 0 0 0,0.0254 v 25.32813 a 25.353463,25.353463 0 0 0 25.35352,25.35351 25.353463,25.353463 0 0 0 25.35351,-25.35351 25.353463,25.353463 0 0 0 -3.39648,-12.67774 25.353463,25.353463 0 0 0 3.39648,-12.67578 25.353463,25.353463 0 0 0 -25.35351,-25.35351 25.353463,25.353463 0 0 0 -0.0254,0 z"
         transform="scale(0.26458333)" />
      <path
         id="path1236"
         style="fill:#ffcc00;stroke:none;stroke-width:1.51181;stroke-opacity:0.648794;stop-color:#000000"
         d="m 167.84766,271.67578 a 16.899795,16.899795 0 0 0 -16.90039,16.90039 v 25.35352 a 16.899795,16.899795 0 0 0 16.90039,16.90039 16.899795,16.899795 0 0 0 16.90039,-16.90039 16.899795,16.899795 0 0 0 -5.72657,-12.67774 16.899795,16.899795 0 0 0 5.72657,-12.67578 16.899795,16.899795 0 0 0 -16.90039,-16.90039 z"
         transform="scale(0.26458333)" />
    </g>
    <path
       id="path1240"
       style="fill:#b3b3b3;stroke:none;stroke-width:0.4;stroke-opacity:0.648794;stop-color:#000000"
       d="m 58.650028,76.352444 c -3.702172,0.0037 -6.701409,3.005947 -6.701398,6.708119 -8e-6,3.704793 3.003322,6.708124 6.708116,6.708116 3.704794,8e-6 6.708127,-3.003323 6.708119,-6.708116 8e-6,-3.704797 -3.003323,-6.708127 -6.708119,-6.708119 z"
       sodipodi:nodetypes="ssssss" />
    <circle
       style="fill:url(#linearGradient1171);stroke:none;stroke-width:0.4;stroke-opacity:0.648794;stop-color:#000000;fill-opacity:1"
       id="circle1242"
       cx="58.656746"
       cy="83.060562"
       r="4.4714041" />
    <g
       id="g1254">
      <circle
         style="fill:#b3b3b3;stroke:none;stroke-width:0.4;stroke-opacity:0.648794;stop-color:#000000"
         id="circle1248"
         cx="87.15081"
         cy="82.842354"
         r="6.7081037" />
      <path
         id="path1250"
         style="fill:#ffcc00;stroke:none;stroke-width:1.51181;stroke-opacity:0.648794;stop-color:#000000"
         d="m 329.38867,296.20508 a 16.899795,16.899795 0 0 0 -16.55273,13.49414 h 33.10742 a 16.899795,16.899795 0 0 0 -16.55469,-13.49414 z"
         transform="scale(0.26458333)" />
      <path
         id="path1252"
         style="fill:#ffcc00;stroke:none;stroke-width:1.51181;stroke-opacity:0.648794;stop-color:#000000"
         inkscape:transform-center-x="-0.00023278042"
         inkscape:transform-center-y="2.3448182"
         d="m 354.61328,315.65039 a 25.353463,25.353463 0 0 1 -0.0449,0.41992 25.353463,25.353463 0 0 0 0.0449,-0.41992 z m -0.22656,1.67773 a 25.353463,25.353463 0 0 1 -0.1543,0.83204 25.353463,25.353463 0 0 0 0.1543,-0.83204 z m -0.1543,0.83204 h -41.39648 a 16.899795,16.899795 0 0 0 16.55468,13.49414 h 17.28126 a 25.353463,25.353463 0 0 0 7.56054,-13.49414 z"
         transform="scale(0.26458333)" />
    </g>
    <path
       id="path1256"
       style="fill:#b3b3b3;stroke:none;stroke-width:0.4;stroke-opacity:0.648794;stop-color:#000000"
       d="m 28.975142,91.780379 a 6.7081037,6.7081037 0 0 0 -6.701917,6.708118 V 108.7964 h 2.237073 v -5.30717 a 6.7081037,6.7081037 0 0 0 4.471045,1.70739 6.7081037,6.7081037 0 0 0 6.708117,-6.708123 6.7081037,6.7081037 0 0 0 -6.708117,-6.708118 6.7081037,6.7081037 0 0 0 -0.0062,0 z" />
    <circle
       style="fill:#ffcc00;stroke:none;stroke-width:0.4;stroke-opacity:0.648794;stop-color:#000000"
       id="circle1258"
       cx="28.981585"
       cy="98.48867"
       r="4.4714041" />
    <g
       id="g1264"
       transform="translate(-82.76134,19.24579)">
      <path
         id="path1260"
         style="fill:#b3b3b3;stroke:none;stroke-width:1.51181;stroke-opacity:0.648794;stop-color:#000000"
         d="m 453.23242,288.57617 v 25.35156 0.002 a 25.353463,25.353463 0 0 0 25.35352,25.35351 v -50.70703 a 25.353463,25.353463 0 0 0 -0.0234,0 25.353463,25.353463 0 0 0 -16.875,6.45508 v -6.45508 z"
         transform="scale(0.26458333)" />
      <path
         id="path1262"
         style="fill:#ffcc00;stroke:none;stroke-width:1.51181;stroke-opacity:0.648794;stop-color:#000000"
         d="m 478.58594,297.0293 a 16.899795,16.899795 0 0 0 -16.89844,16.90039 v 18.90039 a 25.353463,25.353463 0 0 0 16.87305,6.45312 h 0.0254 v -8.45312 -16.90039 z"
         transform="scale(0.26458333)" />
    </g>
    <g
       id="g1270"
       transform="translate(-6.6172984,19.24579)">
      <path
         id="path1266"
         style="fill:#b3b3b3;stroke:none;stroke-width:1.51181;stroke-opacity:0.648794;stop-color:#000000"
         d="m 221.66992,288.57617 c -13.99246,0.014 -25.32816,11.36106 -25.32812,25.35352 -3e-5,14.00237 11.35114,25.35354 25.35351,25.35351 14.00237,3e-5 25.35355,-11.35114 25.35352,-25.35351 3e-5,-14.00238 -11.35114,-25.35355 -25.35352,-25.35352 z"
         transform="scale(0.26458333)"
         sodipodi:nodetypes="ssssss" />
      <circle
         style="fill:#ffcc00;stroke:none;stroke-width:0.4;stroke-opacity:0.648794;stop-color:#000000"
         id="circle1268"
         cx="58.656883"
         cy="83.060562"
         r="4.4714041" />
    </g>
    <g
       id="g1276"
       transform="translate(-83.758986,19.24579)">
      <path
         id="path1272"
         style="fill:#b3b3b3;stroke:none;stroke-width:1.51181;stroke-opacity:0.648794;stop-color:#000000"
         d="m 586.40625,274.14648 v 20.88868 c -4.48562,-4.01511 -10.40646,-6.459 -16.90039,-6.45899 h -0.0254 c -13.99245,0.014 -25.32816,11.36106 -25.32813,25.35352 -3e-5,14.00236 11.35116,25.35354 25.35352,25.35351 14.00239,3e-5 25.35355,-11.35115 25.35352,-25.35351 v -39.78321 z"
         transform="scale(0.26458333)" />
      <path
         id="path1274"
         style="fill:#ffcc00;stroke:none;stroke-width:0.4;stroke-opacity:0.648794;stop-color:#000000"
         d="m 155.15329,83.060562 a 4.4714041,4.4714041 0 0 1 -4.47141,4.471404 4.4714041,4.4714041 0 0 1 -4.4714,-4.471404 4.4714041,4.4714041 0 0 1 4.4714,-4.471404 4.4714041,4.4714041 0 0 1 4.47141,4.471404 z" />
    </g>
    <g
       id="g1282"
       transform="matrix(0,1,1,0,-14.621168,-65.056175)">
      <circle
         style="fill:#b3b3b3;stroke:none;stroke-width:0.4;stroke-opacity:0.648794;stop-color:#000000"
         id="circle1278"
         cx="167.36259"
         cy="111.31089"
         r="6.7081037" />
      <path
         id="path1280"
         style="fill:#ffcc00;stroke:none;stroke-width:0.4;stroke-opacity:0.648794;stop-color:#000000"
         d="m 167.36239,106.83947 a 4.471404,4.471404 0 0 0 -4.47104,4.47156 v 5.00021 a 6.7081037,6.7081037 0 0 0 4.47104,1.7079 h 0.007 a 6.7081037,6.7081037 0 0 0 4.46484,-1.7079 v -5.00021 a 4.471404,4.471404 0 0 0 -4.47156,-4.47156 z" />
    </g>
    <g
       id="g1288"
       transform="translate(64.794711,19.027581)">
      <path
         id="path1284"
         style="fill:#b3b3b3;stroke:none;stroke-width:1.51181;stroke-opacity:0.648794;stop-color:#000000"
         d="m 221.66992,288.57617 c -13.99246,0.014 -25.32816,11.36106 -25.32812,25.35352 -3e-5,14.00237 11.35114,25.35354 25.35351,25.35351 14.00237,3e-5 25.35355,-11.35114 25.35352,-25.35351 3e-5,-14.00238 -11.35114,-25.35355 -25.35352,-25.35352 z"
         transform="scale(0.26458333)"
         sodipodi:nodetypes="ssssss" />
      <circle
         style="fill:#ffcc00;stroke:none;stroke-width:0.4;stroke-opacity:0.648794;stop-color:#000000"
         id="circle1286"
         cx="58.656883"
         cy="83.060562"
         r="4.4714041" />
    </g>
    <g
       id="g1294"
       transform="translate(-29.027837,-9.2227593)">
      <circle
         style="fill:#b3b3b3;stroke:none;stroke-width:0.4;stroke-opacity:0.648794;stop-color:#000000"
         id="circle1290"
         cx="167.36259"
         cy="111.31089"
         r="6.7081037" />
      <path
         id="path1292"
         style="fill:#ffcc00;stroke:none;stroke-width:0.4;stroke-opacity:0.648794;stop-color:#000000"
         d="m 167.36239,106.83947 a 4.471404,4.471404 0 0 0 -4.47104,4.47156 v 5.00021 a 6.7081037,6.7081037 0 0 0 4.47104,1.7079 h 0.007 a 6.7081037,6.7081037 0 0 0 4.46484,-1.7079 v -5.00021 a 4.471404,4.471404 0 0 0 -4.47156,-4.47156 z" />
    </g>
    <g
       id="g1302"
       transform="translate(-72.299767,-0.03610632)">
      <circle
         style="fill:#b3b3b3;stroke:none;stroke-width:0.4;stroke-opacity:0.648794;stop-color:#000000"
         id="circle1296"
         cx="225.51768"
         cy="102.12424"
         r="6.7081037" />
      <path
         id="path1298"
         style="fill:#ffcc00;stroke:none;stroke-width:0.4;stroke-opacity:0.648794;stop-color:#000000"
         inkscape:transform-center-x="1.1471849"
         inkscape:transform-center-y="2.7906679"
         d="m 218.84374,102.79772 a 6.7081037,6.7081037 0 0 0 0.0119,0.11111 6.7081037,6.7081037 0 0 1 -0.0119,-0.11111 z m 0.0599,0.4439 a 6.7081037,6.7081037 0 0 0 0.0408,0.22015 6.7081037,6.7081037 0 0 1 -0.0408,-0.22015 z m 0.0408,0.22015 h 10.95282 a 4.471404,4.471404 0 0 1 -4.3801,3.57032 h -4.57233 a 6.7081037,6.7081037 0 0 1 -2.00039,-3.57032 z" />
      <path
         id="path1300"
         style="fill:#ffcc00;stroke:none;stroke-width:0.4;stroke-opacity:0.648794;stop-color:#000000"
         inkscape:transform-center-x="-1.1471851"
         inkscape:transform-center-y="-2.7906701"
         d="m 232.19163,101.45075 a 6.7081037,6.7081037 0 0 0 -0.0119,-0.11111 6.7081037,6.7081037 0 0 1 0.0119,0.11111 z m -0.0599,-0.4439 a 6.7081037,6.7081037 0 0 0 -0.0408,-0.22015 6.7081037,6.7081037 0 0 1 0.0408,0.22015 z m -0.0408,-0.22015 h -10.95282 a 4.471404,4.471404 0 0 1 4.3801,-3.570316 h 4.57233 a 6.7081037,6.7081037 0 0 1 2.00039,3.570316 z" />
    </g>
    <g
       id="g1308"
       transform="translate(0.85354518,-2.7873313)">
      <path
         id="path1304"
         style="fill:#b3b3b3;stroke:none;stroke-width:0.4;stroke-opacity:0.648794;stop-color:#000000"
         d="m 104.01137,94.567711 v 10.525969 c -1e-5,3.7048 3.00332,6.70813 6.70811,6.70812 V 98.385566 h -0.007 c -1.71552,0.0017 -3.27967,0.648227 -4.46484,1.708944 v -5.526799 z" />
      <path
         id="path1306"
         style="fill:#ffcc00;stroke:none;stroke-width:0.4;stroke-opacity:0.648794;stop-color:#000000"
         d="m 110.71949,100.62212 a 4.471404,4.471404 0 0 0 -4.47156,4.47156 4.471404,4.471404 0 0 0 4.47156,4.47156 z" />
    </g>
    <g
       id="g1314"
       transform="translate(-0.35168925,-2.7873313)">
      <path
         id="path1310"
         style="fill:#b3b3b3;stroke:none;stroke-width:0.4;stroke-opacity:0.648794;stop-color:#000000"
         d="m 113.39167,94.567711 v 2.163693 h 2.23656 v -2.163693 z m 0,3.817855 v 6.708114 c 0,1.98661 0.86432,3.77089 2.23656,4.99918 v -9.99835 -1.708944 z" />
      <rect
         style="fill:#ffcc00;fill-rule:evenodd;stroke-width:0.264583"
         id="rect1312"
         width="2.2365572"
         height="1.6541617"
         x="113.39166"
         y="96.7314" />
    </g>
    <path
       style="fill:#ffcc00;stroke:none;stroke-width:0.264583px;stroke-linecap:butt;stroke-linejoin:miter;stroke-opacity:1"
       d="M 42.741577,81.392447 44.40969,83.06056 28.981693,98.488557 27.313577,96.820446 Z"
       id="path1316" />
    <path
       id="path1318"
       style="fill:#b3b3b3;stroke:none;stroke-width:0.4;stroke-opacity:0.648794;stop-color:#000000"
       d="m 44.699582,76.649054 c -3.702172,0.0037 -6.701409,3.005947 -6.701398,6.708118 -8e-6,3.704791 3.003322,6.708124 6.708116,6.708117 3.704794,7e-6 6.708127,-3.003326 6.708119,-6.708117 8e-6,-3.704796 -3.003323,-6.708126 -6.708119,-6.708118 z m 0.0067,2.236557 a 4.471404,4.471404 0 0 1 4.471045,4.471561 4.471404,4.471404 0 0 1 -4.471045,4.471562 4.471404,4.471404 0 0 1 -4.471562,-4.471562 4.471404,4.471404 0 0 1 4.471562,-4.471561 z" />
    <path
       style="fill:#ffcc00;stroke:none;stroke-width:0.264583px;stroke-linecap:butt;stroke-linejoin:miter;stroke-opacity:1"
       d="M 42.741577,81.392447 44.40969,83.06056 28.981693,98.488557 27.313577,96.820446 Z"
       id="path1320" />
    <g
       id="g955"
       transform="matrix(1,0,0,-1,-85.556536,270.07469)">
      <circle
         style="fill:#b3b3b3;stroke:none;stroke-width:0.4;stroke-opacity:0.648794;stop-color:#000000"
         id="circle951"
         cx="167.36259"
         cy="111.31089"
         r="6.7081037" />
      <path
         id="path953"
         style="fill:#ffcc00;stroke:none;stroke-width:0.4;stroke-opacity:0.648794;stop-color:#000000"
         d="m 167.36239,106.83947 a 4.471404,4.471404 0 0 0 -4.47104,4.47156 v 5.00021 a 6.7081037,6.7081037 0 0 0 4.47104,1.7079 h 0.007 a 6.7081037,6.7081037 0 0 0 4.46484,-1.7079 v -5.00021 a 4.471404,4.471404 0 0 0 -4.47156,-4.47156 z" />
    </g>
    <g
       id="g961"
       transform="translate(2.5780996e-5,56.457384)">
      <circle
         style="fill:#b3b3b3;stroke:none;stroke-width:0.4;stroke-opacity:0.648794;stop-color:#000000"
         id="circle957"
         cx="72.903763"
         cy="82.842354"
         r="6.7081037" />
      <path
         id="path959"
         style="fill:#ffcc00;stroke:none;stroke-width:1.51181;stroke-opacity:0.648794;stop-color:#000000"
         d="m 275.54102,296.20508 a 16.899795,16.899795 0 0 0 -16.89844,16.90039 v 18.89844 a 25.353463,25.353463 0 0 0 16.89844,6.45507 h 0.0254 a 25.353463,25.353463 0 0 0 16.875,-6.45507 v -18.89844 a 16.899795,16.899795 0 0 0 -16.90039,-16.90039 z"
         transform="scale(0.26458333)" />
    </g>
    <path
       id="path963"
       style="fill:#666666;stroke:none;stroke-width:0.4;stroke-opacity:0.648794;stop-color:#000000"
       d="m 37.991478,126.39833 c -3.702172,0.004 -6.701409,3.00595 -6.701398,6.70812 -6e-6,1.8524 0.750805,3.52945 1.964737,4.74338 l -5.94124,5.94124 c -1.21393,-1.21393 -2.89098,-1.96474 -4.743379,-1.96474 h -0.0067 c -3.702172,0.004 -6.701409,3.00595 -6.701399,6.70812 -8e-6,3.70479 3.003324,6.70813 6.708117,6.70812 1.852397,0 3.529448,-0.75081 4.743379,-1.96474 l 1.668116,1.66811 15.428,-15.42799 -1.668116,-1.66812 c 1.213932,-1.21393 1.964743,-2.89098 1.964738,-4.74338 7e-6,-3.70479 -3.00332,-6.70812 -6.708119,-6.70812 z" />
    <g
       id="g969"
       transform="translate(0,56.457384)">
      <path
         id="path965"
         style="fill:#b3b3b3;stroke:none;stroke-width:1.51181;stroke-opacity:0.648794;stop-color:#000000"
         d="m 167.82227,263.22266 a 25.353463,25.353463 0 0 0 -25.32813,25.35351 25.353463,25.353463 0 0 0 0,0.0254 v 25.32813 a 25.353463,25.353463 0 0 0 25.35352,25.35351 25.353463,25.353463 0 0 0 25.35351,-25.35351 25.353463,25.353463 0 0 0 -3.39648,-12.67774 25.353463,25.353463 0 0 0 3.39648,-12.67578 25.353463,25.353463 0 0 0 -25.35351,-25.35351 25.353463,25.353463 0 0 0 -0.0254,0 z"
         transform="scale(0.26458333)" />
      <path
         id="path967"
         style="fill:#ffcc00;stroke:none;stroke-width:1.51181;stroke-opacity:0.648794;stop-color:#000000"
         d="m 167.84766,271.67578 a 16.899795,16.899795 0 0 0 -16.90039,16.90039 v 25.35352 a 16.899795,16.899795 0 0 0 16.90039,16.90039 16.899795,16.899795 0 0 0 16.90039,-16.90039 16.899795,16.899795 0 0 0 -5.72657,-12.67774 16.899795,16.899795 0 0 0 5.72657,-12.67578 16.899795,16.899795 0 0 0 -16.90039,-16.90039 z"
         transform="scale(0.26458333)" />
    </g>
    <g
       id="g977"
       transform="translate(-1.3743785e-4,56.457384)">
      <g
         id="g975">
        <path
           id="path971"
           style="fill:#b3b3b3;stroke:none;stroke-width:1.51181;stroke-opacity:0.648794;stop-color:#000000"
           d="m 221.66992,288.57617 c -13.99246,0.014 -25.32816,11.36106 -25.32812,25.35352 -3e-5,14.00237 11.35114,25.35354 25.35351,25.35351 14.00237,3e-5 25.35355,-11.35114 25.35352,-25.35351 3e-5,-14.00238 -11.35114,-25.35355 -25.35352,-25.35352 z"
           transform="scale(0.26458333)"
           sodipodi:nodetypes="ssssss" />
        <circle
           style="fill:#ffcc00;stroke:none;stroke-width:0.4;stroke-opacity:0.648794;stop-color:#000000"
           id="circle973"
           cx="58.656883"
           cy="83.060562"
           r="4.4714041" />
      </g>
    </g>
    <g
       id="g986"
       transform="translate(0,56.457384)">
      <circle
         style="fill:#b3b3b3;stroke:none;stroke-width:0.4;stroke-opacity:0.648794;stop-color:#000000"
         id="circle980"
         cx="87.15081"
         cy="82.842354"
         r="6.7081037" />
      <path
         id="path982"
         style="fill:#ffcc00;stroke:none;stroke-width:1.51181;stroke-opacity:0.648794;stop-color:#000000"
         d="m 329.38867,296.20508 a 16.899795,16.899795 0 0 0 -16.55273,13.49414 h 33.10742 a 16.899795,16.899795 0 0 0 -16.55469,-13.49414 z"
         transform="scale(0.26458333)" />
      <path
         id="path984"
         style="fill:#ffcc00;stroke:none;stroke-width:1.51181;stroke-opacity:0.648794;stop-color:#000000"
         inkscape:transform-center-x="-0.00023278042"
         inkscape:transform-center-y="2.3448182"
         d="m 354.61328,315.65039 a 25.353463,25.353463 0 0 1 -0.0449,0.41992 25.353463,25.353463 0 0 0 0.0449,-0.41992 z m -0.22656,1.67773 a 25.353463,25.353463 0 0 1 -0.1543,0.83204 25.353463,25.353463 0 0 0 0.1543,-0.83204 z m -0.1543,0.83204 h -41.39648 a 16.899795,16.899795 0 0 0 16.55468,13.49414 h 17.28126 a 25.353463,25.353463 0 0 0 7.56054,-13.49414 z"
         transform="scale(0.26458333)" />
    </g>
    <path
       id="path988"
       style="fill:#b3b3b3;stroke:none;stroke-width:0.4;stroke-opacity:0.648794;stop-color:#000000"
       d="m 28.975142,148.23776 a 6.7081037,6.7081037 0 0 0 -6.701917,6.70812 v 10.3079 h 2.237073 v -5.30717 a 6.7081037,6.7081037 0 0 0 4.471045,1.70739 6.7081037,6.7081037 0 0 0 6.708117,-6.70812 6.7081037,6.7081037 0 0 0 -6.708117,-6.70812 6.7081037,6.7081037 0 0 0 -0.0062,0 z" />
    <circle
       style="fill:#ffcc00;stroke:none;stroke-width:0.4;stroke-opacity:0.648794;stop-color:#000000"
       id="circle990"
       cx="28.981585"
       cy="154.94606"
       r="4.4714041" />
    <g
       id="g996"
       transform="translate(-82.76134,75.703174)">
      <path
         id="path992"
         style="fill:#b3b3b3;stroke:none;stroke-width:1.51181;stroke-opacity:0.648794;stop-color:#000000"
         d="m 453.23242,288.57617 v 25.35156 0.002 a 25.353463,25.353463 0 0 0 25.35352,25.35351 v -50.70703 a 25.353463,25.353463 0 0 0 -0.0234,0 25.353463,25.353463 0 0 0 -16.875,6.45508 v -6.45508 z"
         transform="scale(0.26458333)" />
      <path
         id="path994"
         style="fill:#ffcc00;stroke:none;stroke-width:1.51181;stroke-opacity:0.648794;stop-color:#000000"
         d="m 478.58594,297.0293 a 16.899795,16.899795 0 0 0 -16.89844,16.90039 v 18.90039 a 25.353463,25.353463 0 0 0 16.87305,6.45312 h 0.0254 v -8.45312 -16.90039 z"
         transform="scale(0.26458333)" />
    </g>
    <g
       id="g1002"
       transform="translate(-6.6172984,75.703174)">
      <path
         id="path998"
         style="fill:#b3b3b3;stroke:none;stroke-width:1.51181;stroke-opacity:0.648794;stop-color:#000000"
         d="m 221.66992,288.57617 c -13.99246,0.014 -25.32816,11.36106 -25.32812,25.35352 -3e-5,14.00237 11.35114,25.35354 25.35351,25.35351 14.00237,3e-5 25.35355,-11.35114 25.35352,-25.35351 3e-5,-14.00238 -11.35114,-25.35355 -25.35352,-25.35352 z"
         transform="scale(0.26458333)"
         sodipodi:nodetypes="ssssss" />
      <circle
         style="fill:#ffcc00;stroke:none;stroke-width:0.4;stroke-opacity:0.648794;stop-color:#000000"
         id="circle1000"
         cx="58.656883"
         cy="83.060562"
         r="4.4714041" />
    </g>
    <g
       id="g1008"
       transform="translate(-83.758986,75.703174)">
      <path
         id="path1004"
         style="fill:#b3b3b3;stroke:none;stroke-width:1.51181;stroke-opacity:0.648794;stop-color:#000000"
         d="m 586.40625,274.14648 v 20.88868 c -4.48562,-4.01511 -10.40646,-6.459 -16.90039,-6.45899 h -0.0254 c -13.99245,0.014 -25.32816,11.36106 -25.32813,25.35352 -3e-5,14.00236 11.35116,25.35354 25.35352,25.35351 14.00239,3e-5 25.35355,-11.35115 25.35352,-25.35351 v -39.78321 z"
         transform="scale(0.26458333)" />
      <path
         id="path1006"
         style="fill:#ffcc00;stroke:none;stroke-width:0.4;stroke-opacity:0.648794;stop-color:#000000"
         d="m 155.15329,83.060562 a 4.4714041,4.4714041 0 0 1 -4.47141,4.471404 4.4714041,4.4714041 0 0 1 -4.4714,-4.471404 4.4714041,4.4714041 0 0 1 4.4714,-4.471404 4.4714041,4.4714041 0 0 1 4.47141,4.471404 z" />
    </g>
    <g
       id="g1014"
       transform="matrix(0,1,1,0,-14.621168,-8.5987913)">
      <circle
         style="fill:#b3b3b3;stroke:none;stroke-width:0.4;stroke-opacity:0.648794;stop-color:#000000"
         id="circle1010"
         cx="167.36259"
         cy="111.31089"
         r="6.7081037" />
      <path
         id="path1012"
         style="fill:#ffcc00;stroke:none;stroke-width:0.4;stroke-opacity:0.648794;stop-color:#000000"
         d="m 167.36239,106.83947 a 4.471404,4.471404 0 0 0 -4.47104,4.47156 v 5.00021 a 6.7081037,6.7081037 0 0 0 4.47104,1.7079 h 0.007 a 6.7081037,6.7081037 0 0 0 4.46484,-1.7079 v -5.00021 a 4.471404,4.471404 0 0 0 -4.47156,-4.47156 z" />
    </g>
    <g
       id="g1020"
       transform="translate(64.794711,75.484965)">
      <path
         id="path1016"
         style="fill:#b3b3b3;stroke:none;stroke-width:1.51181;stroke-opacity:0.648794;stop-color:#000000"
         d="m 221.66992,288.57617 c -13.99246,0.014 -25.32816,11.36106 -25.32812,25.35352 -3e-5,14.00237 11.35114,25.35354 25.35351,25.35351 14.00237,3e-5 25.35355,-11.35114 25.35352,-25.35351 3e-5,-14.00238 -11.35114,-25.35355 -25.35352,-25.35352 z"
         transform="scale(0.26458333)"
         sodipodi:nodetypes="ssssss" />
      <circle
         style="fill:#ffcc00;stroke:none;stroke-width:0.4;stroke-opacity:0.648794;stop-color:#000000"
         id="circle1018"
         cx="58.656883"
         cy="83.060562"
         r="4.4714041" />
    </g>
    <g
       id="g1027"
       transform="translate(-29.027837,47.234624)">
      <circle
         style="fill:#b3b3b3;stroke:none;stroke-width:0.4;stroke-opacity:0.648794;stop-color:#000000"
         id="circle1022"
         cx="167.36259"
         cy="111.31089"
         r="6.7081037" />
      <path
         id="path1025"
         style="fill:#ffcc00;stroke:none;stroke-width:0.4;stroke-opacity:0.648794;stop-color:#000000"
         d="m 167.36239,106.83947 a 4.471404,4.471404 0 0 0 -4.47104,4.47156 v 5.00021 a 6.7081037,6.7081037 0 0 0 4.47104,1.7079 h 0.007 a 6.7081037,6.7081037 0 0 0 4.46484,-1.7079 v -5.00021 a 4.471404,4.471404 0 0 0 -4.47156,-4.47156 z" />
    </g>
    <g
       id="g1035"
       transform="translate(-72.299767,56.421277)">
      <circle
         style="fill:#b3b3b3;stroke:none;stroke-width:0.4;stroke-opacity:0.648794;stop-color:#000000"
         id="circle1029"
         cx="225.51768"
         cy="102.12424"
         r="6.7081037" />
      <path
         id="path1031"
         style="fill:#ffcc00;stroke:none;stroke-width:0.4;stroke-opacity:0.648794;stop-color:#000000"
         inkscape:transform-center-x="1.1471849"
         inkscape:transform-center-y="2.7906679"
         d="m 218.84374,102.79772 a 6.7081037,6.7081037 0 0 0 0.0119,0.11111 6.7081037,6.7081037 0 0 1 -0.0119,-0.11111 z m 0.0599,0.4439 a 6.7081037,6.7081037 0 0 0 0.0408,0.22015 6.7081037,6.7081037 0 0 1 -0.0408,-0.22015 z m 0.0408,0.22015 h 10.95282 a 4.471404,4.471404 0 0 1 -4.3801,3.57032 h -4.57233 a 6.7081037,6.7081037 0 0 1 -2.00039,-3.57032 z" />
      <path
         id="path1033"
         style="fill:#ffcc00;stroke:none;stroke-width:0.4;stroke-opacity:0.648794;stop-color:#000000"
         inkscape:transform-center-x="-1.1471851"
         inkscape:transform-center-y="-2.7906701"
         d="m 232.19163,101.45075 a 6.7081037,6.7081037 0 0 0 -0.0119,-0.11111 6.7081037,6.7081037 0 0 1 0.0119,0.11111 z m -0.0599,-0.4439 a 6.7081037,6.7081037 0 0 0 -0.0408,-0.22015 6.7081037,6.7081037 0 0 1 0.0408,0.22015 z m -0.0408,-0.22015 h -10.95282 a 4.471404,4.471404 0 0 1 4.3801,-3.570316 h 4.57233 a 6.7081037,6.7081037 0 0 1 2.00039,3.570316 z" />
    </g>
    <g
       id="g1041"
       transform="translate(0.85354518,53.670052)">
      <path
         id="path1037"
         style="fill:#b3b3b3;stroke:none;stroke-width:0.4;stroke-opacity:0.648794;stop-color:#000000"
         d="m 104.01137,94.567711 v 10.525969 c -1e-5,3.7048 3.00332,6.70813 6.70811,6.70812 V 98.385566 h -0.007 c -1.71552,0.0017 -3.27967,0.648227 -4.46484,1.708944 v -5.526799 z" />
      <path
         id="path1039"
         style="fill:#ffcc00;stroke:none;stroke-width:0.4;stroke-opacity:0.648794;stop-color:#000000"
         d="m 110.71949,100.62212 a 4.471404,4.471404 0 0 0 -4.47156,4.47156 4.471404,4.471404 0 0 0 4.47156,4.47156 z" />
    </g>
    <g
       id="g1047"
       transform="translate(-0.35168925,53.670052)">
      <path
         id="path1043"
         style="fill:#b3b3b3;stroke:none;stroke-width:0.4;stroke-opacity:0.648794;stop-color:#000000"
         d="m 113.39167,94.567711 v 2.163693 h 2.23656 v -2.163693 z m 0,3.817855 v 6.708114 c 0,1.98661 0.86432,3.77089 2.23656,4.99918 v -9.99835 -1.708944 z" />
      <rect
         style="fill:#ffcc00;fill-rule:evenodd;stroke-width:0.264583"
         id="rect1045"
         width="2.2365572"
         height="1.6541617"
         x="113.39166"
         y="96.7314" />
    </g>
    <path
       style="fill:#ffcc00;stroke:none;stroke-width:0.264583px;stroke-linecap:butt;stroke-linejoin:miter;stroke-opacity:1"
       d="m 42.741577,137.84983 1.668113,1.66811 -15.427997,15.428 -1.668116,-1.66811 z"
       id="path1049" />
    <path
       id="path1051"
       style="fill:#b3b3b3;stroke:none;stroke-width:0.4;stroke-opacity:0.648794;stop-color:#000000"
       d="m 44.699582,133.10644 c -3.702172,0.004 -6.701409,3.00594 -6.701398,6.70812 -8e-6,3.70479 3.003322,6.70812 6.708116,6.70811 3.704794,1e-5 6.708127,-3.00332 6.708119,-6.70811 8e-6,-3.7048 -3.003323,-6.70813 -6.708119,-6.70812 z m 0.0067,2.23655 a 4.471404,4.471404 0 0 1 4.471045,4.47157 4.471404,4.471404 0 0 1 -4.471045,4.47156 4.471404,4.471404 0 0 1 -4.471562,-4.47156 4.471404,4.471404 0 0 1 4.471562,-4.47157 z" />
    <path
       style="fill:#ffcc00;stroke:none;stroke-width:0.264583px;stroke-linecap:butt;stroke-linejoin:miter;stroke-opacity:1"
       d="m 42.741577,137.84983 1.668113,1.66811 -15.427997,15.428 -1.668116,-1.66811 z"
       id="path1054" />
    <g
       id="g1060"
       transform="matrix(1,0,0,-1,-85.556536,270.07469)">
      <circle
         style="fill:#b3b3b3;stroke:none;stroke-width:0.4;stroke-opacity:0.648794;stop-color:#000000"
         id="circle1056"
         cx="167.36259"
         cy="111.31089"
         r="6.7081037" />
      <path
         id="path1058"
         style="fill:#ffcc00;stroke:none;stroke-width:0.4;stroke-opacity:0.648794;stop-color:#000000"
         d="m 167.36239,106.83947 a 4.471404,4.471404 0 0 0 -4.47104,4.47156 v 5.00021 a 6.7081037,6.7081037 0 0 0 4.47104,1.7079 h 0.007 a 6.7081037,6.7081037 0 0 0 4.46484,-1.7079 v -5.00021 a 4.471404,4.471404 0 0 0 -4.47156,-4.47156 z" />
    </g>
    <g
       id="g1066"
       transform="translate(2.5780996e-5,56.457384)">
      <circle
         style="fill:#b3b3b3;stroke:none;stroke-width:0.4;stroke-opacity:0.648794;stop-color:#000000"
         id="circle1062"
         cx="72.903763"
         cy="82.842354"
         r="6.7081037" />
      <path
         id="path1064"
         style="fill:#ffcc00;stroke:none;stroke-width:1.51181;stroke-opacity:0.648794;stop-color:#000000"
         d="m 275.54102,296.20508 a 16.899795,16.899795 0 0 0 -16.89844,16.90039 v 18.89844 a 25.353463,25.353463 0 0 0 16.89844,6.45507 h 0.0254 a 25.353463,25.353463 0 0 0 16.875,-6.45507 v -18.89844 a 16.899795,16.899795 0 0 0 -16.90039,-16.90039 z"
         transform="scale(0.26458333)" />
    </g>
    <path
       id="path1068"
       style="fill:#666666;stroke:none;stroke-width:0.4;stroke-opacity:0.648794;stop-color:#000000"
       d="m 37.991478,126.39833 c -3.702172,0.004 -6.701409,3.00595 -6.701398,6.70812 -6e-6,1.8524 0.750805,3.52945 1.964737,4.74338 l -5.94124,5.94124 c -1.21393,-1.21393 -2.89098,-1.96474 -4.743379,-1.96474 h -0.0067 c -3.702172,0.004 -6.701409,3.00595 -6.701399,6.70812 -8e-6,3.70479 3.003324,6.70813 6.708117,6.70812 1.852397,0 3.529448,-0.75081 4.743379,-1.96474 l 1.668116,1.66811 15.428,-15.42799 -1.668116,-1.66812 c 1.213932,-1.21393 1.964743,-2.89098 1.964738,-4.74338 7e-6,-3.70479 -3.00332,-6.70812 -6.708119,-6.70812 z" />
    <g
       id="g1074"
       transform="translate(0,56.457384)">
      <path
         id="path1070"
         style="fill:#b3b3b3;stroke:none;stroke-width:1.51181;stroke-opacity:0.648794;stop-color:#000000"
         d="m 167.82227,263.22266 a 25.353463,25.353463 0 0 0 -25.32813,25.35351 25.353463,25.353463 0 0 0 0,0.0254 v 25.32813 a 25.353463,25.353463 0 0 0 25.35352,25.35351 25.353463,25.353463 0 0 0 25.35351,-25.35351 25.353463,25.353463 0 0 0 -3.39648,-12.67774 25.353463,25.353463 0 0 0 3.39648,-12.67578 25.353463,25.353463 0 0 0 -25.35351,-25.35351 25.353463,25.353463 0 0 0 -0.0254,0 z"
         transform="scale(0.26458333)" />
      <path
         id="path1072"
         style="fill:#ffcc00;stroke:none;stroke-width:1.51181;stroke-opacity:0.648794;stop-color:#000000"
         d="m 167.84766,271.67578 a 16.899795,16.899795 0 0 0 -16.90039,16.90039 v 25.35352 a 16.899795,16.899795 0 0 0 16.90039,16.90039 16.899795,16.899795 0 0 0 16.90039,-16.90039 16.899795,16.899795 0 0 0 -5.72657,-12.67774 16.899795,16.899795 0 0 0 5.72657,-12.67578 16.899795,16.899795 0 0 0 -16.90039,-16.90039 z"
         transform="scale(0.26458333)" />
    </g>
    <g
       id="g1082"
       transform="translate(-1.3743785e-4,56.457384)">
      <g
         id="g1080">
        <path
           id="path1076"
           style="fill:#b3b3b3;stroke:none;stroke-width:1.51181;stroke-opacity:0.648794;stop-color:#000000"
           d="m 221.66992,288.57617 c -13.99246,0.014 -25.32816,11.36106 -25.32812,25.35352 -3e-5,14.00237 11.35114,25.35354 25.35351,25.35351 14.00237,3e-5 25.35355,-11.35114 25.35352,-25.35351 3e-5,-14.00238 -11.35114,-25.35355 -25.35352,-25.35352 z"
           transform="scale(0.26458333)"
           sodipodi:nodetypes="ssssss" />
        <circle
           style="fill:#ffcc00;stroke:none;stroke-width:0.4;stroke-opacity:0.648794;stop-color:#000000"
           id="circle1078"
           cx="58.656883"
           cy="83.060562"
           r="4.4714041" />
      </g>
    </g>
    <g
       id="g1090"
       transform="translate(0,56.457384)">
      <circle
         style="fill:#b3b3b3;stroke:none;stroke-width:0.4;stroke-opacity:0.648794;stop-color:#000000"
         id="circle1084"
         cx="87.15081"
         cy="82.842354"
         r="6.7081037" />
      <path
         id="path1086"
         style="fill:#ffcc00;stroke:none;stroke-width:1.51181;stroke-opacity:0.648794;stop-color:#000000"
         d="m 329.38867,296.20508 a 16.899795,16.899795 0 0 0 -16.55273,13.49414 h 33.10742 a 16.899795,16.899795 0 0 0 -16.55469,-13.49414 z"
         transform="scale(0.26458333)" />
      <path
         id="path1088"
         style="fill:#ffcc00;stroke:none;stroke-width:1.51181;stroke-opacity:0.648794;stop-color:#000000"
         inkscape:transform-center-x="-0.00023278042"
         inkscape:transform-center-y="2.3448182"
         d="m 354.61328,315.65039 a 25.353463,25.353463 0 0 1 -0.0449,0.41992 25.353463,25.353463 0 0 0 0.0449,-0.41992 z m -0.22656,1.67773 a 25.353463,25.353463 0 0 1 -0.1543,0.83204 25.353463,25.353463 0 0 0 0.1543,-0.83204 z m -0.1543,0.83204 h -41.39648 a 16.899795,16.899795 0 0 0 16.55468,13.49414 h 17.28126 a 25.353463,25.353463 0 0 0 7.56054,-13.49414 z"
         transform="scale(0.26458333)" />
    </g>
    <path
       id="path1092"
       style="fill:#b3b3b3;stroke:none;stroke-width:0.4;stroke-opacity:0.648794;stop-color:#000000"
       d="m 28.975142,148.23776 a 6.7081037,6.7081037 0 0 0 -6.701917,6.70812 v 10.3079 h 2.237073 v -5.30717 a 6.7081037,6.7081037 0 0 0 4.471045,1.70739 6.7081037,6.7081037 0 0 0 6.708117,-6.70812 6.7081037,6.7081037 0 0 0 -6.708117,-6.70812 6.7081037,6.7081037 0 0 0 -0.0062,0 z" />
    <circle
       style="fill:#ffcc00;stroke:none;stroke-width:0.4;stroke-opacity:0.648794;stop-color:#000000"
       id="circle1094"
       cx="28.981585"
       cy="154.94606"
       r="4.4714041" />
    <g
       id="g1100"
       transform="translate(-82.76134,75.703174)">
      <path
         id="path1096"
         style="fill:#b3b3b3;stroke:none;stroke-width:1.51181;stroke-opacity:0.648794;stop-color:#000000"
         d="m 453.23242,288.57617 v 25.35156 0.002 a 25.353463,25.353463 0 0 0 25.35352,25.35351 v -50.70703 a 25.353463,25.353463 0 0 0 -0.0234,0 25.353463,25.353463 0 0 0 -16.875,6.45508 v -6.45508 z"
         transform="scale(0.26458333)" />
      <path
         id="path1098"
         style="fill:#ffcc00;stroke:none;stroke-width:1.51181;stroke-opacity:0.648794;stop-color:#000000"
         d="m 478.58594,297.0293 a 16.899795,16.899795 0 0 0 -16.89844,16.90039 v 18.90039 a 25.353463,25.353463 0 0 0 16.87305,6.45312 h 0.0254 v -8.45312 -16.90039 z"
         transform="scale(0.26458333)" />
    </g>
    <g
       id="g1106"
       transform="translate(-6.6172984,75.703174)">
      <path
         id="path1102"
         style="fill:#b3b3b3;stroke:none;stroke-width:1.51181;stroke-opacity:0.648794;stop-color:#000000"
         d="m 221.66992,288.57617 c -13.99246,0.014 -25.32816,11.36106 -25.32812,25.35352 -3e-5,14.00237 11.35114,25.35354 25.35351,25.35351 14.00237,3e-5 25.35355,-11.35114 25.35352,-25.35351 3e-5,-14.00238 -11.35114,-25.35355 -25.35352,-25.35352 z"
         transform="scale(0.26458333)"
         sodipodi:nodetypes="ssssss" />
      <circle
         style="fill:#ffcc00;stroke:none;stroke-width:0.4;stroke-opacity:0.648794;stop-color:#000000"
         id="circle1104"
         cx="58.656883"
         cy="83.060562"
         r="4.4714041" />
    </g>
    <g
       id="g1112"
       transform="translate(-83.758986,75.703174)">
      <path
         id="path1108"
         style="fill:#b3b3b3;stroke:none;stroke-width:1.51181;stroke-opacity:0.648794;stop-color:#000000"
         d="m 586.40625,274.14648 v 20.88868 c -4.48562,-4.01511 -10.40646,-6.459 -16.90039,-6.45899 h -0.0254 c -13.99245,0.014 -25.32816,11.36106 -25.32813,25.35352 -3e-5,14.00236 11.35116,25.35354 25.35352,25.35351 14.00239,3e-5 25.35355,-11.35115 25.35352,-25.35351 v -39.78321 z"
         transform="scale(0.26458333)" />
      <path
         id="path1110"
         style="fill:#ffcc00;stroke:none;stroke-width:0.4;stroke-opacity:0.648794;stop-color:#000000"
         d="m 155.15329,83.060562 a 4.4714041,4.4714041 0 0 1 -4.47141,4.471404 4.4714041,4.4714041 0 0 1 -4.4714,-4.471404 4.4714041,4.4714041 0 0 1 4.4714,-4.471404 4.4714041,4.4714041 0 0 1 4.47141,4.471404 z" />
    </g>
    <g
       id="g1118"
       transform="matrix(0,1,1,0,-14.621168,-8.5987913)">
      <circle
         style="fill:#b3b3b3;stroke:none;stroke-width:0.4;stroke-opacity:0.648794;stop-color:#000000"
         id="circle1114"
         cx="167.36259"
         cy="111.31089"
         r="6.7081037" />
      <path
         id="path1116"
         style="fill:#ffcc00;stroke:none;stroke-width:0.4;stroke-opacity:0.648794;stop-color:#000000"
         d="m 167.36239,106.83947 a 4.471404,4.471404 0 0 0 -4.47104,4.47156 v 5.00021 a 6.7081037,6.7081037 0 0 0 4.47104,1.7079 h 0.007 a 6.7081037,6.7081037 0 0 0 4.46484,-1.7079 v -5.00021 a 4.471404,4.471404 0 0 0 -4.47156,-4.47156 z" />
    </g>
    <g
       id="g1124"
       transform="translate(64.794711,75.484965)">
      <path
         id="path1120"
         style="fill:#b3b3b3;stroke:none;stroke-width:1.51181;stroke-opacity:0.648794;stop-color:#000000"
         d="m 221.66992,288.57617 c -13.99246,0.014 -25.32816,11.36106 -25.32812,25.35352 -3e-5,14.00237 11.35114,25.35354 25.35351,25.35351 14.00237,3e-5 25.35355,-11.35114 25.35352,-25.35351 3e-5,-14.00238 -11.35114,-25.35355 -25.35352,-25.35352 z"
         transform="scale(0.26458333)"
         sodipodi:nodetypes="ssssss" />
      <circle
         style="fill:#ffcc00;stroke:none;stroke-width:0.4;stroke-opacity:0.648794;stop-color:#000000"
         id="circle1122"
         cx="58.656883"
         cy="83.060562"
         r="4.4714041" />
    </g>
    <g
       id="g1131"
       transform="translate(-29.027837,47.234624)">
      <circle
         style="fill:#b3b3b3;stroke:none;stroke-width:0.4;stroke-opacity:0.648794;stop-color:#000000"
         id="circle1126"
         cx="167.36259"
         cy="111.31089"
         r="6.7081037" />
      <path
         id="path1129"
         style="fill:#ffcc00;stroke:none;stroke-width:0.4;stroke-opacity:0.648794;stop-color:#000000"
         d="m 167.36239,106.83947 a 4.471404,4.471404 0 0 0 -4.47104,4.47156 v 5.00021 a 6.7081037,6.7081037 0 0 0 4.47104,1.7079 h 0.007 a 6.7081037,6.7081037 0 0 0 4.46484,-1.7079 v -5.00021 a 4.471404,4.471404 0 0 0 -4.47156,-4.47156 z" />
    </g>
    <g
       id="g1139"
       transform="translate(-72.299767,56.421277)">
      <circle
         style="fill:#b3b3b3;stroke:none;stroke-width:0.4;stroke-opacity:0.648794;stop-color:#000000"
         id="circle1133"
         cx="225.51768"
         cy="102.12424"
         r="6.7081037" />
      <path
         id="path1135"
         style="fill:#ffcc00;stroke:none;stroke-width:0.4;stroke-opacity:0.648794;stop-color:#000000"
         inkscape:transform-center-x="1.1471849"
         inkscape:transform-center-y="2.7906679"
         d="m 218.84374,102.79772 a 6.7081037,6.7081037 0 0 0 0.0119,0.11111 6.7081037,6.7081037 0 0 1 -0.0119,-0.11111 z m 0.0599,0.4439 a 6.7081037,6.7081037 0 0 0 0.0408,0.22015 6.7081037,6.7081037 0 0 1 -0.0408,-0.22015 z m 0.0408,0.22015 h 10.95282 a 4.471404,4.471404 0 0 1 -4.3801,3.57032 h -4.57233 a 6.7081037,6.7081037 0 0 1 -2.00039,-3.57032 z" />
      <path
         id="path1137"
         style="fill:#ffcc00;stroke:none;stroke-width:0.4;stroke-opacity:0.648794;stop-color:#000000"
         inkscape:transform-center-x="-1.1471851"
         inkscape:transform-center-y="-2.7906701"
         d="m 232.19163,101.45075 a 6.7081037,6.7081037 0 0 0 -0.0119,-0.11111 6.7081037,6.7081037 0 0 1 0.0119,0.11111 z m -0.0599,-0.4439 a 6.7081037,6.7081037 0 0 0 -0.0408,-0.22015 6.7081037,6.7081037 0 0 1 0.0408,0.22015 z m -0.0408,-0.22015 h -10.95282 a 4.471404,4.471404 0 0 1 4.3801,-3.570316 h 4.57233 a 6.7081037,6.7081037 0 0 1 2.00039,3.570316 z" />
    </g>
    <g
       id="g1145"
       transform="translate(0.85354518,53.670052)">
      <path
         id="path1141"
         style="fill:#b3b3b3;stroke:none;stroke-width:0.4;stroke-opacity:0.648794;stop-color:#000000"
         d="m 104.01137,94.567711 v 10.525969 c -1e-5,3.7048 3.00332,6.70813 6.70811,6.70812 V 98.385566 h -0.007 c -1.71552,0.0017 -3.27967,0.648227 -4.46484,1.708944 v -5.526799 z" />
      <path
         id="path1143"
         style="fill:#ffcc00;stroke:none;stroke-width:0.4;stroke-opacity:0.648794;stop-color:#000000"
         d="m 110.71949,100.62212 a 4.471404,4.471404 0 0 0 -4.47156,4.47156 4.471404,4.471404 0 0 0 4.47156,4.47156 z" />
    </g>
    <g
       id="g1152"
       transform="translate(-0.35168925,53.670052)">
      <path
         id="path1147"
         style="fill:#b3b3b3;stroke:none;stroke-width:0.4;stroke-opacity:0.648794;stop-color:#000000"
         d="m 113.39167,94.567711 v 2.163693 h 2.23656 v -2.163693 z m 0,3.817855 v 6.708114 c 0,1.98661 0.86432,3.77089 2.23656,4.99918 v -9.99835 -1.708944 z" />
      <rect
         style="fill:#ffcc00;fill-rule:evenodd;stroke-width:0.264583"
         id="rect1149"
         width="2.2365572"
         height="1.6541617"
         x="113.39166"
         y="96.7314" />
    </g>
    <path
       style="fill:#ffcc00;stroke:none;stroke-width:0.264583px;stroke-linecap:butt;stroke-linejoin:miter;stroke-opacity:1"
       d="m 42.741577,137.84983 1.668113,1.66811 -15.427997,15.428 -1.668116,-1.66811 z"
       id="path1154" />
    <path
       id="path1156"
       style="fill:#b3b3b3;stroke:none;stroke-width:0.4;stroke-opacity:0.648794;stop-color:#000000"
       d="m 44.699582,133.10644 c -3.702172,0.004 -6.701409,3.00594 -6.701398,6.70812 -8e-6,3.70479 3.003322,6.70812 6.708116,6.70811 3.704794,1e-5 6.708127,-3.00332 6.708119,-6.70811 8e-6,-3.7048 -3.003323,-6.70813 -6.708119,-6.70812 z m 0.0067,2.23655 a 4.471404,4.471404 0 0 1 4.471045,4.47157 4.471404,4.471404 0 0 1 -4.471045,4.47156 4.471404,4.471404 0 0 1 -4.471562,-4.47156 4.471404,4.471404 0 0 1 4.471562,-4.47157 z" />
    <path
       style="fill:#ffcc00;stroke:none;stroke-width:0.264583px;stroke-linecap:butt;stroke-linejoin:miter;stroke-opacity:1"
       d="m 42.741577,137.84983 1.668113,1.66811 -15.427997,15.428 -1.668116,-1.66811 z"
       id="path1158" />
  </g>
</svg>
