<?xml version="1.0" encoding="UTF-8" standalone="no"?>
<svg
   width="9.999999mm"
   height="9.999999mm"
   viewBox="0 0 37.795272 37.795272"
   version="1.1"
   id="svg1"
   sodipodi:docname="instagram-10x10.svg"
   inkscape:version="1.4.2 (ebf0e940d0, 2025-05-08)"
   xmlns:inkscape="http://www.inkscape.org/namespaces/inkscape"
   xmlns:sodipodi="http://sodipodi.sourceforge.net/DTD/sodipodi-0.dtd"
   xmlns="http://www.w3.org/2000/svg"
   xmlns:svg="http://www.w3.org/2000/svg">
  <defs
     id="defs1" />
  <sodipodi:namedview
     id="namedview1"
     pagecolor="#ffffff"
     bordercolor="#000000"
     borderopacity="0.25"
     inkscape:showpageshadow="2"
     inkscape:pageopacity="0.0"
     inkscape:pagecheckerboard="0"
     inkscape:deskcolor="#d1d1d1"
     inkscape:zoom="44.675058"
     inkscape:cx="11.975362"
     inkscape:cy="11.818675"
     inkscape:window-width="3840"
     inkscape:window-height="2082"
     inkscape:window-x="0"
     inkscape:window-y="0"
     inkscape:window-maximized="1"
     inkscape:current-layer="svg1"
     inkscape:document-units="mm" />
  <path
     d="m 18.897637,3.4062991 c 5.045669,0 5.644095,0.018898 7.637795,0.1102362 5.12126,0.2330709 7.513386,2.6629921 7.746457,7.7464567 0.09134,1.992126 0.108661,2.590551 0.108661,7.63622 0,5.047244 -0.0189,5.644094 -0.108661,7.63622 -0.234646,5.07874 -2.620473,7.513386 -7.746457,7.746457 -1.9937,0.09134 -2.588976,0.110236 -7.637795,0.110236 -5.045669,0 -5.644094,-0.0189 -7.63622,-0.110236 -5.1338581,-0.234646 -7.5133856,-2.675591 -7.7464565,-7.748032 -0.091339,-1.992125 -0.1102362,-2.588976 -0.1102362,-7.63622 0,-5.045669 0.020472,-5.642519 0.1102362,-7.63622 0.2346457,-5.0818896 2.6204724,-7.5133856 7.7464565,-7.7464565 1.993701,-0.089764 2.590551,-0.1086614 7.63622,-0.1086614 z M 18.897637,0 C 13.765354,0 13.122834,0.02204724 11.107086,0.11338582 4.2440944,0.42834644 0.42992125,4.2362203 0.11496063,11.105511 0.02204724,13.122834 0,13.765354 0,18.897637 c 0,5.132284 0.02204724,5.776378 0.11338582,7.792126 0.31496062,6.862992 4.12283448,10.677165 10.99212518,10.992126 2.017323,0.09134 2.659843,0.113385 7.792126,0.113385 5.132284,0 5.776378,-0.02205 7.792126,-0.113385 6.856693,-0.314961 10.680315,-4.122835 10.990551,-10.992126 0.09291,-2.015748 0.11496,-2.659842 0.11496,-7.792126 0,-5.132283 -0.02205,-5.774803 -0.113385,-7.790551 C 37.373227,4.2503936 33.560629,0.42992125 26.691338,0.11496063 24.674015,0.02204724 24.029921,0 18.897637,0 Z m 0,9.1937005 c -5.359055,0 -9.7039365,4.3448815 -9.7039365,9.7039365 0,5.359055 4.3448815,9.705512 9.7039365,9.705512 5.359055,0 9.703937,-4.344882 9.703937,-9.705512 0,-5.359055 -4.344882,-9.7039365 -9.703937,-9.7039365 z m 0,16.0031495 c -3.47874,0 -6.299212,-2.818898 -6.299212,-6.299213 0,-3.47874 2.820472,-6.299212 6.299212,-6.299212 3.47874,0 6.299213,2.820472 6.299213,6.299212 0,3.480315 -2.820473,6.299213 -6.299213,6.299213 z M 28.985826,6.5433069 c -1.253543,0 -2.269291,1.015748 -2.269291,2.2677164 0,1.2519687 1.015748,2.2677167 2.269291,2.2677167 1.251968,0 2.266142,-1.015748 2.266142,-2.2677167 0,-1.2519684 -1.014174,-2.2677164 -2.266142,-2.2677164 z"
     id="path1"
     style="stroke-width:1" />
</svg>
