<?xml version="1.0" encoding="UTF-8" standalone="no"?>
<svg
   width="9.999999mm"
   height="10mm"
   viewBox="0 0 9.9999991 10"
   version="1.1"
   id="svg1"
   sodipodi:docname="instagramBack-10x10.svg"
   inkscape:version="1.4.2 (ebf0e940d0, 2025-05-08)"
   xmlns:inkscape="http://www.inkscape.org/namespaces/inkscape"
   xmlns:sodipodi="http://sodipodi.sourceforge.net/DTD/sodipodi-0.dtd"
   xmlns="http://www.w3.org/2000/svg"
   xmlns:svg="http://www.w3.org/2000/svg">
  <defs
     id="defs1" />
  <sodipodi:namedview
     id="namedview1"
     pagecolor="#ffffff"
     bordercolor="#000000"
     borderopacity="0.25"
     inkscape:showpageshadow="2"
     inkscape:pageopacity="0.0"
     inkscape:pagecheckerboard="0"
     inkscape:deskcolor="#d1d1d1"
     inkscape:zoom="37.051581"
     inkscape:cx="9.9051104"
     inkscape:cy="30.578992"
     inkscape:window-width="3840"
     inkscape:window-height="2082"
     inkscape:window-x="0"
     inkscape:window-y="0"
     inkscape:window-maximized="1"
     inkscape:current-layer="svg1"
     inkscape:document-units="mm" />
  <path
     style="fill:#000000;stroke-width:1"
     d="M 4.9999999,0 C 3.6420833,0 3.4720832,0.00583333 2.9387499,0.03 1.1229167,0.11333333 0.11375,1.1208333 0.03041667,2.9383332 0.00583333,3.4720832 0,3.6420833 0,4.9999999 0,6.3579168 0.00583333,6.5283333 0.03,7.0616666 0.11333333,8.8775 1.1208333,9.8866666 2.9383332,9.97 3.4720832,9.994167 3.6420833,10 4.9999999,10 6.3579168,10 6.5283333,9.99417 7.0616666,9.97 8.8758334,9.886667 9.8875001,8.8791666 9.9695833,7.0616666 c 0.024582,-0.5333333 0.030416,-0.7037498 0.030416,-2.0616667 0,-1.3579166 -0.00583,-1.5279167 -0.03,-2.06125 C 9.8883332,1.1245833 8.8795833,0.11375 7.0620834,0.03041667 6.5283333,0.00583333 6.3579168,0 4.9999999,0 Z"
     id="path2" />
</svg>
