<?xml version="1.0" encoding="UTF-8" standalone="no"?>
<svg
   width="10mm"
   height="10mm"
   viewBox="0 0 37.795276 37.795276"
   version="1.1"
   id="svg1"
   sodipodi:docname="instagramBack-10x10.svg"
   inkscape:version="1.4.2 (ebf0e940d0, 2025-05-08)"
   xmlns:inkscape="http://www.inkscape.org/namespaces/inkscape"
   xmlns:sodipodi="http://sodipodi.sourceforge.net/DTD/sodipodi-0.dtd"
   xmlns="http://www.w3.org/2000/svg"
   xmlns:svg="http://www.w3.org/2000/svg">
  <defs
     id="defs1" />
  <sodipodi:namedview
     id="namedview1"
     pagecolor="#ffffff"
     bordercolor="#000000"
     borderopacity="0.25"
     inkscape:showpageshadow="2"
     inkscape:pageopacity="0.0"
     inkscape:pagecheckerboard="0"
     inkscape:deskcolor="#d1d1d1"
     inkscape:document-units="mm"
     inkscape:zoom="25.549643"
     inkscape:cx="26.262598"
     inkscape:cy="17.456213"
     inkscape:window-width="3840"
     inkscape:window-height="2082"
     inkscape:window-x="0"
     inkscape:window-y="0"
     inkscape:window-maximized="1"
     inkscape:current-layer="svg1" />
  <path
     style="stroke-width:1;fill:#000000"
     d="M 29.921259,0 H 7.8740157 C 3.5259842,0 0,3.5259842 0,7.8740157 V 29.921259 c 0,4.348032 3.5259842,7.874016 7.8740157,7.874016 H 29.921259 c 4.349607,0 7.874016,-3.525984 7.874016,-7.874016 V 7.8740157 C 37.795275,3.5259842 34.270866,0 29.921259,0 Z"
     id="path5" />
  <path
     style="stroke-width:1"
     d="m 31.420472,24.091338 c -0.207874,4.581102 -2.75748,7.119684 -7.327558,7.329134 -1.344884,0.06142 -1.773229,0.07558 -5.195277,0.07558 -3.422047,0 -3.848818,-0.01424 -5.1937,-0.07558 -4.5795277,-0.20945 -7.1181103,-2.752757 -7.329134,-7.329134 -0.061418,-1.343308 -0.07559,-1.771653 -0.07559,-5.193701 0,-3.420472 0.014176,-3.850393 0.07559,-5.1937 0.2110237,-4.5795277 2.7527559,-7.1196852 7.329134,-7.3275592 1.344882,-0.062992 1.771653,-0.077165 5.1937,-0.077165 3.422048,0 3.850393,0.014176 5.195277,0.07559 4.579526,0.2094488 7.122833,2.7574803 7.327558,7.3275582 0.06142,1.344882 0.07558,1.774803 0.07558,5.195275 0,3.422048 -0.01424,3.850393 -0.07558,5.193702 z"
     id="path6" />
</svg>
