solid OpenSCAD_Model
  facet normal 0 0 -1
    outer loop
      vertex -25 -15 -10
      vertex 5 15 -10
      vertex 5 -15 -10
    endloop
  endfacet
  facet normal -0 0 -1
    outer loop
      vertex 5 15 -10
      vertex -25 -15 -10
      vertex -25 15 -10
    endloop
  endfacet
  facet normal 0 -1 0
    outer loop
      vertex 5 -15 -10
      vertex -5 -15 10
      vertex -25 -15 -10
    endloop
  endfacet
  facet normal 0 -1 0
    outer loop
      vertex -5 -15 10
      vertex 5 -15 -10
      vertex 25 -15 10
    endloop
  endfacet
  facet normal -0 0 1
    outer loop
      vertex -5 15 10
      vertex 25 -15 10
      vertex 25 15 10
    endloop
  endfacet
  facet normal 0 0 1
    outer loop
      vertex 25 -15 10
      vertex -5 15 10
      vertex -5 -15 10
    endloop
  endfacet
  facet normal 0.707107 0 -0.707107
    outer loop
      vertex 25 -15 10
      vertex 5 15 -10
      vertex 25 15 10
    endloop
  endfacet
  facet normal 0.707107 0 -0.707107
    outer loop
      vertex 5 15 -10
      vertex 25 -15 10
      vertex 5 -15 -10
    endloop
  endfacet
  facet normal 0 1 -0
    outer loop
      vertex 5 15 -10
      vertex -5 15 10
      vertex 25 15 10
    endloop
  endfacet
  facet normal 0 1 0
    outer loop
      vertex -5 15 10
      vertex 5 15 -10
      vertex -25 15 -10
    endloop
  endfacet
  facet normal -0.707107 0 0.707107
    outer loop
      vertex -25 -15 -10
      vertex -5 15 10
      vertex -25 15 -10
    endloop
  endfacet
  facet normal -0.707107 0 0.707107
    outer loop
      vertex -5 15 10
      vertex -25 -15 -10
      vertex -5 -15 10
    endloop
  endfacet
endsolid OpenSCAD_Model
