<?xml version="1.0" encoding="UTF-8" standalone="no"?>
<svg
   id="body_-962636861_64699"
   width="80mm"
   height="34.599304mm"
   version="1.1"
   sodipodi:docname="default.svg"
   inkscape:version="1.4.2 (ebf0e940d0, 2025-05-08)"
   viewBox="0 0 80 34.599304"
   xmlns:inkscape="http://www.inkscape.org/namespaces/inkscape"
   xmlns:sodipodi="http://sodipodi.sourceforge.net/DTD/sodipodi-0.dtd"
   xmlns="http://www.w3.org/2000/svg"
   xmlns:svg="http://www.w3.org/2000/svg">
  <defs
     id="defs1" />
  <sodipodi:namedview
     id="namedview1"
     pagecolor="#ffffff"
     bordercolor="#999999"
     borderopacity="1"
     inkscape:showpageshadow="2"
     inkscape:pageopacity="0"
     inkscape:pagecheckerboard="0"
     inkscape:deskcolor="#d1d1d1"
     inkscape:zoom="1.1676749"
     inkscape:cx="97.62991"
     inkscape:cy="24.407478"
     inkscape:window-width="1381"
     inkscape:window-height="1140"
     inkscape:window-x="2453"
     inkscape:window-y="4"
     inkscape:window-maximized="0"
     inkscape:current-layer="body_-962636861_64699"
     inkscape:document-units="mm" />
  <path
     style="fill:#000000;stroke-width:1"
     d="M 79.979268,5.7481601 C 79.846095,4.818496 79.264319,3.7659449 78.405592,2.9010595 77.230215,1.7172531 75.553792,0.77921254 73.504617,0.15872479 L 72.980422,0 71.963917,1.0159212 c -0.559081,0.5587565 -1.008642,1.0286492 -0.99903,1.0442062 0.03092,0.050064 0.644745,0.1992543 1.663272,0.4042746 1.456232,0.2931276 1.990537,0.4905359 2.803734,1.0358816 0.993444,0.6662264 1.494869,1.5849275 1.425048,2.6109277 -0.06287,0.9239679 -0.479287,1.7303676 -1.333561,2.5825152 -1.89012,1.8854065 -5.718492,3.3762015 -11.902046,4.6347395 -4.353525,0.88607 -10.171303,1.602028 -15.098795,1.858117 -1.578692,0.08204 -2.318932,0.07841 -8.560046,-0.04209 -6.006648,-0.115966 -11.3909,-0.140932 -13.594256,-0.06304 -7.702157,0.272304 -12.537926,1.048014 -17.0634124,2.737162 -3.4322553,1.281101 -6.1810169,2.898079 -7.8459432,4.615428 -0.72304169,0.74581 -1.14874419,1.383785 -1.34250881,2.011934 -0.30582507,0.991428 -0.0101382,1.761934 0.90202971,2.350524 0.8562912,0.552532 2.215625,1.037275 2.9087511,1.037275 0.5278466,0 0.8301712,-0.319794 0.6406623,-0.677677 C 4.5360897,27.096179 4.3081124,26.847489 4.061195,26.60344 3.3060905,25.8571 3.0926123,25.480285 3.0926123,24.893777 c 0,-0.562903 0.2046089,-0.994308 0.7428211,-1.566189 0.584045,-0.62058 1.3402787,-1.127357 2.5709029,-1.722839 3.3678655,-1.629678 8.9472827,-3.006109 14.8791827,-3.670681 4.263985,-0.477704 7.422543,-0.556799 12.585779,-0.315173 1.497586,0.07008 3.249308,0.146443 3.892717,0.169689 0.999921,0.0361 4.987528,0.119666 5.788091,0.121271 l 0.261644,5.29e-4 -0.526466,0.534496 c -3.359348,3.410569 -5.369396,6.557764 -5.908434,9.251024 -0.109805,0.548632 -0.151397,1.629355 -0.08165,2.121559 0.162253,1.144998 0.655809,2.164387 1.445048,2.984596 0.550212,0.571804 1.097079,0.9731 1.744652,1.280255 1.434946,0.680611 2.903384,0.570844 4.369221,-0.32661 0.694833,-0.425405 1.41882,-1.063911 2.27417,-2.00565 l 0.161796,-0.178136 0.560715,0.576884 c 0.79012,0.812903 1.350037,1.275832 2.061284,1.704229 1.925471,1.15974 3.872357,0.961282 5.396826,-0.550137 0.203165,-0.201425 0.463473,-0.493295 0.578466,-0.6486 0.847268,-1.144283 1.180952,-2.805554 0.916789,-4.564295 -0.214532,-1.428354 -0.857615,-2.944172 -1.871413,-4.411139 -1.281854,-1.854851 -3.326543,-3.825907 -5.829052,-5.619137 -0.37034,-0.26538 -0.386194,-0.253177 0.376804,-0.290012 1.225198,-0.05915 3.578148,-0.256989 5.304581,-0.446026 11.759907,-1.287639 20.993878,-4.501351 24.117719,-8.3937239 0.693962,-0.8646936 1.041397,-1.6920539 1.090517,-2.596889 0.01021,-0.1885846 0.0032,-0.4517966 -0.01603,-0.5849159 z M 54.767696,30.754773 c -0.263777,0.971135 -0.965087,1.64873 -1.928215,1.863008 -0.401103,0.08923 -1.151731,0.05962 -1.58206,-0.06242 -0.407329,-0.115514 -1.127929,-0.475178 -1.464755,-0.731086 -0.356962,-0.271203 -0.639307,-0.604163 -1.147516,-1.353209 -0.612262,-0.902412 -0.876157,-1.11788 -1.366459,-1.115706 -0.19327,0.0011 -0.294725,0.0263 -0.4639,0.116322 -0.246708,0.131286 -0.794255,0.662384 -1.50405,1.458857 -1.204799,1.351931 -2.030066,1.802765 -3.168163,1.730732 -1.260121,-0.07976 -2.254187,-0.757653 -2.713268,-1.8503 -0.273357,-0.650616 -0.387107,-1.456161 -0.315981,-2.237722 0.197911,-2.174781 1.31454,-4.462148 3.344389,-6.850834 0.721839,-0.849447 2.560254,-2.610851 3.360639,-3.219864 l 0.147892,-0.112525 0.295838,0.148497 c 0.993715,0.498816 2.244371,1.297136 3.280929,2.094296 2.702057,2.078001 4.569283,4.757799 5.159005,7.404094 0.156395,0.70178 0.181864,0.963903 0.16646,1.71297 -0.01117,0.543206 -0.03213,0.752105 -0.100785,1.004885 z"
     id="path1" />
</svg>
