<?xml version="1.0" encoding="UTF-8" standalone="no"?>
<!-- Created with Inkscape (http://www.inkscape.org/) -->

<svg
   width="40.000114mm"
   height="17.427761mm"
   viewBox="0 0 40.000114 17.427761"
   version="1.1"
   id="svg1"
   inkscape:version="1.4 (86a8ad7, 2024-10-11)"
   sodipodi:docname="default.svg"
   xmlns:inkscape="http://www.inkscape.org/namespaces/inkscape"
   xmlns:sodipodi="http://sodipodi.sourceforge.net/DTD/sodipodi-0.dtd"
   xmlns="http://www.w3.org/2000/svg"
   xmlns:svg="http://www.w3.org/2000/svg">
  <sodipodi:namedview
     id="namedview1"
     pagecolor="#ffffff"
     bordercolor="#000000"
     borderopacity="0.25"
     inkscape:showpageshadow="2"
     inkscape:pageopacity="0.0"
     inkscape:pagecheckerboard="0"
     inkscape:deskcolor="#d1d1d1"
     inkscape:document-units="mm"
     inkscape:zoom="4.5732786"
     inkscape:cx="315.63789"
     inkscape:cy="180.28642"
     inkscape:window-width="3840"
     inkscape:window-height="2054"
     inkscape:window-x="-11"
     inkscape:window-y="-11"
     inkscape:window-maximized="1"
     inkscape:current-layer="layer1" />
  <defs
     id="defs1" />
  <g
     inkscape:label="Layer 1"
     inkscape:groupmode="layer"
     id="layer1"
     transform="translate(-72.331185,-120.61538)">
    <path
       id="path12"
       style="fill:#ffcc00;stroke-width:0.2;stroke-linejoin:round"
       d="m 108.84073,120.61848 -0.36149,1.60995 c 0.0616,-0.014 0.0265,-0.009 0.10557,-0.008 0.15194,-0.006 0.30399,-0.009 0.45603,-0.0102 0.22368,-0.002 0.44773,-0.005 0.67063,0.0184 0.14608,0.018 0.29328,0.0386 0.43656,0.0731 0.0346,0.008 0.0687,0.0189 0.10319,0.0277 0.0264,0.007 0.0529,0.0122 0.0794,0.0184 0.029,0.001 0.0472,4e-4 0.0751,0.008 0.0142,0.004 0.0273,0.0121 0.0417,0.0154 0.005,0.001 0.01,-0.002 0.0149,-0.003 0.003,-0.003 0.004,-0.008 0.008,-0.007 0.009,0.002 0.0169,0.009 0.0253,0.013 -4.2e-4,-0.006 -0.006,-0.014 -0.001,-0.0178 0.0217,-0.0173 0.10273,0.11404 0.10448,0.12698 0.0396,0.0877 0.0823,0.17414 0.0848,0.27258 -1.1e-4,0.0713 -0.0179,0.14261 -0.0365,0.21093 -0.0184,0.0616 -0.0251,0.0681 -0.0508,0.12309 -0.0356,0.076 -0.0686,0.15338 -0.11379,0.22456 -0.0917,0.14909 -0.18656,0.29817 -0.30741,0.42574 -0.066,0.0652 -0.13217,0.13042 -0.20616,0.18669 -0.10164,0.0773 -0.21232,0.14168 -0.32212,0.20638 -0.19973,0.11209 -0.40101,0.21973 -0.60963,0.31477 -0.10048,0.0458 -0.20614,0.0805 -0.30394,0.13174 -0.028,0.0147 0.12194,-0.0325 0.0926,-0.0208 -0.13348,0.0533 -0.27061,0.0972 -0.40584,0.14581 -0.73404,0.21912 -0.0724,0.0248 -0.74938,0.21568 -0.10737,0.0303 -0.21374,0.0638 -0.32147,0.0928 -0.32155,0.0865 -0.64774,0.15298 -0.97415,0.21806 -0.31436,0.0576 -0.30798,0.0542 -0.61698,0.1192 -0.10538,0.0222 -0.21002,0.0473 -0.31563,0.0684 -0.37907,0.0757 -0.76112,0.13891 -1.14396,0.19189 -0.39126,0.0543 -0.78215,0.11423 -1.17534,0.15316 -0.16012,0.0159 -0.55053,0.0436 -0.71693,0.0562 -0.11526,0.009 -0.23044,0.0178 -0.3457,0.0266 -0.10972,0.0107 -0.21952,0.0195 -0.32904,0.032 -0.10283,0.0118 -0.20513,0.0281 -0.30784,0.0409 -0.4967,0.0618 -0.99402,0.12085 -1.493129,0.15965 -0.439268,0.0329 -0.879047,0.0666 -1.319412,0.0814 -0.198355,0.007 -0.565966,0.006 -0.774904,0.0173 -0.09458,0.005 -0.188596,0.0162 -0.282964,0.0242 -0.385926,0.0365 -0.771894,0.0721 -1.158678,0.0986 -0.107927,0.007 -0.216164,0.0119 -0.324065,0.0197 -0.105344,0.008 -0.210374,0.0173 -0.31563,0.026 -0.349033,0.026 -0.385901,0.0315 -0.749163,0.0469 -0.571257,0.0244 -1.143021,0.0197 -1.714652,0.0197 -0.2462,0.005 -0.492576,0.006 -0.738776,0.0106 -0.106717,0.002 -0.213258,0.007 -0.319958,0.01 -0.308032,0.008 -0.616097,0.007 -0.924171,0.013 -0.628438,0.006 -1.256901,0.0151 -1.885344,0.0102 -0.581522,-0.008 -1.163141,-0.0117 -1.744722,-0.009 -0.603655,-0.005 -1.208152,0.008 -1.810919,-0.0344 -0.630946,-0.0305 -1.261833,-0.063 -1.892264,-0.10298 -0.02717,-0.001 -0.529618,-0.0278 -0.564629,-0.0292 -0.343518,-0.014 -0.687272,-0.0218 -1.03061,-0.0406 -0.163375,-0.0104 -0.326695,-0.0239 -0.49021,-0.0318 -0.291721,-0.014 -0.584207,-0.01 -0.875715,-0.0294 -0.07537,-0.003 -0.150696,-0.006 -0.226067,-0.009 -0.0715,-0.004 -0.143029,-0.01 -0.214602,-0.0128 -0.265288,-0.0104 -0.531273,-8.3e-4 -0.796538,-0.0136 -0.546538,-8.4e-4 -1.093362,-0.009 -1.638287,-0.0552 -0.0999,-0.008 -0.324913,-0.0281 -0.434829,-0.032 -0.05374,-0.002 -0.107617,-4e-5 -0.161384,-4.2e-4 -0.195812,-0.002 -0.39164,-0.004 -0.587344,-0.0113 -0.128975,-10e-4 -0.257821,-0.006 -0.386803,-0.006 -0.24991,-10e-4 -0.500077,0.0106 -0.750026,0.007 -0.396397,-2.3e-4 -0.792835,0.001 -1.188965,0.0169 -0.132639,0.007 -0.193743,0.006 -0.320605,0.0249 -0.322962,0.0481 -0.652389,0.19021 -0.949052,0.29162 -0.06774,0.0398 -0.137177,0.077 -0.203352,0.11942 -0.147127,0.0942 -0.286295,0.20172 -0.408004,0.32731 -0.02383,0.0258 -0.0494,0.0504 -0.07161,0.0777 -0.128861,0.15811 -0.222128,0.33906 -0.279502,0.53478 -0.0097,0.0414 -0.02065,0.0827 -0.0292,0.12439 -0.03646,0.17788 -0.04,0.36228 -0.03461,0.54299 0.01887,0.29345 0.05288,0.58957 0.19643,0.85214 0.07847,0.1327 0.09191,0.16687 0.190157,0.28772 0.123313,0.15169 0.280578,0.27441 0.435262,0.39178 0.300709,0.22111 0.612509,0.4271 0.947321,0.59362 0.198616,0.1013 0.392143,0.21155 0.590155,0.3139 0.104302,0.0539 0.211392,0.10236 0.315846,0.15597 0.04386,0.0225 0.0871,0.0462 0.130665,0.0692 l 0.808652,-1.44359 c -0.02567,-0.005 -0.05194,-0.006 -0.07701,-0.0134 -0.08722,-0.0247 -0.196119,-0.0712 -0.278204,-0.10579 -0.1846,-0.0778 -0.360202,-0.16599 -0.536289,-0.26132 -0.273385,-0.14471 -0.538707,-0.30326 -0.788101,-0.48632 -0.07816,-0.0574 -0.152441,-0.11937 -0.221957,-0.18691 -0.0287,-0.0279 -0.05156,-0.0492 -0.06901,-0.0842 -0.01235,-0.0853 -0.01119,-0.17397 -0.01233,-0.26047 0.0069,-0.0451 0.01172,-0.0923 0.02509,-0.1365 0.09728,-0.0319 0.287601,-0.0956 0.391995,-0.1244 0.343456,-0.0616 0.694405,-0.0635 1.042291,-0.0707 0.244632,-0.007 0.489205,0.005 0.733801,0.003 0.129773,-4.2e-4 0.25963,-0.005 0.389398,-0.006 0.239431,-0.007 0.478393,0.0136 0.717576,0.0182 0.04861,8.3e-4 0.405381,-0.002 0.424878,-0.002 0.552697,0.009 1.104704,0.0389 1.656893,0.0623 0.262731,0.004 0.524935,0.0283 0.787667,0.0324 0.07071,10e-4 0.141291,-1e-4 0.212006,-2.1e-4 0.07632,0.001 0.152778,0.003 0.229097,0.004 0.07619,0.002 0.152293,0.003 0.228447,0.006 0.07044,0.003 0.140748,0.008 0.211141,0.0115 0.07111,0.003 0.142178,0.006 0.213304,0.009 0.231779,0.008 0.463884,0.013 0.695726,0.0192 0.347217,0.01 0.693845,0.0329 1.040993,0.0441 0.09234,0.003 0.184759,0.004 0.277123,0.006 0.09433,0.003 0.188631,0.006 0.282963,0.009 0.102461,0.003 0.204945,0.007 0.307409,0.01 0.332274,0.0103 0.345122,0.007 0.672578,0.0266 0.298344,0.0174 0.596576,0.0407 0.894753,0.0608 0.623411,0.0173 1.246524,0.0476 1.870198,0.0521 0.493183,0.008 0.986521,0.003 1.479713,-0.004 -0.02114,0.0146 -0.04107,0.0309 -0.06165,0.0463 -0.07563,0.0444 -0.140103,0.10297 -0.201407,0.16506 -0.01938,0.0196 -0.03613,0.042 -0.05668,0.0604 -0.0069,0.006 -0.01675,0.008 -0.02466,0.0126 -0.01235,0.007 -0.02395,0.016 -0.03592,0.024 -0.06581,0.0602 -0.135795,0.11734 -0.197078,0.18236 -0.03006,0.0319 -0.05679,0.0669 -0.08632,0.0993 -0.02223,0.0244 -0.110652,0.11372 -0.134774,0.13823 -0.02382,0.0252 -0.04706,0.0508 -0.07139,0.0755 -0.03918,0.0398 -0.132316,0.12745 -0.168519,0.16484 -0.09164,0.0947 -0.179609,0.19335 -0.269769,0.28945 -0.140253,0.15715 -0.278665,0.31606 -0.421417,0.47096 -0.01813,0.0223 -0.03785,0.0433 -0.0543,0.0669 -0.02374,0.034 -0.04406,0.0703 -0.06598,0.10557 -0.03558,0.0572 -0.07915,0.12615 -0.110979,0.18518 -0.0149,0.0276 -0.09137,0.1823 -0.108383,0.21655 -0.131278,0.26521 -0.199921,0.55335 -0.289453,0.83374 -0.0901,0.33163 -0.182514,0.66257 -0.263058,0.99665 -0.08018,0.32181 -0.107559,0.65301 -0.132614,0.9828 -0.0087,0.23649 -0.02566,0.47845 0.01599,0.71325 0.02771,0.15643 0.07851,0.31916 0.122445,0.47182 0.06113,0.20356 0.137097,0.40158 0.218931,0.59751 0.04485,0.10739 0.09088,0.21786 0.142346,0.32234 0.03014,0.0612 0.06303,0.12082 0.09453,0.18128 0.199259,0.371 0.434642,0.7214 0.690102,1.05571 0.251689,0.31901 0.57284,0.57183 0.894105,0.81665 0.277522,0.20339 0.575645,0.37792 0.885883,0.52612 0.06582,0.0215 0.130537,0.0469 0.197509,0.0645 0.135012,0.0354 0.365555,0.0712 0.499082,0.0909 0.235876,0.0348 0.472917,0.0636 0.709355,0.0943 0.271933,0.0439 0.545499,0.0472 0.816222,-0.007 0.06378,-0.0127 0.127486,-0.0272 0.188861,-0.0487 0.217603,-0.0762 0.431544,-0.1628 0.647264,-0.24424 0.04657,-0.0245 0.09537,-0.0451 0.139537,-0.0738 0.215946,-0.14 0.406431,-0.34204 0.553809,-0.55165 0.01402,-0.0199 0.02621,-0.041 0.03914,-0.0617 0.09037,0.0682 0.182673,0.13404 0.276689,0.196 0.24327,0.15394 0.496834,0.2912 0.774255,0.37338 0.195404,0.0579 0.387279,0.0916 0.586693,0.13132 0.501777,0.0875 1.008105,0.14582 1.51628,0.17847 0.334413,0.0113 0.669635,-0.0219 0.998159,-0.0837 0.07637,-0.0144 0.154566,-0.0231 0.228015,-0.0485 0.241206,-0.0834 0.47578,-0.18492 0.713679,-0.27734 0.260019,-0.17185 0.485669,-0.39464 0.618714,-0.68058 0.08404,-0.18061 0.08785,-0.24906 0.129582,-0.44088 0.0082,-0.0644 0.02315,-0.12811 0.02466,-0.19297 0.0097,-0.41953 -0.125513,-0.79675 -0.278422,-1.17923 -0.17021,-0.40891 -0.37834,-0.79953 -0.594479,-1.18551 -0.16157,-0.30254 -0.345432,-0.5918 -0.52504,-0.88371 -0.186299,-0.31355 -0.402818,-0.60741 -0.61071,-0.90666 -0.209427,-0.33491 -0.448691,-0.64872 -0.686204,-0.96376 -0.22745,-0.29472 -0.453996,-0.5901 -0.684263,-0.88263 -0.233197,-0.28445 -0.480101,-0.55734 -0.727741,-0.82921 -0.250357,-0.27709 -0.519461,-0.53687 -0.794161,-0.78961 -0.04182,-0.0385 -0.0838,-0.0767 -0.125472,-0.11531 -0.100667,-0.0934 -0.200293,-0.18773 -0.305892,-0.27561 -0.06115,-0.0509 -0.163475,-0.13116 -0.226068,-0.18063 -0.03424,-0.0279 -0.06924,-0.0549 -0.103841,-0.0824 0.384377,-0.0174 0.769269,-0.0218 1.153918,-0.0279 0.402856,-0.006 0.805594,-0.0159 1.208437,-0.0234 0.614301,-0.0216 1.227928,-0.0608 1.840772,-0.10838 0.09478,-0.008 0.189773,-0.0159 0.28448,-0.0251 0.297804,-0.0289 0.436002,-0.0496 0.748296,-0.0742 0.147202,-0.0116 0.294606,-0.0186 0.441968,-0.0279 0.613116,-0.0388 0.289427,-0.0191 0.891073,-0.0549 0.724511,-0.0463 1.448671,-0.10062 2.169821,-0.18497 0.10868,-0.0113 0.21744,-0.0234 0.32623,-0.0337 0.11089,-0.0105 0.22208,-0.0178 0.33293,-0.0288 0.54151,-0.0536 1.08178,-0.12177 1.62076,-0.19621 0.60552,-0.0921 1.21388,-0.16683 1.81634,-0.27842 0.10572,-0.0196 0.21098,-0.0414 0.31649,-0.0621 0.34873,-0.0624 0.69378,-0.14354 1.03796,-0.22693 0.2971,-0.072 0.42007,-0.10069 0.71607,-0.19167 0.14495,-0.0446 0.28862,-0.0936 0.43288,-0.1404 0.65886,-0.22517 1.32389,-0.44155 1.9537,-0.74138 0.18012,-0.0857 0.2815,-0.14525 0.45192,-0.24013 0.26927,-0.15828 0.50706,-0.36406 0.70957,-0.6014 0.0345,-0.0403 0.0666,-0.0824 0.1,-0.12374 0.16161,-0.20934 0.29823,-0.43433 0.42011,-0.66847 0.0636,-0.14259 0.14418,-0.27915 0.19037,-0.42899 0.009,-0.0306 0.0483,-0.18619 0.0593,-0.22996 0.0254,-0.13117 0.0489,-0.26469 0.0521,-0.3987 0.003,-0.10431 -0.003,-0.13495 -0.0104,-0.23926 -0.0221,-0.24629 -0.11204,-0.47481 -0.20682,-0.70049 -0.0794,-0.18431 -0.18541,-0.36125 -0.32039,-0.51076 -0.0312,-0.0346 -0.0653,-0.0665 -0.098,-0.0997 -0.13423,-0.12204 -0.28872,-0.21972 -0.45646,-0.28902 -0.0459,-0.019 -0.093,-0.0347 -0.13953,-0.0519 -0.25812,-0.0802 -0.52301,-0.13308 -0.78875,-0.18042 -0.27237,-0.0398 -0.54672,-0.069 -0.82163,-0.0839 -0.16234,-0.007 -0.32497,-0.009 -0.4874,-0.0141 -0.0971,0.003 -0.0437,0.003 -0.16009,-0.001 z m -34.458566,7.00853 c 0.0064,-0.003 0.0097,1e-4 0.03872,0.01 -0.445223,0.15749 -0.483065,0.17156 -0.430718,0.1549 0.0031,-0.0101 0.0039,-0.0211 0.0084,-0.0307 0.01292,-0.0271 0.006,-0.0276 0.02142,-0.0119 -0.0077,0.0152 0.02285,-0.0459 0.03072,-0.0331 0.0067,0.011 -0.0077,0.0321 0.0035,0.0385 0.0098,0.006 0.01561,-0.0185 0.02661,-0.0212 0.006,-10e-4 0.0095,0.008 0.01428,0.0115 0.01234,-0.008 0.02466,-0.0162 0.03699,-0.0242 0.01153,-0.003 0.02353,-0.005 0.03461,-0.01 0.08196,-0.0334 0.02052,-0.0195 0.104921,-0.0454 0.01723,-0.005 0.03548,-0.007 0.05257,-0.0126 0.0418,-0.0139 0.05155,-0.0229 0.05798,-0.0258 z m 16.527606,0.71823 h 2.17e-4 c 0.07315,0.0461 0.146684,0.0914 0.218278,0.14018 0.127598,0.0842 0.243023,0.1849 0.368632,0.27193 0.09434,0.0707 0.04448,0.0323 0.14992,0.11531 0.121331,0.0909 0.250709,0.17086 0.366033,0.26998 0.206623,0.16064 0.409248,0.32659 0.608327,0.49648 0.250554,0.22118 0.488126,0.45595 0.717577,0.69897 0.231561,0.2494 0.458659,0.50282 0.675823,0.76496 0.231288,0.27997 0.456,0.56529 0.675609,0.85451 0.228856,0.29017 0.443571,0.5914 0.647917,0.8993 0.190883,0.28664 0.387182,0.56976 0.572631,0.85992 0.05955,0.0974 0.120887,0.19361 0.179772,0.2914 0.111975,0.18596 0.218215,0.37556 0.336184,0.55792 0.06492,0.10909 0.129587,0.21521 0.190154,0.32688 0.12301,0.22679 0.230925,0.46105 0.329474,0.6994 0.06387,0.15542 0.133321,0.31603 0.146244,0.48589 0.0021,0.0266 -0.01005,0.0733 -0.01448,0.0954 -0.0056,0.0113 -0.0092,0.0236 -0.01666,0.0337 -0.0033,0.004 -0.0097,0.005 -0.01427,0.008 -0.05587,0.0372 -0.115973,0.0666 -0.181287,0.0839 0.131278,-0.0449 0.260287,-0.0976 0.394156,-0.13412 0.04443,-0.0121 -0.08097,0.0445 -0.123956,0.061 -0.0541,0.0208 -0.110435,0.0353 -0.166364,0.0504 -0.03428,0.009 -0.06928,0.0148 -0.103836,0.0227 -0.13508,0.0309 -0.271628,0.0541 -0.410169,0.0642 -0.449646,-0.002 -0.900615,-0.0139 -1.345588,-0.085 -0.194818,-0.0354 -0.388874,-0.069 -0.579124,-0.12482 -0.03713,-0.0109 -0.07479,-0.0209 -0.110548,-0.0357 -0.06895,-0.0285 -0.181329,-0.0927 -0.246401,-0.1285 -0.01147,-0.007 -0.17762,-0.10693 -0.198811,-0.12179 -0.112121,-0.0787 -0.05204,-0.0477 -0.157271,-0.13435 -0.08482,-0.0698 0.06053,0.0852 -0.06858,-0.0619 -0.110053,-0.13587 -0.186156,-0.29282 -0.257218,-0.45192 -0.08669,-0.19538 -0.14884,-0.39962 -0.216984,-0.60205 -0.0712,-0.11173 -0.08131,-0.33939 -0.213735,-0.33532 -1.400672,0.043 -1.399399,0.086 -1.447265,0.85841 -0.0076,0.19013 0.0021,0.38076 -0.01624,0.57047 -0.01947,0.16123 -0.04676,0.37874 -0.137805,0.5166 -0.01063,0.0161 -0.02495,0.0296 -0.03742,0.0444 -0.02876,0.0303 -0.07549,0.0816 -0.107734,0.10557 -0.01202,0.009 -0.02612,0.0145 -0.03981,0.0208 0.05904,-0.0219 0.118208,-0.0434 0.178474,-0.0616 0.03399,-0.0103 -0.0631,0.0326 -0.09367,0.0506 -0.02361,0.0139 -0.04439,0.0327 -0.06879,0.0452 -0.02608,0.0134 -0.05423,0.0221 -0.08178,0.0322 -0.118015,0.0433 -0.0684,0.0275 -0.227366,0.0301 -0.213015,-0.0105 -0.424842,-0.0237 -0.63645,-0.0517 -0.278376,-0.0369 -0.11784,-0.0192 -0.357167,-0.0645 -0.026,-0.005 -0.05253,-0.008 -0.07874,-0.0113 -0.02152,-0.004 -0.04377,-0.005 -0.06468,-0.0115 -0.03328,-0.0102 -0.06513,-0.0245 -0.09714,-0.0381 -0.164693,-0.0702 -0.320256,-0.15892 -0.469007,-0.2583 -0.239896,-0.1654 -0.478577,-0.33799 -0.673445,-0.55662 -0.21595,-0.25593 -0.407385,-0.5332 -0.563333,-0.82985 -0.137888,-0.2819 -0.276492,-0.56553 -0.370361,-0.86577 -0.02704,-0.10211 -0.04632,-0.15809 -0.05927,-0.25743 -0.02123,-0.16287 -0.007,-0.32823 0.0021,-0.4913 0.0089,-0.11137 0.01189,-0.16369 0.02637,-0.27495 0.02214,-0.17018 0.06235,-0.33731 0.09627,-0.50536 0.07277,-0.30226 0.147357,-0.60489 0.245107,-0.90016 0.06954,-0.2119 0.147081,-0.42101 0.261112,-0.61373 0.04481,-0.0781 0.09538,-0.158 0.156626,-0.22456 0.0078,-0.008 0.01875,-0.0135 0.02683,-0.0216 0.01499,-0.0151 0.0283,-0.0319 0.0424,-0.0478 0.124743,-0.15078 0.25438,-0.29751 0.389401,-0.43916 0.15964,-0.17178 0.330277,-0.33223 0.498646,-0.4954 0.0185,-0.0187 0.107403,-0.10933 0.127422,-0.12655 0.01369,-0.0118 0.03006,-0.0202 0.04456,-0.0309 0.05616,-0.0417 0.110485,-0.0861 0.168093,-0.1259 0.02039,-0.0177 0.04124,-0.0346 0.061,-0.053 0.01901,-0.0177 0.0355,-0.038 0.05517,-0.0549 0.01038,-0.009 0.02168,-0.005 0.03311,-0.01 0.02851,-0.0131 0.0786,-0.0488 0.09973,-0.063 0.115651,-0.0652 0.215808,-0.15399 0.330558,-0.22045 0.131714,-0.11048 0.265319,-0.21864 0.404756,-0.3193 0.07684,-0.0614 0.152222,-0.12443 0.228015,-0.18713 z m 0.365388,8.05363 c -0.04262,0.0158 -0.08531,0.0314 -0.127854,0.0474 0.01871,-0.004 0.03818,-0.007 0.05625,-0.0132 0.02148,-0.008 0.0414,-0.0191 0.06187,-0.0292 0.0033,-0.002 0.0064,-0.003 0.0098,-0.005 z m 2.013406,-1.457 c 0.01176,0.0135 0.01545,0.13353 -0.0108,0.14429 -0.0069,0.003 -0.01109,0.005 -0.01796,0.008 1.21e-4,-0.002 3.3e-4,-0.004 4.18e-4,-0.005 0.0025,-0.0165 0.0053,-0.0329 0.0074,-0.0495 0.0029,-0.0223 0.0033,-0.0451 0.0074,-0.0673 0.0049,-0.0272 0.0097,-0.0344 0.01365,-0.0299 z" />
  </g>
</svg>
