<?xml version="1.0" encoding="UTF-8" standalone="no"?>
<svg
   width="10mm"
   height="10mm"
   viewBox="0 0 37.795276 37.795276"
   version="1.1"
   id="svg1"
   sodipodi:docname="instagram-10x10.svg"
   inkscape:version="1.4.2 (ebf0e940d0, 2025-05-08)"
   xmlns:inkscape="http://www.inkscape.org/namespaces/inkscape"
   xmlns:sodipodi="http://sodipodi.sourceforge.net/DTD/sodipodi-0.dtd"
   xmlns="http://www.w3.org/2000/svg"
   xmlns:svg="http://www.w3.org/2000/svg">
  <defs
     id="defs1" />
  <sodipodi:namedview
     id="namedview1"
     pagecolor="#ffffff"
     bordercolor="#000000"
     borderopacity="0.25"
     inkscape:showpageshadow="2"
     inkscape:pageopacity="0.0"
     inkscape:pagecheckerboard="0"
     inkscape:deskcolor="#d1d1d1"
     inkscape:document-units="mm"
     inkscape:zoom="25.549643"
     inkscape:cx="26.262598"
     inkscape:cy="17.456213"
     inkscape:window-width="3840"
     inkscape:window-height="2082"
     inkscape:window-x="0"
     inkscape:window-y="0"
     inkscape:window-maximized="1"
     inkscape:current-layer="svg1" />
  <path
     d="m 23.988976,8.6425195 c -1.327558,-0.059843 -1.727558,-0.072442 -5.091339,-0.072442 -3.363779,0 -3.762204,0.012592 -5.089763,0.072442 -3.417323,0.1559056 -5.009449,1.7748035 -5.1637796,5.1637795 -0.061418,1.329134 -0.07559,1.727559 -0.07559,5.091338 0,3.363781 0.014176,3.762205 0.074016,5.091339 0.1559056,3.382677 1.7417316,5.007874 5.1637786,5.163779 1.327559,0.05984 1.727559,0.07402 5.091338,0.07402 3.365355,0 3.763781,-0.01264 5.091339,-0.07245 3.417323,-0.155904 5.007874,-1.777952 5.163779,-5.163779 0.05984,-1.329133 0.07245,-1.727558 0.07245,-5.091338 0,-3.36378 -0.01264,-3.762205 -0.07245,-5.089764 C 28.99685,10.418897 27.403149,8.798425 23.988976,8.6425195 Z M 18.897637,25.366928 c -3.573228,0 -6.469291,-2.896062 -6.469291,-6.469291 0,-3.573228 2.897638,-6.469291 6.469291,-6.469291 3.571654,0 6.469291,2.896063 6.469291,6.469291 0,3.573229 -2.896062,6.469291 -6.469291,6.469291 z m 6.725984,-11.681889 c -0.834645,0 -1.51181,-0.677165 -1.51181,-1.511811 0,-0.834646 0.677165,-1.511811 1.51181,-1.511811 0.834646,0 1.511811,0.677165 1.511811,1.511811 0,0.834646 -0.677165,1.511811 -1.511811,1.511811 z m -2.525984,5.212598 c 0,2.319686 -1.880314,4.2 -4.2,4.2 -2.319685,0 -4.2,-1.880314 -4.2,-4.2 0,-2.319685 1.880315,-4.2 4.2,-4.2 2.319686,0 4.2,1.880315 4.2,4.2 z M 29.921259,0 H 7.8740157 C 3.5259842,0 0,3.5259842 0,7.8740157 V 29.921259 c 0,4.348032 3.5259842,7.874016 7.8740157,7.874016 H 29.921259 c 4.349607,0 7.874016,-3.525984 7.874016,-7.874016 V 7.8740157 C 37.795275,3.5259842 34.270866,0 29.921259,0 Z m 1.499213,24.091338 c -0.207874,4.581102 -2.75748,7.119684 -7.327558,7.329134 -1.344884,0.06142 -1.773229,0.07558 -5.195277,0.07558 -3.422047,0 -3.848818,-0.01424 -5.1937,-0.07558 -4.5795277,-0.20945 -7.1181103,-2.752757 -7.329134,-7.329134 -0.061418,-1.343308 -0.07559,-1.771653 -0.07559,-5.193701 0,-3.420472 0.014176,-3.850393 0.07559,-5.1937 0.2110237,-4.5795277 2.7527559,-7.1196852 7.329134,-7.3275592 1.344882,-0.062992 1.771653,-0.077165 5.1937,-0.077165 3.422048,0 3.850393,0.014176 5.195277,0.07559 4.579526,0.2094488 7.122833,2.7574803 7.327558,7.3275582 0.06142,1.344882 0.07558,1.774803 0.07558,5.195275 0,3.422048 -0.01424,3.850393 -0.07558,5.193702 z"
     id="path1"
     style="stroke-width:1" />
</svg>
