  0
SECTION
  2
HEADER
  9
$ACADVER
  1
AC1014
  9
$HANDSEED
  5
FFFF
  9
$MEASUREMENT
 70
     1
  0
ENDSEC
  0
SECTION
  2
TABLES
  0
TABLE
  2
VPORT
  5
8
330
0
100
AcDbSymbolTable
 70
     4
  0
VPORT
  5
2E
330
8
100
AcDbSymbolTableRecord
100
AcDbViewportTableRecord
  2
*ACTIVE
 70
     0
 10
0.0
 20
0.0
 11
1.0
 21
1.0
 12
210.0
 22
148.5
 13
0.0
 23
0.0
 14
10.0
 24
10.0
 15
10.0
 25
10.0
 16
0.0
 26
0.0
 36
1.0
 17
0.0
 27
0.0
 37
0.0
 40
341.0
 41
1.24
 42
50.0
 43
0.0
 44
0.0
 50
0.0
 51
0.0
 71
     0
 72
   100
 73
     1
 74
     3
 75
     0
 76
     0
 77
     0
 78
     0
  0
ENDTAB
  0
TABLE
  2
LTYPE
  5
5
330
0
100
AcDbSymbolTable
 70
     1
  0
LTYPE
  5
14
330
5
100
AcDbSymbolTableRecord
100
AcDbLinetypeTableRecord
  2
BYBLOCK
 70
     0
  3

 72
    65
 73
     0
 40
0.0
  0
LTYPE
  5
15
330
5
100
AcDbSymbolTableRecord
100
AcDbLinetypeTableRecord
  2
BYLAYER
 70
     0
  3

 72
    65
 73
     0
 40
0.0
  0
LTYPE
  5
16
330
5
100
AcDbSymbolTableRecord
100
AcDbLinetypeTableRecord
  2
CONTINUOUS
 70
     0
  3
Solid line
 72
    65
 73
     0
 40
0.0
  0
ENDTAB
  0
TABLE
  2
LAYER
  5
2
100
AcDbSymbolTable
 70
2
  0
LAYER
  5
50
100
AcDbSymbolTableRecord
100
AcDbLayerTableRecord
  2
0
 70
0
  6
CONTINUOUS
  0
LAYER
  5
51
100
AcDbSymbolTableRecord
100
AcDbLayerTableRecord
  2
Ebene_1
 70
0
  6
CONTINUOUS
  0
ENDTAB
  0
TABLE
  2
STYLE
  5
3
330
0
100
AcDbSymbolTable
 70
     1
  0
STYLE
  5
11
330
3
100
AcDbSymbolTableRecord
100
AcDbTextStyleTableRecord
  2
STANDARD
 70
     0
 40
0.0
 41
1.0
 50
0.0
 71
     0
 42
2.5
  3
txt
  4

  0
ENDTAB
  0
TABLE
  2
VIEW
  5
6
330
0
100
AcDbSymbolTable
 70
     0
  0
ENDTAB
  0
TABLE
  2
UCS
  5
7
330
0
100
AcDbSymbolTable
 70
     0
  0
ENDTAB
  0
TABLE
  2
APPID
  5
9
330
0
100
AcDbSymbolTable
 70
     2
  0
APPID
  5
12
330
9
100
AcDbSymbolTableRecord
100
AcDbRegAppTableRecord
  2
ACAD
 70
     0
  0
ENDTAB
  0
TABLE
  2
DIMSTYLE
  5
A
330
0
100
AcDbSymbolTable
 70
     1
  0
DIMSTYLE
105
27
330
A
100
AcDbSymbolTableRecord
100
AcDbDimStyleTableRecord
  2
ISO-25
 70
     0
  3

  4

  5

  6

  7

 40
1.0
 41
2.5
 42
0.625
 43
3.75
 44
1.25
 45
0.0
 46
0.0
 47
0.0
 48
0.0
140
2.5
141
2.5
142
0.0
143
0.03937007874016
144
1.0
145
0.0
146
1.0
147
0.625
 71
     0
 72
     0
 73
     0
 74
     0
 75
     0
 76
     0
 77
     1
 78
     8
170
     0
171
     3
172
     1
173
     0
174
     0
175
     0
176
     0
177
     0
178
     0
270
     2
271
     2
272
     2
273
     2
274
     3
340
11
275
     0
280
     0
281
     0
282
     0
283
     0
284
     8
285
     0
286
     0
287
     3
288
     0
  0
ENDTAB
  0
TABLE
  2
BLOCK_RECORD
  5
1
330
0
100
AcDbSymbolTable
 70
     1
  0
BLOCK_RECORD
  5
1F
330
1
100
AcDbSymbolTableRecord
100
AcDbBlockTableRecord
  2
*MODEL_SPACE
  0
BLOCK_RECORD
  5
1B
330
1
100
AcDbSymbolTableRecord
100
AcDbBlockTableRecord
  2
*PAPER_SPACE
  0
ENDTAB
  0
ENDSEC
  0
SECTION
  2
BLOCKS
  0
BLOCK
  5
20
330
1F
100
AcDbEntity
  8
0
100
AcDbBlockBegin
  2
*MODEL_SPACE
 70
     0
 10
0.0
 20
0.0
 30
0.0
  3
*MODEL_SPACE
  1

  0
ENDBLK
  5
21
330
1F
100
AcDbEntity
  8
0
100
AcDbBlockEnd
  0
BLOCK
  5
1C
330
1B
100
AcDbEntity
 67
     1
  8
0
100
AcDbBlockBegin
  2
*PAPER_SPACE
  1

  0
ENDBLK
  5
1D
330
1B
100
AcDbEntity
 67
     1
  8
0
100
AcDbBlockEnd
  0
ENDSEC
  0
SECTION
  2
ENTITIES
  0
LWPOLYLINE
  5
100
100
AcDbEntity
  8
Ebene_1
 62
1
100
AcDbPolyline
 90
56
 70
1
 10
2.084700
 20
0.997070
 30
0.0
 10
2.074100
 20
0.986570
 30
0.0
 10
2.074100
 20
0.979570
 30
0.0
 10
2.063500
 20
0.968970
 30
0.0
 10
1.933170
 20
0.968970
 30
0.0
 10
1.922570
 20
0.979570
 30
0.0
 10
1.922570
 20
0.986570
 30
0.0
 10
1.915570
 20
0.997070
 30
0.0
 10
1.767630
 20
0.997070
 30
0.0
 10
1.753530
 20
0.993070
 30
0.0
 10
1.750530
 20
0.979070
 30
0.0
 10
1.750530
 20
0.020500
 30
0.0
 10
1.753530
 20
0.006500
 30
0.0
 10
1.767630
 20
0.002500
 30
0.0
 10
1.905000
 20
0.002500
 30
0.0
 10
1.919100
 20
0.006500
 30
0.0
 10
1.923100
 20
0.020500
 30
0.0
 10
1.923100
 20
0.280330
 30
0.0
 10
1.930100
 20
0.294330
 30
0.0
 10
1.944200
 20
0.301330
 30
0.0
 10
2.648710
 20
0.301330
 30
0.0
 10
2.662810
 20
0.294330
 30
0.0
 10
2.669810
 20
0.280330
 30
0.0
 10
2.669810
 20
0.052100
 30
0.0
 10
2.673810
 20
0.038100
 30
0.0
 10
2.687910
 20
0.031100
 30
0.0
 10
2.888700
 20
0.031100
 30
0.0
 10
2.899300
 20
0.020600
 30
0.0
 10
2.899300
 20
0.013600
 30
0.0
 10
2.909900
 20
0.003100
 30
0.0
 10
2.998000
 20
0.003100
 30
0.0
 10
3.005000
 20
0.052300
 30
0.0
 10
3.026100
 20
0.101400
 30
0.0
 10
3.057800
 20
0.143500
 30
0.0
 10
3.100100
 20
0.175100
 30
0.0
 10
3.145900
 20
0.196200
 30
0.0
 10
3.198700
 20
0.200200
 30
0.0
 10
3.198700
 20
0.291500
 30
0.0
 10
3.188100
 20
0.302100
 30
0.0
 10
3.177500
 20
0.302100
 30
0.0
 10
3.166900
 20
0.312600
 30
0.0
 10
3.166900
 20
0.379300
 30
0.0
 10
3.162900
 20
0.393300
 30
0.0
 10
3.148800
 20
0.400300
 30
0.0
 10
1.944090
 20
0.400300
 30
0.0
 10
1.929990
 20
0.407300
 30
0.0
 10
1.922990
 20
0.421300
 30
0.0
 10
1.922990
 20
0.579310
 30
0.0
 10
1.929990
 20
0.593310
 30
0.0
 10
1.944090
 20
0.600310
 30
0.0
 10
2.229410
 20
0.600310
 30
0.0
 10
2.243510
 20
0.607310
 30
0.0
 10
2.250510
 20
0.621310
 30
0.0
 10
2.250510
 20
0.979450
 30
0.0
 10
2.243510
 20
0.993450
 30
0.0
 10
2.229410
 20
0.997450
 30
0.0
  0
LWPOLYLINE
  5
101
100
AcDbEntity
  8
Ebene_1
 62
1
100
AcDbPolyline
 90
56
 70
1
 10
1.281560
 20
0.006910
 30
0.0
 10
1.274560
 20
0.020910
 30
0.0
 10
1.274560
 20
0.280740
 30
0.0
 10
1.270560
 20
0.294740
 30
0.0
 10
1.252960
 20
0.301740
 30
0.0
 10
0.551970
 20
0.301740
 30
0.0
 10
0.537870
 20
0.294740
 30
0.0
 10
0.530870
 20
0.280740
 30
0.0
 10
0.530870
 20
0.052510
 30
0.0
 10
0.523870
 20
0.038510
 30
0.0
 10
0.509770
 20
0.031510
 30
0.0
 10
0.312500
 20
0.031510
 30
0.0
 10
0.301900
 20
0.021010
 30
0.0
 10
0.301900
 20
0.014010
 30
0.0
 10
0.291300
 20
0.003510
 30
0.0
 10
0.199700
 20
0.003510
 30
0.0
 10
0.192700
 20
0.052710
 30
0.0
 10
0.175100
 20
0.101910
 30
0.0
 10
0.143400
 20
0.144010
 30
0.0
 10
0.101100
 20
0.175610
 30
0.0
 10
0.051800
 20
0.196710
 30
0.0
 10
0.002500
 20
0.200710
 30
0.0
 10
0.002500
 20
0.292010
 30
0.0
 10
0.013100
 20
0.302610
 30
0.0
 10
0.020100
 20
0.302610
 30
0.0
 10
0.030700
 20
0.313110
 30
0.0
 10
0.030700
 20
0.379810
 30
0.0
 10
0.037700
 20
0.393810
 30
0.0
 10
0.051800
 20
0.400810
 30
0.0
 10
1.253000
 20
0.400810
 30
0.0
 10
1.270600
 20
0.407810
 30
0.0
 10
1.274600
 20
0.421810
 30
0.0
 10
1.274600
 20
0.579820
 30
0.0
 10
1.270600
 20
0.593820
 30
0.0
 10
1.253000
 20
0.600820
 30
0.0
 10
0.971190
 20
0.600820
 30
0.0
 10
0.957090
 20
0.607820
 30
0.0
 10
0.950090
 20
0.621820
 30
0.0
 10
0.950090
 20
0.979960
 30
0.0
 10
0.957090
 20
0.993960
 30
0.0
 10
0.971190
 20
0.997960
 30
0.0
 10
1.115620
 20
0.997960
 30
0.0
 10
1.126220
 20
0.987460
 30
0.0
 10
1.126220
 20
0.980460
 30
0.0
 10
1.133220
 20
0.969960
 30
0.0
 10
1.263550
 20
0.969960
 30
0.0
 10
1.274150
 20
0.980460
 30
0.0
 10
1.274150
 20
0.987460
 30
0.0
 10
1.284750
 20
0.997960
 30
0.0
 10
1.429180
 20
0.997960
 30
0.0
 10
1.443280
 20
0.993960
 30
0.0
 10
1.450280
 20
0.979960
 30
0.0
 10
1.450280
 20
0.021400
 30
0.0
 10
1.443280
 20
0.007400
 30
0.0
 10
1.429180
 20
0.003400
 30
0.0
 10
1.295320
 20
0.003400
 30
0.0
  0
LWPOLYLINE
  5
102
100
AcDbEntity
  8
Ebene_1
 62
1
100
AcDbPolyline
 90
24
 70
1
 10
0.200130
 20
0.997070
 30
0.0
 10
0.193130
 20
0.947870
 30
0.0
 10
0.175530
 20
0.898670
 30
0.0
 10
0.143830
 20
0.856570
 30
0.0
 10
0.101530
 20
0.824970
 30
0.0
 10
0.052230
 20
0.803870
 30
0.0
 10
0.002930
 20
0.799870
 30
0.0
 10
0.002930
 20
0.708570
 30
0.0
 10
0.013530
 20
0.698070
 30
0.0
 10
0.020530
 20
0.698070
 30
0.0
 10
0.031130
 20
0.687570
 30
0.0
 10
0.031130
 20
0.620870
 30
0.0
 10
0.038130
 20
0.606870
 30
0.0
 10
0.052230
 20
0.599870
 30
0.0
 10
0.510160
 20
0.599870
 30
0.0
 10
0.524260
 20
0.606870
 30
0.0
 10
0.531260
 20
0.620870
 30
0.0
 10
0.531260
 20
0.947410
 30
0.0
 10
0.524260
 20
0.961410
 30
0.0
 10
0.510160
 20
0.968410
 30
0.0
 10
0.312900
 20
0.968410
 30
0.0
 10
0.302300
 20
0.978910
 30
0.0
 10
0.302300
 20
0.985910
 30
0.0
 10
0.291700
 20
0.996410
 30
0.0
  0
LWPOLYLINE
  5
103
100
AcDbEntity
  8
Ebene_1
 62
1
100
AcDbPolyline
 90
23
 70
1
 10
3.166130
 20
0.621370
 30
0.0
 10
3.166130
 20
0.688070
 30
0.0
 10
3.176730
 20
0.698570
 30
0.0
 10
3.187330
 20
0.698570
 30
0.0
 10
3.197930
 20
0.709170
 30
0.0
 10
3.197930
 20
0.800470
 30
0.0
 10
3.145130
 20
0.804470
 30
0.0
 10
3.099330
 20
0.825570
 30
0.0
 10
3.057030
 20
0.857170
 30
0.0
 10
3.025330
 20
0.899270
 30
0.0
 10
3.004230
 20
0.948470
 30
0.0
 10
2.997230
 20
0.997670
 30
0.0
 10
2.909130
 20
0.997670
 30
0.0
 10
2.898530
 20
0.987170
 30
0.0
 10
2.898530
 20
0.980170
 30
0.0
 10
2.887930
 20
0.969670
 30
0.0
 10
2.687150
 20
0.969670
 30
0.0
 10
2.673050
 20
0.962670
 30
0.0
 10
2.669050
 20
0.948670
 30
0.0
 10
2.669050
 20
0.622130
 30
0.0
 10
2.673050
 20
0.608130
 30
0.0
 10
2.687150
 20
0.601130
 30
0.0
 10
3.157410
 20
0.610130
 30
0.0
  0
ENDSEC
  0
SECTION
  2
OBJECTS
  0
DICTIONARY
  5
C
330
0
100
AcDbDictionary
  3
ACAD_GROUP
350
D
  3
ACAD_MLINESTYLE
350
17
  0
DICTIONARY
  5
D
330
C
100
AcDbDictionary
  0
DICTIONARY
  5
1A
330
C
100
AcDbDictionary
  0
DICTIONARY
  5
17
330
C
100
AcDbDictionary
  3
STANDARD
350
18
  0
DICTIONARY
  5
19
330
C
100
AcDbDictionary
  0
ENDSEC
  0
EOF
