<?xml version="1.0" encoding="UTF-8" standalone="no"?>
<!-- Created with Inkscape (http://www.inkscape.org/) -->

<svg
   width="6.0005388mm"
   height="14.299528mm"
   viewBox="0 0 6.0005388 14.299528"
   version="1.1"
   id="svg634152"
   inkscape:version="1.2 (dc2aedaf03, 2022-05-15)"
   sodipodi:docname="faceHuggerSymbol.svg"
   xmlns:inkscape="http://www.inkscape.org/namespaces/inkscape"
   xmlns:sodipodi="http://sodipodi.sourceforge.net/DTD/sodipodi-0.dtd"
   xmlns="http://www.w3.org/2000/svg"
   xmlns:svg="http://www.w3.org/2000/svg">
  <sodipodi:namedview
     id="namedview634154"
     pagecolor="#ffffff"
     bordercolor="#666666"
     borderopacity="1.0"
     inkscape:showpageshadow="2"
     inkscape:pageopacity="0.0"
     inkscape:pagecheckerboard="0"
     inkscape:deskcolor="#d1d1d1"
     inkscape:document-units="mm"
     showgrid="false"
     inkscape:zoom="32"
     inkscape:cx="25.9375"
     inkscape:cy="28.96875"
     inkscape:window-width="3840"
     inkscape:window-height="2066"
     inkscape:window-x="-11"
     inkscape:window-y="-11"
     inkscape:window-maximized="1"
     inkscape:current-layer="layer1" />
  <defs
     id="defs634149">
    <clipPath
       clipPathUnits="userSpaceOnUse"
       id="clipPath1542">
      <path
         d="m 49.422,594.212 h 16.835 v 40.32 H 49.422 Z"
         id="path1540" />
    </clipPath>
  </defs>
  <g
     inkscape:label="Layer 1"
     inkscape:groupmode="layer"
     id="layer1"
     transform="translate(-132.12844,-157.55272)">
    <g
       id="g1536"
       transform="matrix(0.35277777,0,0,-0.35277777,114.73191,381.44019)"
       style="fill:none;stroke:#000000;stroke-width:0.283465;stroke-dasharray:none">
      <g
         id="g1538"
         clip-path="url(#clipPath1542)"
         style="fill:none;stroke:#000000;stroke-width:0.283465;stroke-dasharray:none">
        <g
           id="g1544"
           transform="translate(65.0932,615.3607)"
           style="fill:none;stroke:#000000;stroke-width:0.283465;stroke-dasharray:none">
          <path
             d="m 0,0 c 0,0 -0.915,0.538 -1.285,0.567 -0.37,0.029 -0.479,0.074 -0.479,0.074 l -0.412,0.336 c 0,0 -0.043,0.12 -0.098,0.279 0.041,-0.045 0.08,-0.081 0.113,-0.094 0.197,-0.078 1.042,0.1 1.195,0.079 0.153,-0.02 0.607,0.033 0.929,-0.353 C 0.285,0.502 0.385,0.239 0.385,0.239 Z m -3.07,3.468 c 0,0 0.271,0.207 0.271,0.483 v 0.247 c 0.1,-0.109 0.176,-0.189 0.196,-0.203 0.21,-0.142 0.569,-0.637 0.574,-0.835 0.005,-0.198 -0.596,-0.263 -0.596,-0.263 0,0 -0.213,0.246 -0.457,0.518 0.006,0.03 0.012,0.053 0.012,0.053 z m -1.456,-4.56 0.046,-0.345 -0.346,-0.3 c -0.069,0.185 -0.023,0.647 -0.115,0.75 -0.092,0.102 -0.207,1.093 -0.207,1.323 0,0.037 -0.001,0.106 -0.002,0.185 0.049,-0.026 0.097,-0.05 0.14,-0.068 0.149,-0.063 0.432,-0.075 0.694,-0.071 0.046,-0.411 0.089,-0.804 0.089,-0.898 0,-0.207 0,-0.415 -0.115,-0.369 -0.115,0.047 -0.184,-0.207 -0.184,-0.207 z m -7.369,8.004 c 0,0 -0.542,0.146 -0.897,-0.337 -0.356,-0.482 -0.139,-1.186 -0.139,-1.186 l 0.075,-0.218 -0.507,0.275 c 0.133,0.127 0.232,0.233 0.225,0.255 -0.023,0.069 0,0.253 -0.092,0.415 -0.092,0.161 0.028,0.617 0.138,0.529 0.086,-0.069 0.599,0.622 0.691,0.829 0.092,0.207 0.713,1.29 0.713,1.29 0,0 0.093,-0.231 0.093,-0.346 0,-0.115 0.529,-0.76 0.598,-0.944 0.069,-0.184 0.277,-0.541 0.277,-0.541 0,0 -0.092,-0.265 -0.238,-0.403 l -0.631,0.341 z m 7.028,-0.205 c -0.078,0.085 -0.157,0.172 -0.241,0.265 0.002,0.006 0.004,0.013 0.006,0.019 0.207,0.529 0.161,1.404 0.276,1.174 C -4.74,7.994 -4.858,7.198 -4.867,6.707 Z M -4.687,5.77 C -4.71,5.448 -4.618,5.287 -4.78,5.195 -4.941,5.102 -5.27,4.826 -5.151,4.734 -5.033,4.642 -4.964,4.665 -5.033,4.458 -5.102,4.25 -5.27,4.135 -5.151,3.974 -5.046,3.83 -4.766,3.641 -4.704,3.599 -4.841,3.442 -4.979,3.243 -4.979,3.243 c 0,0 -0.347,0.272 -0.57,0.392 -0.024,0.121 -0.041,0.229 -0.037,0.293 0.024,0.345 -0.093,0.944 0,1.036 0.093,0.092 0.424,0.53 0.362,0.622 -0.057,0.085 -0.079,0.755 0.08,1.275 0.094,-0.109 0.188,-0.217 0.282,-0.324 0.005,-0.084 0.015,-0.155 0.036,-0.191 0.139,-0.23 0.162,-0.253 0.139,-0.576 z M 0.681,0.428 C 0.593,0.627 0.474,0.903 0.099,1.13 -0.276,1.356 -0.964,1.49 -1.406,1.373 -1.848,1.255 -2.071,1.295 -2.28,1.521 -2.32,1.564 -2.362,1.609 -2.405,1.653 -2.464,1.844 -2.508,2.013 -2.498,2.059 -2.472,2.18 -2.566,2.328 -2.566,2.328 l 0.339,0.131 -0.015,0.264 c 0,0 0.446,0.001 0.466,0.154 0.021,0.153 0.026,0.817 -0.163,1.029 -0.143,0.16 -0.518,0.321 -0.86,0.549 v 0.302 c 0,0.115 -0.161,0.322 -0.23,0.553 -0.07,0.23 -0.093,1.312 -0.093,1.312 0,0 0.046,1.474 0,1.658 -0.046,0.184 -0.276,1.819 -0.506,2.142 -0.23,0.322 -0.921,0.944 -1.105,1.105 -0.185,0.161 -0.714,0.437 -0.714,0.437 l -0.231,0.231 c 0,0 -0.253,0.299 -0.046,0.23 0.208,-0.069 1.014,-0.599 0.714,-0.207 -0.299,0.391 -0.253,0.138 -0.023,0.414 0.23,0.276 0.092,0.276 -0.092,0.507 -0.184,0.23 -0.138,0.322 -0.253,0.46 -0.115,0.138 -0.184,0.484 -0.023,0.461 0.161,-0.023 0.299,-0.276 0.161,-0.023 -0.138,0.253 -0.599,0.691 -0.346,0.598 0.254,-0.092 0.231,-0.322 0.254,-0.092 0.023,0.231 -0.161,0.484 0.046,0.599 0.207,0.115 0.161,0.322 0.138,0.438 -0.023,0.115 -0.115,0.299 -0.161,0.598 -0.046,0.3 -0.092,0.323 -0.069,0.507 0.023,0.184 -0.208,0.483 -0.208,0.553 0,0.069 -0.115,0.253 -0.115,0.368 0,0.115 0.093,0.483 -0.207,0.529 -0.299,0.047 -0.414,0.254 -0.529,0.346 -0.116,0.092 -0.185,0.207 -0.254,0.184 -0.069,-0.023 -0.138,0.092 -0.253,0.23 -0.115,0.139 -0.414,0.277 -0.484,0.231 -0.069,-0.046 -0.368,-0.185 -0.506,-0.092 -0.138,0.092 -0.484,0.11 -0.622,0.101 -0.138,-0.009 -0.806,-0.493 -0.806,-0.493 0,0 -0.207,0.115 -0.345,0.069 -0.138,-0.046 -0.461,0.023 -0.3,-0.184 0.162,-0.207 0.231,0.023 0,-0.207 -0.23,-0.231 -0.322,-0.115 -0.437,-0.415 -0.115,-0.299 -0.438,-0.645 -0.276,-0.806 0.161,-0.161 0.23,-0.253 0.161,-0.368 -0.069,-0.115 -0.253,-0.576 -0.207,-0.806 0.046,-0.23 0.207,0.069 0.046,-0.23 -0.162,-0.3 -0.254,-0.3 -0.162,-0.415 0.093,-0.115 0.3,-0.207 0.254,-0.391 -0.046,-0.184 0.046,-0.369 0.046,-0.369 0,0 -0.092,-0.322 -0.138,-0.391 -0.046,-0.069 -0.208,-0.299 -0.092,-0.415 0.115,-0.115 0.345,-0.299 0.23,-0.414 -0.115,-0.115 -0.3,-0.253 -0.207,-0.322 0.092,-0.07 0.161,-0.139 0.23,-0.254 0.069,-0.115 0.069,-0.23 0.069,-0.23 0,0 -1.174,-0.622 -1.819,-1.451 -0.645,-0.829 -2.556,-4.283 -2.671,-4.375 -0.115,-0.092 -0.599,-0.359 -0.622,-0.571 -0.023,-0.212 -0.069,-1.064 0,-1.271 0.02,-0.06 0.07,-0.112 0.137,-0.157 0.109,-0.188 0.292,-0.423 0.448,-0.508 0.203,-0.11 1.229,-0.362 1.229,-0.362 0,0 0.753,-0.121 0.905,-0.225 0.153,-0.103 0.521,-0.298 0.521,-0.298 0,0 0.319,-0.105 0.396,-0.074 0.077,0.032 0.28,-0.079 0.28,-0.079 l -0.065,-0.095 c 0,0 -0.252,-0.413 -0.209,-0.554 0.028,-0.089 0.169,-0.23 0.271,-0.326 -0.031,-0.083 -0.06,-0.164 -0.088,-0.241 -0.489,-0.357 -1.789,-1.32 -1.926,-1.589 -0.169,-0.331 -0.206,-0.222 -0.183,-0.433 0.024,-0.211 0.099,-0.345 0.099,-0.345 0,0 -0.374,-0.47 0.127,-0.838 0.361,-0.265 0.733,-0.192 1.015,-0.043 0,-0.037 -0.006,-0.07 0.013,-0.119 0.116,-0.299 0.208,-0.392 0.116,-0.507 -0.093,-0.115 -0.099,-0.276 -0.142,-0.575 -0.043,-0.3 -0.089,-0.783 -0.112,-0.852 -0.023,-0.07 -0.161,-0.185 -0.115,-0.392 0.046,-0.207 -0.009,-1.174 -0.009,-1.174 0,0 -0.198,-1.082 -0.198,-1.221 v -1.266 -0.392 c 0,0 -0.322,-0.575 -0.277,-0.759 0.047,-0.185 0.116,-0.185 0.162,-0.484 0.046,-0.299 -0.023,-0.576 -0.023,-0.576 0,0 -0.217,-0.276 -0.143,-0.391 0.074,-0.115 -0.015,-0.622 -0.015,-0.622 v -0.437 l -0.165,-0.369 c 0,0 0.069,-3.592 0,-3.684 -0.069,-0.092 -0.092,-1.174 -0.138,-1.359 -0.046,-0.184 -0.138,-0.46 -0.138,-0.46 l 0.299,-0.276 h 0.161 c 0,0 -0.161,-0.922 -0.207,-1.06 -0.046,-0.138 -0.644,-1.289 -0.875,-1.543 -0.23,-0.253 -0.322,-0.414 -0.391,-0.713 -0.069,-0.3 0.138,-0.415 0.253,-0.461 0.115,-0.046 1.151,-0.046 1.359,0 0.207,0.046 0.575,0.23 0.621,0.438 0.046,0.207 0.139,0.437 0.139,0.437 0,0 0.46,0.023 0.46,0.092 0,0.069 0.092,0.898 0.069,1.105 -0.023,0.208 -0.253,0.783 -0.253,0.783 l 0.046,0.899 0.553,0.023 c 0,0 -0.093,1.197 -0.046,1.335 0.046,0.138 0.161,1.382 0.184,1.681 0.023,0.299 0.529,2.878 0.529,3.016 0,0.139 0.208,1.221 0.116,1.474 -0.093,0.254 -0.092,0.369 0.023,0.484 0.115,0.115 0.253,0.598 0.299,0.875 0.046,0.276 0.714,3.431 0.783,4.076 0.069,0.644 0.46,2.187 0.46,2.187 0,0 0.161,0 0.484,-0.046 0.322,-0.046 0.161,-0.069 0.322,-0.046 0.161,0.023 0.254,0.046 0.254,0.046 0,0 0.322,-2.257 0.414,-2.533 0.092,-0.276 0.967,-3.891 1.036,-4.122 0.069,-0.23 0.161,-0.644 0.254,-0.898 0.092,-0.253 0,-0.898 0,-0.898 0,0 -0.034,-0.829 0.04,-1.013 0.075,-0.184 0.121,-0.783 0.121,-0.783 l 0.207,-1.612 c 0,0 0.161,-1.888 0.23,-2.164 0.069,-0.277 0.115,-0.921 0.115,-0.921 l 0.415,0.023 v -1.981 -1.174 c 0,0 0.437,-0.737 0.668,-0.817 0.23,-0.081 1.565,-0.058 1.588,0.126 0.023,0.185 0.046,0.599 -0.184,0.898 -0.23,0.3 -0.645,1.244 -0.691,1.451 -0.046,0.207 0.046,0.184 -0.069,0.576 -0.115,0.391 -0.161,0.253 -0.138,0.506 0.023,0.254 0.069,0.622 0.069,0.622 l 0.392,0.115 c 0,0 -0.115,2.648 -0.115,3.086 0,0.437 -0.069,1.681 -0.116,2.072 -0.046,0.391 -0.046,0.737 -0.069,1.036 -0.023,0.3 -0.138,0.069 -0.115,0.576 0.023,0.507 0.092,1.934 0.046,2.072 -0.046,0.138 -0.23,0.576 -0.23,0.691 0,0.115 -0.276,3.063 -0.276,3.27 0,0.207 0.069,0.829 0.069,0.898 0,0.069 0.276,0.76 0.276,0.76 0,0 0.599,-0.645 0.645,-0.944 0.046,-0.3 0,-0.553 0,-0.553 l -0.622,-0.115 c 0,0 -0.092,-0.23 0,-0.276 0.092,-0.046 0.438,-0.023 0.438,-0.023 0,0 -0.231,-0.323 -0.092,-0.277 0.138,0.046 0.437,0 0.552,0.346 0.115,0.345 0.212,0.714 0.244,0.852 0.032,0.138 -0.267,1.013 -0.267,1.243 v 0.415 l 0.27,0.138 v 0.483 L -3.398,-0.7 c 0,0 0.087,0.637 0.171,1.362 l 0.458,-0.312 0.226,0.209 0.59,-0.401 c 0,0 0.041,-0.39 0.238,-0.552 0.196,-0.161 1.143,-0.693 1.143,-0.693 0,0 0.503,-0.285 0.813,0.172 0.311,0.457 0.12,0.586 0.12,0.586 l 0.641,0.205 c 0,0 0.161,0.197 0.041,0.306 C 0.922,0.292 0.768,0.23 0.681,0.428 Z"
             style="fill:#000000;fill-opacity:1;fill-rule:nonzero;stroke:none;stroke-width:0.283465;stroke-dasharray:none"
             id="path1546"
             sodipodi:nodetypes="cscccccscccsccscccccccscccsccccccccccscsscccccccccsccccccccsccccsccccccccccccsccsccccccscssscssccsssccscccscsccccssccscssscscssssccccccccccccccccscccscscccscscccsccccsscscccssccccsscscsccscsccccccccccccscscsccscssssssccccscccssccccccccccccccc" />
        </g>
      </g>
    </g>
  </g>
</svg>
