<?xml version="1.0" standalone="no"?>
<!DOCTYPE svg PUBLIC "-//W3C//DTD SVG 1.1//EN" "http://www.w3.org/Graphics/SVG/1.1/DTD/svg11.dtd">
<svg width="260mm" height="360mm" viewBox="-80 -280 260 360" xmlns="http://www.w3.org/2000/svg" version="1.1">
<title>OpenSCAD Model</title>
<path d="
M 180,-280 L -80,-280 L -80,80 L 180,80 z
M -0.171737,-196.504 L -0.34306,-196.517 L -0.513557,-196.538 L -0.682816,-196.567 L -0.850431,-196.605 L -1.016,-196.651
 L -1.17911,-196.705 L -1.33939,-196.766 L -1.49644,-196.836 L -1.64989,-196.913 L -1.79936,-196.998 L -1.9445,-197.09
 L -2.08495,-197.189 L -2.22038,-197.294 L -2.35046,-197.407 L -2.47487,-197.525 L -2.59333,-197.65 L -2.70554,-197.78
 L -2.81123,-197.915 L -2.91014,-198.056 L -3.00205,-198.201 L -3.08672,-198.35 L -3.16396,-198.504 L -3.23358,-198.661
 L -3.2954,-198.821 L -3.34929,-198.984 L -3.39511,-199.15 L -3.43275,-199.317 L -3.46212,-199.486 L -3.48315,-199.657
 L -3.49578,-199.828 L -3.5,-200 L -3.49578,-200.172 L -3.48315,-200.343 L -3.46212,-200.514 L -3.43275,-200.683
 L -3.39511,-200.85 L -3.34929,-201.016 L -3.2954,-201.179 L -3.23358,-201.339 L -3.16396,-201.496 L -3.08672,-201.65
 L -3.00205,-201.799 L -2.91014,-201.944 L -2.81123,-202.085 L -2.70554,-202.22 L -2.59333,-202.35 L -2.47487,-202.475
 L -2.35046,-202.593 L -2.22038,-202.706 L -2.08495,-202.811 L -1.9445,-202.91 L -1.79936,-203.002 L -1.64989,-203.087
 L -1.49644,-203.164 L -1.33939,-203.234 L -1.17911,-203.295 L -1.016,-203.349 L -0.850431,-203.395 L -0.682816,-203.433
 L -0.513557,-203.462 L -0.34306,-203.483 L -0.171737,-203.496 L 0,-203.5 L 0.171737,-203.496 L 0.34306,-203.483
 L 0.513557,-203.462 L 0.682816,-203.433 L 0.850431,-203.395 L 1.016,-203.349 L 1.17911,-203.295 L 1.33939,-203.234
 L 1.49644,-203.164 L 1.64989,-203.087 L 1.79936,-203.002 L 1.9445,-202.91 L 2.08495,-202.811 L 2.22038,-202.706
 L 2.35046,-202.593 L 2.47487,-202.475 L 2.59333,-202.35 L 2.70554,-202.22 L 2.81123,-202.085 L 2.91014,-201.944
 L 3.00205,-201.799 L 3.08672,-201.65 L 3.16396,-201.496 L 3.23358,-201.339 L 3.2954,-201.179 L 3.34929,-201.016
 L 3.39511,-200.85 L 3.43275,-200.683 L 3.46212,-200.514 L 3.48315,-200.343 L 3.49578,-200.172 L 3.5,-200
 L 3.49578,-199.828 L 3.48315,-199.657 L 3.46212,-199.486 L 3.43275,-199.317 L 3.39511,-199.15 L 3.34929,-198.984
 L 3.2954,-198.821 L 3.23358,-198.661 L 3.16396,-198.504 L 3.08672,-198.35 L 3.00205,-198.201 L 2.91014,-198.056
 L 2.81123,-197.915 L 2.70554,-197.78 L 2.59333,-197.65 L 2.47487,-197.525 L 2.35046,-197.407 L 2.22038,-197.294
 L 2.08495,-197.189 L 1.9445,-197.09 L 1.79936,-196.998 L 1.64989,-196.913 L 1.49644,-196.836 L 1.33939,-196.766
 L 1.17911,-196.705 L 1.016,-196.651 L 0.850431,-196.605 L 0.682816,-196.567 L 0.513557,-196.538 L 0.34306,-196.517
 L 0.171737,-196.504 L 0,-196.5 z
M 99.8283,-196.504 L 99.6569,-196.517 L 99.4864,-196.538 L 99.3172,-196.567 L 99.1496,-196.605 L 98.984,-196.651
 L 98.8209,-196.705 L 98.6606,-196.766 L 98.5036,-196.836 L 98.3501,-196.913 L 98.2006,-196.998 L 98.0555,-197.09
 L 97.9151,-197.189 L 97.7796,-197.294 L 97.6495,-197.407 L 97.5251,-197.525 L 97.4067,-197.65 L 97.2945,-197.78
 L 97.1888,-197.915 L 97.0899,-198.056 L 96.9979,-198.201 L 96.9133,-198.35 L 96.836,-198.504 L 96.7664,-198.661
 L 96.7046,-198.821 L 96.6507,-198.984 L 96.6049,-199.15 L 96.5673,-199.317 L 96.5379,-199.486 L 96.5169,-199.657
 L 96.5042,-199.828 L 96.5,-200 L 96.5042,-200.172 L 96.5169,-200.343 L 96.5379,-200.514 L 96.5673,-200.683
 L 96.6049,-200.85 L 96.6507,-201.016 L 96.7046,-201.179 L 96.7664,-201.339 L 96.836,-201.496 L 96.9133,-201.65
 L 96.9979,-201.799 L 97.0899,-201.944 L 97.1888,-202.085 L 97.2945,-202.22 L 97.4067,-202.35 L 97.5251,-202.475
 L 97.6495,-202.593 L 97.7796,-202.706 L 97.9151,-202.811 L 98.0555,-202.91 L 98.2006,-203.002 L 98.3501,-203.087
 L 98.5036,-203.164 L 98.6606,-203.234 L 98.8209,-203.295 L 98.984,-203.349 L 99.1496,-203.395 L 99.3172,-203.433
 L 99.4864,-203.462 L 99.6569,-203.483 L 99.8283,-203.496 L 100,-203.5 L 100.172,-203.496 L 100.343,-203.483
 L 100.514,-203.462 L 100.683,-203.433 L 100.85,-203.395 L 101.016,-203.349 L 101.179,-203.295 L 101.339,-203.234
 L 101.496,-203.164 L 101.65,-203.087 L 101.799,-203.002 L 101.944,-202.91 L 102.085,-202.811 L 102.22,-202.706
 L 102.35,-202.593 L 102.475,-202.475 L 102.593,-202.35 L 102.706,-202.22 L 102.811,-202.085 L 102.91,-201.944
 L 103.002,-201.799 L 103.087,-201.65 L 103.164,-201.496 L 103.234,-201.339 L 103.295,-201.179 L 103.349,-201.016
 L 103.395,-200.85 L 103.433,-200.683 L 103.462,-200.514 L 103.483,-200.343 L 103.496,-200.172 L 103.5,-200
 L 103.496,-199.828 L 103.483,-199.657 L 103.462,-199.486 L 103.433,-199.317 L 103.395,-199.15 L 103.349,-198.984
 L 103.295,-198.821 L 103.234,-198.661 L 103.164,-198.504 L 103.087,-198.35 L 103.002,-198.201 L 102.91,-198.056
 L 102.811,-197.915 L 102.706,-197.78 L 102.593,-197.65 L 102.475,-197.525 L 102.35,-197.407 L 102.22,-197.294
 L 102.085,-197.189 L 101.944,-197.09 L 101.799,-196.998 L 101.65,-196.913 L 101.496,-196.836 L 101.339,-196.766
 L 101.179,-196.705 L 101.016,-196.651 L 100.85,-196.605 L 100.683,-196.567 L 100.514,-196.538 L 100.343,-196.517
 L 100.172,-196.504 L 100,-196.5 z
M -0.171737,-96.5042 L -0.34306,-96.5169 L -0.513557,-96.5379 L -0.682816,-96.5673 L -0.850431,-96.6049 L -1.016,-96.6507
 L -1.17911,-96.7046 L -1.33939,-96.7664 L -1.49644,-96.836 L -1.64989,-96.9133 L -1.79936,-96.9979 L -1.9445,-97.0899
 L -2.08495,-97.1888 L -2.22038,-97.2945 L -2.35046,-97.4067 L -2.47487,-97.5251 L -2.59333,-97.6495 L -2.70554,-97.7796
 L -2.81123,-97.9151 L -2.91014,-98.0555 L -3.00205,-98.2006 L -3.08672,-98.3501 L -3.16396,-98.5036 L -3.23358,-98.6606
 L -3.2954,-98.8209 L -3.34929,-98.984 L -3.39511,-99.1496 L -3.43275,-99.3172 L -3.46212,-99.4864 L -3.48315,-99.6569
 L -3.49578,-99.8283 L -3.5,-100 L -3.49578,-100.172 L -3.48315,-100.343 L -3.46212,-100.514 L -3.43275,-100.683
 L -3.39511,-100.85 L -3.34929,-101.016 L -3.2954,-101.179 L -3.23358,-101.339 L -3.16396,-101.496 L -3.08672,-101.65
 L -3.00205,-101.799 L -2.91014,-101.944 L -2.81123,-102.085 L -2.70554,-102.22 L -2.59333,-102.35 L -2.47487,-102.475
 L -2.35046,-102.593 L -2.22038,-102.706 L -2.08495,-102.811 L -1.9445,-102.91 L -1.79936,-103.002 L -1.64989,-103.087
 L -1.49644,-103.164 L -1.33939,-103.234 L -1.17911,-103.295 L -1.016,-103.349 L -0.850431,-103.395 L -0.682816,-103.433
 L -0.513557,-103.462 L -0.34306,-103.483 L -0.171737,-103.496 L 0,-103.5 L 0.171737,-103.496 L 0.34306,-103.483
 L 0.513557,-103.462 L 0.682816,-103.433 L 0.850431,-103.395 L 1.016,-103.349 L 1.17911,-103.295 L 1.33939,-103.234
 L 1.49644,-103.164 L 1.64989,-103.087 L 1.79936,-103.002 L 1.9445,-102.91 L 2.08495,-102.811 L 2.22038,-102.706
 L 2.35046,-102.593 L 2.47487,-102.475 L 2.59333,-102.35 L 2.70554,-102.22 L 2.81123,-102.085 L 2.91014,-101.944
 L 3.00205,-101.799 L 3.08672,-101.65 L 3.16396,-101.496 L 3.23358,-101.339 L 3.2954,-101.179 L 3.34929,-101.016
 L 3.39511,-100.85 L 3.43275,-100.683 L 3.46212,-100.514 L 3.48315,-100.343 L 3.49578,-100.172 L 3.5,-100
 L 3.49578,-99.8283 L 3.48315,-99.6569 L 3.46212,-99.4864 L 3.43275,-99.3172 L 3.39511,-99.1496 L 3.34929,-98.984
 L 3.2954,-98.8209 L 3.23358,-98.6606 L 3.16396,-98.5036 L 3.08672,-98.3501 L 3.00205,-98.2006 L 2.91014,-98.0555
 L 2.81123,-97.9151 L 2.70554,-97.7796 L 2.59333,-97.6495 L 2.47487,-97.5251 L 2.35046,-97.4067 L 2.22038,-97.2945
 L 2.08495,-97.1888 L 1.9445,-97.0899 L 1.79936,-96.9979 L 1.64989,-96.9133 L 1.49644,-96.836 L 1.33939,-96.7664
 L 1.17911,-96.7046 L 1.016,-96.6507 L 0.850431,-96.6049 L 0.682816,-96.5673 L 0.513557,-96.5379 L 0.34306,-96.5169
 L 0.171737,-96.5042 L 0,-96.5 z
M 99.8283,-96.5042 L 99.6569,-96.5169 L 99.4864,-96.5379 L 99.3172,-96.5673 L 99.1496,-96.6049 L 98.984,-96.6507
 L 98.8209,-96.7046 L 98.6606,-96.7664 L 98.5036,-96.836 L 98.3501,-96.9133 L 98.2006,-96.9979 L 98.0555,-97.0899
 L 97.9151,-97.1888 L 97.7796,-97.2945 L 97.6495,-97.4067 L 97.5251,-97.5251 L 97.4067,-97.6495 L 97.2945,-97.7796
 L 97.1888,-97.9151 L 97.0899,-98.0555 L 96.9979,-98.2006 L 96.9133,-98.3501 L 96.836,-98.5036 L 96.7664,-98.6606
 L 96.7046,-98.8209 L 96.6507,-98.984 L 96.6049,-99.1496 L 96.5673,-99.3172 L 96.5379,-99.4864 L 96.5169,-99.6569
 L 96.5042,-99.8283 L 96.5,-100 L 96.5042,-100.172 L 96.5169,-100.343 L 96.5379,-100.514 L 96.5673,-100.683
 L 96.6049,-100.85 L 96.6507,-101.016 L 96.7046,-101.179 L 96.7664,-101.339 L 96.836,-101.496 L 96.9133,-101.65
 L 96.9979,-101.799 L 97.0899,-101.944 L 97.1888,-102.085 L 97.2945,-102.22 L 97.4067,-102.35 L 97.5251,-102.475
 L 97.6495,-102.593 L 97.7796,-102.706 L 97.9151,-102.811 L 98.0555,-102.91 L 98.2006,-103.002 L 98.3501,-103.087
 L 98.5036,-103.164 L 98.6606,-103.234 L 98.8209,-103.295 L 98.984,-103.349 L 99.1496,-103.395 L 99.3172,-103.433
 L 99.4864,-103.462 L 99.6569,-103.483 L 99.8283,-103.496 L 100,-103.5 L 100.172,-103.496 L 100.343,-103.483
 L 100.514,-103.462 L 100.683,-103.433 L 100.85,-103.395 L 101.016,-103.349 L 101.179,-103.295 L 101.339,-103.234
 L 101.496,-103.164 L 101.65,-103.087 L 101.799,-103.002 L 101.944,-102.91 L 102.085,-102.811 L 102.22,-102.706
 L 102.35,-102.593 L 102.475,-102.475 L 102.593,-102.35 L 102.706,-102.22 L 102.811,-102.085 L 102.91,-101.944
 L 103.002,-101.799 L 103.087,-101.65 L 103.164,-101.496 L 103.234,-101.339 L 103.295,-101.179 L 103.349,-101.016
 L 103.395,-100.85 L 103.433,-100.683 L 103.462,-100.514 L 103.483,-100.343 L 103.496,-100.172 L 103.5,-100
 L 103.496,-99.8283 L 103.483,-99.6569 L 103.462,-99.4864 L 103.433,-99.3172 L 103.395,-99.1496 L 103.349,-98.984
 L 103.295,-98.8209 L 103.234,-98.6606 L 103.164,-98.5036 L 103.087,-98.3501 L 103.002,-98.2006 L 102.91,-98.0555
 L 102.811,-97.9151 L 102.706,-97.7796 L 102.593,-97.6495 L 102.475,-97.5251 L 102.35,-97.4067 L 102.22,-97.2945
 L 102.085,-97.1888 L 101.944,-97.0899 L 101.799,-96.9979 L 101.65,-96.9133 L 101.496,-96.836 L 101.339,-96.7664
 L 101.179,-96.7046 L 101.016,-96.6507 L 100.85,-96.6049 L 100.683,-96.5673 L 100.514,-96.5379 L 100.343,-96.5169
 L 100.172,-96.5042 L 100,-96.5 z
M -0.171737,3.49578 L -0.34306,3.48315 L -0.513557,3.46212 L -0.682816,3.43275 L -0.850431,3.39511 L -1.016,3.34929
 L -1.17911,3.2954 L -1.33939,3.23358 L -1.49644,3.16396 L -1.64989,3.08672 L -1.79936,3.00205 L -1.9445,2.91014
 L -2.08495,2.81123 L -2.22038,2.70554 L -2.35046,2.59333 L -2.47487,2.47487 L -2.59333,2.35046 L -2.70554,2.22038
 L -2.81123,2.08495 L -2.91014,1.9445 L -3.00205,1.79936 L -3.08672,1.64989 L -3.16396,1.49644 L -3.23358,1.33939
 L -3.2954,1.17911 L -3.34929,1.016 L -3.39511,0.850431 L -3.43275,0.682816 L -3.46212,0.513557 L -3.48315,0.34306
 L -3.49578,0.171737 L -3.5,-0 L -3.49578,-0.171737 L -3.48315,-0.34306 L -3.46212,-0.513557 L -3.43275,-0.682816
 L -3.39511,-0.850431 L -3.34929,-1.016 L -3.2954,-1.17911 L -3.23358,-1.33939 L -3.16396,-1.49644 L -3.08672,-1.64989
 L -3.00205,-1.79936 L -2.91014,-1.9445 L -2.81123,-2.08495 L -2.70554,-2.22038 L -2.59333,-2.35046 L -2.47487,-2.47487
 L -2.35046,-2.59333 L -2.22038,-2.70554 L -2.08495,-2.81123 L -1.9445,-2.91014 L -1.79936,-3.00205 L -1.64989,-3.08672
 L -1.49644,-3.16396 L -1.33939,-3.23358 L -1.17911,-3.2954 L -1.016,-3.34929 L -0.850431,-3.39511 L -0.682816,-3.43275
 L -0.513557,-3.46212 L -0.34306,-3.48315 L -0.171737,-3.49578 L 0,-3.5 L 0.171737,-3.49578 L 0.34306,-3.48315
 L 0.513557,-3.46212 L 0.682816,-3.43275 L 0.850431,-3.39511 L 1.016,-3.34929 L 1.17911,-3.2954 L 1.33939,-3.23358
 L 1.49644,-3.16396 L 1.64989,-3.08672 L 1.79936,-3.00205 L 1.9445,-2.91014 L 2.08495,-2.81123 L 2.22038,-2.70554
 L 2.35046,-2.59333 L 2.47487,-2.47487 L 2.59333,-2.35046 L 2.70554,-2.22038 L 2.81123,-2.08495 L 2.91014,-1.9445
 L 3.00205,-1.79936 L 3.08672,-1.64989 L 3.16396,-1.49644 L 3.23358,-1.33939 L 3.2954,-1.17911 L 3.34929,-1.016
 L 3.39511,-0.850431 L 3.43275,-0.682816 L 3.46212,-0.513557 L 3.48315,-0.34306 L 3.49578,-0.171737 L 3.5,-0
 L 3.49578,0.171737 L 3.48315,0.34306 L 3.46212,0.513557 L 3.43275,0.682816 L 3.39511,0.850431 L 3.34929,1.016
 L 3.2954,1.17911 L 3.23358,1.33939 L 3.16396,1.49644 L 3.08672,1.64989 L 3.00205,1.79936 L 2.91014,1.9445
 L 2.81123,2.08495 L 2.70554,2.22038 L 2.59333,2.35046 L 2.47487,2.47487 L 2.35046,2.59333 L 2.22038,2.70554
 L 2.08495,2.81123 L 1.9445,2.91014 L 1.79936,3.00205 L 1.64989,3.08672 L 1.49644,3.16396 L 1.33939,3.23358
 L 1.17911,3.2954 L 1.016,3.34929 L 0.850431,3.39511 L 0.682816,3.43275 L 0.513557,3.46212 L 0.34306,3.48315
 L 0.171737,3.49578 L 0,3.5 z
M 99.8283,3.49578 L 99.6569,3.48315 L 99.4864,3.46212 L 99.3172,3.43275 L 99.1496,3.39511 L 98.984,3.34929
 L 98.8209,3.2954 L 98.6606,3.23358 L 98.5036,3.16396 L 98.3501,3.08672 L 98.2006,3.00205 L 98.0555,2.91014
 L 97.9151,2.81123 L 97.7796,2.70554 L 97.6495,2.59333 L 97.5251,2.47487 L 97.4067,2.35046 L 97.2945,2.22038
 L 97.1888,2.08495 L 97.0899,1.9445 L 96.9979,1.79936 L 96.9133,1.64989 L 96.836,1.49644 L 96.7664,1.33939
 L 96.7046,1.17911 L 96.6507,1.016 L 96.6049,0.850431 L 96.5673,0.682816 L 96.5379,0.513557 L 96.5169,0.34306
 L 96.5042,0.171737 L 96.5,-0 L 96.5042,-0.171737 L 96.5169,-0.34306 L 96.5379,-0.513557 L 96.5673,-0.682816
 L 96.6049,-0.850431 L 96.6507,-1.016 L 96.7046,-1.17911 L 96.7664,-1.33939 L 96.836,-1.49644 L 96.9133,-1.64989
 L 96.9979,-1.79936 L 97.0899,-1.9445 L 97.1888,-2.08495 L 97.2945,-2.22038 L 97.4067,-2.35046 L 97.5251,-2.47487
 L 97.6495,-2.59333 L 97.7796,-2.70554 L 97.9151,-2.81123 L 98.0555,-2.91014 L 98.2006,-3.00205 L 98.3501,-3.08672
 L 98.5036,-3.16396 L 98.6606,-3.23358 L 98.8209,-3.2954 L 98.984,-3.34929 L 99.1496,-3.39511 L 99.3172,-3.43275
 L 99.4864,-3.46212 L 99.6569,-3.48315 L 99.8283,-3.49578 L 100,-3.5 L 100.172,-3.49578 L 100.343,-3.48315
 L 100.514,-3.46212 L 100.683,-3.43275 L 100.85,-3.39511 L 101.016,-3.34929 L 101.179,-3.2954 L 101.339,-3.23358
 L 101.496,-3.16396 L 101.65,-3.08672 L 101.799,-3.00205 L 101.944,-2.91014 L 102.085,-2.81123 L 102.22,-2.70554
 L 102.35,-2.59333 L 102.475,-2.47487 L 102.593,-2.35046 L 102.706,-2.22038 L 102.811,-2.08495 L 102.91,-1.9445
 L 103.002,-1.79936 L 103.087,-1.64989 L 103.164,-1.49644 L 103.234,-1.33939 L 103.295,-1.17911 L 103.349,-1.016
 L 103.395,-0.850431 L 103.433,-0.682816 L 103.462,-0.513557 L 103.483,-0.34306 L 103.496,-0.171737 L 103.5,-0
 L 103.496,0.171737 L 103.483,0.34306 L 103.462,0.513557 L 103.433,0.682816 L 103.395,0.850431 L 103.349,1.016
 L 103.295,1.17911 L 103.234,1.33939 L 103.164,1.49644 L 103.087,1.64989 L 103.002,1.79936 L 102.91,1.9445
 L 102.811,2.08495 L 102.706,2.22038 L 102.593,2.35046 L 102.475,2.47487 L 102.35,2.59333 L 102.22,2.70554
 L 102.085,2.81123 L 101.944,2.91014 L 101.799,3.00205 L 101.65,3.08672 L 101.496,3.16396 L 101.339,3.23358
 L 101.179,3.2954 L 101.016,3.34929 L 100.85,3.39511 L 100.683,3.43275 L 100.514,3.46212 L 100.343,3.48315
 L 100.172,3.49578 L 100,3.5 z
" stroke="black" fill="lightgray" stroke-width="0.5"/>
</svg>
