<?xml version="1.0" standalone="no"?>
<!DOCTYPE svg PUBLIC "-//W3C//DTD SVG 1.1//EN" "http://www.w3.org/Graphics/SVG/1.1/DTD/svg11.dtd">
<svg width="902mm" height="402mm" viewBox="-101 -301 902 402" xmlns="http://www.w3.org/2000/svg" version="1.1">
<title>OpenSCAD Model</title>
<path d="
M 800,-300 L -100,-300 L -100,100 L 337.5,100 L 337.5,40 L 337.504,39.8528
 L 337.514,39.7059 L 337.532,39.5598 L 337.558,39.4147 L 337.59,39.2711 L 337.629,39.1291 L 337.675,38.9893
 L 337.728,38.8519 L 337.788,38.7173 L 337.854,38.5858 L 337.927,38.4577 L 338.006,38.3333 L 338.09,38.2129
 L 338.181,38.0968 L 338.277,37.9853 L 338.379,37.8787 L 338.485,37.7771 L 338.597,37.681 L 338.713,37.5904
 L 338.833,37.5056 L 338.958,37.4268 L 339.086,37.3542 L 339.217,37.288 L 339.352,37.2284 L 339.489,37.1754
 L 339.629,37.1292 L 339.771,37.0899 L 339.915,37.0576 L 340.06,37.0325 L 340.206,37.0144 L 340.353,37.0036
 L 340.5,37 L 359.5,37 L 359.647,37.0036 L 359.794,37.0144 L 359.94,37.0325 L 360.085,37.0576
 L 360.229,37.0899 L 360.371,37.1292 L 360.511,37.1754 L 360.648,37.2284 L 360.783,37.288 L 360.914,37.3542
 L 361.042,37.4268 L 361.167,37.5056 L 361.287,37.5904 L 361.403,37.681 L 361.515,37.7771 L 361.621,37.8787
 L 361.723,37.9853 L 361.819,38.0968 L 361.91,38.2129 L 361.994,38.3333 L 362.073,38.4577 L 362.146,38.5858
 L 362.212,38.7173 L 362.272,38.8519 L 362.325,38.9893 L 362.371,39.1291 L 362.41,39.2711 L 362.442,39.4147
 L 362.468,39.5598 L 362.486,39.7059 L 362.496,39.8528 L 362.5,40 L 362.5,100 L 800,100
 z
M -62.603,-260.403 L -62.7058,-260.41 L -62.8081,-260.423 L -62.9097,-260.44 L -63.0103,-260.463 L -63.1096,-260.49
 L -63.2075,-260.523 L -63.3036,-260.56 L -63.3979,-260.602 L -63.4899,-260.648 L -63.5796,-260.699 L -63.6667,-260.754
 L -63.751,-260.813 L -63.8322,-260.877 L -63.9103,-260.944 L -63.9849,-261.015 L -64.056,-261.09 L -64.1233,-261.168
 L -64.1867,-261.249 L -64.2461,-261.333 L -64.3012,-261.42 L -64.352,-261.51 L -64.3984,-261.602 L -64.4401,-261.696
 L -64.4772,-261.793 L -64.5096,-261.89 L -64.5371,-261.99 L -64.5596,-262.09 L -64.5773,-262.192 L -64.5899,-262.294
 L -64.5975,-262.397 L -64.6,-262.5 L -64.5975,-262.603 L -64.5899,-262.706 L -64.5773,-262.808 L -64.5596,-262.91
 L -64.5371,-263.01 L -64.5096,-263.11 L -64.4772,-263.207 L -64.4401,-263.304 L -64.3984,-263.398 L -64.352,-263.49
 L -64.3012,-263.58 L -64.2461,-263.667 L -64.1867,-263.751 L -64.1233,-263.832 L -64.056,-263.91 L -63.9849,-263.985
 L -63.9103,-264.056 L -63.8322,-264.123 L -63.751,-264.187 L -63.6667,-264.246 L -63.5796,-264.301 L -63.4899,-264.352
 L -63.3979,-264.398 L -63.3036,-264.44 L -63.2075,-264.477 L -63.1096,-264.51 L -63.0103,-264.537 L -62.9097,-264.56
 L -62.8081,-264.577 L -62.7058,-264.59 L -62.603,-264.597 L -62.5,-264.6 L -62.397,-264.597 L -62.2942,-264.59
 L -62.1919,-264.577 L -62.0903,-264.56 L -61.9897,-264.537 L -61.8904,-264.51 L -61.7925,-264.477 L -61.6964,-264.44
 L -61.6021,-264.398 L -61.5101,-264.352 L -61.4204,-264.301 L -61.3333,-264.246 L -61.249,-264.187 L -61.1678,-264.123
 L -61.0897,-264.056 L -61.0151,-263.985 L -60.944,-263.91 L -60.8767,-263.832 L -60.8133,-263.751 L -60.7539,-263.667
 L -60.6988,-263.58 L -60.648,-263.49 L -60.6016,-263.398 L -60.5599,-263.304 L -60.5228,-263.207 L -60.4904,-263.11
 L -60.4629,-263.01 L -60.4404,-262.91 L -60.4227,-262.808 L -60.4101,-262.706 L -60.4025,-262.603 L -60.4,-262.5
 L -60.4025,-262.397 L -60.4101,-262.294 L -60.4227,-262.192 L -60.4404,-262.09 L -60.4629,-261.99 L -60.4904,-261.89
 L -60.5228,-261.793 L -60.5599,-261.696 L -60.6016,-261.602 L -60.648,-261.51 L -60.6988,-261.42 L -60.7539,-261.333
 L -60.8133,-261.249 L -60.8767,-261.168 L -60.944,-261.09 L -61.0151,-261.015 L -61.0897,-260.944 L -61.1678,-260.877
 L -61.249,-260.813 L -61.3333,-260.754 L -61.4204,-260.699 L -61.5101,-260.648 L -61.6021,-260.602 L -61.6964,-260.56
 L -61.7925,-260.523 L -61.8904,-260.49 L -61.9897,-260.463 L -62.0903,-260.44 L -62.1919,-260.423 L -62.2942,-260.41
 L -62.397,-260.403 L -62.5,-260.4 z
M 49.897,-260.403 L 49.7942,-260.41 L 49.6919,-260.423 L 49.5903,-260.44 L 49.4897,-260.463 L 49.3904,-260.49
 L 49.2925,-260.523 L 49.1964,-260.56 L 49.1021,-260.602 L 49.0101,-260.648 L 48.9204,-260.699 L 48.8333,-260.754
 L 48.749,-260.813 L 48.6678,-260.877 L 48.5897,-260.944 L 48.5151,-261.015 L 48.444,-261.09 L 48.3767,-261.168
 L 48.3133,-261.249 L 48.2539,-261.333 L 48.1988,-261.42 L 48.148,-261.51 L 48.1016,-261.602 L 48.0599,-261.696
 L 48.0228,-261.793 L 47.9904,-261.89 L 47.9629,-261.99 L 47.9404,-262.09 L 47.9227,-262.192 L 47.9101,-262.294
 L 47.9025,-262.397 L 47.9,-262.5 L 47.9025,-262.603 L 47.9101,-262.706 L 47.9227,-262.808 L 47.9404,-262.91
 L 47.9629,-263.01 L 47.9904,-263.11 L 48.0228,-263.207 L 48.0599,-263.304 L 48.1016,-263.398 L 48.148,-263.49
 L 48.1988,-263.58 L 48.2539,-263.667 L 48.3133,-263.751 L 48.3767,-263.832 L 48.444,-263.91 L 48.5151,-263.985
 L 48.5897,-264.056 L 48.6678,-264.123 L 48.749,-264.187 L 48.8333,-264.246 L 48.9204,-264.301 L 49.0101,-264.352
 L 49.1021,-264.398 L 49.1964,-264.44 L 49.2925,-264.477 L 49.3904,-264.51 L 49.4897,-264.537 L 49.5903,-264.56
 L 49.6919,-264.577 L 49.7942,-264.59 L 49.897,-264.597 L 50,-264.6 L 50.103,-264.597 L 50.2058,-264.59
 L 50.3081,-264.577 L 50.4097,-264.56 L 50.5103,-264.537 L 50.6096,-264.51 L 50.7075,-264.477 L 50.8036,-264.44
 L 50.8979,-264.398 L 50.9899,-264.352 L 51.0796,-264.301 L 51.1667,-264.246 L 51.251,-264.187 L 51.3322,-264.123
 L 51.4103,-264.056 L 51.4849,-263.985 L 51.556,-263.91 L 51.6233,-263.832 L 51.6867,-263.751 L 51.7461,-263.667
 L 51.8012,-263.58 L 51.852,-263.49 L 51.8984,-263.398 L 51.9401,-263.304 L 51.9772,-263.207 L 52.0096,-263.11
 L 52.0371,-263.01 L 52.0596,-262.91 L 52.0773,-262.808 L 52.0899,-262.706 L 52.0975,-262.603 L 52.1,-262.5
 L 52.0975,-262.397 L 52.0899,-262.294 L 52.0773,-262.192 L 52.0596,-262.09 L 52.0371,-261.99 L 52.0096,-261.89
 L 51.9772,-261.793 L 51.9401,-261.696 L 51.8984,-261.602 L 51.852,-261.51 L 51.8012,-261.42 L 51.7461,-261.333
 L 51.6867,-261.249 L 51.6233,-261.168 L 51.556,-261.09 L 51.4849,-261.015 L 51.4103,-260.944 L 51.3322,-260.877
 L 51.251,-260.813 L 51.1667,-260.754 L 51.0796,-260.699 L 50.9899,-260.648 L 50.8979,-260.602 L 50.8036,-260.56
 L 50.7075,-260.523 L 50.6096,-260.49 L 50.5103,-260.463 L 50.4097,-260.44 L 50.3081,-260.423 L 50.2058,-260.41
 L 50.103,-260.403 L 50,-260.4 z
M 149.897,-260.403 L 149.794,-260.41 L 149.692,-260.423 L 149.59,-260.44 L 149.49,-260.463 L 149.39,-260.49
 L 149.293,-260.523 L 149.196,-260.56 L 149.102,-260.602 L 149.01,-260.648 L 148.92,-260.699 L 148.833,-260.754
 L 148.749,-260.813 L 148.668,-260.877 L 148.59,-260.944 L 148.515,-261.015 L 148.444,-261.09 L 148.377,-261.168
 L 148.313,-261.249 L 148.254,-261.333 L 148.199,-261.42 L 148.148,-261.51 L 148.102,-261.602 L 148.06,-261.696
 L 148.023,-261.793 L 147.99,-261.89 L 147.963,-261.99 L 147.94,-262.09 L 147.923,-262.192 L 147.91,-262.294
 L 147.903,-262.397 L 147.9,-262.5 L 147.903,-262.603 L 147.91,-262.706 L 147.923,-262.808 L 147.94,-262.91
 L 147.963,-263.01 L 147.99,-263.11 L 148.023,-263.207 L 148.06,-263.304 L 148.102,-263.398 L 148.148,-263.49
 L 148.199,-263.58 L 148.254,-263.667 L 148.313,-263.751 L 148.377,-263.832 L 148.444,-263.91 L 148.515,-263.985
 L 148.59,-264.056 L 148.668,-264.123 L 148.749,-264.187 L 148.833,-264.246 L 148.92,-264.301 L 149.01,-264.352
 L 149.102,-264.398 L 149.196,-264.44 L 149.293,-264.477 L 149.39,-264.51 L 149.49,-264.537 L 149.59,-264.56
 L 149.692,-264.577 L 149.794,-264.59 L 149.897,-264.597 L 150,-264.6 L 150.103,-264.597 L 150.206,-264.59
 L 150.308,-264.577 L 150.41,-264.56 L 150.51,-264.537 L 150.61,-264.51 L 150.707,-264.477 L 150.804,-264.44
 L 150.898,-264.398 L 150.99,-264.352 L 151.08,-264.301 L 151.167,-264.246 L 151.251,-264.187 L 151.332,-264.123
 L 151.41,-264.056 L 151.485,-263.985 L 151.556,-263.91 L 151.623,-263.832 L 151.687,-263.751 L 151.746,-263.667
 L 151.801,-263.58 L 151.852,-263.49 L 151.898,-263.398 L 151.94,-263.304 L 151.977,-263.207 L 152.01,-263.11
 L 152.037,-263.01 L 152.06,-262.91 L 152.077,-262.808 L 152.09,-262.706 L 152.097,-262.603 L 152.1,-262.5
 L 152.097,-262.397 L 152.09,-262.294 L 152.077,-262.192 L 152.06,-262.09 L 152.037,-261.99 L 152.01,-261.89
 L 151.977,-261.793 L 151.94,-261.696 L 151.898,-261.602 L 151.852,-261.51 L 151.801,-261.42 L 151.746,-261.333
 L 151.687,-261.249 L 151.623,-261.168 L 151.556,-261.09 L 151.485,-261.015 L 151.41,-260.944 L 151.332,-260.877
 L 151.251,-260.813 L 151.167,-260.754 L 151.08,-260.699 L 150.99,-260.648 L 150.898,-260.602 L 150.804,-260.56
 L 150.707,-260.523 L 150.61,-260.49 L 150.51,-260.463 L 150.41,-260.44 L 150.308,-260.423 L 150.206,-260.41
 L 150.103,-260.403 L 150,-260.4 z
M 249.897,-260.403 L 249.794,-260.41 L 249.692,-260.423 L 249.59,-260.44 L 249.49,-260.463 L 249.39,-260.49
 L 249.293,-260.523 L 249.196,-260.56 L 249.102,-260.602 L 249.01,-260.648 L 248.92,-260.699 L 248.833,-260.754
 L 248.749,-260.813 L 248.668,-260.877 L 248.59,-260.944 L 248.515,-261.015 L 248.444,-261.09 L 248.377,-261.168
 L 248.313,-261.249 L 248.254,-261.333 L 248.199,-261.42 L 248.148,-261.51 L 248.102,-261.602 L 248.06,-261.696
 L 248.023,-261.793 L 247.99,-261.89 L 247.963,-261.99 L 247.94,-262.09 L 247.923,-262.192 L 247.91,-262.294
 L 247.903,-262.397 L 247.9,-262.5 L 247.903,-262.603 L 247.91,-262.706 L 247.923,-262.808 L 247.94,-262.91
 L 247.963,-263.01 L 247.99,-263.11 L 248.023,-263.207 L 248.06,-263.304 L 248.102,-263.398 L 248.148,-263.49
 L 248.199,-263.58 L 248.254,-263.667 L 248.313,-263.751 L 248.377,-263.832 L 248.444,-263.91 L 248.515,-263.985
 L 248.59,-264.056 L 248.668,-264.123 L 248.749,-264.187 L 248.833,-264.246 L 248.92,-264.301 L 249.01,-264.352
 L 249.102,-264.398 L 249.196,-264.44 L 249.293,-264.477 L 249.39,-264.51 L 249.49,-264.537 L 249.59,-264.56
 L 249.692,-264.577 L 249.794,-264.59 L 249.897,-264.597 L 250,-264.6 L 250.103,-264.597 L 250.206,-264.59
 L 250.308,-264.577 L 250.41,-264.56 L 250.51,-264.537 L 250.61,-264.51 L 250.707,-264.477 L 250.804,-264.44
 L 250.898,-264.398 L 250.99,-264.352 L 251.08,-264.301 L 251.167,-264.246 L 251.251,-264.187 L 251.332,-264.123
 L 251.41,-264.056 L 251.485,-263.985 L 251.556,-263.91 L 251.623,-263.832 L 251.687,-263.751 L 251.746,-263.667
 L 251.801,-263.58 L 251.852,-263.49 L 251.898,-263.398 L 251.94,-263.304 L 251.977,-263.207 L 252.01,-263.11
 L 252.037,-263.01 L 252.06,-262.91 L 252.077,-262.808 L 252.09,-262.706 L 252.097,-262.603 L 252.1,-262.5
 L 252.097,-262.397 L 252.09,-262.294 L 252.077,-262.192 L 252.06,-262.09 L 252.037,-261.99 L 252.01,-261.89
 L 251.977,-261.793 L 251.94,-261.696 L 251.898,-261.602 L 251.852,-261.51 L 251.801,-261.42 L 251.746,-261.333
 L 251.687,-261.249 L 251.623,-261.168 L 251.556,-261.09 L 251.485,-261.015 L 251.41,-260.944 L 251.332,-260.877
 L 251.251,-260.813 L 251.167,-260.754 L 251.08,-260.699 L 250.99,-260.648 L 250.898,-260.602 L 250.804,-260.56
 L 250.707,-260.523 L 250.61,-260.49 L 250.51,-260.463 L 250.41,-260.44 L 250.308,-260.423 L 250.206,-260.41
 L 250.103,-260.403 L 250,-260.4 z
M 349.897,-260.403 L 349.794,-260.41 L 349.692,-260.423 L 349.59,-260.44 L 349.49,-260.463 L 349.39,-260.49
 L 349.293,-260.523 L 349.196,-260.56 L 349.102,-260.602 L 349.01,-260.648 L 348.92,-260.699 L 348.833,-260.754
 L 348.749,-260.813 L 348.668,-260.877 L 348.59,-260.944 L 348.515,-261.015 L 348.444,-261.09 L 348.377,-261.168
 L 348.313,-261.249 L 348.254,-261.333 L 348.199,-261.42 L 348.148,-261.51 L 348.102,-261.602 L 348.06,-261.696
 L 348.023,-261.793 L 347.99,-261.89 L 347.963,-261.99 L 347.94,-262.09 L 347.923,-262.192 L 347.91,-262.294
 L 347.903,-262.397 L 347.9,-262.5 L 347.903,-262.603 L 347.91,-262.706 L 347.923,-262.808 L 347.94,-262.91
 L 347.963,-263.01 L 347.99,-263.11 L 348.023,-263.207 L 348.06,-263.304 L 348.102,-263.398 L 348.148,-263.49
 L 348.199,-263.58 L 348.254,-263.667 L 348.313,-263.751 L 348.377,-263.832 L 348.444,-263.91 L 348.515,-263.985
 L 348.59,-264.056 L 348.668,-264.123 L 348.749,-264.187 L 348.833,-264.246 L 348.92,-264.301 L 349.01,-264.352
 L 349.102,-264.398 L 349.196,-264.44 L 349.293,-264.477 L 349.39,-264.51 L 349.49,-264.537 L 349.59,-264.56
 L 349.692,-264.577 L 349.794,-264.59 L 349.897,-264.597 L 350,-264.6 L 350.103,-264.597 L 350.206,-264.59
 L 350.308,-264.577 L 350.41,-264.56 L 350.51,-264.537 L 350.61,-264.51 L 350.707,-264.477 L 350.804,-264.44
 L 350.898,-264.398 L 350.99,-264.352 L 351.08,-264.301 L 351.167,-264.246 L 351.251,-264.187 L 351.332,-264.123
 L 351.41,-264.056 L 351.485,-263.985 L 351.556,-263.91 L 351.623,-263.832 L 351.687,-263.751 L 351.746,-263.667
 L 351.801,-263.58 L 351.852,-263.49 L 351.898,-263.398 L 351.94,-263.304 L 351.977,-263.207 L 352.01,-263.11
 L 352.037,-263.01 L 352.06,-262.91 L 352.077,-262.808 L 352.09,-262.706 L 352.097,-262.603 L 352.1,-262.5
 L 352.097,-262.397 L 352.09,-262.294 L 352.077,-262.192 L 352.06,-262.09 L 352.037,-261.99 L 352.01,-261.89
 L 351.977,-261.793 L 351.94,-261.696 L 351.898,-261.602 L 351.852,-261.51 L 351.801,-261.42 L 351.746,-261.333
 L 351.687,-261.249 L 351.623,-261.168 L 351.556,-261.09 L 351.485,-261.015 L 351.41,-260.944 L 351.332,-260.877
 L 351.251,-260.813 L 351.167,-260.754 L 351.08,-260.699 L 350.99,-260.648 L 350.898,-260.602 L 350.804,-260.56
 L 350.707,-260.523 L 350.61,-260.49 L 350.51,-260.463 L 350.41,-260.44 L 350.308,-260.423 L 350.206,-260.41
 L 350.103,-260.403 L 350,-260.4 z
M 449.897,-260.403 L 449.794,-260.41 L 449.692,-260.423 L 449.59,-260.44 L 449.49,-260.463 L 449.39,-260.49
 L 449.293,-260.523 L 449.196,-260.56 L 449.102,-260.602 L 449.01,-260.648 L 448.92,-260.699 L 448.833,-260.754
 L 448.749,-260.813 L 448.668,-260.877 L 448.59,-260.944 L 448.515,-261.015 L 448.444,-261.09 L 448.377,-261.168
 L 448.313,-261.249 L 448.254,-261.333 L 448.199,-261.42 L 448.148,-261.51 L 448.102,-261.602 L 448.06,-261.696
 L 448.023,-261.793 L 447.99,-261.89 L 447.963,-261.99 L 447.94,-262.09 L 447.923,-262.192 L 447.91,-262.294
 L 447.903,-262.397 L 447.9,-262.5 L 447.903,-262.603 L 447.91,-262.706 L 447.923,-262.808 L 447.94,-262.91
 L 447.963,-263.01 L 447.99,-263.11 L 448.023,-263.207 L 448.06,-263.304 L 448.102,-263.398 L 448.148,-263.49
 L 448.199,-263.58 L 448.254,-263.667 L 448.313,-263.751 L 448.377,-263.832 L 448.444,-263.91 L 448.515,-263.985
 L 448.59,-264.056 L 448.668,-264.123 L 448.749,-264.187 L 448.833,-264.246 L 448.92,-264.301 L 449.01,-264.352
 L 449.102,-264.398 L 449.196,-264.44 L 449.293,-264.477 L 449.39,-264.51 L 449.49,-264.537 L 449.59,-264.56
 L 449.692,-264.577 L 449.794,-264.59 L 449.897,-264.597 L 450,-264.6 L 450.103,-264.597 L 450.206,-264.59
 L 450.308,-264.577 L 450.41,-264.56 L 450.51,-264.537 L 450.61,-264.51 L 450.707,-264.477 L 450.804,-264.44
 L 450.898,-264.398 L 450.99,-264.352 L 451.08,-264.301 L 451.167,-264.246 L 451.251,-264.187 L 451.332,-264.123
 L 451.41,-264.056 L 451.485,-263.985 L 451.556,-263.91 L 451.623,-263.832 L 451.687,-263.751 L 451.746,-263.667
 L 451.801,-263.58 L 451.852,-263.49 L 451.898,-263.398 L 451.94,-263.304 L 451.977,-263.207 L 452.01,-263.11
 L 452.037,-263.01 L 452.06,-262.91 L 452.077,-262.808 L 452.09,-262.706 L 452.097,-262.603 L 452.1,-262.5
 L 452.097,-262.397 L 452.09,-262.294 L 452.077,-262.192 L 452.06,-262.09 L 452.037,-261.99 L 452.01,-261.89
 L 451.977,-261.793 L 451.94,-261.696 L 451.898,-261.602 L 451.852,-261.51 L 451.801,-261.42 L 451.746,-261.333
 L 451.687,-261.249 L 451.623,-261.168 L 451.556,-261.09 L 451.485,-261.015 L 451.41,-260.944 L 451.332,-260.877
 L 451.251,-260.813 L 451.167,-260.754 L 451.08,-260.699 L 450.99,-260.648 L 450.898,-260.602 L 450.804,-260.56
 L 450.707,-260.523 L 450.61,-260.49 L 450.51,-260.463 L 450.41,-260.44 L 450.308,-260.423 L 450.206,-260.41
 L 450.103,-260.403 L 450,-260.4 z
M 549.897,-260.403 L 549.794,-260.41 L 549.692,-260.423 L 549.59,-260.44 L 549.49,-260.463 L 549.39,-260.49
 L 549.293,-260.523 L 549.196,-260.56 L 549.102,-260.602 L 549.01,-260.648 L 548.92,-260.699 L 548.833,-260.754
 L 548.749,-260.813 L 548.668,-260.877 L 548.59,-260.944 L 548.515,-261.015 L 548.444,-261.09 L 548.377,-261.168
 L 548.313,-261.249 L 548.254,-261.333 L 548.199,-261.42 L 548.148,-261.51 L 548.102,-261.602 L 548.06,-261.696
 L 548.023,-261.793 L 547.99,-261.89 L 547.963,-261.99 L 547.94,-262.09 L 547.923,-262.192 L 547.91,-262.294
 L 547.903,-262.397 L 547.9,-262.5 L 547.903,-262.603 L 547.91,-262.706 L 547.923,-262.808 L 547.94,-262.91
 L 547.963,-263.01 L 547.99,-263.11 L 548.023,-263.207 L 548.06,-263.304 L 548.102,-263.398 L 548.148,-263.49
 L 548.199,-263.58 L 548.254,-263.667 L 548.313,-263.751 L 548.377,-263.832 L 548.444,-263.91 L 548.515,-263.985
 L 548.59,-264.056 L 548.668,-264.123 L 548.749,-264.187 L 548.833,-264.246 L 548.92,-264.301 L 549.01,-264.352
 L 549.102,-264.398 L 549.196,-264.44 L 549.293,-264.477 L 549.39,-264.51 L 549.49,-264.537 L 549.59,-264.56
 L 549.692,-264.577 L 549.794,-264.59 L 549.897,-264.597 L 550,-264.6 L 550.103,-264.597 L 550.206,-264.59
 L 550.308,-264.577 L 550.41,-264.56 L 550.51,-264.537 L 550.61,-264.51 L 550.707,-264.477 L 550.804,-264.44
 L 550.898,-264.398 L 550.99,-264.352 L 551.08,-264.301 L 551.167,-264.246 L 551.251,-264.187 L 551.332,-264.123
 L 551.41,-264.056 L 551.485,-263.985 L 551.556,-263.91 L 551.623,-263.832 L 551.687,-263.751 L 551.746,-263.667
 L 551.801,-263.58 L 551.852,-263.49 L 551.898,-263.398 L 551.94,-263.304 L 551.977,-263.207 L 552.01,-263.11
 L 552.037,-263.01 L 552.06,-262.91 L 552.077,-262.808 L 552.09,-262.706 L 552.097,-262.603 L 552.1,-262.5
 L 552.097,-262.397 L 552.09,-262.294 L 552.077,-262.192 L 552.06,-262.09 L 552.037,-261.99 L 552.01,-261.89
 L 551.977,-261.793 L 551.94,-261.696 L 551.898,-261.602 L 551.852,-261.51 L 551.801,-261.42 L 551.746,-261.333
 L 551.687,-261.249 L 551.623,-261.168 L 551.556,-261.09 L 551.485,-261.015 L 551.41,-260.944 L 551.332,-260.877
 L 551.251,-260.813 L 551.167,-260.754 L 551.08,-260.699 L 550.99,-260.648 L 550.898,-260.602 L 550.804,-260.56
 L 550.707,-260.523 L 550.61,-260.49 L 550.51,-260.463 L 550.41,-260.44 L 550.308,-260.423 L 550.206,-260.41
 L 550.103,-260.403 L 550,-260.4 z
M 649.897,-260.403 L 649.794,-260.41 L 649.692,-260.423 L 649.59,-260.44 L 649.49,-260.463 L 649.39,-260.49
 L 649.293,-260.523 L 649.196,-260.56 L 649.102,-260.602 L 649.01,-260.648 L 648.92,-260.699 L 648.833,-260.754
 L 648.749,-260.813 L 648.668,-260.877 L 648.59,-260.944 L 648.515,-261.015 L 648.444,-261.09 L 648.377,-261.168
 L 648.313,-261.249 L 648.254,-261.333 L 648.199,-261.42 L 648.148,-261.51 L 648.102,-261.602 L 648.06,-261.696
 L 648.023,-261.793 L 647.99,-261.89 L 647.963,-261.99 L 647.94,-262.09 L 647.923,-262.192 L 647.91,-262.294
 L 647.903,-262.397 L 647.9,-262.5 L 647.903,-262.603 L 647.91,-262.706 L 647.923,-262.808 L 647.94,-262.91
 L 647.963,-263.01 L 647.99,-263.11 L 648.023,-263.207 L 648.06,-263.304 L 648.102,-263.398 L 648.148,-263.49
 L 648.199,-263.58 L 648.254,-263.667 L 648.313,-263.751 L 648.377,-263.832 L 648.444,-263.91 L 648.515,-263.985
 L 648.59,-264.056 L 648.668,-264.123 L 648.749,-264.187 L 648.833,-264.246 L 648.92,-264.301 L 649.01,-264.352
 L 649.102,-264.398 L 649.196,-264.44 L 649.293,-264.477 L 649.39,-264.51 L 649.49,-264.537 L 649.59,-264.56
 L 649.692,-264.577 L 649.794,-264.59 L 649.897,-264.597 L 650,-264.6 L 650.103,-264.597 L 650.206,-264.59
 L 650.308,-264.577 L 650.41,-264.56 L 650.51,-264.537 L 650.61,-264.51 L 650.707,-264.477 L 650.804,-264.44
 L 650.898,-264.398 L 650.99,-264.352 L 651.08,-264.301 L 651.167,-264.246 L 651.251,-264.187 L 651.332,-264.123
 L 651.41,-264.056 L 651.485,-263.985 L 651.556,-263.91 L 651.623,-263.832 L 651.687,-263.751 L 651.746,-263.667
 L 651.801,-263.58 L 651.852,-263.49 L 651.898,-263.398 L 651.94,-263.304 L 651.977,-263.207 L 652.01,-263.11
 L 652.037,-263.01 L 652.06,-262.91 L 652.077,-262.808 L 652.09,-262.706 L 652.097,-262.603 L 652.1,-262.5
 L 652.097,-262.397 L 652.09,-262.294 L 652.077,-262.192 L 652.06,-262.09 L 652.037,-261.99 L 652.01,-261.89
 L 651.977,-261.793 L 651.94,-261.696 L 651.898,-261.602 L 651.852,-261.51 L 651.801,-261.42 L 651.746,-261.333
 L 651.687,-261.249 L 651.623,-261.168 L 651.556,-261.09 L 651.485,-261.015 L 651.41,-260.944 L 651.332,-260.877
 L 651.251,-260.813 L 651.167,-260.754 L 651.08,-260.699 L 650.99,-260.648 L 650.898,-260.602 L 650.804,-260.56
 L 650.707,-260.523 L 650.61,-260.49 L 650.51,-260.463 L 650.41,-260.44 L 650.308,-260.423 L 650.206,-260.41
 L 650.103,-260.403 L 650,-260.4 z
M 762.397,-260.403 L 762.294,-260.41 L 762.192,-260.423 L 762.09,-260.44 L 761.99,-260.463 L 761.89,-260.49
 L 761.793,-260.523 L 761.696,-260.56 L 761.602,-260.602 L 761.51,-260.648 L 761.42,-260.699 L 761.333,-260.754
 L 761.249,-260.813 L 761.168,-260.877 L 761.09,-260.944 L 761.015,-261.015 L 760.944,-261.09 L 760.877,-261.168
 L 760.813,-261.249 L 760.754,-261.333 L 760.699,-261.42 L 760.648,-261.51 L 760.602,-261.602 L 760.56,-261.696
 L 760.523,-261.793 L 760.49,-261.89 L 760.463,-261.99 L 760.44,-262.09 L 760.423,-262.192 L 760.41,-262.294
 L 760.403,-262.397 L 760.4,-262.5 L 760.403,-262.603 L 760.41,-262.706 L 760.423,-262.808 L 760.44,-262.91
 L 760.463,-263.01 L 760.49,-263.11 L 760.523,-263.207 L 760.56,-263.304 L 760.602,-263.398 L 760.648,-263.49
 L 760.699,-263.58 L 760.754,-263.667 L 760.813,-263.751 L 760.877,-263.832 L 760.944,-263.91 L 761.015,-263.985
 L 761.09,-264.056 L 761.168,-264.123 L 761.249,-264.187 L 761.333,-264.246 L 761.42,-264.301 L 761.51,-264.352
 L 761.602,-264.398 L 761.696,-264.44 L 761.793,-264.477 L 761.89,-264.51 L 761.99,-264.537 L 762.09,-264.56
 L 762.192,-264.577 L 762.294,-264.59 L 762.397,-264.597 L 762.5,-264.6 L 762.603,-264.597 L 762.706,-264.59
 L 762.808,-264.577 L 762.91,-264.56 L 763.01,-264.537 L 763.11,-264.51 L 763.207,-264.477 L 763.304,-264.44
 L 763.398,-264.398 L 763.49,-264.352 L 763.58,-264.301 L 763.667,-264.246 L 763.751,-264.187 L 763.832,-264.123
 L 763.91,-264.056 L 763.985,-263.985 L 764.056,-263.91 L 764.123,-263.832 L 764.187,-263.751 L 764.246,-263.667
 L 764.301,-263.58 L 764.352,-263.49 L 764.398,-263.398 L 764.44,-263.304 L 764.477,-263.207 L 764.51,-263.11
 L 764.537,-263.01 L 764.56,-262.91 L 764.577,-262.808 L 764.59,-262.706 L 764.597,-262.603 L 764.6,-262.5
 L 764.597,-262.397 L 764.59,-262.294 L 764.577,-262.192 L 764.56,-262.09 L 764.537,-261.99 L 764.51,-261.89
 L 764.477,-261.793 L 764.44,-261.696 L 764.398,-261.602 L 764.352,-261.51 L 764.301,-261.42 L 764.246,-261.333
 L 764.187,-261.249 L 764.123,-261.168 L 764.056,-261.09 L 763.985,-261.015 L 763.91,-260.944 L 763.832,-260.877
 L 763.751,-260.813 L 763.667,-260.754 L 763.58,-260.699 L 763.49,-260.648 L 763.398,-260.602 L 763.304,-260.56
 L 763.207,-260.523 L 763.11,-260.49 L 763.01,-260.463 L 762.91,-260.44 L 762.808,-260.423 L 762.706,-260.41
 L 762.603,-260.403 L 762.5,-260.4 z
M -45.8,50 L -45.8,-250 L 745.8,-250 L 745.8,50 L 377.5,50 L 377.5,25
 L 377.496,24.8528 L 377.486,24.7059 L 377.468,24.5598 L 377.442,24.4147 L 377.41,24.2711 L 377.371,24.1291
 L 377.325,23.9893 L 377.272,23.8519 L 377.212,23.7173 L 377.146,23.5858 L 377.073,23.4577 L 376.994,23.3333
 L 376.91,23.2129 L 376.819,23.0968 L 376.723,22.9853 L 376.621,22.8787 L 376.515,22.7771 L 376.403,22.681
 L 376.287,22.5904 L 376.167,22.5056 L 376.042,22.4268 L 375.914,22.3542 L 375.783,22.288 L 375.648,22.2284
 L 375.511,22.1754 L 375.371,22.1292 L 375.229,22.0899 L 375.085,22.0576 L 374.94,22.0325 L 374.794,22.0144
 L 374.647,22.0036 L 374.5,22 L 325.5,22 L 325.353,22.0036 L 325.206,22.0144 L 325.06,22.0325
 L 324.915,22.0576 L 324.771,22.0899 L 324.629,22.1292 L 324.489,22.1754 L 324.352,22.2284 L 324.217,22.288
 L 324.086,22.3542 L 323.958,22.4268 L 323.833,22.5056 L 323.713,22.5904 L 323.597,22.681 L 323.485,22.7771
 L 323.379,22.8787 L 323.277,22.9853 L 323.181,23.0968 L 323.09,23.2129 L 323.006,23.3333 L 322.927,23.4577
 L 322.854,23.5858 L 322.788,23.7173 L 322.728,23.8519 L 322.675,23.9893 L 322.629,24.1291 L 322.59,24.2711
 L 322.558,24.4147 L 322.532,24.5598 L 322.514,24.7059 L 322.504,24.8528 L 322.5,25 L 322.5,50
 z
M -62.603,-147.903 L -62.7058,-147.91 L -62.8081,-147.923 L -62.9097,-147.94 L -63.0103,-147.963 L -63.1096,-147.99
 L -63.2075,-148.023 L -63.3036,-148.06 L -63.3979,-148.102 L -63.4899,-148.148 L -63.5796,-148.199 L -63.6667,-148.254
 L -63.751,-148.313 L -63.8322,-148.377 L -63.9103,-148.444 L -63.9849,-148.515 L -64.056,-148.59 L -64.1233,-148.668
 L -64.1867,-148.749 L -64.2461,-148.833 L -64.3012,-148.92 L -64.352,-149.01 L -64.3984,-149.102 L -64.4401,-149.196
 L -64.4772,-149.293 L -64.5096,-149.39 L -64.5371,-149.49 L -64.5596,-149.59 L -64.5773,-149.692 L -64.5899,-149.794
 L -64.5975,-149.897 L -64.6,-150 L -64.5975,-150.103 L -64.5899,-150.206 L -64.5773,-150.308 L -64.5596,-150.41
 L -64.5371,-150.51 L -64.5096,-150.61 L -64.4772,-150.707 L -64.4401,-150.804 L -64.3984,-150.898 L -64.352,-150.99
 L -64.3012,-151.08 L -64.2461,-151.167 L -64.1867,-151.251 L -64.1233,-151.332 L -64.056,-151.41 L -63.9849,-151.485
 L -63.9103,-151.556 L -63.8322,-151.623 L -63.751,-151.687 L -63.6667,-151.746 L -63.5796,-151.801 L -63.4899,-151.852
 L -63.3979,-151.898 L -63.3036,-151.94 L -63.2075,-151.977 L -63.1096,-152.01 L -63.0103,-152.037 L -62.9097,-152.06
 L -62.8081,-152.077 L -62.7058,-152.09 L -62.603,-152.097 L -62.5,-152.1 L -62.397,-152.097 L -62.2942,-152.09
 L -62.1919,-152.077 L -62.0903,-152.06 L -61.9897,-152.037 L -61.8904,-152.01 L -61.7925,-151.977 L -61.6964,-151.94
 L -61.6021,-151.898 L -61.5101,-151.852 L -61.4204,-151.801 L -61.3333,-151.746 L -61.249,-151.687 L -61.1678,-151.623
 L -61.0897,-151.556 L -61.0151,-151.485 L -60.944,-151.41 L -60.8767,-151.332 L -60.8133,-151.251 L -60.7539,-151.167
 L -60.6988,-151.08 L -60.648,-150.99 L -60.6016,-150.898 L -60.5599,-150.804 L -60.5228,-150.707 L -60.4904,-150.61
 L -60.4629,-150.51 L -60.4404,-150.41 L -60.4227,-150.308 L -60.4101,-150.206 L -60.4025,-150.103 L -60.4,-150
 L -60.4025,-149.897 L -60.4101,-149.794 L -60.4227,-149.692 L -60.4404,-149.59 L -60.4629,-149.49 L -60.4904,-149.39
 L -60.5228,-149.293 L -60.5599,-149.196 L -60.6016,-149.102 L -60.648,-149.01 L -60.6988,-148.92 L -60.7539,-148.833
 L -60.8133,-148.749 L -60.8767,-148.668 L -60.944,-148.59 L -61.0151,-148.515 L -61.0897,-148.444 L -61.1678,-148.377
 L -61.249,-148.313 L -61.3333,-148.254 L -61.4204,-148.199 L -61.5101,-148.148 L -61.6021,-148.102 L -61.6964,-148.06
 L -61.7925,-148.023 L -61.8904,-147.99 L -61.9897,-147.963 L -62.0903,-147.94 L -62.1919,-147.923 L -62.2942,-147.91
 L -62.397,-147.903 L -62.5,-147.9 z
M 762.397,-147.903 L 762.294,-147.91 L 762.192,-147.923 L 762.09,-147.94 L 761.99,-147.963 L 761.89,-147.99
 L 761.793,-148.023 L 761.696,-148.06 L 761.602,-148.102 L 761.51,-148.148 L 761.42,-148.199 L 761.333,-148.254
 L 761.249,-148.313 L 761.168,-148.377 L 761.09,-148.444 L 761.015,-148.515 L 760.944,-148.59 L 760.877,-148.668
 L 760.813,-148.749 L 760.754,-148.833 L 760.699,-148.92 L 760.648,-149.01 L 760.602,-149.102 L 760.56,-149.196
 L 760.523,-149.293 L 760.49,-149.39 L 760.463,-149.49 L 760.44,-149.59 L 760.423,-149.692 L 760.41,-149.794
 L 760.403,-149.897 L 760.4,-150 L 760.403,-150.103 L 760.41,-150.206 L 760.423,-150.308 L 760.44,-150.41
 L 760.463,-150.51 L 760.49,-150.61 L 760.523,-150.707 L 760.56,-150.804 L 760.602,-150.898 L 760.648,-150.99
 L 760.699,-151.08 L 760.754,-151.167 L 760.813,-151.251 L 760.877,-151.332 L 760.944,-151.41 L 761.015,-151.485
 L 761.09,-151.556 L 761.168,-151.623 L 761.249,-151.687 L 761.333,-151.746 L 761.42,-151.801 L 761.51,-151.852
 L 761.602,-151.898 L 761.696,-151.94 L 761.793,-151.977 L 761.89,-152.01 L 761.99,-152.037 L 762.09,-152.06
 L 762.192,-152.077 L 762.294,-152.09 L 762.397,-152.097 L 762.5,-152.1 L 762.603,-152.097 L 762.706,-152.09
 L 762.808,-152.077 L 762.91,-152.06 L 763.01,-152.037 L 763.11,-152.01 L 763.207,-151.977 L 763.304,-151.94
 L 763.398,-151.898 L 763.49,-151.852 L 763.58,-151.801 L 763.667,-151.746 L 763.751,-151.687 L 763.832,-151.623
 L 763.91,-151.556 L 763.985,-151.485 L 764.056,-151.41 L 764.123,-151.332 L 764.187,-151.251 L 764.246,-151.167
 L 764.301,-151.08 L 764.352,-150.99 L 764.398,-150.898 L 764.44,-150.804 L 764.477,-150.707 L 764.51,-150.61
 L 764.537,-150.51 L 764.56,-150.41 L 764.577,-150.308 L 764.59,-150.206 L 764.597,-150.103 L 764.6,-150
 L 764.597,-149.897 L 764.59,-149.794 L 764.577,-149.692 L 764.56,-149.59 L 764.537,-149.49 L 764.51,-149.39
 L 764.477,-149.293 L 764.44,-149.196 L 764.398,-149.102 L 764.352,-149.01 L 764.301,-148.92 L 764.246,-148.833
 L 764.187,-148.749 L 764.123,-148.668 L 764.056,-148.59 L 763.985,-148.515 L 763.91,-148.444 L 763.832,-148.377
 L 763.751,-148.313 L 763.667,-148.254 L 763.58,-148.199 L 763.49,-148.148 L 763.398,-148.102 L 763.304,-148.06
 L 763.207,-148.023 L 763.11,-147.99 L 763.01,-147.963 L 762.91,-147.94 L 762.808,-147.923 L 762.706,-147.91
 L 762.603,-147.903 L 762.5,-147.9 z
M -62.603,-47.9025 L -62.7058,-47.9101 L -62.8081,-47.9227 L -62.9097,-47.9404 L -63.0103,-47.9629 L -63.1096,-47.9904
 L -63.2075,-48.0228 L -63.3036,-48.0599 L -63.3979,-48.1016 L -63.4899,-48.148 L -63.5796,-48.1988 L -63.6667,-48.2539
 L -63.751,-48.3133 L -63.8322,-48.3767 L -63.9103,-48.444 L -63.9849,-48.5151 L -64.056,-48.5897 L -64.1233,-48.6678
 L -64.1867,-48.749 L -64.2461,-48.8333 L -64.3012,-48.9204 L -64.352,-49.0101 L -64.3984,-49.1021 L -64.4401,-49.1964
 L -64.4772,-49.2925 L -64.5096,-49.3904 L -64.5371,-49.4897 L -64.5596,-49.5903 L -64.5773,-49.6919 L -64.5899,-49.7942
 L -64.5975,-49.897 L -64.6,-50 L -64.5975,-50.103 L -64.5899,-50.2058 L -64.5773,-50.3081 L -64.5596,-50.4097
 L -64.5371,-50.5103 L -64.5096,-50.6096 L -64.4772,-50.7075 L -64.4401,-50.8036 L -64.3984,-50.8979 L -64.352,-50.9899
 L -64.3012,-51.0796 L -64.2461,-51.1667 L -64.1867,-51.251 L -64.1233,-51.3322 L -64.056,-51.4103 L -63.9849,-51.4849
 L -63.9103,-51.556 L -63.8322,-51.6233 L -63.751,-51.6867 L -63.6667,-51.7461 L -63.5796,-51.8012 L -63.4899,-51.852
 L -63.3979,-51.8984 L -63.3036,-51.9401 L -63.2075,-51.9772 L -63.1096,-52.0096 L -63.0103,-52.0371 L -62.9097,-52.0596
 L -62.8081,-52.0773 L -62.7058,-52.0899 L -62.603,-52.0975 L -62.5,-52.1 L -62.397,-52.0975 L -62.2942,-52.0899
 L -62.1919,-52.0773 L -62.0903,-52.0596 L -61.9897,-52.0371 L -61.8904,-52.0096 L -61.7925,-51.9772 L -61.6964,-51.9401
 L -61.6021,-51.8984 L -61.5101,-51.852 L -61.4204,-51.8012 L -61.3333,-51.7461 L -61.249,-51.6867 L -61.1678,-51.6233
 L -61.0897,-51.556 L -61.0151,-51.4849 L -60.944,-51.4103 L -60.8767,-51.3322 L -60.8133,-51.251 L -60.7539,-51.1667
 L -60.6988,-51.0796 L -60.648,-50.9899 L -60.6016,-50.8979 L -60.5599,-50.8036 L -60.5228,-50.7075 L -60.4904,-50.6096
 L -60.4629,-50.5103 L -60.4404,-50.4097 L -60.4227,-50.3081 L -60.4101,-50.2058 L -60.4025,-50.103 L -60.4,-50
 L -60.4025,-49.897 L -60.4101,-49.7942 L -60.4227,-49.6919 L -60.4404,-49.5903 L -60.4629,-49.4897 L -60.4904,-49.3904
 L -60.5228,-49.2925 L -60.5599,-49.1964 L -60.6016,-49.1021 L -60.648,-49.0101 L -60.6988,-48.9204 L -60.7539,-48.8333
 L -60.8133,-48.749 L -60.8767,-48.6678 L -60.944,-48.5897 L -61.0151,-48.5151 L -61.0897,-48.444 L -61.1678,-48.3767
 L -61.249,-48.3133 L -61.3333,-48.2539 L -61.4204,-48.1988 L -61.5101,-48.148 L -61.6021,-48.1016 L -61.6964,-48.0599
 L -61.7925,-48.0228 L -61.8904,-47.9904 L -61.9897,-47.9629 L -62.0903,-47.9404 L -62.1919,-47.9227 L -62.2942,-47.9101
 L -62.397,-47.9025 L -62.5,-47.9 z
M 762.397,-47.9025 L 762.294,-47.9101 L 762.192,-47.9227 L 762.09,-47.9404 L 761.99,-47.9629 L 761.89,-47.9904
 L 761.793,-48.0228 L 761.696,-48.0599 L 761.602,-48.1016 L 761.51,-48.148 L 761.42,-48.1988 L 761.333,-48.2539
 L 761.249,-48.3133 L 761.168,-48.3767 L 761.09,-48.444 L 761.015,-48.5151 L 760.944,-48.5897 L 760.877,-48.6678
 L 760.813,-48.749 L 760.754,-48.8333 L 760.699,-48.9204 L 760.648,-49.0101 L 760.602,-49.1021 L 760.56,-49.1964
 L 760.523,-49.2925 L 760.49,-49.3904 L 760.463,-49.4897 L 760.44,-49.5903 L 760.423,-49.6919 L 760.41,-49.7942
 L 760.403,-49.897 L 760.4,-50 L 760.403,-50.103 L 760.41,-50.2058 L 760.423,-50.3081 L 760.44,-50.4097
 L 760.463,-50.5103 L 760.49,-50.6096 L 760.523,-50.7075 L 760.56,-50.8036 L 760.602,-50.8979 L 760.648,-50.9899
 L 760.699,-51.0796 L 760.754,-51.1667 L 760.813,-51.251 L 760.877,-51.3322 L 760.944,-51.4103 L 761.015,-51.4849
 L 761.09,-51.556 L 761.168,-51.6233 L 761.249,-51.6867 L 761.333,-51.7461 L 761.42,-51.8012 L 761.51,-51.852
 L 761.602,-51.8984 L 761.696,-51.9401 L 761.793,-51.9772 L 761.89,-52.0096 L 761.99,-52.0371 L 762.09,-52.0596
 L 762.192,-52.0773 L 762.294,-52.0899 L 762.397,-52.0975 L 762.5,-52.1 L 762.603,-52.0975 L 762.706,-52.0899
 L 762.808,-52.0773 L 762.91,-52.0596 L 763.01,-52.0371 L 763.11,-52.0096 L 763.207,-51.9772 L 763.304,-51.9401
 L 763.398,-51.8984 L 763.49,-51.852 L 763.58,-51.8012 L 763.667,-51.7461 L 763.751,-51.6867 L 763.832,-51.6233
 L 763.91,-51.556 L 763.985,-51.4849 L 764.056,-51.4103 L 764.123,-51.3322 L 764.187,-51.251 L 764.246,-51.1667
 L 764.301,-51.0796 L 764.352,-50.9899 L 764.398,-50.8979 L 764.44,-50.8036 L 764.477,-50.7075 L 764.51,-50.6096
 L 764.537,-50.5103 L 764.56,-50.4097 L 764.577,-50.3081 L 764.59,-50.2058 L 764.597,-50.103 L 764.6,-50
 L 764.597,-49.897 L 764.59,-49.7942 L 764.577,-49.6919 L 764.56,-49.5903 L 764.537,-49.4897 L 764.51,-49.3904
 L 764.477,-49.2925 L 764.44,-49.1964 L 764.398,-49.1021 L 764.352,-49.0101 L 764.301,-48.9204 L 764.246,-48.8333
 L 764.187,-48.749 L 764.123,-48.6678 L 764.056,-48.5897 L 763.985,-48.5151 L 763.91,-48.444 L 763.832,-48.3767
 L 763.751,-48.3133 L 763.667,-48.2539 L 763.58,-48.1988 L 763.49,-48.148 L 763.398,-48.1016 L 763.304,-48.0599
 L 763.207,-48.0228 L 763.11,-47.9904 L 763.01,-47.9629 L 762.91,-47.9404 L 762.808,-47.9227 L 762.706,-47.9101
 L 762.603,-47.9025 L 762.5,-47.9 z
M -62.657,-10.5039 L -62.8137,-10.5154 L -62.9695,-10.5346 L -63.1243,-10.5615 L -63.2775,-10.5959 L -63.4289,-10.6378
 L -63.578,-10.6871 L -63.7246,-10.7436 L -63.8682,-10.8072 L -64.0085,-10.8779 L -64.1451,-10.9553 L -64.2778,-11.0393
 L -64.4062,-11.1297 L -64.5301,-11.2264 L -64.649,-11.329 L -64.7627,-11.4373 L -64.871,-11.551 L -64.9736,-11.6699
 L -65.0703,-11.7938 L -65.1607,-11.9222 L -65.2447,-12.0549 L -65.3221,-12.1915 L -65.3928,-12.3318 L -65.4564,-12.4754
 L -65.5129,-12.622 L -65.5622,-12.7711 L -65.6041,-12.9225 L -65.6385,-13.0757 L -65.6654,-13.2305 L -65.6846,-13.3863
 L -65.6961,-13.543 L -65.7,-13.7 L -65.6961,-13.857 L -65.6846,-14.0137 L -65.6654,-14.1695 L -65.6385,-14.3243
 L -65.6041,-14.4775 L -65.5622,-14.6289 L -65.5129,-14.778 L -65.4564,-14.9246 L -65.3928,-15.0682 L -65.3221,-15.2085
 L -65.2447,-15.3451 L -65.1607,-15.4778 L -65.0703,-15.6062 L -64.9736,-15.7301 L -64.871,-15.849 L -64.7627,-15.9627
 L -64.649,-16.071 L -64.5301,-16.1736 L -64.4062,-16.2703 L -64.2778,-16.3607 L -64.1451,-16.4447 L -64.0085,-16.5221
 L -63.8682,-16.5928 L -63.7246,-16.6564 L -63.578,-16.7129 L -63.4289,-16.7622 L -63.2775,-16.8041 L -63.1243,-16.8385
 L -62.9695,-16.8654 L -62.8137,-16.8846 L -62.657,-16.8961 L -62.5,-16.9 L -62.343,-16.8961 L -62.1863,-16.8846
 L -62.0305,-16.8654 L -61.8757,-16.8385 L -61.7225,-16.8041 L -61.5711,-16.7622 L -61.422,-16.7129 L -61.2754,-16.6564
 L -61.1318,-16.5928 L -60.9915,-16.5221 L -60.8549,-16.4447 L -60.7222,-16.3607 L -60.5938,-16.2703 L -60.4699,-16.1736
 L -60.351,-16.071 L -60.2373,-15.9627 L -60.129,-15.849 L -60.0264,-15.7301 L -59.9297,-15.6062 L -59.8393,-15.4778
 L -59.7553,-15.3451 L -59.6779,-15.2085 L -59.6072,-15.0682 L -59.5436,-14.9246 L -59.4871,-14.778 L -59.4378,-14.6289
 L -59.3959,-14.4775 L -59.3615,-14.3243 L -59.3346,-14.1695 L -59.3154,-14.0137 L -59.3039,-13.857 L -59.3,-13.7
 L -59.3039,-13.543 L -59.3154,-13.3863 L -59.3346,-13.2305 L -59.3615,-13.0757 L -59.3959,-12.9225 L -59.4378,-12.7711
 L -59.4871,-12.622 L -59.5436,-12.4754 L -59.6072,-12.3318 L -59.6779,-12.1915 L -59.7553,-12.0549 L -59.8393,-11.9222
 L -59.9297,-11.7938 L -60.0264,-11.6699 L -60.129,-11.551 L -60.2373,-11.4373 L -60.351,-11.329 L -60.4699,-11.2264
 L -60.5938,-11.1297 L -60.7222,-11.0393 L -60.8549,-10.9553 L -60.9915,-10.8779 L -61.1318,-10.8072 L -61.2754,-10.7436
 L -61.422,-10.6871 L -61.5711,-10.6378 L -61.7225,-10.5959 L -61.8757,-10.5615 L -62.0305,-10.5346 L -62.1863,-10.5154
 L -62.343,-10.5039 L -62.5,-10.5 z
M 762.343,-10.5039 L 762.186,-10.5154 L 762.03,-10.5346 L 761.876,-10.5615 L 761.722,-10.5959 L 761.571,-10.6378
 L 761.422,-10.6871 L 761.275,-10.7436 L 761.132,-10.8072 L 760.992,-10.8779 L 760.855,-10.9553 L 760.722,-11.0393
 L 760.594,-11.1297 L 760.47,-11.2264 L 760.351,-11.329 L 760.237,-11.4373 L 760.129,-11.551 L 760.026,-11.6699
 L 759.93,-11.7938 L 759.839,-11.9222 L 759.755,-12.0549 L 759.678,-12.1915 L 759.607,-12.3318 L 759.544,-12.4754
 L 759.487,-12.622 L 759.438,-12.7711 L 759.396,-12.9225 L 759.361,-13.0757 L 759.335,-13.2305 L 759.315,-13.3863
 L 759.304,-13.543 L 759.3,-13.7 L 759.304,-13.857 L 759.315,-14.0137 L 759.335,-14.1695 L 759.361,-14.3243
 L 759.396,-14.4775 L 759.438,-14.6289 L 759.487,-14.778 L 759.544,-14.9246 L 759.607,-15.0682 L 759.678,-15.2085
 L 759.755,-15.3451 L 759.839,-15.4778 L 759.93,-15.6062 L 760.026,-15.7301 L 760.129,-15.849 L 760.237,-15.9627
 L 760.351,-16.071 L 760.47,-16.1736 L 760.594,-16.2703 L 760.722,-16.3607 L 760.855,-16.4447 L 760.992,-16.5221
 L 761.132,-16.5928 L 761.275,-16.6564 L 761.422,-16.7129 L 761.571,-16.7622 L 761.722,-16.8041 L 761.876,-16.8385
 L 762.03,-16.8654 L 762.186,-16.8846 L 762.343,-16.8961 L 762.5,-16.9 L 762.657,-16.8961 L 762.814,-16.8846
 L 762.97,-16.8654 L 763.124,-16.8385 L 763.278,-16.8041 L 763.429,-16.7622 L 763.578,-16.7129 L 763.725,-16.6564
 L 763.868,-16.5928 L 764.008,-16.5221 L 764.145,-16.4447 L 764.278,-16.3607 L 764.406,-16.2703 L 764.53,-16.1736
 L 764.649,-16.071 L 764.763,-15.9627 L 764.871,-15.849 L 764.974,-15.7301 L 765.07,-15.6062 L 765.161,-15.4778
 L 765.245,-15.3451 L 765.322,-15.2085 L 765.393,-15.0682 L 765.456,-14.9246 L 765.513,-14.778 L 765.562,-14.6289
 L 765.604,-14.4775 L 765.639,-14.3243 L 765.665,-14.1695 L 765.685,-14.0137 L 765.696,-13.857 L 765.7,-13.7
 L 765.696,-13.543 L 765.685,-13.3863 L 765.665,-13.2305 L 765.639,-13.0757 L 765.604,-12.9225 L 765.562,-12.7711
 L 765.513,-12.622 L 765.456,-12.4754 L 765.393,-12.3318 L 765.322,-12.1915 L 765.245,-12.0549 L 765.161,-11.9222
 L 765.07,-11.7938 L 764.974,-11.6699 L 764.871,-11.551 L 764.763,-11.4373 L 764.649,-11.329 L 764.53,-11.2264
 L 764.406,-11.1297 L 764.278,-11.0393 L 764.145,-10.9553 L 764.008,-10.8779 L 763.868,-10.8072 L 763.725,-10.7436
 L 763.578,-10.6871 L 763.429,-10.6378 L 763.278,-10.5959 L 763.124,-10.5615 L 762.97,-10.5346 L 762.814,-10.5154
 L 762.657,-10.5039 L 762.5,-10.5 z
M -62.657,-2.50385 L -62.8137,-2.51541 L -62.9695,-2.53464 L -63.1243,-2.56149 L -63.2775,-2.5959 L -63.4289,-2.63779
 L -63.578,-2.68706 L -63.7246,-2.74359 L -63.8682,-2.80723 L -64.0085,-2.87785 L -64.1451,-2.95527 L -64.2778,-3.0393
 L -64.4062,-3.12974 L -64.5301,-3.22637 L -64.649,-3.32896 L -64.7627,-3.43726 L -64.871,-3.55101 L -64.9736,-3.66994
 L -65.0703,-3.79376 L -65.1607,-3.92218 L -65.2447,-4.05487 L -65.3221,-4.19153 L -65.3928,-4.33182 L -65.4564,-4.47541
 L -65.5129,-4.62195 L -65.5622,-4.77109 L -65.6041,-4.92246 L -65.6385,-5.07571 L -65.6654,-5.23046 L -65.6846,-5.38635
 L -65.6961,-5.54298 L -65.7,-5.7 L -65.6961,-5.85702 L -65.6846,-6.01365 L -65.6654,-6.16954 L -65.6385,-6.32429
 L -65.6041,-6.47754 L -65.5622,-6.62891 L -65.5129,-6.77805 L -65.4564,-6.92459 L -65.3928,-7.06818 L -65.3221,-7.20847
 L -65.2447,-7.34513 L -65.1607,-7.47782 L -65.0703,-7.60624 L -64.9736,-7.73006 L -64.871,-7.84899 L -64.7627,-7.96274
 L -64.649,-8.07104 L -64.5301,-8.17363 L -64.4062,-8.27026 L -64.2778,-8.3607 L -64.1451,-8.44473 L -64.0085,-8.52215
 L -63.8682,-8.59277 L -63.7246,-8.65641 L -63.578,-8.71294 L -63.4289,-8.76221 L -63.2775,-8.8041 L -63.1243,-8.83851
 L -62.9695,-8.86536 L -62.8137,-8.88459 L -62.657,-8.89615 L -62.5,-8.9 L -62.343,-8.89615 L -62.1863,-8.88459
 L -62.0305,-8.86536 L -61.8757,-8.83851 L -61.7225,-8.8041 L -61.5711,-8.76221 L -61.422,-8.71294 L -61.2754,-8.65641
 L -61.1318,-8.59277 L -60.9915,-8.52215 L -60.8549,-8.44473 L -60.7222,-8.3607 L -60.5938,-8.27026 L -60.4699,-8.17363
 L -60.351,-8.07104 L -60.2373,-7.96274 L -60.129,-7.84899 L -60.0264,-7.73006 L -59.9297,-7.60624 L -59.8393,-7.47782
 L -59.7553,-7.34513 L -59.6779,-7.20847 L -59.6072,-7.06818 L -59.5436,-6.92459 L -59.4871,-6.77805 L -59.4378,-6.62891
 L -59.3959,-6.47754 L -59.3615,-6.32429 L -59.3346,-6.16954 L -59.3154,-6.01365 L -59.3039,-5.85702 L -59.3,-5.7
 L -59.3039,-5.54298 L -59.3154,-5.38635 L -59.3346,-5.23046 L -59.3615,-5.07571 L -59.3959,-4.92246 L -59.4378,-4.77109
 L -59.4871,-4.62195 L -59.5436,-4.47541 L -59.6072,-4.33182 L -59.6779,-4.19153 L -59.7553,-4.05487 L -59.8393,-3.92218
 L -59.9297,-3.79376 L -60.0264,-3.66994 L -60.129,-3.55101 L -60.2373,-3.43726 L -60.351,-3.32896 L -60.4699,-3.22637
 L -60.5938,-3.12974 L -60.7222,-3.0393 L -60.8549,-2.95527 L -60.9915,-2.87785 L -61.1318,-2.80723 L -61.2754,-2.74359
 L -61.422,-2.68706 L -61.5711,-2.63779 L -61.7225,-2.5959 L -61.8757,-2.56149 L -62.0305,-2.53464 L -62.1863,-2.51541
 L -62.343,-2.50385 L -62.5,-2.5 z
M 762.343,-2.50385 L 762.186,-2.51541 L 762.03,-2.53464 L 761.876,-2.56149 L 761.722,-2.5959 L 761.571,-2.63779
 L 761.422,-2.68706 L 761.275,-2.74359 L 761.132,-2.80723 L 760.992,-2.87785 L 760.855,-2.95527 L 760.722,-3.0393
 L 760.594,-3.12974 L 760.47,-3.22637 L 760.351,-3.32896 L 760.237,-3.43726 L 760.129,-3.55101 L 760.026,-3.66994
 L 759.93,-3.79376 L 759.839,-3.92218 L 759.755,-4.05487 L 759.678,-4.19153 L 759.607,-4.33182 L 759.544,-4.47541
 L 759.487,-4.62195 L 759.438,-4.77109 L 759.396,-4.92246 L 759.361,-5.07571 L 759.335,-5.23046 L 759.315,-5.38635
 L 759.304,-5.54298 L 759.3,-5.7 L 759.304,-5.85702 L 759.315,-6.01365 L 759.335,-6.16954 L 759.361,-6.32429
 L 759.396,-6.47754 L 759.438,-6.62891 L 759.487,-6.77805 L 759.544,-6.92459 L 759.607,-7.06818 L 759.678,-7.20847
 L 759.755,-7.34513 L 759.839,-7.47782 L 759.93,-7.60624 L 760.026,-7.73006 L 760.129,-7.84899 L 760.237,-7.96274
 L 760.351,-8.07104 L 760.47,-8.17363 L 760.594,-8.27026 L 760.722,-8.3607 L 760.855,-8.44473 L 760.992,-8.52215
 L 761.132,-8.59277 L 761.275,-8.65641 L 761.422,-8.71294 L 761.571,-8.76221 L 761.722,-8.8041 L 761.876,-8.83851
 L 762.03,-8.86536 L 762.186,-8.88459 L 762.343,-8.89615 L 762.5,-8.9 L 762.657,-8.89615 L 762.814,-8.88459
 L 762.97,-8.86536 L 763.124,-8.83851 L 763.278,-8.8041 L 763.429,-8.76221 L 763.578,-8.71294 L 763.725,-8.65641
 L 763.868,-8.59277 L 764.008,-8.52215 L 764.145,-8.44473 L 764.278,-8.3607 L 764.406,-8.27026 L 764.53,-8.17363
 L 764.649,-8.07104 L 764.763,-7.96274 L 764.871,-7.84899 L 764.974,-7.73006 L 765.07,-7.60624 L 765.161,-7.47782
 L 765.245,-7.34513 L 765.322,-7.20847 L 765.393,-7.06818 L 765.456,-6.92459 L 765.513,-6.77805 L 765.562,-6.62891
 L 765.604,-6.47754 L 765.639,-6.32429 L 765.665,-6.16954 L 765.685,-6.01365 L 765.696,-5.85702 L 765.7,-5.7
 L 765.696,-5.54298 L 765.685,-5.38635 L 765.665,-5.23046 L 765.639,-5.07571 L 765.604,-4.92246 L 765.562,-4.77109
 L 765.513,-4.62195 L 765.456,-4.47541 L 765.393,-4.33182 L 765.322,-4.19153 L 765.245,-4.05487 L 765.161,-3.92218
 L 765.07,-3.79376 L 764.974,-3.66994 L 764.871,-3.55101 L 764.763,-3.43726 L 764.649,-3.32896 L 764.53,-3.22637
 L 764.406,-3.12974 L 764.278,-3.0393 L 764.145,-2.95527 L 764.008,-2.87785 L 763.868,-2.80723 L 763.725,-2.74359
 L 763.578,-2.68706 L 763.429,-2.63779 L 763.278,-2.5959 L 763.124,-2.56149 L 762.97,-2.53464 L 762.814,-2.51541
 L 762.657,-2.50385 L 762.5,-2.5 z
M -62.657,9.49615 L -62.8137,9.48459 L -62.9695,9.46536 L -63.1243,9.43851 L -63.2775,9.4041 L -63.4289,9.36221
 L -63.578,9.31294 L -63.7246,9.25641 L -63.8682,9.19277 L -64.0085,9.12215 L -64.1451,9.04473 L -64.2778,8.9607
 L -64.4062,8.87026 L -64.5301,8.77363 L -64.649,8.67104 L -64.7627,8.56274 L -64.871,8.44899 L -64.9736,8.33006
 L -65.0703,8.20624 L -65.1607,8.07782 L -65.2447,7.94513 L -65.3221,7.80847 L -65.3928,7.66818 L -65.4564,7.52459
 L -65.5129,7.37805 L -65.5622,7.22891 L -65.6041,7.07754 L -65.6385,6.92429 L -65.6654,6.76954 L -65.6846,6.61365
 L -65.6961,6.45702 L -65.7,6.3 L -65.6961,6.14298 L -65.6846,5.98635 L -65.6654,5.83046 L -65.6385,5.67571
 L -65.6041,5.52246 L -65.5622,5.37109 L -65.5129,5.22195 L -65.4564,5.07541 L -65.3928,4.93182 L -65.3221,4.79153
 L -65.2447,4.65487 L -65.1607,4.52218 L -65.0703,4.39376 L -64.9736,4.26994 L -64.871,4.15101 L -64.7627,4.03726
 L -64.649,3.92896 L -64.5301,3.82637 L -64.4062,3.72974 L -64.2778,3.6393 L -64.1451,3.55527 L -64.0085,3.47785
 L -63.8682,3.40723 L -63.7246,3.34359 L -63.578,3.28706 L -63.4289,3.23779 L -63.2775,3.1959 L -63.1243,3.16149
 L -62.9695,3.13464 L -62.8137,3.11541 L -62.657,3.10385 L -62.5,3.1 L -62.343,3.10385 L -62.1863,3.11541
 L -62.0305,3.13464 L -61.8757,3.16149 L -61.7225,3.1959 L -61.5711,3.23779 L -61.422,3.28706 L -61.2754,3.34359
 L -61.1318,3.40723 L -60.9915,3.47785 L -60.8549,3.55527 L -60.7222,3.6393 L -60.5938,3.72974 L -60.4699,3.82637
 L -60.351,3.92896 L -60.2373,4.03726 L -60.129,4.15101 L -60.0264,4.26994 L -59.9297,4.39376 L -59.8393,4.52218
 L -59.7553,4.65487 L -59.6779,4.79153 L -59.6072,4.93182 L -59.5436,5.07541 L -59.4871,5.22195 L -59.4378,5.37109
 L -59.3959,5.52246 L -59.3615,5.67571 L -59.3346,5.83046 L -59.3154,5.98635 L -59.3039,6.14298 L -59.3,6.3
 L -59.3039,6.45702 L -59.3154,6.61365 L -59.3346,6.76954 L -59.3615,6.92429 L -59.3959,7.07754 L -59.4378,7.22891
 L -59.4871,7.37805 L -59.5436,7.52459 L -59.6072,7.66818 L -59.6779,7.80847 L -59.7553,7.94513 L -59.8393,8.07782
 L -59.9297,8.20624 L -60.0264,8.33006 L -60.129,8.44899 L -60.2373,8.56274 L -60.351,8.67104 L -60.4699,8.77363
 L -60.5938,8.87026 L -60.7222,8.9607 L -60.8549,9.04473 L -60.9915,9.12215 L -61.1318,9.19277 L -61.2754,9.25641
 L -61.422,9.31294 L -61.5711,9.36221 L -61.7225,9.4041 L -61.8757,9.43851 L -62.0305,9.46536 L -62.1863,9.48459
 L -62.343,9.49615 L -62.5,9.5 z
M 762.343,9.49615 L 762.186,9.48459 L 762.03,9.46536 L 761.876,9.43851 L 761.722,9.4041 L 761.571,9.36221
 L 761.422,9.31294 L 761.275,9.25641 L 761.132,9.19277 L 760.992,9.12215 L 760.855,9.04473 L 760.722,8.9607
 L 760.594,8.87026 L 760.47,8.77363 L 760.351,8.67104 L 760.237,8.56274 L 760.129,8.44899 L 760.026,8.33006
 L 759.93,8.20624 L 759.839,8.07782 L 759.755,7.94513 L 759.678,7.80847 L 759.607,7.66818 L 759.544,7.52459
 L 759.487,7.37805 L 759.438,7.22891 L 759.396,7.07754 L 759.361,6.92429 L 759.335,6.76954 L 759.315,6.61365
 L 759.304,6.45702 L 759.3,6.3 L 759.304,6.14298 L 759.315,5.98635 L 759.335,5.83046 L 759.361,5.67571
 L 759.396,5.52246 L 759.438,5.37109 L 759.487,5.22195 L 759.544,5.07541 L 759.607,4.93182 L 759.678,4.79153
 L 759.755,4.65487 L 759.839,4.52218 L 759.93,4.39376 L 760.026,4.26994 L 760.129,4.15101 L 760.237,4.03726
 L 760.351,3.92896 L 760.47,3.82637 L 760.594,3.72974 L 760.722,3.6393 L 760.855,3.55527 L 760.992,3.47785
 L 761.132,3.40723 L 761.275,3.34359 L 761.422,3.28706 L 761.571,3.23779 L 761.722,3.1959 L 761.876,3.16149
 L 762.03,3.13464 L 762.186,3.11541 L 762.343,3.10385 L 762.5,3.1 L 762.657,3.10385 L 762.814,3.11541
 L 762.97,3.13464 L 763.124,3.16149 L 763.278,3.1959 L 763.429,3.23779 L 763.578,3.28706 L 763.725,3.34359
 L 763.868,3.40723 L 764.008,3.47785 L 764.145,3.55527 L 764.278,3.6393 L 764.406,3.72974 L 764.53,3.82637
 L 764.649,3.92896 L 764.763,4.03726 L 764.871,4.15101 L 764.974,4.26994 L 765.07,4.39376 L 765.161,4.52218
 L 765.245,4.65487 L 765.322,4.79153 L 765.393,4.93182 L 765.456,5.07541 L 765.513,5.22195 L 765.562,5.37109
 L 765.604,5.52246 L 765.639,5.67571 L 765.665,5.83046 L 765.685,5.98635 L 765.696,6.14298 L 765.7,6.3
 L 765.696,6.45702 L 765.685,6.61365 L 765.665,6.76954 L 765.639,6.92429 L 765.604,7.07754 L 765.562,7.22891
 L 765.513,7.37805 L 765.456,7.52459 L 765.393,7.66818 L 765.322,7.80847 L 765.245,7.94513 L 765.161,8.07782
 L 765.07,8.20624 L 764.974,8.33006 L 764.871,8.44899 L 764.763,8.56274 L 764.649,8.67104 L 764.53,8.77363
 L 764.406,8.87026 L 764.278,8.9607 L 764.145,9.04473 L 764.008,9.12215 L 763.868,9.19277 L 763.725,9.25641
 L 763.578,9.31294 L 763.429,9.36221 L 763.278,9.4041 L 763.124,9.43851 L 762.97,9.46536 L 762.814,9.48459
 L 762.657,9.49615 L 762.5,9.5 z
M -62.657,29.4961 L -62.8137,29.4846 L -62.9695,29.4654 L -63.1243,29.4385 L -63.2775,29.4041 L -63.4289,29.3622
 L -63.578,29.3129 L -63.7246,29.2564 L -63.8682,29.1928 L -64.0085,29.1221 L -64.1451,29.0447 L -64.2778,28.9607
 L -64.4062,28.8703 L -64.5301,28.7736 L -64.649,28.671 L -64.7627,28.5627 L -64.871,28.449 L -64.9736,28.3301
 L -65.0703,28.2062 L -65.1607,28.0778 L -65.2447,27.9451 L -65.3221,27.8085 L -65.3928,27.6682 L -65.4564,27.5246
 L -65.5129,27.378 L -65.5622,27.2289 L -65.6041,27.0775 L -65.6385,26.9243 L -65.6654,26.7695 L -65.6846,26.6137
 L -65.6961,26.457 L -65.7,26.3 L -65.6961,26.143 L -65.6846,25.9863 L -65.6654,25.8305 L -65.6385,25.6757
 L -65.6041,25.5225 L -65.5622,25.3711 L -65.5129,25.222 L -65.4564,25.0754 L -65.3928,24.9318 L -65.3221,24.7915
 L -65.2447,24.6549 L -65.1607,24.5222 L -65.0703,24.3938 L -64.9736,24.2699 L -64.871,24.151 L -64.7627,24.0373
 L -64.649,23.929 L -64.5301,23.8264 L -64.4062,23.7297 L -64.2778,23.6393 L -64.1451,23.5553 L -64.0085,23.4779
 L -63.8682,23.4072 L -63.7246,23.3436 L -63.578,23.2871 L -63.4289,23.2378 L -63.2775,23.1959 L -63.1243,23.1615
 L -62.9695,23.1346 L -62.8137,23.1154 L -62.657,23.1039 L -62.5,23.1 L -62.343,23.1039 L -62.1863,23.1154
 L -62.0305,23.1346 L -61.8757,23.1615 L -61.7225,23.1959 L -61.5711,23.2378 L -61.422,23.2871 L -61.2754,23.3436
 L -61.1318,23.4072 L -60.9915,23.4779 L -60.8549,23.5553 L -60.7222,23.6393 L -60.5938,23.7297 L -60.4699,23.8264
 L -60.351,23.929 L -60.2373,24.0373 L -60.129,24.151 L -60.0264,24.2699 L -59.9297,24.3938 L -59.8393,24.5222
 L -59.7553,24.6549 L -59.6779,24.7915 L -59.6072,24.9318 L -59.5436,25.0754 L -59.4871,25.222 L -59.4378,25.3711
 L -59.3959,25.5225 L -59.3615,25.6757 L -59.3346,25.8305 L -59.3154,25.9863 L -59.3039,26.143 L -59.3,26.3
 L -59.3039,26.457 L -59.3154,26.6137 L -59.3346,26.7695 L -59.3615,26.9243 L -59.3959,27.0775 L -59.4378,27.2289
 L -59.4871,27.378 L -59.5436,27.5246 L -59.6072,27.6682 L -59.6779,27.8085 L -59.7553,27.9451 L -59.8393,28.0778
 L -59.9297,28.2062 L -60.0264,28.3301 L -60.129,28.449 L -60.2373,28.5627 L -60.351,28.671 L -60.4699,28.7736
 L -60.5938,28.8703 L -60.7222,28.9607 L -60.8549,29.0447 L -60.9915,29.1221 L -61.1318,29.1928 L -61.2754,29.2564
 L -61.422,29.3129 L -61.5711,29.3622 L -61.7225,29.4041 L -61.8757,29.4385 L -62.0305,29.4654 L -62.1863,29.4846
 L -62.343,29.4961 L -62.5,29.5 z
M 762.343,29.4961 L 762.186,29.4846 L 762.03,29.4654 L 761.876,29.4385 L 761.722,29.4041 L 761.571,29.3622
 L 761.422,29.3129 L 761.275,29.2564 L 761.132,29.1928 L 760.992,29.1221 L 760.855,29.0447 L 760.722,28.9607
 L 760.594,28.8703 L 760.47,28.7736 L 760.351,28.671 L 760.237,28.5627 L 760.129,28.449 L 760.026,28.3301
 L 759.93,28.2062 L 759.839,28.0778 L 759.755,27.9451 L 759.678,27.8085 L 759.607,27.6682 L 759.544,27.5246
 L 759.487,27.378 L 759.438,27.2289 L 759.396,27.0775 L 759.361,26.9243 L 759.335,26.7695 L 759.315,26.6137
 L 759.304,26.457 L 759.3,26.3 L 759.304,26.143 L 759.315,25.9863 L 759.335,25.8305 L 759.361,25.6757
 L 759.396,25.5225 L 759.438,25.3711 L 759.487,25.222 L 759.544,25.0754 L 759.607,24.9318 L 759.678,24.7915
 L 759.755,24.6549 L 759.839,24.5222 L 759.93,24.3938 L 760.026,24.2699 L 760.129,24.151 L 760.237,24.0373
 L 760.351,23.929 L 760.47,23.8264 L 760.594,23.7297 L 760.722,23.6393 L 760.855,23.5553 L 760.992,23.4779
 L 761.132,23.4072 L 761.275,23.3436 L 761.422,23.2871 L 761.571,23.2378 L 761.722,23.1959 L 761.876,23.1615
 L 762.03,23.1346 L 762.186,23.1154 L 762.343,23.1039 L 762.5,23.1 L 762.657,23.1039 L 762.814,23.1154
 L 762.97,23.1346 L 763.124,23.1615 L 763.278,23.1959 L 763.429,23.2378 L 763.578,23.2871 L 763.725,23.3436
 L 763.868,23.4072 L 764.008,23.4779 L 764.145,23.5553 L 764.278,23.6393 L 764.406,23.7297 L 764.53,23.8264
 L 764.649,23.929 L 764.763,24.0373 L 764.871,24.151 L 764.974,24.2699 L 765.07,24.3938 L 765.161,24.5222
 L 765.245,24.6549 L 765.322,24.7915 L 765.393,24.9318 L 765.456,25.0754 L 765.513,25.222 L 765.562,25.3711
 L 765.604,25.5225 L 765.639,25.6757 L 765.665,25.8305 L 765.685,25.9863 L 765.696,26.143 L 765.7,26.3
 L 765.696,26.457 L 765.685,26.6137 L 765.665,26.7695 L 765.639,26.9243 L 765.604,27.0775 L 765.562,27.2289
 L 765.513,27.378 L 765.456,27.5246 L 765.393,27.6682 L 765.322,27.8085 L 765.245,27.9451 L 765.161,28.0778
 L 765.07,28.2062 L 764.974,28.3301 L 764.871,28.449 L 764.763,28.5627 L 764.649,28.671 L 764.53,28.7736
 L 764.406,28.8703 L 764.278,28.9607 L 764.145,29.0447 L 764.008,29.1221 L 763.868,29.1928 L 763.725,29.2564
 L 763.578,29.3129 L 763.429,29.3622 L 763.278,29.4041 L 763.124,29.4385 L 762.97,29.4654 L 762.814,29.4846
 L 762.657,29.4961 L 762.5,29.5 z
M 349.902,31.4976 L 349.804,31.4904 L 349.707,31.4784 L 349.61,31.4616 L 349.514,31.4401 L 349.419,31.4139
 L 349.326,31.3831 L 349.235,31.3478 L 349.145,31.308 L 349.057,31.2638 L 348.972,31.2155 L 348.889,31.1629
 L 348.809,31.1064 L 348.731,31.046 L 348.657,30.9819 L 348.586,30.9142 L 348.518,30.8431 L 348.454,30.7688
 L 348.394,30.6914 L 348.337,30.6111 L 348.285,30.5282 L 348.236,30.4428 L 348.192,30.3551 L 348.152,30.2654
 L 348.117,30.1738 L 348.086,30.0806 L 348.06,29.986 L 348.038,29.8902 L 348.022,29.7935 L 348.01,29.696
 L 348.002,29.5981 L 348,29.5 L 348.002,29.4019 L 348.01,29.304 L 348.022,29.2065 L 348.038,29.1098
 L 348.06,29.014 L 348.086,28.9194 L 348.117,28.8262 L 348.152,28.7346 L 348.192,28.6449 L 348.236,28.5572
 L 348.285,28.4718 L 348.337,28.3889 L 348.394,28.3086 L 348.454,28.2312 L 348.518,28.1569 L 348.586,28.0858
 L 348.657,28.0181 L 348.731,27.954 L 348.809,27.8936 L 348.889,27.8371 L 348.972,27.7845 L 349.057,27.7362
 L 349.145,27.692 L 349.235,27.6522 L 349.326,27.6169 L 349.419,27.5861 L 349.514,27.5599 L 349.61,27.5384
 L 349.707,27.5216 L 349.804,27.5096 L 349.902,27.5024 L 350,27.5 L 350.098,27.5024 L 350.196,27.5096
 L 350.293,27.5216 L 350.39,27.5384 L 350.486,27.5599 L 350.581,27.5861 L 350.674,27.6169 L 350.765,27.6522
 L 350.855,27.692 L 350.943,27.7362 L 351.028,27.7845 L 351.111,27.8371 L 351.191,27.8936 L 351.269,27.954
 L 351.343,28.0181 L 351.414,28.0858 L 351.482,28.1569 L 351.546,28.2312 L 351.606,28.3086 L 351.663,28.3889
 L 351.715,28.4718 L 351.764,28.5572 L 351.808,28.6449 L 351.848,28.7346 L 351.883,28.8262 L 351.914,28.9194
 L 351.94,29.014 L 351.962,29.1098 L 351.978,29.2065 L 351.99,29.304 L 351.998,29.4019 L 352,29.5
 L 351.998,29.5981 L 351.99,29.696 L 351.978,29.7935 L 351.962,29.8902 L 351.94,29.986 L 351.914,30.0806
 L 351.883,30.1738 L 351.848,30.2654 L 351.808,30.3551 L 351.764,30.4428 L 351.715,30.5282 L 351.663,30.6111
 L 351.606,30.6914 L 351.546,30.7688 L 351.482,30.8431 L 351.414,30.9142 L 351.343,30.9819 L 351.269,31.046
 L 351.191,31.1064 L 351.111,31.1629 L 351.028,31.2155 L 350.943,31.2638 L 350.855,31.308 L 350.765,31.3478
 L 350.674,31.3831 L 350.581,31.4139 L 350.486,31.4401 L 350.39,31.4616 L 350.293,31.4784 L 350.196,31.4904
 L 350.098,31.4976 L 350,31.5 z
M -62.603,64.5975 L -62.7058,64.5899 L -62.8081,64.5773 L -62.9097,64.5596 L -63.0103,64.5371 L -63.1096,64.5096
 L -63.2075,64.4772 L -63.3036,64.4401 L -63.3979,64.3984 L -63.4899,64.352 L -63.5796,64.3012 L -63.6667,64.2461
 L -63.751,64.1867 L -63.8322,64.1233 L -63.9103,64.056 L -63.9849,63.9849 L -64.056,63.9103 L -64.1233,63.8322
 L -64.1867,63.751 L -64.2461,63.6667 L -64.3012,63.5796 L -64.352,63.4899 L -64.3984,63.3979 L -64.4401,63.3036
 L -64.4772,63.2075 L -64.5096,63.1096 L -64.5371,63.0103 L -64.5596,62.9097 L -64.5773,62.8081 L -64.5899,62.7058
 L -64.5975,62.603 L -64.6,62.5 L -64.5975,62.397 L -64.5899,62.2942 L -64.5773,62.1919 L -64.5596,62.0903
 L -64.5371,61.9897 L -64.5096,61.8904 L -64.4772,61.7925 L -64.4401,61.6964 L -64.3984,61.6021 L -64.352,61.5101
 L -64.3012,61.4204 L -64.2461,61.3333 L -64.1867,61.249 L -64.1233,61.1678 L -64.056,61.0897 L -63.9849,61.0151
 L -63.9103,60.944 L -63.8322,60.8767 L -63.751,60.8133 L -63.6667,60.7539 L -63.5796,60.6988 L -63.4899,60.648
 L -63.3979,60.6016 L -63.3036,60.5599 L -63.2075,60.5228 L -63.1096,60.4904 L -63.0103,60.4629 L -62.9097,60.4404
 L -62.8081,60.4227 L -62.7058,60.4101 L -62.603,60.4025 L -62.5,60.4 L -62.397,60.4025 L -62.2942,60.4101
 L -62.1919,60.4227 L -62.0903,60.4404 L -61.9897,60.4629 L -61.8904,60.4904 L -61.7925,60.5228 L -61.6964,60.5599
 L -61.6021,60.6016 L -61.5101,60.648 L -61.4204,60.6988 L -61.3333,60.7539 L -61.249,60.8133 L -61.1678,60.8767
 L -61.0897,60.944 L -61.0151,61.0151 L -60.944,61.0897 L -60.8767,61.1678 L -60.8133,61.249 L -60.7539,61.3333
 L -60.6988,61.4204 L -60.648,61.5101 L -60.6016,61.6021 L -60.5599,61.6964 L -60.5228,61.7925 L -60.4904,61.8904
 L -60.4629,61.9897 L -60.4404,62.0903 L -60.4227,62.1919 L -60.4101,62.2942 L -60.4025,62.397 L -60.4,62.5
 L -60.4025,62.603 L -60.4101,62.7058 L -60.4227,62.8081 L -60.4404,62.9097 L -60.4629,63.0103 L -60.4904,63.1096
 L -60.5228,63.2075 L -60.5599,63.3036 L -60.6016,63.3979 L -60.648,63.4899 L -60.6988,63.5796 L -60.7539,63.6667
 L -60.8133,63.751 L -60.8767,63.8322 L -60.944,63.9103 L -61.0151,63.9849 L -61.0897,64.056 L -61.1678,64.1233
 L -61.249,64.1867 L -61.3333,64.2461 L -61.4204,64.3012 L -61.5101,64.352 L -61.6021,64.3984 L -61.6964,64.4401
 L -61.7925,64.4772 L -61.8904,64.5096 L -61.9897,64.5371 L -62.0903,64.5596 L -62.1919,64.5773 L -62.2942,64.5899
 L -62.397,64.5975 L -62.5,64.6 z
M 49.897,64.5975 L 49.7942,64.5899 L 49.6919,64.5773 L 49.5903,64.5596 L 49.4897,64.5371 L 49.3904,64.5096
 L 49.2925,64.4772 L 49.1964,64.4401 L 49.1021,64.3984 L 49.0101,64.352 L 48.9204,64.3012 L 48.8333,64.2461
 L 48.749,64.1867 L 48.6678,64.1233 L 48.5897,64.056 L 48.5151,63.9849 L 48.444,63.9103 L 48.3767,63.8322
 L 48.3133,63.751 L 48.2539,63.6667 L 48.1988,63.5796 L 48.148,63.4899 L 48.1016,63.3979 L 48.0599,63.3036
 L 48.0228,63.2075 L 47.9904,63.1096 L 47.9629,63.0103 L 47.9404,62.9097 L 47.9227,62.8081 L 47.9101,62.7058
 L 47.9025,62.603 L 47.9,62.5 L 47.9025,62.397 L 47.9101,62.2942 L 47.9227,62.1919 L 47.9404,62.0903
 L 47.9629,61.9897 L 47.9904,61.8904 L 48.0228,61.7925 L 48.0599,61.6964 L 48.1016,61.6021 L 48.148,61.5101
 L 48.1988,61.4204 L 48.2539,61.3333 L 48.3133,61.249 L 48.3767,61.1678 L 48.444,61.0897 L 48.5151,61.0151
 L 48.5897,60.944 L 48.6678,60.8767 L 48.749,60.8133 L 48.8333,60.7539 L 48.9204,60.6988 L 49.0101,60.648
 L 49.1021,60.6016 L 49.1964,60.5599 L 49.2925,60.5228 L 49.3904,60.4904 L 49.4897,60.4629 L 49.5903,60.4404
 L 49.6919,60.4227 L 49.7942,60.4101 L 49.897,60.4025 L 50,60.4 L 50.103,60.4025 L 50.2058,60.4101
 L 50.3081,60.4227 L 50.4097,60.4404 L 50.5103,60.4629 L 50.6096,60.4904 L 50.7075,60.5228 L 50.8036,60.5599
 L 50.8979,60.6016 L 50.9899,60.648 L 51.0796,60.6988 L 51.1667,60.7539 L 51.251,60.8133 L 51.3322,60.8767
 L 51.4103,60.944 L 51.4849,61.0151 L 51.556,61.0897 L 51.6233,61.1678 L 51.6867,61.249 L 51.7461,61.3333
 L 51.8012,61.4204 L 51.852,61.5101 L 51.8984,61.6021 L 51.9401,61.6964 L 51.9772,61.7925 L 52.0096,61.8904
 L 52.0371,61.9897 L 52.0596,62.0903 L 52.0773,62.1919 L 52.0899,62.2942 L 52.0975,62.397 L 52.1,62.5
 L 52.0975,62.603 L 52.0899,62.7058 L 52.0773,62.8081 L 52.0596,62.9097 L 52.0371,63.0103 L 52.0096,63.1096
 L 51.9772,63.2075 L 51.9401,63.3036 L 51.8984,63.3979 L 51.852,63.4899 L 51.8012,63.5796 L 51.7461,63.6667
 L 51.6867,63.751 L 51.6233,63.8322 L 51.556,63.9103 L 51.4849,63.9849 L 51.4103,64.056 L 51.3322,64.1233
 L 51.251,64.1867 L 51.1667,64.2461 L 51.0796,64.3012 L 50.9899,64.352 L 50.8979,64.3984 L 50.8036,64.4401
 L 50.7075,64.4772 L 50.6096,64.5096 L 50.5103,64.5371 L 50.4097,64.5596 L 50.3081,64.5773 L 50.2058,64.5899
 L 50.103,64.5975 L 50,64.6 z
M 149.897,64.5975 L 149.794,64.5899 L 149.692,64.5773 L 149.59,64.5596 L 149.49,64.5371 L 149.39,64.5096
 L 149.293,64.4772 L 149.196,64.4401 L 149.102,64.3984 L 149.01,64.352 L 148.92,64.3012 L 148.833,64.2461
 L 148.749,64.1867 L 148.668,64.1233 L 148.59,64.056 L 148.515,63.9849 L 148.444,63.9103 L 148.377,63.8322
 L 148.313,63.751 L 148.254,63.6667 L 148.199,63.5796 L 148.148,63.4899 L 148.102,63.3979 L 148.06,63.3036
 L 148.023,63.2075 L 147.99,63.1096 L 147.963,63.0103 L 147.94,62.9097 L 147.923,62.8081 L 147.91,62.7058
 L 147.903,62.603 L 147.9,62.5 L 147.903,62.397 L 147.91,62.2942 L 147.923,62.1919 L 147.94,62.0903
 L 147.963,61.9897 L 147.99,61.8904 L 148.023,61.7925 L 148.06,61.6964 L 148.102,61.6021 L 148.148,61.5101
 L 148.199,61.4204 L 148.254,61.3333 L 148.313,61.249 L 148.377,61.1678 L 148.444,61.0897 L 148.515,61.0151
 L 148.59,60.944 L 148.668,60.8767 L 148.749,60.8133 L 148.833,60.7539 L 148.92,60.6988 L 149.01,60.648
 L 149.102,60.6016 L 149.196,60.5599 L 149.293,60.5228 L 149.39,60.4904 L 149.49,60.4629 L 149.59,60.4404
 L 149.692,60.4227 L 149.794,60.4101 L 149.897,60.4025 L 150,60.4 L 150.103,60.4025 L 150.206,60.4101
 L 150.308,60.4227 L 150.41,60.4404 L 150.51,60.4629 L 150.61,60.4904 L 150.707,60.5228 L 150.804,60.5599
 L 150.898,60.6016 L 150.99,60.648 L 151.08,60.6988 L 151.167,60.7539 L 151.251,60.8133 L 151.332,60.8767
 L 151.41,60.944 L 151.485,61.0151 L 151.556,61.0897 L 151.623,61.1678 L 151.687,61.249 L 151.746,61.3333
 L 151.801,61.4204 L 151.852,61.5101 L 151.898,61.6021 L 151.94,61.6964 L 151.977,61.7925 L 152.01,61.8904
 L 152.037,61.9897 L 152.06,62.0903 L 152.077,62.1919 L 152.09,62.2942 L 152.097,62.397 L 152.1,62.5
 L 152.097,62.603 L 152.09,62.7058 L 152.077,62.8081 L 152.06,62.9097 L 152.037,63.0103 L 152.01,63.1096
 L 151.977,63.2075 L 151.94,63.3036 L 151.898,63.3979 L 151.852,63.4899 L 151.801,63.5796 L 151.746,63.6667
 L 151.687,63.751 L 151.623,63.8322 L 151.556,63.9103 L 151.485,63.9849 L 151.41,64.056 L 151.332,64.1233
 L 151.251,64.1867 L 151.167,64.2461 L 151.08,64.3012 L 150.99,64.352 L 150.898,64.3984 L 150.804,64.4401
 L 150.707,64.4772 L 150.61,64.5096 L 150.51,64.5371 L 150.41,64.5596 L 150.308,64.5773 L 150.206,64.5899
 L 150.103,64.5975 L 150,64.6 z
M 249.897,64.5975 L 249.794,64.5899 L 249.692,64.5773 L 249.59,64.5596 L 249.49,64.5371 L 249.39,64.5096
 L 249.293,64.4772 L 249.196,64.4401 L 249.102,64.3984 L 249.01,64.352 L 248.92,64.3012 L 248.833,64.2461
 L 248.749,64.1867 L 248.668,64.1233 L 248.59,64.056 L 248.515,63.9849 L 248.444,63.9103 L 248.377,63.8322
 L 248.313,63.751 L 248.254,63.6667 L 248.199,63.5796 L 248.148,63.4899 L 248.102,63.3979 L 248.06,63.3036
 L 248.023,63.2075 L 247.99,63.1096 L 247.963,63.0103 L 247.94,62.9097 L 247.923,62.8081 L 247.91,62.7058
 L 247.903,62.603 L 247.9,62.5 L 247.903,62.397 L 247.91,62.2942 L 247.923,62.1919 L 247.94,62.0903
 L 247.963,61.9897 L 247.99,61.8904 L 248.023,61.7925 L 248.06,61.6964 L 248.102,61.6021 L 248.148,61.5101
 L 248.199,61.4204 L 248.254,61.3333 L 248.313,61.249 L 248.377,61.1678 L 248.444,61.0897 L 248.515,61.0151
 L 248.59,60.944 L 248.668,60.8767 L 248.749,60.8133 L 248.833,60.7539 L 248.92,60.6988 L 249.01,60.648
 L 249.102,60.6016 L 249.196,60.5599 L 249.293,60.5228 L 249.39,60.4904 L 249.49,60.4629 L 249.59,60.4404
 L 249.692,60.4227 L 249.794,60.4101 L 249.897,60.4025 L 250,60.4 L 250.103,60.4025 L 250.206,60.4101
 L 250.308,60.4227 L 250.41,60.4404 L 250.51,60.4629 L 250.61,60.4904 L 250.707,60.5228 L 250.804,60.5599
 L 250.898,60.6016 L 250.99,60.648 L 251.08,60.6988 L 251.167,60.7539 L 251.251,60.8133 L 251.332,60.8767
 L 251.41,60.944 L 251.485,61.0151 L 251.556,61.0897 L 251.623,61.1678 L 251.687,61.249 L 251.746,61.3333
 L 251.801,61.4204 L 251.852,61.5101 L 251.898,61.6021 L 251.94,61.6964 L 251.977,61.7925 L 252.01,61.8904
 L 252.037,61.9897 L 252.06,62.0903 L 252.077,62.1919 L 252.09,62.2942 L 252.097,62.397 L 252.1,62.5
 L 252.097,62.603 L 252.09,62.7058 L 252.077,62.8081 L 252.06,62.9097 L 252.037,63.0103 L 252.01,63.1096
 L 251.977,63.2075 L 251.94,63.3036 L 251.898,63.3979 L 251.852,63.4899 L 251.801,63.5796 L 251.746,63.6667
 L 251.687,63.751 L 251.623,63.8322 L 251.556,63.9103 L 251.485,63.9849 L 251.41,64.056 L 251.332,64.1233
 L 251.251,64.1867 L 251.167,64.2461 L 251.08,64.3012 L 250.99,64.352 L 250.898,64.3984 L 250.804,64.4401
 L 250.707,64.4772 L 250.61,64.5096 L 250.51,64.5371 L 250.41,64.5596 L 250.308,64.5773 L 250.206,64.5899
 L 250.103,64.5975 L 250,64.6 z
M 449.897,64.5975 L 449.794,64.5899 L 449.692,64.5773 L 449.59,64.5596 L 449.49,64.5371 L 449.39,64.5096
 L 449.293,64.4772 L 449.196,64.4401 L 449.102,64.3984 L 449.01,64.352 L 448.92,64.3012 L 448.833,64.2461
 L 448.749,64.1867 L 448.668,64.1233 L 448.59,64.056 L 448.515,63.9849 L 448.444,63.9103 L 448.377,63.8322
 L 448.313,63.751 L 448.254,63.6667 L 448.199,63.5796 L 448.148,63.4899 L 448.102,63.3979 L 448.06,63.3036
 L 448.023,63.2075 L 447.99,63.1096 L 447.963,63.0103 L 447.94,62.9097 L 447.923,62.8081 L 447.91,62.7058
 L 447.903,62.603 L 447.9,62.5 L 447.903,62.397 L 447.91,62.2942 L 447.923,62.1919 L 447.94,62.0903
 L 447.963,61.9897 L 447.99,61.8904 L 448.023,61.7925 L 448.06,61.6964 L 448.102,61.6021 L 448.148,61.5101
 L 448.199,61.4204 L 448.254,61.3333 L 448.313,61.249 L 448.377,61.1678 L 448.444,61.0897 L 448.515,61.0151
 L 448.59,60.944 L 448.668,60.8767 L 448.749,60.8133 L 448.833,60.7539 L 448.92,60.6988 L 449.01,60.648
 L 449.102,60.6016 L 449.196,60.5599 L 449.293,60.5228 L 449.39,60.4904 L 449.49,60.4629 L 449.59,60.4404
 L 449.692,60.4227 L 449.794,60.4101 L 449.897,60.4025 L 450,60.4 L 450.103,60.4025 L 450.206,60.4101
 L 450.308,60.4227 L 450.41,60.4404 L 450.51,60.4629 L 450.61,60.4904 L 450.707,60.5228 L 450.804,60.5599
 L 450.898,60.6016 L 450.99,60.648 L 451.08,60.6988 L 451.167,60.7539 L 451.251,60.8133 L 451.332,60.8767
 L 451.41,60.944 L 451.485,61.0151 L 451.556,61.0897 L 451.623,61.1678 L 451.687,61.249 L 451.746,61.3333
 L 451.801,61.4204 L 451.852,61.5101 L 451.898,61.6021 L 451.94,61.6964 L 451.977,61.7925 L 452.01,61.8904
 L 452.037,61.9897 L 452.06,62.0903 L 452.077,62.1919 L 452.09,62.2942 L 452.097,62.397 L 452.1,62.5
 L 452.097,62.603 L 452.09,62.7058 L 452.077,62.8081 L 452.06,62.9097 L 452.037,63.0103 L 452.01,63.1096
 L 451.977,63.2075 L 451.94,63.3036 L 451.898,63.3979 L 451.852,63.4899 L 451.801,63.5796 L 451.746,63.6667
 L 451.687,63.751 L 451.623,63.8322 L 451.556,63.9103 L 451.485,63.9849 L 451.41,64.056 L 451.332,64.1233
 L 451.251,64.1867 L 451.167,64.2461 L 451.08,64.3012 L 450.99,64.352 L 450.898,64.3984 L 450.804,64.4401
 L 450.707,64.4772 L 450.61,64.5096 L 450.51,64.5371 L 450.41,64.5596 L 450.308,64.5773 L 450.206,64.5899
 L 450.103,64.5975 L 450,64.6 z
M 549.897,64.5975 L 549.794,64.5899 L 549.692,64.5773 L 549.59,64.5596 L 549.49,64.5371 L 549.39,64.5096
 L 549.293,64.4772 L 549.196,64.4401 L 549.102,64.3984 L 549.01,64.352 L 548.92,64.3012 L 548.833,64.2461
 L 548.749,64.1867 L 548.668,64.1233 L 548.59,64.056 L 548.515,63.9849 L 548.444,63.9103 L 548.377,63.8322
 L 548.313,63.751 L 548.254,63.6667 L 548.199,63.5796 L 548.148,63.4899 L 548.102,63.3979 L 548.06,63.3036
 L 548.023,63.2075 L 547.99,63.1096 L 547.963,63.0103 L 547.94,62.9097 L 547.923,62.8081 L 547.91,62.7058
 L 547.903,62.603 L 547.9,62.5 L 547.903,62.397 L 547.91,62.2942 L 547.923,62.1919 L 547.94,62.0903
 L 547.963,61.9897 L 547.99,61.8904 L 548.023,61.7925 L 548.06,61.6964 L 548.102,61.6021 L 548.148,61.5101
 L 548.199,61.4204 L 548.254,61.3333 L 548.313,61.249 L 548.377,61.1678 L 548.444,61.0897 L 548.515,61.0151
 L 548.59,60.944 L 548.668,60.8767 L 548.749,60.8133 L 548.833,60.7539 L 548.92,60.6988 L 549.01,60.648
 L 549.102,60.6016 L 549.196,60.5599 L 549.293,60.5228 L 549.39,60.4904 L 549.49,60.4629 L 549.59,60.4404
 L 549.692,60.4227 L 549.794,60.4101 L 549.897,60.4025 L 550,60.4 L 550.103,60.4025 L 550.206,60.4101
 L 550.308,60.4227 L 550.41,60.4404 L 550.51,60.4629 L 550.61,60.4904 L 550.707,60.5228 L 550.804,60.5599
 L 550.898,60.6016 L 550.99,60.648 L 551.08,60.6988 L 551.167,60.7539 L 551.251,60.8133 L 551.332,60.8767
 L 551.41,60.944 L 551.485,61.0151 L 551.556,61.0897 L 551.623,61.1678 L 551.687,61.249 L 551.746,61.3333
 L 551.801,61.4204 L 551.852,61.5101 L 551.898,61.6021 L 551.94,61.6964 L 551.977,61.7925 L 552.01,61.8904
 L 552.037,61.9897 L 552.06,62.0903 L 552.077,62.1919 L 552.09,62.2942 L 552.097,62.397 L 552.1,62.5
 L 552.097,62.603 L 552.09,62.7058 L 552.077,62.8081 L 552.06,62.9097 L 552.037,63.0103 L 552.01,63.1096
 L 551.977,63.2075 L 551.94,63.3036 L 551.898,63.3979 L 551.852,63.4899 L 551.801,63.5796 L 551.746,63.6667
 L 551.687,63.751 L 551.623,63.8322 L 551.556,63.9103 L 551.485,63.9849 L 551.41,64.056 L 551.332,64.1233
 L 551.251,64.1867 L 551.167,64.2461 L 551.08,64.3012 L 550.99,64.352 L 550.898,64.3984 L 550.804,64.4401
 L 550.707,64.4772 L 550.61,64.5096 L 550.51,64.5371 L 550.41,64.5596 L 550.308,64.5773 L 550.206,64.5899
 L 550.103,64.5975 L 550,64.6 z
M 649.897,64.5975 L 649.794,64.5899 L 649.692,64.5773 L 649.59,64.5596 L 649.49,64.5371 L 649.39,64.5096
 L 649.293,64.4772 L 649.196,64.4401 L 649.102,64.3984 L 649.01,64.352 L 648.92,64.3012 L 648.833,64.2461
 L 648.749,64.1867 L 648.668,64.1233 L 648.59,64.056 L 648.515,63.9849 L 648.444,63.9103 L 648.377,63.8322
 L 648.313,63.751 L 648.254,63.6667 L 648.199,63.5796 L 648.148,63.4899 L 648.102,63.3979 L 648.06,63.3036
 L 648.023,63.2075 L 647.99,63.1096 L 647.963,63.0103 L 647.94,62.9097 L 647.923,62.8081 L 647.91,62.7058
 L 647.903,62.603 L 647.9,62.5 L 647.903,62.397 L 647.91,62.2942 L 647.923,62.1919 L 647.94,62.0903
 L 647.963,61.9897 L 647.99,61.8904 L 648.023,61.7925 L 648.06,61.6964 L 648.102,61.6021 L 648.148,61.5101
 L 648.199,61.4204 L 648.254,61.3333 L 648.313,61.249 L 648.377,61.1678 L 648.444,61.0897 L 648.515,61.0151
 L 648.59,60.944 L 648.668,60.8767 L 648.749,60.8133 L 648.833,60.7539 L 648.92,60.6988 L 649.01,60.648
 L 649.102,60.6016 L 649.196,60.5599 L 649.293,60.5228 L 649.39,60.4904 L 649.49,60.4629 L 649.59,60.4404
 L 649.692,60.4227 L 649.794,60.4101 L 649.897,60.4025 L 650,60.4 L 650.103,60.4025 L 650.206,60.4101
 L 650.308,60.4227 L 650.41,60.4404 L 650.51,60.4629 L 650.61,60.4904 L 650.707,60.5228 L 650.804,60.5599
 L 650.898,60.6016 L 650.99,60.648 L 651.08,60.6988 L 651.167,60.7539 L 651.251,60.8133 L 651.332,60.8767
 L 651.41,60.944 L 651.485,61.0151 L 651.556,61.0897 L 651.623,61.1678 L 651.687,61.249 L 651.746,61.3333
 L 651.801,61.4204 L 651.852,61.5101 L 651.898,61.6021 L 651.94,61.6964 L 651.977,61.7925 L 652.01,61.8904
 L 652.037,61.9897 L 652.06,62.0903 L 652.077,62.1919 L 652.09,62.2942 L 652.097,62.397 L 652.1,62.5
 L 652.097,62.603 L 652.09,62.7058 L 652.077,62.8081 L 652.06,62.9097 L 652.037,63.0103 L 652.01,63.1096
 L 651.977,63.2075 L 651.94,63.3036 L 651.898,63.3979 L 651.852,63.4899 L 651.801,63.5796 L 651.746,63.6667
 L 651.687,63.751 L 651.623,63.8322 L 651.556,63.9103 L 651.485,63.9849 L 651.41,64.056 L 651.332,64.1233
 L 651.251,64.1867 L 651.167,64.2461 L 651.08,64.3012 L 650.99,64.352 L 650.898,64.3984 L 650.804,64.4401
 L 650.707,64.4772 L 650.61,64.5096 L 650.51,64.5371 L 650.41,64.5596 L 650.308,64.5773 L 650.206,64.5899
 L 650.103,64.5975 L 650,64.6 z
M 762.397,64.5975 L 762.294,64.5899 L 762.192,64.5773 L 762.09,64.5596 L 761.99,64.5371 L 761.89,64.5096
 L 761.793,64.4772 L 761.696,64.4401 L 761.602,64.3984 L 761.51,64.352 L 761.42,64.3012 L 761.333,64.2461
 L 761.249,64.1867 L 761.168,64.1233 L 761.09,64.056 L 761.015,63.9849 L 760.944,63.9103 L 760.877,63.8322
 L 760.813,63.751 L 760.754,63.6667 L 760.699,63.5796 L 760.648,63.4899 L 760.602,63.3979 L 760.56,63.3036
 L 760.523,63.2075 L 760.49,63.1096 L 760.463,63.0103 L 760.44,62.9097 L 760.423,62.8081 L 760.41,62.7058
 L 760.403,62.603 L 760.4,62.5 L 760.403,62.397 L 760.41,62.2942 L 760.423,62.1919 L 760.44,62.0903
 L 760.463,61.9897 L 760.49,61.8904 L 760.523,61.7925 L 760.56,61.6964 L 760.602,61.6021 L 760.648,61.5101
 L 760.699,61.4204 L 760.754,61.3333 L 760.813,61.249 L 760.877,61.1678 L 760.944,61.0897 L 761.015,61.0151
 L 761.09,60.944 L 761.168,60.8767 L 761.249,60.8133 L 761.333,60.7539 L 761.42,60.6988 L 761.51,60.648
 L 761.602,60.6016 L 761.696,60.5599 L 761.793,60.5228 L 761.89,60.4904 L 761.99,60.4629 L 762.09,60.4404
 L 762.192,60.4227 L 762.294,60.4101 L 762.397,60.4025 L 762.5,60.4 L 762.603,60.4025 L 762.706,60.4101
 L 762.808,60.4227 L 762.91,60.4404 L 763.01,60.4629 L 763.11,60.4904 L 763.207,60.5228 L 763.304,60.5599
 L 763.398,60.6016 L 763.49,60.648 L 763.58,60.6988 L 763.667,60.7539 L 763.751,60.8133 L 763.832,60.8767
 L 763.91,60.944 L 763.985,61.0151 L 764.056,61.0897 L 764.123,61.1678 L 764.187,61.249 L 764.246,61.3333
 L 764.301,61.4204 L 764.352,61.5101 L 764.398,61.6021 L 764.44,61.6964 L 764.477,61.7925 L 764.51,61.8904
 L 764.537,61.9897 L 764.56,62.0903 L 764.577,62.1919 L 764.59,62.2942 L 764.597,62.397 L 764.6,62.5
 L 764.597,62.603 L 764.59,62.7058 L 764.577,62.8081 L 764.56,62.9097 L 764.537,63.0103 L 764.51,63.1096
 L 764.477,63.2075 L 764.44,63.3036 L 764.398,63.3979 L 764.352,63.4899 L 764.301,63.5796 L 764.246,63.6667
 L 764.187,63.751 L 764.123,63.8322 L 764.056,63.9103 L 763.985,63.9849 L 763.91,64.056 L 763.832,64.1233
 L 763.751,64.1867 L 763.667,64.2461 L 763.58,64.3012 L 763.49,64.352 L 763.398,64.3984 L 763.304,64.4401
 L 763.207,64.4772 L 763.11,64.5096 L 763.01,64.5371 L 762.91,64.5596 L 762.808,64.5773 L 762.706,64.5899
 L 762.603,64.5975 L 762.5,64.6 z
M 329.902,86.9976 L 329.804,86.9904 L 329.707,86.9784 L 329.61,86.9616 L 329.514,86.9401 L 329.419,86.9139
 L 329.326,86.8831 L 329.235,86.8478 L 329.145,86.808 L 329.057,86.7638 L 328.972,86.7155 L 328.889,86.6629
 L 328.809,86.6064 L 328.731,86.546 L 328.657,86.4819 L 328.586,86.4142 L 328.518,86.3431 L 328.454,86.2688
 L 328.394,86.1914 L 328.337,86.1111 L 328.285,86.0282 L 328.236,85.9428 L 328.192,85.8551 L 328.152,85.7654
 L 328.117,85.6738 L 328.086,85.5806 L 328.06,85.486 L 328.038,85.3902 L 328.022,85.2935 L 328.01,85.196
 L 328.002,85.0981 L 328,85 L 328.002,84.9019 L 328.01,84.804 L 328.022,84.7065 L 328.038,84.6098
 L 328.06,84.514 L 328.086,84.4194 L 328.117,84.3262 L 328.152,84.2346 L 328.192,84.1449 L 328.236,84.0572
 L 328.285,83.9718 L 328.337,83.8889 L 328.394,83.8086 L 328.454,83.7312 L 328.518,83.6569 L 328.586,83.5858
 L 328.657,83.5181 L 328.731,83.454 L 328.809,83.3936 L 328.889,83.3371 L 328.972,83.2845 L 329.057,83.2362
 L 329.145,83.192 L 329.235,83.1522 L 329.326,83.1169 L 329.419,83.0861 L 329.514,83.0599 L 329.61,83.0384
 L 329.707,83.0216 L 329.804,83.0096 L 329.902,83.0024 L 330,83 L 330.098,83.0024 L 330.196,83.0096
 L 330.293,83.0216 L 330.39,83.0384 L 330.486,83.0599 L 330.581,83.0861 L 330.674,83.1169 L 330.765,83.1522
 L 330.855,83.192 L 330.943,83.2362 L 331.028,83.2845 L 331.111,83.3371 L 331.191,83.3936 L 331.269,83.454
 L 331.343,83.5181 L 331.414,83.5858 L 331.482,83.6569 L 331.546,83.7312 L 331.606,83.8086 L 331.663,83.8889
 L 331.715,83.9718 L 331.764,84.0572 L 331.808,84.1449 L 331.848,84.2346 L 331.883,84.3262 L 331.914,84.4194
 L 331.94,84.514 L 331.962,84.6098 L 331.978,84.7065 L 331.99,84.804 L 331.998,84.9019 L 332,85
 L 331.998,85.0981 L 331.99,85.196 L 331.978,85.2935 L 331.962,85.3902 L 331.94,85.486 L 331.914,85.5806
 L 331.883,85.6738 L 331.848,85.7654 L 331.808,85.8551 L 331.764,85.9428 L 331.715,86.0282 L 331.663,86.1111
 L 331.606,86.1914 L 331.546,86.2688 L 331.482,86.3431 L 331.414,86.4142 L 331.343,86.4819 L 331.269,86.546
 L 331.191,86.6064 L 331.111,86.6629 L 331.028,86.7155 L 330.943,86.7638 L 330.855,86.808 L 330.765,86.8478
 L 330.674,86.8831 L 330.581,86.9139 L 330.486,86.9401 L 330.39,86.9616 L 330.293,86.9784 L 330.196,86.9904
 L 330.098,86.9976 L 330,87 z
M 369.902,86.9976 L 369.804,86.9904 L 369.707,86.9784 L 369.61,86.9616 L 369.514,86.9401 L 369.419,86.9139
 L 369.326,86.8831 L 369.235,86.8478 L 369.145,86.808 L 369.057,86.7638 L 368.972,86.7155 L 368.889,86.6629
 L 368.809,86.6064 L 368.731,86.546 L 368.657,86.4819 L 368.586,86.4142 L 368.518,86.3431 L 368.454,86.2688
 L 368.394,86.1914 L 368.337,86.1111 L 368.285,86.0282 L 368.236,85.9428 L 368.192,85.8551 L 368.152,85.7654
 L 368.117,85.6738 L 368.086,85.5806 L 368.06,85.486 L 368.038,85.3902 L 368.022,85.2935 L 368.01,85.196
 L 368.002,85.0981 L 368,85 L 368.002,84.9019 L 368.01,84.804 L 368.022,84.7065 L 368.038,84.6098
 L 368.06,84.514 L 368.086,84.4194 L 368.117,84.3262 L 368.152,84.2346 L 368.192,84.1449 L 368.236,84.0572
 L 368.285,83.9718 L 368.337,83.8889 L 368.394,83.8086 L 368.454,83.7312 L 368.518,83.6569 L 368.586,83.5858
 L 368.657,83.5181 L 368.731,83.454 L 368.809,83.3936 L 368.889,83.3371 L 368.972,83.2845 L 369.057,83.2362
 L 369.145,83.192 L 369.235,83.1522 L 369.326,83.1169 L 369.419,83.0861 L 369.514,83.0599 L 369.61,83.0384
 L 369.707,83.0216 L 369.804,83.0096 L 369.902,83.0024 L 370,83 L 370.098,83.0024 L 370.196,83.0096
 L 370.293,83.0216 L 370.39,83.0384 L 370.486,83.0599 L 370.581,83.0861 L 370.674,83.1169 L 370.765,83.1522
 L 370.855,83.192 L 370.943,83.2362 L 371.028,83.2845 L 371.111,83.3371 L 371.191,83.3936 L 371.269,83.454
 L 371.343,83.5181 L 371.414,83.5858 L 371.482,83.6569 L 371.546,83.7312 L 371.606,83.8086 L 371.663,83.8889
 L 371.715,83.9718 L 371.764,84.0572 L 371.808,84.1449 L 371.848,84.2346 L 371.883,84.3262 L 371.914,84.4194
 L 371.94,84.514 L 371.962,84.6098 L 371.978,84.7065 L 371.99,84.804 L 371.998,84.9019 L 372,85
 L 371.998,85.0981 L 371.99,85.196 L 371.978,85.2935 L 371.962,85.3902 L 371.94,85.486 L 371.914,85.5806
 L 371.883,85.6738 L 371.848,85.7654 L 371.808,85.8551 L 371.764,85.9428 L 371.715,86.0282 L 371.663,86.1111
 L 371.606,86.1914 L 371.546,86.2688 L 371.482,86.3431 L 371.414,86.4142 L 371.343,86.4819 L 371.269,86.546
 L 371.191,86.6064 L 371.111,86.6629 L 371.028,86.7155 L 370.943,86.7638 L 370.855,86.808 L 370.765,86.8478
 L 370.674,86.8831 L 370.581,86.9139 L 370.486,86.9401 L 370.39,86.9616 L 370.293,86.9784 L 370.196,86.9904
 L 370.098,86.9976 L 370,87 z
" stroke="black" fill="none" stroke-width="0.35"/>
</svg>
