<?xml version="1.0" standalone="no"?>
<!DOCTYPE svg PUBLIC "-//W3C//DTD SVG 1.1//EN" "http://www.w3.org/Graphics/SVG/1.1/DTD/svg11.dtd">
<svg width="280mm" height="380mm" viewBox="-90 -290 280 380" xmlns="http://www.w3.org/2000/svg" version="1.1">
<title>OpenSCAD Model</title>
<path d="
M 190,-290 L -90,-290 L -90,90 L 190,90 z
M -2.30618,-153.057 L -4.60681,-153.226 L -6.89633,-153.509 L -9.16925,-153.903 L -11.4201,-154.409 L -13.6434,-155.024
 L -15.8338,-155.747 L -17.9861,-156.578 L -20.0951,-157.513 L -22.1556,-158.55 L -24.1628,-159.687 L -26.1118,-160.921
 L -27.9979,-162.249 L -29.8165,-163.669 L -31.5633,-165.175 L -33.234,-166.766 L -34.8247,-168.437 L -36.3315,-170.184
 L -37.7508,-172.002 L -39.0791,-173.888 L -40.3132,-175.837 L -41.4503,-177.844 L -42.4875,-179.905 L -43.4223,-182.014
 L -44.2526,-184.166 L -44.9762,-186.357 L -45.5915,-188.58 L -46.0969,-190.831 L -46.4913,-193.104 L -46.7737,-195.393
 L -46.9434,-197.694 L -47,-200 L -46.9434,-202.306 L -46.7737,-204.607 L -46.4913,-206.896 L -46.0969,-209.169
 L -45.5915,-211.42 L -44.9762,-213.643 L -44.2526,-215.834 L -43.4223,-217.986 L -42.4875,-220.095 L -41.4503,-222.156
 L -40.3132,-224.163 L -39.0791,-226.112 L -37.7508,-227.998 L -36.3315,-229.816 L -34.8247,-231.563 L -33.234,-233.234
 L -31.5633,-234.825 L -29.8165,-236.331 L -27.9979,-237.751 L -26.1118,-239.079 L -24.1628,-240.313 L -22.1556,-241.45
 L -20.0951,-242.487 L -17.9861,-243.422 L -15.8338,-244.253 L -13.6434,-244.976 L -11.4201,-245.591 L -9.16925,-246.097
 L -6.89633,-246.491 L -4.60681,-246.774 L -2.30618,-246.943 L 0,-247 L 2.30618,-246.943 L 4.60681,-246.774
 L 6.89633,-246.491 L 9.16925,-246.097 L 11.4201,-245.591 L 13.6434,-244.976 L 15.8338,-244.253 L 17.9861,-243.422
 L 20.0951,-242.487 L 22.1556,-241.45 L 24.1628,-240.313 L 26.1118,-239.079 L 27.9979,-237.751 L 29.8165,-236.331
 L 31.5633,-234.825 L 33.234,-233.234 L 34.8247,-231.563 L 36.3315,-229.816 L 37.7508,-227.998 L 39.0791,-226.112
 L 40.3132,-224.163 L 41.4503,-222.156 L 42.4875,-220.095 L 43.4223,-217.986 L 44.2526,-215.834 L 44.9762,-213.643
 L 45.5915,-211.42 L 46.0969,-209.169 L 46.4913,-206.896 L 46.7737,-204.607 L 46.9434,-202.306 L 47,-200
 L 46.9434,-197.694 L 46.7737,-195.393 L 46.4913,-193.104 L 46.0969,-190.831 L 45.5915,-188.58 L 44.9762,-186.357
 L 44.2526,-184.166 L 43.4223,-182.014 L 42.4875,-179.905 L 41.4503,-177.844 L 40.3132,-175.837 L 39.0791,-173.888
 L 37.7508,-172.002 L 36.3315,-170.184 L 34.8247,-168.437 L 33.234,-166.766 L 31.5633,-165.175 L 29.8165,-163.669
 L 27.9979,-162.249 L 26.1118,-160.921 L 24.1628,-159.687 L 22.1556,-158.55 L 20.0951,-157.513 L 17.9861,-156.578
 L 15.8338,-155.747 L 13.6434,-155.024 L 11.4201,-154.409 L 9.16925,-153.903 L 6.89633,-153.509 L 4.60681,-153.226
 L 2.30618,-153.057 L 0,-153 z
M 97.6938,-153.057 L 95.3932,-153.226 L 93.1037,-153.509 L 90.8308,-153.903 L 88.5799,-154.409 L 86.3566,-155.024
 L 84.1662,-155.747 L 82.0139,-156.578 L 79.9049,-157.513 L 77.8444,-158.55 L 75.8372,-159.687 L 73.8882,-160.921
 L 72.0021,-162.249 L 70.1835,-163.669 L 68.4367,-165.175 L 66.766,-166.766 L 65.1753,-168.437 L 63.6685,-170.184
 L 62.2492,-172.002 L 60.9209,-173.888 L 59.6868,-175.837 L 58.5497,-177.844 L 57.5125,-179.905 L 56.5777,-182.014
 L 55.7474,-184.166 L 55.0238,-186.357 L 54.4085,-188.58 L 53.9031,-190.831 L 53.5087,-193.104 L 53.2263,-195.393
 L 53.0566,-197.694 L 53,-200 L 53.0566,-202.306 L 53.2263,-204.607 L 53.5087,-206.896 L 53.9031,-209.169
 L 54.4085,-211.42 L 55.0238,-213.643 L 55.7474,-215.834 L 56.5777,-217.986 L 57.5125,-220.095 L 58.5497,-222.156
 L 59.6868,-224.163 L 60.9209,-226.112 L 62.2492,-227.998 L 63.6685,-229.816 L 65.1753,-231.563 L 66.766,-233.234
 L 68.4367,-234.825 L 70.1835,-236.331 L 72.0021,-237.751 L 73.8882,-239.079 L 75.8372,-240.313 L 77.8444,-241.45
 L 79.9049,-242.487 L 82.0139,-243.422 L 84.1662,-244.253 L 86.3566,-244.976 L 88.5799,-245.591 L 90.8308,-246.097
 L 93.1037,-246.491 L 95.3932,-246.774 L 97.6938,-246.943 L 100,-247 L 102.306,-246.943 L 104.607,-246.774
 L 106.896,-246.491 L 109.169,-246.097 L 111.42,-245.591 L 113.643,-244.976 L 115.834,-244.253 L 117.986,-243.422
 L 120.095,-242.487 L 122.156,-241.45 L 124.163,-240.313 L 126.112,-239.079 L 127.998,-237.751 L 129.816,-236.331
 L 131.563,-234.825 L 133.234,-233.234 L 134.825,-231.563 L 136.331,-229.816 L 137.751,-227.998 L 139.079,-226.112
 L 140.313,-224.163 L 141.45,-222.156 L 142.487,-220.095 L 143.422,-217.986 L 144.253,-215.834 L 144.976,-213.643
 L 145.591,-211.42 L 146.097,-209.169 L 146.491,-206.896 L 146.774,-204.607 L 146.943,-202.306 L 147,-200
 L 146.943,-197.694 L 146.774,-195.393 L 146.491,-193.104 L 146.097,-190.831 L 145.591,-188.58 L 144.976,-186.357
 L 144.253,-184.166 L 143.422,-182.014 L 142.487,-179.905 L 141.45,-177.844 L 140.313,-175.837 L 139.079,-173.888
 L 137.751,-172.002 L 136.331,-170.184 L 134.825,-168.437 L 133.234,-166.766 L 131.563,-165.175 L 129.816,-163.669
 L 127.998,-162.249 L 126.112,-160.921 L 124.163,-159.687 L 122.156,-158.55 L 120.095,-157.513 L 117.986,-156.578
 L 115.834,-155.747 L 113.643,-155.024 L 111.42,-154.409 L 109.169,-153.903 L 106.896,-153.509 L 104.607,-153.226
 L 102.306,-153.057 L 100,-153 z
M -2.30618,-53.0566 L -4.60681,-53.2263 L -6.89633,-53.5087 L -9.16925,-53.9031 L -11.4201,-54.4085 L -13.6434,-55.0238
 L -15.8338,-55.7474 L -17.9861,-56.5777 L -20.0951,-57.5125 L -22.1556,-58.5497 L -24.1628,-59.6868 L -26.1118,-60.9209
 L -27.9979,-62.2492 L -29.8165,-63.6685 L -31.5633,-65.1753 L -33.234,-66.766 L -34.8247,-68.4367 L -36.3315,-70.1835
 L -37.7508,-72.0021 L -39.0791,-73.8882 L -40.3132,-75.8372 L -41.4503,-77.8444 L -42.4875,-79.9049 L -43.4223,-82.0139
 L -44.2526,-84.1662 L -44.9762,-86.3566 L -45.5915,-88.5799 L -46.0969,-90.8308 L -46.4913,-93.1037 L -46.7737,-95.3932
 L -46.9434,-97.6938 L -47,-100 L -46.9434,-102.306 L -46.7737,-104.607 L -46.4913,-106.896 L -46.0969,-109.169
 L -45.5915,-111.42 L -44.9762,-113.643 L -44.2526,-115.834 L -43.4223,-117.986 L -42.4875,-120.095 L -41.4503,-122.156
 L -40.3132,-124.163 L -39.0791,-126.112 L -37.7508,-127.998 L -36.3315,-129.816 L -34.8247,-131.563 L -33.234,-133.234
 L -31.5633,-134.825 L -29.8165,-136.331 L -27.9979,-137.751 L -26.1118,-139.079 L -24.1628,-140.313 L -22.1556,-141.45
 L -20.0951,-142.487 L -17.9861,-143.422 L -15.8338,-144.253 L -13.6434,-144.976 L -11.4201,-145.591 L -9.16925,-146.097
 L -6.89633,-146.491 L -4.60681,-146.774 L -2.30618,-146.943 L 0,-147 L 2.30618,-146.943 L 4.60681,-146.774
 L 6.89633,-146.491 L 9.16925,-146.097 L 11.4201,-145.591 L 13.6434,-144.976 L 15.8338,-144.253 L 17.9861,-143.422
 L 20.0951,-142.487 L 22.1556,-141.45 L 24.1628,-140.313 L 26.1118,-139.079 L 27.9979,-137.751 L 29.8165,-136.331
 L 31.5633,-134.825 L 33.234,-133.234 L 34.8247,-131.563 L 36.3315,-129.816 L 37.7508,-127.998 L 39.0791,-126.112
 L 40.3132,-124.163 L 41.4503,-122.156 L 42.4875,-120.095 L 43.4223,-117.986 L 44.2526,-115.834 L 44.9762,-113.643
 L 45.5915,-111.42 L 46.0969,-109.169 L 46.4913,-106.896 L 46.7737,-104.607 L 46.9434,-102.306 L 47,-100
 L 46.9434,-97.6938 L 46.7737,-95.3932 L 46.4913,-93.1037 L 46.0969,-90.8308 L 45.5915,-88.5799 L 44.9762,-86.3566
 L 44.2526,-84.1662 L 43.4223,-82.0139 L 42.4875,-79.9049 L 41.4503,-77.8444 L 40.3132,-75.8372 L 39.0791,-73.8882
 L 37.7508,-72.0021 L 36.3315,-70.1835 L 34.8247,-68.4367 L 33.234,-66.766 L 31.5633,-65.1753 L 29.8165,-63.6685
 L 27.9979,-62.2492 L 26.1118,-60.9209 L 24.1628,-59.6868 L 22.1556,-58.5497 L 20.0951,-57.5125 L 17.9861,-56.5777
 L 15.8338,-55.7474 L 13.6434,-55.0238 L 11.4201,-54.4085 L 9.16925,-53.9031 L 6.89633,-53.5087 L 4.60681,-53.2263
 L 2.30618,-53.0566 L 0,-53 z
M 97.6938,-53.0566 L 95.3932,-53.2263 L 93.1037,-53.5087 L 90.8308,-53.9031 L 88.5799,-54.4085 L 86.3566,-55.0238
 L 84.1662,-55.7474 L 82.0139,-56.5777 L 79.9049,-57.5125 L 77.8444,-58.5497 L 75.8372,-59.6868 L 73.8882,-60.9209
 L 72.0021,-62.2492 L 70.1835,-63.6685 L 68.4367,-65.1753 L 66.766,-66.766 L 65.1753,-68.4367 L 63.6685,-70.1835
 L 62.2492,-72.0021 L 60.9209,-73.8882 L 59.6868,-75.8372 L 58.5497,-77.8444 L 57.5125,-79.9049 L 56.5777,-82.0139
 L 55.7474,-84.1662 L 55.0238,-86.3566 L 54.4085,-88.5799 L 53.9031,-90.8308 L 53.5087,-93.1037 L 53.2263,-95.3932
 L 53.0566,-97.6938 L 53,-100 L 53.0566,-102.306 L 53.2263,-104.607 L 53.5087,-106.896 L 53.9031,-109.169
 L 54.4085,-111.42 L 55.0238,-113.643 L 55.7474,-115.834 L 56.5777,-117.986 L 57.5125,-120.095 L 58.5497,-122.156
 L 59.6868,-124.163 L 60.9209,-126.112 L 62.2492,-127.998 L 63.6685,-129.816 L 65.1753,-131.563 L 66.766,-133.234
 L 68.4367,-134.825 L 70.1835,-136.331 L 72.0021,-137.751 L 73.8882,-139.079 L 75.8372,-140.313 L 77.8444,-141.45
 L 79.9049,-142.487 L 82.0139,-143.422 L 84.1662,-144.253 L 86.3566,-144.976 L 88.5799,-145.591 L 90.8308,-146.097
 L 93.1037,-146.491 L 95.3932,-146.774 L 97.6938,-146.943 L 100,-147 L 102.306,-146.943 L 104.607,-146.774
 L 106.896,-146.491 L 109.169,-146.097 L 111.42,-145.591 L 113.643,-144.976 L 115.834,-144.253 L 117.986,-143.422
 L 120.095,-142.487 L 122.156,-141.45 L 124.163,-140.313 L 126.112,-139.079 L 127.998,-137.751 L 129.816,-136.331
 L 131.563,-134.825 L 133.234,-133.234 L 134.825,-131.563 L 136.331,-129.816 L 137.751,-127.998 L 139.079,-126.112
 L 140.313,-124.163 L 141.45,-122.156 L 142.487,-120.095 L 143.422,-117.986 L 144.253,-115.834 L 144.976,-113.643
 L 145.591,-111.42 L 146.097,-109.169 L 146.491,-106.896 L 146.774,-104.607 L 146.943,-102.306 L 147,-100
 L 146.943,-97.6938 L 146.774,-95.3932 L 146.491,-93.1037 L 146.097,-90.8308 L 145.591,-88.5799 L 144.976,-86.3566
 L 144.253,-84.1662 L 143.422,-82.0139 L 142.487,-79.9049 L 141.45,-77.8444 L 140.313,-75.8372 L 139.079,-73.8882
 L 137.751,-72.0021 L 136.331,-70.1835 L 134.825,-68.4367 L 133.234,-66.766 L 131.563,-65.1753 L 129.816,-63.6685
 L 127.998,-62.2492 L 126.112,-60.9209 L 124.163,-59.6868 L 122.156,-58.5497 L 120.095,-57.5125 L 117.986,-56.5777
 L 115.834,-55.7474 L 113.643,-55.0238 L 111.42,-54.4085 L 109.169,-53.9031 L 106.896,-53.5087 L 104.607,-53.2263
 L 102.306,-53.0566 L 100,-53 z
M -2.30618,46.9434 L -4.60681,46.7737 L -6.89633,46.4913 L -9.16925,46.0969 L -11.4201,45.5915 L -13.6434,44.9762
 L -15.8338,44.2526 L -17.9861,43.4223 L -20.0951,42.4875 L -22.1556,41.4503 L -24.1628,40.3132 L -26.1118,39.0791
 L -27.9979,37.7508 L -29.8165,36.3315 L -31.5633,34.8247 L -33.234,33.234 L -34.8247,31.5633 L -36.3315,29.8165
 L -37.7508,27.9979 L -39.0791,26.1118 L -40.3132,24.1628 L -41.4503,22.1556 L -42.4875,20.0951 L -43.4223,17.9861
 L -44.2526,15.8338 L -44.9762,13.6434 L -45.5915,11.4201 L -46.0969,9.16925 L -46.4913,6.89633 L -46.7737,4.60681
 L -46.9434,2.30618 L -47,-0 L -46.9434,-2.30618 L -46.7737,-4.60681 L -46.4913,-6.89633 L -46.0969,-9.16925
 L -45.5915,-11.4201 L -44.9762,-13.6434 L -44.2526,-15.8338 L -43.4223,-17.9861 L -42.4875,-20.0951 L -41.4503,-22.1556
 L -40.3132,-24.1628 L -39.0791,-26.1118 L -37.7508,-27.9979 L -36.3315,-29.8165 L -34.8247,-31.5633 L -33.234,-33.234
 L -31.5633,-34.8247 L -29.8165,-36.3315 L -27.9979,-37.7508 L -26.1118,-39.0791 L -24.1628,-40.3132 L -22.1556,-41.4503
 L -20.0951,-42.4875 L -17.9861,-43.4223 L -15.8338,-44.2526 L -13.6434,-44.9762 L -11.4201,-45.5915 L -9.16925,-46.0969
 L -6.89633,-46.4913 L -4.60681,-46.7737 L -2.30618,-46.9434 L 0,-47 L 2.30618,-46.9434 L 4.60681,-46.7737
 L 6.89633,-46.4913 L 9.16925,-46.0969 L 11.4201,-45.5915 L 13.6434,-44.9762 L 15.8338,-44.2526 L 17.9861,-43.4223
 L 20.0951,-42.4875 L 22.1556,-41.4503 L 24.1628,-40.3132 L 26.1118,-39.0791 L 27.9979,-37.7508 L 29.8165,-36.3315
 L 31.5633,-34.8247 L 33.234,-33.234 L 34.8247,-31.5633 L 36.3315,-29.8165 L 37.7508,-27.9979 L 39.0791,-26.1118
 L 40.3132,-24.1628 L 41.4503,-22.1556 L 42.4875,-20.0951 L 43.4223,-17.9861 L 44.2526,-15.8338 L 44.9762,-13.6434
 L 45.5915,-11.4201 L 46.0969,-9.16925 L 46.4913,-6.89633 L 46.7737,-4.60681 L 46.9434,-2.30618 L 47,-0
 L 46.9434,2.30618 L 46.7737,4.60681 L 46.4913,6.89633 L 46.0969,9.16925 L 45.5915,11.4201 L 44.9762,13.6434
 L 44.2526,15.8338 L 43.4223,17.9861 L 42.4875,20.0951 L 41.4503,22.1556 L 40.3132,24.1628 L 39.0791,26.1118
 L 37.7508,27.9979 L 36.3315,29.8165 L 34.8247,31.5633 L 33.234,33.234 L 31.5633,34.8247 L 29.8165,36.3315
 L 27.9979,37.7508 L 26.1118,39.0791 L 24.1628,40.3132 L 22.1556,41.4503 L 20.0951,42.4875 L 17.9861,43.4223
 L 15.8338,44.2526 L 13.6434,44.9762 L 11.4201,45.5915 L 9.16925,46.0969 L 6.89633,46.4913 L 4.60681,46.7737
 L 2.30618,46.9434 L 0,47 z
M 97.6938,46.9434 L 95.3932,46.7737 L 93.1037,46.4913 L 90.8308,46.0969 L 88.5799,45.5915 L 86.3566,44.9762
 L 84.1662,44.2526 L 82.0139,43.4223 L 79.9049,42.4875 L 77.8444,41.4503 L 75.8372,40.3132 L 73.8882,39.0791
 L 72.0021,37.7508 L 70.1835,36.3315 L 68.4367,34.8247 L 66.766,33.234 L 65.1753,31.5633 L 63.6685,29.8165
 L 62.2492,27.9979 L 60.9209,26.1118 L 59.6868,24.1628 L 58.5497,22.1556 L 57.5125,20.0951 L 56.5777,17.9861
 L 55.7474,15.8338 L 55.0238,13.6434 L 54.4085,11.4201 L 53.9031,9.16925 L 53.5087,6.89633 L 53.2263,4.60681
 L 53.0566,2.30618 L 53,-0 L 53.0566,-2.30618 L 53.2263,-4.60681 L 53.5087,-6.89633 L 53.9031,-9.16925
 L 54.4085,-11.4201 L 55.0238,-13.6434 L 55.7474,-15.8338 L 56.5777,-17.9861 L 57.5125,-20.0951 L 58.5497,-22.1556
 L 59.6868,-24.1628 L 60.9209,-26.1118 L 62.2492,-27.9979 L 63.6685,-29.8165 L 65.1753,-31.5633 L 66.766,-33.234
 L 68.4367,-34.8247 L 70.1835,-36.3315 L 72.0021,-37.7508 L 73.8882,-39.0791 L 75.8372,-40.3132 L 77.8444,-41.4503
 L 79.9049,-42.4875 L 82.0139,-43.4223 L 84.1662,-44.2526 L 86.3566,-44.9762 L 88.5799,-45.5915 L 90.8308,-46.0969
 L 93.1037,-46.4913 L 95.3932,-46.7737 L 97.6938,-46.9434 L 100,-47 L 102.306,-46.9434 L 104.607,-46.7737
 L 106.896,-46.4913 L 109.169,-46.0969 L 111.42,-45.5915 L 113.643,-44.9762 L 115.834,-44.2526 L 117.986,-43.4223
 L 120.095,-42.4875 L 122.156,-41.4503 L 124.163,-40.3132 L 126.112,-39.0791 L 127.998,-37.7508 L 129.816,-36.3315
 L 131.563,-34.8247 L 133.234,-33.234 L 134.825,-31.5633 L 136.331,-29.8165 L 137.751,-27.9979 L 139.079,-26.1118
 L 140.313,-24.1628 L 141.45,-22.1556 L 142.487,-20.0951 L 143.422,-17.9861 L 144.253,-15.8338 L 144.976,-13.6434
 L 145.591,-11.4201 L 146.097,-9.16925 L 146.491,-6.89633 L 146.774,-4.60681 L 146.943,-2.30618 L 147,-0
 L 146.943,2.30618 L 146.774,4.60681 L 146.491,6.89633 L 146.097,9.16925 L 145.591,11.4201 L 144.976,13.6434
 L 144.253,15.8338 L 143.422,17.9861 L 142.487,20.0951 L 141.45,22.1556 L 140.313,24.1628 L 139.079,26.1118
 L 137.751,27.9979 L 136.331,29.8165 L 134.825,31.5633 L 133.234,33.234 L 131.563,34.8247 L 129.816,36.3315
 L 127.998,37.7508 L 126.112,39.0791 L 124.163,40.3132 L 122.156,41.4503 L 120.095,42.4875 L 117.986,43.4223
 L 115.834,44.2526 L 113.643,44.9762 L 111.42,45.5915 L 109.169,46.0969 L 106.896,46.4913 L 104.607,46.7737
 L 102.306,46.9434 L 100,47 z
" stroke="black" fill="lightgray" stroke-width="0.5"/>
</svg>
