<?xml version="1.0" standalone="no"?>
<!DOCTYPE svg PUBLIC "-//W3C//DTD SVG 1.1//EN" "http://www.w3.org/Graphics/SVG/1.1/DTD/svg11.dtd">
<svg width="260mm" height="360mm" viewBox="-80 -280 260 360" xmlns="http://www.w3.org/2000/svg" version="1.1">
<title>OpenSCAD Model</title>
<path d="
M 180,-280 L -80,-280 L -80,80 L 180,80 z
M -2.35525,-152.058 L -4.70482,-152.231 L -7.04306,-152.52 L -9.36434,-152.922 L -11.663,-153.438 L -13.9337,-154.067
 L -16.1707,-154.806 L -18.3688,-155.654 L -20.5226,-156.609 L -22.627,-157.668 L -24.6769,-158.829 L -26.6674,-160.089
 L -28.5936,-161.446 L -30.4509,-162.895 L -32.2348,-164.434 L -33.9411,-166.059 L -35.5657,-167.765 L -37.1045,-169.549
 L -38.554,-171.406 L -39.9105,-173.333 L -41.171,-175.323 L -42.3322,-177.373 L -43.3915,-179.477 L -44.3462,-181.631
 L -45.1941,-183.829 L -45.9331,-186.066 L -46.5615,-188.337 L -47.0777,-190.636 L -47.4805,-192.957 L -47.7689,-195.295
 L -47.9422,-197.645 L -48,-200 L -47.9422,-202.355 L -47.7689,-204.705 L -47.4805,-207.043 L -47.0777,-209.364
 L -46.5615,-211.663 L -45.9331,-213.934 L -45.1941,-216.171 L -44.3462,-218.369 L -43.3915,-220.523 L -42.3322,-222.627
 L -41.171,-224.677 L -39.9105,-226.667 L -38.554,-228.594 L -37.1045,-230.451 L -35.5657,-232.235 L -33.9411,-233.941
 L -32.2348,-235.566 L -30.4509,-237.105 L -28.5936,-238.554 L -26.6674,-239.911 L -24.6769,-241.171 L -22.627,-242.332
 L -20.5226,-243.391 L -18.3688,-244.346 L -16.1707,-245.194 L -13.9337,-245.933 L -11.663,-246.562 L -9.36434,-247.078
 L -7.04306,-247.48 L -4.70482,-247.769 L -2.35525,-247.942 L 0,-248 L 2.35525,-247.942 L 4.70482,-247.769
 L 7.04306,-247.48 L 9.36434,-247.078 L 11.663,-246.562 L 13.9337,-245.933 L 16.1707,-245.194 L 18.3688,-244.346
 L 20.5226,-243.391 L 22.627,-242.332 L 24.6769,-241.171 L 26.6674,-239.911 L 28.5936,-238.554 L 30.4509,-237.105
 L 32.2348,-235.566 L 33.9411,-233.941 L 35.5657,-232.235 L 37.1045,-230.451 L 38.554,-228.594 L 39.9105,-226.667
 L 41.171,-224.677 L 42.3322,-222.627 L 43.3915,-220.523 L 44.3462,-218.369 L 45.1941,-216.171 L 45.9331,-213.934
 L 46.5615,-211.663 L 47.0777,-209.364 L 47.4805,-207.043 L 47.7689,-204.705 L 47.9422,-202.355 L 48,-200
 L 47.9422,-197.645 L 47.7689,-195.295 L 47.4805,-192.957 L 47.0777,-190.636 L 46.5615,-188.337 L 45.9331,-186.066
 L 45.1941,-183.829 L 44.3462,-181.631 L 43.3915,-179.477 L 42.3322,-177.373 L 41.171,-175.323 L 39.9105,-173.333
 L 38.554,-171.406 L 37.1045,-169.549 L 35.5657,-167.765 L 33.9411,-166.059 L 32.2348,-164.434 L 30.4509,-162.895
 L 28.5936,-161.446 L 26.6674,-160.089 L 24.6769,-158.829 L 22.627,-157.668 L 20.5226,-156.609 L 18.3688,-155.654
 L 16.1707,-154.806 L 13.9337,-154.067 L 11.663,-153.438 L 9.36434,-152.922 L 7.04306,-152.52 L 4.70482,-152.231
 L 2.35525,-152.058 L 0,-152 z
M 97.6448,-152.058 L 95.2952,-152.231 L 92.9569,-152.52 L 90.6357,-152.922 L 88.337,-153.438 L 86.0663,-154.067
 L 83.8293,-154.806 L 81.6312,-155.654 L 79.4774,-156.609 L 77.373,-157.668 L 75.3231,-158.829 L 73.3326,-160.089
 L 71.4064,-161.446 L 69.5491,-162.895 L 67.7652,-164.434 L 66.0589,-166.059 L 64.4343,-167.765 L 62.8955,-169.549
 L 61.446,-171.406 L 60.0895,-173.333 L 58.829,-175.323 L 57.6678,-177.373 L 56.6085,-179.477 L 55.6538,-181.631
 L 54.8059,-183.829 L 54.0669,-186.066 L 53.4385,-188.337 L 52.9223,-190.636 L 52.5195,-192.957 L 52.2311,-195.295
 L 52.0578,-197.645 L 52,-200 L 52.0578,-202.355 L 52.2311,-204.705 L 52.5195,-207.043 L 52.9223,-209.364
 L 53.4385,-211.663 L 54.0669,-213.934 L 54.8059,-216.171 L 55.6538,-218.369 L 56.6085,-220.523 L 57.6678,-222.627
 L 58.829,-224.677 L 60.0895,-226.667 L 61.446,-228.594 L 62.8955,-230.451 L 64.4343,-232.235 L 66.0589,-233.941
 L 67.7652,-235.566 L 69.5491,-237.105 L 71.4064,-238.554 L 73.3326,-239.911 L 75.3231,-241.171 L 77.373,-242.332
 L 79.4774,-243.391 L 81.6312,-244.346 L 83.8293,-245.194 L 86.0663,-245.933 L 88.337,-246.562 L 90.6357,-247.078
 L 92.9569,-247.48 L 95.2952,-247.769 L 97.6448,-247.942 L 100,-248 L 102.355,-247.942 L 104.705,-247.769
 L 107.043,-247.48 L 109.364,-247.078 L 111.663,-246.562 L 113.934,-245.933 L 116.171,-245.194 L 118.369,-244.346
 L 120.523,-243.391 L 122.627,-242.332 L 124.677,-241.171 L 126.667,-239.911 L 128.594,-238.554 L 130.451,-237.105
 L 132.235,-235.566 L 133.941,-233.941 L 135.566,-232.235 L 137.105,-230.451 L 138.554,-228.594 L 139.911,-226.667
 L 141.171,-224.677 L 142.332,-222.627 L 143.391,-220.523 L 144.346,-218.369 L 145.194,-216.171 L 145.933,-213.934
 L 146.562,-211.663 L 147.078,-209.364 L 147.48,-207.043 L 147.769,-204.705 L 147.942,-202.355 L 148,-200
 L 147.942,-197.645 L 147.769,-195.295 L 147.48,-192.957 L 147.078,-190.636 L 146.562,-188.337 L 145.933,-186.066
 L 145.194,-183.829 L 144.346,-181.631 L 143.391,-179.477 L 142.332,-177.373 L 141.171,-175.323 L 139.911,-173.333
 L 138.554,-171.406 L 137.105,-169.549 L 135.566,-167.765 L 133.941,-166.059 L 132.235,-164.434 L 130.451,-162.895
 L 128.594,-161.446 L 126.667,-160.089 L 124.677,-158.829 L 122.627,-157.668 L 120.523,-156.609 L 118.369,-155.654
 L 116.171,-154.806 L 113.934,-154.067 L 111.663,-153.438 L 109.364,-152.922 L 107.043,-152.52 L 104.705,-152.231
 L 102.355,-152.058 L 100,-152 z
M -2.35525,-52.0578 L -4.70482,-52.2311 L -7.04306,-52.5195 L -9.36434,-52.9223 L -11.663,-53.4385 L -13.9337,-54.0669
 L -16.1707,-54.8059 L -18.3688,-55.6538 L -20.5226,-56.6085 L -22.627,-57.6678 L -24.6769,-58.829 L -26.6674,-60.0895
 L -28.5936,-61.446 L -30.4509,-62.8955 L -32.2348,-64.4343 L -33.9411,-66.0589 L -35.5657,-67.7652 L -37.1045,-69.5491
 L -38.554,-71.4064 L -39.9105,-73.3326 L -41.171,-75.3231 L -42.3322,-77.373 L -43.3915,-79.4774 L -44.3462,-81.6312
 L -45.1941,-83.8293 L -45.9331,-86.0663 L -46.5615,-88.337 L -47.0777,-90.6357 L -47.4805,-92.9569 L -47.7689,-95.2952
 L -47.9422,-97.6448 L -48,-100 L -47.9422,-102.355 L -47.7689,-104.705 L -47.4805,-107.043 L -47.0777,-109.364
 L -46.5615,-111.663 L -45.9331,-113.934 L -45.1941,-116.171 L -44.3462,-118.369 L -43.3915,-120.523 L -42.3322,-122.627
 L -41.171,-124.677 L -39.9105,-126.667 L -38.554,-128.594 L -37.1045,-130.451 L -35.5657,-132.235 L -33.9411,-133.941
 L -32.2348,-135.566 L -30.4509,-137.105 L -28.5936,-138.554 L -26.6674,-139.911 L -24.6769,-141.171 L -22.627,-142.332
 L -20.5226,-143.391 L -18.3688,-144.346 L -16.1707,-145.194 L -13.9337,-145.933 L -11.663,-146.562 L -9.36434,-147.078
 L -7.04306,-147.48 L -4.70482,-147.769 L -2.35525,-147.942 L 0,-148 L 2.35525,-147.942 L 4.70482,-147.769
 L 7.04306,-147.48 L 9.36434,-147.078 L 11.663,-146.562 L 13.9337,-145.933 L 16.1707,-145.194 L 18.3688,-144.346
 L 20.5226,-143.391 L 22.627,-142.332 L 24.6769,-141.171 L 26.6674,-139.911 L 28.5936,-138.554 L 30.4509,-137.105
 L 32.2348,-135.566 L 33.9411,-133.941 L 35.5657,-132.235 L 37.1045,-130.451 L 38.554,-128.594 L 39.9105,-126.667
 L 41.171,-124.677 L 42.3322,-122.627 L 43.3915,-120.523 L 44.3462,-118.369 L 45.1941,-116.171 L 45.9331,-113.934
 L 46.5615,-111.663 L 47.0777,-109.364 L 47.4805,-107.043 L 47.7689,-104.705 L 47.9422,-102.355 L 48,-100
 L 47.9422,-97.6448 L 47.7689,-95.2952 L 47.4805,-92.9569 L 47.0777,-90.6357 L 46.5615,-88.337 L 45.9331,-86.0663
 L 45.1941,-83.8293 L 44.3462,-81.6312 L 43.3915,-79.4774 L 42.3322,-77.373 L 41.171,-75.3231 L 39.9105,-73.3326
 L 38.554,-71.4064 L 37.1045,-69.5491 L 35.5657,-67.7652 L 33.9411,-66.0589 L 32.2348,-64.4343 L 30.4509,-62.8955
 L 28.5936,-61.446 L 26.6674,-60.0895 L 24.6769,-58.829 L 22.627,-57.6678 L 20.5226,-56.6085 L 18.3688,-55.6538
 L 16.1707,-54.8059 L 13.9337,-54.0669 L 11.663,-53.4385 L 9.36434,-52.9223 L 7.04306,-52.5195 L 4.70482,-52.2311
 L 2.35525,-52.0578 L 0,-52 z
M 97.6448,-52.0578 L 95.2952,-52.2311 L 92.9569,-52.5195 L 90.6357,-52.9223 L 88.337,-53.4385 L 86.0663,-54.0669
 L 83.8293,-54.8059 L 81.6312,-55.6538 L 79.4774,-56.6085 L 77.373,-57.6678 L 75.3231,-58.829 L 73.3326,-60.0895
 L 71.4064,-61.446 L 69.5491,-62.8955 L 67.7652,-64.4343 L 66.0589,-66.0589 L 64.4343,-67.7652 L 62.8955,-69.5491
 L 61.446,-71.4064 L 60.0895,-73.3326 L 58.829,-75.3231 L 57.6678,-77.373 L 56.6085,-79.4774 L 55.6538,-81.6312
 L 54.8059,-83.8293 L 54.0669,-86.0663 L 53.4385,-88.337 L 52.9223,-90.6357 L 52.5195,-92.9569 L 52.2311,-95.2952
 L 52.0578,-97.6448 L 52,-100 L 52.0578,-102.355 L 52.2311,-104.705 L 52.5195,-107.043 L 52.9223,-109.364
 L 53.4385,-111.663 L 54.0669,-113.934 L 54.8059,-116.171 L 55.6538,-118.369 L 56.6085,-120.523 L 57.6678,-122.627
 L 58.829,-124.677 L 60.0895,-126.667 L 61.446,-128.594 L 62.8955,-130.451 L 64.4343,-132.235 L 66.0589,-133.941
 L 67.7652,-135.566 L 69.5491,-137.105 L 71.4064,-138.554 L 73.3326,-139.911 L 75.3231,-141.171 L 77.373,-142.332
 L 79.4774,-143.391 L 81.6312,-144.346 L 83.8293,-145.194 L 86.0663,-145.933 L 88.337,-146.562 L 90.6357,-147.078
 L 92.9569,-147.48 L 95.2952,-147.769 L 97.6448,-147.942 L 100,-148 L 102.355,-147.942 L 104.705,-147.769
 L 107.043,-147.48 L 109.364,-147.078 L 111.663,-146.562 L 113.934,-145.933 L 116.171,-145.194 L 118.369,-144.346
 L 120.523,-143.391 L 122.627,-142.332 L 124.677,-141.171 L 126.667,-139.911 L 128.594,-138.554 L 130.451,-137.105
 L 132.235,-135.566 L 133.941,-133.941 L 135.566,-132.235 L 137.105,-130.451 L 138.554,-128.594 L 139.911,-126.667
 L 141.171,-124.677 L 142.332,-122.627 L 143.391,-120.523 L 144.346,-118.369 L 145.194,-116.171 L 145.933,-113.934
 L 146.562,-111.663 L 147.078,-109.364 L 147.48,-107.043 L 147.769,-104.705 L 147.942,-102.355 L 148,-100
 L 147.942,-97.6448 L 147.769,-95.2952 L 147.48,-92.9569 L 147.078,-90.6357 L 146.562,-88.337 L 145.933,-86.0663
 L 145.194,-83.8293 L 144.346,-81.6312 L 143.391,-79.4774 L 142.332,-77.373 L 141.171,-75.3231 L 139.911,-73.3326
 L 138.554,-71.4064 L 137.105,-69.5491 L 135.566,-67.7652 L 133.941,-66.0589 L 132.235,-64.4343 L 130.451,-62.8955
 L 128.594,-61.446 L 126.667,-60.0895 L 124.677,-58.829 L 122.627,-57.6678 L 120.523,-56.6085 L 118.369,-55.6538
 L 116.171,-54.8059 L 113.934,-54.0669 L 111.663,-53.4385 L 109.364,-52.9223 L 107.043,-52.5195 L 104.705,-52.2311
 L 102.355,-52.0578 L 100,-52 z
M -2.35525,47.9422 L -4.70482,47.7689 L -7.04306,47.4805 L -9.36434,47.0777 L -11.663,46.5615 L -13.9337,45.9331
 L -16.1707,45.1941 L -18.3688,44.3462 L -20.5226,43.3915 L -22.627,42.3322 L -24.6769,41.171 L -26.6674,39.9105
 L -28.5936,38.554 L -30.4509,37.1045 L -32.2348,35.5657 L -33.9411,33.9411 L -35.5657,32.2348 L -37.1045,30.4509
 L -38.554,28.5936 L -39.9105,26.6674 L -41.171,24.6769 L -42.3322,22.627 L -43.3915,20.5226 L -44.3462,18.3688
 L -45.1941,16.1707 L -45.9331,13.9337 L -46.5615,11.663 L -47.0777,9.36434 L -47.4805,7.04306 L -47.7689,4.70482
 L -47.9422,2.35525 L -48,-0 L -47.9422,-2.35525 L -47.7689,-4.70482 L -47.4805,-7.04306 L -47.0777,-9.36434
 L -46.5615,-11.663 L -45.9331,-13.9337 L -45.1941,-16.1707 L -44.3462,-18.3688 L -43.3915,-20.5226 L -42.3322,-22.627
 L -41.171,-24.6769 L -39.9105,-26.6674 L -38.554,-28.5936 L -37.1045,-30.4509 L -35.5657,-32.2348 L -33.9411,-33.9411
 L -32.2348,-35.5657 L -30.4509,-37.1045 L -28.5936,-38.554 L -26.6674,-39.9105 L -24.6769,-41.171 L -22.627,-42.3322
 L -20.5226,-43.3915 L -18.3688,-44.3462 L -16.1707,-45.1941 L -13.9337,-45.9331 L -11.663,-46.5615 L -9.36434,-47.0777
 L -7.04306,-47.4805 L -4.70482,-47.7689 L -2.35525,-47.9422 L 0,-48 L 2.35525,-47.9422 L 4.70482,-47.7689
 L 7.04306,-47.4805 L 9.36434,-47.0777 L 11.663,-46.5615 L 13.9337,-45.9331 L 16.1707,-45.1941 L 18.3688,-44.3462
 L 20.5226,-43.3915 L 22.627,-42.3322 L 24.6769,-41.171 L 26.6674,-39.9105 L 28.5936,-38.554 L 30.4509,-37.1045
 L 32.2348,-35.5657 L 33.9411,-33.9411 L 35.5657,-32.2348 L 37.1045,-30.4509 L 38.554,-28.5936 L 39.9105,-26.6674
 L 41.171,-24.6769 L 42.3322,-22.627 L 43.3915,-20.5226 L 44.3462,-18.3688 L 45.1941,-16.1707 L 45.9331,-13.9337
 L 46.5615,-11.663 L 47.0777,-9.36434 L 47.4805,-7.04306 L 47.7689,-4.70482 L 47.9422,-2.35525 L 48,-0
 L 47.9422,2.35525 L 47.7689,4.70482 L 47.4805,7.04306 L 47.0777,9.36434 L 46.5615,11.663 L 45.9331,13.9337
 L 45.1941,16.1707 L 44.3462,18.3688 L 43.3915,20.5226 L 42.3322,22.627 L 41.171,24.6769 L 39.9105,26.6674
 L 38.554,28.5936 L 37.1045,30.4509 L 35.5657,32.2348 L 33.9411,33.9411 L 32.2348,35.5657 L 30.4509,37.1045
 L 28.5936,38.554 L 26.6674,39.9105 L 24.6769,41.171 L 22.627,42.3322 L 20.5226,43.3915 L 18.3688,44.3462
 L 16.1707,45.1941 L 13.9337,45.9331 L 11.663,46.5615 L 9.36434,47.0777 L 7.04306,47.4805 L 4.70482,47.7689
 L 2.35525,47.9422 L 0,48 z
M 97.6448,47.9422 L 95.2952,47.7689 L 92.9569,47.4805 L 90.6357,47.0777 L 88.337,46.5615 L 86.0663,45.9331
 L 83.8293,45.1941 L 81.6312,44.3462 L 79.4774,43.3915 L 77.373,42.3322 L 75.3231,41.171 L 73.3326,39.9105
 L 71.4064,38.554 L 69.5491,37.1045 L 67.7652,35.5657 L 66.0589,33.9411 L 64.4343,32.2348 L 62.8955,30.4509
 L 61.446,28.5936 L 60.0895,26.6674 L 58.829,24.6769 L 57.6678,22.627 L 56.6085,20.5226 L 55.6538,18.3688
 L 54.8059,16.1707 L 54.0669,13.9337 L 53.4385,11.663 L 52.9223,9.36434 L 52.5195,7.04306 L 52.2311,4.70482
 L 52.0578,2.35525 L 52,-0 L 52.0578,-2.35525 L 52.2311,-4.70482 L 52.5195,-7.04306 L 52.9223,-9.36434
 L 53.4385,-11.663 L 54.0669,-13.9337 L 54.8059,-16.1707 L 55.6538,-18.3688 L 56.6085,-20.5226 L 57.6678,-22.627
 L 58.829,-24.6769 L 60.0895,-26.6674 L 61.446,-28.5936 L 62.8955,-30.4509 L 64.4343,-32.2348 L 66.0589,-33.9411
 L 67.7652,-35.5657 L 69.5491,-37.1045 L 71.4064,-38.554 L 73.3326,-39.9105 L 75.3231,-41.171 L 77.373,-42.3322
 L 79.4774,-43.3915 L 81.6312,-44.3462 L 83.8293,-45.1941 L 86.0663,-45.9331 L 88.337,-46.5615 L 90.6357,-47.0777
 L 92.9569,-47.4805 L 95.2952,-47.7689 L 97.6448,-47.9422 L 100,-48 L 102.355,-47.9422 L 104.705,-47.7689
 L 107.043,-47.4805 L 109.364,-47.0777 L 111.663,-46.5615 L 113.934,-45.9331 L 116.171,-45.1941 L 118.369,-44.3462
 L 120.523,-43.3915 L 122.627,-42.3322 L 124.677,-41.171 L 126.667,-39.9105 L 128.594,-38.554 L 130.451,-37.1045
 L 132.235,-35.5657 L 133.941,-33.9411 L 135.566,-32.2348 L 137.105,-30.4509 L 138.554,-28.5936 L 139.911,-26.6674
 L 141.171,-24.6769 L 142.332,-22.627 L 143.391,-20.5226 L 144.346,-18.3688 L 145.194,-16.1707 L 145.933,-13.9337
 L 146.562,-11.663 L 147.078,-9.36434 L 147.48,-7.04306 L 147.769,-4.70482 L 147.942,-2.35525 L 148,-0
 L 147.942,2.35525 L 147.769,4.70482 L 147.48,7.04306 L 147.078,9.36434 L 146.562,11.663 L 145.933,13.9337
 L 145.194,16.1707 L 144.346,18.3688 L 143.391,20.5226 L 142.332,22.627 L 141.171,24.6769 L 139.911,26.6674
 L 138.554,28.5936 L 137.105,30.4509 L 135.566,32.2348 L 133.941,33.9411 L 132.235,35.5657 L 130.451,37.1045
 L 128.594,38.554 L 126.667,39.9105 L 124.677,41.171 L 122.627,42.3322 L 120.523,43.3915 L 118.369,44.3462
 L 116.171,45.1941 L 113.934,45.9331 L 111.663,46.5615 L 109.364,47.0777 L 107.043,47.4805 L 104.705,47.7689
 L 102.355,47.9422 L 100,48 z
" stroke="black" fill="lightgray" stroke-width="0.5"/>
</svg>
