<?xml version="1.0" standalone="no"?>
<!DOCTYPE svg PUBLIC "-//W3C//DTD SVG 1.1//EN" "http://www.w3.org/Graphics/SVG/1.1/DTD/svg11.dtd">
<svg width="141mm" height="380mm" viewBox="-90 -290 141 380" xmlns="http://www.w3.org/2000/svg" version="1.1">
<title>OpenSCAD Model</title>
<path d="
M 50.05,-290 L -90,-290 L -90,90 L 50.05,90 z
M -2.30618,-153.057 L -4.60681,-153.226 L -6.89633,-153.509 L -9.16925,-153.903 L -11.4201,-154.409 L -13.6434,-155.024
 L -15.8338,-155.747 L -17.9861,-156.578 L -20.0951,-157.513 L -22.1556,-158.55 L -24.1628,-159.687 L -26.1118,-160.921
 L -27.9979,-162.249 L -29.8165,-163.669 L -31.5633,-165.175 L -33.234,-166.766 L -34.8247,-168.437 L -36.3315,-170.184
 L -37.7508,-172.002 L -39.0791,-173.888 L -40.3132,-175.837 L -41.4503,-177.844 L -42.4875,-179.905 L -43.4223,-182.014
 L -44.2526,-184.166 L -44.9762,-186.357 L -45.5915,-188.58 L -46.0969,-190.831 L -46.4913,-193.104 L -46.7737,-195.393
 L -46.9434,-197.694 L -47,-200 L -46.9434,-202.306 L -46.7737,-204.607 L -46.4913,-206.896 L -46.0969,-209.169
 L -45.5915,-211.42 L -44.9762,-213.643 L -44.2526,-215.834 L -43.4223,-217.986 L -42.4875,-220.095 L -41.4503,-222.156
 L -40.3132,-224.163 L -39.0791,-226.112 L -37.7508,-227.998 L -36.3315,-229.816 L -34.8247,-231.563 L -33.234,-233.234
 L -31.5633,-234.825 L -29.8165,-236.331 L -27.9979,-237.751 L -26.1118,-239.079 L -24.1628,-240.313 L -22.1556,-241.45
 L -20.0951,-242.487 L -17.9861,-243.422 L -15.8338,-244.253 L -13.6434,-244.976 L -11.4201,-245.591 L -9.16925,-246.097
 L -6.89633,-246.491 L -4.60681,-246.774 L -2.30618,-246.943 L 0,-247 L 2.30618,-246.943 L 4.60681,-246.774
 L 6.89633,-246.491 L 9.16925,-246.097 L 11.4201,-245.591 L 13.6434,-244.976 L 15.8338,-244.253 L 17.9861,-243.422
 L 20.0951,-242.487 L 22.1556,-241.45 L 24.1628,-240.313 L 26.1118,-239.079 L 27.9979,-237.751 L 29.8165,-236.331
 L 31.5633,-234.825 L 33.234,-233.234 L 34.8247,-231.563 L 36.3315,-229.816 L 37.7508,-227.998 L 39.0791,-226.112
 L 40.3132,-224.163 L 41.4503,-222.156 L 42.4875,-220.095 L 43.4223,-217.986 L 44.2526,-215.834 L 44.9762,-213.643
 L 45.5915,-211.42 L 46.0969,-209.169 L 46.4913,-206.896 L 46.7737,-204.607 L 46.9434,-202.306 L 47,-200
 L 46.9434,-197.694 L 46.7737,-195.393 L 46.4913,-193.104 L 46.0969,-190.831 L 45.5915,-188.58 L 44.9762,-186.357
 L 44.2526,-184.166 L 43.4223,-182.014 L 42.4875,-179.905 L 41.4503,-177.844 L 40.3132,-175.837 L 39.0791,-173.888
 L 37.7508,-172.002 L 36.3315,-170.184 L 34.8247,-168.437 L 33.234,-166.766 L 31.5633,-165.175 L 29.8165,-163.669
 L 27.9979,-162.249 L 26.1118,-160.921 L 24.1628,-159.687 L 22.1556,-158.55 L 20.0951,-157.513 L 17.9861,-156.578
 L 15.8338,-155.747 L 13.6434,-155.024 L 11.4201,-154.409 L 9.16925,-153.903 L 6.89633,-153.509 L 4.60681,-153.226
 L 2.30618,-153.057 L 0,-153 z
M -2.30618,-53.0566 L -4.60681,-53.2263 L -6.89633,-53.5087 L -9.16925,-53.9031 L -11.4201,-54.4085 L -13.6434,-55.0238
 L -15.8338,-55.7474 L -17.9861,-56.5777 L -20.0951,-57.5125 L -22.1556,-58.5497 L -24.1628,-59.6868 L -26.1118,-60.9209
 L -27.9979,-62.2492 L -29.8165,-63.6685 L -31.5633,-65.1753 L -33.234,-66.766 L -34.8247,-68.4367 L -36.3315,-70.1835
 L -37.7508,-72.0021 L -39.0791,-73.8882 L -40.3132,-75.8372 L -41.4503,-77.8444 L -42.4875,-79.9049 L -43.4223,-82.0139
 L -44.2526,-84.1662 L -44.9762,-86.3566 L -45.5915,-88.5799 L -46.0969,-90.8308 L -46.4913,-93.1037 L -46.7737,-95.3932
 L -46.9434,-97.6938 L -47,-100 L -46.9434,-102.306 L -46.7737,-104.607 L -46.4913,-106.896 L -46.0969,-109.169
 L -45.5915,-111.42 L -44.9762,-113.643 L -44.2526,-115.834 L -43.4223,-117.986 L -42.4875,-120.095 L -41.4503,-122.156
 L -40.3132,-124.163 L -39.0791,-126.112 L -37.7508,-127.998 L -36.3315,-129.816 L -34.8247,-131.563 L -33.234,-133.234
 L -31.5633,-134.825 L -29.8165,-136.331 L -27.9979,-137.751 L -26.1118,-139.079 L -24.1628,-140.313 L -22.1556,-141.45
 L -20.0951,-142.487 L -17.9861,-143.422 L -15.8338,-144.253 L -13.6434,-144.976 L -11.4201,-145.591 L -9.16925,-146.097
 L -6.89633,-146.491 L -4.60681,-146.774 L -2.30618,-146.943 L 0,-147 L 2.30618,-146.943 L 4.60681,-146.774
 L 6.89633,-146.491 L 9.16925,-146.097 L 11.4201,-145.591 L 13.6434,-144.976 L 15.8338,-144.253 L 17.9861,-143.422
 L 20.0951,-142.487 L 22.1556,-141.45 L 24.1628,-140.313 L 26.1118,-139.079 L 27.9979,-137.751 L 29.8165,-136.331
 L 31.5633,-134.825 L 33.234,-133.234 L 34.8247,-131.563 L 36.3315,-129.816 L 37.7508,-127.998 L 39.0791,-126.112
 L 40.3132,-124.163 L 41.4503,-122.156 L 42.4875,-120.095 L 43.4223,-117.986 L 44.2526,-115.834 L 44.9762,-113.643
 L 45.5915,-111.42 L 46.0969,-109.169 L 46.4913,-106.896 L 46.7737,-104.607 L 46.9434,-102.306 L 47,-100
 L 46.9434,-97.6938 L 46.7737,-95.3932 L 46.4913,-93.1037 L 46.0969,-90.8308 L 45.5915,-88.5799 L 44.9762,-86.3566
 L 44.2526,-84.1662 L 43.4223,-82.0139 L 42.4875,-79.9049 L 41.4503,-77.8444 L 40.3132,-75.8372 L 39.0791,-73.8882
 L 37.7508,-72.0021 L 36.3315,-70.1835 L 34.8247,-68.4367 L 33.234,-66.766 L 31.5633,-65.1753 L 29.8165,-63.6685
 L 27.9979,-62.2492 L 26.1118,-60.9209 L 24.1628,-59.6868 L 22.1556,-58.5497 L 20.0951,-57.5125 L 17.9861,-56.5777
 L 15.8338,-55.7474 L 13.6434,-55.0238 L 11.4201,-54.4085 L 9.16925,-53.9031 L 6.89633,-53.5087 L 4.60681,-53.2263
 L 2.30618,-53.0566 L 0,-53 z
M -2.30618,46.9434 L -4.60681,46.7737 L -6.89633,46.4913 L -9.16925,46.0969 L -11.4201,45.5915 L -13.6434,44.9762
 L -15.8338,44.2526 L -17.9861,43.4223 L -20.0951,42.4875 L -22.1556,41.4503 L -24.1628,40.3132 L -26.1118,39.0791
 L -27.9979,37.7508 L -29.8165,36.3315 L -31.5633,34.8247 L -33.234,33.234 L -34.8247,31.5633 L -36.3315,29.8165
 L -37.7508,27.9979 L -39.0791,26.1118 L -40.3132,24.1628 L -41.4503,22.1556 L -42.4875,20.0951 L -43.4223,17.9861
 L -44.2526,15.8338 L -44.9762,13.6434 L -45.5915,11.4201 L -46.0969,9.16925 L -46.4913,6.89633 L -46.7737,4.60681
 L -46.9434,2.30618 L -47,-0 L -46.9434,-2.30618 L -46.7737,-4.60681 L -46.4913,-6.89633 L -46.0969,-9.16925
 L -45.5915,-11.4201 L -44.9762,-13.6434 L -44.2526,-15.8338 L -43.4223,-17.9861 L -42.4875,-20.0951 L -41.4503,-22.1556
 L -40.3132,-24.1628 L -39.0791,-26.1118 L -37.7508,-27.9979 L -36.3315,-29.8165 L -34.8247,-31.5633 L -33.234,-33.234
 L -31.5633,-34.8247 L -29.8165,-36.3315 L -27.9979,-37.7508 L -26.1118,-39.0791 L -24.1628,-40.3132 L -22.1556,-41.4503
 L -20.0951,-42.4875 L -17.9861,-43.4223 L -15.8338,-44.2526 L -13.6434,-44.9762 L -11.4201,-45.5915 L -9.16925,-46.0969
 L -6.89633,-46.4913 L -4.60681,-46.7737 L -2.30618,-46.9434 L 0,-47 L 2.30618,-46.9434 L 4.60681,-46.7737
 L 6.89633,-46.4913 L 9.16925,-46.0969 L 11.4201,-45.5915 L 13.6434,-44.9762 L 15.8338,-44.2526 L 17.9861,-43.4223
 L 20.0951,-42.4875 L 22.1556,-41.4503 L 24.1628,-40.3132 L 26.1118,-39.0791 L 27.9979,-37.7508 L 29.8165,-36.3315
 L 31.5633,-34.8247 L 33.234,-33.234 L 34.8247,-31.5633 L 36.3315,-29.8165 L 37.7508,-27.9979 L 39.0791,-26.1118
 L 40.3132,-24.1628 L 41.4503,-22.1556 L 42.4875,-20.0951 L 43.4223,-17.9861 L 44.2526,-15.8338 L 44.9762,-13.6434
 L 45.5915,-11.4201 L 46.0969,-9.16925 L 46.4913,-6.89633 L 46.7737,-4.60681 L 46.9434,-2.30618 L 47,-0
 L 46.9434,2.30618 L 46.7737,4.60681 L 46.4913,6.89633 L 46.0969,9.16925 L 45.5915,11.4201 L 44.9762,13.6434
 L 44.2526,15.8338 L 43.4223,17.9861 L 42.4875,20.0951 L 41.4503,22.1556 L 40.3132,24.1628 L 39.0791,26.1118
 L 37.7508,27.9979 L 36.3315,29.8165 L 34.8247,31.5633 L 33.234,33.234 L 31.5633,34.8247 L 29.8165,36.3315
 L 27.9979,37.7508 L 26.1118,39.0791 L 24.1628,40.3132 L 22.1556,41.4503 L 20.0951,42.4875 L 17.9861,43.4223
 L 15.8338,44.2526 L 13.6434,44.9762 L 11.4201,45.5915 L 9.16925,46.0969 L 6.89633,46.4913 L 4.60681,46.7737
 L 2.30618,46.9434 L 0,47 z
" stroke="black" fill="lightgray" stroke-width="0.5"/>
</svg>
