<?xml version="1.0" standalone="no"?>
<!DOCTYPE svg PUBLIC "-//W3C//DTD SVG 1.1//EN" "http://www.w3.org/Graphics/SVG/1.1/DTD/svg11.dtd">
<svg width="902mm" height="402mm" viewBox="-101 -301 902 402" xmlns="http://www.w3.org/2000/svg" version="1.1">
<title>OpenSCAD Model</title>
<path d="
M 800,-300 L -100,-300 L -100,100 L 800,100 z
M -2.30618,-153.057 L -4.60681,-153.226 L -6.89633,-153.509 L -9.16925,-153.903 L -11.4201,-154.409 L -13.6434,-155.024
 L -15.8338,-155.747 L -17.9861,-156.578 L -20.0951,-157.513 L -22.1556,-158.55 L -24.1628,-159.687 L -26.1118,-160.921
 L -27.9979,-162.249 L -29.8165,-163.669 L -31.5633,-165.175 L -33.234,-166.766 L -34.8247,-168.437 L -36.3315,-170.184
 L -37.7508,-172.002 L -39.0791,-173.888 L -40.3132,-175.837 L -41.4503,-177.844 L -42.4875,-179.905 L -43.4223,-182.014
 L -44.2526,-184.166 L -44.9762,-186.357 L -45.5915,-188.58 L -46.0969,-190.831 L -46.4913,-193.104 L -46.7737,-195.393
 L -46.9434,-197.694 L -47,-200 L -46.9434,-202.306 L -46.7737,-204.607 L -46.4913,-206.896 L -46.0969,-209.169
 L -45.5915,-211.42 L -44.9762,-213.643 L -44.2526,-215.834 L -43.4223,-217.986 L -42.4875,-220.095 L -41.4503,-222.156
 L -40.3132,-224.163 L -39.0791,-226.112 L -37.7508,-227.998 L -36.3315,-229.816 L -34.8247,-231.563 L -33.234,-233.234
 L -31.5633,-234.825 L -29.8165,-236.331 L -27.9979,-237.751 L -26.1118,-239.079 L -24.1628,-240.313 L -22.1556,-241.45
 L -20.0951,-242.487 L -17.9861,-243.422 L -15.8338,-244.253 L -13.6434,-244.976 L -11.4201,-245.591 L -9.16925,-246.097
 L -6.89633,-246.491 L -4.60681,-246.774 L -2.30618,-246.943 L 0,-247 L 2.30618,-246.943 L 4.60681,-246.774
 L 6.89633,-246.491 L 9.16925,-246.097 L 11.4201,-245.591 L 13.6434,-244.976 L 15.8338,-244.253 L 17.9861,-243.422
 L 20.0951,-242.487 L 22.1556,-241.45 L 24.1628,-240.313 L 26.1118,-239.079 L 27.9979,-237.751 L 29.8165,-236.331
 L 31.5633,-234.825 L 33.234,-233.234 L 34.8247,-231.563 L 36.3315,-229.816 L 37.7508,-227.998 L 39.0791,-226.112
 L 40.3132,-224.163 L 41.4503,-222.156 L 42.4875,-220.095 L 43.4223,-217.986 L 44.2526,-215.834 L 44.9762,-213.643
 L 45.5915,-211.42 L 46.0969,-209.169 L 46.4913,-206.896 L 46.7737,-204.607 L 46.9434,-202.306 L 47,-200
 L 46.9434,-197.694 L 46.7737,-195.393 L 46.4913,-193.104 L 46.0969,-190.831 L 45.5915,-188.58 L 44.9762,-186.357
 L 44.2526,-184.166 L 43.4223,-182.014 L 42.4875,-179.905 L 41.4503,-177.844 L 40.3132,-175.837 L 39.0791,-173.888
 L 37.7508,-172.002 L 36.3315,-170.184 L 34.8247,-168.437 L 33.234,-166.766 L 31.5633,-165.175 L 29.8165,-163.669
 L 27.9979,-162.249 L 26.1118,-160.921 L 24.1628,-159.687 L 22.1556,-158.55 L 20.0951,-157.513 L 17.9861,-156.578
 L 15.8338,-155.747 L 13.6434,-155.024 L 11.4201,-154.409 L 9.16925,-153.903 L 6.89633,-153.509 L 4.60681,-153.226
 L 2.30618,-153.057 L 0,-153 z
M 97.6938,-153.057 L 95.3932,-153.226 L 93.1037,-153.509 L 90.8308,-153.903 L 88.5799,-154.409 L 86.3566,-155.024
 L 84.1662,-155.747 L 82.0139,-156.578 L 79.9049,-157.513 L 77.8444,-158.55 L 75.8372,-159.687 L 73.8882,-160.921
 L 72.0021,-162.249 L 70.1835,-163.669 L 68.4367,-165.175 L 66.766,-166.766 L 65.1753,-168.437 L 63.6685,-170.184
 L 62.2492,-172.002 L 60.9209,-173.888 L 59.6868,-175.837 L 58.5497,-177.844 L 57.5125,-179.905 L 56.5777,-182.014
 L 55.7474,-184.166 L 55.0238,-186.357 L 54.4085,-188.58 L 53.9031,-190.831 L 53.5087,-193.104 L 53.2263,-195.393
 L 53.0566,-197.694 L 53,-200 L 53.0566,-202.306 L 53.2263,-204.607 L 53.5087,-206.896 L 53.9031,-209.169
 L 54.4085,-211.42 L 55.0238,-213.643 L 55.7474,-215.834 L 56.5777,-217.986 L 57.5125,-220.095 L 58.5497,-222.156
 L 59.6868,-224.163 L 60.9209,-226.112 L 62.2492,-227.998 L 63.6685,-229.816 L 65.1753,-231.563 L 66.766,-233.234
 L 68.4367,-234.825 L 70.1835,-236.331 L 72.0021,-237.751 L 73.8882,-239.079 L 75.8372,-240.313 L 77.8444,-241.45
 L 79.9049,-242.487 L 82.0139,-243.422 L 84.1662,-244.253 L 86.3566,-244.976 L 88.5799,-245.591 L 90.8308,-246.097
 L 93.1037,-246.491 L 95.3932,-246.774 L 97.6938,-246.943 L 100,-247 L 102.306,-246.943 L 104.607,-246.774
 L 106.896,-246.491 L 109.169,-246.097 L 111.42,-245.591 L 113.643,-244.976 L 115.834,-244.253 L 117.986,-243.422
 L 120.095,-242.487 L 122.156,-241.45 L 124.163,-240.313 L 126.112,-239.079 L 127.998,-237.751 L 129.816,-236.331
 L 131.563,-234.825 L 133.234,-233.234 L 134.825,-231.563 L 136.331,-229.816 L 137.751,-227.998 L 139.079,-226.112
 L 140.313,-224.163 L 141.45,-222.156 L 142.487,-220.095 L 143.422,-217.986 L 144.253,-215.834 L 144.976,-213.643
 L 145.591,-211.42 L 146.097,-209.169 L 146.491,-206.896 L 146.774,-204.607 L 146.943,-202.306 L 147,-200
 L 146.943,-197.694 L 146.774,-195.393 L 146.491,-193.104 L 146.097,-190.831 L 145.591,-188.58 L 144.976,-186.357
 L 144.253,-184.166 L 143.422,-182.014 L 142.487,-179.905 L 141.45,-177.844 L 140.313,-175.837 L 139.079,-173.888
 L 137.751,-172.002 L 136.331,-170.184 L 134.825,-168.437 L 133.234,-166.766 L 131.563,-165.175 L 129.816,-163.669
 L 127.998,-162.249 L 126.112,-160.921 L 124.163,-159.687 L 122.156,-158.55 L 120.095,-157.513 L 117.986,-156.578
 L 115.834,-155.747 L 113.643,-155.024 L 111.42,-154.409 L 109.169,-153.903 L 106.896,-153.509 L 104.607,-153.226
 L 102.306,-153.057 L 100,-153 z
M 197.694,-153.057 L 195.393,-153.226 L 193.104,-153.509 L 190.831,-153.903 L 188.58,-154.409 L 186.357,-155.024
 L 184.166,-155.747 L 182.014,-156.578 L 179.905,-157.513 L 177.844,-158.55 L 175.837,-159.687 L 173.888,-160.921
 L 172.002,-162.249 L 170.184,-163.669 L 168.437,-165.175 L 166.766,-166.766 L 165.175,-168.437 L 163.669,-170.184
 L 162.249,-172.002 L 160.921,-173.888 L 159.687,-175.837 L 158.55,-177.844 L 157.513,-179.905 L 156.578,-182.014
 L 155.747,-184.166 L 155.024,-186.357 L 154.409,-188.58 L 153.903,-190.831 L 153.509,-193.104 L 153.226,-195.393
 L 153.057,-197.694 L 153,-200 L 153.057,-202.306 L 153.226,-204.607 L 153.509,-206.896 L 153.903,-209.169
 L 154.409,-211.42 L 155.024,-213.643 L 155.747,-215.834 L 156.578,-217.986 L 157.513,-220.095 L 158.55,-222.156
 L 159.687,-224.163 L 160.921,-226.112 L 162.249,-227.998 L 163.669,-229.816 L 165.175,-231.563 L 166.766,-233.234
 L 168.437,-234.825 L 170.184,-236.331 L 172.002,-237.751 L 173.888,-239.079 L 175.837,-240.313 L 177.844,-241.45
 L 179.905,-242.487 L 182.014,-243.422 L 184.166,-244.253 L 186.357,-244.976 L 188.58,-245.591 L 190.831,-246.097
 L 193.104,-246.491 L 195.393,-246.774 L 197.694,-246.943 L 200,-247 L 202.306,-246.943 L 204.607,-246.774
 L 206.896,-246.491 L 209.169,-246.097 L 211.42,-245.591 L 213.643,-244.976 L 215.834,-244.253 L 217.986,-243.422
 L 220.095,-242.487 L 222.156,-241.45 L 224.163,-240.313 L 226.112,-239.079 L 227.998,-237.751 L 229.816,-236.331
 L 231.563,-234.825 L 233.234,-233.234 L 234.825,-231.563 L 236.331,-229.816 L 237.751,-227.998 L 239.079,-226.112
 L 240.313,-224.163 L 241.45,-222.156 L 242.487,-220.095 L 243.422,-217.986 L 244.253,-215.834 L 244.976,-213.643
 L 245.591,-211.42 L 246.097,-209.169 L 246.491,-206.896 L 246.774,-204.607 L 246.943,-202.306 L 247,-200
 L 246.943,-197.694 L 246.774,-195.393 L 246.491,-193.104 L 246.097,-190.831 L 245.591,-188.58 L 244.976,-186.357
 L 244.253,-184.166 L 243.422,-182.014 L 242.487,-179.905 L 241.45,-177.844 L 240.313,-175.837 L 239.079,-173.888
 L 237.751,-172.002 L 236.331,-170.184 L 234.825,-168.437 L 233.234,-166.766 L 231.563,-165.175 L 229.816,-163.669
 L 227.998,-162.249 L 226.112,-160.921 L 224.163,-159.687 L 222.156,-158.55 L 220.095,-157.513 L 217.986,-156.578
 L 215.834,-155.747 L 213.643,-155.024 L 211.42,-154.409 L 209.169,-153.903 L 206.896,-153.509 L 204.607,-153.226
 L 202.306,-153.057 L 200,-153 z
M 297.694,-153.057 L 295.393,-153.226 L 293.104,-153.509 L 290.831,-153.903 L 288.58,-154.409 L 286.357,-155.024
 L 284.166,-155.747 L 282.014,-156.578 L 279.905,-157.513 L 277.844,-158.55 L 275.837,-159.687 L 273.888,-160.921
 L 272.002,-162.249 L 270.184,-163.669 L 268.437,-165.175 L 266.766,-166.766 L 265.175,-168.437 L 263.669,-170.184
 L 262.249,-172.002 L 260.921,-173.888 L 259.687,-175.837 L 258.55,-177.844 L 257.513,-179.905 L 256.578,-182.014
 L 255.747,-184.166 L 255.024,-186.357 L 254.409,-188.58 L 253.903,-190.831 L 253.509,-193.104 L 253.226,-195.393
 L 253.057,-197.694 L 253,-200 L 253.057,-202.306 L 253.226,-204.607 L 253.509,-206.896 L 253.903,-209.169
 L 254.409,-211.42 L 255.024,-213.643 L 255.747,-215.834 L 256.578,-217.986 L 257.513,-220.095 L 258.55,-222.156
 L 259.687,-224.163 L 260.921,-226.112 L 262.249,-227.998 L 263.669,-229.816 L 265.175,-231.563 L 266.766,-233.234
 L 268.437,-234.825 L 270.184,-236.331 L 272.002,-237.751 L 273.888,-239.079 L 275.837,-240.313 L 277.844,-241.45
 L 279.905,-242.487 L 282.014,-243.422 L 284.166,-244.253 L 286.357,-244.976 L 288.58,-245.591 L 290.831,-246.097
 L 293.104,-246.491 L 295.393,-246.774 L 297.694,-246.943 L 300,-247 L 302.306,-246.943 L 304.607,-246.774
 L 306.896,-246.491 L 309.169,-246.097 L 311.42,-245.591 L 313.643,-244.976 L 315.834,-244.253 L 317.986,-243.422
 L 320.095,-242.487 L 322.156,-241.45 L 324.163,-240.313 L 326.112,-239.079 L 327.998,-237.751 L 329.816,-236.331
 L 331.563,-234.825 L 333.234,-233.234 L 334.825,-231.563 L 336.331,-229.816 L 337.751,-227.998 L 339.079,-226.112
 L 340.313,-224.163 L 341.45,-222.156 L 342.487,-220.095 L 343.422,-217.986 L 344.253,-215.834 L 344.976,-213.643
 L 345.591,-211.42 L 346.097,-209.169 L 346.491,-206.896 L 346.774,-204.607 L 346.943,-202.306 L 347,-200
 L 346.943,-197.694 L 346.774,-195.393 L 346.491,-193.104 L 346.097,-190.831 L 345.591,-188.58 L 344.976,-186.357
 L 344.253,-184.166 L 343.422,-182.014 L 342.487,-179.905 L 341.45,-177.844 L 340.313,-175.837 L 339.079,-173.888
 L 337.751,-172.002 L 336.331,-170.184 L 334.825,-168.437 L 333.234,-166.766 L 331.563,-165.175 L 329.816,-163.669
 L 327.998,-162.249 L 326.112,-160.921 L 324.163,-159.687 L 322.156,-158.55 L 320.095,-157.513 L 317.986,-156.578
 L 315.834,-155.747 L 313.643,-155.024 L 311.42,-154.409 L 309.169,-153.903 L 306.896,-153.509 L 304.607,-153.226
 L 302.306,-153.057 L 300,-153 z
M 397.694,-153.057 L 395.393,-153.226 L 393.104,-153.509 L 390.831,-153.903 L 388.58,-154.409 L 386.357,-155.024
 L 384.166,-155.747 L 382.014,-156.578 L 379.905,-157.513 L 377.844,-158.55 L 375.837,-159.687 L 373.888,-160.921
 L 372.002,-162.249 L 370.184,-163.669 L 368.437,-165.175 L 366.766,-166.766 L 365.175,-168.437 L 363.669,-170.184
 L 362.249,-172.002 L 360.921,-173.888 L 359.687,-175.837 L 358.55,-177.844 L 357.513,-179.905 L 356.578,-182.014
 L 355.747,-184.166 L 355.024,-186.357 L 354.409,-188.58 L 353.903,-190.831 L 353.509,-193.104 L 353.226,-195.393
 L 353.057,-197.694 L 353,-200 L 353.057,-202.306 L 353.226,-204.607 L 353.509,-206.896 L 353.903,-209.169
 L 354.409,-211.42 L 355.024,-213.643 L 355.747,-215.834 L 356.578,-217.986 L 357.513,-220.095 L 358.55,-222.156
 L 359.687,-224.163 L 360.921,-226.112 L 362.249,-227.998 L 363.669,-229.816 L 365.175,-231.563 L 366.766,-233.234
 L 368.437,-234.825 L 370.184,-236.331 L 372.002,-237.751 L 373.888,-239.079 L 375.837,-240.313 L 377.844,-241.45
 L 379.905,-242.487 L 382.014,-243.422 L 384.166,-244.253 L 386.357,-244.976 L 388.58,-245.591 L 390.831,-246.097
 L 393.104,-246.491 L 395.393,-246.774 L 397.694,-246.943 L 400,-247 L 402.306,-246.943 L 404.607,-246.774
 L 406.896,-246.491 L 409.169,-246.097 L 411.42,-245.591 L 413.643,-244.976 L 415.834,-244.253 L 417.986,-243.422
 L 420.095,-242.487 L 422.156,-241.45 L 424.163,-240.313 L 426.112,-239.079 L 427.998,-237.751 L 429.816,-236.331
 L 431.563,-234.825 L 433.234,-233.234 L 434.825,-231.563 L 436.331,-229.816 L 437.751,-227.998 L 439.079,-226.112
 L 440.313,-224.163 L 441.45,-222.156 L 442.487,-220.095 L 443.422,-217.986 L 444.253,-215.834 L 444.976,-213.643
 L 445.591,-211.42 L 446.097,-209.169 L 446.491,-206.896 L 446.774,-204.607 L 446.943,-202.306 L 447,-200
 L 446.943,-197.694 L 446.774,-195.393 L 446.491,-193.104 L 446.097,-190.831 L 445.591,-188.58 L 444.976,-186.357
 L 444.253,-184.166 L 443.422,-182.014 L 442.487,-179.905 L 441.45,-177.844 L 440.313,-175.837 L 439.079,-173.888
 L 437.751,-172.002 L 436.331,-170.184 L 434.825,-168.437 L 433.234,-166.766 L 431.563,-165.175 L 429.816,-163.669
 L 427.998,-162.249 L 426.112,-160.921 L 424.163,-159.687 L 422.156,-158.55 L 420.095,-157.513 L 417.986,-156.578
 L 415.834,-155.747 L 413.643,-155.024 L 411.42,-154.409 L 409.169,-153.903 L 406.896,-153.509 L 404.607,-153.226
 L 402.306,-153.057 L 400,-153 z
M 497.694,-153.057 L 495.393,-153.226 L 493.104,-153.509 L 490.831,-153.903 L 488.58,-154.409 L 486.357,-155.024
 L 484.166,-155.747 L 482.014,-156.578 L 479.905,-157.513 L 477.844,-158.55 L 475.837,-159.687 L 473.888,-160.921
 L 472.002,-162.249 L 470.184,-163.669 L 468.437,-165.175 L 466.766,-166.766 L 465.175,-168.437 L 463.669,-170.184
 L 462.249,-172.002 L 460.921,-173.888 L 459.687,-175.837 L 458.55,-177.844 L 457.513,-179.905 L 456.578,-182.014
 L 455.747,-184.166 L 455.024,-186.357 L 454.409,-188.58 L 453.903,-190.831 L 453.509,-193.104 L 453.226,-195.393
 L 453.057,-197.694 L 453,-200 L 453.057,-202.306 L 453.226,-204.607 L 453.509,-206.896 L 453.903,-209.169
 L 454.409,-211.42 L 455.024,-213.643 L 455.747,-215.834 L 456.578,-217.986 L 457.513,-220.095 L 458.55,-222.156
 L 459.687,-224.163 L 460.921,-226.112 L 462.249,-227.998 L 463.669,-229.816 L 465.175,-231.563 L 466.766,-233.234
 L 468.437,-234.825 L 470.184,-236.331 L 472.002,-237.751 L 473.888,-239.079 L 475.837,-240.313 L 477.844,-241.45
 L 479.905,-242.487 L 482.014,-243.422 L 484.166,-244.253 L 486.357,-244.976 L 488.58,-245.591 L 490.831,-246.097
 L 493.104,-246.491 L 495.393,-246.774 L 497.694,-246.943 L 500,-247 L 502.306,-246.943 L 504.607,-246.774
 L 506.896,-246.491 L 509.169,-246.097 L 511.42,-245.591 L 513.643,-244.976 L 515.834,-244.253 L 517.986,-243.422
 L 520.095,-242.487 L 522.156,-241.45 L 524.163,-240.313 L 526.112,-239.079 L 527.998,-237.751 L 529.816,-236.331
 L 531.563,-234.825 L 533.234,-233.234 L 534.825,-231.563 L 536.331,-229.816 L 537.751,-227.998 L 539.079,-226.112
 L 540.313,-224.163 L 541.45,-222.156 L 542.487,-220.095 L 543.422,-217.986 L 544.253,-215.834 L 544.976,-213.643
 L 545.591,-211.42 L 546.097,-209.169 L 546.491,-206.896 L 546.774,-204.607 L 546.943,-202.306 L 547,-200
 L 546.943,-197.694 L 546.774,-195.393 L 546.491,-193.104 L 546.097,-190.831 L 545.591,-188.58 L 544.976,-186.357
 L 544.253,-184.166 L 543.422,-182.014 L 542.487,-179.905 L 541.45,-177.844 L 540.313,-175.837 L 539.079,-173.888
 L 537.751,-172.002 L 536.331,-170.184 L 534.825,-168.437 L 533.234,-166.766 L 531.563,-165.175 L 529.816,-163.669
 L 527.998,-162.249 L 526.112,-160.921 L 524.163,-159.687 L 522.156,-158.55 L 520.095,-157.513 L 517.986,-156.578
 L 515.834,-155.747 L 513.643,-155.024 L 511.42,-154.409 L 509.169,-153.903 L 506.896,-153.509 L 504.607,-153.226
 L 502.306,-153.057 L 500,-153 z
M 597.694,-153.057 L 595.393,-153.226 L 593.104,-153.509 L 590.831,-153.903 L 588.58,-154.409 L 586.357,-155.024
 L 584.166,-155.747 L 582.014,-156.578 L 579.905,-157.513 L 577.844,-158.55 L 575.837,-159.687 L 573.888,-160.921
 L 572.002,-162.249 L 570.184,-163.669 L 568.437,-165.175 L 566.766,-166.766 L 565.175,-168.437 L 563.669,-170.184
 L 562.249,-172.002 L 560.921,-173.888 L 559.687,-175.837 L 558.55,-177.844 L 557.513,-179.905 L 556.578,-182.014
 L 555.747,-184.166 L 555.024,-186.357 L 554.409,-188.58 L 553.903,-190.831 L 553.509,-193.104 L 553.226,-195.393
 L 553.057,-197.694 L 553,-200 L 553.057,-202.306 L 553.226,-204.607 L 553.509,-206.896 L 553.903,-209.169
 L 554.409,-211.42 L 555.024,-213.643 L 555.747,-215.834 L 556.578,-217.986 L 557.513,-220.095 L 558.55,-222.156
 L 559.687,-224.163 L 560.921,-226.112 L 562.249,-227.998 L 563.669,-229.816 L 565.175,-231.563 L 566.766,-233.234
 L 568.437,-234.825 L 570.184,-236.331 L 572.002,-237.751 L 573.888,-239.079 L 575.837,-240.313 L 577.844,-241.45
 L 579.905,-242.487 L 582.014,-243.422 L 584.166,-244.253 L 586.357,-244.976 L 588.58,-245.591 L 590.831,-246.097
 L 593.104,-246.491 L 595.393,-246.774 L 597.694,-246.943 L 600,-247 L 602.306,-246.943 L 604.607,-246.774
 L 606.896,-246.491 L 609.169,-246.097 L 611.42,-245.591 L 613.643,-244.976 L 615.834,-244.253 L 617.986,-243.422
 L 620.095,-242.487 L 622.156,-241.45 L 624.163,-240.313 L 626.112,-239.079 L 627.998,-237.751 L 629.816,-236.331
 L 631.563,-234.825 L 633.234,-233.234 L 634.825,-231.563 L 636.331,-229.816 L 637.751,-227.998 L 639.079,-226.112
 L 640.313,-224.163 L 641.45,-222.156 L 642.487,-220.095 L 643.422,-217.986 L 644.253,-215.834 L 644.976,-213.643
 L 645.591,-211.42 L 646.097,-209.169 L 646.491,-206.896 L 646.774,-204.607 L 646.943,-202.306 L 647,-200
 L 646.943,-197.694 L 646.774,-195.393 L 646.491,-193.104 L 646.097,-190.831 L 645.591,-188.58 L 644.976,-186.357
 L 644.253,-184.166 L 643.422,-182.014 L 642.487,-179.905 L 641.45,-177.844 L 640.313,-175.837 L 639.079,-173.888
 L 637.751,-172.002 L 636.331,-170.184 L 634.825,-168.437 L 633.234,-166.766 L 631.563,-165.175 L 629.816,-163.669
 L 627.998,-162.249 L 626.112,-160.921 L 624.163,-159.687 L 622.156,-158.55 L 620.095,-157.513 L 617.986,-156.578
 L 615.834,-155.747 L 613.643,-155.024 L 611.42,-154.409 L 609.169,-153.903 L 606.896,-153.509 L 604.607,-153.226
 L 602.306,-153.057 L 600,-153 z
M 697.694,-153.057 L 695.393,-153.226 L 693.104,-153.509 L 690.831,-153.903 L 688.58,-154.409 L 686.357,-155.024
 L 684.166,-155.747 L 682.014,-156.578 L 679.905,-157.513 L 677.844,-158.55 L 675.837,-159.687 L 673.888,-160.921
 L 672.002,-162.249 L 670.184,-163.669 L 668.437,-165.175 L 666.766,-166.766 L 665.175,-168.437 L 663.669,-170.184
 L 662.249,-172.002 L 660.921,-173.888 L 659.687,-175.837 L 658.55,-177.844 L 657.513,-179.905 L 656.578,-182.014
 L 655.747,-184.166 L 655.024,-186.357 L 654.409,-188.58 L 653.903,-190.831 L 653.509,-193.104 L 653.226,-195.393
 L 653.057,-197.694 L 653,-200 L 653.057,-202.306 L 653.226,-204.607 L 653.509,-206.896 L 653.903,-209.169
 L 654.409,-211.42 L 655.024,-213.643 L 655.747,-215.834 L 656.578,-217.986 L 657.513,-220.095 L 658.55,-222.156
 L 659.687,-224.163 L 660.921,-226.112 L 662.249,-227.998 L 663.669,-229.816 L 665.175,-231.563 L 666.766,-233.234
 L 668.437,-234.825 L 670.184,-236.331 L 672.002,-237.751 L 673.888,-239.079 L 675.837,-240.313 L 677.844,-241.45
 L 679.905,-242.487 L 682.014,-243.422 L 684.166,-244.253 L 686.357,-244.976 L 688.58,-245.591 L 690.831,-246.097
 L 693.104,-246.491 L 695.393,-246.774 L 697.694,-246.943 L 700,-247 L 702.306,-246.943 L 704.607,-246.774
 L 706.896,-246.491 L 709.169,-246.097 L 711.42,-245.591 L 713.643,-244.976 L 715.834,-244.253 L 717.986,-243.422
 L 720.095,-242.487 L 722.156,-241.45 L 724.163,-240.313 L 726.112,-239.079 L 727.998,-237.751 L 729.816,-236.331
 L 731.563,-234.825 L 733.234,-233.234 L 734.825,-231.563 L 736.331,-229.816 L 737.751,-227.998 L 739.079,-226.112
 L 740.313,-224.163 L 741.45,-222.156 L 742.487,-220.095 L 743.422,-217.986 L 744.253,-215.834 L 744.976,-213.643
 L 745.591,-211.42 L 746.097,-209.169 L 746.491,-206.896 L 746.774,-204.607 L 746.943,-202.306 L 747,-200
 L 746.943,-197.694 L 746.774,-195.393 L 746.491,-193.104 L 746.097,-190.831 L 745.591,-188.58 L 744.976,-186.357
 L 744.253,-184.166 L 743.422,-182.014 L 742.487,-179.905 L 741.45,-177.844 L 740.313,-175.837 L 739.079,-173.888
 L 737.751,-172.002 L 736.331,-170.184 L 734.825,-168.437 L 733.234,-166.766 L 731.563,-165.175 L 729.816,-163.669
 L 727.998,-162.249 L 726.112,-160.921 L 724.163,-159.687 L 722.156,-158.55 L 720.095,-157.513 L 717.986,-156.578
 L 715.834,-155.747 L 713.643,-155.024 L 711.42,-154.409 L 709.169,-153.903 L 706.896,-153.509 L 704.607,-153.226
 L 702.306,-153.057 L 700,-153 z
M -2.30618,-53.0566 L -4.60681,-53.2263 L -6.89633,-53.5087 L -9.16925,-53.9031 L -11.4201,-54.4085 L -13.6434,-55.0238
 L -15.8338,-55.7474 L -17.9861,-56.5777 L -20.0951,-57.5125 L -22.1556,-58.5497 L -24.1628,-59.6868 L -26.1118,-60.9209
 L -27.9979,-62.2492 L -29.8165,-63.6685 L -31.5633,-65.1753 L -33.234,-66.766 L -34.8247,-68.4367 L -36.3315,-70.1835
 L -37.7508,-72.0021 L -39.0791,-73.8882 L -40.3132,-75.8372 L -41.4503,-77.8444 L -42.4875,-79.9049 L -43.4223,-82.0139
 L -44.2526,-84.1662 L -44.9762,-86.3566 L -45.5915,-88.5799 L -46.0969,-90.8308 L -46.4913,-93.1037 L -46.7737,-95.3932
 L -46.9434,-97.6938 L -47,-100 L -46.9434,-102.306 L -46.7737,-104.607 L -46.4913,-106.896 L -46.0969,-109.169
 L -45.5915,-111.42 L -44.9762,-113.643 L -44.2526,-115.834 L -43.4223,-117.986 L -42.4875,-120.095 L -41.4503,-122.156
 L -40.3132,-124.163 L -39.0791,-126.112 L -37.7508,-127.998 L -36.3315,-129.816 L -34.8247,-131.563 L -33.234,-133.234
 L -31.5633,-134.825 L -29.8165,-136.331 L -27.9979,-137.751 L -26.1118,-139.079 L -24.1628,-140.313 L -22.1556,-141.45
 L -20.0951,-142.487 L -17.9861,-143.422 L -15.8338,-144.253 L -13.6434,-144.976 L -11.4201,-145.591 L -9.16925,-146.097
 L -6.89633,-146.491 L -4.60681,-146.774 L -2.30618,-146.943 L 0,-147 L 2.30618,-146.943 L 4.60681,-146.774
 L 6.89633,-146.491 L 9.16925,-146.097 L 11.4201,-145.591 L 13.6434,-144.976 L 15.8338,-144.253 L 17.9861,-143.422
 L 20.0951,-142.487 L 22.1556,-141.45 L 24.1628,-140.313 L 26.1118,-139.079 L 27.9979,-137.751 L 29.8165,-136.331
 L 31.5633,-134.825 L 33.234,-133.234 L 34.8247,-131.563 L 36.3315,-129.816 L 37.7508,-127.998 L 39.0791,-126.112
 L 40.3132,-124.163 L 41.4503,-122.156 L 42.4875,-120.095 L 43.4223,-117.986 L 44.2526,-115.834 L 44.9762,-113.643
 L 45.5915,-111.42 L 46.0969,-109.169 L 46.4913,-106.896 L 46.7737,-104.607 L 46.9434,-102.306 L 47,-100
 L 46.9434,-97.6938 L 46.7737,-95.3932 L 46.4913,-93.1037 L 46.0969,-90.8308 L 45.5915,-88.5799 L 44.9762,-86.3566
 L 44.2526,-84.1662 L 43.4223,-82.0139 L 42.4875,-79.9049 L 41.4503,-77.8444 L 40.3132,-75.8372 L 39.0791,-73.8882
 L 37.7508,-72.0021 L 36.3315,-70.1835 L 34.8247,-68.4367 L 33.234,-66.766 L 31.5633,-65.1753 L 29.8165,-63.6685
 L 27.9979,-62.2492 L 26.1118,-60.9209 L 24.1628,-59.6868 L 22.1556,-58.5497 L 20.0951,-57.5125 L 17.9861,-56.5777
 L 15.8338,-55.7474 L 13.6434,-55.0238 L 11.4201,-54.4085 L 9.16925,-53.9031 L 6.89633,-53.5087 L 4.60681,-53.2263
 L 2.30618,-53.0566 L 0,-53 z
M 97.6938,-53.0566 L 95.3932,-53.2263 L 93.1037,-53.5087 L 90.8308,-53.9031 L 88.5799,-54.4085 L 86.3566,-55.0238
 L 84.1662,-55.7474 L 82.0139,-56.5777 L 79.9049,-57.5125 L 77.8444,-58.5497 L 75.8372,-59.6868 L 73.8882,-60.9209
 L 72.0021,-62.2492 L 70.1835,-63.6685 L 68.4367,-65.1753 L 66.766,-66.766 L 65.1753,-68.4367 L 63.6685,-70.1835
 L 62.2492,-72.0021 L 60.9209,-73.8882 L 59.6868,-75.8372 L 58.5497,-77.8444 L 57.5125,-79.9049 L 56.5777,-82.0139
 L 55.7474,-84.1662 L 55.0238,-86.3566 L 54.4085,-88.5799 L 53.9031,-90.8308 L 53.5087,-93.1037 L 53.2263,-95.3932
 L 53.0566,-97.6938 L 53,-100 L 53.0566,-102.306 L 53.2263,-104.607 L 53.5087,-106.896 L 53.9031,-109.169
 L 54.4085,-111.42 L 55.0238,-113.643 L 55.7474,-115.834 L 56.5777,-117.986 L 57.5125,-120.095 L 58.5497,-122.156
 L 59.6868,-124.163 L 60.9209,-126.112 L 62.2492,-127.998 L 63.6685,-129.816 L 65.1753,-131.563 L 66.766,-133.234
 L 68.4367,-134.825 L 70.1835,-136.331 L 72.0021,-137.751 L 73.8882,-139.079 L 75.8372,-140.313 L 77.8444,-141.45
 L 79.9049,-142.487 L 82.0139,-143.422 L 84.1662,-144.253 L 86.3566,-144.976 L 88.5799,-145.591 L 90.8308,-146.097
 L 93.1037,-146.491 L 95.3932,-146.774 L 97.6938,-146.943 L 100,-147 L 102.306,-146.943 L 104.607,-146.774
 L 106.896,-146.491 L 109.169,-146.097 L 111.42,-145.591 L 113.643,-144.976 L 115.834,-144.253 L 117.986,-143.422
 L 120.095,-142.487 L 122.156,-141.45 L 124.163,-140.313 L 126.112,-139.079 L 127.998,-137.751 L 129.816,-136.331
 L 131.563,-134.825 L 133.234,-133.234 L 134.825,-131.563 L 136.331,-129.816 L 137.751,-127.998 L 139.079,-126.112
 L 140.313,-124.163 L 141.45,-122.156 L 142.487,-120.095 L 143.422,-117.986 L 144.253,-115.834 L 144.976,-113.643
 L 145.591,-111.42 L 146.097,-109.169 L 146.491,-106.896 L 146.774,-104.607 L 146.943,-102.306 L 147,-100
 L 146.943,-97.6938 L 146.774,-95.3932 L 146.491,-93.1037 L 146.097,-90.8308 L 145.591,-88.5799 L 144.976,-86.3566
 L 144.253,-84.1662 L 143.422,-82.0139 L 142.487,-79.9049 L 141.45,-77.8444 L 140.313,-75.8372 L 139.079,-73.8882
 L 137.751,-72.0021 L 136.331,-70.1835 L 134.825,-68.4367 L 133.234,-66.766 L 131.563,-65.1753 L 129.816,-63.6685
 L 127.998,-62.2492 L 126.112,-60.9209 L 124.163,-59.6868 L 122.156,-58.5497 L 120.095,-57.5125 L 117.986,-56.5777
 L 115.834,-55.7474 L 113.643,-55.0238 L 111.42,-54.4085 L 109.169,-53.9031 L 106.896,-53.5087 L 104.607,-53.2263
 L 102.306,-53.0566 L 100,-53 z
M 197.694,-53.0566 L 195.393,-53.2263 L 193.104,-53.5087 L 190.831,-53.9031 L 188.58,-54.4085 L 186.357,-55.0238
 L 184.166,-55.7474 L 182.014,-56.5777 L 179.905,-57.5125 L 177.844,-58.5497 L 175.837,-59.6868 L 173.888,-60.9209
 L 172.002,-62.2492 L 170.184,-63.6685 L 168.437,-65.1753 L 166.766,-66.766 L 165.175,-68.4367 L 163.669,-70.1835
 L 162.249,-72.0021 L 160.921,-73.8882 L 159.687,-75.8372 L 158.55,-77.8444 L 157.513,-79.9049 L 156.578,-82.0139
 L 155.747,-84.1662 L 155.024,-86.3566 L 154.409,-88.5799 L 153.903,-90.8308 L 153.509,-93.1037 L 153.226,-95.3932
 L 153.057,-97.6938 L 153,-100 L 153.057,-102.306 L 153.226,-104.607 L 153.509,-106.896 L 153.903,-109.169
 L 154.409,-111.42 L 155.024,-113.643 L 155.747,-115.834 L 156.578,-117.986 L 157.513,-120.095 L 158.55,-122.156
 L 159.687,-124.163 L 160.921,-126.112 L 162.249,-127.998 L 163.669,-129.816 L 165.175,-131.563 L 166.766,-133.234
 L 168.437,-134.825 L 170.184,-136.331 L 172.002,-137.751 L 173.888,-139.079 L 175.837,-140.313 L 177.844,-141.45
 L 179.905,-142.487 L 182.014,-143.422 L 184.166,-144.253 L 186.357,-144.976 L 188.58,-145.591 L 190.831,-146.097
 L 193.104,-146.491 L 195.393,-146.774 L 197.694,-146.943 L 200,-147 L 202.306,-146.943 L 204.607,-146.774
 L 206.896,-146.491 L 209.169,-146.097 L 211.42,-145.591 L 213.643,-144.976 L 215.834,-144.253 L 217.986,-143.422
 L 220.095,-142.487 L 222.156,-141.45 L 224.163,-140.313 L 226.112,-139.079 L 227.998,-137.751 L 229.816,-136.331
 L 231.563,-134.825 L 233.234,-133.234 L 234.825,-131.563 L 236.331,-129.816 L 237.751,-127.998 L 239.079,-126.112
 L 240.313,-124.163 L 241.45,-122.156 L 242.487,-120.095 L 243.422,-117.986 L 244.253,-115.834 L 244.976,-113.643
 L 245.591,-111.42 L 246.097,-109.169 L 246.491,-106.896 L 246.774,-104.607 L 246.943,-102.306 L 247,-100
 L 246.943,-97.6938 L 246.774,-95.3932 L 246.491,-93.1037 L 246.097,-90.8308 L 245.591,-88.5799 L 244.976,-86.3566
 L 244.253,-84.1662 L 243.422,-82.0139 L 242.487,-79.9049 L 241.45,-77.8444 L 240.313,-75.8372 L 239.079,-73.8882
 L 237.751,-72.0021 L 236.331,-70.1835 L 234.825,-68.4367 L 233.234,-66.766 L 231.563,-65.1753 L 229.816,-63.6685
 L 227.998,-62.2492 L 226.112,-60.9209 L 224.163,-59.6868 L 222.156,-58.5497 L 220.095,-57.5125 L 217.986,-56.5777
 L 215.834,-55.7474 L 213.643,-55.0238 L 211.42,-54.4085 L 209.169,-53.9031 L 206.896,-53.5087 L 204.607,-53.2263
 L 202.306,-53.0566 L 200,-53 z
M 297.694,-53.0566 L 295.393,-53.2263 L 293.104,-53.5087 L 290.831,-53.9031 L 288.58,-54.4085 L 286.357,-55.0238
 L 284.166,-55.7474 L 282.014,-56.5777 L 279.905,-57.5125 L 277.844,-58.5497 L 275.837,-59.6868 L 273.888,-60.9209
 L 272.002,-62.2492 L 270.184,-63.6685 L 268.437,-65.1753 L 266.766,-66.766 L 265.175,-68.4367 L 263.669,-70.1835
 L 262.249,-72.0021 L 260.921,-73.8882 L 259.687,-75.8372 L 258.55,-77.8444 L 257.513,-79.9049 L 256.578,-82.0139
 L 255.747,-84.1662 L 255.024,-86.3566 L 254.409,-88.5799 L 253.903,-90.8308 L 253.509,-93.1037 L 253.226,-95.3932
 L 253.057,-97.6938 L 253,-100 L 253.057,-102.306 L 253.226,-104.607 L 253.509,-106.896 L 253.903,-109.169
 L 254.409,-111.42 L 255.024,-113.643 L 255.747,-115.834 L 256.578,-117.986 L 257.513,-120.095 L 258.55,-122.156
 L 259.687,-124.163 L 260.921,-126.112 L 262.249,-127.998 L 263.669,-129.816 L 265.175,-131.563 L 266.766,-133.234
 L 268.437,-134.825 L 270.184,-136.331 L 272.002,-137.751 L 273.888,-139.079 L 275.837,-140.313 L 277.844,-141.45
 L 279.905,-142.487 L 282.014,-143.422 L 284.166,-144.253 L 286.357,-144.976 L 288.58,-145.591 L 290.831,-146.097
 L 293.104,-146.491 L 295.393,-146.774 L 297.694,-146.943 L 300,-147 L 302.306,-146.943 L 304.607,-146.774
 L 306.896,-146.491 L 309.169,-146.097 L 311.42,-145.591 L 313.643,-144.976 L 315.834,-144.253 L 317.986,-143.422
 L 320.095,-142.487 L 322.156,-141.45 L 324.163,-140.313 L 326.112,-139.079 L 327.998,-137.751 L 329.816,-136.331
 L 331.563,-134.825 L 333.234,-133.234 L 334.825,-131.563 L 336.331,-129.816 L 337.751,-127.998 L 339.079,-126.112
 L 340.313,-124.163 L 341.45,-122.156 L 342.487,-120.095 L 343.422,-117.986 L 344.253,-115.834 L 344.976,-113.643
 L 345.591,-111.42 L 346.097,-109.169 L 346.491,-106.896 L 346.774,-104.607 L 346.943,-102.306 L 347,-100
 L 346.943,-97.6938 L 346.774,-95.3932 L 346.491,-93.1037 L 346.097,-90.8308 L 345.591,-88.5799 L 344.976,-86.3566
 L 344.253,-84.1662 L 343.422,-82.0139 L 342.487,-79.9049 L 341.45,-77.8444 L 340.313,-75.8372 L 339.079,-73.8882
 L 337.751,-72.0021 L 336.331,-70.1835 L 334.825,-68.4367 L 333.234,-66.766 L 331.563,-65.1753 L 329.816,-63.6685
 L 327.998,-62.2492 L 326.112,-60.9209 L 324.163,-59.6868 L 322.156,-58.5497 L 320.095,-57.5125 L 317.986,-56.5777
 L 315.834,-55.7474 L 313.643,-55.0238 L 311.42,-54.4085 L 309.169,-53.9031 L 306.896,-53.5087 L 304.607,-53.2263
 L 302.306,-53.0566 L 300,-53 z
M 397.694,-53.0566 L 395.393,-53.2263 L 393.104,-53.5087 L 390.831,-53.9031 L 388.58,-54.4085 L 386.357,-55.0238
 L 384.166,-55.7474 L 382.014,-56.5777 L 379.905,-57.5125 L 377.844,-58.5497 L 375.837,-59.6868 L 373.888,-60.9209
 L 372.002,-62.2492 L 370.184,-63.6685 L 368.437,-65.1753 L 366.766,-66.766 L 365.175,-68.4367 L 363.669,-70.1835
 L 362.249,-72.0021 L 360.921,-73.8882 L 359.687,-75.8372 L 358.55,-77.8444 L 357.513,-79.9049 L 356.578,-82.0139
 L 355.747,-84.1662 L 355.024,-86.3566 L 354.409,-88.5799 L 353.903,-90.8308 L 353.509,-93.1037 L 353.226,-95.3932
 L 353.057,-97.6938 L 353,-100 L 353.057,-102.306 L 353.226,-104.607 L 353.509,-106.896 L 353.903,-109.169
 L 354.409,-111.42 L 355.024,-113.643 L 355.747,-115.834 L 356.578,-117.986 L 357.513,-120.095 L 358.55,-122.156
 L 359.687,-124.163 L 360.921,-126.112 L 362.249,-127.998 L 363.669,-129.816 L 365.175,-131.563 L 366.766,-133.234
 L 368.437,-134.825 L 370.184,-136.331 L 372.002,-137.751 L 373.888,-139.079 L 375.837,-140.313 L 377.844,-141.45
 L 379.905,-142.487 L 382.014,-143.422 L 384.166,-144.253 L 386.357,-144.976 L 388.58,-145.591 L 390.831,-146.097
 L 393.104,-146.491 L 395.393,-146.774 L 397.694,-146.943 L 400,-147 L 402.306,-146.943 L 404.607,-146.774
 L 406.896,-146.491 L 409.169,-146.097 L 411.42,-145.591 L 413.643,-144.976 L 415.834,-144.253 L 417.986,-143.422
 L 420.095,-142.487 L 422.156,-141.45 L 424.163,-140.313 L 426.112,-139.079 L 427.998,-137.751 L 429.816,-136.331
 L 431.563,-134.825 L 433.234,-133.234 L 434.825,-131.563 L 436.331,-129.816 L 437.751,-127.998 L 439.079,-126.112
 L 440.313,-124.163 L 441.45,-122.156 L 442.487,-120.095 L 443.422,-117.986 L 444.253,-115.834 L 444.976,-113.643
 L 445.591,-111.42 L 446.097,-109.169 L 446.491,-106.896 L 446.774,-104.607 L 446.943,-102.306 L 447,-100
 L 446.943,-97.6938 L 446.774,-95.3932 L 446.491,-93.1037 L 446.097,-90.8308 L 445.591,-88.5799 L 444.976,-86.3566
 L 444.253,-84.1662 L 443.422,-82.0139 L 442.487,-79.9049 L 441.45,-77.8444 L 440.313,-75.8372 L 439.079,-73.8882
 L 437.751,-72.0021 L 436.331,-70.1835 L 434.825,-68.4367 L 433.234,-66.766 L 431.563,-65.1753 L 429.816,-63.6685
 L 427.998,-62.2492 L 426.112,-60.9209 L 424.163,-59.6868 L 422.156,-58.5497 L 420.095,-57.5125 L 417.986,-56.5777
 L 415.834,-55.7474 L 413.643,-55.0238 L 411.42,-54.4085 L 409.169,-53.9031 L 406.896,-53.5087 L 404.607,-53.2263
 L 402.306,-53.0566 L 400,-53 z
M 497.694,-53.0566 L 495.393,-53.2263 L 493.104,-53.5087 L 490.831,-53.9031 L 488.58,-54.4085 L 486.357,-55.0238
 L 484.166,-55.7474 L 482.014,-56.5777 L 479.905,-57.5125 L 477.844,-58.5497 L 475.837,-59.6868 L 473.888,-60.9209
 L 472.002,-62.2492 L 470.184,-63.6685 L 468.437,-65.1753 L 466.766,-66.766 L 465.175,-68.4367 L 463.669,-70.1835
 L 462.249,-72.0021 L 460.921,-73.8882 L 459.687,-75.8372 L 458.55,-77.8444 L 457.513,-79.9049 L 456.578,-82.0139
 L 455.747,-84.1662 L 455.024,-86.3566 L 454.409,-88.5799 L 453.903,-90.8308 L 453.509,-93.1037 L 453.226,-95.3932
 L 453.057,-97.6938 L 453,-100 L 453.057,-102.306 L 453.226,-104.607 L 453.509,-106.896 L 453.903,-109.169
 L 454.409,-111.42 L 455.024,-113.643 L 455.747,-115.834 L 456.578,-117.986 L 457.513,-120.095 L 458.55,-122.156
 L 459.687,-124.163 L 460.921,-126.112 L 462.249,-127.998 L 463.669,-129.816 L 465.175,-131.563 L 466.766,-133.234
 L 468.437,-134.825 L 470.184,-136.331 L 472.002,-137.751 L 473.888,-139.079 L 475.837,-140.313 L 477.844,-141.45
 L 479.905,-142.487 L 482.014,-143.422 L 484.166,-144.253 L 486.357,-144.976 L 488.58,-145.591 L 490.831,-146.097
 L 493.104,-146.491 L 495.393,-146.774 L 497.694,-146.943 L 500,-147 L 502.306,-146.943 L 504.607,-146.774
 L 506.896,-146.491 L 509.169,-146.097 L 511.42,-145.591 L 513.643,-144.976 L 515.834,-144.253 L 517.986,-143.422
 L 520.095,-142.487 L 522.156,-141.45 L 524.163,-140.313 L 526.112,-139.079 L 527.998,-137.751 L 529.816,-136.331
 L 531.563,-134.825 L 533.234,-133.234 L 534.825,-131.563 L 536.331,-129.816 L 537.751,-127.998 L 539.079,-126.112
 L 540.313,-124.163 L 541.45,-122.156 L 542.487,-120.095 L 543.422,-117.986 L 544.253,-115.834 L 544.976,-113.643
 L 545.591,-111.42 L 546.097,-109.169 L 546.491,-106.896 L 546.774,-104.607 L 546.943,-102.306 L 547,-100
 L 546.943,-97.6938 L 546.774,-95.3932 L 546.491,-93.1037 L 546.097,-90.8308 L 545.591,-88.5799 L 544.976,-86.3566
 L 544.253,-84.1662 L 543.422,-82.0139 L 542.487,-79.9049 L 541.45,-77.8444 L 540.313,-75.8372 L 539.079,-73.8882
 L 537.751,-72.0021 L 536.331,-70.1835 L 534.825,-68.4367 L 533.234,-66.766 L 531.563,-65.1753 L 529.816,-63.6685
 L 527.998,-62.2492 L 526.112,-60.9209 L 524.163,-59.6868 L 522.156,-58.5497 L 520.095,-57.5125 L 517.986,-56.5777
 L 515.834,-55.7474 L 513.643,-55.0238 L 511.42,-54.4085 L 509.169,-53.9031 L 506.896,-53.5087 L 504.607,-53.2263
 L 502.306,-53.0566 L 500,-53 z
M 597.694,-53.0566 L 595.393,-53.2263 L 593.104,-53.5087 L 590.831,-53.9031 L 588.58,-54.4085 L 586.357,-55.0238
 L 584.166,-55.7474 L 582.014,-56.5777 L 579.905,-57.5125 L 577.844,-58.5497 L 575.837,-59.6868 L 573.888,-60.9209
 L 572.002,-62.2492 L 570.184,-63.6685 L 568.437,-65.1753 L 566.766,-66.766 L 565.175,-68.4367 L 563.669,-70.1835
 L 562.249,-72.0021 L 560.921,-73.8882 L 559.687,-75.8372 L 558.55,-77.8444 L 557.513,-79.9049 L 556.578,-82.0139
 L 555.747,-84.1662 L 555.024,-86.3566 L 554.409,-88.5799 L 553.903,-90.8308 L 553.509,-93.1037 L 553.226,-95.3932
 L 553.057,-97.6938 L 553,-100 L 553.057,-102.306 L 553.226,-104.607 L 553.509,-106.896 L 553.903,-109.169
 L 554.409,-111.42 L 555.024,-113.643 L 555.747,-115.834 L 556.578,-117.986 L 557.513,-120.095 L 558.55,-122.156
 L 559.687,-124.163 L 560.921,-126.112 L 562.249,-127.998 L 563.669,-129.816 L 565.175,-131.563 L 566.766,-133.234
 L 568.437,-134.825 L 570.184,-136.331 L 572.002,-137.751 L 573.888,-139.079 L 575.837,-140.313 L 577.844,-141.45
 L 579.905,-142.487 L 582.014,-143.422 L 584.166,-144.253 L 586.357,-144.976 L 588.58,-145.591 L 590.831,-146.097
 L 593.104,-146.491 L 595.393,-146.774 L 597.694,-146.943 L 600,-147 L 602.306,-146.943 L 604.607,-146.774
 L 606.896,-146.491 L 609.169,-146.097 L 611.42,-145.591 L 613.643,-144.976 L 615.834,-144.253 L 617.986,-143.422
 L 620.095,-142.487 L 622.156,-141.45 L 624.163,-140.313 L 626.112,-139.079 L 627.998,-137.751 L 629.816,-136.331
 L 631.563,-134.825 L 633.234,-133.234 L 634.825,-131.563 L 636.331,-129.816 L 637.751,-127.998 L 639.079,-126.112
 L 640.313,-124.163 L 641.45,-122.156 L 642.487,-120.095 L 643.422,-117.986 L 644.253,-115.834 L 644.976,-113.643
 L 645.591,-111.42 L 646.097,-109.169 L 646.491,-106.896 L 646.774,-104.607 L 646.943,-102.306 L 647,-100
 L 646.943,-97.6938 L 646.774,-95.3932 L 646.491,-93.1037 L 646.097,-90.8308 L 645.591,-88.5799 L 644.976,-86.3566
 L 644.253,-84.1662 L 643.422,-82.0139 L 642.487,-79.9049 L 641.45,-77.8444 L 640.313,-75.8372 L 639.079,-73.8882
 L 637.751,-72.0021 L 636.331,-70.1835 L 634.825,-68.4367 L 633.234,-66.766 L 631.563,-65.1753 L 629.816,-63.6685
 L 627.998,-62.2492 L 626.112,-60.9209 L 624.163,-59.6868 L 622.156,-58.5497 L 620.095,-57.5125 L 617.986,-56.5777
 L 615.834,-55.7474 L 613.643,-55.0238 L 611.42,-54.4085 L 609.169,-53.9031 L 606.896,-53.5087 L 604.607,-53.2263
 L 602.306,-53.0566 L 600,-53 z
M 697.694,-53.0566 L 695.393,-53.2263 L 693.104,-53.5087 L 690.831,-53.9031 L 688.58,-54.4085 L 686.357,-55.0238
 L 684.166,-55.7474 L 682.014,-56.5777 L 679.905,-57.5125 L 677.844,-58.5497 L 675.837,-59.6868 L 673.888,-60.9209
 L 672.002,-62.2492 L 670.184,-63.6685 L 668.437,-65.1753 L 666.766,-66.766 L 665.175,-68.4367 L 663.669,-70.1835
 L 662.249,-72.0021 L 660.921,-73.8882 L 659.687,-75.8372 L 658.55,-77.8444 L 657.513,-79.9049 L 656.578,-82.0139
 L 655.747,-84.1662 L 655.024,-86.3566 L 654.409,-88.5799 L 653.903,-90.8308 L 653.509,-93.1037 L 653.226,-95.3932
 L 653.057,-97.6938 L 653,-100 L 653.057,-102.306 L 653.226,-104.607 L 653.509,-106.896 L 653.903,-109.169
 L 654.409,-111.42 L 655.024,-113.643 L 655.747,-115.834 L 656.578,-117.986 L 657.513,-120.095 L 658.55,-122.156
 L 659.687,-124.163 L 660.921,-126.112 L 662.249,-127.998 L 663.669,-129.816 L 665.175,-131.563 L 666.766,-133.234
 L 668.437,-134.825 L 670.184,-136.331 L 672.002,-137.751 L 673.888,-139.079 L 675.837,-140.313 L 677.844,-141.45
 L 679.905,-142.487 L 682.014,-143.422 L 684.166,-144.253 L 686.357,-144.976 L 688.58,-145.591 L 690.831,-146.097
 L 693.104,-146.491 L 695.393,-146.774 L 697.694,-146.943 L 700,-147 L 702.306,-146.943 L 704.607,-146.774
 L 706.896,-146.491 L 709.169,-146.097 L 711.42,-145.591 L 713.643,-144.976 L 715.834,-144.253 L 717.986,-143.422
 L 720.095,-142.487 L 722.156,-141.45 L 724.163,-140.313 L 726.112,-139.079 L 727.998,-137.751 L 729.816,-136.331
 L 731.563,-134.825 L 733.234,-133.234 L 734.825,-131.563 L 736.331,-129.816 L 737.751,-127.998 L 739.079,-126.112
 L 740.313,-124.163 L 741.45,-122.156 L 742.487,-120.095 L 743.422,-117.986 L 744.253,-115.834 L 744.976,-113.643
 L 745.591,-111.42 L 746.097,-109.169 L 746.491,-106.896 L 746.774,-104.607 L 746.943,-102.306 L 747,-100
 L 746.943,-97.6938 L 746.774,-95.3932 L 746.491,-93.1037 L 746.097,-90.8308 L 745.591,-88.5799 L 744.976,-86.3566
 L 744.253,-84.1662 L 743.422,-82.0139 L 742.487,-79.9049 L 741.45,-77.8444 L 740.313,-75.8372 L 739.079,-73.8882
 L 737.751,-72.0021 L 736.331,-70.1835 L 734.825,-68.4367 L 733.234,-66.766 L 731.563,-65.1753 L 729.816,-63.6685
 L 727.998,-62.2492 L 726.112,-60.9209 L 724.163,-59.6868 L 722.156,-58.5497 L 720.095,-57.5125 L 717.986,-56.5777
 L 715.834,-55.7474 L 713.643,-55.0238 L 711.42,-54.4085 L 709.169,-53.9031 L 706.896,-53.5087 L 704.607,-53.2263
 L 702.306,-53.0566 L 700,-53 z
M -2.30618,46.9434 L -4.60681,46.7737 L -6.89633,46.4913 L -9.16925,46.0969 L -11.4201,45.5915 L -13.6434,44.9762
 L -15.8338,44.2526 L -17.9861,43.4223 L -20.0951,42.4875 L -22.1556,41.4503 L -24.1628,40.3132 L -26.1118,39.0791
 L -27.9979,37.7508 L -29.8165,36.3315 L -31.5633,34.8247 L -33.234,33.234 L -34.8247,31.5633 L -36.3315,29.8165
 L -37.7508,27.9979 L -39.0791,26.1118 L -40.3132,24.1628 L -41.4503,22.1556 L -42.4875,20.0951 L -43.4223,17.9861
 L -44.2526,15.8338 L -44.9762,13.6434 L -45.5915,11.4201 L -46.0969,9.16925 L -46.4913,6.89633 L -46.7737,4.60681
 L -46.9434,2.30618 L -47,-0 L -46.9434,-2.30618 L -46.7737,-4.60681 L -46.4913,-6.89633 L -46.0969,-9.16925
 L -45.5915,-11.4201 L -44.9762,-13.6434 L -44.2526,-15.8338 L -43.4223,-17.9861 L -42.4875,-20.0951 L -41.4503,-22.1556
 L -40.3132,-24.1628 L -39.0791,-26.1118 L -37.7508,-27.9979 L -36.3315,-29.8165 L -34.8247,-31.5633 L -33.234,-33.234
 L -31.5633,-34.8247 L -29.8165,-36.3315 L -27.9979,-37.7508 L -26.1118,-39.0791 L -24.1628,-40.3132 L -22.1556,-41.4503
 L -20.0951,-42.4875 L -17.9861,-43.4223 L -15.8338,-44.2526 L -13.6434,-44.9762 L -11.4201,-45.5915 L -9.16925,-46.0969
 L -6.89633,-46.4913 L -4.60681,-46.7737 L -2.30618,-46.9434 L 0,-47 L 2.30618,-46.9434 L 4.60681,-46.7737
 L 6.89633,-46.4913 L 9.16925,-46.0969 L 11.4201,-45.5915 L 13.6434,-44.9762 L 15.8338,-44.2526 L 17.9861,-43.4223
 L 20.0951,-42.4875 L 22.1556,-41.4503 L 24.1628,-40.3132 L 26.1118,-39.0791 L 27.9979,-37.7508 L 29.8165,-36.3315
 L 31.5633,-34.8247 L 33.234,-33.234 L 34.8247,-31.5633 L 36.3315,-29.8165 L 37.7508,-27.9979 L 39.0791,-26.1118
 L 40.3132,-24.1628 L 41.4503,-22.1556 L 42.4875,-20.0951 L 43.4223,-17.9861 L 44.2526,-15.8338 L 44.9762,-13.6434
 L 45.5915,-11.4201 L 46.0969,-9.16925 L 46.4913,-6.89633 L 46.7737,-4.60681 L 46.9434,-2.30618 L 47,-0
 L 46.9434,2.30618 L 46.7737,4.60681 L 46.4913,6.89633 L 46.0969,9.16925 L 45.5915,11.4201 L 44.9762,13.6434
 L 44.2526,15.8338 L 43.4223,17.9861 L 42.4875,20.0951 L 41.4503,22.1556 L 40.3132,24.1628 L 39.0791,26.1118
 L 37.7508,27.9979 L 36.3315,29.8165 L 34.8247,31.5633 L 33.234,33.234 L 31.5633,34.8247 L 29.8165,36.3315
 L 27.9979,37.7508 L 26.1118,39.0791 L 24.1628,40.3132 L 22.1556,41.4503 L 20.0951,42.4875 L 17.9861,43.4223
 L 15.8338,44.2526 L 13.6434,44.9762 L 11.4201,45.5915 L 9.16925,46.0969 L 6.89633,46.4913 L 4.60681,46.7737
 L 2.30618,46.9434 L 0,47 z
M 97.6938,46.9434 L 95.3932,46.7737 L 93.1037,46.4913 L 90.8308,46.0969 L 88.5799,45.5915 L 86.3566,44.9762
 L 84.1662,44.2526 L 82.0139,43.4223 L 79.9049,42.4875 L 77.8444,41.4503 L 75.8372,40.3132 L 73.8882,39.0791
 L 72.0021,37.7508 L 70.1835,36.3315 L 68.4367,34.8247 L 66.766,33.234 L 65.1753,31.5633 L 63.6685,29.8165
 L 62.2492,27.9979 L 60.9209,26.1118 L 59.6868,24.1628 L 58.5497,22.1556 L 57.5125,20.0951 L 56.5777,17.9861
 L 55.7474,15.8338 L 55.0238,13.6434 L 54.4085,11.4201 L 53.9031,9.16925 L 53.5087,6.89633 L 53.2263,4.60681
 L 53.0566,2.30618 L 53,-0 L 53.0566,-2.30618 L 53.2263,-4.60681 L 53.5087,-6.89633 L 53.9031,-9.16925
 L 54.4085,-11.4201 L 55.0238,-13.6434 L 55.7474,-15.8338 L 56.5777,-17.9861 L 57.5125,-20.0951 L 58.5497,-22.1556
 L 59.6868,-24.1628 L 60.9209,-26.1118 L 62.2492,-27.9979 L 63.6685,-29.8165 L 65.1753,-31.5633 L 66.766,-33.234
 L 68.4367,-34.8247 L 70.1835,-36.3315 L 72.0021,-37.7508 L 73.8882,-39.0791 L 75.8372,-40.3132 L 77.8444,-41.4503
 L 79.9049,-42.4875 L 82.0139,-43.4223 L 84.1662,-44.2526 L 86.3566,-44.9762 L 88.5799,-45.5915 L 90.8308,-46.0969
 L 93.1037,-46.4913 L 95.3932,-46.7737 L 97.6938,-46.9434 L 100,-47 L 102.306,-46.9434 L 104.607,-46.7737
 L 106.896,-46.4913 L 109.169,-46.0969 L 111.42,-45.5915 L 113.643,-44.9762 L 115.834,-44.2526 L 117.986,-43.4223
 L 120.095,-42.4875 L 122.156,-41.4503 L 124.163,-40.3132 L 126.112,-39.0791 L 127.998,-37.7508 L 129.816,-36.3315
 L 131.563,-34.8247 L 133.234,-33.234 L 134.825,-31.5633 L 136.331,-29.8165 L 137.751,-27.9979 L 139.079,-26.1118
 L 140.313,-24.1628 L 141.45,-22.1556 L 142.487,-20.0951 L 143.422,-17.9861 L 144.253,-15.8338 L 144.976,-13.6434
 L 145.591,-11.4201 L 146.097,-9.16925 L 146.491,-6.89633 L 146.774,-4.60681 L 146.943,-2.30618 L 147,-0
 L 146.943,2.30618 L 146.774,4.60681 L 146.491,6.89633 L 146.097,9.16925 L 145.591,11.4201 L 144.976,13.6434
 L 144.253,15.8338 L 143.422,17.9861 L 142.487,20.0951 L 141.45,22.1556 L 140.313,24.1628 L 139.079,26.1118
 L 137.751,27.9979 L 136.331,29.8165 L 134.825,31.5633 L 133.234,33.234 L 131.563,34.8247 L 129.816,36.3315
 L 127.998,37.7508 L 126.112,39.0791 L 124.163,40.3132 L 122.156,41.4503 L 120.095,42.4875 L 117.986,43.4223
 L 115.834,44.2526 L 113.643,44.9762 L 111.42,45.5915 L 109.169,46.0969 L 106.896,46.4913 L 104.607,46.7737
 L 102.306,46.9434 L 100,47 z
M 197.694,46.9434 L 195.393,46.7737 L 193.104,46.4913 L 190.831,46.0969 L 188.58,45.5915 L 186.357,44.9762
 L 184.166,44.2526 L 182.014,43.4223 L 179.905,42.4875 L 177.844,41.4503 L 175.837,40.3132 L 173.888,39.0791
 L 172.002,37.7508 L 170.184,36.3315 L 168.437,34.8247 L 166.766,33.234 L 165.175,31.5633 L 163.669,29.8165
 L 162.249,27.9979 L 160.921,26.1118 L 159.687,24.1628 L 158.55,22.1556 L 157.513,20.0951 L 156.578,17.9861
 L 155.747,15.8338 L 155.024,13.6434 L 154.409,11.4201 L 153.903,9.16925 L 153.509,6.89633 L 153.226,4.60681
 L 153.057,2.30618 L 153,-0 L 153.057,-2.30618 L 153.226,-4.60681 L 153.509,-6.89633 L 153.903,-9.16925
 L 154.409,-11.4201 L 155.024,-13.6434 L 155.747,-15.8338 L 156.578,-17.9861 L 157.513,-20.0951 L 158.55,-22.1556
 L 159.687,-24.1628 L 160.921,-26.1118 L 162.249,-27.9979 L 163.669,-29.8165 L 165.175,-31.5633 L 166.766,-33.234
 L 168.437,-34.8247 L 170.184,-36.3315 L 172.002,-37.7508 L 173.888,-39.0791 L 175.837,-40.3132 L 177.844,-41.4503
 L 179.905,-42.4875 L 182.014,-43.4223 L 184.166,-44.2526 L 186.357,-44.9762 L 188.58,-45.5915 L 190.831,-46.0969
 L 193.104,-46.4913 L 195.393,-46.7737 L 197.694,-46.9434 L 200,-47 L 202.306,-46.9434 L 204.607,-46.7737
 L 206.896,-46.4913 L 209.169,-46.0969 L 211.42,-45.5915 L 213.643,-44.9762 L 215.834,-44.2526 L 217.986,-43.4223
 L 220.095,-42.4875 L 222.156,-41.4503 L 224.163,-40.3132 L 226.112,-39.0791 L 227.998,-37.7508 L 229.816,-36.3315
 L 231.563,-34.8247 L 233.234,-33.234 L 234.825,-31.5633 L 236.331,-29.8165 L 237.751,-27.9979 L 239.079,-26.1118
 L 240.313,-24.1628 L 241.45,-22.1556 L 242.487,-20.0951 L 243.422,-17.9861 L 244.253,-15.8338 L 244.976,-13.6434
 L 245.591,-11.4201 L 246.097,-9.16925 L 246.491,-6.89633 L 246.774,-4.60681 L 246.943,-2.30618 L 247,-0
 L 246.943,2.30618 L 246.774,4.60681 L 246.491,6.89633 L 246.097,9.16925 L 245.591,11.4201 L 244.976,13.6434
 L 244.253,15.8338 L 243.422,17.9861 L 242.487,20.0951 L 241.45,22.1556 L 240.313,24.1628 L 239.079,26.1118
 L 237.751,27.9979 L 236.331,29.8165 L 234.825,31.5633 L 233.234,33.234 L 231.563,34.8247 L 229.816,36.3315
 L 227.998,37.7508 L 226.112,39.0791 L 224.163,40.3132 L 222.156,41.4503 L 220.095,42.4875 L 217.986,43.4223
 L 215.834,44.2526 L 213.643,44.9762 L 211.42,45.5915 L 209.169,46.0969 L 206.896,46.4913 L 204.607,46.7737
 L 202.306,46.9434 L 200,47 z
M 297.694,46.9434 L 295.393,46.7737 L 293.104,46.4913 L 290.831,46.0969 L 288.58,45.5915 L 286.357,44.9762
 L 284.166,44.2526 L 282.014,43.4223 L 279.905,42.4875 L 277.844,41.4503 L 275.837,40.3132 L 273.888,39.0791
 L 272.002,37.7508 L 270.184,36.3315 L 268.437,34.8247 L 266.766,33.234 L 265.175,31.5633 L 263.669,29.8165
 L 262.249,27.9979 L 260.921,26.1118 L 259.687,24.1628 L 258.55,22.1556 L 257.513,20.0951 L 256.578,17.9861
 L 255.747,15.8338 L 255.024,13.6434 L 254.409,11.4201 L 253.903,9.16925 L 253.509,6.89633 L 253.226,4.60681
 L 253.057,2.30618 L 253,-0 L 253.057,-2.30618 L 253.226,-4.60681 L 253.509,-6.89633 L 253.903,-9.16925
 L 254.409,-11.4201 L 255.024,-13.6434 L 255.747,-15.8338 L 256.578,-17.9861 L 257.513,-20.0951 L 258.55,-22.1556
 L 259.687,-24.1628 L 260.921,-26.1118 L 262.249,-27.9979 L 263.669,-29.8165 L 265.175,-31.5633 L 266.766,-33.234
 L 268.437,-34.8247 L 270.184,-36.3315 L 272.002,-37.7508 L 273.888,-39.0791 L 275.837,-40.3132 L 277.844,-41.4503
 L 279.905,-42.4875 L 282.014,-43.4223 L 284.166,-44.2526 L 286.357,-44.9762 L 288.58,-45.5915 L 290.831,-46.0969
 L 293.104,-46.4913 L 295.393,-46.7737 L 297.694,-46.9434 L 300,-47 L 302.306,-46.9434 L 304.607,-46.7737
 L 306.896,-46.4913 L 309.169,-46.0969 L 311.42,-45.5915 L 313.643,-44.9762 L 315.834,-44.2526 L 317.986,-43.4223
 L 320.095,-42.4875 L 322.156,-41.4503 L 324.163,-40.3132 L 326.112,-39.0791 L 327.998,-37.7508 L 329.816,-36.3315
 L 331.563,-34.8247 L 333.234,-33.234 L 334.825,-31.5633 L 336.331,-29.8165 L 337.751,-27.9979 L 339.079,-26.1118
 L 340.313,-24.1628 L 341.45,-22.1556 L 342.487,-20.0951 L 343.422,-17.9861 L 344.253,-15.8338 L 344.976,-13.6434
 L 345.591,-11.4201 L 346.097,-9.16925 L 346.491,-6.89633 L 346.774,-4.60681 L 346.943,-2.30618 L 347,-0
 L 346.943,2.30618 L 346.774,4.60681 L 346.491,6.89633 L 346.097,9.16925 L 345.591,11.4201 L 344.976,13.6434
 L 344.253,15.8338 L 343.422,17.9861 L 342.487,20.0951 L 341.45,22.1556 L 340.313,24.1628 L 339.079,26.1118
 L 337.751,27.9979 L 336.331,29.8165 L 334.825,31.5633 L 333.234,33.234 L 331.563,34.8247 L 329.816,36.3315
 L 327.998,37.7508 L 326.112,39.0791 L 324.163,40.3132 L 322.156,41.4503 L 320.095,42.4875 L 317.986,43.4223
 L 315.834,44.2526 L 313.643,44.9762 L 311.42,45.5915 L 309.169,46.0969 L 306.896,46.4913 L 304.607,46.7737
 L 302.306,46.9434 L 300,47 z
M 397.694,46.9434 L 395.393,46.7737 L 393.104,46.4913 L 390.831,46.0969 L 388.58,45.5915 L 386.357,44.9762
 L 384.166,44.2526 L 382.014,43.4223 L 379.905,42.4875 L 377.844,41.4503 L 375.837,40.3132 L 373.888,39.0791
 L 372.002,37.7508 L 370.184,36.3315 L 368.437,34.8247 L 366.766,33.234 L 365.175,31.5633 L 363.669,29.8165
 L 362.249,27.9979 L 360.921,26.1118 L 359.687,24.1628 L 358.55,22.1556 L 357.513,20.0951 L 356.578,17.9861
 L 355.747,15.8338 L 355.024,13.6434 L 354.409,11.4201 L 353.903,9.16925 L 353.509,6.89633 L 353.226,4.60681
 L 353.057,2.30618 L 353,-0 L 353.057,-2.30618 L 353.226,-4.60681 L 353.509,-6.89633 L 353.903,-9.16925
 L 354.409,-11.4201 L 355.024,-13.6434 L 355.747,-15.8338 L 356.578,-17.9861 L 357.513,-20.0951 L 358.55,-22.1556
 L 359.687,-24.1628 L 360.921,-26.1118 L 362.249,-27.9979 L 363.669,-29.8165 L 365.175,-31.5633 L 366.766,-33.234
 L 368.437,-34.8247 L 370.184,-36.3315 L 372.002,-37.7508 L 373.888,-39.0791 L 375.837,-40.3132 L 377.844,-41.4503
 L 379.905,-42.4875 L 382.014,-43.4223 L 384.166,-44.2526 L 386.357,-44.9762 L 388.58,-45.5915 L 390.831,-46.0969
 L 393.104,-46.4913 L 395.393,-46.7737 L 397.694,-46.9434 L 400,-47 L 402.306,-46.9434 L 404.607,-46.7737
 L 406.896,-46.4913 L 409.169,-46.0969 L 411.42,-45.5915 L 413.643,-44.9762 L 415.834,-44.2526 L 417.986,-43.4223
 L 420.095,-42.4875 L 422.156,-41.4503 L 424.163,-40.3132 L 426.112,-39.0791 L 427.998,-37.7508 L 429.816,-36.3315
 L 431.563,-34.8247 L 433.234,-33.234 L 434.825,-31.5633 L 436.331,-29.8165 L 437.751,-27.9979 L 439.079,-26.1118
 L 440.313,-24.1628 L 441.45,-22.1556 L 442.487,-20.0951 L 443.422,-17.9861 L 444.253,-15.8338 L 444.976,-13.6434
 L 445.591,-11.4201 L 446.097,-9.16925 L 446.491,-6.89633 L 446.774,-4.60681 L 446.943,-2.30618 L 447,-0
 L 446.943,2.30618 L 446.774,4.60681 L 446.491,6.89633 L 446.097,9.16925 L 445.591,11.4201 L 444.976,13.6434
 L 444.253,15.8338 L 443.422,17.9861 L 442.487,20.0951 L 441.45,22.1556 L 440.313,24.1628 L 439.079,26.1118
 L 437.751,27.9979 L 436.331,29.8165 L 434.825,31.5633 L 433.234,33.234 L 431.563,34.8247 L 429.816,36.3315
 L 427.998,37.7508 L 426.112,39.0791 L 424.163,40.3132 L 422.156,41.4503 L 420.095,42.4875 L 417.986,43.4223
 L 415.834,44.2526 L 413.643,44.9762 L 411.42,45.5915 L 409.169,46.0969 L 406.896,46.4913 L 404.607,46.7737
 L 402.306,46.9434 L 400,47 z
M 497.694,46.9434 L 495.393,46.7737 L 493.104,46.4913 L 490.831,46.0969 L 488.58,45.5915 L 486.357,44.9762
 L 484.166,44.2526 L 482.014,43.4223 L 479.905,42.4875 L 477.844,41.4503 L 475.837,40.3132 L 473.888,39.0791
 L 472.002,37.7508 L 470.184,36.3315 L 468.437,34.8247 L 466.766,33.234 L 465.175,31.5633 L 463.669,29.8165
 L 462.249,27.9979 L 460.921,26.1118 L 459.687,24.1628 L 458.55,22.1556 L 457.513,20.0951 L 456.578,17.9861
 L 455.747,15.8338 L 455.024,13.6434 L 454.409,11.4201 L 453.903,9.16925 L 453.509,6.89633 L 453.226,4.60681
 L 453.057,2.30618 L 453,-0 L 453.057,-2.30618 L 453.226,-4.60681 L 453.509,-6.89633 L 453.903,-9.16925
 L 454.409,-11.4201 L 455.024,-13.6434 L 455.747,-15.8338 L 456.578,-17.9861 L 457.513,-20.0951 L 458.55,-22.1556
 L 459.687,-24.1628 L 460.921,-26.1118 L 462.249,-27.9979 L 463.669,-29.8165 L 465.175,-31.5633 L 466.766,-33.234
 L 468.437,-34.8247 L 470.184,-36.3315 L 472.002,-37.7508 L 473.888,-39.0791 L 475.837,-40.3132 L 477.844,-41.4503
 L 479.905,-42.4875 L 482.014,-43.4223 L 484.166,-44.2526 L 486.357,-44.9762 L 488.58,-45.5915 L 490.831,-46.0969
 L 493.104,-46.4913 L 495.393,-46.7737 L 497.694,-46.9434 L 500,-47 L 502.306,-46.9434 L 504.607,-46.7737
 L 506.896,-46.4913 L 509.169,-46.0969 L 511.42,-45.5915 L 513.643,-44.9762 L 515.834,-44.2526 L 517.986,-43.4223
 L 520.095,-42.4875 L 522.156,-41.4503 L 524.163,-40.3132 L 526.112,-39.0791 L 527.998,-37.7508 L 529.816,-36.3315
 L 531.563,-34.8247 L 533.234,-33.234 L 534.825,-31.5633 L 536.331,-29.8165 L 537.751,-27.9979 L 539.079,-26.1118
 L 540.313,-24.1628 L 541.45,-22.1556 L 542.487,-20.0951 L 543.422,-17.9861 L 544.253,-15.8338 L 544.976,-13.6434
 L 545.591,-11.4201 L 546.097,-9.16925 L 546.491,-6.89633 L 546.774,-4.60681 L 546.943,-2.30618 L 547,-0
 L 546.943,2.30618 L 546.774,4.60681 L 546.491,6.89633 L 546.097,9.16925 L 545.591,11.4201 L 544.976,13.6434
 L 544.253,15.8338 L 543.422,17.9861 L 542.487,20.0951 L 541.45,22.1556 L 540.313,24.1628 L 539.079,26.1118
 L 537.751,27.9979 L 536.331,29.8165 L 534.825,31.5633 L 533.234,33.234 L 531.563,34.8247 L 529.816,36.3315
 L 527.998,37.7508 L 526.112,39.0791 L 524.163,40.3132 L 522.156,41.4503 L 520.095,42.4875 L 517.986,43.4223
 L 515.834,44.2526 L 513.643,44.9762 L 511.42,45.5915 L 509.169,46.0969 L 506.896,46.4913 L 504.607,46.7737
 L 502.306,46.9434 L 500,47 z
M 597.694,46.9434 L 595.393,46.7737 L 593.104,46.4913 L 590.831,46.0969 L 588.58,45.5915 L 586.357,44.9762
 L 584.166,44.2526 L 582.014,43.4223 L 579.905,42.4875 L 577.844,41.4503 L 575.837,40.3132 L 573.888,39.0791
 L 572.002,37.7508 L 570.184,36.3315 L 568.437,34.8247 L 566.766,33.234 L 565.175,31.5633 L 563.669,29.8165
 L 562.249,27.9979 L 560.921,26.1118 L 559.687,24.1628 L 558.55,22.1556 L 557.513,20.0951 L 556.578,17.9861
 L 555.747,15.8338 L 555.024,13.6434 L 554.409,11.4201 L 553.903,9.16925 L 553.509,6.89633 L 553.226,4.60681
 L 553.057,2.30618 L 553,-0 L 553.057,-2.30618 L 553.226,-4.60681 L 553.509,-6.89633 L 553.903,-9.16925
 L 554.409,-11.4201 L 555.024,-13.6434 L 555.747,-15.8338 L 556.578,-17.9861 L 557.513,-20.0951 L 558.55,-22.1556
 L 559.687,-24.1628 L 560.921,-26.1118 L 562.249,-27.9979 L 563.669,-29.8165 L 565.175,-31.5633 L 566.766,-33.234
 L 568.437,-34.8247 L 570.184,-36.3315 L 572.002,-37.7508 L 573.888,-39.0791 L 575.837,-40.3132 L 577.844,-41.4503
 L 579.905,-42.4875 L 582.014,-43.4223 L 584.166,-44.2526 L 586.357,-44.9762 L 588.58,-45.5915 L 590.831,-46.0969
 L 593.104,-46.4913 L 595.393,-46.7737 L 597.694,-46.9434 L 600,-47 L 602.306,-46.9434 L 604.607,-46.7737
 L 606.896,-46.4913 L 609.169,-46.0969 L 611.42,-45.5915 L 613.643,-44.9762 L 615.834,-44.2526 L 617.986,-43.4223
 L 620.095,-42.4875 L 622.156,-41.4503 L 624.163,-40.3132 L 626.112,-39.0791 L 627.998,-37.7508 L 629.816,-36.3315
 L 631.563,-34.8247 L 633.234,-33.234 L 634.825,-31.5633 L 636.331,-29.8165 L 637.751,-27.9979 L 639.079,-26.1118
 L 640.313,-24.1628 L 641.45,-22.1556 L 642.487,-20.0951 L 643.422,-17.9861 L 644.253,-15.8338 L 644.976,-13.6434
 L 645.591,-11.4201 L 646.097,-9.16925 L 646.491,-6.89633 L 646.774,-4.60681 L 646.943,-2.30618 L 647,-0
 L 646.943,2.30618 L 646.774,4.60681 L 646.491,6.89633 L 646.097,9.16925 L 645.591,11.4201 L 644.976,13.6434
 L 644.253,15.8338 L 643.422,17.9861 L 642.487,20.0951 L 641.45,22.1556 L 640.313,24.1628 L 639.079,26.1118
 L 637.751,27.9979 L 636.331,29.8165 L 634.825,31.5633 L 633.234,33.234 L 631.563,34.8247 L 629.816,36.3315
 L 627.998,37.7508 L 626.112,39.0791 L 624.163,40.3132 L 622.156,41.4503 L 620.095,42.4875 L 617.986,43.4223
 L 615.834,44.2526 L 613.643,44.9762 L 611.42,45.5915 L 609.169,46.0969 L 606.896,46.4913 L 604.607,46.7737
 L 602.306,46.9434 L 600,47 z
M 697.694,46.9434 L 695.393,46.7737 L 693.104,46.4913 L 690.831,46.0969 L 688.58,45.5915 L 686.357,44.9762
 L 684.166,44.2526 L 682.014,43.4223 L 679.905,42.4875 L 677.844,41.4503 L 675.837,40.3132 L 673.888,39.0791
 L 672.002,37.7508 L 670.184,36.3315 L 668.437,34.8247 L 666.766,33.234 L 665.175,31.5633 L 663.669,29.8165
 L 662.249,27.9979 L 660.921,26.1118 L 659.687,24.1628 L 658.55,22.1556 L 657.513,20.0951 L 656.578,17.9861
 L 655.747,15.8338 L 655.024,13.6434 L 654.409,11.4201 L 653.903,9.16925 L 653.509,6.89633 L 653.226,4.60681
 L 653.057,2.30618 L 653,-0 L 653.057,-2.30618 L 653.226,-4.60681 L 653.509,-6.89633 L 653.903,-9.16925
 L 654.409,-11.4201 L 655.024,-13.6434 L 655.747,-15.8338 L 656.578,-17.9861 L 657.513,-20.0951 L 658.55,-22.1556
 L 659.687,-24.1628 L 660.921,-26.1118 L 662.249,-27.9979 L 663.669,-29.8165 L 665.175,-31.5633 L 666.766,-33.234
 L 668.437,-34.8247 L 670.184,-36.3315 L 672.002,-37.7508 L 673.888,-39.0791 L 675.837,-40.3132 L 677.844,-41.4503
 L 679.905,-42.4875 L 682.014,-43.4223 L 684.166,-44.2526 L 686.357,-44.9762 L 688.58,-45.5915 L 690.831,-46.0969
 L 693.104,-46.4913 L 695.393,-46.7737 L 697.694,-46.9434 L 700,-47 L 702.306,-46.9434 L 704.607,-46.7737
 L 706.896,-46.4913 L 709.169,-46.0969 L 711.42,-45.5915 L 713.643,-44.9762 L 715.834,-44.2526 L 717.986,-43.4223
 L 720.095,-42.4875 L 722.156,-41.4503 L 724.163,-40.3132 L 726.112,-39.0791 L 727.998,-37.7508 L 729.816,-36.3315
 L 731.563,-34.8247 L 733.234,-33.234 L 734.825,-31.5633 L 736.331,-29.8165 L 737.751,-27.9979 L 739.079,-26.1118
 L 740.313,-24.1628 L 741.45,-22.1556 L 742.487,-20.0951 L 743.422,-17.9861 L 744.253,-15.8338 L 744.976,-13.6434
 L 745.591,-11.4201 L 746.097,-9.16925 L 746.491,-6.89633 L 746.774,-4.60681 L 746.943,-2.30618 L 747,-0
 L 746.943,2.30618 L 746.774,4.60681 L 746.491,6.89633 L 746.097,9.16925 L 745.591,11.4201 L 744.976,13.6434
 L 744.253,15.8338 L 743.422,17.9861 L 742.487,20.0951 L 741.45,22.1556 L 740.313,24.1628 L 739.079,26.1118
 L 737.751,27.9979 L 736.331,29.8165 L 734.825,31.5633 L 733.234,33.234 L 731.563,34.8247 L 729.816,36.3315
 L 727.998,37.7508 L 726.112,39.0791 L 724.163,40.3132 L 722.156,41.4503 L 720.095,42.4875 L 717.986,43.4223
 L 715.834,44.2526 L 713.643,44.9762 L 711.42,45.5915 L 709.169,46.0969 L 706.896,46.4913 L 704.607,46.7737
 L 702.306,46.9434 L 700,47 z
" stroke="black" fill="none" stroke-width="0.35"/>
</svg>
