<?xml version="1.0" standalone="no"?>
<!DOCTYPE svg PUBLIC "-//W3C//DTD SVG 1.1//EN" "http://www.w3.org/Graphics/SVG/1.1/DTD/svg11.dtd">
<svg width="200mm" height="200mm" viewBox="-100 -100 200 200" xmlns="http://www.w3.org/2000/svg" version="1.1">
<title>OpenSCAD Model</title>
<path d="
M 100,-100 L -100,-100 L -100,100 L 100,100 z
M -2.30618,46.9434 L -4.60681,46.7737 L -6.89633,46.4913 L -9.16925,46.0969 L -11.4201,45.5915 L -13.6434,44.9762
 L -15.8338,44.2526 L -17.9861,43.4223 L -20.0951,42.4875 L -22.1556,41.4503 L -24.1628,40.3132 L -26.1118,39.0791
 L -27.9979,37.7508 L -29.8165,36.3315 L -31.5633,34.8247 L -33.234,33.234 L -34.8247,31.5633 L -36.3315,29.8165
 L -37.7508,27.9979 L -39.0791,26.1118 L -40.3132,24.1628 L -41.4503,22.1556 L -42.4875,20.0951 L -43.4223,17.9861
 L -44.2526,15.8338 L -44.9762,13.6434 L -45.5915,11.4201 L -46.0969,9.16925 L -46.4913,6.89633 L -46.7737,4.60681
 L -46.9434,2.30618 L -47,-0 L -46.9434,-2.30618 L -46.7737,-4.60681 L -46.4913,-6.89633 L -46.0969,-9.16925
 L -45.5915,-11.4201 L -44.9762,-13.6434 L -44.2526,-15.8338 L -43.4223,-17.9861 L -42.4875,-20.0951 L -41.4503,-22.1556
 L -40.3132,-24.1628 L -39.0791,-26.1118 L -37.7508,-27.9979 L -36.3315,-29.8165 L -34.8247,-31.5633 L -33.234,-33.234
 L -31.5633,-34.8247 L -29.8165,-36.3315 L -27.9979,-37.7508 L -26.1118,-39.0791 L -24.1628,-40.3132 L -22.1556,-41.4503
 L -20.0951,-42.4875 L -17.9861,-43.4223 L -15.8338,-44.2526 L -13.6434,-44.9762 L -11.4201,-45.5915 L -9.16925,-46.0969
 L -6.89633,-46.4913 L -4.60681,-46.7737 L -2.30618,-46.9434 L 0,-47 L 2.30618,-46.9434 L 4.60681,-46.7737
 L 6.89633,-46.4913 L 9.16925,-46.0969 L 11.4201,-45.5915 L 13.6434,-44.9762 L 15.8338,-44.2526 L 17.9861,-43.4223
 L 20.0951,-42.4875 L 22.1556,-41.4503 L 24.1628,-40.3132 L 26.1118,-39.0791 L 27.9979,-37.7508 L 29.8165,-36.3315
 L 31.5633,-34.8247 L 33.234,-33.234 L 34.8247,-31.5633 L 36.3315,-29.8165 L 37.7508,-27.9979 L 39.0791,-26.1118
 L 40.3132,-24.1628 L 41.4503,-22.1556 L 42.4875,-20.0951 L 43.4223,-17.9861 L 44.2526,-15.8338 L 44.9762,-13.6434
 L 45.5915,-11.4201 L 46.0969,-9.16925 L 46.4913,-6.89633 L 46.7737,-4.60681 L 46.9434,-2.30618 L 47,-0
 L 46.9434,2.30618 L 46.7737,4.60681 L 46.4913,6.89633 L 46.0969,9.16925 L 45.5915,11.4201 L 44.9762,13.6434
 L 44.2526,15.8338 L 43.4223,17.9861 L 42.4875,20.0951 L 41.4503,22.1556 L 40.3132,24.1628 L 39.0791,26.1118
 L 37.7508,27.9979 L 36.3315,29.8165 L 34.8247,31.5633 L 33.234,33.234 L 31.5633,34.8247 L 29.8165,36.3315
 L 27.9979,37.7508 L 26.1118,39.0791 L 24.1628,40.3132 L 22.1556,41.4503 L 20.0951,42.4875 L 17.9861,43.4223
 L 15.8338,44.2526 L 13.6434,44.9762 L 11.4201,45.5915 L 9.16925,46.0969 L 6.89633,46.4913 L 4.60681,46.7737
 L 2.30618,46.9434 L 0,47 z
" stroke="black" fill="lightgray" stroke-width="0.5"/>
</svg>
