<?xml version="1.0" standalone="no"?>
<!DOCTYPE svg PUBLIC "-//W3C//DTD SVG 1.1//EN" "http://www.w3.org/Graphics/SVG/1.1/DTD/svg11.dtd">
<svg width="200mm" height="200mm" viewBox="-100 -100 200 200" xmlns="http://www.w3.org/2000/svg" version="1.1">
<title>OpenSCAD Model</title>
<path d="
M 100,-100 L -100,-100 L -100,100 L 100,100 z
M -0.171737,3.49578 L -0.34306,3.48315 L -0.513557,3.46212 L -0.682816,3.43275 L -0.850431,3.39511 L -1.016,3.34929
 L -1.17911,3.2954 L -1.33939,3.23358 L -1.49644,3.16396 L -1.64989,3.08672 L -1.79936,3.00205 L -1.9445,2.91014
 L -2.08495,2.81123 L -2.22038,2.70554 L -2.35046,2.59333 L -2.47487,2.47487 L -2.59333,2.35046 L -2.70554,2.22038
 L -2.81123,2.08495 L -2.91014,1.9445 L -3.00205,1.79936 L -3.08672,1.64989 L -3.16396,1.49644 L -3.23358,1.33939
 L -3.2954,1.17911 L -3.34929,1.016 L -3.39511,0.850431 L -3.43275,0.682816 L -3.46212,0.513557 L -3.48315,0.34306
 L -3.49578,0.171737 L -3.5,-0 L -3.49578,-0.171737 L -3.48315,-0.34306 L -3.46212,-0.513557 L -3.43275,-0.682816
 L -3.39511,-0.850431 L -3.34929,-1.016 L -3.2954,-1.17911 L -3.23358,-1.33939 L -3.16396,-1.49644 L -3.08672,-1.64989
 L -3.00205,-1.79936 L -2.91014,-1.9445 L -2.81123,-2.08495 L -2.70554,-2.22038 L -2.59333,-2.35046 L -2.47487,-2.47487
 L -2.35046,-2.59333 L -2.22038,-2.70554 L -2.08495,-2.81123 L -1.9445,-2.91014 L -1.79936,-3.00205 L -1.64989,-3.08672
 L -1.49644,-3.16396 L -1.33939,-3.23358 L -1.17911,-3.2954 L -1.016,-3.34929 L -0.850431,-3.39511 L -0.682816,-3.43275
 L -0.513557,-3.46212 L -0.34306,-3.48315 L -0.171737,-3.49578 L 0,-3.5 L 0.171737,-3.49578 L 0.34306,-3.48315
 L 0.513557,-3.46212 L 0.682816,-3.43275 L 0.850431,-3.39511 L 1.016,-3.34929 L 1.17911,-3.2954 L 1.33939,-3.23358
 L 1.49644,-3.16396 L 1.64989,-3.08672 L 1.79936,-3.00205 L 1.9445,-2.91014 L 2.08495,-2.81123 L 2.22038,-2.70554
 L 2.35046,-2.59333 L 2.47487,-2.47487 L 2.59333,-2.35046 L 2.70554,-2.22038 L 2.81123,-2.08495 L 2.91014,-1.9445
 L 3.00205,-1.79936 L 3.08672,-1.64989 L 3.16396,-1.49644 L 3.23358,-1.33939 L 3.2954,-1.17911 L 3.34929,-1.016
 L 3.39511,-0.850431 L 3.43275,-0.682816 L 3.46212,-0.513557 L 3.48315,-0.34306 L 3.49578,-0.171737 L 3.5,-0
 L 3.49578,0.171737 L 3.48315,0.34306 L 3.46212,0.513557 L 3.43275,0.682816 L 3.39511,0.850431 L 3.34929,1.016
 L 3.2954,1.17911 L 3.23358,1.33939 L 3.16396,1.49644 L 3.08672,1.64989 L 3.00205,1.79936 L 2.91014,1.9445
 L 2.81123,2.08495 L 2.70554,2.22038 L 2.59333,2.35046 L 2.47487,2.47487 L 2.35046,2.59333 L 2.22038,2.70554
 L 2.08495,2.81123 L 1.9445,2.91014 L 1.79936,3.00205 L 1.64989,3.08672 L 1.49644,3.16396 L 1.33939,3.23358
 L 1.17911,3.2954 L 1.016,3.34929 L 0.850431,3.39511 L 0.682816,3.43275 L 0.513557,3.46212 L 0.34306,3.48315
 L 0.171737,3.49578 L 0,3.5 z
" stroke="black" fill="lightgray" stroke-width="0.5"/>
</svg>
