<?xml version="1.0" standalone="no"?>
<!DOCTYPE svg PUBLIC "-//W3C//DTD SVG 1.1//EN" "http://www.w3.org/Graphics/SVG/1.1/DTD/svg11.dtd">
<svg width="902mm" height="402mm" viewBox="-101 -301 902 402" xmlns="http://www.w3.org/2000/svg" version="1.1">
<title>OpenSCAD Model</title>
<path d="
M 325.5,75 L -75,75 L -75,-275 L 775,-275 L 775,75 L 374.5,75
 L 374.5,100 L 800,100 L 800,-300 L -100,-300 L -100,100 L 325.5,100
 z
M 325.5,25 L 325.504,24.8528 L 325.514,24.7059 L 325.532,24.5598 L 325.558,24.4147 L 325.59,24.2711
 L 325.629,24.1291 L 325.675,23.9893 L 325.728,23.8519 L 325.788,23.7173 L 325.854,23.5858 L 325.927,23.4577
 L 326.006,23.3333 L 326.09,23.2129 L 326.181,23.0968 L 326.277,22.9853 L 326.379,22.8787 L 326.485,22.7771
 L 326.597,22.681 L 326.713,22.5904 L 326.833,22.5056 L 326.958,22.4268 L 327.086,22.3542 L 327.217,22.288
 L 327.352,22.2284 L 327.489,22.1754 L 327.629,22.1292 L 327.771,22.0899 L 327.915,22.0576 L 328.06,22.0325
 L 328.206,22.0144 L 328.353,22.0036 L 328.5,22 L 371.5,22 L 371.647,22.0036 L 371.794,22.0144
 L 371.94,22.0325 L 372.085,22.0576 L 372.229,22.0899 L 372.371,22.1292 L 372.511,22.1754 L 372.648,22.2284
 L 372.783,22.288 L 372.914,22.3542 L 373.042,22.4268 L 373.167,22.5056 L 373.287,22.5904 L 373.403,22.681
 L 373.515,22.7771 L 373.621,22.8787 L 373.723,22.9853 L 373.819,23.0968 L 373.91,23.2129 L 373.994,23.3333
 L 374.073,23.4577 L 374.146,23.5858 L 374.212,23.7173 L 374.272,23.8519 L 374.325,23.9893 L 374.371,24.1291
 L 374.41,24.2711 L 374.442,24.4147 L 374.468,24.5598 L 374.486,24.7059 L 374.496,24.8528 L 374.5,25
 L 374.5,74.5 L 774.5,74.5 L 774.5,54 L 750,54 L 750,-26 L 774.5,-26
 L 774.5,-274.5 L -74.5,-274.5 L -74.5,-26 L -50,-26 L -50,54 L -74.5,54
 L -74.5,74.5 L 325.5,74.5 z
M -62.603,-260.403 L -62.7058,-260.41 L -62.8081,-260.423 L -62.9097,-260.44 L -63.0103,-260.463 L -63.1096,-260.49
 L -63.2075,-260.523 L -63.3036,-260.56 L -63.3979,-260.602 L -63.4899,-260.648 L -63.5796,-260.699 L -63.6667,-260.754
 L -63.751,-260.813 L -63.8322,-260.877 L -63.9103,-260.944 L -63.9849,-261.015 L -64.056,-261.09 L -64.1233,-261.168
 L -64.1867,-261.249 L -64.2461,-261.333 L -64.3012,-261.42 L -64.352,-261.51 L -64.3984,-261.602 L -64.4401,-261.696
 L -64.4772,-261.793 L -64.5096,-261.89 L -64.5371,-261.99 L -64.5596,-262.09 L -64.5773,-262.192 L -64.5899,-262.294
 L -64.5975,-262.397 L -64.6,-262.5 L -64.5975,-262.603 L -64.5899,-262.706 L -64.5773,-262.808 L -64.5596,-262.91
 L -64.5371,-263.01 L -64.5096,-263.11 L -64.4772,-263.207 L -64.4401,-263.304 L -64.3984,-263.398 L -64.352,-263.49
 L -64.3012,-263.58 L -64.2461,-263.667 L -64.1867,-263.751 L -64.1233,-263.832 L -64.056,-263.91 L -63.9849,-263.985
 L -63.9103,-264.056 L -63.8322,-264.123 L -63.751,-264.187 L -63.6667,-264.246 L -63.5796,-264.301 L -63.4899,-264.352
 L -63.3979,-264.398 L -63.3036,-264.44 L -63.2075,-264.477 L -63.1096,-264.51 L -63.0103,-264.537 L -62.9097,-264.56
 L -62.8081,-264.577 L -62.7058,-264.59 L -62.603,-264.597 L -62.5,-264.6 L -62.397,-264.597 L -62.2942,-264.59
 L -62.1919,-264.577 L -62.0903,-264.56 L -61.9897,-264.537 L -61.8904,-264.51 L -61.7925,-264.477 L -61.6964,-264.44
 L -61.6021,-264.398 L -61.5101,-264.352 L -61.4204,-264.301 L -61.3333,-264.246 L -61.249,-264.187 L -61.1678,-264.123
 L -61.0897,-264.056 L -61.0151,-263.985 L -60.944,-263.91 L -60.8767,-263.832 L -60.8133,-263.751 L -60.7539,-263.667
 L -60.6988,-263.58 L -60.648,-263.49 L -60.6016,-263.398 L -60.5599,-263.304 L -60.5228,-263.207 L -60.4904,-263.11
 L -60.4629,-263.01 L -60.4404,-262.91 L -60.4227,-262.808 L -60.4101,-262.706 L -60.4025,-262.603 L -60.4,-262.5
 L -60.4025,-262.397 L -60.4101,-262.294 L -60.4227,-262.192 L -60.4404,-262.09 L -60.4629,-261.99 L -60.4904,-261.89
 L -60.5228,-261.793 L -60.5599,-261.696 L -60.6016,-261.602 L -60.648,-261.51 L -60.6988,-261.42 L -60.7539,-261.333
 L -60.8133,-261.249 L -60.8767,-261.168 L -60.944,-261.09 L -61.0151,-261.015 L -61.0897,-260.944 L -61.1678,-260.877
 L -61.249,-260.813 L -61.3333,-260.754 L -61.4204,-260.699 L -61.5101,-260.648 L -61.6021,-260.602 L -61.6964,-260.56
 L -61.7925,-260.523 L -61.8904,-260.49 L -61.9897,-260.463 L -62.0903,-260.44 L -62.1919,-260.423 L -62.2942,-260.41
 L -62.397,-260.403 L -62.5,-260.4 z
M 49.897,-260.403 L 49.7942,-260.41 L 49.6919,-260.423 L 49.5903,-260.44 L 49.4897,-260.463 L 49.3904,-260.49
 L 49.2925,-260.523 L 49.1964,-260.56 L 49.1021,-260.602 L 49.0101,-260.648 L 48.9204,-260.699 L 48.8333,-260.754
 L 48.749,-260.813 L 48.6678,-260.877 L 48.5897,-260.944 L 48.5151,-261.015 L 48.444,-261.09 L 48.3767,-261.168
 L 48.3133,-261.249 L 48.2539,-261.333 L 48.1988,-261.42 L 48.148,-261.51 L 48.1016,-261.602 L 48.0599,-261.696
 L 48.0228,-261.793 L 47.9904,-261.89 L 47.9629,-261.99 L 47.9404,-262.09 L 47.9227,-262.192 L 47.9101,-262.294
 L 47.9025,-262.397 L 47.9,-262.5 L 47.9025,-262.603 L 47.9101,-262.706 L 47.9227,-262.808 L 47.9404,-262.91
 L 47.9629,-263.01 L 47.9904,-263.11 L 48.0228,-263.207 L 48.0599,-263.304 L 48.1016,-263.398 L 48.148,-263.49
 L 48.1988,-263.58 L 48.2539,-263.667 L 48.3133,-263.751 L 48.3767,-263.832 L 48.444,-263.91 L 48.5151,-263.985
 L 48.5897,-264.056 L 48.6678,-264.123 L 48.749,-264.187 L 48.8333,-264.246 L 48.9204,-264.301 L 49.0101,-264.352
 L 49.1021,-264.398 L 49.1964,-264.44 L 49.2925,-264.477 L 49.3904,-264.51 L 49.4897,-264.537 L 49.5903,-264.56
 L 49.6919,-264.577 L 49.7942,-264.59 L 49.897,-264.597 L 50,-264.6 L 50.103,-264.597 L 50.2058,-264.59
 L 50.3081,-264.577 L 50.4097,-264.56 L 50.5103,-264.537 L 50.6096,-264.51 L 50.7075,-264.477 L 50.8036,-264.44
 L 50.8979,-264.398 L 50.9899,-264.352 L 51.0796,-264.301 L 51.1667,-264.246 L 51.251,-264.187 L 51.3322,-264.123
 L 51.4103,-264.056 L 51.4849,-263.985 L 51.556,-263.91 L 51.6233,-263.832 L 51.6867,-263.751 L 51.7461,-263.667
 L 51.8012,-263.58 L 51.852,-263.49 L 51.8984,-263.398 L 51.9401,-263.304 L 51.9772,-263.207 L 52.0096,-263.11
 L 52.0371,-263.01 L 52.0596,-262.91 L 52.0773,-262.808 L 52.0899,-262.706 L 52.0975,-262.603 L 52.1,-262.5
 L 52.0975,-262.397 L 52.0899,-262.294 L 52.0773,-262.192 L 52.0596,-262.09 L 52.0371,-261.99 L 52.0096,-261.89
 L 51.9772,-261.793 L 51.9401,-261.696 L 51.8984,-261.602 L 51.852,-261.51 L 51.8012,-261.42 L 51.7461,-261.333
 L 51.6867,-261.249 L 51.6233,-261.168 L 51.556,-261.09 L 51.4849,-261.015 L 51.4103,-260.944 L 51.3322,-260.877
 L 51.251,-260.813 L 51.1667,-260.754 L 51.0796,-260.699 L 50.9899,-260.648 L 50.8979,-260.602 L 50.8036,-260.56
 L 50.7075,-260.523 L 50.6096,-260.49 L 50.5103,-260.463 L 50.4097,-260.44 L 50.3081,-260.423 L 50.2058,-260.41
 L 50.103,-260.403 L 50,-260.4 z
M 149.897,-260.403 L 149.794,-260.41 L 149.692,-260.423 L 149.59,-260.44 L 149.49,-260.463 L 149.39,-260.49
 L 149.293,-260.523 L 149.196,-260.56 L 149.102,-260.602 L 149.01,-260.648 L 148.92,-260.699 L 148.833,-260.754
 L 148.749,-260.813 L 148.668,-260.877 L 148.59,-260.944 L 148.515,-261.015 L 148.444,-261.09 L 148.377,-261.168
 L 148.313,-261.249 L 148.254,-261.333 L 148.199,-261.42 L 148.148,-261.51 L 148.102,-261.602 L 148.06,-261.696
 L 148.023,-261.793 L 147.99,-261.89 L 147.963,-261.99 L 147.94,-262.09 L 147.923,-262.192 L 147.91,-262.294
 L 147.903,-262.397 L 147.9,-262.5 L 147.903,-262.603 L 147.91,-262.706 L 147.923,-262.808 L 147.94,-262.91
 L 147.963,-263.01 L 147.99,-263.11 L 148.023,-263.207 L 148.06,-263.304 L 148.102,-263.398 L 148.148,-263.49
 L 148.199,-263.58 L 148.254,-263.667 L 148.313,-263.751 L 148.377,-263.832 L 148.444,-263.91 L 148.515,-263.985
 L 148.59,-264.056 L 148.668,-264.123 L 148.749,-264.187 L 148.833,-264.246 L 148.92,-264.301 L 149.01,-264.352
 L 149.102,-264.398 L 149.196,-264.44 L 149.293,-264.477 L 149.39,-264.51 L 149.49,-264.537 L 149.59,-264.56
 L 149.692,-264.577 L 149.794,-264.59 L 149.897,-264.597 L 150,-264.6 L 150.103,-264.597 L 150.206,-264.59
 L 150.308,-264.577 L 150.41,-264.56 L 150.51,-264.537 L 150.61,-264.51 L 150.707,-264.477 L 150.804,-264.44
 L 150.898,-264.398 L 150.99,-264.352 L 151.08,-264.301 L 151.167,-264.246 L 151.251,-264.187 L 151.332,-264.123
 L 151.41,-264.056 L 151.485,-263.985 L 151.556,-263.91 L 151.623,-263.832 L 151.687,-263.751 L 151.746,-263.667
 L 151.801,-263.58 L 151.852,-263.49 L 151.898,-263.398 L 151.94,-263.304 L 151.977,-263.207 L 152.01,-263.11
 L 152.037,-263.01 L 152.06,-262.91 L 152.077,-262.808 L 152.09,-262.706 L 152.097,-262.603 L 152.1,-262.5
 L 152.097,-262.397 L 152.09,-262.294 L 152.077,-262.192 L 152.06,-262.09 L 152.037,-261.99 L 152.01,-261.89
 L 151.977,-261.793 L 151.94,-261.696 L 151.898,-261.602 L 151.852,-261.51 L 151.801,-261.42 L 151.746,-261.333
 L 151.687,-261.249 L 151.623,-261.168 L 151.556,-261.09 L 151.485,-261.015 L 151.41,-260.944 L 151.332,-260.877
 L 151.251,-260.813 L 151.167,-260.754 L 151.08,-260.699 L 150.99,-260.648 L 150.898,-260.602 L 150.804,-260.56
 L 150.707,-260.523 L 150.61,-260.49 L 150.51,-260.463 L 150.41,-260.44 L 150.308,-260.423 L 150.206,-260.41
 L 150.103,-260.403 L 150,-260.4 z
M 249.897,-260.403 L 249.794,-260.41 L 249.692,-260.423 L 249.59,-260.44 L 249.49,-260.463 L 249.39,-260.49
 L 249.293,-260.523 L 249.196,-260.56 L 249.102,-260.602 L 249.01,-260.648 L 248.92,-260.699 L 248.833,-260.754
 L 248.749,-260.813 L 248.668,-260.877 L 248.59,-260.944 L 248.515,-261.015 L 248.444,-261.09 L 248.377,-261.168
 L 248.313,-261.249 L 248.254,-261.333 L 248.199,-261.42 L 248.148,-261.51 L 248.102,-261.602 L 248.06,-261.696
 L 248.023,-261.793 L 247.99,-261.89 L 247.963,-261.99 L 247.94,-262.09 L 247.923,-262.192 L 247.91,-262.294
 L 247.903,-262.397 L 247.9,-262.5 L 247.903,-262.603 L 247.91,-262.706 L 247.923,-262.808 L 247.94,-262.91
 L 247.963,-263.01 L 247.99,-263.11 L 248.023,-263.207 L 248.06,-263.304 L 248.102,-263.398 L 248.148,-263.49
 L 248.199,-263.58 L 248.254,-263.667 L 248.313,-263.751 L 248.377,-263.832 L 248.444,-263.91 L 248.515,-263.985
 L 248.59,-264.056 L 248.668,-264.123 L 248.749,-264.187 L 248.833,-264.246 L 248.92,-264.301 L 249.01,-264.352
 L 249.102,-264.398 L 249.196,-264.44 L 249.293,-264.477 L 249.39,-264.51 L 249.49,-264.537 L 249.59,-264.56
 L 249.692,-264.577 L 249.794,-264.59 L 249.897,-264.597 L 250,-264.6 L 250.103,-264.597 L 250.206,-264.59
 L 250.308,-264.577 L 250.41,-264.56 L 250.51,-264.537 L 250.61,-264.51 L 250.707,-264.477 L 250.804,-264.44
 L 250.898,-264.398 L 250.99,-264.352 L 251.08,-264.301 L 251.167,-264.246 L 251.251,-264.187 L 251.332,-264.123
 L 251.41,-264.056 L 251.485,-263.985 L 251.556,-263.91 L 251.623,-263.832 L 251.687,-263.751 L 251.746,-263.667
 L 251.801,-263.58 L 251.852,-263.49 L 251.898,-263.398 L 251.94,-263.304 L 251.977,-263.207 L 252.01,-263.11
 L 252.037,-263.01 L 252.06,-262.91 L 252.077,-262.808 L 252.09,-262.706 L 252.097,-262.603 L 252.1,-262.5
 L 252.097,-262.397 L 252.09,-262.294 L 252.077,-262.192 L 252.06,-262.09 L 252.037,-261.99 L 252.01,-261.89
 L 251.977,-261.793 L 251.94,-261.696 L 251.898,-261.602 L 251.852,-261.51 L 251.801,-261.42 L 251.746,-261.333
 L 251.687,-261.249 L 251.623,-261.168 L 251.556,-261.09 L 251.485,-261.015 L 251.41,-260.944 L 251.332,-260.877
 L 251.251,-260.813 L 251.167,-260.754 L 251.08,-260.699 L 250.99,-260.648 L 250.898,-260.602 L 250.804,-260.56
 L 250.707,-260.523 L 250.61,-260.49 L 250.51,-260.463 L 250.41,-260.44 L 250.308,-260.423 L 250.206,-260.41
 L 250.103,-260.403 L 250,-260.4 z
M 349.897,-260.403 L 349.794,-260.41 L 349.692,-260.423 L 349.59,-260.44 L 349.49,-260.463 L 349.39,-260.49
 L 349.293,-260.523 L 349.196,-260.56 L 349.102,-260.602 L 349.01,-260.648 L 348.92,-260.699 L 348.833,-260.754
 L 348.749,-260.813 L 348.668,-260.877 L 348.59,-260.944 L 348.515,-261.015 L 348.444,-261.09 L 348.377,-261.168
 L 348.313,-261.249 L 348.254,-261.333 L 348.199,-261.42 L 348.148,-261.51 L 348.102,-261.602 L 348.06,-261.696
 L 348.023,-261.793 L 347.99,-261.89 L 347.963,-261.99 L 347.94,-262.09 L 347.923,-262.192 L 347.91,-262.294
 L 347.903,-262.397 L 347.9,-262.5 L 347.903,-262.603 L 347.91,-262.706 L 347.923,-262.808 L 347.94,-262.91
 L 347.963,-263.01 L 347.99,-263.11 L 348.023,-263.207 L 348.06,-263.304 L 348.102,-263.398 L 348.148,-263.49
 L 348.199,-263.58 L 348.254,-263.667 L 348.313,-263.751 L 348.377,-263.832 L 348.444,-263.91 L 348.515,-263.985
 L 348.59,-264.056 L 348.668,-264.123 L 348.749,-264.187 L 348.833,-264.246 L 348.92,-264.301 L 349.01,-264.352
 L 349.102,-264.398 L 349.196,-264.44 L 349.293,-264.477 L 349.39,-264.51 L 349.49,-264.537 L 349.59,-264.56
 L 349.692,-264.577 L 349.794,-264.59 L 349.897,-264.597 L 350,-264.6 L 350.103,-264.597 L 350.206,-264.59
 L 350.308,-264.577 L 350.41,-264.56 L 350.51,-264.537 L 350.61,-264.51 L 350.707,-264.477 L 350.804,-264.44
 L 350.898,-264.398 L 350.99,-264.352 L 351.08,-264.301 L 351.167,-264.246 L 351.251,-264.187 L 351.332,-264.123
 L 351.41,-264.056 L 351.485,-263.985 L 351.556,-263.91 L 351.623,-263.832 L 351.687,-263.751 L 351.746,-263.667
 L 351.801,-263.58 L 351.852,-263.49 L 351.898,-263.398 L 351.94,-263.304 L 351.977,-263.207 L 352.01,-263.11
 L 352.037,-263.01 L 352.06,-262.91 L 352.077,-262.808 L 352.09,-262.706 L 352.097,-262.603 L 352.1,-262.5
 L 352.097,-262.397 L 352.09,-262.294 L 352.077,-262.192 L 352.06,-262.09 L 352.037,-261.99 L 352.01,-261.89
 L 351.977,-261.793 L 351.94,-261.696 L 351.898,-261.602 L 351.852,-261.51 L 351.801,-261.42 L 351.746,-261.333
 L 351.687,-261.249 L 351.623,-261.168 L 351.556,-261.09 L 351.485,-261.015 L 351.41,-260.944 L 351.332,-260.877
 L 351.251,-260.813 L 351.167,-260.754 L 351.08,-260.699 L 350.99,-260.648 L 350.898,-260.602 L 350.804,-260.56
 L 350.707,-260.523 L 350.61,-260.49 L 350.51,-260.463 L 350.41,-260.44 L 350.308,-260.423 L 350.206,-260.41
 L 350.103,-260.403 L 350,-260.4 z
M 449.897,-260.403 L 449.794,-260.41 L 449.692,-260.423 L 449.59,-260.44 L 449.49,-260.463 L 449.39,-260.49
 L 449.293,-260.523 L 449.196,-260.56 L 449.102,-260.602 L 449.01,-260.648 L 448.92,-260.699 L 448.833,-260.754
 L 448.749,-260.813 L 448.668,-260.877 L 448.59,-260.944 L 448.515,-261.015 L 448.444,-261.09 L 448.377,-261.168
 L 448.313,-261.249 L 448.254,-261.333 L 448.199,-261.42 L 448.148,-261.51 L 448.102,-261.602 L 448.06,-261.696
 L 448.023,-261.793 L 447.99,-261.89 L 447.963,-261.99 L 447.94,-262.09 L 447.923,-262.192 L 447.91,-262.294
 L 447.903,-262.397 L 447.9,-262.5 L 447.903,-262.603 L 447.91,-262.706 L 447.923,-262.808 L 447.94,-262.91
 L 447.963,-263.01 L 447.99,-263.11 L 448.023,-263.207 L 448.06,-263.304 L 448.102,-263.398 L 448.148,-263.49
 L 448.199,-263.58 L 448.254,-263.667 L 448.313,-263.751 L 448.377,-263.832 L 448.444,-263.91 L 448.515,-263.985
 L 448.59,-264.056 L 448.668,-264.123 L 448.749,-264.187 L 448.833,-264.246 L 448.92,-264.301 L 449.01,-264.352
 L 449.102,-264.398 L 449.196,-264.44 L 449.293,-264.477 L 449.39,-264.51 L 449.49,-264.537 L 449.59,-264.56
 L 449.692,-264.577 L 449.794,-264.59 L 449.897,-264.597 L 450,-264.6 L 450.103,-264.597 L 450.206,-264.59
 L 450.308,-264.577 L 450.41,-264.56 L 450.51,-264.537 L 450.61,-264.51 L 450.707,-264.477 L 450.804,-264.44
 L 450.898,-264.398 L 450.99,-264.352 L 451.08,-264.301 L 451.167,-264.246 L 451.251,-264.187 L 451.332,-264.123
 L 451.41,-264.056 L 451.485,-263.985 L 451.556,-263.91 L 451.623,-263.832 L 451.687,-263.751 L 451.746,-263.667
 L 451.801,-263.58 L 451.852,-263.49 L 451.898,-263.398 L 451.94,-263.304 L 451.977,-263.207 L 452.01,-263.11
 L 452.037,-263.01 L 452.06,-262.91 L 452.077,-262.808 L 452.09,-262.706 L 452.097,-262.603 L 452.1,-262.5
 L 452.097,-262.397 L 452.09,-262.294 L 452.077,-262.192 L 452.06,-262.09 L 452.037,-261.99 L 452.01,-261.89
 L 451.977,-261.793 L 451.94,-261.696 L 451.898,-261.602 L 451.852,-261.51 L 451.801,-261.42 L 451.746,-261.333
 L 451.687,-261.249 L 451.623,-261.168 L 451.556,-261.09 L 451.485,-261.015 L 451.41,-260.944 L 451.332,-260.877
 L 451.251,-260.813 L 451.167,-260.754 L 451.08,-260.699 L 450.99,-260.648 L 450.898,-260.602 L 450.804,-260.56
 L 450.707,-260.523 L 450.61,-260.49 L 450.51,-260.463 L 450.41,-260.44 L 450.308,-260.423 L 450.206,-260.41
 L 450.103,-260.403 L 450,-260.4 z
M 549.897,-260.403 L 549.794,-260.41 L 549.692,-260.423 L 549.59,-260.44 L 549.49,-260.463 L 549.39,-260.49
 L 549.293,-260.523 L 549.196,-260.56 L 549.102,-260.602 L 549.01,-260.648 L 548.92,-260.699 L 548.833,-260.754
 L 548.749,-260.813 L 548.668,-260.877 L 548.59,-260.944 L 548.515,-261.015 L 548.444,-261.09 L 548.377,-261.168
 L 548.313,-261.249 L 548.254,-261.333 L 548.199,-261.42 L 548.148,-261.51 L 548.102,-261.602 L 548.06,-261.696
 L 548.023,-261.793 L 547.99,-261.89 L 547.963,-261.99 L 547.94,-262.09 L 547.923,-262.192 L 547.91,-262.294
 L 547.903,-262.397 L 547.9,-262.5 L 547.903,-262.603 L 547.91,-262.706 L 547.923,-262.808 L 547.94,-262.91
 L 547.963,-263.01 L 547.99,-263.11 L 548.023,-263.207 L 548.06,-263.304 L 548.102,-263.398 L 548.148,-263.49
 L 548.199,-263.58 L 548.254,-263.667 L 548.313,-263.751 L 548.377,-263.832 L 548.444,-263.91 L 548.515,-263.985
 L 548.59,-264.056 L 548.668,-264.123 L 548.749,-264.187 L 548.833,-264.246 L 548.92,-264.301 L 549.01,-264.352
 L 549.102,-264.398 L 549.196,-264.44 L 549.293,-264.477 L 549.39,-264.51 L 549.49,-264.537 L 549.59,-264.56
 L 549.692,-264.577 L 549.794,-264.59 L 549.897,-264.597 L 550,-264.6 L 550.103,-264.597 L 550.206,-264.59
 L 550.308,-264.577 L 550.41,-264.56 L 550.51,-264.537 L 550.61,-264.51 L 550.707,-264.477 L 550.804,-264.44
 L 550.898,-264.398 L 550.99,-264.352 L 551.08,-264.301 L 551.167,-264.246 L 551.251,-264.187 L 551.332,-264.123
 L 551.41,-264.056 L 551.485,-263.985 L 551.556,-263.91 L 551.623,-263.832 L 551.687,-263.751 L 551.746,-263.667
 L 551.801,-263.58 L 551.852,-263.49 L 551.898,-263.398 L 551.94,-263.304 L 551.977,-263.207 L 552.01,-263.11
 L 552.037,-263.01 L 552.06,-262.91 L 552.077,-262.808 L 552.09,-262.706 L 552.097,-262.603 L 552.1,-262.5
 L 552.097,-262.397 L 552.09,-262.294 L 552.077,-262.192 L 552.06,-262.09 L 552.037,-261.99 L 552.01,-261.89
 L 551.977,-261.793 L 551.94,-261.696 L 551.898,-261.602 L 551.852,-261.51 L 551.801,-261.42 L 551.746,-261.333
 L 551.687,-261.249 L 551.623,-261.168 L 551.556,-261.09 L 551.485,-261.015 L 551.41,-260.944 L 551.332,-260.877
 L 551.251,-260.813 L 551.167,-260.754 L 551.08,-260.699 L 550.99,-260.648 L 550.898,-260.602 L 550.804,-260.56
 L 550.707,-260.523 L 550.61,-260.49 L 550.51,-260.463 L 550.41,-260.44 L 550.308,-260.423 L 550.206,-260.41
 L 550.103,-260.403 L 550,-260.4 z
M 649.897,-260.403 L 649.794,-260.41 L 649.692,-260.423 L 649.59,-260.44 L 649.49,-260.463 L 649.39,-260.49
 L 649.293,-260.523 L 649.196,-260.56 L 649.102,-260.602 L 649.01,-260.648 L 648.92,-260.699 L 648.833,-260.754
 L 648.749,-260.813 L 648.668,-260.877 L 648.59,-260.944 L 648.515,-261.015 L 648.444,-261.09 L 648.377,-261.168
 L 648.313,-261.249 L 648.254,-261.333 L 648.199,-261.42 L 648.148,-261.51 L 648.102,-261.602 L 648.06,-261.696
 L 648.023,-261.793 L 647.99,-261.89 L 647.963,-261.99 L 647.94,-262.09 L 647.923,-262.192 L 647.91,-262.294
 L 647.903,-262.397 L 647.9,-262.5 L 647.903,-262.603 L 647.91,-262.706 L 647.923,-262.808 L 647.94,-262.91
 L 647.963,-263.01 L 647.99,-263.11 L 648.023,-263.207 L 648.06,-263.304 L 648.102,-263.398 L 648.148,-263.49
 L 648.199,-263.58 L 648.254,-263.667 L 648.313,-263.751 L 648.377,-263.832 L 648.444,-263.91 L 648.515,-263.985
 L 648.59,-264.056 L 648.668,-264.123 L 648.749,-264.187 L 648.833,-264.246 L 648.92,-264.301 L 649.01,-264.352
 L 649.102,-264.398 L 649.196,-264.44 L 649.293,-264.477 L 649.39,-264.51 L 649.49,-264.537 L 649.59,-264.56
 L 649.692,-264.577 L 649.794,-264.59 L 649.897,-264.597 L 650,-264.6 L 650.103,-264.597 L 650.206,-264.59
 L 650.308,-264.577 L 650.41,-264.56 L 650.51,-264.537 L 650.61,-264.51 L 650.707,-264.477 L 650.804,-264.44
 L 650.898,-264.398 L 650.99,-264.352 L 651.08,-264.301 L 651.167,-264.246 L 651.251,-264.187 L 651.332,-264.123
 L 651.41,-264.056 L 651.485,-263.985 L 651.556,-263.91 L 651.623,-263.832 L 651.687,-263.751 L 651.746,-263.667
 L 651.801,-263.58 L 651.852,-263.49 L 651.898,-263.398 L 651.94,-263.304 L 651.977,-263.207 L 652.01,-263.11
 L 652.037,-263.01 L 652.06,-262.91 L 652.077,-262.808 L 652.09,-262.706 L 652.097,-262.603 L 652.1,-262.5
 L 652.097,-262.397 L 652.09,-262.294 L 652.077,-262.192 L 652.06,-262.09 L 652.037,-261.99 L 652.01,-261.89
 L 651.977,-261.793 L 651.94,-261.696 L 651.898,-261.602 L 651.852,-261.51 L 651.801,-261.42 L 651.746,-261.333
 L 651.687,-261.249 L 651.623,-261.168 L 651.556,-261.09 L 651.485,-261.015 L 651.41,-260.944 L 651.332,-260.877
 L 651.251,-260.813 L 651.167,-260.754 L 651.08,-260.699 L 650.99,-260.648 L 650.898,-260.602 L 650.804,-260.56
 L 650.707,-260.523 L 650.61,-260.49 L 650.51,-260.463 L 650.41,-260.44 L 650.308,-260.423 L 650.206,-260.41
 L 650.103,-260.403 L 650,-260.4 z
M 762.397,-260.403 L 762.294,-260.41 L 762.192,-260.423 L 762.09,-260.44 L 761.99,-260.463 L 761.89,-260.49
 L 761.793,-260.523 L 761.696,-260.56 L 761.602,-260.602 L 761.51,-260.648 L 761.42,-260.699 L 761.333,-260.754
 L 761.249,-260.813 L 761.168,-260.877 L 761.09,-260.944 L 761.015,-261.015 L 760.944,-261.09 L 760.877,-261.168
 L 760.813,-261.249 L 760.754,-261.333 L 760.699,-261.42 L 760.648,-261.51 L 760.602,-261.602 L 760.56,-261.696
 L 760.523,-261.793 L 760.49,-261.89 L 760.463,-261.99 L 760.44,-262.09 L 760.423,-262.192 L 760.41,-262.294
 L 760.403,-262.397 L 760.4,-262.5 L 760.403,-262.603 L 760.41,-262.706 L 760.423,-262.808 L 760.44,-262.91
 L 760.463,-263.01 L 760.49,-263.11 L 760.523,-263.207 L 760.56,-263.304 L 760.602,-263.398 L 760.648,-263.49
 L 760.699,-263.58 L 760.754,-263.667 L 760.813,-263.751 L 760.877,-263.832 L 760.944,-263.91 L 761.015,-263.985
 L 761.09,-264.056 L 761.168,-264.123 L 761.249,-264.187 L 761.333,-264.246 L 761.42,-264.301 L 761.51,-264.352
 L 761.602,-264.398 L 761.696,-264.44 L 761.793,-264.477 L 761.89,-264.51 L 761.99,-264.537 L 762.09,-264.56
 L 762.192,-264.577 L 762.294,-264.59 L 762.397,-264.597 L 762.5,-264.6 L 762.603,-264.597 L 762.706,-264.59
 L 762.808,-264.577 L 762.91,-264.56 L 763.01,-264.537 L 763.11,-264.51 L 763.207,-264.477 L 763.304,-264.44
 L 763.398,-264.398 L 763.49,-264.352 L 763.58,-264.301 L 763.667,-264.246 L 763.751,-264.187 L 763.832,-264.123
 L 763.91,-264.056 L 763.985,-263.985 L 764.056,-263.91 L 764.123,-263.832 L 764.187,-263.751 L 764.246,-263.667
 L 764.301,-263.58 L 764.352,-263.49 L 764.398,-263.398 L 764.44,-263.304 L 764.477,-263.207 L 764.51,-263.11
 L 764.537,-263.01 L 764.56,-262.91 L 764.577,-262.808 L 764.59,-262.706 L 764.597,-262.603 L 764.6,-262.5
 L 764.597,-262.397 L 764.59,-262.294 L 764.577,-262.192 L 764.56,-262.09 L 764.537,-261.99 L 764.51,-261.89
 L 764.477,-261.793 L 764.44,-261.696 L 764.398,-261.602 L 764.352,-261.51 L 764.301,-261.42 L 764.246,-261.333
 L 764.187,-261.249 L 764.123,-261.168 L 764.056,-261.09 L 763.985,-261.015 L 763.91,-260.944 L 763.832,-260.877
 L 763.751,-260.813 L 763.667,-260.754 L 763.58,-260.699 L 763.49,-260.648 L 763.398,-260.602 L 763.304,-260.56
 L 763.207,-260.523 L 763.11,-260.49 L 763.01,-260.463 L 762.91,-260.44 L 762.808,-260.423 L 762.706,-260.41
 L 762.603,-260.403 L 762.5,-260.4 z
M -62.603,-147.903 L -62.7058,-147.91 L -62.8081,-147.923 L -62.9097,-147.94 L -63.0103,-147.963 L -63.1096,-147.99
 L -63.2075,-148.023 L -63.3036,-148.06 L -63.3979,-148.102 L -63.4899,-148.148 L -63.5796,-148.199 L -63.6667,-148.254
 L -63.751,-148.313 L -63.8322,-148.377 L -63.9103,-148.444 L -63.9849,-148.515 L -64.056,-148.59 L -64.1233,-148.668
 L -64.1867,-148.749 L -64.2461,-148.833 L -64.3012,-148.92 L -64.352,-149.01 L -64.3984,-149.102 L -64.4401,-149.196
 L -64.4772,-149.293 L -64.5096,-149.39 L -64.5371,-149.49 L -64.5596,-149.59 L -64.5773,-149.692 L -64.5899,-149.794
 L -64.5975,-149.897 L -64.6,-150 L -64.5975,-150.103 L -64.5899,-150.206 L -64.5773,-150.308 L -64.5596,-150.41
 L -64.5371,-150.51 L -64.5096,-150.61 L -64.4772,-150.707 L -64.4401,-150.804 L -64.3984,-150.898 L -64.352,-150.99
 L -64.3012,-151.08 L -64.2461,-151.167 L -64.1867,-151.251 L -64.1233,-151.332 L -64.056,-151.41 L -63.9849,-151.485
 L -63.9103,-151.556 L -63.8322,-151.623 L -63.751,-151.687 L -63.6667,-151.746 L -63.5796,-151.801 L -63.4899,-151.852
 L -63.3979,-151.898 L -63.3036,-151.94 L -63.2075,-151.977 L -63.1096,-152.01 L -63.0103,-152.037 L -62.9097,-152.06
 L -62.8081,-152.077 L -62.7058,-152.09 L -62.603,-152.097 L -62.5,-152.1 L -62.397,-152.097 L -62.2942,-152.09
 L -62.1919,-152.077 L -62.0903,-152.06 L -61.9897,-152.037 L -61.8904,-152.01 L -61.7925,-151.977 L -61.6964,-151.94
 L -61.6021,-151.898 L -61.5101,-151.852 L -61.4204,-151.801 L -61.3333,-151.746 L -61.249,-151.687 L -61.1678,-151.623
 L -61.0897,-151.556 L -61.0151,-151.485 L -60.944,-151.41 L -60.8767,-151.332 L -60.8133,-151.251 L -60.7539,-151.167
 L -60.6988,-151.08 L -60.648,-150.99 L -60.6016,-150.898 L -60.5599,-150.804 L -60.5228,-150.707 L -60.4904,-150.61
 L -60.4629,-150.51 L -60.4404,-150.41 L -60.4227,-150.308 L -60.4101,-150.206 L -60.4025,-150.103 L -60.4,-150
 L -60.4025,-149.897 L -60.4101,-149.794 L -60.4227,-149.692 L -60.4404,-149.59 L -60.4629,-149.49 L -60.4904,-149.39
 L -60.5228,-149.293 L -60.5599,-149.196 L -60.6016,-149.102 L -60.648,-149.01 L -60.6988,-148.92 L -60.7539,-148.833
 L -60.8133,-148.749 L -60.8767,-148.668 L -60.944,-148.59 L -61.0151,-148.515 L -61.0897,-148.444 L -61.1678,-148.377
 L -61.249,-148.313 L -61.3333,-148.254 L -61.4204,-148.199 L -61.5101,-148.148 L -61.6021,-148.102 L -61.6964,-148.06
 L -61.7925,-148.023 L -61.8904,-147.99 L -61.9897,-147.963 L -62.0903,-147.94 L -62.1919,-147.923 L -62.2942,-147.91
 L -62.397,-147.903 L -62.5,-147.9 z
M 762.397,-147.903 L 762.294,-147.91 L 762.192,-147.923 L 762.09,-147.94 L 761.99,-147.963 L 761.89,-147.99
 L 761.793,-148.023 L 761.696,-148.06 L 761.602,-148.102 L 761.51,-148.148 L 761.42,-148.199 L 761.333,-148.254
 L 761.249,-148.313 L 761.168,-148.377 L 761.09,-148.444 L 761.015,-148.515 L 760.944,-148.59 L 760.877,-148.668
 L 760.813,-148.749 L 760.754,-148.833 L 760.699,-148.92 L 760.648,-149.01 L 760.602,-149.102 L 760.56,-149.196
 L 760.523,-149.293 L 760.49,-149.39 L 760.463,-149.49 L 760.44,-149.59 L 760.423,-149.692 L 760.41,-149.794
 L 760.403,-149.897 L 760.4,-150 L 760.403,-150.103 L 760.41,-150.206 L 760.423,-150.308 L 760.44,-150.41
 L 760.463,-150.51 L 760.49,-150.61 L 760.523,-150.707 L 760.56,-150.804 L 760.602,-150.898 L 760.648,-150.99
 L 760.699,-151.08 L 760.754,-151.167 L 760.813,-151.251 L 760.877,-151.332 L 760.944,-151.41 L 761.015,-151.485
 L 761.09,-151.556 L 761.168,-151.623 L 761.249,-151.687 L 761.333,-151.746 L 761.42,-151.801 L 761.51,-151.852
 L 761.602,-151.898 L 761.696,-151.94 L 761.793,-151.977 L 761.89,-152.01 L 761.99,-152.037 L 762.09,-152.06
 L 762.192,-152.077 L 762.294,-152.09 L 762.397,-152.097 L 762.5,-152.1 L 762.603,-152.097 L 762.706,-152.09
 L 762.808,-152.077 L 762.91,-152.06 L 763.01,-152.037 L 763.11,-152.01 L 763.207,-151.977 L 763.304,-151.94
 L 763.398,-151.898 L 763.49,-151.852 L 763.58,-151.801 L 763.667,-151.746 L 763.751,-151.687 L 763.832,-151.623
 L 763.91,-151.556 L 763.985,-151.485 L 764.056,-151.41 L 764.123,-151.332 L 764.187,-151.251 L 764.246,-151.167
 L 764.301,-151.08 L 764.352,-150.99 L 764.398,-150.898 L 764.44,-150.804 L 764.477,-150.707 L 764.51,-150.61
 L 764.537,-150.51 L 764.56,-150.41 L 764.577,-150.308 L 764.59,-150.206 L 764.597,-150.103 L 764.6,-150
 L 764.597,-149.897 L 764.59,-149.794 L 764.577,-149.692 L 764.56,-149.59 L 764.537,-149.49 L 764.51,-149.39
 L 764.477,-149.293 L 764.44,-149.196 L 764.398,-149.102 L 764.352,-149.01 L 764.301,-148.92 L 764.246,-148.833
 L 764.187,-148.749 L 764.123,-148.668 L 764.056,-148.59 L 763.985,-148.515 L 763.91,-148.444 L 763.832,-148.377
 L 763.751,-148.313 L 763.667,-148.254 L 763.58,-148.199 L 763.49,-148.148 L 763.398,-148.102 L 763.304,-148.06
 L 763.207,-148.023 L 763.11,-147.99 L 763.01,-147.963 L 762.91,-147.94 L 762.808,-147.923 L 762.706,-147.91
 L 762.603,-147.903 L 762.5,-147.9 z
M -62.603,-47.9025 L -62.7058,-47.9101 L -62.8081,-47.9227 L -62.9097,-47.9404 L -63.0103,-47.9629 L -63.1096,-47.9904
 L -63.2075,-48.0228 L -63.3036,-48.0599 L -63.3979,-48.1016 L -63.4899,-48.148 L -63.5796,-48.1988 L -63.6667,-48.2539
 L -63.751,-48.3133 L -63.8322,-48.3767 L -63.9103,-48.444 L -63.9849,-48.5151 L -64.056,-48.5897 L -64.1233,-48.6678
 L -64.1867,-48.749 L -64.2461,-48.8333 L -64.3012,-48.9204 L -64.352,-49.0101 L -64.3984,-49.1021 L -64.4401,-49.1964
 L -64.4772,-49.2925 L -64.5096,-49.3904 L -64.5371,-49.4897 L -64.5596,-49.5903 L -64.5773,-49.6919 L -64.5899,-49.7942
 L -64.5975,-49.897 L -64.6,-50 L -64.5975,-50.103 L -64.5899,-50.2058 L -64.5773,-50.3081 L -64.5596,-50.4097
 L -64.5371,-50.5103 L -64.5096,-50.6096 L -64.4772,-50.7075 L -64.4401,-50.8036 L -64.3984,-50.8979 L -64.352,-50.9899
 L -64.3012,-51.0796 L -64.2461,-51.1667 L -64.1867,-51.251 L -64.1233,-51.3322 L -64.056,-51.4103 L -63.9849,-51.4849
 L -63.9103,-51.556 L -63.8322,-51.6233 L -63.751,-51.6867 L -63.6667,-51.7461 L -63.5796,-51.8012 L -63.4899,-51.852
 L -63.3979,-51.8984 L -63.3036,-51.9401 L -63.2075,-51.9772 L -63.1096,-52.0096 L -63.0103,-52.0371 L -62.9097,-52.0596
 L -62.8081,-52.0773 L -62.7058,-52.0899 L -62.603,-52.0975 L -62.5,-52.1 L -62.397,-52.0975 L -62.2942,-52.0899
 L -62.1919,-52.0773 L -62.0903,-52.0596 L -61.9897,-52.0371 L -61.8904,-52.0096 L -61.7925,-51.9772 L -61.6964,-51.9401
 L -61.6021,-51.8984 L -61.5101,-51.852 L -61.4204,-51.8012 L -61.3333,-51.7461 L -61.249,-51.6867 L -61.1678,-51.6233
 L -61.0897,-51.556 L -61.0151,-51.4849 L -60.944,-51.4103 L -60.8767,-51.3322 L -60.8133,-51.251 L -60.7539,-51.1667
 L -60.6988,-51.0796 L -60.648,-50.9899 L -60.6016,-50.8979 L -60.5599,-50.8036 L -60.5228,-50.7075 L -60.4904,-50.6096
 L -60.4629,-50.5103 L -60.4404,-50.4097 L -60.4227,-50.3081 L -60.4101,-50.2058 L -60.4025,-50.103 L -60.4,-50
 L -60.4025,-49.897 L -60.4101,-49.7942 L -60.4227,-49.6919 L -60.4404,-49.5903 L -60.4629,-49.4897 L -60.4904,-49.3904
 L -60.5228,-49.2925 L -60.5599,-49.1964 L -60.6016,-49.1021 L -60.648,-49.0101 L -60.6988,-48.9204 L -60.7539,-48.8333
 L -60.8133,-48.749 L -60.8767,-48.6678 L -60.944,-48.5897 L -61.0151,-48.5151 L -61.0897,-48.444 L -61.1678,-48.3767
 L -61.249,-48.3133 L -61.3333,-48.2539 L -61.4204,-48.1988 L -61.5101,-48.148 L -61.6021,-48.1016 L -61.6964,-48.0599
 L -61.7925,-48.0228 L -61.8904,-47.9904 L -61.9897,-47.9629 L -62.0903,-47.9404 L -62.1919,-47.9227 L -62.2942,-47.9101
 L -62.397,-47.9025 L -62.5,-47.9 z
M 762.397,-47.9025 L 762.294,-47.9101 L 762.192,-47.9227 L 762.09,-47.9404 L 761.99,-47.9629 L 761.89,-47.9904
 L 761.793,-48.0228 L 761.696,-48.0599 L 761.602,-48.1016 L 761.51,-48.148 L 761.42,-48.1988 L 761.333,-48.2539
 L 761.249,-48.3133 L 761.168,-48.3767 L 761.09,-48.444 L 761.015,-48.5151 L 760.944,-48.5897 L 760.877,-48.6678
 L 760.813,-48.749 L 760.754,-48.8333 L 760.699,-48.9204 L 760.648,-49.0101 L 760.602,-49.1021 L 760.56,-49.1964
 L 760.523,-49.2925 L 760.49,-49.3904 L 760.463,-49.4897 L 760.44,-49.5903 L 760.423,-49.6919 L 760.41,-49.7942
 L 760.403,-49.897 L 760.4,-50 L 760.403,-50.103 L 760.41,-50.2058 L 760.423,-50.3081 L 760.44,-50.4097
 L 760.463,-50.5103 L 760.49,-50.6096 L 760.523,-50.7075 L 760.56,-50.8036 L 760.602,-50.8979 L 760.648,-50.9899
 L 760.699,-51.0796 L 760.754,-51.1667 L 760.813,-51.251 L 760.877,-51.3322 L 760.944,-51.4103 L 761.015,-51.4849
 L 761.09,-51.556 L 761.168,-51.6233 L 761.249,-51.6867 L 761.333,-51.7461 L 761.42,-51.8012 L 761.51,-51.852
 L 761.602,-51.8984 L 761.696,-51.9401 L 761.793,-51.9772 L 761.89,-52.0096 L 761.99,-52.0371 L 762.09,-52.0596
 L 762.192,-52.0773 L 762.294,-52.0899 L 762.397,-52.0975 L 762.5,-52.1 L 762.603,-52.0975 L 762.706,-52.0899
 L 762.808,-52.0773 L 762.91,-52.0596 L 763.01,-52.0371 L 763.11,-52.0096 L 763.207,-51.9772 L 763.304,-51.9401
 L 763.398,-51.8984 L 763.49,-51.852 L 763.58,-51.8012 L 763.667,-51.7461 L 763.751,-51.6867 L 763.832,-51.6233
 L 763.91,-51.556 L 763.985,-51.4849 L 764.056,-51.4103 L 764.123,-51.3322 L 764.187,-51.251 L 764.246,-51.1667
 L 764.301,-51.0796 L 764.352,-50.9899 L 764.398,-50.8979 L 764.44,-50.8036 L 764.477,-50.7075 L 764.51,-50.6096
 L 764.537,-50.5103 L 764.56,-50.4097 L 764.577,-50.3081 L 764.59,-50.2058 L 764.597,-50.103 L 764.6,-50
 L 764.597,-49.897 L 764.59,-49.7942 L 764.577,-49.6919 L 764.56,-49.5903 L 764.537,-49.4897 L 764.51,-49.3904
 L 764.477,-49.2925 L 764.44,-49.1964 L 764.398,-49.1021 L 764.352,-49.0101 L 764.301,-48.9204 L 764.246,-48.8333
 L 764.187,-48.749 L 764.123,-48.6678 L 764.056,-48.5897 L 763.985,-48.5151 L 763.91,-48.444 L 763.832,-48.3767
 L 763.751,-48.3133 L 763.667,-48.2539 L 763.58,-48.1988 L 763.49,-48.148 L 763.398,-48.1016 L 763.304,-48.0599
 L 763.207,-48.0228 L 763.11,-47.9904 L 763.01,-47.9629 L 762.91,-47.9404 L 762.808,-47.9227 L 762.706,-47.9101
 L 762.603,-47.9025 L 762.5,-47.9 z
M -62.603,64.5975 L -62.7058,64.5899 L -62.8081,64.5773 L -62.9097,64.5596 L -63.0103,64.5371 L -63.1096,64.5096
 L -63.2075,64.4772 L -63.3036,64.4401 L -63.3979,64.3984 L -63.4899,64.352 L -63.5796,64.3012 L -63.6667,64.2461
 L -63.751,64.1867 L -63.8322,64.1233 L -63.9103,64.056 L -63.9849,63.9849 L -64.056,63.9103 L -64.1233,63.8322
 L -64.1867,63.751 L -64.2461,63.6667 L -64.3012,63.5796 L -64.352,63.4899 L -64.3984,63.3979 L -64.4401,63.3036
 L -64.4772,63.2075 L -64.5096,63.1096 L -64.5371,63.0103 L -64.5596,62.9097 L -64.5773,62.8081 L -64.5899,62.7058
 L -64.5975,62.603 L -64.6,62.5 L -64.5975,62.397 L -64.5899,62.2942 L -64.5773,62.1919 L -64.5596,62.0903
 L -64.5371,61.9897 L -64.5096,61.8904 L -64.4772,61.7925 L -64.4401,61.6964 L -64.3984,61.6021 L -64.352,61.5101
 L -64.3012,61.4204 L -64.2461,61.3333 L -64.1867,61.249 L -64.1233,61.1678 L -64.056,61.0897 L -63.9849,61.0151
 L -63.9103,60.944 L -63.8322,60.8767 L -63.751,60.8133 L -63.6667,60.7539 L -63.5796,60.6988 L -63.4899,60.648
 L -63.3979,60.6016 L -63.3036,60.5599 L -63.2075,60.5228 L -63.1096,60.4904 L -63.0103,60.4629 L -62.9097,60.4404
 L -62.8081,60.4227 L -62.7058,60.4101 L -62.603,60.4025 L -62.5,60.4 L -62.397,60.4025 L -62.2942,60.4101
 L -62.1919,60.4227 L -62.0903,60.4404 L -61.9897,60.4629 L -61.8904,60.4904 L -61.7925,60.5228 L -61.6964,60.5599
 L -61.6021,60.6016 L -61.5101,60.648 L -61.4204,60.6988 L -61.3333,60.7539 L -61.249,60.8133 L -61.1678,60.8767
 L -61.0897,60.944 L -61.0151,61.0151 L -60.944,61.0897 L -60.8767,61.1678 L -60.8133,61.249 L -60.7539,61.3333
 L -60.6988,61.4204 L -60.648,61.5101 L -60.6016,61.6021 L -60.5599,61.6964 L -60.5228,61.7925 L -60.4904,61.8904
 L -60.4629,61.9897 L -60.4404,62.0903 L -60.4227,62.1919 L -60.4101,62.2942 L -60.4025,62.397 L -60.4,62.5
 L -60.4025,62.603 L -60.4101,62.7058 L -60.4227,62.8081 L -60.4404,62.9097 L -60.4629,63.0103 L -60.4904,63.1096
 L -60.5228,63.2075 L -60.5599,63.3036 L -60.6016,63.3979 L -60.648,63.4899 L -60.6988,63.5796 L -60.7539,63.6667
 L -60.8133,63.751 L -60.8767,63.8322 L -60.944,63.9103 L -61.0151,63.9849 L -61.0897,64.056 L -61.1678,64.1233
 L -61.249,64.1867 L -61.3333,64.2461 L -61.4204,64.3012 L -61.5101,64.352 L -61.6021,64.3984 L -61.6964,64.4401
 L -61.7925,64.4772 L -61.8904,64.5096 L -61.9897,64.5371 L -62.0903,64.5596 L -62.1919,64.5773 L -62.2942,64.5899
 L -62.397,64.5975 L -62.5,64.6 z
M 49.897,64.5975 L 49.7942,64.5899 L 49.6919,64.5773 L 49.5903,64.5596 L 49.4897,64.5371 L 49.3904,64.5096
 L 49.2925,64.4772 L 49.1964,64.4401 L 49.1021,64.3984 L 49.0101,64.352 L 48.9204,64.3012 L 48.8333,64.2461
 L 48.749,64.1867 L 48.6678,64.1233 L 48.5897,64.056 L 48.5151,63.9849 L 48.444,63.9103 L 48.3767,63.8322
 L 48.3133,63.751 L 48.2539,63.6667 L 48.1988,63.5796 L 48.148,63.4899 L 48.1016,63.3979 L 48.0599,63.3036
 L 48.0228,63.2075 L 47.9904,63.1096 L 47.9629,63.0103 L 47.9404,62.9097 L 47.9227,62.8081 L 47.9101,62.7058
 L 47.9025,62.603 L 47.9,62.5 L 47.9025,62.397 L 47.9101,62.2942 L 47.9227,62.1919 L 47.9404,62.0903
 L 47.9629,61.9897 L 47.9904,61.8904 L 48.0228,61.7925 L 48.0599,61.6964 L 48.1016,61.6021 L 48.148,61.5101
 L 48.1988,61.4204 L 48.2539,61.3333 L 48.3133,61.249 L 48.3767,61.1678 L 48.444,61.0897 L 48.5151,61.0151
 L 48.5897,60.944 L 48.6678,60.8767 L 48.749,60.8133 L 48.8333,60.7539 L 48.9204,60.6988 L 49.0101,60.648
 L 49.1021,60.6016 L 49.1964,60.5599 L 49.2925,60.5228 L 49.3904,60.4904 L 49.4897,60.4629 L 49.5903,60.4404
 L 49.6919,60.4227 L 49.7942,60.4101 L 49.897,60.4025 L 50,60.4 L 50.103,60.4025 L 50.2058,60.4101
 L 50.3081,60.4227 L 50.4097,60.4404 L 50.5103,60.4629 L 50.6096,60.4904 L 50.7075,60.5228 L 50.8036,60.5599
 L 50.8979,60.6016 L 50.9899,60.648 L 51.0796,60.6988 L 51.1667,60.7539 L 51.251,60.8133 L 51.3322,60.8767
 L 51.4103,60.944 L 51.4849,61.0151 L 51.556,61.0897 L 51.6233,61.1678 L 51.6867,61.249 L 51.7461,61.3333
 L 51.8012,61.4204 L 51.852,61.5101 L 51.8984,61.6021 L 51.9401,61.6964 L 51.9772,61.7925 L 52.0096,61.8904
 L 52.0371,61.9897 L 52.0596,62.0903 L 52.0773,62.1919 L 52.0899,62.2942 L 52.0975,62.397 L 52.1,62.5
 L 52.0975,62.603 L 52.0899,62.7058 L 52.0773,62.8081 L 52.0596,62.9097 L 52.0371,63.0103 L 52.0096,63.1096
 L 51.9772,63.2075 L 51.9401,63.3036 L 51.8984,63.3979 L 51.852,63.4899 L 51.8012,63.5796 L 51.7461,63.6667
 L 51.6867,63.751 L 51.6233,63.8322 L 51.556,63.9103 L 51.4849,63.9849 L 51.4103,64.056 L 51.3322,64.1233
 L 51.251,64.1867 L 51.1667,64.2461 L 51.0796,64.3012 L 50.9899,64.352 L 50.8979,64.3984 L 50.8036,64.4401
 L 50.7075,64.4772 L 50.6096,64.5096 L 50.5103,64.5371 L 50.4097,64.5596 L 50.3081,64.5773 L 50.2058,64.5899
 L 50.103,64.5975 L 50,64.6 z
M 149.897,64.5975 L 149.794,64.5899 L 149.692,64.5773 L 149.59,64.5596 L 149.49,64.5371 L 149.39,64.5096
 L 149.293,64.4772 L 149.196,64.4401 L 149.102,64.3984 L 149.01,64.352 L 148.92,64.3012 L 148.833,64.2461
 L 148.749,64.1867 L 148.668,64.1233 L 148.59,64.056 L 148.515,63.9849 L 148.444,63.9103 L 148.377,63.8322
 L 148.313,63.751 L 148.254,63.6667 L 148.199,63.5796 L 148.148,63.4899 L 148.102,63.3979 L 148.06,63.3036
 L 148.023,63.2075 L 147.99,63.1096 L 147.963,63.0103 L 147.94,62.9097 L 147.923,62.8081 L 147.91,62.7058
 L 147.903,62.603 L 147.9,62.5 L 147.903,62.397 L 147.91,62.2942 L 147.923,62.1919 L 147.94,62.0903
 L 147.963,61.9897 L 147.99,61.8904 L 148.023,61.7925 L 148.06,61.6964 L 148.102,61.6021 L 148.148,61.5101
 L 148.199,61.4204 L 148.254,61.3333 L 148.313,61.249 L 148.377,61.1678 L 148.444,61.0897 L 148.515,61.0151
 L 148.59,60.944 L 148.668,60.8767 L 148.749,60.8133 L 148.833,60.7539 L 148.92,60.6988 L 149.01,60.648
 L 149.102,60.6016 L 149.196,60.5599 L 149.293,60.5228 L 149.39,60.4904 L 149.49,60.4629 L 149.59,60.4404
 L 149.692,60.4227 L 149.794,60.4101 L 149.897,60.4025 L 150,60.4 L 150.103,60.4025 L 150.206,60.4101
 L 150.308,60.4227 L 150.41,60.4404 L 150.51,60.4629 L 150.61,60.4904 L 150.707,60.5228 L 150.804,60.5599
 L 150.898,60.6016 L 150.99,60.648 L 151.08,60.6988 L 151.167,60.7539 L 151.251,60.8133 L 151.332,60.8767
 L 151.41,60.944 L 151.485,61.0151 L 151.556,61.0897 L 151.623,61.1678 L 151.687,61.249 L 151.746,61.3333
 L 151.801,61.4204 L 151.852,61.5101 L 151.898,61.6021 L 151.94,61.6964 L 151.977,61.7925 L 152.01,61.8904
 L 152.037,61.9897 L 152.06,62.0903 L 152.077,62.1919 L 152.09,62.2942 L 152.097,62.397 L 152.1,62.5
 L 152.097,62.603 L 152.09,62.7058 L 152.077,62.8081 L 152.06,62.9097 L 152.037,63.0103 L 152.01,63.1096
 L 151.977,63.2075 L 151.94,63.3036 L 151.898,63.3979 L 151.852,63.4899 L 151.801,63.5796 L 151.746,63.6667
 L 151.687,63.751 L 151.623,63.8322 L 151.556,63.9103 L 151.485,63.9849 L 151.41,64.056 L 151.332,64.1233
 L 151.251,64.1867 L 151.167,64.2461 L 151.08,64.3012 L 150.99,64.352 L 150.898,64.3984 L 150.804,64.4401
 L 150.707,64.4772 L 150.61,64.5096 L 150.51,64.5371 L 150.41,64.5596 L 150.308,64.5773 L 150.206,64.5899
 L 150.103,64.5975 L 150,64.6 z
M 249.897,64.5975 L 249.794,64.5899 L 249.692,64.5773 L 249.59,64.5596 L 249.49,64.5371 L 249.39,64.5096
 L 249.293,64.4772 L 249.196,64.4401 L 249.102,64.3984 L 249.01,64.352 L 248.92,64.3012 L 248.833,64.2461
 L 248.749,64.1867 L 248.668,64.1233 L 248.59,64.056 L 248.515,63.9849 L 248.444,63.9103 L 248.377,63.8322
 L 248.313,63.751 L 248.254,63.6667 L 248.199,63.5796 L 248.148,63.4899 L 248.102,63.3979 L 248.06,63.3036
 L 248.023,63.2075 L 247.99,63.1096 L 247.963,63.0103 L 247.94,62.9097 L 247.923,62.8081 L 247.91,62.7058
 L 247.903,62.603 L 247.9,62.5 L 247.903,62.397 L 247.91,62.2942 L 247.923,62.1919 L 247.94,62.0903
 L 247.963,61.9897 L 247.99,61.8904 L 248.023,61.7925 L 248.06,61.6964 L 248.102,61.6021 L 248.148,61.5101
 L 248.199,61.4204 L 248.254,61.3333 L 248.313,61.249 L 248.377,61.1678 L 248.444,61.0897 L 248.515,61.0151
 L 248.59,60.944 L 248.668,60.8767 L 248.749,60.8133 L 248.833,60.7539 L 248.92,60.6988 L 249.01,60.648
 L 249.102,60.6016 L 249.196,60.5599 L 249.293,60.5228 L 249.39,60.4904 L 249.49,60.4629 L 249.59,60.4404
 L 249.692,60.4227 L 249.794,60.4101 L 249.897,60.4025 L 250,60.4 L 250.103,60.4025 L 250.206,60.4101
 L 250.308,60.4227 L 250.41,60.4404 L 250.51,60.4629 L 250.61,60.4904 L 250.707,60.5228 L 250.804,60.5599
 L 250.898,60.6016 L 250.99,60.648 L 251.08,60.6988 L 251.167,60.7539 L 251.251,60.8133 L 251.332,60.8767
 L 251.41,60.944 L 251.485,61.0151 L 251.556,61.0897 L 251.623,61.1678 L 251.687,61.249 L 251.746,61.3333
 L 251.801,61.4204 L 251.852,61.5101 L 251.898,61.6021 L 251.94,61.6964 L 251.977,61.7925 L 252.01,61.8904
 L 252.037,61.9897 L 252.06,62.0903 L 252.077,62.1919 L 252.09,62.2942 L 252.097,62.397 L 252.1,62.5
 L 252.097,62.603 L 252.09,62.7058 L 252.077,62.8081 L 252.06,62.9097 L 252.037,63.0103 L 252.01,63.1096
 L 251.977,63.2075 L 251.94,63.3036 L 251.898,63.3979 L 251.852,63.4899 L 251.801,63.5796 L 251.746,63.6667
 L 251.687,63.751 L 251.623,63.8322 L 251.556,63.9103 L 251.485,63.9849 L 251.41,64.056 L 251.332,64.1233
 L 251.251,64.1867 L 251.167,64.2461 L 251.08,64.3012 L 250.99,64.352 L 250.898,64.3984 L 250.804,64.4401
 L 250.707,64.4772 L 250.61,64.5096 L 250.51,64.5371 L 250.41,64.5596 L 250.308,64.5773 L 250.206,64.5899
 L 250.103,64.5975 L 250,64.6 z
M 449.897,64.5975 L 449.794,64.5899 L 449.692,64.5773 L 449.59,64.5596 L 449.49,64.5371 L 449.39,64.5096
 L 449.293,64.4772 L 449.196,64.4401 L 449.102,64.3984 L 449.01,64.352 L 448.92,64.3012 L 448.833,64.2461
 L 448.749,64.1867 L 448.668,64.1233 L 448.59,64.056 L 448.515,63.9849 L 448.444,63.9103 L 448.377,63.8322
 L 448.313,63.751 L 448.254,63.6667 L 448.199,63.5796 L 448.148,63.4899 L 448.102,63.3979 L 448.06,63.3036
 L 448.023,63.2075 L 447.99,63.1096 L 447.963,63.0103 L 447.94,62.9097 L 447.923,62.8081 L 447.91,62.7058
 L 447.903,62.603 L 447.9,62.5 L 447.903,62.397 L 447.91,62.2942 L 447.923,62.1919 L 447.94,62.0903
 L 447.963,61.9897 L 447.99,61.8904 L 448.023,61.7925 L 448.06,61.6964 L 448.102,61.6021 L 448.148,61.5101
 L 448.199,61.4204 L 448.254,61.3333 L 448.313,61.249 L 448.377,61.1678 L 448.444,61.0897 L 448.515,61.0151
 L 448.59,60.944 L 448.668,60.8767 L 448.749,60.8133 L 448.833,60.7539 L 448.92,60.6988 L 449.01,60.648
 L 449.102,60.6016 L 449.196,60.5599 L 449.293,60.5228 L 449.39,60.4904 L 449.49,60.4629 L 449.59,60.4404
 L 449.692,60.4227 L 449.794,60.4101 L 449.897,60.4025 L 450,60.4 L 450.103,60.4025 L 450.206,60.4101
 L 450.308,60.4227 L 450.41,60.4404 L 450.51,60.4629 L 450.61,60.4904 L 450.707,60.5228 L 450.804,60.5599
 L 450.898,60.6016 L 450.99,60.648 L 451.08,60.6988 L 451.167,60.7539 L 451.251,60.8133 L 451.332,60.8767
 L 451.41,60.944 L 451.485,61.0151 L 451.556,61.0897 L 451.623,61.1678 L 451.687,61.249 L 451.746,61.3333
 L 451.801,61.4204 L 451.852,61.5101 L 451.898,61.6021 L 451.94,61.6964 L 451.977,61.7925 L 452.01,61.8904
 L 452.037,61.9897 L 452.06,62.0903 L 452.077,62.1919 L 452.09,62.2942 L 452.097,62.397 L 452.1,62.5
 L 452.097,62.603 L 452.09,62.7058 L 452.077,62.8081 L 452.06,62.9097 L 452.037,63.0103 L 452.01,63.1096
 L 451.977,63.2075 L 451.94,63.3036 L 451.898,63.3979 L 451.852,63.4899 L 451.801,63.5796 L 451.746,63.6667
 L 451.687,63.751 L 451.623,63.8322 L 451.556,63.9103 L 451.485,63.9849 L 451.41,64.056 L 451.332,64.1233
 L 451.251,64.1867 L 451.167,64.2461 L 451.08,64.3012 L 450.99,64.352 L 450.898,64.3984 L 450.804,64.4401
 L 450.707,64.4772 L 450.61,64.5096 L 450.51,64.5371 L 450.41,64.5596 L 450.308,64.5773 L 450.206,64.5899
 L 450.103,64.5975 L 450,64.6 z
M 549.897,64.5975 L 549.794,64.5899 L 549.692,64.5773 L 549.59,64.5596 L 549.49,64.5371 L 549.39,64.5096
 L 549.293,64.4772 L 549.196,64.4401 L 549.102,64.3984 L 549.01,64.352 L 548.92,64.3012 L 548.833,64.2461
 L 548.749,64.1867 L 548.668,64.1233 L 548.59,64.056 L 548.515,63.9849 L 548.444,63.9103 L 548.377,63.8322
 L 548.313,63.751 L 548.254,63.6667 L 548.199,63.5796 L 548.148,63.4899 L 548.102,63.3979 L 548.06,63.3036
 L 548.023,63.2075 L 547.99,63.1096 L 547.963,63.0103 L 547.94,62.9097 L 547.923,62.8081 L 547.91,62.7058
 L 547.903,62.603 L 547.9,62.5 L 547.903,62.397 L 547.91,62.2942 L 547.923,62.1919 L 547.94,62.0903
 L 547.963,61.9897 L 547.99,61.8904 L 548.023,61.7925 L 548.06,61.6964 L 548.102,61.6021 L 548.148,61.5101
 L 548.199,61.4204 L 548.254,61.3333 L 548.313,61.249 L 548.377,61.1678 L 548.444,61.0897 L 548.515,61.0151
 L 548.59,60.944 L 548.668,60.8767 L 548.749,60.8133 L 548.833,60.7539 L 548.92,60.6988 L 549.01,60.648
 L 549.102,60.6016 L 549.196,60.5599 L 549.293,60.5228 L 549.39,60.4904 L 549.49,60.4629 L 549.59,60.4404
 L 549.692,60.4227 L 549.794,60.4101 L 549.897,60.4025 L 550,60.4 L 550.103,60.4025 L 550.206,60.4101
 L 550.308,60.4227 L 550.41,60.4404 L 550.51,60.4629 L 550.61,60.4904 L 550.707,60.5228 L 550.804,60.5599
 L 550.898,60.6016 L 550.99,60.648 L 551.08,60.6988 L 551.167,60.7539 L 551.251,60.8133 L 551.332,60.8767
 L 551.41,60.944 L 551.485,61.0151 L 551.556,61.0897 L 551.623,61.1678 L 551.687,61.249 L 551.746,61.3333
 L 551.801,61.4204 L 551.852,61.5101 L 551.898,61.6021 L 551.94,61.6964 L 551.977,61.7925 L 552.01,61.8904
 L 552.037,61.9897 L 552.06,62.0903 L 552.077,62.1919 L 552.09,62.2942 L 552.097,62.397 L 552.1,62.5
 L 552.097,62.603 L 552.09,62.7058 L 552.077,62.8081 L 552.06,62.9097 L 552.037,63.0103 L 552.01,63.1096
 L 551.977,63.2075 L 551.94,63.3036 L 551.898,63.3979 L 551.852,63.4899 L 551.801,63.5796 L 551.746,63.6667
 L 551.687,63.751 L 551.623,63.8322 L 551.556,63.9103 L 551.485,63.9849 L 551.41,64.056 L 551.332,64.1233
 L 551.251,64.1867 L 551.167,64.2461 L 551.08,64.3012 L 550.99,64.352 L 550.898,64.3984 L 550.804,64.4401
 L 550.707,64.4772 L 550.61,64.5096 L 550.51,64.5371 L 550.41,64.5596 L 550.308,64.5773 L 550.206,64.5899
 L 550.103,64.5975 L 550,64.6 z
M 649.897,64.5975 L 649.794,64.5899 L 649.692,64.5773 L 649.59,64.5596 L 649.49,64.5371 L 649.39,64.5096
 L 649.293,64.4772 L 649.196,64.4401 L 649.102,64.3984 L 649.01,64.352 L 648.92,64.3012 L 648.833,64.2461
 L 648.749,64.1867 L 648.668,64.1233 L 648.59,64.056 L 648.515,63.9849 L 648.444,63.9103 L 648.377,63.8322
 L 648.313,63.751 L 648.254,63.6667 L 648.199,63.5796 L 648.148,63.4899 L 648.102,63.3979 L 648.06,63.3036
 L 648.023,63.2075 L 647.99,63.1096 L 647.963,63.0103 L 647.94,62.9097 L 647.923,62.8081 L 647.91,62.7058
 L 647.903,62.603 L 647.9,62.5 L 647.903,62.397 L 647.91,62.2942 L 647.923,62.1919 L 647.94,62.0903
 L 647.963,61.9897 L 647.99,61.8904 L 648.023,61.7925 L 648.06,61.6964 L 648.102,61.6021 L 648.148,61.5101
 L 648.199,61.4204 L 648.254,61.3333 L 648.313,61.249 L 648.377,61.1678 L 648.444,61.0897 L 648.515,61.0151
 L 648.59,60.944 L 648.668,60.8767 L 648.749,60.8133 L 648.833,60.7539 L 648.92,60.6988 L 649.01,60.648
 L 649.102,60.6016 L 649.196,60.5599 L 649.293,60.5228 L 649.39,60.4904 L 649.49,60.4629 L 649.59,60.4404
 L 649.692,60.4227 L 649.794,60.4101 L 649.897,60.4025 L 650,60.4 L 650.103,60.4025 L 650.206,60.4101
 L 650.308,60.4227 L 650.41,60.4404 L 650.51,60.4629 L 650.61,60.4904 L 650.707,60.5228 L 650.804,60.5599
 L 650.898,60.6016 L 650.99,60.648 L 651.08,60.6988 L 651.167,60.7539 L 651.251,60.8133 L 651.332,60.8767
 L 651.41,60.944 L 651.485,61.0151 L 651.556,61.0897 L 651.623,61.1678 L 651.687,61.249 L 651.746,61.3333
 L 651.801,61.4204 L 651.852,61.5101 L 651.898,61.6021 L 651.94,61.6964 L 651.977,61.7925 L 652.01,61.8904
 L 652.037,61.9897 L 652.06,62.0903 L 652.077,62.1919 L 652.09,62.2942 L 652.097,62.397 L 652.1,62.5
 L 652.097,62.603 L 652.09,62.7058 L 652.077,62.8081 L 652.06,62.9097 L 652.037,63.0103 L 652.01,63.1096
 L 651.977,63.2075 L 651.94,63.3036 L 651.898,63.3979 L 651.852,63.4899 L 651.801,63.5796 L 651.746,63.6667
 L 651.687,63.751 L 651.623,63.8322 L 651.556,63.9103 L 651.485,63.9849 L 651.41,64.056 L 651.332,64.1233
 L 651.251,64.1867 L 651.167,64.2461 L 651.08,64.3012 L 650.99,64.352 L 650.898,64.3984 L 650.804,64.4401
 L 650.707,64.4772 L 650.61,64.5096 L 650.51,64.5371 L 650.41,64.5596 L 650.308,64.5773 L 650.206,64.5899
 L 650.103,64.5975 L 650,64.6 z
M 762.397,64.5975 L 762.294,64.5899 L 762.192,64.5773 L 762.09,64.5596 L 761.99,64.5371 L 761.89,64.5096
 L 761.793,64.4772 L 761.696,64.4401 L 761.602,64.3984 L 761.51,64.352 L 761.42,64.3012 L 761.333,64.2461
 L 761.249,64.1867 L 761.168,64.1233 L 761.09,64.056 L 761.015,63.9849 L 760.944,63.9103 L 760.877,63.8322
 L 760.813,63.751 L 760.754,63.6667 L 760.699,63.5796 L 760.648,63.4899 L 760.602,63.3979 L 760.56,63.3036
 L 760.523,63.2075 L 760.49,63.1096 L 760.463,63.0103 L 760.44,62.9097 L 760.423,62.8081 L 760.41,62.7058
 L 760.403,62.603 L 760.4,62.5 L 760.403,62.397 L 760.41,62.2942 L 760.423,62.1919 L 760.44,62.0903
 L 760.463,61.9897 L 760.49,61.8904 L 760.523,61.7925 L 760.56,61.6964 L 760.602,61.6021 L 760.648,61.5101
 L 760.699,61.4204 L 760.754,61.3333 L 760.813,61.249 L 760.877,61.1678 L 760.944,61.0897 L 761.015,61.0151
 L 761.09,60.944 L 761.168,60.8767 L 761.249,60.8133 L 761.333,60.7539 L 761.42,60.6988 L 761.51,60.648
 L 761.602,60.6016 L 761.696,60.5599 L 761.793,60.5228 L 761.89,60.4904 L 761.99,60.4629 L 762.09,60.4404
 L 762.192,60.4227 L 762.294,60.4101 L 762.397,60.4025 L 762.5,60.4 L 762.603,60.4025 L 762.706,60.4101
 L 762.808,60.4227 L 762.91,60.4404 L 763.01,60.4629 L 763.11,60.4904 L 763.207,60.5228 L 763.304,60.5599
 L 763.398,60.6016 L 763.49,60.648 L 763.58,60.6988 L 763.667,60.7539 L 763.751,60.8133 L 763.832,60.8767
 L 763.91,60.944 L 763.985,61.0151 L 764.056,61.0897 L 764.123,61.1678 L 764.187,61.249 L 764.246,61.3333
 L 764.301,61.4204 L 764.352,61.5101 L 764.398,61.6021 L 764.44,61.6964 L 764.477,61.7925 L 764.51,61.8904
 L 764.537,61.9897 L 764.56,62.0903 L 764.577,62.1919 L 764.59,62.2942 L 764.597,62.397 L 764.6,62.5
 L 764.597,62.603 L 764.59,62.7058 L 764.577,62.8081 L 764.56,62.9097 L 764.537,63.0103 L 764.51,63.1096
 L 764.477,63.2075 L 764.44,63.3036 L 764.398,63.3979 L 764.352,63.4899 L 764.301,63.5796 L 764.246,63.6667
 L 764.187,63.751 L 764.123,63.8322 L 764.056,63.9103 L 763.985,63.9849 L 763.91,64.056 L 763.832,64.1233
 L 763.751,64.1867 L 763.667,64.2461 L 763.58,64.3012 L 763.49,64.352 L 763.398,64.3984 L 763.304,64.4401
 L 763.207,64.4772 L 763.11,64.5096 L 763.01,64.5371 L 762.91,64.5596 L 762.808,64.5773 L 762.706,64.5899
 L 762.603,64.5975 L 762.5,64.6 z
M 374,25 L 373.997,24.8773 L 373.988,24.755 L 373.973,24.6332 L 373.952,24.5123 L 373.925,24.3925
 L 373.892,24.2743 L 373.854,24.1578 L 373.81,24.0433 L 373.76,23.9311 L 373.705,23.8215 L 373.644,23.7147
 L 373.579,23.6111 L 373.508,23.5108 L 373.433,23.414 L 373.352,23.3211 L 373.268,23.2322 L 373.179,23.1476
 L 373.086,23.0675 L 372.989,22.992 L 372.889,22.9213 L 372.785,22.8557 L 372.678,22.7952 L 372.569,22.74
 L 372.457,22.6903 L 372.342,22.6461 L 372.226,22.6076 L 372.107,22.5749 L 371.988,22.548 L 371.867,22.5271
 L 371.745,22.512 L 371.623,22.503 L 371.5,22.5 L 328.5,22.5 L 328.377,22.503 L 328.255,22.512
 L 328.133,22.5271 L 328.012,22.548 L 327.893,22.5749 L 327.774,22.6076 L 327.658,22.6461 L 327.543,22.6903
 L 327.431,22.74 L 327.322,22.7952 L 327.215,22.8557 L 327.111,22.9213 L 327.011,22.992 L 326.914,23.0675
 L 326.821,23.1476 L 326.732,23.2322 L 326.648,23.3211 L 326.567,23.414 L 326.492,23.5108 L 326.421,23.6111
 L 326.356,23.7147 L 326.295,23.8215 L 326.24,23.9311 L 326.19,24.0433 L 326.146,24.1578 L 326.108,24.2743
 L 326.075,24.3925 L 326.048,24.5123 L 326.027,24.6332 L 326.012,24.755 L 326.003,24.8773 L 326,25
 L 326,100 L 374,100 z
M 349.921,31.0981 L 349.843,31.0923 L 349.765,31.0827 L 349.688,31.0693 L 349.611,31.0521 L 349.536,31.0311
 L 349.461,31.0065 L 349.388,30.9782 L 349.316,30.9464 L 349.246,30.9111 L 349.177,30.8724 L 349.111,30.8304
 L 349.047,30.7851 L 348.985,30.7368 L 348.926,30.6855 L 348.869,30.6314 L 348.814,30.5745 L 348.763,30.515
 L 348.715,30.4531 L 348.67,30.3889 L 348.628,30.3226 L 348.589,30.2542 L 348.554,30.1841 L 348.522,30.1123
 L 348.494,30.039 L 348.469,29.9645 L 348.448,29.8888 L 348.431,29.8121 L 348.417,29.7348 L 348.408,29.6568
 L 348.402,29.5785 L 348.4,29.5 L 348.402,29.4215 L 348.408,29.3432 L 348.417,29.2652 L 348.431,29.1879
 L 348.448,29.1112 L 348.469,29.0355 L 348.494,28.961 L 348.522,28.8877 L 348.554,28.8159 L 348.589,28.7458
 L 348.628,28.6774 L 348.67,28.6111 L 348.715,28.5469 L 348.763,28.485 L 348.814,28.4255 L 348.869,28.3686
 L 348.926,28.3145 L 348.985,28.2632 L 349.047,28.2149 L 349.111,28.1696 L 349.177,28.1276 L 349.246,28.0889
 L 349.316,28.0536 L 349.388,28.0218 L 349.461,27.9935 L 349.536,27.9689 L 349.611,27.9479 L 349.688,27.9307
 L 349.765,27.9173 L 349.843,27.9077 L 349.921,27.9019 L 350,27.9 L 350.079,27.9019 L 350.157,27.9077
 L 350.235,27.9173 L 350.312,27.9307 L 350.389,27.9479 L 350.464,27.9689 L 350.539,27.9935 L 350.612,28.0218
 L 350.684,28.0536 L 350.754,28.0889 L 350.823,28.1276 L 350.889,28.1696 L 350.953,28.2149 L 351.015,28.2632
 L 351.074,28.3145 L 351.131,28.3686 L 351.186,28.4255 L 351.237,28.485 L 351.285,28.5469 L 351.33,28.6111
 L 351.372,28.6774 L 351.411,28.7458 L 351.446,28.8159 L 351.478,28.8877 L 351.506,28.961 L 351.531,29.0355
 L 351.552,29.1112 L 351.569,29.1879 L 351.583,29.2652 L 351.592,29.3432 L 351.598,29.4215 L 351.6,29.5
 L 351.598,29.5785 L 351.592,29.6568 L 351.583,29.7348 L 351.569,29.8121 L 351.552,29.8888 L 351.531,29.9645
 L 351.506,30.039 L 351.478,30.1123 L 351.446,30.1841 L 351.411,30.2542 L 351.372,30.3226 L 351.33,30.3889
 L 351.285,30.4531 L 351.237,30.515 L 351.186,30.5745 L 351.131,30.6314 L 351.074,30.6855 L 351.015,30.7368
 L 350.953,30.7851 L 350.889,30.8304 L 350.823,30.8724 L 350.754,30.9111 L 350.684,30.9464 L 350.612,30.9782
 L 350.539,31.0065 L 350.464,31.0311 L 350.389,31.0521 L 350.312,31.0693 L 350.235,31.0827 L 350.157,31.0923
 L 350.079,31.0981 L 350,31.1 z
M 329.921,86.5981 L 329.843,86.5923 L 329.765,86.5827 L 329.688,86.5693 L 329.611,86.5521 L 329.536,86.5311
 L 329.461,86.5065 L 329.388,86.4782 L 329.316,86.4464 L 329.246,86.4111 L 329.177,86.3724 L 329.111,86.3304
 L 329.047,86.2851 L 328.985,86.2368 L 328.926,86.1855 L 328.869,86.1314 L 328.814,86.0745 L 328.763,86.015
 L 328.715,85.9531 L 328.67,85.8889 L 328.628,85.8226 L 328.589,85.7542 L 328.554,85.6841 L 328.522,85.6123
 L 328.494,85.539 L 328.469,85.4645 L 328.448,85.3888 L 328.431,85.3121 L 328.417,85.2348 L 328.408,85.1568
 L 328.402,85.0785 L 328.4,85 L 328.402,84.9215 L 328.408,84.8432 L 328.417,84.7652 L 328.431,84.6879
 L 328.448,84.6112 L 328.469,84.5355 L 328.494,84.461 L 328.522,84.3877 L 328.554,84.3159 L 328.589,84.2458
 L 328.628,84.1774 L 328.67,84.1111 L 328.715,84.0469 L 328.763,83.985 L 328.814,83.9255 L 328.869,83.8686
 L 328.926,83.8145 L 328.985,83.7632 L 329.047,83.7149 L 329.111,83.6696 L 329.177,83.6276 L 329.246,83.5889
 L 329.316,83.5536 L 329.388,83.5218 L 329.461,83.4935 L 329.536,83.4689 L 329.611,83.4479 L 329.688,83.4307
 L 329.765,83.4173 L 329.843,83.4077 L 329.921,83.4019 L 330,83.4 L 330.079,83.4019 L 330.157,83.4077
 L 330.235,83.4173 L 330.312,83.4307 L 330.389,83.4479 L 330.464,83.4689 L 330.539,83.4935 L 330.612,83.5218
 L 330.684,83.5536 L 330.754,83.5889 L 330.823,83.6276 L 330.889,83.6696 L 330.953,83.7149 L 331.015,83.7632
 L 331.074,83.8145 L 331.131,83.8686 L 331.186,83.9255 L 331.237,83.985 L 331.285,84.0469 L 331.33,84.1111
 L 331.372,84.1774 L 331.411,84.2458 L 331.446,84.3159 L 331.478,84.3877 L 331.506,84.461 L 331.531,84.5355
 L 331.552,84.6112 L 331.569,84.6879 L 331.583,84.7652 L 331.592,84.8432 L 331.598,84.9215 L 331.6,85
 L 331.598,85.0785 L 331.592,85.1568 L 331.583,85.2348 L 331.569,85.3121 L 331.552,85.3888 L 331.531,85.4645
 L 331.506,85.539 L 331.478,85.6123 L 331.446,85.6841 L 331.411,85.7542 L 331.372,85.8226 L 331.33,85.8889
 L 331.285,85.9531 L 331.237,86.015 L 331.186,86.0745 L 331.131,86.1314 L 331.074,86.1855 L 331.015,86.2368
 L 330.953,86.2851 L 330.889,86.3304 L 330.823,86.3724 L 330.754,86.4111 L 330.684,86.4464 L 330.612,86.4782
 L 330.539,86.5065 L 330.464,86.5311 L 330.389,86.5521 L 330.312,86.5693 L 330.235,86.5827 L 330.157,86.5923
 L 330.079,86.5981 L 330,86.6 z
M 369.921,86.5981 L 369.843,86.5923 L 369.765,86.5827 L 369.688,86.5693 L 369.611,86.5521 L 369.536,86.5311
 L 369.461,86.5065 L 369.388,86.4782 L 369.316,86.4464 L 369.246,86.4111 L 369.177,86.3724 L 369.111,86.3304
 L 369.047,86.2851 L 368.985,86.2368 L 368.926,86.1855 L 368.869,86.1314 L 368.814,86.0745 L 368.763,86.015
 L 368.715,85.9531 L 368.67,85.8889 L 368.628,85.8226 L 368.589,85.7542 L 368.554,85.6841 L 368.522,85.6123
 L 368.494,85.539 L 368.469,85.4645 L 368.448,85.3888 L 368.431,85.3121 L 368.417,85.2348 L 368.408,85.1568
 L 368.402,85.0785 L 368.4,85 L 368.402,84.9215 L 368.408,84.8432 L 368.417,84.7652 L 368.431,84.6879
 L 368.448,84.6112 L 368.469,84.5355 L 368.494,84.461 L 368.522,84.3877 L 368.554,84.3159 L 368.589,84.2458
 L 368.628,84.1774 L 368.67,84.1111 L 368.715,84.0469 L 368.763,83.985 L 368.814,83.9255 L 368.869,83.8686
 L 368.926,83.8145 L 368.985,83.7632 L 369.047,83.7149 L 369.111,83.6696 L 369.177,83.6276 L 369.246,83.5889
 L 369.316,83.5536 L 369.388,83.5218 L 369.461,83.4935 L 369.536,83.4689 L 369.611,83.4479 L 369.688,83.4307
 L 369.765,83.4173 L 369.843,83.4077 L 369.921,83.4019 L 370,83.4 L 370.079,83.4019 L 370.157,83.4077
 L 370.235,83.4173 L 370.312,83.4307 L 370.389,83.4479 L 370.464,83.4689 L 370.539,83.4935 L 370.612,83.5218
 L 370.684,83.5536 L 370.754,83.5889 L 370.823,83.6276 L 370.889,83.6696 L 370.953,83.7149 L 371.015,83.7632
 L 371.074,83.8145 L 371.131,83.8686 L 371.186,83.9255 L 371.237,83.985 L 371.285,84.0469 L 371.33,84.1111
 L 371.372,84.1774 L 371.411,84.2458 L 371.446,84.3159 L 371.478,84.3877 L 371.506,84.461 L 371.531,84.5355
 L 371.552,84.6112 L 371.569,84.6879 L 371.583,84.7652 L 371.592,84.8432 L 371.598,84.9215 L 371.6,85
 L 371.598,85.0785 L 371.592,85.1568 L 371.583,85.2348 L 371.569,85.3121 L 371.552,85.3888 L 371.531,85.4645
 L 371.506,85.539 L 371.478,85.6123 L 371.446,85.6841 L 371.411,85.7542 L 371.372,85.8226 L 371.33,85.8889
 L 371.285,85.9531 L 371.237,86.015 L 371.186,86.0745 L 371.131,86.1314 L 371.074,86.1855 L 371.015,86.2368
 L 370.953,86.2851 L 370.889,86.3304 L 370.823,86.3724 L 370.754,86.4111 L 370.684,86.4464 L 370.612,86.4782
 L 370.539,86.5065 L 370.464,86.5311 L 370.389,86.5521 L 370.312,86.5693 L 370.235,86.5827 L 370.157,86.5923
 L 370.079,86.5981 L 370,86.6 z
" stroke="black" fill="none" stroke-width="0.35"/>
</svg>
