<?xml version="1.0" encoding="UTF-8" standalone="no"?>
<svg
   width="88.423866mm"
   height="58mm"
   viewBox="0 0 88.423867 57.999998"
   version="1.1"
   id="svg1"
   sodipodi:docname="KU4085_Gehaeuse_Kunde.svg"
   inkscape:version="1.4.2 (ebf0e940d0, 2025-05-08)"
   xmlns:inkscape="http://www.inkscape.org/namespaces/inkscape"
   xmlns:sodipodi="http://sodipodi.sourceforge.net/DTD/sodipodi-0.dtd"
   xmlns="http://www.w3.org/2000/svg"
   xmlns:svg="http://www.w3.org/2000/svg">
  <defs
     id="defs1" />
  <sodipodi:namedview
     id="namedview1"
     pagecolor="#ffffff"
     bordercolor="#000000"
     borderopacity="0.25"
     inkscape:showpageshadow="2"
     inkscape:pageopacity="0.0"
     inkscape:pagecheckerboard="0"
     inkscape:deskcolor="#d1d1d1"
     inkscape:document-units="mm"
     inkscape:zoom="3.78311"
     inkscape:cx="340.1963"
     inkscape:cy="115.51343"
     inkscape:window-width="3840"
     inkscape:window-height="2082"
     inkscape:window-x="0"
     inkscape:window-y="0"
     inkscape:window-maximized="1"
     inkscape:current-layer="svg1" />
  <path
     id="Shape2DView_nwe0040"
     d="M 28.58039,58 H 6.9 L 1.2,56.994936 V 33.80718 L 0.3,33.287564 C 0.11434427,33.180376 -1.741801e-5,32.982277 0,32.767924 V 27.955748 C 1.684199e-5,27.664589 0.2090655,27.415465 0.4958055,27.364881 L 4.55,26.65 14.2,17 h 7.5 V 1.5 C 21.7,0.6715729 22.371573,0 23.2,0 h 42 c 0.828427,0 1.5,0.6715729 1.5,1.5 V 3.9 17 h 7.5 l 9.65,9.65 4.054189,0.714863 c 0.286735,0.05056 0.495788,0.299679 0.495811,0.590861 v 4.812225 c 1.3e-5,0.214372 -0.114348,0.412465 -0.3,0.519633 L 87.2,33.80718 V 43 47.45 53 l -0.02386,1 h 1.247728 l -0.02386,4 h -27.2 l -1.471896,-3.156481 c -0.07883,-0.169049 0.01408,-0.368293 0.19425,-0.416565 L 61.329163,54.05 61.237301,53 H 26.6 v 0.8 L 28.989957,57.213212 26.6,53.8 27.794978,55.106606 C 29.221988,57.544587 28.984934,57.999984 28.58039,58 Z"
     stroke="#191919"
     stroke-width="0.7 px"
     style="fill:#808080;fill-opacity:1;fill-rule:evenodd;stroke:none;stroke-width:0.7;stroke-linecap:butt;stroke-miterlimit:4;stroke-dasharray:none"
     sodipodi:nodetypes="ccccccccccccccccccccccccccccccccccccccccc" />
</svg>
