<?xml version="1.0" encoding="UTF-8" standalone="no"?>
<!-- Created with Inkscape (http://www.inkscape.org/) -->

<svg
   width="699.39923"
   height="354.20181"
   viewBox="0 0 185.04937 93.715896"
   version="1.1"
   id="svg5"
   xml:space="preserve"
   inkscape:version="1.2 (dc2aedaf03, 2022-05-15)"
   sodipodi:docname="A2BLogo.svg"
   xmlns:inkscape="http://www.inkscape.org/namespaces/inkscape"
   xmlns:sodipodi="http://sodipodi.sourceforge.net/DTD/sodipodi-0.dtd"
   xmlns="http://www.w3.org/2000/svg"
   xmlns:svg="http://www.w3.org/2000/svg"><sodipodi:namedview
     id="namedview7"
     pagecolor="#ffffff"
     bordercolor="#666666"
     borderopacity="1.0"
     inkscape:showpageshadow="2"
     inkscape:pageopacity="0.0"
     inkscape:pagecheckerboard="0"
     inkscape:deskcolor="#d1d1d1"
     inkscape:document-units="px"
     showgrid="false"
     showguides="true"
     inkscape:zoom="1.1893044"
     inkscape:cx="383.4174"
     inkscape:cy="84.503177"
     inkscape:window-width="1920"
     inkscape:window-height="1001"
     inkscape:window-x="-9"
     inkscape:window-y="-9"
     inkscape:window-maximized="1"
     inkscape:current-layer="layer2"><sodipodi:guide
       position="95.713619,-67.226094"
       orientation="0,-1"
       id="guide481"
       inkscape:locked="false" /><sodipodi:guide
       position="116.01695,21.181721"
       orientation="0,-1"
       id="guide483"
       inkscape:locked="false" /><sodipodi:guide
       position="108.33873,-29.385484"
       orientation="1,0"
       id="guide1201"
       inkscape:locked="false" /><sodipodi:guide
       position="43.733309,-0.88090848"
       orientation="0,-1"
       id="guide3405"
       inkscape:locked="false" /><sodipodi:guide
       position="42.683359,-34.457994"
       orientation="0,-1"
       id="guide3408"
       inkscape:locked="false" /></sodipodi:namedview><defs
     id="defs2" /><g
     inkscape:groupmode="layer"
     id="layer2"
     inkscape:label="Layer 2"
     transform="translate(-42.55085,-83.516681)"><path
       style="fill:#0373ad;fill-opacity:1;stroke:none;stroke-width:0.264583px;stroke-linecap:butt;stroke-linejoin:miter;stroke-opacity:1"
       d="m 107.51949,88.667434 -64.96864,88.565136 27.843779,-0.15762 8.559684,-12.70258 H 105.08088 V 145.41642 H 91.72821 l 17.99373,-26.70276 v 58.36129 h 80.40078 c 26.82137,0 43.38466,-35.36649 13.51287,-49.0802 16.63871,-5.84953 16.80744,-39.327316 -14.39189,-39.327316 h -22.1449 c 0.61108,0.89379 1.14319,1.82939 1.59163,2.7988 2.66185,5.75416 2.49394,12.488286 -0.43098,18.155476 h 14.03325 v 0.0501 a 6.7678781,6.5643277 0 0 1 6.76807,6.56446 6.7678781,6.5643277 0 0 1 -6.76807,6.56394 h -15.95974 v 16.52509 h 16.56747 v 0.0641 a 8.6011028,8.3420868 0 0 1 0.38964,-0.0139 8.6011028,8.3420868 0 0 1 8.60102,8.34212 8.6011028,8.3420868 0 0 1 -8.60102,8.34213 8.6011028,8.3420868 0 0 1 -0.38964,-0.0139 v 0.005 h -48.66526 v -11.74392 h -12.27521 c -0.73563,1.9e-4 -4.71496,0 -4.71496,0 -0.30317,-10.72515 -0.0713,-20.644 8.15092,-28.26649 2.06756,-1.86778 4.48246,-3.89362 6.45491,-5.31027 -4.85739,0.0565 -8.87743,-0.10714 -13.55577,0 -0.92523,-5.99923 -0.15933,-15.828946 4.15221,-22.062736 z"
       id="path479" /></g></svg>
